<svg width="13" height="13" viewBox="0 0 13 13" fill="none" xmlns="http://www.w3.org/2000/svg">
<path d="M6.5 5.39844C10.0899 5.39844 13 6.87651 13 8.69922C12.9995 10.5217 10.0895 11.999 6.5 11.999C2.91046 11.999 0.000509779 10.5217 0 8.69922C0 6.87651 2.91015 5.39844 6.5 5.39844ZM4.82324 7.26562C4.81104 7.26048 4.5011 7.13335 4.45898 7.44531L4.96875 10.333C4.96875 10.333 5.11826 10.6275 5.31445 10.4336C5.51033 10.24 5.58882 10.1466 5.58887 10.0605C5.58887 9.97547 5.64229 9.30775 5.64355 9.29199C5.64355 9.29199 5.66722 9.10498 5.83203 9.21973C5.99698 9.3347 6.13057 9.49309 6.22461 9.47852C6.3193 9.46363 7.31543 9.04004 7.31543 9.04004C7.31731 9.04005 7.44135 9.04155 7.43359 9.19141C7.42579 9.34243 7.41005 10.1813 7.47266 10.2686C7.53541 10.3546 7.64501 10.448 7.7627 10.4121C7.88045 10.3761 7.97527 10.2259 8.00684 10.0967C8.03838 9.96741 8.53523 7.98497 8.49316 7.89062C8.4507 7.79571 8.13882 7.30186 7.90137 7.5459C7.66332 7.79059 6.50684 9.05273 6.50684 9.05273C6.50287 9.05629 6.43719 9.11194 6.34473 9.00195C6.24919 8.88808 4.82324 7.26562 4.82324 7.26562ZM8.68848 6.9873C8.51392 6.90397 8.23256 6.95158 8.16797 7.07617C8.12336 7.16267 8.11349 7.35098 8.26367 7.44824C8.34506 7.50103 8.59718 7.64196 8.73633 7.64648C8.92651 7.65226 9.04364 7.42009 8.98535 7.27734C8.90157 7.07248 8.70014 6.99183 8.68848 6.9873ZM4.4873 6.50488C4.22669 6.54076 4.06934 6.75781 4.06934 6.75781C3.99403 6.89371 3.93645 7.10801 4.13965 7.23633C4.20047 7.27392 4.51479 7.3041 4.67676 7.15527C4.78934 7.05157 4.88776 6.88438 4.86914 6.71094C4.8503 6.53764 4.65184 6.48207 4.4873 6.50488Z" fill="#fff"/>
<path d="M6.5 4.73995C2.91015 4.73995 0 6.02071 0 7.6006C0 6.09073 0.408571 3.02332 2.04286 2.83261C4.08571 2.59422 3.9 2.11744 5.2 1.40228C6.5 0.687116 9.84286 0.925504 10.4 2.11744C11.1429 3.071 11.7 4.50133 12.2571 5.21649C12.8444 5.97034 11.8857 4.02499 12.4429 4.26317C13 4.50133 13 6.56759 13 7.6006C13 6.02071 10.0899 4.73995 6.5 4.73995Z" fill="#fff"/>
</svg>
