<svg width="13" height="13" viewBox="0 0 13 13" fill="none" xmlns="http://www.w3.org/2000/svg">
<path d="M11.4785 12.5H1.47852C1.20237 12.5 0.978516 12.2761 0.978516 12C0.978516 11.7239 1.20237 11.5 1.47852 11.5H11.4785C11.7547 11.5 11.9785 11.7239 11.9785 12C11.9785 12.2761 11.7547 12.5 11.4785 12.5Z" fill="#fff"/>
<path d="M11.9785 10.5H0.978516C0.978516 8.29086 2.76938 6.5 4.97852 6.5H7.97852C10.1877 6.5 11.9785 8.29086 11.9785 10.5Z" fill="#fff"/>
<rect x="3.97852" y="2.5" width="1" height="2" fill="#fff"/>
<rect x="5.97852" y="0.5" width="1" height="3" fill="#fff"/>
<rect x="4.97852" y="5.5" width="3" height="1" fill="#fff"/>
<rect x="7.97852" y="1.5" width="1" height="2" fill="#fff"/>
</svg>
