<svg width="13" height="13" viewBox="0 0 13 13" fill="none" xmlns="http://www.w3.org/2000/svg">
<path d="M4.5 1.5C4.5 0.947715 4.94772 0.5 5.5 0.5H7.5C8.05228 0.5 8.5 0.947715 8.5 1.5" stroke="#fff" stroke-linecap="round"/>
<path d="M9.84277 3.54688C10.6186 3.54688 11.2709 4.1312 11.3564 4.90234L12.0117 10.8125C12.1116 11.7141 11.4052 12.5029 10.498 12.5029H2.52344C1.60166 12.5029 0.891277 11.6898 1.01465 10.7764L1.81348 4.86523C1.91573 4.11035 2.56046 3.54691 3.32227 3.54688H9.84277ZM3.82617 7.1748H5.34863V5.65234H3.82617V7.1748ZM7.63184 5.65234V7.1748H9.1543V5.65234H7.63184Z" fill="#fff"/>
</svg>
