<svg width="211" height="52" viewBox="0 0 211 52" fill="none" xmlns="http://www.w3.org/2000/svg">
<g clip-path="url(#clip0_309_3166)">
<path d="M97.7476 15.9688V18.2452H78.9636V30.8317H91.5271V33.1081H78.9636V48.9046H97.7476V51.181H72.9766V15.9688H97.7476Z" fill="#4FB84F"/>
<path d="M106.564 15.9688H109.914L133.261 41.6777H133.489V15.9688H136.12V51.1752H134.031L109.453 23.3685H109.249V51.1752H106.564V15.9688Z" fill="#4FB84F"/>
<path d="M163.949 15.9688L180.358 51.1752H174.266L168.816 39.4244H153.539L147.908 51.1752H144.914L161.702 15.9688H163.949ZM154.589 37.148H167.719L161.241 23.2187L154.589 37.148Z" fill="#4FB84F"/>
<path d="M198.642 49.7479C199.529 49.7479 200.404 49.6269 201.268 49.3964C202.131 49.1601 202.896 48.8086 203.572 48.336C204.249 47.8634 204.786 47.2871 205.201 46.6071C205.609 45.927 205.813 45.1375 205.813 44.2442C205.813 43.1665 205.533 42.2099 204.967 41.3742C204.407 40.5386 203.666 39.7663 202.756 39.0632C201.845 38.3544 200.795 37.6916 199.622 37.0807C198.443 36.4641 197.247 35.8475 196.027 35.225C194.808 34.6026 193.612 33.9514 192.433 33.2656C191.254 32.5856 190.21 31.8248 189.299 30.9892C188.389 30.1536 187.648 29.2199 187.088 28.1826C186.527 27.1453 186.242 25.9523 186.242 24.6037C186.242 23.2552 186.498 22.0046 187.012 20.852C187.525 19.6994 188.272 18.6966 189.264 17.8552C190.256 17.0138 191.47 16.3511 192.911 15.8727C194.353 15.3944 196.01 15.1523 197.889 15.1523C201.268 15.1523 203.934 15.8497 205.889 17.2501C207.844 18.6505 209.256 20.6733 210.126 23.3186L207.056 24.7075C206.7 23.6298 206.239 22.6443 205.685 21.751C205.131 20.8578 204.465 20.0913 203.689 19.4516C202.913 18.8119 202.02 18.322 201.017 17.9762C200.007 17.6305 198.875 17.4576 197.615 17.4576C196.488 17.4576 195.502 17.6132 194.656 17.9244C193.81 18.2356 193.11 18.639 192.555 19.1404C192.001 19.636 191.581 20.2008 191.301 20.8347C191.021 21.4686 190.881 22.1141 190.881 22.7711C190.881 23.6989 191.172 24.5461 191.75 25.3126C192.328 26.0791 193.092 26.811 194.026 27.4968C194.965 28.1884 196.039 28.8511 197.253 29.4793C198.467 30.1132 199.698 30.7529 200.952 31.4099C202.207 32.0669 203.438 32.7469 204.652 33.4558C205.866 34.1646 206.939 34.9369 207.879 35.7783C208.818 36.6197 209.577 37.5418 210.155 38.5446C210.732 39.5473 211.024 40.6654 211.024 41.8929C211.024 43.2933 210.756 44.6015 210.219 45.8233C209.682 47.0451 208.877 48.117 207.797 49.0333C206.724 49.9496 205.387 50.6758 203.794 51.206C202.201 51.7362 200.346 52.0013 198.227 52.0013C196.523 52.0013 194.995 51.8169 193.647 51.448C192.299 51.0792 191.108 50.5375 190.075 49.8286C189.043 49.1198 188.161 48.2553 187.426 47.2237C186.691 46.1979 186.084 45.0338 185.611 43.7371L188.838 42.4231C189.212 43.5699 189.719 44.5958 190.35 45.5063C190.98 46.4169 191.721 47.1891 192.561 47.8173C193.407 48.4512 194.347 48.9296 195.374 49.2581C196.407 49.5866 197.504 49.7537 198.665 49.7537L198.642 49.7479Z" fill="#4FB84F"/>
<path d="M29.8711 19.9229C22.6294 10.2064 12.1142 3.05442 0 0V51.1759H4.41152V10.6155C12.9369 14.2117 20.0794 20.3436 24.8819 28.0949C21.5266 34.901 19.5951 42.5198 19.5075 50.5938C19.5075 50.7898 19.5134 50.9857 19.5134 51.1816H23.9249C23.9249 51.003 23.9132 50.8243 23.9191 50.6457C23.9891 44.4273 25.267 38.4914 27.5195 33.0396C29.8127 38.088 31.184 43.6493 31.4058 49.5334C31.4291 50.0867 31.4233 50.6342 31.4233 51.1816H40.2405C40.2405 50.5247 40.2405 49.8677 40.2172 49.2049C39.867 39.9149 37.0952 31.2818 32.5378 23.859C37.212 17.1566 43.5491 11.6529 50.9367 7.95301V51.1759H59.7539V0C47.6047 3.05442 37.1011 10.2179 29.8769 19.9229H29.8711Z" fill="#E4A025"/>
</g>
<defs>
<clipPath id="clip0_309_3166">
<rect width="211" height="52" fill="white"/>
</clipPath>
</defs>
</svg>
