<?xml version="1.0" standalone="no"?>
<!DOCTYPE svg PUBLIC "-//W3C//DTD SVG 1.1//EN" "http://www.w3.org/Graphics/SVG/1.1/DTD/svg11.dtd" >
<svg xmlns="http://www.w3.org/2000/svg" xmlns:xlink="http://www.w3.org/1999/xlink" version="1.1">
<metadata>
Created by FontForge 20201107 at Thu Oct 16 05:31:13 2025
 By 
Designed by BeauType Studio. All rights reserved.
</metadata>
<defs>
<font id="BT-BeauSans-Medium" horiz-adv-x="1456" >
  <font-face 
    font-family="BT Beau Sans Medium"
    font-weight="500"
    font-stretch="normal"
    units-per-em="2048"
    panose-1="0 0 0 0 0 0 0 0 0 0"
    ascent="1638"
    descent="-410"
    x-height="1110"
    cap-height="1561"
    bbox="-397 -758 2357 2314"
    underline-thickness="102"
    underline-position="-255"
    unicode-range="U+0020-2265"
  />
<missing-glyph horiz-adv-x="1536" 
d="M1260 2314v-3072h-973v3072h973zM1024 219h-510v-346h510v346zM922 119v-146h-308v146h308zM1024 752h-307v-172h104v69h101v-143h-308v246h-100v-349h510v349zM1024 1126h-102v-202h-408v-105h510v307zM1024 1311h-510v-103h203v-112h-203v-103h307v215h203v103z
M717 1608v-111h-103v111h103zM821 1712h-307v-319h510v104h-203v215zM1024 2109h-508v-102h201v-113h-203v-102h510v102h-203v113h203v102zM1024 -199h-510v-100h215l-215 -145v-101h510v101h-313l215 145h98v100z" />
    <glyph glyph-name="f_f" unicode="ff" horiz-adv-x="1363" 
d="M168 0v934h-98v176h98v225q0 230 229 230h221v-213h-102q-60 0 -87.5 -28.5t-27.5 -100.5v-113h410v225q0 230 229 230h283v-213h-164q-60 0 -87.5 -28.5t-27.5 -100.5v-113h279v-176h-279v-934h-233v934h-410v-934h-233z" />
    <glyph glyph-name="f_i" unicode="fi" horiz-adv-x="1146" 
d="M168 0v934h-98v176h98v225q0 230 229 230h221v-213h-102q-60 0 -87.5 -28.5t-27.5 -100.5v-113h631v-1110h-233v934h-398v-934h-233zM915 1212q-58 0 -99.5 41.5t-41.5 100.5q0 58 41 99.5t100 41.5t100.5 -41.5t41.5 -99.5t-41.5 -100t-100.5 -42z" />
    <glyph glyph-name="f_l" unicode="fl" horiz-adv-x="1343" 
d="M168 0v934h-98v176h98v258q0 229 229 229h684v-1255q0 -72 27.5 -100.5t87.5 -28.5h123v-213h-242q-229 0 -229 229v1155h-332q-60 0 -87.5 -28.5t-27.5 -100.5v-145h258v-176h-258v-934h-233z" />
    <glyph glyph-name=".notdef" horiz-adv-x="1536" 
d="M1260 2314v-3072h-973v3072h973zM1024 219h-510v-346h510v346zM922 119v-146h-308v146h308zM1024 752h-307v-172h104v69h101v-143h-308v246h-100v-349h510v349zM1024 1126h-102v-202h-408v-105h510v307zM1024 1311h-510v-103h203v-112h-203v-103h307v215h203v103z
M717 1608v-111h-103v111h103zM821 1712h-307v-319h510v104h-203v215zM1024 2109h-508v-102h201v-113h-203v-102h510v102h-203v113h203v102zM1024 -199h-510v-100h215l-215 -145v-101h510v101h-313l215 145h98v100z" />
    <glyph glyph-name=".null" horiz-adv-x="0" 
 />
    <glyph glyph-name="nonmarkingreturn" horiz-adv-x="682" 
 />
    <glyph glyph-name="space" unicode=" " horiz-adv-x="507" 
 />
    <glyph glyph-name="space" unicode="&#xa0;" horiz-adv-x="507" 
 />
    <glyph glyph-name="exclam" unicode="!" horiz-adv-x="475" 
d="M164 442l-25 668v340h213v-338l-24 -670h-164zM238 -8q-65 0 -110.5 45.5t-45.5 109.5q0 66 45.5 111t110.5 45q66 0 110.5 -45t44.5 -111q0 -65 -44.5 -110t-110.5 -45z" />
    <glyph glyph-name="quotedbl" unicode="&#x22;" horiz-adv-x="645" 
d="M147 1120q-21 0 -30.5 6t-10.5 23l-24 375q-2 21 1.5 29t16.5 8h162q13 0 17 -8t2 -29l-25 -375q-1 -17 -10.5 -23t-30.5 -6h-68zM430 1120q-21 0 -30.5 6t-10.5 23l-24 375q-2 21 1.5 29t16.5 8h162q13 0 16.5 -8t1.5 -29l-24 -375q-1 -17 -10.5 -23t-30.5 -6h-68z" />
    <glyph glyph-name="numbersign" unicode="#" horiz-adv-x="1636" 
d="M817 0l94 324h-393l-94 -324h-197l95 324h-224l49 180h228l106 356h-229l49 180h231l105 353h197l-105 -353h393l105 353h196l-104 -353h227l-49 -180h-229l-107 -356h232l-50 -180h-235l-94 -324h-197zM571 504h394l106 356h-393z" />
    <glyph glyph-name="dollar" unicode="$" horiz-adv-x="1253" 
d="M559 -147v127q-137 12 -255 74t-198 163l173 172q59 -68 132 -114.5t148 -63.5v516l-92 41q-165 74 -245.5 171t-80.5 232q0 165 115.5 276.5t302.5 133.5v123h135v-121q242 -18 406 -197l-160 -159q-115 115 -246 133v-438l113 -48q348 -149 348 -452
q0 -185 -128 -305.5t-333 -139.5v-124h-135zM383 1186q0 -118 176 -205v377q-79 -15 -127.5 -61.5t-48.5 -110.5zM694 203q100 12 159.5 71.5t59.5 143.5q0 146 -219 248v-463z" />
    <glyph glyph-name="percent" unicode="%" horiz-adv-x="1511" 
d="M180 0l983 1556h185l-983 -1556h-185zM1102 -16q-129 0 -220 91t-91 220t91 220t220 91t220 -91t91 -220t-91 -220t-220 -91zM1102 129q69 0 117.5 49t48.5 117q0 69 -48.5 117.5t-117.5 48.5q-68 0 -117 -48.5t-49 -117.5q0 -67 49 -116.5t117 -49.5zM410 934
q-129 0 -220.5 91t-91.5 220t91.5 220t220.5 91t220 -91t91 -220t-91 -220t-220 -91zM410 1079q69 0 117 49t48 117q0 69 -48 117.5t-117 48.5q-68 0 -117 -48.5t-49 -117.5q0 -67 49 -116.5t117 -49.5z" />
    <glyph glyph-name="ampersand" unicode="&#x26;" horiz-adv-x="1421" 
d="M504 -16q-178 0 -296 117t-118 311q0 86 25 157t69 119.5t94 80.5t109 52v8q-74 34 -128 123.5t-54 206.5q0 171 126 284t310 113q98 0 186 -45t138 -108l-140 -135q-73 92 -192 92q-96 0 -155.5 -61t-59.5 -158q0 -100 61 -160.5t172 -60.5h647v-164h-184v-494
q0 -49 14.5 -69.5t55.5 -20.5h114v-172h-206q-82 0 -127 46.5t-45 123.5v43h-9q-56 -100 -157.5 -164.5t-249.5 -64.5zM592 174q91 0 165.5 51t113 128.5t38.5 162.5v229h-305q-120 0 -208.5 -84t-88.5 -221q0 -106 75.5 -186t209.5 -80z" />
    <glyph glyph-name="quotesingle" unicode="'" horiz-adv-x="362" 
d="M147 1120q-21 0 -30.5 6t-10.5 23l-24 375q-2 21 1.5 29t16.5 8h162q13 0 17 -8t2 -29l-25 -375q-1 -17 -10.5 -23t-30.5 -6h-68z" />
    <glyph glyph-name="parenleft" unicode="(" horiz-adv-x="747" 
d="M512 -229q-369 434 -369 929q0 251 96 487t273 443l154 -117q-142 -166 -227 -380t-85 -433q0 -215 84.5 -429.5t225.5 -385.5z" />
    <glyph glyph-name="parenright" unicode=")" horiz-adv-x="747" 
d="M84 -115q140 171 224.5 385.5t84.5 429.5q0 219 -85 433t-226 380l154 117q177 -207 272.5 -443t95.5 -487q0 -496 -368 -929z" />
    <glyph glyph-name="asterisk" unicode="*" horiz-adv-x="1036" 
d="M352 776l-166 117l254 260l-4 4l-342 53l62 191l307 -154l4 4l-49 342h200l-51 -342l4 -4l308 154l63 -191l-340 -53l-4 -4l252 -260l-166 -117l-164 324h-4z" />
    <glyph glyph-name="plus" unicode="+" horiz-adv-x="1253" 
d="M524 25v411h-389v197h389v411h205v-411h389v-197h-389v-411h-205z" />
    <glyph glyph-name="comma" unicode="," horiz-adv-x="481" 
d="M102 -240q-26 0 -18 33l80 406q6 26 26 26h187q32 0 18 -37l-127 -399q-6 -18 -13.5 -23.5t-27.5 -5.5h-125z" />
    <glyph glyph-name="hyphen" unicode="-" horiz-adv-x="921" 
d="M123 483v189h676v-189h-676z" />
    <glyph glyph-name="period" unicode="." horiz-adv-x="475" 
d="M238 -8q-65 0 -110.5 45.5t-45.5 109.5q0 66 45.5 111t110.5 45q66 0 110.5 -45t44.5 -111q0 -65 -44.5 -110t-110.5 -45z" />
    <glyph glyph-name="slash" unicode="/" horiz-adv-x="841" 
d="M90 0l469 1589h193l-469 -1589h-193z" />
    <glyph glyph-name="zero" unicode="0" horiz-adv-x="1339" 
d="M670 -25q-118 0 -215 43t-163.5 118t-111.5 178t-65.5 219.5t-20.5 246.5t20.5 246.5t65.5 219t111.5 177t163.5 117.5t215 43q119 0 216 -43t163 -117.5t110.5 -177t65 -219t20.5 -246.5q0 -164 -33.5 -305.5t-100.5 -255t-180 -179t-261 -65.5zM670 186q76 0 136 36
t96.5 94t60.5 138t33.5 159.5t9.5 166.5t-9.5 166.5t-33.5 159t-60.5 137t-96.5 93.5t-136 36t-135.5 -36t-96.5 -93.5t-61 -137t-33.5 -159t-9.5 -166.5q0 -72 7 -139t22 -135.5t41 -125t62 -100.5t88.5 -69t115.5 -25z" />
    <glyph glyph-name="one" unicode="1" horiz-adv-x="755" 
d="M350 0v1282h-8l-229 -156l-105 164l391 271h193v-1561h-242z" />
    <glyph glyph-name="two" unicode="2" horiz-adv-x="1267" 
d="M137 0v217l455 447q149 147 217 245.5t68 198.5q0 120 -72.5 187t-186.5 67t-187 -72t-73 -184h-233q0 214 139.5 344.5t364.5 130.5q137 0 248.5 -56t177 -162t65.5 -243q0 -99 -34 -185.5t-98 -169t-181 -198.5l-326 -329v-9h656v-229h-1000z" />
    <glyph glyph-name="three" unicode="3" horiz-adv-x="1179" 
d="M535 -25q-161 0 -289.5 61t-188.5 140l166 168q133 -139 326 -139q109 0 188.5 71.5t79.5 184.5q0 110 -76.5 182t-208.5 72h-108v205h115q107 0 172 67.5t65 167.5q0 98 -66.5 154.5t-158.5 56.5q-145 0 -293 -143l-149 149q67 83 190 148t258 65q200 0 329.5 -113.5
t129.5 -300.5q0 -126 -62 -216.5t-145 -125.5v-8q102 -25 177 -123t75 -241q0 -218 -147.5 -350t-378.5 -132z" />
    <glyph glyph-name="four" unicode="4" horiz-adv-x="1359" 
d="M823 0v315h-708v177l692 1069h258v-1037h188v-209h-188v-315h-242zM397 524h426v662h-8l-418 -654v-8z" />
    <glyph glyph-name="five" unicode="5" horiz-adv-x="1286" 
d="M659 -25q-113 0 -205.5 31t-151 79t-98.5 109.5t-56.5 119t-16.5 110.5l244 -2q0 -23 15 -56t45 -69.5t89 -62t133 -25.5q134 0 213.5 87t79.5 228q1 144 -74.5 228t-203.5 84q-181 0 -297 -158l-217 117l88 766h862v-230h-672l-47 -391h8q118 109 312 109
q215 0 349.5 -142.5t133.5 -380.5q0 -245 -150.5 -398t-382.5 -153z" />
    <glyph glyph-name="six" unicode="6" horiz-adv-x="1255" 
d="M635 -25q-150 0 -271 65t-191.5 184t-70.5 270q0 144 76 323q41 92 131 244l303 500h273l-340 -562h8q56 27 143 27q195 0 333 -148.5t138 -367.5q0 -151 -69.5 -274t-191 -192t-271.5 -69zM637 205q130 0 211.5 86t81.5 219q0 132 -82 217.5t-211 85.5
q-128 0 -210.5 -86t-82.5 -217q0 -133 82.5 -219t210.5 -86z" />
    <glyph glyph-name="seven" unicode="7" horiz-adv-x="1095" 
d="M227 0l533 1319v8h-715l4 234h985v-205l-542 -1356h-265z" />
    <glyph glyph-name="eight" unicode="8" horiz-adv-x="1280" 
d="M641 -27q-220 0 -370 131t-150 340q0 149 78 257t176 145v8q-79 36 -142 122.5t-63 201.5q0 124 67 219t173 142.5t231 47.5q124 0 229.5 -47.5t172.5 -142.5t67 -219q0 -116 -60 -202.5t-137 -121.5v-8q97 -36 171.5 -144t74.5 -258q0 -139 -70 -247.5t-187.5 -166
t-260.5 -57.5zM641 195q118 0 197.5 76.5t79.5 195.5q0 118 -79.5 195t-197.5 77t-198.5 -77.5t-80.5 -194.5q0 -119 80.5 -195.5t198.5 -76.5zM641 940q98 0 161.5 61.5t63.5 151.5t-63.5 151.5t-161.5 61.5q-100 0 -163.5 -61t-63.5 -152t63.5 -152t163.5 -61z" />
    <glyph glyph-name="nine" unicode="9" horiz-adv-x="1245" 
d="M371 0l334 567h-9q-54 -28 -133 -28q-137 0 -250.5 69t-178 187.5t-64.5 259.5q0 227 155.5 378.5t382.5 151.5q240 0 389.5 -140.5t149.5 -367.5q0 -122 -43 -235.5t-148 -298.5l-311 -543h-274zM604 752q127 0 211 87t84 222q0 131 -82.5 213t-212.5 82t-213.5 -85
t-83.5 -216q0 -127 82 -215t215 -88z" />
    <glyph glyph-name="colon" unicode=":" horiz-adv-x="475" 
d="M238 -8q-65 0 -110.5 45.5t-45.5 109.5q0 66 45.5 111t110.5 45q66 0 110.5 -45t44.5 -111q0 -65 -44.5 -110t-110.5 -45zM238 754q-65 0 -110.5 45.5t-45.5 109.5q0 66 45.5 111t110.5 45q66 0 110.5 -45t44.5 -111q0 -65 -44.5 -110t-110.5 -45z" />
    <glyph glyph-name="semicolon" unicode=";" horiz-adv-x="514" 
d="M285 754q-65 0 -110.5 45.5t-45.5 109.5q0 66 45.5 111t110.5 45q66 0 110.5 -45t44.5 -111q0 -65 -44.5 -110t-110.5 -45zM111 -240q-27 0 -19 33l80 406q6 26 27 26h186q32 0 18 -37l-127 -399q-6 -18 -13 -23.5t-27 -5.5h-125z" />
    <glyph glyph-name="less" unicode="&#x3c;" horiz-adv-x="1310" 
d="M1049 84l-926 483v127l926 500v-223l-648 -336v-8l648 -324v-219z" />
    <glyph glyph-name="equal" unicode="=" horiz-adv-x="1253" 
d="M135 737v197h983v-197h-983zM135 246v196h983v-196h-983z" />
    <glyph glyph-name="greater" unicode="&#x3e;" horiz-adv-x="1310" 
d="M254 84v219l647 324v8l-647 336v223l926 -500v-127z" />
    <glyph glyph-name="question" unicode="?" horiz-adv-x="987" 
d="M360 516q0 107 32 174.5t108 132.5q103 91 133 126q67 77 67 153q0 78 -52 125t-136 47q-172 0 -295 -172l-135 135q83 113 194 173t226 60q185 0 294 -98.5t109 -273.5q0 -92 -50 -177t-173 -182q-129 -102 -129 -223v-78h-193v78zM465 -8q-58 0 -98.5 41t-40.5 98
q0 60 40 99.5t99 39.5t99 -39.5t40 -99.5q0 -57 -40.5 -98t-98.5 -41z" />
    <glyph glyph-name="at" unicode="@" horiz-adv-x="1949" 
d="M1038 -283q-194 -5 -348.5 35.5t-261.5 118t-177.5 191.5t-103 250.5t-32.5 299.5q0 187 65 351.5t180 284.5t283 189.5t365 69.5q259 0 448 -103t286 -289t97 -435q0 -253 -96 -402t-270 -149q-94 0 -157 48.5t-87 119.5h-8q-100 -165 -330 -168q-140 0 -226.5 76.5
t-86.5 195.5q0 127 97 208t269 81h250v43q0 88 -61 134t-160 46q-156 0 -242 -102l-117 113q62 73 161.5 118t213.5 45q189 0 292 -98.5t103 -277.5v-250q0 -158 101 -158q83 0 124.5 100.5t41.5 274.5q0 142 -41 261.5t-119.5 209t-202 140t-280.5 50.5
q-206 0 -367.5 -94.5t-249.5 -259.5t-88 -373q0 -134 24.5 -244.5t79.5 -203t139 -154.5t208.5 -94.5t283.5 -28.5l285 7v-168zM915 299q123 0 201 68t78 168v12h-246q-186 0 -186 -127q0 -57 40 -89t113 -32z" />
    <glyph glyph-name="A" unicode="A" 
d="M33 0l534 1561h322l534 -1561h-245l-144 422h-612l-141 -422h-248zM494 635h471l-232 682h-8z" />
    <glyph glyph-name="B" unicode="B" horiz-adv-x="1323" 
d="M156 0v1561h528q104 0 190.5 -21t155.5 -65.5t107.5 -120.5t38.5 -178q0 -114 -63 -220t-159 -139v-6q51 -12 98.5 -40.5t89 -74t66.5 -114t25 -150.5q0 -207 -139 -319.5t-361 -112.5h-577zM684 213q144 0 225.5 65.5t81.5 188.5q0 115 -86 175t-221 60h-287v-489h287z
M657 915q56 0 102 10.5t88 35.5t65.5 73.5t23.5 116.5q0 99 -67.5 148t-190.5 49h-281v-433h260z" />
    <glyph glyph-name="C" unicode="C" horiz-adv-x="1490" 
d="M862 -25q-237 0 -416 104t-273.5 286t-94.5 415q0 174 62 325t167.5 255.5t250.5 164.5t308 60q223 0 398 -106q81 -53 135 -109l-160 -158q-73 76 -171 116t-208 40q-155 0 -279.5 -79t-193 -213t-68.5 -296q0 -260 147 -423.5t394 -163.5q145 0 287 77q45 23 102 80
l156 -155q-110 -107 -248.5 -163.5t-294.5 -56.5z" />
    <glyph glyph-name="D" unicode="D" horiz-adv-x="1546" 
d="M156 0v1561h528q371 0 575.5 -194t204.5 -538q0 -186 -62 -341.5t-172 -262.5t-263 -166t-332 -59h-479zM653 213q169 0 300.5 79t202.5 215t71 304q0 258 -142 397.5t-397 139.5h-291v-1135h256z" />
    <glyph glyph-name="E" unicode="E" horiz-adv-x="1171" 
d="M156 0v1561h884v-213h-643v-437h594v-213h-594v-485h652v-213h-893z" />
    <glyph glyph-name="F" unicode="F" horiz-adv-x="1122" 
d="M156 0v1561h893v-213h-652v-504h590v-213h-590v-631h-241z" />
    <glyph glyph-name="G" unicode="G" horiz-adv-x="1695" 
d="M870 -25q-162 0 -305 54.5t-250 154.5t-170.5 251.5t-66.5 334.5q-3 174 56.5 326t164.5 259t252 168.5t315 61.5q385 0 602 -266l-168 -168q-89 110 -192 163.5t-242 53.5q-239 0 -395.5 -170t-153.5 -428q3 -260 158.5 -418.5t415.5 -158.5q127 0 238.5 53t181 152.5
t69.5 222.5v8h-518v209h748q8 -21 8 -107q0 -226 -96.5 -398.5t-266 -265t-385.5 -92.5z" />
    <glyph glyph-name="H" unicode="H" horiz-adv-x="1593" 
d="M156 0v1561h241v-648h799v648h242v-1561h-242v700h-799v-700h-241z" />
    <glyph glyph-name="I" unicode="I" horiz-adv-x="552" 
d="M156 0v1561h241v-1561h-241z" />
    <glyph glyph-name="J" unicode="J" horiz-adv-x="811" 
d="M49 0v213h168q116 0 160.5 47t44.5 170v918h-299v213h541v-1225q0 -175 -99 -255.5t-313 -80.5h-203z" />
    <glyph glyph-name="K" unicode="K" horiz-adv-x="1380" 
d="M156 0v1561h241v-672h152l504 672h274l-573 -766v-17l618 -778h-295l-540 676h-140v-676h-241z" />
    <glyph glyph-name="L" unicode="L" horiz-adv-x="1060" 
d="M156 0v1561h241v-1348h643v-213h-884z" />
    <glyph glyph-name="M" unicode="M" horiz-adv-x="1867" 
d="M156 0v1561h370l408 -1239h8l404 1239h366v-1561h-242v1024l9 164h-9l-399 -1188h-272l-402 1188h-8l8 -164v-1024h-241z" />
    <glyph glyph-name="N" unicode="N" horiz-adv-x="1560" 
d="M156 0v1561h290l717 -1180h8l-8 180v1000h242v-1561h-291l-717 1176h-8l8 -181v-995h-241z" />
    <glyph glyph-name="O" unicode="O" horiz-adv-x="1732" 
d="M866 -25q-166 0 -312.5 62.5t-250.5 169.5t-164.5 256.5t-60.5 316.5q0 174 63.5 325.5t170.5 256t251 164t303 59.5q162 0 307.5 -61t251.5 -167t168 -256.5t62 -320.5q0 -174 -63.5 -325.5t-171 -256t-251.5 -164t-303 -59.5zM866 193q152 0 278 77t198.5 212t72.5 298
q0 160 -70 294.5t-196.5 214t-282.5 79.5q-152 0 -278 -77t-198.5 -212.5t-72.5 -298.5q0 -160 70.5 -294t197 -213.5t281.5 -79.5z" />
    <glyph glyph-name="P" unicode="P" horiz-adv-x="1277" 
d="M156 0v1561h569q111 0 202 -26t160 -78.5t107.5 -138.5t38.5 -198q0 -121 -43 -218t-119 -159.5t-179 -95.5t-224 -33h-271v-614h-241zM674 827q160 0 239.5 68.5t79.5 196.5q0 256 -319 256h-277v-521h277z" />
    <glyph glyph-name="Q" unicode="Q" horiz-adv-x="1757" 
d="M866 -25q-166 0 -312.5 62.5t-250.5 169.5t-164.5 256.5t-60.5 316.5q0 174 63.5 325.5t170.5 256t251 164t303 59.5q162 0 307.5 -61t251.5 -167t168 -256.5t62 -320.5q0 -168 -57.5 -312t-161.5 -251l247 -248l-151 -151l-264 264q-184 -107 -402 -107zM866 193
q152 0 278 77t198.5 212t72.5 298q0 160 -70 294.5t-196.5 214t-282.5 79.5q-152 0 -278 -77t-198.5 -212.5t-72.5 -298.5q0 -160 70.5 -294t197 -213.5t281.5 -79.5z" />
    <glyph glyph-name="R" unicode="R" horiz-adv-x="1343" 
d="M156 0v1561h569q103 0 192.5 -26t161.5 -78t113 -138.5t41 -198.5q0 -178 -90.5 -300.5t-257.5 -172.5v-8l385 -639h-279l-366 614h-228v-614h-241zM674 827q161 0 240 68.5t79 196.5q0 256 -319 256h-277v-521h277z" />
    <glyph glyph-name="S" unicode="S" horiz-adv-x="1253" 
d="M631 -25q-160 0 -297 63.5t-228 178.5l173 172q77 -89 173.5 -138.5t196.5 -49.5q118 0 191 61.5t73 155.5q0 150 -233 254l-213 96q-165 74 -245.5 171t-80.5 232q0 183 140.5 298.5t355.5 115.5q282 0 463 -199l-160 -159q-137 137 -305 137q-110 0 -181 -50t-71 -128
q0 -130 221 -225l203 -87q348 -149 348 -452q0 -199 -148 -323t-376 -124z" />
    <glyph glyph-name="T" unicode="T" horiz-adv-x="1212" 
d="M485 0v1348h-460v213h1163v-213h-461v-1348h-242z" />
    <glyph glyph-name="U" unicode="U" horiz-adv-x="1523" 
d="M762 -25q-174 0 -318.5 74.5t-228.5 208t-84 299.5v1004h242v-961q0 -79 24 -147.5t70.5 -122.5t122 -85.5t172.5 -31.5t172.5 31.5t122 85.5t70.5 122.5t24 147.5v961h242v-1004q0 -166 -84 -299.5t-228.5 -208t-318.5 -74.5z" />
    <glyph glyph-name="V" unicode="V" horiz-adv-x="1398" 
d="M543 0l-523 1561h256l424 -1313h7l419 1313h252l-520 -1561h-315z" />
    <glyph glyph-name="W" unicode="W" horiz-adv-x="2138" 
d="M389 0l-311 1561h256l215 -1164h6l377 1164h276l375 -1164h6l215 1164h256l-311 -1561h-276l-398 1241h-8l-401 -1241h-277z" />
    <glyph glyph-name="X" unicode="X" horiz-adv-x="1400" 
d="M53 0l508 801l-483 760h278l340 -557h9l348 557h262l-475 -762l508 -799h-279l-373 598h-8l-373 -598h-262z" />
    <glyph glyph-name="Y" unicode="Y" horiz-adv-x="1347" 
d="M553 0v647l-524 914h266l375 -668h8l375 668h266l-524 -914v-647h-242z" />
    <glyph glyph-name="Z" unicode="Z" horiz-adv-x="1384" 
d="M123 0v205l815 1134v9h-803v213h1114v-205l-815 -1135v-8h828v-213h-1139z" />
    <glyph glyph-name="bracketleft" unicode="[" horiz-adv-x="763" 
d="M266 -238v1860h428v-172h-217v-1516h217v-172h-428z" />
    <glyph glyph-name="backslash" unicode="\" horiz-adv-x="882" 
d="M580 0l-469 1589h192l469 -1589h-192z" />
    <glyph glyph-name="bracketright" unicode="]" horiz-adv-x="763" 
d="M498 -238h-428v172h217v1516h-217v172h428v-1860z" />
    <glyph glyph-name="asciicircum" unicode="^" horiz-adv-x="843" 
d="M74 1290l262 271h172l262 -271l-143 -106l-197 200h-16l-197 -200z" />
    <glyph glyph-name="underscore" unicode="_" horiz-adv-x="983" 
d="M0 -307v188h983v-188h-983z" />
    <glyph glyph-name="a" unicode="a" horiz-adv-x="1185" 
d="M119 946q186 193 465 193q227 0 357 -118t130 -335v-686h-233v168h-9q-134 -193 -372 -193q-168 0 -275.5 95t-107.5 247q0 160 118.5 254.5t333.5 94.5h312v34q0 110 -78.5 170t-198.5 60q-176 0 -297 -127zM522 489q-110 0 -159.5 -44t-49.5 -115q0 -68 53 -114
t148 -46q143 0 233.5 87t90.5 216v16h-316z" />
    <glyph glyph-name="b" unicode="b" horiz-adv-x="1333" 
d="M717 -25q-106 0 -195.5 38.5t-148.5 109.5h-8v-123h-234v1597h234v-616h8q53 75 145.5 116.5t200.5 41.5q110 0 209 -39.5t174.5 -111.5t120.5 -182t45 -241q0 -129 -43.5 -239.5t-117.5 -187t-175.5 -120t-214.5 -43.5zM692 190q151 0 244.5 105.5t93.5 263.5
q0 157 -93.5 262t-244.5 105q-152 0 -246 -105t-94 -262q0 -158 94 -263.5t246 -105.5z" />
    <glyph glyph-name="c" unicode="c" horiz-adv-x="1142" 
d="M631 -25q-244 0 -404.5 163t-160.5 421q0 130 45.5 240.5t123 184.5t181.5 115.5t221 41.5q274 0 432 -205l-145 -145q-105 137 -279 137q-157 0 -251.5 -104t-94.5 -265q0 -159 93.5 -265t250.5 -106q159 0 281 129l145 -145q-74 -91 -186.5 -144t-251.5 -53z" />
    <glyph glyph-name="d" unicode="d" horiz-adv-x="1333" 
d="M604 -25q-109 0 -207.5 41.5t-171.5 115.5t-116 183.5t-43 237.5q0 131 43.5 242t118 186t176.5 116.5t217 41.5q109 0 197.5 -41t142.5 -117h8v616h233v-1597h-233v143h-8q-41 -77 -137.5 -122.5t-219.5 -45.5zM643 190q151 0 244.5 105.5t93.5 263.5q0 157 -93.5 262
t-244.5 105q-152 0 -246 -105t-94 -262q0 -158 94 -263.5t246 -105.5z" />
    <glyph glyph-name="e" unicode="e" horiz-adv-x="1234" 
d="M639 -25q-253 0 -413 161t-160 421q0 126 44 236t119.5 185.5t178.5 119t219 43.5q246 0 388 -158t142 -428q0 -41 -2 -66h-854q9 -134 104 -217.5t242 -83.5q189 0 307 121l144 -141q-75 -90 -195 -141.5t-264 -51.5zM922 668q-7 116 -91.5 188t-205.5 72
q-129 0 -219 -71.5t-103 -188.5h619z" />
    <glyph glyph-name="f" unicode="f" horiz-adv-x="720" 
d="M168 0v934h-98v176h98v225q0 230 229 230h283v-213h-164q-60 0 -87.5 -28.5t-27.5 -100.5v-113h279v-176h-279v-934h-233z" />
    <glyph glyph-name="g" unicode="g" horiz-adv-x="1333" 
d="M653 -496q-166 0 -304 66t-230 174l155 156q78 -85 167.5 -132t205.5 -47q157 0 239.5 86.5t82.5 215.5v120h-8q-41 -76 -137 -122t-208 -46q-243 0 -396.5 163t-153.5 415q0 131 43.5 242t118 186t176.5 116.5t217 41.5q109 0 197.5 -41t142.5 -117h8v129h233v-1106
q0 -101 -36 -190.5t-103 -159t-173 -110t-237 -40.5zM643 190q151 0 244.5 105.5t93.5 263.5q0 157 -93.5 262t-244.5 105q-152 0 -246 -105t-94 -262q0 -158 94 -263.5t246 -105.5z" />
    <glyph glyph-name="h" unicode="h" horiz-adv-x="1280" 
d="M131 0v1597h234v-651h8q43 81 138.5 135t211.5 54q198 0 316 -119.5t118 -337.5v-678h-233v623q0 146 -73.5 228.5t-193.5 82.5q-128 0 -210 -92t-82 -256v-586h-234z" />
    <glyph glyph-name="i" unicode="i" horiz-adv-x="479" 
d="M131 0v1110h234v-1110h-234zM248 1212q-58 0 -100 42t-42 100t41.5 99.5t100.5 41.5q58 0 99.5 -41.5t41.5 -99.5q0 -59 -41.5 -100.5t-99.5 -41.5z" />
    <glyph glyph-name="j" unicode="j" horiz-adv-x="512" 
d="M-74 -446v213h90q60 0 87.5 28.5t27.5 100.5v1214h234v-1327q0 -229 -230 -229h-209zM248 1202q-59 0 -100.5 41.5t-41.5 99.5q0 59 42 100.5t100 41.5t99.5 -41.5t41.5 -100.5t-41.5 -100t-99.5 -41z" />
    <glyph glyph-name="k" unicode="k" horiz-adv-x="1112" 
d="M131 0v1597h234v-884h112l326 397h274l-407 -498l469 -612h-283l-391 512h-100v-512h-234z" />
    <glyph glyph-name="l" unicode="l" horiz-adv-x="618" 
d="M352 0q-229 0 -229 229v1368h233v-1255q0 -72 27.5 -100.5t87.5 -28.5h123v-213h-242z" />
    <glyph glyph-name="m" unicode="m" horiz-adv-x="2035" 
d="M131 0v1110h234v-164h8q43 84 138 136.5t210 52.5q121 0 218 -57.5t146 -159.5h9q130 217 376 217q206 0 324.5 -120t118.5 -329v-686h-234v643q0 137 -71 218t-189 81q-133 0 -206.5 -94.5t-73.5 -253.5v-594h-234v643q0 139 -71 219t-189 80q-133 0 -206.5 -94.5
t-73.5 -253.5v-594h-234z" />
    <glyph glyph-name="n" unicode="n" horiz-adv-x="1280" 
d="M723 1135q198 0 316 -119.5t118 -337.5v-678h-233v623q0 146 -73.5 228.5t-193.5 82.5q-128 0 -210 -92t-82 -256v-586h-234v1110h234v-164h8q43 82 137.5 135.5t212.5 53.5z" />
    <glyph glyph-name="o" unicode="o" horiz-adv-x="1275" 
d="M639 -25q-116 0 -220 41t-182.5 114.5t-124.5 185t-46 243.5q0 170 76.5 304t207 206t289.5 72q114 0 217 -40.5t182 -114t125.5 -184.5t46.5 -243q0 -170 -76 -304.5t-206 -207t-289 -72.5zM639 190q151 0 242.5 105t91.5 264q0 157 -91.5 262t-242.5 105
q-152 0 -244 -104.5t-92 -262.5q0 -159 92 -264t244 -105z" />
    <glyph glyph-name="p" unicode="p" horiz-adv-x="1333" 
d="M131 -451v1561h234v-129h8q53 75 145.5 116.5t200.5 41.5q110 0 209 -39.5t174.5 -111.5t120.5 -182t45 -241q0 -129 -43.5 -239.5t-117.5 -187t-175.5 -120t-214.5 -43.5q-106 0 -195.5 38.5t-148.5 109.5h-8v-574h-234zM692 190q151 0 244.5 105.5t93.5 263.5
q0 157 -93.5 262t-244.5 105q-152 0 -246 -105t-94 -262q0 -158 94 -263.5t246 -105.5z" />
    <glyph glyph-name="q" unicode="q" horiz-adv-x="1333" 
d="M969 -451v594h-8q-41 -77 -137.5 -122.5t-219.5 -45.5q-109 0 -207.5 41.5t-171.5 115.5t-116 183.5t-43 237.5q0 131 43.5 242t118 186t176.5 116.5t217 41.5q109 0 197.5 -41t142.5 -117h8v129h233v-1561h-233zM643 190q151 0 244.5 105.5t93.5 263.5q0 157 -93.5 262
t-244.5 105q-152 0 -246 -105t-94 -262q0 -158 94 -263.5t246 -105.5z" />
    <glyph glyph-name="r" unicode="r" horiz-adv-x="833" 
d="M131 0v1110h234v-156h8q19 75 86.5 123.5t183.5 48.5h133v-217h-133q-142 0 -210 -74t-68 -229v-606h-234z" />
    <glyph glyph-name="s" unicode="s" horiz-adv-x="1075" 
d="M543 -25q-152 0 -274.5 51.5t-178.5 114.5l154 154q51 -54 135 -86.5t174 -32.5q88 0 141.5 38t53.5 97q0 104 -168 148l-119 28q-161 38 -249.5 112.5t-88.5 201.5q0 146 125.5 243t312.5 97q132 0 239.5 -51t168.5 -125l-140 -140q-40 48 -109 84.5t-159 36.5
q-95 0 -148 -36t-53 -89q0 -45 41 -75t140 -54l96 -22q348 -87 348 -338q0 -155 -123.5 -256t-318.5 -101z" />
    <glyph glyph-name="t" unicode="t" horiz-adv-x="741" 
d="M385 0q-229 0 -229 229v705h-95v176h95v274h233v-274h299v-176h-299v-592q0 -72 27.5 -100.5t87.5 -28.5h184v-213h-303z" />
    <glyph glyph-name="u" unicode="u" horiz-adv-x="1275" 
d="M561 -25q-197 0 -319.5 123.5t-122.5 335.5v676h233v-621q0 -148 73 -230.5t193 -82.5q130 0 211.5 93.5t81.5 271.5v569h234v-1110h-234v172h-8q-44 -88 -132.5 -142.5t-209.5 -54.5z" />
    <glyph glyph-name="v" unicode="v" horiz-adv-x="1159" 
d="M436 0l-403 1110h250l292 -856h9l293 856h249l-401 -1110h-289z" />
    <glyph glyph-name="w" unicode="w" horiz-adv-x="1769" 
d="M354 0l-293 1110h242l195 -815h8l231 815h295l232 -815h8l194 815h242l-291 -1110h-282l-246 827h-8l-244 -827h-283z" />
    <glyph glyph-name="x" unicode="x" horiz-adv-x="1153" 
d="M49 0l389 571v9l-356 530h270l230 -354h8l235 354h262l-364 -545v-8l375 -557h-271l-247 377h-9l-256 -377h-266z" />
    <glyph glyph-name="y" unicode="y" horiz-adv-x="1157" 
d="M166 -442v213h153q59 0 85 24.5t59 110.5l33 86v8h-60l-403 1110h241l301 -854h9l307 854h233l-448 -1253q-23 -65 -38 -102.5t-35 -76t-38 -57.5t-44 -35.5t-57.5 -22t-74.5 -5.5h-223z" />
    <glyph glyph-name="z" unicode="z" horiz-adv-x="1091" 
d="M102 0v168l572 758v8h-572v176h863v-168l-572 -758v-8h592v-176h-883z" />
    <glyph glyph-name="braceleft" unicode="{" horiz-adv-x="741" 
d="M610 -229q-155 0 -249.5 91t-94.5 244v324q0 95 -37.5 150t-109.5 55v131q72 0 109.5 55t37.5 150v323q0 153 94.5 244.5t249.5 91.5h62v-164h-23q-89 0 -135.5 -55t-46.5 -154v-323q0 -178 -148 -229v-9q148 -51 148 -223v-330q0 -97 46.5 -153t135.5 -56h23v-163h-62z
" />
    <glyph glyph-name="bar" unicode="|" horiz-adv-x="671" 
d="M225 -451v2081h221v-2081h-221z" />
    <glyph glyph-name="braceright" unicode="}" horiz-adv-x="741" 
d="M131 -229h-61v163h22q89 0 135.5 56t46.5 153v330q0 172 148 223v9q-148 51 -148 229v323q0 99 -46.5 154t-135.5 55h-22v164h61q155 0 249.5 -91.5t94.5 -244.5v-323q0 -95 38 -150t110 -55v-131q-72 0 -110 -55t-38 -150v-324q0 -153 -94.5 -244t-249.5 -91z" />
    <glyph glyph-name="asciitilde" unicode="~" horiz-adv-x="1335" 
d="M135 547q82 108 171 162.5t196 54.5q104 0 207 -64q96 -61 161 -61q102 0 183 98l147 -131q-137 -180 -330 -180q-128 0 -233 63q-7 4 -26 14t-27.5 14.5t-25 12t-27 10.5t-25 6t-27.5 3q-107 0 -200 -129z" />
    <glyph glyph-name="exclamdown" unicode="&#xa1;" horiz-adv-x="475" 
d="M164 573h164l24 -669v-338h-213v340zM238 1024q66 0 110.5 -45.5t44.5 -110.5q0 -66 -44.5 -110.5t-110.5 -44.5q-65 0 -110.5 44.5t-45.5 110.5q0 64 46 110t110 46z" />
    <glyph glyph-name="cent" unicode="&#xa2;" horiz-adv-x="1142" 
d="M547 -147v354q-211 28 -346 185.5t-135 391.5q0 235 136 390.5t345 185.5v344h135v-340q241 -14 387 -203l-145 -145q-94 122 -242 135v-735q137 13 242 127l145 -146q-66 -80 -166.5 -132.5t-220.5 -61.5v-350h-135zM299 784q0 -131 66.5 -229.5t181.5 -128.5v715
q-116 -30 -182 -127t-66 -230z" />
    <glyph glyph-name="sterling" unicode="&#xa3;" horiz-adv-x="1372" 
d="M188 168q146 170 146 383q0 41 -6 88h-189v160h156l-23 67q-30 92 -30 178q0 203 141 345.5t344 142.5q139 0 242 -55.5t205 -194.5l-144 -143q-67 93 -135.5 138.5t-159.5 45.5q-124 0 -197 -80t-73 -211q0 -77 27 -166l22 -67l502 -2v-158h-473q4 -46 4 -72
q0 -195 -103 -348v-10h447q88 0 145.5 35t124.5 127l146 -144q-45 -59 -83.5 -96.5t-90.5 -69.5t-119 -46.5t-154 -14.5h-672v168z" />
    <glyph glyph-name="yen" unicode="&#xa5;" horiz-adv-x="1372" 
d="M565 0v279h-329v159h329v160h-329v160h266l-461 803h266l375 -668h8l375 668h266l-461 -803h267v-160h-330v-160h330v-159h-330v-279h-242z" />
    <glyph glyph-name="brokenbar" unicode="&#xa6;" horiz-adv-x="671" 
d="M225 721v909h221v-909h-221zM225 -451v910h221v-910h-221z" />
    <glyph glyph-name="section" unicode="&#xa7;" horiz-adv-x="1075" 
d="M543 -98q-152 0 -274.5 51.5t-178.5 114.5l154 153q51 -54 135 -86.5t174 -32.5q88 0 141.5 38.5t53.5 97.5q0 107 -168 147l-119 29q-161 38 -249.5 112t-88.5 201q0 78 39 144.5t108 113.5q-147 87 -147 244q0 146 125.5 243t312.5 97q132 0 239.5 -51t168.5 -125
l-140 -140q-40 48 -109 84.5t-159 36.5q-95 0 -148 -36t-53 -89q0 -45 41.5 -75.5t139.5 -53.5l96 -22q160 -37 254 -119t94 -219q0 -157 -125 -258q125 -90 125 -244q0 -155 -123.5 -255.5t-318.5 -100.5zM360 768q0 -93 107 -127l195 -59q37 21 61.5 63.5t24.5 93.5
q0 41 -23 73.5t-66 45.5l-172 51q-127 -19 -127 -141z" />
    <glyph glyph-name="copyright" unicode="&#xa9;" horiz-adv-x="1761" 
d="M881 -25q-158 0 -301.5 61.5t-248 166t-166 248t-61.5 301.5t61.5 301.5t166 247.5t248 165.5t301.5 61.5t302 -61.5t247.5 -165.5t165 -247.5t61.5 -301.5q0 -211 -103.5 -389.5t-282.5 -283t-390 -104.5zM889 381q-160 0 -261.5 108t-101.5 271q0 164 110 272.5
t261 108.5q86 0 152 -32t129 -101l-105 -105q-39 44 -78 65t-98 21q-84 0 -148.5 -57.5t-64.5 -163.5q0 -107 65.5 -171.5t147.5 -64.5q117 0 190 91l99 -101q-47 -60 -125 -100.5t-172 -40.5zM881 137q168 0 310 82t224 223.5t82 309.5q0 126 -48.5 240t-131 196
t-196.5 130t-240 48q-168 0 -309.5 -81.5t-223.5 -223t-82 -309.5t82.5 -309.5t224 -223.5t308.5 -82z" />
    <glyph glyph-name="guillemotleft" unicode="&#xab;" horiz-adv-x="1288" 
d="M913 96l-426 453v8l426 453l121 -113l-321 -340v-8l321 -338zM518 74l-440 475v8l440 475l123 -112l-338 -363v-8l338 -363z" />
    <glyph glyph-name="logicalnot" unicode="&#xac;" horiz-adv-x="1253" 
d="M135 508v197h983v-402h-205v205h-778z" />
    <glyph glyph-name="registered" unicode="&#xae;" horiz-adv-x="974" 
d="M487 778q-171 0 -290 118.5t-119 291.5t118 291t291 118t291.5 -118t118.5 -291t-120 -291.5t-290 -118.5zM487 868q132 0 226 94t94 226t-94 225.5t-226 93.5t-225.5 -93.5t-93.5 -225.5t93.5 -226t225.5 -94zM358 987v399h154q57 0 95 -31.5t38 -86.5q0 -42 -24 -76
t-62 -43v-2l98 -160h-86l-90 152h-47v-152h-76zM508 1208q29 0 46 15t17 43q0 26 -17 39.5t-46 13.5h-74v-111h74z" />
    <glyph glyph-name="degree" unicode="&#xb0;" horiz-adv-x="630" 
d="M315 938q-131 0 -223 92t-92 223t92.5 223.5t222.5 92.5q131 0 223.5 -92.5t92.5 -223.5q0 -130 -92.5 -222.5t-223.5 -92.5zM315 1110q60 0 102 41.5t42 101.5t-42 102t-102 42t-101.5 -42t-41.5 -102t41.5 -101.5t101.5 -41.5z" />
    <glyph glyph-name="plusminus" unicode="&#xb1;" horiz-adv-x="1257" 
d="M524 291v411h-389v197h389v412h205v-412h389v-197h-389v-411h-205zM135 -72v197h987v-197h-987z" />
    <glyph glyph-name="uni00B2" unicode="&#xb2;" horiz-adv-x="651" 
d="M61 825v138l226 221q70 68 100.5 111.5t30.5 86.5q0 101 -103 101q-53 0 -80 -33.5t-20 -91.5h-160q-7 123 66.5 199.5t197.5 76.5q112 0 187.5 -67.5t75.5 -177.5q0 -77 -37 -140.5t-125 -144.5l-119 -119v-4h289v-156h-529z" />
    <glyph glyph-name="uni00B3" unicode="&#xb3;" horiz-adv-x="618" 
d="M281 811q-94 0 -166.5 39.5t-94.5 83.5l109 110q18 -21 31.5 -33.5t45.5 -27t70 -14.5q53 0 85 26.5t32 73.5q0 46 -28.5 73t-85.5 27h-76v144h78q45 0 68.5 25t23.5 67q0 38 -23.5 58t-62.5 20q-13 0 -25.5 -2.5t-22.5 -5.5t-21.5 -9.5t-18.5 -10.5t-17.5 -13t-14 -12.5
t-13.5 -12.5t-11 -10l-98 98q22 42 95.5 85.5t150.5 43.5q105 0 174.5 -61t69.5 -160q0 -69 -33 -116t-70 -52v-4q45 -5 85 -52t40 -122q0 -116 -78 -186t-198 -70z" />
    <glyph glyph-name="paragraph" unicode="&#xb6;" horiz-adv-x="1495" 
d="M946 0h-241v614q-163 0 -289.5 56.5t-201.5 172.5t-75 277q0 112 38.5 198t107.5 138.5t160 78.5t202 26h299v-1561zM1270 0h-242v1561h242v-1561z" />
    <glyph glyph-name="periodcentered" unicode="&#xb7;" horiz-adv-x="684" 
d="M342 379q-72 0 -123 51t-51 123q0 73 51 123.5t123 50.5q74 0 124 -50.5t50 -123.5q0 -72 -50.5 -123t-123.5 -51z" />
    <glyph glyph-name="uni00B9" unicode="&#xb9;" horiz-adv-x="450" 
d="M186 823v600h-4l-96 -65l-74 119l213 145h123v-799h-162z" />
    <glyph glyph-name="guillemotright" unicode="&#xbb;" horiz-adv-x="1288" 
d="M375 96l-121 115l321 338v8l-321 340l121 113l426 -453v-8zM770 74l-123 112l338 363v8l-338 363l123 112l440 -475v-8z" />
    <glyph glyph-name="onequarter" unicode="&#xbc;" horiz-adv-x="1314" 
d="M186 721v600h-4l-96 -66l-74 119l213 146h123v-799h-162zM53 0l879 1548h127l-879 -1548h-127zM1028 0v154h-342v114l344 531h160v-500h92v-145h-92v-154h-162zM885 299h143v217h-4l-139 -213v-4z" />
    <glyph glyph-name="onehalf" unicode="&#xbd;" horiz-adv-x="1312" 
d="M186 721v600h-4l-96 -66l-74 119l213 146h123v-799h-162zM53 0l879 1548h127l-879 -1548h-127zM723 2v137l225 221q69 68 100 112t31 87q0 100 -102 100q-53 0 -80 -33t-20 -91h-160q-7 123 66.5 199.5t197.5 76.5q111 0 186.5 -68t75.5 -178q0 -76 -37 -139.5
t-125 -144.5l-118 -119v-4h288v-156h-528z" />
    <glyph glyph-name="threequarters" unicode="&#xbe;" horiz-adv-x="1482" 
d="M281 709q-94 0 -166.5 39.5t-94.5 82.5l109 111q19 -22 32 -34.5t45 -27t70 -14.5q53 0 85 27t32 74q0 46 -28.5 73t-85.5 27h-76v143h78q45 0 68.5 25.5t23.5 67.5q0 38 -23.5 57.5t-62.5 19.5q-11 0 -22 -1.5t-21.5 -5t-19 -7t-18 -10t-15 -10t-15 -11t-12.5 -10.5
t-11.5 -11t-9.5 -9l-98 98q22 42 95.5 85.5t150.5 43.5q105 0 174.5 -61t69.5 -160q0 -69 -33 -116t-70 -52v-4q45 -5 85 -52t40 -122q0 -116 -78 -186t-198 -70zM221 0l879 1548h127l-879 -1548h-127zM1196 0v154h-342v114l344 531h160v-500h92v-145h-92v-154h-162z
M1053 299h143v217h-4l-139 -213v-4z" />
    <glyph glyph-name="questiondown" unicode="&#xbf;" horiz-adv-x="987" 
d="M627 502q0 -107 -32 -174.5t-108 -132.5q-103 -91 -133 -126q-67 -77 -67 -153q0 -78 52 -125t136 -47q172 0 295 172l135 -135q-83 -113 -194 -173.5t-226 -60.5q-185 0 -294 99t-109 274q0 92 50 177t173 182q129 102 129 223v78h193v-78zM522 1026q58 0 99 -41t41 -98
q0 -60 -40.5 -99.5t-99.5 -39.5t-99 39.5t-40 99.5q0 57 40.5 98t98.5 41z" />
    <glyph glyph-name="Agrave" unicode="&#xc0;" 
d="M33 0l534 1561h322l534 -1561h-245l-144 422h-612l-141 -422h-248zM494 635h471l-232 682h-8zM662 1688l-279 278h242l237 -278h-200z" />
    <glyph glyph-name="Aacute" unicode="&#xc1;" 
d="M33 0l534 1561h322l534 -1561h-245l-144 422h-612l-141 -422h-248zM494 635h471l-232 682h-8zM596 1688l238 278h241l-278 -278h-201z" />
    <glyph glyph-name="Acircumflex" unicode="&#xc2;" 
d="M33 0l534 1561h322l534 -1561h-245l-144 422h-612l-141 -422h-248zM494 635h471l-232 682h-8zM381 1649l262 270h172l262 -270h-196l-144 131h-16l-143 -131h-197z" />
    <glyph glyph-name="Atilde" unicode="&#xc3;" 
d="M33 0l534 1561h322l534 -1561h-245l-144 422h-612l-141 -422h-248zM494 635h471l-232 682h-8zM410 1669q0 120 57.5 200.5t138.5 80.5q76 -3 156 -66q71 -53 110 -53q58 0 58 129h139q0 -137 -51 -214t-144 -77q-69 0 -145 55q-74 53 -113 56q-35 0 -53 -30.5t-18 -80.5
h-135z" />
    <glyph glyph-name="Egrave" unicode="&#xc8;" horiz-adv-x="1171" 
d="M156 0v1561h884v-213h-643v-437h594v-213h-594v-485h652v-213h-893zM532 1704l-278 278h242l237 -278h-201z" />
    <glyph glyph-name="Eacute" unicode="&#xc9;" horiz-adv-x="1171" 
d="M156 0v1561h884v-213h-643v-437h594v-213h-594v-485h652v-213h-893zM467 1704l238 278h241l-278 -278h-201z" />
    <glyph glyph-name="Ecircumflex" unicode="&#xca;" horiz-adv-x="1171" 
d="M156 0v1561h884v-213h-643v-437h594v-213h-594v-485h652v-213h-893zM252 1665l262 270h172l262 -270h-196l-144 131h-16l-143 -131h-197z" />
    <glyph glyph-name="Igrave" unicode="&#xcc;" horiz-adv-x="552" 
d="M156 0v1561h241v-1561h-241zM209 1688l-279 278h242l238 -278h-201z" />
    <glyph glyph-name="Iacute" unicode="&#xcd;" horiz-adv-x="552" 
d="M156 0v1561h241v-1561h-241zM143 1688l238 278h242l-279 -278h-201z" />
    <glyph glyph-name="Ograve" unicode="&#xd2;" horiz-adv-x="1732" 
d="M866 -25q-166 0 -312.5 62.5t-250.5 169.5t-164.5 256.5t-60.5 316.5q0 174 63.5 325.5t170.5 256t251 164t303 59.5q162 0 307.5 -61t251.5 -167t168 -256.5t62 -320.5q0 -174 -63.5 -325.5t-171 -256t-251.5 -164t-303 -59.5zM866 193q152 0 278 77t198.5 212t72.5 298
q0 160 -70 294.5t-196.5 214t-282.5 79.5q-152 0 -278 -77t-198.5 -212.5t-72.5 -298.5q0 -160 70.5 -294t197 -213.5t281.5 -79.5zM799 1704l-279 278h242l237 -278h-200z" />
    <glyph glyph-name="Oacute" unicode="&#xd3;" horiz-adv-x="1732" 
d="M866 -25q-166 0 -312.5 62.5t-250.5 169.5t-164.5 256.5t-60.5 316.5q0 174 63.5 325.5t170.5 256t251 164t303 59.5q162 0 307.5 -61t251.5 -167t168 -256.5t62 -320.5q0 -174 -63.5 -325.5t-171 -256t-251.5 -164t-303 -59.5zM866 193q152 0 278 77t198.5 212t72.5 298
q0 160 -70 294.5t-196.5 214t-282.5 79.5q-152 0 -278 -77t-198.5 -212.5t-72.5 -298.5q0 -160 70.5 -294t197 -213.5t281.5 -79.5zM733 1704l238 278h241l-278 -278h-201z" />
    <glyph glyph-name="Ocircumflex" unicode="&#xd4;" horiz-adv-x="1732" 
d="M866 -25q-166 0 -312.5 62.5t-250.5 169.5t-164.5 256.5t-60.5 316.5q0 174 63.5 325.5t170.5 256t251 164t303 59.5q162 0 307.5 -61t251.5 -167t168 -256.5t62 -320.5q0 -174 -63.5 -325.5t-171 -256t-251.5 -164t-303 -59.5zM866 193q152 0 278 77t198.5 212t72.5 298
q0 160 -70 294.5t-196.5 214t-282.5 79.5q-152 0 -278 -77t-198.5 -212.5t-72.5 -298.5q0 -160 70.5 -294t197 -213.5t281.5 -79.5zM518 1665l262 270h172l262 -270h-196l-144 131h-16l-143 -131h-197z" />
    <glyph glyph-name="Otilde" unicode="&#xd5;" horiz-adv-x="1732" 
d="M866 -25q-166 0 -312.5 62.5t-250.5 169.5t-164.5 256.5t-60.5 316.5q0 174 63.5 325.5t170.5 256t251 164t303 59.5q162 0 307.5 -61t251.5 -167t168 -256.5t62 -320.5q0 -174 -63.5 -325.5t-171 -256t-251.5 -164t-303 -59.5zM866 193q152 0 278 77t198.5 212t72.5 298
q0 160 -70 294.5t-196.5 214t-282.5 79.5q-152 0 -278 -77t-198.5 -212.5t-72.5 -298.5q0 -160 70.5 -294t197 -213.5t281.5 -79.5zM547 1686q0 120 57.5 200t138.5 80q77 -3 156 -65q73 -54 111 -54q57 0 57 129h139q0 -137 -50.5 -213.5t-143.5 -76.5q-70 0 -146 55
q-73 52 -112 55q-35 0 -53.5 -30.5t-18.5 -79.5h-135z" />
    <glyph glyph-name="multiply" unicode="&#xd7;" horiz-adv-x="1193" 
d="M264 106l334 334l332 -334l137 136l-334 333l334 334l-137 135l-332 -331l-334 331l-137 -135l471 -469l135 135l-135 138l-471 -471z" />
    <glyph glyph-name="Ugrave" unicode="&#xd9;" horiz-adv-x="1523" 
d="M762 -25q-174 0 -318.5 74.5t-228.5 208t-84 299.5v1004h242v-961q0 -79 24 -147.5t70.5 -122.5t122 -85.5t172.5 -31.5t172.5 31.5t122 85.5t70.5 122.5t24 147.5v961h242v-1004q0 -166 -84 -299.5t-228.5 -208t-318.5 -74.5zM698 1688l-278 278h242l237 -278h-201z" />
    <glyph glyph-name="Uacute" unicode="&#xda;" horiz-adv-x="1523" 
d="M762 -25q-174 0 -318.5 74.5t-228.5 208t-84 299.5v1004h242v-961q0 -79 24 -147.5t70.5 -122.5t122 -85.5t172.5 -31.5t172.5 31.5t122 85.5t70.5 122.5t24 147.5v961h242v-1004q0 -166 -84 -299.5t-228.5 -208t-318.5 -74.5zM633 1688l237 278h242l-278 -278h-201z" />
    <glyph glyph-name="Yacute" unicode="&#xdd;" horiz-adv-x="1347" 
d="M553 0v647l-524 914h266l375 -668h8l375 668h266l-524 -914v-647h-242zM541 1688l237 278h242l-279 -278h-200z" />
    <glyph glyph-name="agrave" unicode="&#xe0;" horiz-adv-x="1185" 
d="M119 946q186 193 465 193q227 0 357 -118t130 -335v-686h-233v168h-9q-134 -193 -372 -193q-168 0 -275.5 95t-107.5 247q0 160 118.5 254.5t333.5 94.5h312v34q0 110 -78.5 170t-198.5 60q-176 0 -297 -127zM522 489q-110 0 -159.5 -44t-49.5 -115q0 -68 53 -114
t148 -46q143 0 233.5 87t90.5 216v16h-316zM526 1276l-278 278h241l238 -278h-201z" />
    <glyph glyph-name="aacute" unicode="&#xe1;" horiz-adv-x="1185" 
d="M119 946q186 193 465 193q227 0 357 -118t130 -335v-686h-233v168h-9q-134 -193 -372 -193q-168 0 -275.5 95t-107.5 247q0 160 118.5 254.5t333.5 94.5h312v34q0 110 -78.5 170t-198.5 60q-176 0 -297 -127zM522 489q-110 0 -159.5 -44t-49.5 -115q0 -68 53 -114
t148 -46q143 0 233.5 87t90.5 216v16h-316zM461 1276l237 278h242l-278 -278h-201z" />
    <glyph glyph-name="acircumflex" unicode="&#xe2;" horiz-adv-x="1185" 
d="M119 946q186 193 465 193q227 0 357 -118t130 -335v-686h-233v168h-9q-134 -193 -372 -193q-168 0 -275.5 95t-107.5 247q0 160 118.5 254.5t333.5 94.5h312v34q0 110 -78.5 170t-198.5 60q-176 0 -297 -127zM522 489q-110 0 -159.5 -44t-49.5 -115q0 -68 53 -114
t148 -46q143 0 233.5 87t90.5 216v16h-316zM246 1237l262 270h172l262 -270h-197l-143 131h-16l-144 -131h-196z" />
    <glyph glyph-name="atilde" unicode="&#xe3;" horiz-adv-x="1185" 
d="M119 946q186 193 465 193q227 0 357 -118t130 -335v-686h-233v168h-9q-134 -193 -372 -193q-168 0 -275.5 95t-107.5 247q0 160 118.5 254.5t333.5 94.5h312v34q0 110 -78.5 170t-198.5 60q-176 0 -297 -127zM522 489q-110 0 -159.5 -44t-49.5 -115q0 -68 53 -114
t148 -46q143 0 233.5 87t90.5 216v16h-316zM274 1257q0 120 58 200.5t139 80.5q77 -3 156 -65q73 -54 110 -54q58 0 58 129h139q0 -137 -51 -214t-144 -77q-68 0 -145 56q-73 52 -113 55q-35 0 -53 -30.5t-18 -80.5h-136z" />
    <glyph glyph-name="egrave" unicode="&#xe8;" horiz-adv-x="1234" 
d="M639 -25q-253 0 -413 161t-160 421q0 126 44 236t119.5 185.5t178.5 119t219 43.5q246 0 388 -158t142 -428q0 -41 -2 -66h-854q9 -134 104 -217.5t242 -83.5q189 0 307 121l144 -141q-75 -90 -195 -141.5t-264 -51.5zM922 668q-7 116 -91.5 188t-205.5 72
q-129 0 -219 -71.5t-103 -188.5h619zM567 1290l-278 279h241l238 -279h-201z" />
    <glyph glyph-name="eacute" unicode="&#xe9;" horiz-adv-x="1234" 
d="M639 -25q-253 0 -413 161t-160 421q0 126 44 236t119.5 185.5t178.5 119t219 43.5q246 0 388 -158t142 -428q0 -41 -2 -66h-854q9 -134 104 -217.5t242 -83.5q189 0 307 121l144 -141q-75 -90 -195 -141.5t-264 -51.5zM922 668q-7 116 -91.5 188t-205.5 72
q-129 0 -219 -71.5t-103 -188.5h619zM502 1290l237 279h242l-279 -279h-200z" />
    <glyph glyph-name="ecircumflex" unicode="&#xea;" horiz-adv-x="1234" 
d="M639 -25q-253 0 -413 161t-160 421q0 126 44 236t119.5 185.5t178.5 119t219 43.5q246 0 388 -158t142 -428q0 -41 -2 -66h-854q9 -134 104 -217.5t242 -83.5q189 0 307 121l144 -141q-75 -90 -195 -141.5t-264 -51.5zM922 668q-7 116 -91.5 188t-205.5 72
q-129 0 -219 -71.5t-103 -188.5h619zM287 1251l262 271h172l262 -271h-197l-143 131h-16l-144 -131h-196z" />
    <glyph glyph-name="igrave" unicode="&#xec;" horiz-adv-x="479" 
d="M131 0v1110h234v-1110h-234zM180 1262l-278 278h241l238 -278h-201z" />
    <glyph glyph-name="iacute" unicode="&#xed;" horiz-adv-x="479" 
d="M131 0v1110h234v-1110h-234zM115 1262l237 278h242l-279 -278h-200z" />
    <glyph glyph-name="ograve" unicode="&#xf2;" horiz-adv-x="1275" 
d="M639 -25q-116 0 -220 41t-182.5 114.5t-124.5 185t-46 243.5q0 170 76.5 304t207 206t289.5 72q114 0 217 -40.5t182 -114t125.5 -184.5t46.5 -243q0 -170 -76 -304.5t-206 -207t-289 -72.5zM639 190q151 0 242.5 105t91.5 264q0 157 -91.5 262t-242.5 105
q-152 0 -244 -104.5t-92 -262.5q0 -159 92 -264t244 -105zM571 1278l-278 278h242l237 -278h-201z" />
    <glyph glyph-name="oacute" unicode="&#xf3;" horiz-adv-x="1275" 
d="M639 -25q-116 0 -220 41t-182.5 114.5t-124.5 185t-46 243.5q0 170 76.5 304t207 206t289.5 72q114 0 217 -40.5t182 -114t125.5 -184.5t46.5 -243q0 -170 -76 -304.5t-206 -207t-289 -72.5zM639 190q151 0 242.5 105t91.5 264q0 157 -91.5 262t-242.5 105
q-152 0 -244 -104.5t-92 -262.5q0 -159 92 -264t244 -105zM506 1278l237 278h242l-278 -278h-201z" />
    <glyph glyph-name="ocircumflex" unicode="&#xf4;" horiz-adv-x="1275" 
d="M639 -25q-116 0 -220 41t-182.5 114.5t-124.5 185t-46 243.5q0 170 76.5 304t207 206t289.5 72q114 0 217 -40.5t182 -114t125.5 -184.5t46.5 -243q0 -170 -76 -304.5t-206 -207t-289 -72.5zM639 190q151 0 242.5 105t91.5 264q0 157 -91.5 262t-242.5 105
q-152 0 -244 -104.5t-92 -262.5q0 -159 92 -264t244 -105zM291 1239l262 270h172l262 -270h-196l-144 131h-16l-144 -131h-196z" />
    <glyph glyph-name="otilde" unicode="&#xf5;" horiz-adv-x="1275" 
d="M639 -25q-116 0 -220 41t-182.5 114.5t-124.5 185t-46 243.5q0 170 76.5 304t207 206t289.5 72q114 0 217 -40.5t182 -114t125.5 -184.5t46.5 -243q0 -170 -76 -304.5t-206 -207t-289 -72.5zM639 190q151 0 242.5 105t91.5 264q0 157 -91.5 262t-242.5 105
q-152 0 -244 -104.5t-92 -262.5q0 -159 92 -264t244 -105zM319 1260q0 120 58 200t139 80q77 -3 156 -65q73 -54 110 -54q58 0 58 129h139q0 -137 -51 -213.5t-144 -76.5q-69 0 -145 55q-73 52 -113 55q-35 0 -53 -30t-18 -80h-136z" />
    <glyph glyph-name="divide" unicode="&#xf7;" horiz-adv-x="1212" 
d="M135 504v196h942v-196h-942zM606 111q-56 0 -95.5 39.5t-39.5 95.5t39.5 95.5t95.5 39.5t95.5 -39.5t39.5 -95.5t-39.5 -95.5t-95.5 -39.5zM606 823q-56 0 -95.5 39.5t-39.5 95.5t40 96t95 40t95 -40t40 -96t-39.5 -95.5t-95.5 -39.5z" />
    <glyph glyph-name="ugrave" unicode="&#xf9;" horiz-adv-x="1275" 
d="M561 -25q-197 0 -319.5 123.5t-122.5 335.5v676h233v-621q0 -148 73 -230.5t193 -82.5q130 0 211.5 93.5t81.5 271.5v569h234v-1110h-234v172h-8q-44 -88 -132.5 -142.5t-209.5 -54.5zM573 1262l-278 278h242l237 -278h-201z" />
    <glyph glyph-name="uacute" unicode="&#xfa;" horiz-adv-x="1275" 
d="M561 -25q-197 0 -319.5 123.5t-122.5 335.5v676h233v-621q0 -148 73 -230.5t193 -82.5q130 0 211.5 93.5t81.5 271.5v569h234v-1110h-234v172h-8q-44 -88 -132.5 -142.5t-209.5 -54.5zM508 1262l237 278h242l-278 -278h-201z" />
    <glyph glyph-name="yacute" unicode="&#xfd;" horiz-adv-x="1157" 
d="M166 -442v213h153q59 0 85 24.5t59 110.5l33 86v8h-60l-403 1110h241l301 -854h9l307 854h233l-448 -1253q-23 -65 -38 -102.5t-35 -76t-38 -57.5t-44 -35.5t-57.5 -22t-74.5 -5.5h-223zM471 1262l238 278h241l-278 -278h-201z" />
    <glyph glyph-name="Abreve" unicode="&#x102;" 
d="M33 0l534 1561h322l534 -1561h-245l-144 422h-612l-141 -422h-248zM494 635h471l-232 682h-8zM729 1638q-76 0 -120 10t-85 40q-49 37 -73 122q-19 73 -21 123h139q9 -44 29 -90q16 -36 45 -49q13 -8 86 -8q70 0 86 8q29 13 45 49q20 46 29 90h139q-3 -55 -20 -123
q-24 -84 -74 -122q-41 -30 -85 -40t-120 -10z" />
    <glyph glyph-name="abreve" unicode="&#x103;" horiz-adv-x="1185" 
d="M119 946q186 193 465 193q227 0 357 -118t130 -335v-686h-233v168h-9q-134 -193 -372 -193q-168 0 -275.5 95t-107.5 247q0 160 118.5 254.5t333.5 94.5h312v34q0 110 -78.5 170t-198.5 60q-176 0 -297 -127zM522 489q-110 0 -159.5 -44t-49.5 -115q0 -68 53 -114
t148 -46q143 0 233.5 87t90.5 216v16h-316zM594 1227q-77 0 -120.5 9.5t-84.5 39.5q-50 38 -74 123q-17 68 -20 123h139q9 -44 29 -90q16 -38 45 -50q13 -8 86 -8q70 0 86 8q29 12 45 50q20 46 29 90h139q-2 -50 -21 -123q-24 -86 -73 -123q-41 -30 -84.5 -39.5t-120.5 -9.5
z" />
    <glyph glyph-name="Dcroat" unicode="&#x110;" horiz-adv-x="1546" 
d="M156 0v676h-82v213h82v672h528q371 0 575.5 -194t204.5 -538q0 -186 -62 -341.5t-172 -262.5t-263 -166t-332 -59h-479zM653 213q169 0 300.5 79t202.5 215t71 304q0 258 -142 397.5t-397 139.5h-291v-459h330v-213h-330v-463h256z" />
    <glyph glyph-name="dcroat" unicode="&#x111;" horiz-adv-x="1333" 
d="M604 -25q-109 0 -207.5 41.5t-171.5 115.5t-116 183.5t-43 237.5q0 131 43.5 242t118 186t176.5 116.5t217 41.5q109 0 197.5 -41t142.5 -117h8v317h-254v177h254v122h233v-122h70v-177h-70v-1298h-233v143h-8q-41 -77 -137.5 -122.5t-219.5 -45.5zM643 190
q151 0 244.5 105.5t93.5 263.5q0 157 -93.5 262t-244.5 105q-152 0 -246 -105t-94 -262q0 -158 94 -263.5t246 -105.5z" />
    <glyph glyph-name="Itilde" unicode="&#x128;" horiz-adv-x="552" 
d="M156 0v1561h241v-1561h-241zM-43 1669q0 120 58 200.5t139 80.5q75 -3 155 -66q71 -53 111 -53q57 0 57 129h139q0 -138 -50.5 -214.5t-143.5 -76.5q-70 0 -146 55q-75 53 -112 56q-35 0 -53.5 -30.5t-18.5 -80.5h-135z" />
    <glyph glyph-name="itilde" unicode="&#x129;" horiz-adv-x="479" 
d="M131 0v1110h234v-1110h-234zM-72 1243q0 120 58 200.5t139 80.5q76 -3 156 -66q71 -53 110 -53q58 0 58 129h139q0 -137 -51 -214t-144 -77q-69 0 -145 55q-74 53 -113 56q-35 0 -53.5 -30.5t-18.5 -80.5h-135z" />
    <glyph glyph-name="Utilde" unicode="&#x168;" horiz-adv-x="1523" 
d="M762 -25q-174 0 -318.5 74.5t-228.5 208t-84 299.5v1004h242v-961q0 -79 24 -147.5t70.5 -122.5t122 -85.5t172.5 -31.5t172.5 31.5t122 85.5t70.5 122.5t24 147.5v961h242v-1004q0 -166 -84 -299.5t-228.5 -208t-318.5 -74.5zM446 1669q0 120 58 200.5t139 80.5
q76 -3 156 -66q71 -53 110 -53q58 0 58 129h139q0 -137 -51 -214t-144 -77q-69 0 -145 55q-74 53 -113 56q-35 0 -53 -30.5t-18 -80.5h-136z" />
    <glyph glyph-name="utilde" unicode="&#x169;" horiz-adv-x="1275" 
d="M561 -25q-197 0 -319.5 123.5t-122.5 335.5v676h233v-621q0 -148 73 -230.5t193 -82.5q130 0 211.5 93.5t81.5 271.5v569h234v-1110h-234v172h-8q-44 -88 -132.5 -142.5t-209.5 -54.5zM322 1243q0 120 57.5 200.5t138.5 80.5q76 -3 156 -66q71 -53 110 -53q58 0 58 129
h139q0 -137 -51 -214t-144 -77q-69 0 -145 55q-74 53 -113 56q-35 0 -53 -30.5t-18 -80.5h-135z" />
    <glyph glyph-name="Ohorn" unicode="&#x1a0;" horiz-adv-x="1724" 
d="M866 -25q-166 0 -312.5 62.5t-250.5 169.5t-164.5 256.5t-60.5 316.5q0 174 63.5 325.5t170.5 256t251 164t303 59.5q204 0 381 -94q45 20 45 88q0 60 -35 119h193q23 -58 23 -129q0 -52 -28 -94t-75 -68q134 -111 209.5 -273t75.5 -354q0 -174 -63.5 -325.5t-171 -256
t-251.5 -164t-303 -59.5zM866 193q152 0 278 77t198.5 212t72.5 298q0 160 -70 294.5t-196.5 214t-282.5 79.5q-152 0 -278 -77t-198.5 -212.5t-72.5 -298.5q0 -160 70.5 -294t197 -213.5t281.5 -79.5z" />
    <glyph glyph-name="ohorn" unicode="&#x1a1;" horiz-adv-x="1286" 
d="M639 -25q-116 0 -220 41t-182.5 114.5t-124.5 185t-46 243.5q0 170 76.5 304t207 206t289.5 72q170 0 307 -84q55 18 55 92q0 61 -34 119h192q23 -58 23 -129q0 -58 -33 -102.5t-92 -69.5q153 -160 153 -408q0 -170 -76 -304.5t-206 -207t-289 -72.5zM639 190
q151 0 242.5 105t91.5 264q0 157 -91.5 262t-242.5 105q-152 0 -244 -104.5t-92 -262.5q0 -159 92 -264t244 -105z" />
    <glyph glyph-name="Uhorn" unicode="&#x1af;" horiz-adv-x="1554" 
d="M762 -25q-174 0 -318.5 74.5t-228.5 208t-84 299.5v1004h242v-961q0 -79 24 -147.5t70.5 -122.5t122 -85.5t172.5 -31.5t172.5 31.5t122 85.5t70.5 122.5t24 147.5v961h242v-62q30 24 30 80q0 61 -34 119h192q23 -58 23 -129q0 -78 -58.5 -130.5t-152.5 -64.5v-817
q0 -166 -84 -299.5t-228.5 -208t-318.5 -74.5z" />
    <glyph glyph-name="uhorn" unicode="&#x1b0;" horiz-adv-x="1343" 
d="M561 -25q-197 0 -319.5 123.5t-122.5 335.5v676h233v-621q0 -148 73 -230.5t193 -82.5q130 0 211.5 93.5t81.5 271.5v569h234v-51q51 19 51 90q0 60 -35 119h193q22 -55 22 -129q0 -82 -64.5 -135.5t-166.5 -61.5v-942h-234v172h-8q-44 -88 -132.5 -142.5t-209.5 -54.5z
" />
    <glyph glyph-name="gravecomb" unicode="&#x300;" horiz-adv-x="0" 
d="M279 1229l-279 278h242l237 -278h-200z" />
    <glyph glyph-name="acutecomb" unicode="&#x301;" horiz-adv-x="0" 
d="M0 1229l238 278h241l-278 -278h-201z" />
    <glyph glyph-name="uni0302" unicode="&#x302;" horiz-adv-x="0" 
d="M0 1190l262 270h172l262 -270h-196l-144 131h-16l-143 -131h-197z" />
    <glyph glyph-name="tildecomb" unicode="&#x303;" horiz-adv-x="0" 
d="M0 1210q0 120 58 200.5t139 80.5q75 -3 155 -66q71 -53 111 -53q57 0 57 129h139q0 -138 -50.5 -214.5t-143.5 -76.5q-69 0 -146 56q-73 52 -112 55q-35 0 -53.5 -30.5t-18.5 -80.5h-135z" />
    <glyph glyph-name="uni0306" unicode="&#x306;" horiz-adv-x="0" 
d="M295 1180q-77 0 -120.5 9.5t-84.5 39.5q-50 38 -74 123q-17 68 -20 123h139q9 -46 29 -91q16 -36 45 -49q13 -8 86 -8q70 0 86 8q29 13 45 49q20 45 29 91h139q-2 -50 -21 -123q-24 -86 -73 -123q-41 -30 -84.5 -39.5t-120.5 -9.5z" />
    <glyph glyph-name="hookabovecomb" unicode="&#x309;" horiz-adv-x="0" 
d="M100 1247q0 33 14 54t56 47q68 37 68 86q0 21 -18.5 36t-47.5 15q-32 0 -60 -15t-42 -38l-86 86q77 102 211 102q92 0 152.5 -48.5t60.5 -125.5q0 -112 -140 -180q-16 -8 -23 -17t-8 -16t-1 -23v-12h-136v49z" />
    <glyph glyph-name="uni031B" unicode="&#x31b;" horiz-adv-x="0" 
d="M0 1112v111h29q96 0 96 98q0 60 -35 119h193q22 -55 22 -129q0 -90 -74.5 -144.5t-191.5 -54.5h-39z" />
    <glyph glyph-name="dotbelowcomb" unicode="&#x323;" horiz-adv-x="0" 
d="M119 -369q-48 0 -83.5 34.5t-35.5 84.5q0 47 36 83t83 36q50 0 84.5 -35.5t34.5 -83.5q0 -51 -34 -85t-85 -34z" />
    <glyph glyph-name="uni0E3F" unicode="&#xe3f;" horiz-adv-x="1323" 
d="M156 0v1561h403v143h135v-143q102 -1 186.5 -23t152 -66.5t105.5 -120t38 -175.5q0 -114 -63 -220t-159 -139v-6q51 -12 98.5 -40.5t89 -74t66.5 -114t25 -150.5q0 -207 -139 -319.5t-361 -112.5h-39v-147h-135v147h-403zM397 213h162v489h-162v-489zM397 915h162v433
h-162v-433zM694 213q142 3 219.5 68t77.5 186q0 112 -83.5 172.5t-213.5 62.5v-489zM694 918q242 15 242 233q0 96 -63 145t-179 52v-430z" />
    <glyph glyph-name="uni1EA0" unicode="&#x1ea0;" 
d="M33 0l534 1561h322l534 -1561h-245l-144 422h-612l-141 -422h-248zM494 635h471l-232 682h-8zM729 -377q-48 0 -83.5 34.5t-35.5 84.5q0 47 36 83t83 36q50 0 84.5 -35.5t34.5 -83.5q0 -51 -34 -85t-85 -34z" />
    <glyph glyph-name="uni1EA1" unicode="&#x1ea1;" horiz-adv-x="1185" 
d="M119 946q186 193 465 193q227 0 357 -118t130 -335v-686h-233v168h-9q-134 -193 -372 -193q-168 0 -275.5 95t-107.5 247q0 160 118.5 254.5t333.5 94.5h312v34q0 110 -78.5 170t-198.5 60q-176 0 -297 -127zM522 489q-110 0 -159.5 -44t-49.5 -115q0 -68 53 -114
t148 -46q143 0 233.5 87t90.5 216v16h-316zM567 -377q-48 0 -83 34.5t-35 84.5q0 47 35.5 83t82.5 36q50 0 84.5 -35.5t34.5 -83.5q0 -51 -34 -85t-85 -34z" />
    <glyph glyph-name="uni1EA2" unicode="&#x1ea2;" 
d="M33 0l534 1561h322l534 -1561h-245l-144 422h-612l-141 -422h-248zM494 635h471l-232 682h-8zM633 1686q0 33 13.5 53.5t55.5 46.5q68 37 68 86q0 21 -18.5 36t-46.5 15q-32 0 -60.5 -15t-42.5 -38l-86 86q76 102 211 102q92 0 152.5 -48.5t60.5 -125.5q0 -112 -139 -180
q-23 -11 -28 -22t-5 -33v-13h-135v50z" />
    <glyph glyph-name="uni1EA3" unicode="&#x1ea3;" horiz-adv-x="1185" 
d="M119 946q186 193 465 193q227 0 357 -118t130 -335v-686h-233v168h-9q-134 -193 -372 -193q-168 0 -275.5 95t-107.5 247q0 160 118.5 254.5t333.5 94.5h312v34q0 110 -78.5 170t-198.5 60q-176 0 -297 -127zM522 489q-110 0 -159.5 -44t-49.5 -115q0 -68 53 -114
t148 -46q143 0 233.5 87t90.5 216v16h-316zM498 1274q0 33 13.5 53.5t55.5 46.5q68 37 68 86q0 21 -18.5 36t-47.5 15q-32 0 -60 -15t-42 -38l-86 86q77 103 211 103q92 0 152.5 -48.5t60.5 -125.5q0 -113 -139 -181q-23 -11 -28 -22t-5 -33v-12h-135v49z" />
    <glyph glyph-name="uni1EA4" unicode="&#x1ea4;" 
d="M33 0l534 1561h322l534 -1561h-245l-144 422h-612l-141 -422h-248zM494 635h471l-232 682h-8zM918 1829l221 254h217l-254 -254h-184zM393 1645l256 251h160l256 -251h-191l-137 114h-16l-137 -114h-191z" />
    <glyph glyph-name="uni1EA5" unicode="&#x1ea5;" horiz-adv-x="1185" 
d="M119 946q186 193 465 193q227 0 357 -118t130 -335v-686h-233v168h-9q-134 -193 -372 -193q-168 0 -275.5 95t-107.5 247q0 160 118.5 254.5t333.5 94.5h312v34q0 110 -78.5 170t-198.5 60q-176 0 -297 -127zM522 489q-110 0 -159.5 -44t-49.5 -115q0 -68 53 -114
t148 -46q143 0 233.5 87t90.5 216v16h-316zM782 1417l222 254h217l-254 -254h-185zM258 1233l256 252h160l256 -252h-191l-137 115h-16l-137 -115h-191z" />
    <glyph glyph-name="uni1EA6" unicode="&#x1ea6;" 
d="M33 0l534 1561h322l534 -1561h-245l-144 422h-612l-141 -422h-248zM494 635h471l-232 682h-8zM1018 1812l-254 254h217l221 -254h-184zM393 1645l256 251h160l256 -251h-191l-137 114h-16l-137 -114h-191z" />
    <glyph glyph-name="uni1EA7" unicode="&#x1ea7;" horiz-adv-x="1185" 
d="M119 946q186 193 465 193q227 0 357 -118t130 -335v-686h-233v168h-9q-134 -193 -372 -193q-168 0 -275.5 95t-107.5 247q0 160 118.5 254.5t333.5 94.5h312v34q0 110 -78.5 170t-198.5 60q-176 0 -297 -127zM522 489q-110 0 -159.5 -44t-49.5 -115q0 -68 53 -114
t148 -46q143 0 233.5 87t90.5 216v16h-316zM883 1401l-254 254h217l221 -254h-184zM258 1233l256 252h160l256 -252h-191l-137 115h-16l-137 -115h-191z" />
    <glyph glyph-name="uni1EA8" unicode="&#x1ea8;" 
d="M33 0l534 1561h322l534 -1561h-245l-144 422h-612l-141 -422h-248zM494 635h471l-232 682h-8zM946 1843q0 33 14 54t56 47q67 37 67 86q0 21 -18.5 36t-46.5 15q-56 0 -103 -53l-75 75q65 95 186 101q90 0 148.5 -46.5t58.5 -115.5q0 -60 -31.5 -101t-99.5 -79
q-23 -12 -28 -23t-5 -33v-4h-123v41zM393 1645l256 251h160l256 -251h-191l-137 114h-16l-137 -114h-191z" />
    <glyph glyph-name="uni1EA9" unicode="&#x1ea9;" horiz-adv-x="1185" 
d="M119 946q186 193 465 193q227 0 357 -118t130 -335v-686h-233v168h-9q-134 -193 -372 -193q-168 0 -275.5 95t-107.5 247q0 160 118.5 254.5t333.5 94.5h312v34q0 110 -78.5 170t-198.5 60q-176 0 -297 -127zM522 489q-110 0 -159.5 -44t-49.5 -115q0 -68 53 -114
t148 -46q143 0 233.5 87t90.5 216v16h-316zM811 1432q0 33 14 53.5t56 46.5q67 37 67 86q0 21 -18.5 36t-46.5 15q-56 0 -103 -53l-75 76q64 94 186 100q90 0 148.5 -46.5t58.5 -115.5q0 -60 -31.5 -101t-99.5 -79q-23 -12 -28 -22.5t-5 -32.5v-4h-123v41zM258 1233l256 252
h160l256 -252h-191l-137 115h-16l-137 -115h-191z" />
    <glyph glyph-name="uni1EAA" unicode="&#x1eaa;" 
d="M33 0l534 1561h322l534 -1561h-245l-144 422h-612l-141 -422h-248zM494 635h471l-232 682h-8zM455 1946q0 117 58.5 194.5t135.5 77.5q66 0 150 -66q76 -61 116 -61q34 0 55 43t21 102h131q0 -133 -59 -211.5t-148 -78.5q-67 0 -137 55q-77 59 -116 59q-36 0 -56 -32.5
t-20 -81.5h-131zM393 1645l256 251h160l256 -251h-191l-137 114h-16l-137 -114h-191z" />
    <glyph glyph-name="uni1EAB" unicode="&#x1eab;" horiz-adv-x="1185" 
d="M119 946q186 193 465 193q227 0 357 -118t130 -335v-686h-233v168h-9q-134 -193 -372 -193q-168 0 -275.5 95t-107.5 247q0 160 118.5 254.5t333.5 94.5h312v34q0 110 -78.5 170t-198.5 60q-176 0 -297 -127zM522 489q-110 0 -159.5 -44t-49.5 -115q0 -68 53 -114
t148 -46q143 0 233.5 87t90.5 216v16h-316zM319 1534q0 117 59 194.5t136 77.5q67 0 150 -65q77 -62 116 -62q34 0 55 43t21 103h131q0 -133 -59 -212t-148 -79q-67 0 -137 55q-78 60 -117 60q-35 0 -55 -32.5t-20 -82.5h-132zM258 1233l256 252h160l256 -252h-191l-137 115
h-16l-137 -115h-191z" />
    <glyph glyph-name="uni1EAC" unicode="&#x1eac;" 
d="M33 0l534 1561h322l534 -1561h-245l-144 422h-612l-141 -422h-248zM494 635h471l-232 682h-8zM381 1649l262 270h172l262 -270h-196l-144 131h-16l-143 -131h-197zM729 -377q-48 0 -83.5 34.5t-35.5 84.5q0 47 36 83t83 36q50 0 84.5 -35.5t34.5 -83.5q0 -51 -34 -85
t-85 -34z" />
    <glyph glyph-name="uni1EAD" unicode="&#x1ead;" horiz-adv-x="1185" 
d="M119 946q186 193 465 193q227 0 357 -118t130 -335v-686h-233v168h-9q-134 -193 -372 -193q-168 0 -275.5 95t-107.5 247q0 160 118.5 254.5t333.5 94.5h312v34q0 110 -78.5 170t-198.5 60q-176 0 -297 -127zM522 489q-110 0 -159.5 -44t-49.5 -115q0 -68 53 -114
t148 -46q143 0 233.5 87t90.5 216v16h-316zM246 1237l262 270h172l262 -270h-197l-143 131h-16l-144 -131h-196zM567 -377q-48 0 -83 34.5t-35 84.5q0 47 35.5 83t82.5 36q50 0 84.5 -35.5t34.5 -83.5q0 -51 -34 -85t-85 -34z" />
    <glyph glyph-name="uni1EAE" unicode="&#x1eae;" 
d="M33 0l534 1561h322l534 -1561h-245l-144 422h-612l-141 -422h-248zM494 635h471l-232 682h-8zM729 1638q-83 0 -126 8.5t-83 41.5q-44 36 -69 127q-16 62 -21 102h135q7 -34 25 -74q16 -36 45 -49q13 -8 94 -8q78 0 94 8q29 13 45 49q18 40 25 74h135q-6 -48 -20 -102
q-24 -90 -70 -127q-40 -33 -83 -41.5t-126 -8.5zM637 1927l213 254h217l-254 -254h-176z" />
    <glyph glyph-name="uni1EAF" unicode="&#x1eaf;" horiz-adv-x="1185" 
d="M119 946q186 193 465 193q227 0 357 -118t130 -335v-686h-233v168h-9q-134 -193 -372 -193q-168 0 -275.5 95t-107.5 247q0 160 118.5 254.5t333.5 94.5h312v34q0 110 -78.5 170t-198.5 60q-176 0 -297 -127zM522 489q-110 0 -159.5 -44t-49.5 -115q0 -68 53 -114
t148 -46q143 0 233.5 87t90.5 216v16h-316zM594 1227q-84 0 -127 8.5t-82 40.5q-46 37 -70 127q-14 54 -20 102h135q7 -32 25 -73q16 -38 45 -50q13 -8 94 -8q78 0 94 8q29 12 45 50q18 41 25 73h135q-5 -40 -21 -102q-25 -91 -69 -127q-39 -32 -82 -40.5t-127 -8.5z
M502 1516l213 253h217l-254 -253h-176z" />
    <glyph glyph-name="uni1EB0" unicode="&#x1eb0;" 
d="M33 0l534 1561h322l534 -1561h-245l-144 422h-612l-141 -422h-248zM494 635h471l-232 682h-8zM729 1638q-79 0 -124.5 9.5t-84.5 40.5q-41 35 -69 127q-19 75 -21 102h135q7 -34 25 -74q16 -36 45 -49q13 -8 94 -8q78 0 94 8q29 13 45 49q18 40 25 74h135
q-2 -32 -20 -102q-28 -90 -70 -127q-39 -31 -84.5 -40.5t-124.5 -9.5zM649 1915l-254 254h217l213 -254h-176z" />
    <glyph glyph-name="uni1EB1" unicode="&#x1eb1;" horiz-adv-x="1185" 
d="M119 946q186 193 465 193q227 0 357 -118t130 -335v-686h-233v168h-9q-134 -193 -372 -193q-168 0 -275.5 95t-107.5 247q0 160 118.5 254.5t333.5 94.5h312v34q0 110 -78.5 170t-198.5 60q-176 0 -297 -127zM522 489q-110 0 -159.5 -44t-49.5 -115q0 -68 53 -114
t148 -46q143 0 233.5 87t90.5 216v16h-316zM594 1227q-80 0 -125 9.5t-84 39.5q-42 37 -70 127q-18 70 -20 102h135q7 -32 25 -73q16 -38 45 -50q13 -8 94 -8q78 0 94 8q29 12 45 50q18 41 25 73h135q-2 -27 -21 -102q-28 -92 -69 -127q-39 -30 -84 -39.5t-125 -9.5z
M514 1503l-254 254h217l213 -254h-176z" />
    <glyph glyph-name="uni1EB2" unicode="&#x1eb2;" 
d="M33 0l534 1561h322l534 -1561h-245l-144 422h-612l-141 -422h-248zM494 635h471l-232 682h-8zM729 1634q-80 0 -125 9.5t-84 39.5q-41 35 -69 127q-19 75 -21 103h135q7 -34 25 -74q16 -36 45 -49q13 -8 94 -8q78 0 94 8q29 13 45 49q18 40 25 74h135q-2 -33 -20 -103
q-28 -90 -70 -127q-39 -30 -84 -39.5t-125 -9.5zM662 1946q0 33 13.5 53.5t55.5 46.5q68 37 68 86q0 21 -18.5 36t-47.5 15q-55 0 -102 -53l-76 76q64 94 186 100q90 0 148.5 -46.5t58.5 -115.5q0 -60 -31.5 -101t-99.5 -79q-23 -12 -28 -22.5t-5 -32.5v-4h-122v41z" />
    <glyph glyph-name="uni1EB3" unicode="&#x1eb3;" horiz-adv-x="1185" 
d="M119 946q186 193 465 193q227 0 357 -118t130 -335v-686h-233v168h-9q-134 -193 -372 -193q-168 0 -275.5 95t-107.5 247q0 160 118.5 254.5t333.5 94.5h312v34q0 110 -78.5 170t-198.5 60q-176 0 -297 -127zM522 489q-110 0 -159.5 -44t-49.5 -115q0 -68 53 -114
t148 -46q143 0 233.5 87t90.5 216v16h-316zM594 1223q-80 0 -125 9.5t-84 39.5q-42 37 -70 127q-18 70 -20 102h135q7 -34 25 -74q16 -36 45 -49q13 -8 94 -8q78 0 94 8q29 13 45 49q17 40 25 74h135q-2 -27 -21 -102q-28 -92 -69 -127q-39 -30 -84 -39.5t-125 -9.5z
M526 1534q0 33 14 53.5t56 46.5q68 37 68 86q0 21 -19 36.5t-47 15.5q-54 0 -102 -54l-76 76q64 94 186 100q90 0 148.5 -46t58.5 -115q0 -60 -31.5 -101.5t-99.5 -79.5q-23 -12 -28 -22.5t-5 -32.5v-4h-123v41z" />
    <glyph glyph-name="uni1EB4" unicode="&#x1eb4;" 
d="M33 0l534 1561h322l534 -1561h-245l-144 422h-612l-141 -422h-248zM494 635h471l-232 682h-8zM567 1985q0 122 56.5 196t134.5 74q65 0 149 -66q76 -61 117 -61q34 0 55 43t21 102h127q0 -127 -58 -207.5t-145 -80.5q-67 0 -137 55q-77 59 -117 59q-36 0 -56 -32.5
t-20 -81.5h-127zM729 1634q-80 0 -125 9.5t-84 39.5q-41 35 -69 127q-19 75 -21 103h135q7 -34 25 -74q16 -36 45 -49q13 -8 94 -8q78 0 94 8q29 13 45 49q18 40 25 74h135q-2 -33 -20 -103q-28 -90 -70 -127q-39 -30 -84 -39.5t-125 -9.5z" />
    <glyph glyph-name="uni1EB5" unicode="&#x1eb5;" horiz-adv-x="1185" 
d="M119 946q186 193 465 193q227 0 357 -118t130 -335v-686h-233v168h-9q-134 -193 -372 -193q-168 0 -275.5 95t-107.5 247q0 160 118.5 254.5t333.5 94.5h312v34q0 110 -78.5 170t-198.5 60q-176 0 -297 -127zM522 489q-110 0 -159.5 -44t-49.5 -115q0 -68 53 -114
t148 -46q143 0 233.5 87t90.5 216v16h-316zM432 1573q0 122 56.5 196t134.5 74q66 0 149 -65q77 -62 117 -62q34 0 55 43t21 103h127q0 -128 -58 -208.5t-145 -80.5q-67 0 -137 55q-78 60 -117 60q-35 0 -55.5 -33t-20.5 -82h-127zM594 1223q-80 0 -125 9.5t-84 39.5
q-42 37 -70 127q-18 70 -20 102h135q7 -34 25 -74q16 -36 45 -49q13 -8 94 -8q78 0 94 8q29 13 45 49q17 40 25 74h135q-2 -27 -21 -102q-28 -92 -69 -127q-39 -30 -84 -39.5t-125 -9.5z" />
    <glyph glyph-name="uni1EB6" unicode="&#x1eb6;" 
d="M33 0l534 1561h322l534 -1561h-245l-144 422h-612l-141 -422h-248zM494 635h471l-232 682h-8zM729 1638q-76 0 -120 10t-85 40q-49 37 -73 122q-19 73 -21 123h139q9 -44 29 -90q16 -36 45 -49q13 -8 86 -8q70 0 86 8q29 13 45 49q20 46 29 90h139q-3 -55 -20 -123
q-24 -84 -74 -122q-41 -30 -85 -40t-120 -10zM729 -377q-48 0 -83.5 34.5t-35.5 84.5q0 47 36 83t83 36q50 0 84.5 -35.5t34.5 -83.5q0 -51 -34 -85t-85 -34z" />
    <glyph glyph-name="uni1EB7" unicode="&#x1eb7;" horiz-adv-x="1185" 
d="M119 946q186 193 465 193q227 0 357 -118t130 -335v-686h-233v168h-9q-134 -193 -372 -193q-168 0 -275.5 95t-107.5 247q0 160 118.5 254.5t333.5 94.5h312v34q0 110 -78.5 170t-198.5 60q-176 0 -297 -127zM522 489q-110 0 -159.5 -44t-49.5 -115q0 -68 53 -114
t148 -46q143 0 233.5 87t90.5 216v16h-316zM594 1227q-77 0 -120.5 9.5t-84.5 39.5q-50 38 -74 123q-17 68 -20 123h139q9 -44 29 -90q16 -38 45 -50q13 -8 86 -8q70 0 86 8q29 12 45 50q20 46 29 90h139q-2 -50 -21 -123q-24 -86 -73 -123q-41 -30 -84.5 -39.5t-120.5 -9.5
zM567 -377q-48 0 -83 34.5t-35 84.5q0 47 35.5 83t82.5 36q50 0 84.5 -35.5t34.5 -83.5q0 -51 -34 -85t-85 -34z" />
    <glyph glyph-name="uni1EB8" unicode="&#x1eb8;" horiz-adv-x="1171" 
d="M156 0v1561h884v-213h-643v-437h594v-213h-594v-485h652v-213h-893zM625 -377q-48 0 -83.5 34.5t-35.5 84.5q0 47 36 83t83 36q50 0 84 -35.5t34 -83.5q0 -51 -33.5 -85t-84.5 -34z" />
    <glyph glyph-name="uni1EB9" unicode="&#x1eb9;" horiz-adv-x="1234" 
d="M639 -25q-253 0 -413 161t-160 421q0 126 44 236t119.5 185.5t178.5 119t219 43.5q246 0 388 -158t142 -428q0 -41 -2 -66h-854q9 -134 104 -217.5t242 -83.5q189 0 307 121l144 -141q-75 -90 -195 -141.5t-264 -51.5zM922 668q-7 116 -91.5 188t-205.5 72
q-129 0 -219 -71.5t-103 -188.5h619zM635 -377q-48 0 -83.5 34.5t-35.5 84.5q0 47 36 83t83 36q50 0 84.5 -35.5t34.5 -83.5q0 -51 -34 -85t-85 -34z" />
    <glyph glyph-name="uni1EBA" unicode="&#x1eba;" horiz-adv-x="1171" 
d="M156 0v1561h884v-213h-643v-437h594v-213h-594v-485h652v-213h-893zM504 1702q0 33 13.5 53.5t55.5 46.5q68 37 68 86q0 21 -18.5 36t-47.5 15q-32 0 -60 -15t-42 -38l-86 86q77 103 211 103q92 0 152.5 -48.5t60.5 -125.5q0 -113 -139 -181q-23 -11 -28 -22t-5 -33v-12
h-135v49z" />
    <glyph glyph-name="uni1EBB" unicode="&#x1ebb;" horiz-adv-x="1234" 
d="M639 -25q-253 0 -413 161t-160 421q0 126 44 236t119.5 185.5t178.5 119t219 43.5q246 0 388 -158t142 -428q0 -41 -2 -66h-854q9 -134 104 -217.5t242 -83.5q189 0 307 121l144 -141q-75 -90 -195 -141.5t-264 -51.5zM922 668q-7 116 -91.5 188t-205.5 72
q-129 0 -219 -71.5t-103 -188.5h619zM539 1288q0 33 14 54.5t55 46.5q68 37 68 86q0 21 -18.5 36t-47.5 15q-32 0 -60 -15t-42 -38l-86 86q76 102 211 102q92 0 152.5 -48.5t60.5 -125.5q0 -112 -139 -180q-23 -11 -28 -22.5t-5 -33.5v-12h-135v49z" />
    <glyph glyph-name="uni1EBC" unicode="&#x1ebc;" horiz-adv-x="1171" 
d="M156 0v1561h884v-213h-643v-437h594v-213h-594v-485h652v-213h-893zM281 1686q0 120 57.5 200t138.5 80q77 -3 156 -65q73 -54 110 -54q58 0 58 129h139q0 -137 -51 -213.5t-144 -76.5q-69 0 -145 55q-73 52 -113 55q-35 0 -53 -30t-18 -80h-135z" />
    <glyph glyph-name="uni1EBD" unicode="&#x1ebd;" horiz-adv-x="1234" 
d="M639 -25q-253 0 -413 161t-160 421q0 126 44 236t119.5 185.5t178.5 119t219 43.5q246 0 388 -158t142 -428q0 -41 -2 -66h-854q9 -134 104 -217.5t242 -83.5q189 0 307 121l144 -141q-75 -90 -195 -141.5t-264 -51.5zM922 668q-7 116 -91.5 188t-205.5 72
q-129 0 -219 -71.5t-103 -188.5h619zM315 1272q0 120 58 200t139 80q77 -3 156 -65q71 -53 110 -53q58 0 58 129h139q0 -137 -51 -214t-144 -77q-69 0 -145 55q-73 52 -113 55q-35 0 -53 -30t-18 -80h-136z" />
    <glyph glyph-name="uni1EBE" unicode="&#x1ebe;" horiz-adv-x="1171" 
d="M156 0v1561h884v-213h-643v-437h594v-213h-594v-485h652v-213h-893zM788 1845l222 254h217l-254 -254h-185zM264 1661l256 252h160l256 -252h-191l-137 115h-16l-137 -115h-191z" />
    <glyph glyph-name="uni1EBF" unicode="&#x1ebf;" horiz-adv-x="1234" 
d="M639 -25q-253 0 -413 161t-160 421q0 126 44 236t119.5 185.5t178.5 119t219 43.5q246 0 388 -158t142 -428q0 -41 -2 -66h-854q9 -134 104 -217.5t242 -83.5q189 0 307 121l144 -141q-75 -90 -195 -141.5t-264 -51.5zM922 668q-7 116 -91.5 188t-205.5 72
q-129 0 -219 -71.5t-103 -188.5h619zM823 1432l221 254h218l-254 -254h-185zM299 1247l256 252h160l256 -252h-191l-137 115h-16l-138 -115h-190z" />
    <glyph glyph-name="uni1EC0" unicode="&#x1ec0;" horiz-adv-x="1171" 
d="M156 0v1561h884v-213h-643v-437h594v-213h-594v-485h652v-213h-893zM889 1829l-254 254h217l221 -254h-184zM264 1661l256 252h160l256 -252h-191l-137 115h-16l-137 -115h-191z" />
    <glyph glyph-name="uni1EC1" unicode="&#x1ec1;" horiz-adv-x="1234" 
d="M639 -25q-253 0 -413 161t-160 421q0 126 44 236t119.5 185.5t178.5 119t219 43.5q246 0 388 -158t142 -428q0 -41 -2 -66h-854q9 -134 104 -217.5t242 -83.5q189 0 307 121l144 -141q-75 -90 -195 -141.5t-264 -51.5zM922 668q-7 116 -91.5 188t-205.5 72
q-129 0 -219 -71.5t-103 -188.5h619zM924 1415l-254 254h217l221 -254h-184zM299 1247l256 252h160l256 -252h-191l-137 115h-16l-138 -115h-190z" />
    <glyph glyph-name="uni1EC2" unicode="&#x1ec2;" horiz-adv-x="1171" 
d="M156 0v1561h884v-213h-643v-437h594v-213h-594v-485h652v-213h-893zM817 1860q0 33 14 53.5t56 46.5q67 37 67 86q0 21 -18.5 36t-46.5 15q-56 0 -103 -53l-75 76q64 94 186 100q90 0 148.5 -46.5t58.5 -115.5q0 -60 -31.5 -101t-99.5 -79q-23 -12 -28 -22.5t-5 -32.5v-4
h-123v41zM264 1661l256 252h160l256 -252h-191l-137 115h-16l-137 -115h-191z" />
    <glyph glyph-name="uni1EC3" unicode="&#x1ec3;" horiz-adv-x="1234" 
d="M639 -25q-253 0 -413 161t-160 421q0 126 44 236t119.5 185.5t178.5 119t219 43.5q246 0 388 -158t142 -428q0 -41 -2 -66h-854q9 -134 104 -217.5t242 -83.5q189 0 307 121l144 -141q-75 -90 -195 -141.5t-264 -51.5zM922 668q-7 116 -91.5 188t-205.5 72
q-129 0 -219 -71.5t-103 -188.5h619zM852 1446q0 33 14 53.5t56 46.5q67 37 67 86q0 21 -18.5 36t-46.5 15q-56 0 -103 -53l-76 76q64 94 187 100q90 0 148.5 -46t58.5 -115q0 -60 -31.5 -101.5t-99.5 -79.5q-23 -12 -28 -22.5t-5 -32.5v-4h-123v41zM299 1247l256 252h160
l256 -252h-191l-137 115h-16l-138 -115h-190z" />
    <glyph glyph-name="uni1EC4" unicode="&#x1ec4;" horiz-adv-x="1171" 
d="M156 0v1561h884v-213h-643v-437h594v-213h-594v-485h652v-213h-893zM326 1962q0 117 58.5 194.5t135.5 77.5q67 0 150 -65q77 -62 116 -62q34 0 55 43t21 103h131q0 -133 -59 -212t-148 -79q-67 0 -137 55q-78 60 -117 60q-35 0 -55 -32.5t-20 -82.5h-131zM264 1661
l256 252h160l256 -252h-191l-137 115h-16l-137 -115h-191z" />
    <glyph glyph-name="uni1EC5" unicode="&#x1ec5;" horiz-adv-x="1234" 
d="M639 -25q-253 0 -413 161t-160 421q0 126 44 236t119.5 185.5t178.5 119t219 43.5q246 0 388 -158t142 -428q0 -41 -2 -66h-854q9 -134 104 -217.5t242 -83.5q189 0 307 121l144 -141q-75 -90 -195 -141.5t-264 -51.5zM922 668q-7 116 -91.5 188t-205.5 72
q-129 0 -219 -71.5t-103 -188.5h619zM360 1548q0 117 59 195t136 78q66 0 150 -66q76 -61 116 -61q34 0 55 43t21 102h131q0 -133 -59 -212t-148 -79q-66 0 -137 56q-77 59 -117 59q-35 0 -55 -32.5t-20 -82.5h-132zM299 1247l256 252h160l256 -252h-191l-137 115h-16
l-138 -115h-190z" />
    <glyph glyph-name="uni1EC6" unicode="&#x1ec6;" horiz-adv-x="1171" 
d="M156 0v1561h884v-213h-643v-437h594v-213h-594v-485h652v-213h-893zM252 1665l262 270h172l262 -270h-196l-144 131h-16l-143 -131h-197zM625 -377q-48 0 -83.5 34.5t-35.5 84.5q0 47 36 83t83 36q50 0 84 -35.5t34 -83.5q0 -51 -33.5 -85t-84.5 -34z" />
    <glyph glyph-name="uni1EC7" unicode="&#x1ec7;" horiz-adv-x="1234" 
d="M639 -25q-253 0 -413 161t-160 421q0 126 44 236t119.5 185.5t178.5 119t219 43.5q246 0 388 -158t142 -428q0 -41 -2 -66h-854q9 -134 104 -217.5t242 -83.5q189 0 307 121l144 -141q-75 -90 -195 -141.5t-264 -51.5zM922 668q-7 116 -91.5 188t-205.5 72
q-129 0 -219 -71.5t-103 -188.5h619zM287 1251l262 271h172l262 -271h-197l-143 131h-16l-144 -131h-196zM635 -377q-48 0 -83.5 34.5t-35.5 84.5q0 47 36 83t83 36q50 0 84.5 -35.5t34.5 -83.5q0 -51 -34 -85t-85 -34z" />
    <glyph glyph-name="uni1EC8" unicode="&#x1ec8;" horiz-adv-x="552" 
d="M156 0v1561h241v-1561h-241zM180 1686q0 33 14 53.5t56 46.5q67 37 67 86q0 21 -18.5 36t-46.5 15q-32 0 -60 -15t-42 -38l-87 86q77 102 211 102q92 0 152.5 -48.5t60.5 -125.5q0 -112 -139 -180q-23 -11 -28 -22t-5 -33v-13h-135v50z" />
    <glyph glyph-name="uni1EC9" unicode="&#x1ec9;" horiz-adv-x="479" 
d="M131 0v1110h234v-1110h-234zM152 1260q0 33 13.5 53.5t55.5 46.5q68 37 68 86q0 21 -18.5 36t-47.5 15q-32 0 -60 -15t-42 -38l-86 86q77 102 211 102q92 0 152.5 -48.5t60.5 -125.5q0 -112 -140 -180q-16 -8 -23 -17t-8 -15.5t-1 -22.5v-13h-135v50z" />
    <glyph glyph-name="uni1ECA" unicode="&#x1eca;" horiz-adv-x="552" 
d="M156 0v1561h241v-1561h-241zM276 -377q-48 0 -83 34.5t-35 84.5q0 47 35.5 83t82.5 36q50 0 84.5 -35.5t34.5 -83.5q0 -51 -34 -85t-85 -34z" />
    <glyph glyph-name="uni1ECB" unicode="&#x1ecb;" horiz-adv-x="479" 
d="M131 0v1110h234v-1110h-234zM248 1212q-58 0 -100 42t-42 100t41.5 99.5t100.5 41.5q58 0 99.5 -41.5t41.5 -99.5q0 -59 -41.5 -100.5t-99.5 -41.5zM248 -377q-48 0 -83.5 34.5t-35.5 84.5q0 47 36 83t83 36q50 0 84.5 -35.5t34.5 -83.5q0 -51 -34 -85t-85 -34z" />
    <glyph glyph-name="uni1ECC" unicode="&#x1ecc;" horiz-adv-x="1732" 
d="M866 -25q-166 0 -312.5 62.5t-250.5 169.5t-164.5 256.5t-60.5 316.5q0 174 63.5 325.5t170.5 256t251 164t303 59.5q162 0 307.5 -61t251.5 -167t168 -256.5t62 -320.5q0 -174 -63.5 -325.5t-171 -256t-251.5 -164t-303 -59.5zM866 193q152 0 278 77t198.5 212t72.5 298
q0 160 -70 294.5t-196.5 214t-282.5 79.5q-152 0 -278 -77t-198.5 -212.5t-72.5 -298.5q0 -160 70.5 -294t197 -213.5t281.5 -79.5zM866 -377q-48 0 -83 34.5t-35 84.5q0 47 35.5 83t82.5 36q50 0 84.5 -35.5t34.5 -83.5q0 -51 -34 -85t-85 -34z" />
    <glyph glyph-name="uni1ECD" unicode="&#x1ecd;" horiz-adv-x="1275" 
d="M639 -25q-116 0 -220 41t-182.5 114.5t-124.5 185t-46 243.5q0 170 76.5 304t207 206t289.5 72q114 0 217 -40.5t182 -114t125.5 -184.5t46.5 -243q0 -170 -76 -304.5t-206 -207t-289 -72.5zM639 190q151 0 242.5 105t91.5 264q0 157 -91.5 262t-242.5 105
q-152 0 -244 -104.5t-92 -262.5q0 -159 92 -264t244 -105zM639 -377q-48 0 -83.5 34.5t-35.5 84.5q0 47 36 83t83 36q50 0 84.5 -35.5t34.5 -83.5q0 -51 -34 -85t-85 -34z" />
    <glyph glyph-name="uni1ECE" unicode="&#x1ece;" horiz-adv-x="1732" 
d="M866 -25q-166 0 -312.5 62.5t-250.5 169.5t-164.5 256.5t-60.5 316.5q0 174 63.5 325.5t170.5 256t251 164t303 59.5q162 0 307.5 -61t251.5 -167t168 -256.5t62 -320.5q0 -174 -63.5 -325.5t-171 -256t-251.5 -164t-303 -59.5zM866 193q152 0 278 77t198.5 212t72.5 298
q0 160 -70 294.5t-196.5 214t-282.5 79.5q-152 0 -278 -77t-198.5 -212.5t-72.5 -298.5q0 -160 70.5 -294t197 -213.5t281.5 -79.5zM770 1702q0 33 14 53.5t56 46.5q67 37 67 86q0 21 -18.5 36t-46.5 15q-32 0 -60.5 -15t-42.5 -38l-86 86q77 103 211 103q92 0 152.5 -48.5
t60.5 -125.5q0 -113 -139 -181q-23 -11 -28 -22t-5 -33v-12h-135v49z" />
    <glyph glyph-name="uni1ECF" unicode="&#x1ecf;" horiz-adv-x="1275" 
d="M639 -25q-116 0 -220 41t-182.5 114.5t-124.5 185t-46 243.5q0 170 76.5 304t207 206t289.5 72q114 0 217 -40.5t182 -114t125.5 -184.5t46.5 -243q0 -170 -76 -304.5t-206 -207t-289 -72.5zM639 190q151 0 242.5 105t91.5 264q0 157 -91.5 262t-242.5 105
q-152 0 -244 -104.5t-92 -262.5q0 -159 92 -264t244 -105zM543 1276q0 33 13.5 53.5t55.5 46.5q68 37 68 86q0 21 -18.5 36t-47.5 15q-32 0 -60 -15t-42 -38l-86 86q77 103 211 103q92 0 152.5 -48.5t60.5 -125.5q0 -113 -139 -181q-23 -11 -28 -22t-5 -33v-12h-135v49z" />
    <glyph glyph-name="uni1ED0" unicode="&#x1ed0;" horiz-adv-x="1732" 
d="M866 -25q-166 0 -312.5 62.5t-250.5 169.5t-164.5 256.5t-60.5 316.5q0 174 63.5 325.5t170.5 256t251 164t303 59.5q162 0 307.5 -61t251.5 -167t168 -256.5t62 -320.5q0 -174 -63.5 -325.5t-171 -256t-251.5 -164t-303 -59.5zM866 193q152 0 278 77t198.5 212t72.5 298
q0 160 -70 294.5t-196.5 214t-282.5 79.5q-152 0 -278 -77t-198.5 -212.5t-72.5 -298.5q0 -160 70.5 -294t197 -213.5t281.5 -79.5zM1055 1845l221 254h217l-254 -254h-184zM530 1661l256 252h160l256 -252h-190l-138 115h-16l-137 -115h-191z" />
    <glyph glyph-name="uni1ED1" unicode="&#x1ed1;" horiz-adv-x="1275" 
d="M639 -25q-116 0 -220 41t-182.5 114.5t-124.5 185t-46 243.5q0 170 76.5 304t207 206t289.5 72q114 0 217 -40.5t182 -114t125.5 -184.5t46.5 -243q0 -170 -76 -304.5t-206 -207t-289 -72.5zM639 190q151 0 242.5 105t91.5 264q0 157 -91.5 262t-242.5 105
q-152 0 -244 -104.5t-92 -262.5q0 -159 92 -264t244 -105zM827 1419l222 254h217l-254 -254h-185zM303 1235l256 252h160l256 -252h-191l-137 115h-16l-137 -115h-191z" />
    <glyph glyph-name="uni1ED2" unicode="&#x1ed2;" horiz-adv-x="1732" 
d="M866 -25q-166 0 -312.5 62.5t-250.5 169.5t-164.5 256.5t-60.5 316.5q0 174 63.5 325.5t170.5 256t251 164t303 59.5q162 0 307.5 -61t251.5 -167t168 -256.5t62 -320.5q0 -174 -63.5 -325.5t-171 -256t-251.5 -164t-303 -59.5zM866 193q152 0 278 77t198.5 212t72.5 298
q0 160 -70 294.5t-196.5 214t-282.5 79.5q-152 0 -278 -77t-198.5 -212.5t-72.5 -298.5q0 -160 70.5 -294t197 -213.5t281.5 -79.5zM1155 1829l-254 254h217l221 -254h-184zM530 1661l256 252h160l256 -252h-190l-138 115h-16l-137 -115h-191z" />
    <glyph glyph-name="uni1ED3" unicode="&#x1ed3;" horiz-adv-x="1275" 
d="M639 -25q-116 0 -220 41t-182.5 114.5t-124.5 185t-46 243.5q0 170 76.5 304t207 206t289.5 72q114 0 217 -40.5t182 -114t125.5 -184.5t46.5 -243q0 -170 -76 -304.5t-206 -207t-289 -72.5zM639 190q151 0 242.5 105t91.5 264q0 157 -91.5 262t-242.5 105
q-152 0 -244 -104.5t-92 -262.5q0 -159 92 -264t244 -105zM928 1403l-254 254h217l221 -254h-184zM303 1235l256 252h160l256 -252h-191l-137 115h-16l-137 -115h-191z" />
    <glyph glyph-name="uni1ED4" unicode="&#x1ed4;" horiz-adv-x="1732" 
d="M866 -25q-166 0 -312.5 62.5t-250.5 169.5t-164.5 256.5t-60.5 316.5q0 174 63.5 325.5t170.5 256t251 164t303 59.5q162 0 307.5 -61t251.5 -167t168 -256.5t62 -320.5q0 -174 -63.5 -325.5t-171 -256t-251.5 -164t-303 -59.5zM866 193q152 0 278 77t198.5 212t72.5 298
q0 160 -70 294.5t-196.5 214t-282.5 79.5q-152 0 -278 -77t-198.5 -212.5t-72.5 -298.5q0 -160 70.5 -294t197 -213.5t281.5 -79.5zM1083 1860q0 33 14 53.5t56 46.5q68 37 68 86q0 21 -18.5 36t-47.5 15q-55 0 -102 -53l-76 76q64 94 186 100q90 0 148.5 -46.5t58.5 -115.5
q0 -60 -31.5 -101t-99.5 -79q-23 -12 -28 -22.5t-5 -32.5v-4h-123v41zM530 1661l256 252h160l256 -252h-190l-138 115h-16l-137 -115h-191z" />
    <glyph glyph-name="uni1ED5" unicode="&#x1ed5;" horiz-adv-x="1275" 
d="M639 -25q-116 0 -220 41t-182.5 114.5t-124.5 185t-46 243.5q0 170 76.5 304t207 206t289.5 72q114 0 217 -40.5t182 -114t125.5 -184.5t46.5 -243q0 -170 -76 -304.5t-206 -207t-289 -72.5zM639 190q151 0 242.5 105t91.5 264q0 157 -91.5 262t-242.5 105
q-152 0 -244 -104.5t-92 -262.5q0 -159 92 -264t244 -105zM856 1434q0 33 14 53.5t56 46.5q67 37 67 86q0 21 -18.5 36t-46.5 15q-56 0 -103 -53l-75 76q64 94 186 100q90 0 148.5 -46.5t58.5 -115.5q0 -60 -31.5 -101t-99.5 -79q-23 -12 -28 -22.5t-5 -32.5v-4h-123v41z
M303 1235l256 252h160l256 -252h-191l-137 115h-16l-137 -115h-191z" />
    <glyph glyph-name="uni1ED6" unicode="&#x1ed6;" horiz-adv-x="1732" 
d="M866 -25q-166 0 -312.5 62.5t-250.5 169.5t-164.5 256.5t-60.5 316.5q0 174 63.5 325.5t170.5 256t251 164t303 59.5q162 0 307.5 -61t251.5 -167t168 -256.5t62 -320.5q0 -174 -63.5 -325.5t-171 -256t-251.5 -164t-303 -59.5zM866 193q152 0 278 77t198.5 212t72.5 298
q0 160 -70 294.5t-196.5 214t-282.5 79.5q-152 0 -278 -77t-198.5 -212.5t-72.5 -298.5q0 -160 70.5 -294t197 -213.5t281.5 -79.5zM592 1962q0 117 58.5 194.5t135.5 77.5q67 0 150 -65q77 -62 117 -62q34 0 54.5 43t20.5 103h132q0 -133 -59 -212t-148 -79q-68 0 -138 55
q-78 60 -116 60q-35 0 -55.5 -33t-20.5 -82h-131zM530 1661l256 252h160l256 -252h-190l-138 115h-16l-137 -115h-191z" />
    <glyph glyph-name="uni1ED7" unicode="&#x1ed7;" horiz-adv-x="1275" 
d="M639 -25q-116 0 -220 41t-182.5 114.5t-124.5 185t-46 243.5q0 170 76.5 304t207 206t289.5 72q114 0 217 -40.5t182 -114t125.5 -184.5t46.5 -243q0 -170 -76 -304.5t-206 -207t-289 -72.5zM639 190q151 0 242.5 105t91.5 264q0 157 -91.5 262t-242.5 105
q-152 0 -244 -104.5t-92 -262.5q0 -159 92 -264t244 -105zM365 1536q0 117 58.5 194.5t135.5 77.5q67 0 150 -65q77 -62 116 -62q34 0 55 43t21 103h131q0 -133 -59 -212t-148 -79q-67 0 -137 55q-78 60 -117 60q-35 0 -55 -32.5t-20 -82.5h-131zM303 1235l256 252h160
l256 -252h-191l-137 115h-16l-137 -115h-191z" />
    <glyph glyph-name="uni1ED8" unicode="&#x1ed8;" horiz-adv-x="1732" 
d="M866 -25q-166 0 -312.5 62.5t-250.5 169.5t-164.5 256.5t-60.5 316.5q0 174 63.5 325.5t170.5 256t251 164t303 59.5q162 0 307.5 -61t251.5 -167t168 -256.5t62 -320.5q0 -174 -63.5 -325.5t-171 -256t-251.5 -164t-303 -59.5zM866 193q152 0 278 77t198.5 212t72.5 298
q0 160 -70 294.5t-196.5 214t-282.5 79.5q-152 0 -278 -77t-198.5 -212.5t-72.5 -298.5q0 -160 70.5 -294t197 -213.5t281.5 -79.5zM518 1665l262 270h172l262 -270h-196l-144 131h-16l-143 -131h-197zM866 -377q-48 0 -83 34.5t-35 84.5q0 47 35.5 83t82.5 36
q50 0 84.5 -35.5t34.5 -83.5q0 -51 -34 -85t-85 -34z" />
    <glyph glyph-name="uni1ED9" unicode="&#x1ed9;" horiz-adv-x="1275" 
d="M639 -25q-116 0 -220 41t-182.5 114.5t-124.5 185t-46 243.5q0 170 76.5 304t207 206t289.5 72q114 0 217 -40.5t182 -114t125.5 -184.5t46.5 -243q0 -170 -76 -304.5t-206 -207t-289 -72.5zM639 190q151 0 242.5 105t91.5 264q0 157 -91.5 262t-242.5 105
q-152 0 -244 -104.5t-92 -262.5q0 -159 92 -264t244 -105zM291 1239l262 270h172l262 -270h-196l-144 131h-16l-144 -131h-196zM639 -377q-48 0 -83.5 34.5t-35.5 84.5q0 47 36 83t83 36q50 0 84.5 -35.5t34.5 -83.5q0 -51 -34 -85t-85 -34z" />
    <glyph glyph-name="uni1EDA" unicode="&#x1eda;" horiz-adv-x="1724" 
d="M866 -25q-166 0 -312.5 62.5t-250.5 169.5t-164.5 256.5t-60.5 316.5q0 174 63.5 325.5t170.5 256t251 164t303 59.5q204 0 381 -94q45 20 45 88q0 60 -35 119h193q23 -58 23 -129q0 -52 -28 -94t-75 -68q134 -111 209.5 -273t75.5 -354q0 -174 -63.5 -325.5t-171 -256
t-251.5 -164t-303 -59.5zM866 193q152 0 278 77t198.5 212t72.5 298q0 160 -70 294.5t-196.5 214t-282.5 79.5q-152 0 -278 -77t-198.5 -212.5t-72.5 -298.5q0 -160 70.5 -294t197 -213.5t281.5 -79.5zM733 1704l238 278h241l-278 -278h-201z" />
    <glyph glyph-name="uni1EDB" unicode="&#x1edb;" horiz-adv-x="1286" 
d="M639 -25q-116 0 -220 41t-182.5 114.5t-124.5 185t-46 243.5q0 170 76.5 304t207 206t289.5 72q170 0 307 -84q55 18 55 92q0 61 -34 119h192q23 -58 23 -129q0 -58 -33 -102.5t-92 -69.5q153 -160 153 -408q0 -170 -76 -304.5t-206 -207t-289 -72.5zM639 190
q151 0 242.5 105t91.5 264q0 157 -91.5 262t-242.5 105q-152 0 -244 -104.5t-92 -262.5q0 -159 92 -264t244 -105zM506 1278l237 278h242l-278 -278h-201z" />
    <glyph glyph-name="uni1EDC" unicode="&#x1edc;" horiz-adv-x="1724" 
d="M866 -25q-166 0 -312.5 62.5t-250.5 169.5t-164.5 256.5t-60.5 316.5q0 174 63.5 325.5t170.5 256t251 164t303 59.5q204 0 381 -94q45 20 45 88q0 60 -35 119h193q23 -58 23 -129q0 -52 -28 -94t-75 -68q134 -111 209.5 -273t75.5 -354q0 -174 -63.5 -325.5t-171 -256
t-251.5 -164t-303 -59.5zM866 193q152 0 278 77t198.5 212t72.5 298q0 160 -70 294.5t-196.5 214t-282.5 79.5q-152 0 -278 -77t-198.5 -212.5t-72.5 -298.5q0 -160 70.5 -294t197 -213.5t281.5 -79.5zM799 1704l-279 278h242l237 -278h-200z" />
    <glyph glyph-name="uni1EDD" unicode="&#x1edd;" horiz-adv-x="1286" 
d="M639 -25q-116 0 -220 41t-182.5 114.5t-124.5 185t-46 243.5q0 170 76.5 304t207 206t289.5 72q170 0 307 -84q55 18 55 92q0 61 -34 119h192q23 -58 23 -129q0 -58 -33 -102.5t-92 -69.5q153 -160 153 -408q0 -170 -76 -304.5t-206 -207t-289 -72.5zM639 190
q151 0 242.5 105t91.5 264q0 157 -91.5 262t-242.5 105q-152 0 -244 -104.5t-92 -262.5q0 -159 92 -264t244 -105zM571 1278l-278 278h242l237 -278h-201z" />
    <glyph glyph-name="uni1EDE" unicode="&#x1ede;" horiz-adv-x="1724" 
d="M866 -25q-166 0 -312.5 62.5t-250.5 169.5t-164.5 256.5t-60.5 316.5q0 174 63.5 325.5t170.5 256t251 164t303 59.5q204 0 381 -94q45 20 45 88q0 60 -35 119h193q23 -58 23 -129q0 -52 -28 -94t-75 -68q134 -111 209.5 -273t75.5 -354q0 -174 -63.5 -325.5t-171 -256
t-251.5 -164t-303 -59.5zM866 193q152 0 278 77t198.5 212t72.5 298q0 160 -70 294.5t-196.5 214t-282.5 79.5q-152 0 -278 -77t-198.5 -212.5t-72.5 -298.5q0 -160 70.5 -294t197 -213.5t281.5 -79.5zM770 1702q0 33 14 53.5t56 46.5q67 37 67 86q0 21 -18.5 36t-46.5 15
q-32 0 -60.5 -15t-42.5 -38l-86 86q77 103 211 103q92 0 152.5 -48.5t60.5 -125.5q0 -113 -139 -181q-23 -11 -28 -22t-5 -33v-12h-135v49z" />
    <glyph glyph-name="uni1EDF" unicode="&#x1edf;" horiz-adv-x="1286" 
d="M639 -25q-116 0 -220 41t-182.5 114.5t-124.5 185t-46 243.5q0 170 76.5 304t207 206t289.5 72q170 0 307 -84q55 18 55 92q0 61 -34 119h192q23 -58 23 -129q0 -58 -33 -102.5t-92 -69.5q153 -160 153 -408q0 -170 -76 -304.5t-206 -207t-289 -72.5zM639 190
q151 0 242.5 105t91.5 264q0 157 -91.5 262t-242.5 105q-152 0 -244 -104.5t-92 -262.5q0 -159 92 -264t244 -105zM543 1276q0 33 13.5 53.5t55.5 46.5q68 37 68 86q0 21 -18.5 36t-47.5 15q-32 0 -60 -15t-42 -38l-86 86q77 103 211 103q92 0 152.5 -48.5t60.5 -125.5
q0 -113 -139 -181q-23 -11 -28 -22t-5 -33v-12h-135v49z" />
    <glyph glyph-name="uni1EE0" unicode="&#x1ee0;" horiz-adv-x="1724" 
d="M866 -25q-166 0 -312.5 62.5t-250.5 169.5t-164.5 256.5t-60.5 316.5q0 174 63.5 325.5t170.5 256t251 164t303 59.5q204 0 381 -94q45 20 45 88q0 60 -35 119h193q23 -58 23 -129q0 -52 -28 -94t-75 -68q134 -111 209.5 -273t75.5 -354q0 -174 -63.5 -325.5t-171 -256
t-251.5 -164t-303 -59.5zM866 193q152 0 278 77t198.5 212t72.5 298q0 160 -70 294.5t-196.5 214t-282.5 79.5q-152 0 -278 -77t-198.5 -212.5t-72.5 -298.5q0 -160 70.5 -294t197 -213.5t281.5 -79.5zM547 1686q0 120 57.5 200t138.5 80q77 -3 156 -65q73 -54 111 -54
q57 0 57 129h139q0 -137 -50.5 -213.5t-143.5 -76.5q-70 0 -146 55q-73 52 -112 55q-35 0 -53.5 -30.5t-18.5 -79.5h-135z" />
    <glyph glyph-name="uni1EE1" unicode="&#x1ee1;" horiz-adv-x="1286" 
d="M639 -25q-116 0 -220 41t-182.5 114.5t-124.5 185t-46 243.5q0 170 76.5 304t207 206t289.5 72q170 0 307 -84q55 18 55 92q0 61 -34 119h192q23 -58 23 -129q0 -58 -33 -102.5t-92 -69.5q153 -160 153 -408q0 -170 -76 -304.5t-206 -207t-289 -72.5zM639 190
q151 0 242.5 105t91.5 264q0 157 -91.5 262t-242.5 105q-152 0 -244 -104.5t-92 -262.5q0 -159 92 -264t244 -105zM319 1260q0 120 58 200t139 80q77 -3 156 -65q73 -54 110 -54q58 0 58 129h139q0 -137 -51 -213.5t-144 -76.5q-69 0 -145 55q-73 52 -113 55q-35 0 -53 -30
t-18 -80h-136z" />
    <glyph glyph-name="uni1EE2" unicode="&#x1ee2;" horiz-adv-x="1724" 
d="M866 -25q-166 0 -312.5 62.5t-250.5 169.5t-164.5 256.5t-60.5 316.5q0 174 63.5 325.5t170.5 256t251 164t303 59.5q204 0 381 -94q45 20 45 88q0 60 -35 119h193q23 -58 23 -129q0 -52 -28 -94t-75 -68q134 -111 209.5 -273t75.5 -354q0 -174 -63.5 -325.5t-171 -256
t-251.5 -164t-303 -59.5zM866 193q152 0 278 77t198.5 212t72.5 298q0 160 -70 294.5t-196.5 214t-282.5 79.5q-152 0 -278 -77t-198.5 -212.5t-72.5 -298.5q0 -160 70.5 -294t197 -213.5t281.5 -79.5zM866 -377q-48 0 -83 34.5t-35 84.5q0 47 35.5 83t82.5 36
q50 0 84.5 -35.5t34.5 -83.5q0 -51 -34 -85t-85 -34z" />
    <glyph glyph-name="uni1EE3" unicode="&#x1ee3;" horiz-adv-x="1286" 
d="M639 -25q-116 0 -220 41t-182.5 114.5t-124.5 185t-46 243.5q0 170 76.5 304t207 206t289.5 72q170 0 307 -84q55 18 55 92q0 61 -34 119h192q23 -58 23 -129q0 -58 -33 -102.5t-92 -69.5q153 -160 153 -408q0 -170 -76 -304.5t-206 -207t-289 -72.5zM639 190
q151 0 242.5 105t91.5 264q0 157 -91.5 262t-242.5 105q-152 0 -244 -104.5t-92 -262.5q0 -159 92 -264t244 -105zM639 -377q-48 0 -83.5 34.5t-35.5 84.5q0 47 36 83t83 36q50 0 84.5 -35.5t34.5 -83.5q0 -51 -34 -85t-85 -34z" />
    <glyph glyph-name="uni1EE4" unicode="&#x1ee4;" horiz-adv-x="1523" 
d="M762 -25q-174 0 -318.5 74.5t-228.5 208t-84 299.5v1004h242v-961q0 -79 24 -147.5t70.5 -122.5t122 -85.5t172.5 -31.5t172.5 31.5t122 85.5t70.5 122.5t24 147.5v961h242v-1004q0 -166 -84 -299.5t-228.5 -208t-318.5 -74.5zM766 -377q-48 0 -83.5 34.5t-35.5 84.5
q0 47 36 83t83 36q50 0 84.5 -35.5t34.5 -83.5q0 -51 -34 -85t-85 -34z" />
    <glyph glyph-name="uni1EE5" unicode="&#x1ee5;" horiz-adv-x="1275" 
d="M561 -25q-197 0 -319.5 123.5t-122.5 335.5v676h233v-621q0 -148 73 -230.5t193 -82.5q130 0 211.5 93.5t81.5 271.5v569h234v-1110h-234v172h-8q-44 -88 -132.5 -142.5t-209.5 -54.5zM633 -377q-48 0 -83.5 34.5t-35.5 84.5q0 47 36 83t83 36q50 0 84.5 -35.5
t34.5 -83.5q0 -51 -34 -85t-85 -34z" />
    <glyph glyph-name="uni1EE6" unicode="&#x1ee6;" horiz-adv-x="1523" 
d="M762 -25q-174 0 -318.5 74.5t-228.5 208t-84 299.5v1004h242v-961q0 -79 24 -147.5t70.5 -122.5t122 -85.5t172.5 -31.5t172.5 31.5t122 85.5t70.5 122.5t24 147.5v961h242v-1004q0 -166 -84 -299.5t-228.5 -208t-318.5 -74.5zM670 1686q0 33 13.5 53.5t55.5 46.5
q68 37 68 86q0 21 -18.5 36t-47.5 15q-32 0 -60 -15t-42 -38l-86 86q77 102 211 102q92 0 152.5 -48.5t60.5 -125.5q0 -112 -139 -180q-23 -11 -28 -22t-5 -33v-13h-135v50z" />
    <glyph glyph-name="uni1EE7" unicode="&#x1ee7;" horiz-adv-x="1275" 
d="M561 -25q-197 0 -319.5 123.5t-122.5 335.5v676h233v-621q0 -148 73 -230.5t193 -82.5q130 0 211.5 93.5t81.5 271.5v569h234v-1110h-234v172h-8q-44 -88 -132.5 -142.5t-209.5 -54.5zM545 1260q0 33 13.5 53.5t55.5 46.5q68 37 68 86q0 21 -18.5 36t-47.5 15
q-32 0 -60 -15t-42 -38l-86 86q76 102 211 102q92 0 152.5 -48.5t60.5 -125.5q0 -112 -139 -180q-23 -11 -28 -22t-5 -33v-13h-135v50z" />
    <glyph glyph-name="uni1EE8" unicode="&#x1ee8;" horiz-adv-x="1554" 
d="M762 -25q-174 0 -318.5 74.5t-228.5 208t-84 299.5v1004h242v-961q0 -79 24 -147.5t70.5 -122.5t122 -85.5t172.5 -31.5t172.5 31.5t122 85.5t70.5 122.5t24 147.5v961h242v-62q30 24 30 80q0 61 -34 119h192q23 -58 23 -129q0 -78 -58.5 -130.5t-152.5 -64.5v-817
q0 -166 -84 -299.5t-228.5 -208t-318.5 -74.5zM633 1688l237 278h242l-278 -278h-201z" />
    <glyph glyph-name="uni1EE9" unicode="&#x1ee9;" horiz-adv-x="1343" 
d="M561 -25q-197 0 -319.5 123.5t-122.5 335.5v676h233v-621q0 -148 73 -230.5t193 -82.5q130 0 211.5 93.5t81.5 271.5v569h234v-51q51 19 51 90q0 60 -35 119h193q22 -55 22 -129q0 -82 -64.5 -135.5t-166.5 -61.5v-942h-234v172h-8q-44 -88 -132.5 -142.5t-209.5 -54.5z
M508 1262l237 278h242l-278 -278h-201z" />
    <glyph glyph-name="uni1EEA" unicode="&#x1eea;" horiz-adv-x="1554" 
d="M762 -25q-174 0 -318.5 74.5t-228.5 208t-84 299.5v1004h242v-961q0 -79 24 -147.5t70.5 -122.5t122 -85.5t172.5 -31.5t172.5 31.5t122 85.5t70.5 122.5t24 147.5v961h242v-62q30 24 30 80q0 61 -34 119h192q23 -58 23 -129q0 -78 -58.5 -130.5t-152.5 -64.5v-817
q0 -166 -84 -299.5t-228.5 -208t-318.5 -74.5zM698 1688l-278 278h242l237 -278h-201z" />
    <glyph glyph-name="uni1EEB" unicode="&#x1eeb;" horiz-adv-x="1343" 
d="M561 -25q-197 0 -319.5 123.5t-122.5 335.5v676h233v-621q0 -148 73 -230.5t193 -82.5q130 0 211.5 93.5t81.5 271.5v569h234v-51q51 19 51 90q0 60 -35 119h193q22 -55 22 -129q0 -82 -64.5 -135.5t-166.5 -61.5v-942h-234v172h-8q-44 -88 -132.5 -142.5t-209.5 -54.5z
M573 1262l-278 278h242l237 -278h-201z" />
    <glyph glyph-name="uni1EEC" unicode="&#x1eec;" horiz-adv-x="1554" 
d="M762 -25q-174 0 -318.5 74.5t-228.5 208t-84 299.5v1004h242v-961q0 -79 24 -147.5t70.5 -122.5t122 -85.5t172.5 -31.5t172.5 31.5t122 85.5t70.5 122.5t24 147.5v961h242v-62q30 24 30 80q0 61 -34 119h192q23 -58 23 -129q0 -78 -58.5 -130.5t-152.5 -64.5v-817
q0 -166 -84 -299.5t-228.5 -208t-318.5 -74.5zM670 1686q0 33 13.5 53.5t55.5 46.5q68 37 68 86q0 21 -18.5 36t-47.5 15q-32 0 -60 -15t-42 -38l-86 86q77 102 211 102q92 0 152.5 -48.5t60.5 -125.5q0 -112 -139 -180q-23 -11 -28 -22t-5 -33v-13h-135v50z" />
    <glyph glyph-name="uni1EED" unicode="&#x1eed;" horiz-adv-x="1343" 
d="M561 -25q-197 0 -319.5 123.5t-122.5 335.5v676h233v-621q0 -148 73 -230.5t193 -82.5q130 0 211.5 93.5t81.5 271.5v569h234v-51q51 19 51 90q0 60 -35 119h193q22 -55 22 -129q0 -82 -64.5 -135.5t-166.5 -61.5v-942h-234v172h-8q-44 -88 -132.5 -142.5t-209.5 -54.5z
M545 1260q0 33 13.5 53.5t55.5 46.5q68 37 68 86q0 21 -18.5 36t-47.5 15q-32 0 -60 -15t-42 -38l-86 86q76 102 211 102q92 0 152.5 -48.5t60.5 -125.5q0 -112 -139 -180q-23 -11 -28 -22t-5 -33v-13h-135v50z" />
    <glyph glyph-name="uni1EEE" unicode="&#x1eee;" horiz-adv-x="1554" 
d="M762 -25q-174 0 -318.5 74.5t-228.5 208t-84 299.5v1004h242v-961q0 -79 24 -147.5t70.5 -122.5t122 -85.5t172.5 -31.5t172.5 31.5t122 85.5t70.5 122.5t24 147.5v961h242v-62q30 24 30 80q0 61 -34 119h192q23 -58 23 -129q0 -78 -58.5 -130.5t-152.5 -64.5v-817
q0 -166 -84 -299.5t-228.5 -208t-318.5 -74.5zM446 1669q0 120 58 200.5t139 80.5q76 -3 156 -66q71 -53 110 -53q58 0 58 129h139q0 -137 -51 -214t-144 -77q-69 0 -145 55q-74 53 -113 56q-35 0 -53 -30.5t-18 -80.5h-136z" />
    <glyph glyph-name="uni1EEF" unicode="&#x1eef;" horiz-adv-x="1343" 
d="M561 -25q-197 0 -319.5 123.5t-122.5 335.5v676h233v-621q0 -148 73 -230.5t193 -82.5q130 0 211.5 93.5t81.5 271.5v569h234v-51q51 19 51 90q0 60 -35 119h193q22 -55 22 -129q0 -82 -64.5 -135.5t-166.5 -61.5v-942h-234v172h-8q-44 -88 -132.5 -142.5t-209.5 -54.5z
M322 1243q0 120 57.5 200.5t138.5 80.5q76 -3 156 -66q71 -53 110 -53q58 0 58 129h139q0 -137 -51 -214t-144 -77q-69 0 -145 55q-74 53 -113 56q-35 0 -53 -30.5t-18 -80.5h-135z" />
    <glyph glyph-name="uni1EF0" unicode="&#x1ef0;" horiz-adv-x="1554" 
d="M762 -25q-174 0 -318.5 74.5t-228.5 208t-84 299.5v1004h242v-961q0 -79 24 -147.5t70.5 -122.5t122 -85.5t172.5 -31.5t172.5 31.5t122 85.5t70.5 122.5t24 147.5v961h242v-62q30 24 30 80q0 61 -34 119h192q23 -58 23 -129q0 -78 -58.5 -130.5t-152.5 -64.5v-817
q0 -166 -84 -299.5t-228.5 -208t-318.5 -74.5zM766 -377q-48 0 -83.5 34.5t-35.5 84.5q0 47 36 83t83 36q50 0 84.5 -35.5t34.5 -83.5q0 -51 -34 -85t-85 -34z" />
    <glyph glyph-name="uni1EF1" unicode="&#x1ef1;" horiz-adv-x="1343" 
d="M561 -25q-197 0 -319.5 123.5t-122.5 335.5v676h233v-621q0 -148 73 -230.5t193 -82.5q130 0 211.5 93.5t81.5 271.5v569h234v-51q51 19 51 90q0 60 -35 119h193q22 -55 22 -129q0 -82 -64.5 -135.5t-166.5 -61.5v-942h-234v172h-8q-44 -88 -132.5 -142.5t-209.5 -54.5z
M633 -377q-48 0 -83.5 34.5t-35.5 84.5q0 47 36 83t83 36q50 0 84.5 -35.5t34.5 -83.5q0 -51 -34 -85t-85 -34z" />
    <glyph glyph-name="Ygrave" unicode="&#x1ef2;" horiz-adv-x="1347" 
d="M553 0v647l-524 914h266l375 -668h8l375 668h266l-524 -914v-647h-242zM606 1688l-278 278h241l238 -278h-201z" />
    <glyph glyph-name="ygrave" unicode="&#x1ef3;" horiz-adv-x="1157" 
d="M166 -442v213h153q59 0 85 24.5t59 110.5l33 86v8h-60l-403 1110h241l301 -854h9l307 854h233l-448 -1253q-23 -65 -38 -102.5t-35 -76t-38 -57.5t-44 -35.5t-57.5 -22t-74.5 -5.5h-223zM537 1262l-279 278h242l237 -278h-200z" />
    <glyph glyph-name="uni1EF4" unicode="&#x1ef4;" horiz-adv-x="1347" 
d="M553 0v647l-524 914h266l375 -668h8l375 668h266l-524 -914v-647h-242zM674 -377q-48 0 -83.5 34.5t-35.5 84.5q0 47 36 83t83 36q50 0 84.5 -35.5t34.5 -83.5q0 -51 -34 -85t-85 -34z" />
    <glyph glyph-name="uni1EF5" unicode="&#x1ef5;" horiz-adv-x="1157" 
d="M166 -442v213h153q59 0 85 24.5t59 110.5l33 86v8h-60l-403 1110h241l301 -854h9l307 854h233l-448 -1253q-23 -65 -38 -102.5t-35 -76t-38 -57.5t-44 -35.5t-57.5 -22t-74.5 -5.5h-223zM840 -377q-48 0 -83.5 34.5t-35.5 84.5q0 47 36 83t83 36q50 0 84 -35.5t34 -83.5
q0 -51 -33.5 -85t-84.5 -34z" />
    <glyph glyph-name="uni1EF6" unicode="&#x1ef6;" horiz-adv-x="1347" 
d="M553 0v647l-524 914h266l375 -668h8l375 668h266l-524 -914v-647h-242zM578 1686q0 33 13.5 53.5t55.5 46.5q68 37 68 86q0 21 -18.5 36t-47.5 15q-32 0 -60 -15t-42 -38l-86 86q76 102 211 102q92 0 152.5 -48.5t60.5 -125.5q0 -112 -140 -180q-16 -8 -23 -17t-8 -15.5
t-1 -22.5v-13h-135v50z" />
    <glyph glyph-name="uni1EF7" unicode="&#x1ef7;" horiz-adv-x="1157" 
d="M166 -442v213h153q59 0 85 24.5t59 110.5l33 86v8h-60l-403 1110h241l301 -854h9l307 854h233l-448 -1253q-23 -65 -38 -102.5t-35 -76t-38 -57.5t-44 -35.5t-57.5 -22t-74.5 -5.5h-223zM508 1260q0 33 14 53.5t56 46.5q67 37 67 86q0 21 -18.5 36t-46.5 15
q-32 0 -60.5 -15t-42.5 -38l-86 86q76 102 211 102q92 0 152.5 -48.5t60.5 -125.5q0 -112 -139 -180q-23 -11 -28 -22t-5 -33v-13h-135v50z" />
    <glyph glyph-name="uni1EF8" unicode="&#x1ef8;" horiz-adv-x="1347" 
d="M553 0v647l-524 914h266l375 -668h8l375 668h266l-524 -914v-647h-242zM354 1669q0 120 58 200.5t139 80.5q76 -3 156 -66q71 -53 110 -53q57 0 57 129h140q0 -137 -51 -214t-144 -77q-69 0 -145 55q-74 53 -113 56q-35 0 -53.5 -30.5t-18.5 -80.5h-135z" />
    <glyph glyph-name="uni1EF9" unicode="&#x1ef9;" horiz-adv-x="1157" 
d="M166 -442v213h153q59 0 85 24.5t59 110.5l33 86v8h-60l-403 1110h241l301 -854h9l307 854h233l-448 -1253q-23 -65 -38 -102.5t-35 -76t-38 -57.5t-44 -35.5t-57.5 -22t-74.5 -5.5h-223zM285 1243q0 120 57.5 200.5t138.5 80.5q76 -3 156 -66q71 -53 111 -53q57 0 57 129
h139q0 -138 -50.5 -214.5t-143.5 -76.5q-70 0 -146 55q-75 53 -112 56q-35 0 -53.5 -30.5t-18.5 -80.5h-135z" />
    <glyph glyph-name="endash" unicode="&#x2013;" horiz-adv-x="1187" 
d="M123 483v189h942v-189h-942z" />
    <glyph glyph-name="emdash" unicode="&#x2014;" horiz-adv-x="2068" 
d="M123 483v189h1823v-189h-1823z" />
    <glyph glyph-name="quoteleft" unicode="&#x2018;" horiz-adv-x="481" 
d="M379 1561q26 0 18 -33l-80 -406q-6 -26 -26 -26h-187q-32 0 -18 37l127 399q6 18 13.5 23.5t27.5 5.5h125z" />
    <glyph glyph-name="quoteright" unicode="&#x2019;" horiz-adv-x="481" 
d="M102 1096q-26 0 -18 32l80 406q6 27 26 27h187q32 0 18 -37l-127 -400q-6 -18 -13.5 -23t-27.5 -5h-125z" />
    <glyph glyph-name="quotesinglbase" unicode="&#x201a;" horiz-adv-x="481" 
d="M102 -240q-26 0 -18 33l80 406q6 26 26 26h187q32 0 18 -37l-127 -399q-6 -18 -13.5 -23.5t-27.5 -5.5h-125z" />
    <glyph glyph-name="quotedblleft" unicode="&#x201c;" horiz-adv-x="829" 
d="M379 1561q26 0 18 -33l-80 -406q-6 -26 -26 -26h-187q-32 0 -18 37l127 399q6 18 13.5 23.5t27.5 5.5h125zM727 1561q26 0 18 -33l-79 -406q-6 -26 -27 -26h-186q-33 0 -19 37l127 399q6 18 13.5 23.5t27.5 5.5h125z" />
    <glyph glyph-name="quotedblright" unicode="&#x201d;" horiz-adv-x="829" 
d="M451 1096q-27 0 -19 32l80 406q6 27 27 27h186q32 0 18 -37l-127 -400q-6 -18 -13.5 -23t-27.5 -5h-124zM102 1096q-26 0 -18 32l80 406q6 27 26 27h187q32 0 18 -37l-127 -400q-6 -18 -13.5 -23t-27.5 -5h-125z" />
    <glyph glyph-name="quotedblbase" unicode="&#x201e;" horiz-adv-x="817" 
d="M438 -240q-26 0 -18 33l80 406q6 26 26 26h187q32 0 18 -37l-127 -399q-6 -18 -13.5 -23.5t-27.5 -5.5h-125zM102 -240q-26 0 -18 33l80 406q6 26 26 26h187q32 0 18 -37l-127 -399q-6 -18 -13.5 -23.5t-27.5 -5.5h-125z" />
    <glyph glyph-name="bullet" unicode="&#x2022;" horiz-adv-x="1163" 
d="M582 375q-109 0 -184.5 75.5t-75.5 184.5q0 110 75.5 185t184.5 75q110 0 185 -75t75 -185q0 -109 -75 -184.5t-185 -75.5z" />
    <glyph glyph-name="ellipsis" unicode="&#x2026;" horiz-adv-x="1359" 
d="M238 -8q-65 0 -110.5 45.5t-45.5 109.5q0 66 45.5 111t110.5 45q66 0 110.5 -45t44.5 -111q0 -65 -44.5 -110t-110.5 -45zM680 -8q-65 0 -110.5 45.5t-45.5 109.5q0 66 45.5 111t110.5 45q66 0 111 -45t45 -111q0 -65 -45 -110t-111 -45zM1122 -8q-64 0 -109.5 45
t-45.5 110q0 66 45 111t110 45q66 0 111 -45t45 -111q0 -65 -45 -110t-111 -45z" />
    <glyph glyph-name="perthousand" unicode="&#x2030;" horiz-adv-x="2183" 
d="M180 0l983 1556h185l-983 -1556h-185zM1102 -16q-129 0 -220 91t-91 220t91 220t220 91t220 -91t91 -220t-91 -220t-220 -91zM1102 129q69 0 117.5 49t48.5 117q0 69 -48.5 117.5t-117.5 48.5q-68 0 -117 -48.5t-49 -117.5q0 -67 49 -116.5t117 -49.5zM410 934
q-129 0 -220.5 91t-91.5 220t91.5 220t220.5 91t220 -91t91 -220t-91 -220t-220 -91zM410 1079q69 0 117 49t48 117q0 69 -48 117.5t-117 48.5q-68 0 -117 -48.5t-49 -117.5q0 -67 49 -116.5t117 -49.5zM1774 -16q-129 0 -220.5 91t-91.5 220t91.5 220t220.5 91t220 -91
t91 -220t-91 -220t-220 -91zM1774 129q69 0 117 49t48 117q0 69 -48 117.5t-117 48.5q-68 0 -117 -48.5t-49 -117.5q0 -67 49 -116.5t117 -49.5z" />
    <glyph glyph-name="guilsinglleft" unicode="&#x2039;" horiz-adv-x="841" 
d="M514 74l-440 475v8l440 475l123 -112l-338 -363v-8l338 -363z" />
    <glyph glyph-name="guilsinglright" unicode="&#x203a;" horiz-adv-x="841" 
d="M328 74l-123 112l338 363v8l-338 363l123 112l440 -475v-8z" />
    <glyph glyph-name="fraction" unicode="&#x2044;" horiz-adv-x="210" 
d="M-397 0l878 1548h127l-878 -1548h-127z" />
    <glyph glyph-name="uni2070" unicode="&#x2070;" horiz-adv-x="716" 
d="M358 807q-76 0 -135.5 34t-94.5 92.5t-53 131t-18 154.5t18 154t53 130.5t94.5 92.5t135.5 34q62 0 113 -22.5t85.5 -61t58 -91.5t34 -112t10.5 -124q0 -83 -17.5 -155t-52.5 -130.5t-94.5 -92.5t-136.5 -34zM358 954q39 0 67.5 22.5t43.5 62t22 84t7 96.5q0 51 -7 95
t-22 83t-43.5 61.5t-67.5 22.5t-67.5 -22.5t-43.5 -61.5t-21.5 -83t-6.5 -95q0 -52 6.5 -96.5t21.5 -84t43.5 -62t67.5 -22.5z" />
    <glyph glyph-name="uni2074" unicode="&#x2074;" horiz-adv-x="653" 
d="M367 823v154h-342v115l344 530h159v-500h93v-145h-93v-154h-161zM223 1122h144v217h-5l-139 -213v-4z" />
    <glyph glyph-name="uni2075" unicode="&#x2075;" horiz-adv-x="673" 
d="M336 811q-64 0 -115.5 19.5t-82.5 49t-51 65.5t-26 69t-2 59h150q0 -42 31.5 -72t91.5 -30q54 0 88.5 34.5t34.5 94.5t-32.5 93.5t-84.5 33.5q-45 0 -75 -19t-56 -59l-137 70l47 403h458v-156h-325l-17 -135h5q51 43 124 43q111 0 182.5 -74.5t71.5 -199.5
q0 -128 -79.5 -208.5t-200.5 -80.5z" />
    <glyph glyph-name="uni2076" unicode="&#x2076;" horiz-adv-x="641" 
d="M317 811q-121 0 -200.5 76.5t-79.5 197.5q0 82 39 164q23 57 65 121l152 252h184l-160 -264h5q15 6 45 6q91 0 160 -78.5t69 -191.5q0 -121 -80 -202t-199 -81zM317 965q55 0 87 34t32 91t-32 90.5t-87 33.5q-54 0 -86 -33.5t-32 -90.5t32 -91t86 -34z" />
    <glyph glyph-name="uni2077" unicode="&#x2077;" horiz-adv-x="571" 
d="M94 823l258 637v4h-336l2 158h521v-125l-269 -674h-176z" />
    <glyph glyph-name="uni2078" unicode="&#x2078;" horiz-adv-x="655" 
d="M328 811q-116 0 -195.5 69.5t-79.5 180.5q0 79 40.5 132t82.5 60v4q-32 3 -65 49t-33 109q0 100 74.5 160.5t175.5 60.5t175.5 -60.5t74.5 -160.5q0 -64 -32.5 -110t-64.5 -48v-4q43 -9 82 -61t39 -131q0 -111 -79.5 -180.5t-194.5 -69.5zM328 963q50 0 81 29t31 79
q0 51 -31 81t-81 30t-81.5 -30.5t-31.5 -80.5t31.5 -79t81.5 -29zM328 1323q40 0 63 22t23 58t-23 58t-63 22t-63 -22t-23 -58t23 -58t63 -22z" />
    <glyph glyph-name="uni2079" unicode="&#x2079;" horiz-adv-x="638" 
d="M166 825l158 269h-5q-12 -9 -47 -9q-99 0 -167 79.5t-68 193.5q0 118 81.5 198t200.5 80q125 0 204 -75t79 -193q0 -62 -22 -121.5t-72 -146.5l-158 -275h-184zM317 1239q55 0 88 33.5t33 91.5q0 57 -32.5 89t-88.5 32q-55 0 -87.5 -33.5t-32.5 -89.5q0 -55 31.5 -89
t88.5 -34z" />
    <glyph glyph-name="uni207D" unicode="&#x207d;" horiz-adv-x="382" 
d="M268 694q-219 253 -219 537q0 285 219 538l115 -88q-81 -89 -129.5 -207.5t-48.5 -242.5q0 -120 48 -238t128 -213z" />
    <glyph glyph-name="uni207E" unicode="&#x207e;" horiz-adv-x="382" 
d="M2 780q80 95 128 213t48 238q0 124 -48.5 242.5t-129.5 207.5l115 88q219 -253 219 -538q0 -284 -219 -537z" />
    <glyph glyph-name="uni2080" unicode="&#x2080;" horiz-adv-x="716" 
d="M358 -287q-76 0 -135.5 34t-94.5 92.5t-53 131t-18 154.5t18 154t53 130.5t94.5 93t135.5 34.5q77 0 136.5 -34.5t94.5 -93t52.5 -130.5t17.5 -154q0 -83 -17.5 -155t-52.5 -130.5t-94.5 -92.5t-136.5 -34zM358 -139q39 0 67.5 22.5t43.5 61.5t22 83.5t7 96.5q0 51 -7 95
t-22 83t-43.5 61.5t-67.5 22.5t-67.5 -22.5t-43.5 -61.5t-21.5 -83t-6.5 -95q0 -52 6.5 -96t21.5 -83.5t43.5 -62t67.5 -22.5z" />
    <glyph glyph-name="uni2081" unicode="&#x2081;" horiz-adv-x="450" 
d="M186 -274v600h-4l-96 -66l-74 119l213 145h123v-798h-162z" />
    <glyph glyph-name="uni2082" unicode="&#x2082;" horiz-adv-x="651" 
d="M61 -272v137l226 221q69 68 100 112t31 87q0 100 -103 100q-53 0 -80 -33.5t-20 -91.5h-160q-7 123 67 200t197 77q112 0 187.5 -68t75.5 -178q0 -77 -37 -140.5t-125 -144.5l-119 -119v-4h289v-155h-529z" />
    <glyph glyph-name="uni2083" unicode="&#x2083;" horiz-adv-x="618" 
d="M281 -287q-94 0 -166.5 39.5t-94.5 83.5l109 111q19 -22 32 -34.5t45 -27t70 -14.5q53 0 85 26.5t32 73.5q0 46 -29 73.5t-85 27.5h-76v143h78q45 0 68.5 25t23.5 67q0 38 -23.5 58t-62.5 20q-13 0 -25.5 -2.5t-22.5 -5.5t-21.5 -9.5t-18.5 -10.5t-17.5 -13t-14 -12.5
t-13.5 -12.5t-11 -10l-98 99q22 42 95.5 85.5t150.5 43.5q105 0 174.5 -61.5t69.5 -160.5q0 -69 -33 -116t-70 -52v-4q45 -5 85 -52t40 -122q0 -116 -78 -186t-198 -70z" />
    <glyph glyph-name="uni2084" unicode="&#x2084;" horiz-adv-x="653" 
d="M367 -274v153h-342v115l344 530h159v-499h93v-146h-93v-153h-161zM223 25h144v217h-5l-139 -213v-4z" />
    <glyph glyph-name="uni2085" unicode="&#x2085;" horiz-adv-x="673" 
d="M336 -287q-64 0 -115.5 19.5t-82.5 49t-51 65.5t-26 69t-2 59h150q0 -42 31.5 -72t91.5 -30q54 0 88.5 34.5t34.5 94.5t-32.5 93.5t-84.5 33.5q-45 0 -75 -19t-56 -59l-137 70l47 403h458v-155h-325l-17 -136h5q51 43 124 43q111 0 182.5 -74.5t71.5 -199.5
q0 -128 -79.5 -208.5t-200.5 -80.5z" />
    <glyph glyph-name="uni2086" unicode="&#x2086;" horiz-adv-x="641" 
d="M317 -287q-121 0 -200.5 77t-79.5 198q0 82 39 164q22 55 65 120l152 252h184l-160 -264h5q15 6 45 6q91 0 160 -78.5t69 -191.5q0 -121 -80 -202t-199 -81zM317 -133q55 0 87 34t32 91t-32 91t-87 34q-54 0 -86 -34t-32 -91t32 -91t86 -34z" />
    <glyph glyph-name="uni2087" unicode="&#x2087;" horiz-adv-x="571" 
d="M94 -274l258 636v5h-336l2 157h521v-125l-269 -673h-176z" />
    <glyph glyph-name="uni2088" unicode="&#x2088;" horiz-adv-x="655" 
d="M328 -287q-116 0 -195.5 69.5t-79.5 180.5q0 79 40.5 132.5t82.5 60.5v4q-32 3 -65 48.5t-33 108.5q0 100 74.5 161t175.5 61t175.5 -61t74.5 -161q0 -64 -32.5 -109.5t-64.5 -47.5v-4q43 -9 82 -61.5t39 -131.5q0 -111 -79.5 -180.5t-194.5 -69.5zM328 -135q50 0 81 29
t31 79q0 51 -31 81t-81 30t-81.5 -30.5t-31.5 -80.5t31.5 -79t81.5 -29zM328 225q40 0 63 22t23 58t-23 58t-63 22t-63 -22t-23 -58t23 -58t63 -22z" />
    <glyph glyph-name="uni2089" unicode="&#x2089;" horiz-adv-x="638" 
d="M166 -272l158 268h-5q-11 -8 -47 -8q-99 0 -167 79t-68 193q0 118 81.5 198.5t200.5 80.5q125 0 204 -75.5t79 -193.5q0 -62 -22 -121.5t-72 -146.5l-158 -274h-184zM317 141q55 0 88 33.5t33 91.5q0 57 -32.5 89t-88.5 32q-55 0 -87.5 -33.5t-32.5 -89.5q0 -55 31.5 -89
t88.5 -34z" />
    <glyph glyph-name="uni208D" unicode="&#x208d;" horiz-adv-x="382" 
d="M268 -391q-219 253 -219 536q0 286 219 539l115 -88q-81 -89 -129.5 -208t-48.5 -243q0 -120 48 -237.5t128 -212.5z" />
    <glyph glyph-name="uni208E" unicode="&#x208e;" horiz-adv-x="382" 
d="M2 -305q80 95 128 212.5t48 237.5q0 124 -48.5 243t-129.5 208l115 88q219 -253 219 -539q0 -283 -219 -536z" />
    <glyph glyph-name="Euro" unicode="&#x20ac;" horiz-adv-x="1497" 
d="M930 -23q-568 0 -697 529h-102v162h78l-4 84l4 82h-78v161h105q19 97 78 189.5t147 167t212 120.5t261 46q248 0 479 -193l-149 -154q-153 138 -346 138q-160 0 -276 -80.5t-169 -233.5h537v-161h-570q-6 -24 -6 -86q0 -44 4 -80h572v-162h-543q32 -143 158.5 -231.5
t302.5 -88.5q207 0 354 129l141 -153q-212 -185 -493 -185z" />
    <glyph glyph-name="uni20BD" unicode="&#x20bd;" horiz-adv-x="1277" 
d="M156 0v262h-131v213h131v139h-131v213h131v734h569q111 0 202 -26t160 -78.5t107.5 -138.5t38.5 -198q0 -121 -43 -218t-118.5 -159.5t-177 -95.5t-220.5 -33h-277v-139h277v-213h-277v-262h-241zM674 827q160 0 239.5 68.5t79.5 196.5q0 256 -319 256h-277v-521h277z
" />
    <glyph glyph-name="trademark" unicode="&#x2122;" horiz-adv-x="1662" 
d="M688 819v778h189l210 -577h5l211 577h188v-778h-135v496l4 82h-4l-215 -574h-103l-215 574h-4l4 -82v-496h-135zM254 819v660h-225v118h585v-118h-225v-660h-135z" />
    <glyph glyph-name="uni2150" unicode="&#x2150;" horiz-adv-x="1232" 
d="M186 721v600h-4l-96 -66l-74 119l213 146h123v-799h-162zM53 0l879 1548h127l-879 -1548h-127zM756 0l258 637v4h-336l2 158h520v-125l-268 -674h-176z" />
    <glyph glyph-name="uni2151" unicode="&#x2151;" horiz-adv-x="1300" 
d="M186 721v600h-4l-96 -66l-74 119l213 146h123v-799h-162zM53 0l879 1548h127l-879 -1548h-127zM827 2l158 268h-4q-11 -8 -47 -8q-99 0 -167.5 79.5t-68.5 193.5q0 118 82 198t201 80q125 0 204 -75t79 -193q0 -61 -22.5 -121.5t-72.5 -147.5l-157 -274h-185zM979 416
q55 0 88 33.5t33 91.5q0 57 -32.5 89t-88.5 32q-55 0 -88 -33.5t-33 -89.5q0 -55 32 -89t89 -34z" />
    <glyph glyph-name="uni2152" unicode="&#x2152;" horiz-adv-x="1816" 
d="M186 721v600h-4l-96 -66l-74 119l213 146h123v-799h-162zM53 0l879 1548h127l-879 -1548h-127zM848 0v600h-4l-96 -65l-74 118l213 146h123v-799h-162zM1458 -12q-76 0 -135.5 34t-94.5 92t-53 130.5t-18 154.5t18 154t53 130.5t94.5 93t135.5 34.5q77 0 136.5 -34.5
t94.5 -93t52.5 -130.5t17.5 -154q0 -83 -17.5 -155t-52.5 -130t-94.5 -92t-136.5 -34zM1458 135q39 0 67.5 22.5t43.5 62t21.5 83.5t6.5 96q0 51 -6.5 95t-21.5 83.5t-43.5 62t-67.5 22.5t-67.5 -22.5t-43.5 -62t-21.5 -83.5t-6.5 -95q0 -52 6.5 -96t21.5 -83.5t43.5 -62
t67.5 -22.5z" />
    <glyph glyph-name="uni2153" unicode="&#x2153;" horiz-adv-x="1280" 
d="M186 721v600h-4l-96 -66l-74 119l213 146h123v-799h-162zM53 0l879 1548h127l-879 -1548h-127zM942 -12q-94 0 -166 39.5t-94 83.5l109 110q19 -22 32 -34.5t45 -27t70 -14.5q53 0 85 27t32 74q0 46 -29 73t-86 27h-76v143h78q45 0 68.5 25.5t23.5 67.5q0 38 -23.5 57.5
t-62.5 19.5q-13 0 -25.5 -2.5t-22.5 -5.5t-21.5 -9.5t-18 -10.5t-17 -12.5t-14 -12t-13.5 -12.5t-11 -10l-98 98q22 42 95 85.5t150 43.5q105 0 174.5 -61t69.5 -160q0 -69 -32.5 -116t-69.5 -52v-4q45 -5 85 -52t40 -122q0 -116 -78.5 -186t-198.5 -70z" />
    <glyph glyph-name="uni2154" unicode="&#x2154;" horiz-adv-x="1480" 
d="M61 723v137l226 221q69 68 100 112t31 87q0 100 -103 100q-53 0 -80 -33.5t-20 -91.5h-160q-7 123 67 200t197 77q112 0 187.5 -68t75.5 -178q0 -77 -37 -140.5t-125 -144.5l-119 -118v-4h289v-156h-529zM254 0l879 1548h127l-879 -1548h-127zM1143 -12q-94 0 -166 39.5
t-94 83.5l108 110q18 -21 32 -34t46 -27.5t70 -14.5q53 0 84.5 27t31.5 74q0 46 -28.5 73t-85.5 27h-76v143h78q45 0 68.5 25.5t23.5 67.5q0 38 -23.5 57.5t-62.5 19.5q-13 0 -25.5 -2.5t-22.5 -5.5t-21.5 -9.5t-18 -10.5t-17 -12.5t-14 -12t-13.5 -12.5t-11 -10l-99 98
q22 42 95.5 85.5t150.5 43.5q105 0 174.5 -61t69.5 -160q0 -69 -33 -116t-70 -52v-4q45 -5 85 -52t40 -122q0 -116 -78 -186t-198 -70z" />
    <glyph glyph-name="uni2155" unicode="&#x2155;" horiz-adv-x="1335" 
d="M186 721v600h-4l-96 -66l-74 119l213 146h123v-799h-162zM53 0l879 1548h127l-879 -1548h-127zM997 -12q-64 0 -115.5 19.5t-82.5 49t-51 65.5t-25.5 69t-1.5 59h149q0 -42 31.5 -72.5t91.5 -30.5q54 0 88.5 34.5t34.5 94.5t-32.5 93.5t-84.5 33.5q-46 0 -75.5 -18.5
t-55.5 -58.5l-137 69l47 404h459v-156h-326l-16 -135h4q51 43 125 43q111 0 182.5 -75t71.5 -200q0 -128 -80 -208t-201 -80z" />
    <glyph glyph-name="uni2156" unicode="&#x2156;" horiz-adv-x="1536" 
d="M61 723v137l226 221q69 68 100 112t31 87q0 100 -103 100q-53 0 -80 -33.5t-20 -91.5h-160q-7 123 67 200t197 77q112 0 187.5 -68t75.5 -178q0 -77 -37 -140.5t-125 -144.5l-119 -118v-4h289v-156h-529zM254 0l879 1548h127l-879 -1548h-127zM1198 -12
q-64 0 -115.5 19.5t-82.5 49t-51 65.5t-25.5 69t-1.5 59h149q0 -42 31.5 -72.5t91.5 -30.5q54 0 88.5 34.5t34.5 94.5t-32.5 93.5t-84.5 33.5q-46 0 -75.5 -18.5t-55.5 -58.5l-137 69l47 404h459v-156h-326l-16 -135h4q51 43 125 43q111 0 182.5 -75t71.5 -200
q0 -128 -80 -208t-201 -80z" />
    <glyph glyph-name="uni2157" unicode="&#x2157;" horiz-adv-x="1503" 
d="M281 709q-94 0 -166.5 39.5t-94.5 82.5l109 111q19 -22 32 -34.5t45 -27t70 -14.5q53 0 85 27t32 74q0 46 -28.5 73t-85.5 27h-76v143h78q45 0 68.5 25.5t23.5 67.5q0 38 -23.5 57.5t-62.5 19.5q-11 0 -22 -1.5t-21.5 -5t-19 -7t-18 -10t-15 -10t-15 -11t-12.5 -10.5
t-11.5 -11t-9.5 -9l-98 98q22 42 95.5 85.5t150.5 43.5q105 0 174.5 -61t69.5 -160q0 -69 -33 -116t-70 -52v-4q45 -5 85 -52t40 -122q0 -116 -78 -186t-198 -70zM221 0l879 1548h127l-879 -1548h-127zM1165 -12q-64 0 -115.5 19.5t-82.5 49t-51 65.5t-25.5 69t-1.5 59h149
q0 -42 31.5 -72.5t91.5 -30.5q54 0 88.5 34.5t34.5 94.5t-32.5 93.5t-84.5 33.5q-46 0 -75.5 -18.5t-55.5 -58.5l-137 69l47 404h459v-156h-326l-16 -135h4q51 43 125 43q111 0 182.5 -75t71.5 -200q0 -128 -80 -208t-201 -80z" />
    <glyph glyph-name="uni2158" unicode="&#x2158;" horiz-adv-x="1538" 
d="M367 721v153h-342v115l344 531h159v-500h93v-146h-93v-153h-161zM223 1020h144v217h-5l-139 -213v-4zM256 0l879 1548h127l-879 -1548h-127zM1200 -12q-64 0 -115.5 19.5t-82.5 49t-51 65.5t-25.5 69t-1.5 59h149q0 -42 31.5 -72.5t91.5 -30.5q54 0 88.5 34.5t34.5 94.5
t-32.5 93.5t-84.5 33.5q-46 0 -75.5 -18.5t-55.5 -58.5l-137 69l47 404h459v-156h-326l-16 -135h4q51 43 125 43q111 0 182.5 -75t71.5 -200q0 -128 -80 -208t-201 -80z" />
    <glyph glyph-name="uni2159" unicode="&#x2159;" horiz-adv-x="1302" 
d="M186 721v600h-4l-96 -66l-74 119l213 146h123v-799h-162zM53 0l879 1548h127l-879 -1548h-127zM979 -12q-121 0 -201 77t-80 197q0 82 39 164q21 53 66 121l151 252h185l-160 -264h4q15 6 45 6q91 0 160 -79t69 -192q0 -121 -79.5 -201.5t-198.5 -80.5zM979 141
q55 0 87 34t32 91t-32 91t-87 34q-54 0 -86.5 -34t-32.5 -91t32.5 -91t86.5 -34z" />
    <glyph glyph-name="uni215A" unicode="&#x215a;" horiz-adv-x="1525" 
d="M336 709q-64 0 -115.5 19.5t-82.5 49t-51 65.5t-26 69t-2 59h150q0 -42 31.5 -72.5t91.5 -30.5q54 0 88.5 34.5t34.5 94.5t-32.5 93.5t-84.5 33.5q-46 0 -75.5 -18.5t-55.5 -58.5l-137 69l47 404h458v-156h-325l-17 -135h5q51 43 124 43q111 0 182.5 -75t71.5 -200
q0 -128 -79.5 -208t-200.5 -80zM276 0l879 1548h127l-879 -1548h-127zM1202 -12q-121 0 -200.5 76.5t-79.5 197.5q0 82 39 164q23 57 65 121l152 252h184l-160 -264h4q15 6 45 6q91 0 160.5 -79t69.5 -192q0 -121 -80 -201.5t-199 -80.5zM1202 141q55 0 87 34t32 91t-32 91
t-87 34q-54 0 -86.5 -34t-32.5 -91t32.5 -91t86.5 -34z" />
    <glyph glyph-name="oneeighth" unicode="&#x215b;" horiz-adv-x="1316" 
d="M186 721v600h-4l-96 -66l-74 119l213 146h123v-799h-162zM53 0l879 1548h127l-879 -1548h-127zM989 -12q-115 0 -194.5 69.5t-79.5 180.5q0 79 40.5 132t82.5 60v4q-32 3 -65.5 49t-33.5 109q0 100 74.5 160.5t175.5 60.5t175.5 -60.5t74.5 -160.5q0 -64 -32.5 -110
t-63.5 -48v-4q43 -9 82 -61t39 -131q0 -111 -79.5 -180.5t-195.5 -69.5zM989 139q50 0 81.5 29.5t31.5 79.5t-31.5 80t-81.5 30t-81 -30t-31 -80t31 -79.5t81 -29.5zM989 500q40 0 63 22t23 58t-22.5 57.5t-63.5 21.5t-63.5 -21.5t-22.5 -57.5t23 -58t63 -22z" />
    <glyph glyph-name="threeeighths" unicode="&#x215c;" horiz-adv-x="1484" 
d="M281 709q-94 0 -166.5 39.5t-94.5 82.5l109 111q19 -22 32 -34.5t45 -27t70 -14.5q53 0 85 27t32 74q0 46 -28.5 73t-85.5 27h-76v143h78q45 0 68.5 25.5t23.5 67.5q0 38 -23.5 57.5t-62.5 19.5q-11 0 -22 -1.5t-21.5 -5t-19 -7t-18 -10t-15 -10t-15 -11t-12.5 -10.5
t-11.5 -11t-9.5 -9l-98 98q22 42 95.5 85.5t150.5 43.5q105 0 174.5 -61t69.5 -160q0 -69 -33 -116t-70 -52v-4q45 -5 85 -52t40 -122q0 -116 -78 -186t-198 -70zM221 0l879 1548h127l-879 -1548h-127zM1157 -12q-115 0 -194.5 69.5t-79.5 180.5q0 79 40.5 132t82.5 60v4
q-32 3 -65.5 49t-33.5 109q0 100 74.5 160.5t175.5 60.5t175.5 -60.5t74.5 -160.5q0 -64 -32.5 -110t-63.5 -48v-4q43 -9 82 -61t39 -131q0 -111 -79.5 -180.5t-195.5 -69.5zM1157 139q50 0 81.5 29.5t31.5 79.5t-31.5 80t-81.5 30t-81.5 -30t-31.5 -80t31.5 -79.5
t81.5 -29.5zM1157 500q40 0 63 22t23 58t-22.5 57.5t-63.5 21.5t-63.5 -21.5t-22.5 -57.5t23 -58t63 -22z" />
    <glyph glyph-name="fiveeighths" unicode="&#x215d;" horiz-adv-x="1540" 
d="M336 709q-64 0 -115.5 19.5t-82.5 49t-51 65.5t-26 69t-2 59h150q0 -42 31.5 -72.5t91.5 -30.5q54 0 88.5 34.5t34.5 94.5t-32.5 93.5t-84.5 33.5q-46 0 -75.5 -18.5t-55.5 -58.5l-137 69l47 404h458v-156h-325l-17 -135h5q51 43 124 43q111 0 182.5 -75t71.5 -200
q0 -128 -79.5 -208t-200.5 -80zM276 0l879 1548h127l-879 -1548h-127zM1212 -12q-115 0 -194.5 69.5t-79.5 180.5q0 79 40.5 132t82.5 60v4q-32 3 -65 49t-33 109q0 100 74 160.5t175 60.5t175.5 -60.5t74.5 -160.5q0 -64 -32.5 -110t-63.5 -48v-4q43 -9 82 -61t39 -131
q0 -111 -79.5 -180.5t-195.5 -69.5zM1212 139q50 0 81.5 29.5t31.5 79.5t-31.5 80t-81.5 30t-81 -30t-31 -80t31 -79.5t81 -29.5zM1212 500q40 0 63 22t23 58t-22.5 57.5t-63.5 21.5t-63.5 -21.5t-22.5 -57.5t23 -58t63 -22z" />
    <glyph glyph-name="seveneighths" unicode="&#x215e;" horiz-adv-x="1437" 
d="M94 721l258 637v4h-336l2 158h521v-125l-269 -674h-176zM174 0l879 1548h127l-879 -1548h-127zM1110 -12q-115 0 -194.5 69.5t-79.5 180.5q0 79 40 132t82 60v4q-32 3 -65 49t-33 109q0 100 74.5 160.5t175.5 60.5t175.5 -60.5t74.5 -160.5q0 -64 -32.5 -110t-63.5 -48
v-4q43 -9 81.5 -61t38.5 -131q0 -111 -79.5 -180.5t-194.5 -69.5zM1110 139q50 0 81.5 29.5t31.5 79.5t-31.5 80t-81.5 30t-81.5 -30t-31.5 -80t31.5 -79.5t81.5 -29.5zM1110 500q40 0 63 22t23 58t-22.5 57.5t-63.5 21.5t-63.5 -21.5t-22.5 -57.5t23 -58t63 -22z" />
    <glyph glyph-name="uni215F" unicode="&#x215f;" horiz-adv-x="661" 
d="M186 721v600h-4l-96 -66l-74 119l213 146h123v-799h-162zM53 0l879 1548h127l-879 -1548h-127z" />
    <glyph glyph-name="uni2189" unicode="&#x2189;" horiz-adv-x="1546" 
d="M358 709q-76 0 -135.5 34t-94.5 92t-53 130.5t-18 154.5t18 154t53 130.5t94.5 93t135.5 34.5q77 0 136.5 -34.5t94.5 -93t52.5 -130.5t17.5 -154q0 -83 -17.5 -155t-52.5 -130t-94.5 -92t-136.5 -34zM358 856q39 0 67.5 22.5t43.5 61.5t22 83.5t7 96.5q0 51 -7 95
t-22 83t-43.5 61.5t-67.5 22.5t-67.5 -22.5t-43.5 -61.5t-21.5 -83t-6.5 -95q0 -52 6.5 -96t21.5 -83.5t43.5 -62t67.5 -22.5zM319 0l879 1548h127l-879 -1548h-127zM1208 -12q-94 0 -166 39.5t-94 83.5l109 110q19 -22 32 -34.5t45 -27t70 -14.5q53 0 85 27t32 74
q0 46 -29 73t-86 27h-76v143h78q45 0 68.5 25.5t23.5 67.5q0 38 -23.5 57.5t-62.5 19.5q-13 0 -25.5 -2.5t-22.5 -5.5t-21.5 -9.5t-18 -10.5t-17 -12.5t-14 -12t-13.5 -12.5t-11 -10l-98 98q22 42 95.5 85.5t150.5 43.5q105 0 174 -61t69 -160q0 -69 -32.5 -116t-69.5 -52
v-4q45 -5 85 -52t40 -122q0 -116 -78.5 -186t-198.5 -70z" />
    <glyph glyph-name="arrowleft" unicode="&#x2190;" horiz-adv-x="1630" 
d="M102 578l588 587l131 -131l-358 -358h1020v-197h-1020l358 -358l-131 -131z" />
    <glyph glyph-name="arrowup" unicode="&#x2191;" horiz-adv-x="1478" 
d="M1327 793l-131 -131l-358 358v-1020h-197v1020l-358 -358l-131 131l587 587z" />
    <glyph glyph-name="arrowright" unicode="&#x2192;" horiz-adv-x="1630" 
d="M940 -10l-131 131l358 358h-1020v197h1020l-358 358l131 131l588 -587z" />
    <glyph glyph-name="arrowdown" unicode="&#x2193;" horiz-adv-x="1478" 
d="M152 575l131 132l358 -359v1020h197v-1020l358 359l131 -132l-588 -587z" />
    <glyph glyph-name="arrowboth" unicode="&#x2194;" horiz-adv-x="2416" 
d="M1726 -10l-131 131l359 358h-1491l358 -358l-131 -131l-588 588l588 587l131 -131l-358 -358h1491l-359 358l131 131l588 -587z" />
    <glyph glyph-name="arrowupdn" unicode="&#x2195;" horiz-adv-x="1478" 
d="M152 88l131 131l358 -358v1491l-358 -359l-131 131l587 588l588 -588l-131 -131l-358 359v-1491l358 358l131 -131l-588 -588z" />
    <glyph glyph-name="uni2196" unicode="&#x2196;" horiz-adv-x="1558" 
d="M291 1100h831v-187h-508l721 -720l-137 -140l-723 723v-508h-184v832z" />
    <glyph glyph-name="uni2197" unicode="&#x2197;" horiz-adv-x="1558" 
d="M1268 268h-185v508l-723 -723l-137 140l721 720h-508v187h832v-832z" />
    <glyph glyph-name="uni2198" unicode="&#x2198;" horiz-adv-x="1558" 
d="M436 80v184h508l-723 723l139 137l721 -721v508h187v-831h-832z" />
    <glyph glyph-name="uni2199" unicode="&#x2199;" horiz-adv-x="1558" 
d="M291 80v831h186v-508l721 721l139 -137l-723 -723h508v-184h-831z" />
    <glyph glyph-name="partialdiff" unicode="&#x2202;" horiz-adv-x="1255" 
d="M621 -25q-112 0 -211 40.5t-169.5 111.5t-111.5 170.5t-41 212.5q0 223 146.5 369.5t377.5 146.5q168 0 312 -70h8q-37 416 -322 416q-97 0 -169 -34.5t-148 -100.5l-156 156q84 79 210 134.5t253 55.5q143 1 250 -53t173 -157.5t98 -245t32 -322.5t-27.5 -323.5
t-75.5 -236.5t-116.5 -155.5t-145.5 -88t-167 -26.5zM618 205q143 0 233.5 138.5t90.5 340.5v41q-51 39 -137.5 63.5t-186.5 24.5q-129 0 -210.5 -85.5t-81.5 -217.5q0 -133 81 -219t211 -86z" />
    <glyph glyph-name="product" unicode="&#x220f;" horiz-adv-x="1499" 
d="M1053 -451v1786h-607v-1786h-221v2012h1049v-2012h-221z" />
    <glyph glyph-name="summation" unicode="&#x2211;" horiz-adv-x="1499" 
d="M666 559l-441 797v205h1049v-213h-778v-9l432 -780v-8l-432 -780v-9h778v-213h-1049v205l441 797v8z" />
    <glyph glyph-name="minus" unicode="&#x2212;" horiz-adv-x="1171" 
d="M135 436v197h901v-197h-901z" />
    <glyph glyph-name="radical" unicode="&#x221a;" horiz-adv-x="1286" 
d="M442 0l-172 520h-221v225h369l143 -430h23l399 1246h254l-520 -1561h-275z" />
    <glyph glyph-name="infinity" unicode="&#x221e;" horiz-adv-x="2023" 
d="M1008 449q-36 -97 -144 -171.5t-258 -74.5q-139 0 -247.5 70t-166 187.5t-57.5 260.5q0 220 131 370t340 150q149 0 257 -78t145 -176h8q37 98 144.5 176t256.5 78q209 0 340 -150t131 -370q0 -143 -57.5 -260.5t-166 -187.5t-247.5 -70q-150 0 -257.5 74.5t-143.5 171.5
h-8zM356 721q0 -118 77 -197.5t196 -79.5q118 0 195 79.5t77 197.5t-77 198t-195 80q-119 0 -196 -80t-77 -198zM1667 721q0 118 -76.5 198t-195.5 80q-118 0 -195.5 -80t-77.5 -198t77.5 -197.5t195.5 -79.5q119 0 195.5 79.5t76.5 197.5z" />
    <glyph glyph-name="integral" unicode="&#x222b;" horiz-adv-x="692" 
d="M4 -328v213h90q60 0 87.5 28.5t27.5 100.5v1510q0 229 229 229h209v-213h-90q-60 0 -87.5 -28.5t-27.5 -100.5v-1509q0 -230 -229 -230h-209z" />
    <glyph glyph-name="approxequal" unicode="&#x2248;" horiz-adv-x="1355" 
d="M135 756q82 108 171 162.5t196 54.5q104 0 207 -64q96 -61 161 -61q102 0 183 98l147 -131q-137 -180 -330 -180q-128 0 -233 63q-99 52 -158 52q-113 0 -200 -121zM176 332q58 75 101.5 116.5t100 66t128.5 24.5q98 0 223 -64q82 -43 150 -43q94 0 194 90l148 -131
q-149 -172 -332 -172q-103 0 -211 53q-126 62 -182 62q-39 0 -74 -20.5t-52.5 -41t-43.5 -57.5q-5 -7 -7 -10z" />
    <glyph glyph-name="notequal" unicode="&#x2260;" horiz-adv-x="1335" 
d="M238 0l145 307h-248v197h342l139 295h-481v196h576l149 316h193l-150 -316h260v-196h-354l-139 -295h493v-197h-588l-145 -307h-192z" />
    <glyph glyph-name="lessequal" unicode="&#x2264;" horiz-adv-x="1466" 
d="M1212 0h-1040v188h1040v-188zM1139 266l-926 484v127l926 499v-223l-647 -336v-8l647 -324v-219z" />
    <glyph glyph-name="greaterequal" unicode="&#x2265;" horiz-adv-x="1466" 
d="M254 0v188h1040v-188h-1040zM328 266v219l647 324v8l-647 336v223l925 -499v-127z" />
    <glyph glyph-name="A.ss01" 
d="M514 1405q17 49 28.5 73.5t31 46t46.5 29t70 7.5h76q43 0 70 -7.5t46.5 -29t31 -46t28.5 -73.5l481 -1405h-245l-144 422h-612l-141 -422h-248zM494 635h471l-232 682h-8z" />
    <glyph glyph-name="Aacute.ss01" 
d="M514 1405q17 49 28.5 73.5t31 46t46.5 29t70 7.5h76q43 0 70 -7.5t46.5 -29t31 -46t28.5 -73.5l481 -1405h-245l-144 422h-612l-141 -422h-248zM494 635h471l-232 682h-8zM596 1688l238 278h241l-278 -278h-201z" />
    <glyph glyph-name="Abreve.ss01" 
d="M514 1405q17 49 28.5 73.5t31 46t46.5 29t70 7.5h76q43 0 70 -7.5t46.5 -29t31 -46t28.5 -73.5l481 -1405h-245l-144 422h-612l-141 -422h-248zM494 635h471l-232 682h-8zM729 1638q-76 0 -120 10t-85 40q-49 37 -73 122q-19 73 -21 123h139q9 -44 29 -90q16 -36 45 -49
q13 -8 86 -8q70 0 86 8q29 13 45 49q20 46 29 90h139q-3 -55 -20 -123q-24 -84 -74 -122q-41 -30 -85 -40t-120 -10z" />
    <glyph glyph-name="uni1EAE.ss01" 
d="M514 1405q17 49 28.5 73.5t31 46t46.5 29t70 7.5h76q43 0 70 -7.5t46.5 -29t31 -46t28.5 -73.5l481 -1405h-245l-144 422h-612l-141 -422h-248zM494 635h471l-232 682h-8zM729 1638q-83 0 -126 8.5t-83 41.5q-44 36 -69 127q-16 62 -21 102h135q7 -34 25 -74
q16 -36 45 -49q13 -8 94 -8q78 0 94 8q29 13 45 49q18 40 25 74h135q-6 -48 -20 -102q-24 -90 -70 -127q-40 -33 -83 -41.5t-126 -8.5zM637 1927l213 254h217l-254 -254h-176z" />
    <glyph glyph-name="uni1EB6.ss01" 
d="M514 1405q17 49 28.5 73.5t31 46t46.5 29t70 7.5h76q43 0 70 -7.5t46.5 -29t31 -46t28.5 -73.5l481 -1405h-245l-144 422h-612l-141 -422h-248zM494 635h471l-232 682h-8zM729 1638q-76 0 -120 10t-85 40q-49 37 -73 122q-19 73 -21 123h139q9 -44 29 -90q16 -36 45 -49
q13 -8 86 -8q70 0 86 8q29 13 45 49q20 46 29 90h139q-3 -55 -20 -123q-24 -84 -74 -122q-41 -30 -85 -40t-120 -10zM729 -377q-48 0 -83.5 34.5t-35.5 84.5q0 47 36 83t83 36q50 0 84.5 -35.5t34.5 -83.5q0 -51 -34 -85t-85 -34z" />
    <glyph glyph-name="uni1EB0.ss01" 
d="M514 1405q17 49 28.5 73.5t31 46t46.5 29t70 7.5h76q43 0 70 -7.5t46.5 -29t31 -46t28.5 -73.5l481 -1405h-245l-144 422h-612l-141 -422h-248zM494 635h471l-232 682h-8zM729 1638q-79 0 -124.5 9.5t-84.5 40.5q-41 35 -69 127q-19 75 -21 102h135q7 -34 25 -74
q16 -36 45 -49q13 -8 94 -8q78 0 94 8q29 13 45 49q18 40 25 74h135q-2 -32 -20 -102q-28 -90 -70 -127q-39 -31 -84.5 -40.5t-124.5 -9.5zM649 1915l-254 254h217l213 -254h-176z" />
    <glyph glyph-name="uni1EB2.ss01" 
d="M514 1405q17 49 28.5 73.5t31 46t46.5 29t70 7.5h76q43 0 70 -7.5t46.5 -29t31 -46t28.5 -73.5l481 -1405h-245l-144 422h-612l-141 -422h-248zM494 635h471l-232 682h-8zM729 1634q-80 0 -125 9.5t-84 39.5q-41 35 -69 127q-19 75 -21 103h135q7 -34 25 -74
q16 -36 45 -49q13 -8 94 -8q78 0 94 8q29 13 45 49q18 40 25 74h135q-2 -33 -20 -103q-28 -90 -70 -127q-39 -30 -84 -39.5t-125 -9.5zM662 1946q0 33 13.5 53.5t55.5 46.5q68 37 68 86q0 21 -18.5 36t-47.5 15q-55 0 -102 -53l-76 76q64 94 186 100q90 0 148.5 -46.5
t58.5 -115.5q0 -60 -31.5 -101t-99.5 -79q-23 -12 -28 -22.5t-5 -32.5v-4h-122v41z" />
    <glyph glyph-name="uni1EB4.ss01" 
d="M514 1405q17 49 28.5 73.5t31 46t46.5 29t70 7.5h76q43 0 70 -7.5t46.5 -29t31 -46t28.5 -73.5l481 -1405h-245l-144 422h-612l-141 -422h-248zM494 635h471l-232 682h-8zM567 1985q0 122 56.5 196t134.5 74q65 0 149 -66q76 -61 117 -61q34 0 55 43t21 102h127
q0 -127 -58 -207.5t-145 -80.5q-67 0 -137 55q-77 59 -117 59q-36 0 -56 -32.5t-20 -81.5h-127zM729 1634q-80 0 -125 9.5t-84 39.5q-41 35 -69 127q-19 75 -21 103h135q7 -34 25 -74q16 -36 45 -49q13 -8 94 -8q78 0 94 8q29 13 45 49q18 40 25 74h135q-2 -33 -20 -103
q-28 -90 -70 -127q-39 -30 -84 -39.5t-125 -9.5z" />
    <glyph glyph-name="Acircumflex.ss01" 
d="M514 1405q17 49 28.5 73.5t31 46t46.5 29t70 7.5h76q43 0 70 -7.5t46.5 -29t31 -46t28.5 -73.5l481 -1405h-245l-144 422h-612l-141 -422h-248zM494 635h471l-232 682h-8zM381 1649l262 270h172l262 -270h-196l-144 131h-16l-143 -131h-197z" />
    <glyph glyph-name="uni1EA4.ss01" 
d="M514 1405q17 49 28.5 73.5t31 46t46.5 29t70 7.5h76q43 0 70 -7.5t46.5 -29t31 -46t28.5 -73.5l481 -1405h-245l-144 422h-612l-141 -422h-248zM494 635h471l-232 682h-8zM903 1821l221 254h217l-254 -254h-184zM379 1636l256 252h160l256 -252h-191l-137 115h-16
l-138 -115h-190z" />
    <glyph glyph-name="uni1EAC.ss01" 
d="M514 1405q17 49 28.5 73.5t31 46t46.5 29t70 7.5h76q43 0 70 -7.5t46.5 -29t31 -46t28.5 -73.5l481 -1405h-245l-144 422h-612l-141 -422h-248zM494 635h471l-232 682h-8zM381 1649l262 270h172l262 -270h-196l-144 131h-16l-143 -131h-197zM729 -377q-48 0 -83.5 34.5
t-35.5 84.5q0 47 36 83t83 36q50 0 84.5 -35.5t34.5 -83.5q0 -51 -34 -85t-85 -34z" />
    <glyph glyph-name="uni1EA6.ss01" 
d="M514 1405q17 49 28.5 73.5t31 46t46.5 29t70 7.5h76q43 0 70 -7.5t46.5 -29t31 -46t28.5 -73.5l481 -1405h-245l-144 422h-612l-141 -422h-248zM494 635h471l-232 682h-8zM1018 1812l-254 254h217l221 -254h-184zM393 1645l256 251h160l256 -251h-191l-137 114h-16
l-137 -114h-191z" />
    <glyph glyph-name="uni1EA8.ss01" 
d="M514 1405q17 49 28.5 73.5t31 46t46.5 29t70 7.5h76q43 0 70 -7.5t46.5 -29t31 -46t28.5 -73.5l481 -1405h-245l-144 422h-612l-141 -422h-248zM494 635h471l-232 682h-8zM946 1843q0 33 14 54t56 47q67 37 67 86q0 21 -18.5 36t-46.5 15q-56 0 -103 -53l-75 75
q65 95 186 101q90 0 148.5 -46.5t58.5 -115.5q0 -60 -31.5 -101t-99.5 -79q-23 -12 -28 -23t-5 -33v-4h-123v41zM393 1645l256 251h160l256 -251h-191l-137 114h-16l-137 -114h-191z" />
    <glyph glyph-name="uni1EAA.ss01" 
d="M514 1405q17 49 28.5 73.5t31 46t46.5 29t70 7.5h76q43 0 70 -7.5t46.5 -29t31 -46t28.5 -73.5l481 -1405h-245l-144 422h-612l-141 -422h-248zM494 635h471l-232 682h-8zM455 1946q0 117 58.5 194.5t135.5 77.5q66 0 150 -66q76 -61 116 -61q34 0 55 43t21 102h131
q0 -133 -59 -211.5t-148 -78.5q-67 0 -137 55q-77 59 -116 59q-36 0 -56 -32.5t-20 -81.5h-131zM393 1645l256 251h160l256 -251h-191l-137 114h-16l-137 -114h-191z" />
    <glyph glyph-name="uni1EA0.ss01" 
d="M514 1405q17 49 28.5 73.5t31 46t46.5 29t70 7.5h76q43 0 70 -7.5t46.5 -29t31 -46t28.5 -73.5l481 -1405h-245l-144 422h-612l-141 -422h-248zM494 635h471l-232 682h-8zM729 -377q-48 0 -83.5 34.5t-35.5 84.5q0 47 36 83t83 36q50 0 84.5 -35.5t34.5 -83.5
q0 -51 -34 -85t-85 -34z" />
    <glyph glyph-name="Agrave.ss01" 
d="M514 1405q17 49 28.5 73.5t31 46t46.5 29t70 7.5h76q43 0 70 -7.5t46.5 -29t31 -46t28.5 -73.5l481 -1405h-245l-144 422h-612l-141 -422h-248zM494 635h471l-232 682h-8zM662 1688l-279 278h242l237 -278h-200z" />
    <glyph glyph-name="uni1EA2.ss01" 
d="M514 1405q17 49 28.5 73.5t31 46t46.5 29t70 7.5h76q43 0 70 -7.5t46.5 -29t31 -46t28.5 -73.5l481 -1405h-245l-144 422h-612l-141 -422h-248zM494 635h471l-232 682h-8zM633 1686q0 33 13.5 53.5t55.5 46.5q68 37 68 86q0 21 -18.5 36t-46.5 15q-32 0 -60.5 -15
t-42.5 -38l-86 86q76 102 211 102q92 0 152.5 -48.5t60.5 -125.5q0 -112 -139 -180q-23 -11 -28 -22t-5 -33v-13h-135v50z" />
    <glyph glyph-name="Atilde.ss01" 
d="M514 1405q17 49 28.5 73.5t31 46t46.5 29t70 7.5h76q43 0 70 -7.5t46.5 -29t31 -46t28.5 -73.5l481 -1405h-245l-144 422h-612l-141 -422h-248zM494 635h471l-232 682h-8zM410 1669q0 120 57.5 200.5t138.5 80.5q76 -3 156 -66q71 -53 110 -53q58 0 58 129h139
q0 -137 -51 -214t-144 -77q-69 0 -145 55q-74 53 -113 56q-35 0 -53 -30.5t-18 -80.5h-135z" />
    <glyph glyph-name="E.ss01" horiz-adv-x="1171" 
d="M156 1331q0 230 229 230h655v-213h-532q-63 0 -87 -23.5t-24 -89.5v-326h594v-213h-594v-483h652v-213h-893v1331z" />
    <glyph glyph-name="Eacute.ss01" horiz-adv-x="1171" 
d="M156 1331q0 230 229 230h655v-213h-532q-63 0 -87 -23.5t-24 -89.5v-326h594v-213h-594v-483h652v-213h-893v1331zM494 1704l237 278h242l-279 -278h-200z" />
    <glyph glyph-name="Ecircumflex.ss01" horiz-adv-x="1171" 
d="M156 1331q0 230 229 230h655v-213h-532q-63 0 -87 -23.5t-24 -89.5v-326h594v-213h-594v-483h652v-213h-893v1331zM279 1665l262 270h172l262 -270h-197l-143 131h-17l-143 -131h-196z" />
    <glyph glyph-name="uni1EBE.ss01" horiz-adv-x="1171" 
d="M156 1331q0 230 229 230h655v-213h-532q-63 0 -87 -23.5t-24 -89.5v-326h594v-213h-594v-483h652v-213h-893v1331zM815 1845l221 254h217l-254 -254h-184zM291 1661l256 252h160l256 -252h-191l-137 115h-17l-137 -115h-190z" />
    <glyph glyph-name="uni1EC6.ss01" horiz-adv-x="1171" 
d="M156 1331q0 230 229 230h655v-213h-532q-63 0 -87 -23.5t-24 -89.5v-326h594v-213h-594v-483h652v-213h-893v1331zM279 1665l262 270h172l262 -270h-197l-143 131h-17l-143 -131h-196zM631 -377q-48 0 -83.5 34.5t-35.5 84.5q0 47 36 83t83 36q50 0 84.5 -35.5
t34.5 -83.5q0 -51 -34 -85t-85 -34z" />
    <glyph glyph-name="uni1EC0.ss01" horiz-adv-x="1171" 
d="M156 1331q0 230 229 230h655v-213h-532q-63 0 -87 -23.5t-24 -89.5v-326h594v-213h-594v-483h652v-213h-893v1331zM915 1829l-253 254h217l221 -254h-185zM291 1661l256 252h160l256 -252h-191l-137 115h-17l-137 -115h-190z" />
    <glyph glyph-name="uni1EC2.ss01" horiz-adv-x="1171" 
d="M156 1331q0 230 229 230h655v-213h-532q-63 0 -87 -23.5t-24 -89.5v-326h594v-213h-594v-483h652v-213h-893v1331zM844 1860q0 33 13.5 53.5t55.5 46.5q68 37 68 86q0 21 -18.5 36t-47.5 15q-55 0 -102 -53l-76 76q64 94 187 100q90 0 148 -46t58 -116q0 -60 -31.5 -101
t-99.5 -79q-16 -9 -23 -17.5t-8 -15t-1 -22.5v-4h-123v41zM291 1661l256 252h160l256 -252h-191l-137 115h-17l-137 -115h-190z" />
    <glyph glyph-name="uni1EC4.ss01" horiz-adv-x="1171" 
d="M156 1331q0 230 229 230h655v-213h-532q-63 0 -87 -23.5t-24 -89.5v-326h594v-213h-594v-483h652v-213h-893v1331zM352 1962q0 117 59 194.5t136 77.5q66 0 149 -65q77 -62 117 -62q34 0 55 43t21 103h131q0 -133 -59 -212t-148 -79q-67 0 -137 55q-78 60 -117 60
q-35 0 -55.5 -33t-20.5 -82h-131zM291 1661l256 252h160l256 -252h-191l-137 115h-17l-137 -115h-190z" />
    <glyph glyph-name="uni1EB8.ss01" horiz-adv-x="1171" 
d="M156 1331q0 230 229 230h655v-213h-532q-63 0 -87 -23.5t-24 -89.5v-326h594v-213h-594v-483h652v-213h-893v1331zM631 -377q-48 0 -83.5 34.5t-35.5 84.5q0 47 36 83t83 36q50 0 84.5 -35.5t34.5 -83.5q0 -51 -34 -85t-85 -34z" />
    <glyph glyph-name="Egrave.ss01" horiz-adv-x="1171" 
d="M156 1331q0 230 229 230h655v-213h-532q-63 0 -87 -23.5t-24 -89.5v-326h594v-213h-594v-483h652v-213h-893v1331zM559 1704l-278 278h241l238 -278h-201z" />
    <glyph glyph-name="uni1EBA.ss01" horiz-adv-x="1171" 
d="M156 1331q0 230 229 230h655v-213h-532q-63 0 -87 -23.5t-24 -89.5v-326h594v-213h-594v-483h652v-213h-893v1331zM530 1702q0 33 14 53.5t56 46.5q68 37 68 86q0 21 -18.5 36t-47.5 15q-32 0 -60 -15t-42 -38l-86 86q77 103 211 103q92 0 152.5 -48.5t60.5 -125.5
q0 -113 -140 -181q-16 -8 -23 -17t-8 -15.5t-1 -22.5v-12h-136v49z" />
    <glyph glyph-name="uni1EBC.ss01" horiz-adv-x="1171" 
d="M156 1331q0 230 229 230h655v-213h-532q-63 0 -87 -23.5t-24 -89.5v-326h594v-213h-594v-483h652v-213h-893v1331zM307 1686q0 120 58 200t139 80q76 -3 155 -65q73 -54 111 -54q57 0 57 129h140q0 -137 -51 -213.5t-144 -76.5q-69 0 -145 55q-73 52 -113 55
q-35 0 -53.5 -30.5t-18.5 -79.5h-135z" />
    <glyph glyph-name="F.ss01" horiz-adv-x="1114" 
d="M156 1331q0 230 229 230h655v-213h-532q-63 0 -87 -23.5t-24 -89.5v-408h586v-213h-586v-614h-241v1331z" />
    <glyph glyph-name="G.ss01" horiz-adv-x="1597" 
d="M866 -25q-175 0 -323.5 63t-250 171t-158 256t-56.5 315q0 227 104.5 411.5t289 289t411.5 104.5q202 0 356 -80q118 -65 191 -147l-156 -154q-83 88 -173.5 126t-223.5 38q-165 0 -294 -79.5t-197.5 -212.5t-68.5 -294q0 -125 43.5 -234t118.5 -186.5t179 -122
t221 -44.5q122 0 217 32.5t133 75.5v322h-299v213h528v-641q-111 -105 -262.5 -163.5t-329.5 -58.5z" />
    <glyph glyph-name="I.ss01" horiz-adv-x="831" 
d="M123 0v205h174v1151h-174v205h586v-205h-170v-1151h170v-205h-586z" />
    <glyph glyph-name="Iacute.ss01" horiz-adv-x="831" 
d="M123 0v205h174v1151h-174v205h586v-205h-170v-1151h170v-205h-586zM285 1688l237 278h242l-279 -278h-200z" />
    <glyph glyph-name="uni1ECA.ss01" horiz-adv-x="831" 
d="M123 0v205h174v1151h-174v205h586v-205h-170v-1151h170v-205h-586zM418 -377q-48 0 -83.5 34.5t-35.5 84.5q0 47 36 83t83 36q50 0 84.5 -35.5t34.5 -83.5q0 -51 -34 -85t-85 -34z" />
    <glyph glyph-name="Igrave.ss01" horiz-adv-x="831" 
d="M123 0v205h174v1151h-174v205h586v-205h-170v-1151h170v-205h-586zM350 1688l-278 278h241l238 -278h-201z" />
    <glyph glyph-name="uni1EC8.ss01" horiz-adv-x="831" 
d="M123 0v205h174v1151h-174v205h586v-205h-170v-1151h170v-205h-586zM322 1686q0 33 13.5 53.5t55.5 46.5q68 37 68 86q0 21 -18.5 36t-47.5 15q-32 0 -60 -15t-42 -38l-86 86q76 102 211 102q92 0 152.5 -48.5t60.5 -125.5q0 -112 -140 -180q-16 -8 -23 -17t-8 -15.5
t-1 -22.5v-13h-135v50z" />
    <glyph glyph-name="Itilde.ss01" horiz-adv-x="831" 
d="M123 0v205h174v1151h-174v205h586v-205h-170v-1151h170v-205h-586zM98 1669q0 120 58 200.5t139 80.5q76 -3 156 -66q71 -53 110 -53q57 0 57 129h140q0 -137 -51 -214t-144 -77q-69 0 -145 55q-74 53 -113 56q-35 0 -53.5 -30.5t-18.5 -80.5h-135z" />
    <glyph glyph-name="K.ss01" horiz-adv-x="1404" 
d="M156 0v1561h241v-682h193l504 682h274l-520 -707v-16q36 -11 77 -34t91.5 -62t96.5 -99t85 -134.5t63.5 -179.5t26.5 -225l2 -104h-241v66q-3 136 -35 243t-81 172.5t-114 108.5t-127.5 59.5t-128.5 16.5h-166v-666h-241z" />
    <glyph glyph-name="R.ss01" horiz-adv-x="1347" 
d="M156 0v1561h569q110 0 200.5 -25.5t160 -77.5t108.5 -138.5t39 -199.5q0 -307 -270 -434v-8q137 -89 193 -251t56 -427h-241q0 161 -35 287q-37 142 -129.5 234.5t-216.5 92.5h-193v-614h-241zM690 827q150 0 226.5 69t76.5 196q0 125 -77 190.5t-226 65.5h-293v-521h293
z" />
    <glyph glyph-name="L_A" horiz-adv-x="2390" 
d="M156 0v1561h241v-1348h643l461 1348h322l534 -1561h-246l-143 422h-612l-142 -422h-1058zM1427 635h471l-231 682h-8z" />
    <glyph glyph-name="L_Aacute" horiz-adv-x="2390" 
d="M156 0v1561h241v-1348h643l461 1348h322l534 -1561h-246l-143 422h-612l-142 -422h-1058zM1427 635h471l-231 682h-8zM1530 1688l237 278h242l-278 -278h-201z" />
    <glyph glyph-name="L_Abreve" horiz-adv-x="2390" 
d="M156 0v1561h241v-1348h643l461 1348h322l534 -1561h-246l-143 422h-612l-142 -422h-1058zM1427 635h471l-231 682h-8zM1663 1638q-76 0 -120 10t-85 40q-50 38 -74 122q-17 68 -20 123h139q9 -44 29 -90q16 -36 45 -49q13 -8 86 -8q70 0 86 8q29 13 45 49q20 46 29 90
h139q-3 -55 -20 -123q-24 -84 -74 -122q-41 -30 -85 -40t-120 -10z" />
    <glyph glyph-name="uni004C1EAE" horiz-adv-x="2390" 
d="M156 0v1561h241v-1348h643l461 1348h322l534 -1561h-246l-143 422h-612l-142 -422h-1058zM1427 635h471l-231 682h-8zM1663 1638q-83 0 -126 8.5t-83 41.5q-46 37 -70 127q-14 54 -20 102h135q7 -34 25 -74q16 -36 45 -49q13 -8 94 -8q78 0 94 8q29 13 45 49q18 40 25 74
h135q-6 -48 -20 -102q-24 -90 -70 -127q-40 -33 -83 -41.5t-126 -8.5zM1571 1927l213 254h217l-254 -254h-176z" />
    <glyph glyph-name="uni004C1EB6" horiz-adv-x="2390" 
d="M156 0v1561h241v-1348h643l461 1348h322l534 -1561h-246l-143 422h-612l-142 -422h-1058zM1427 635h471l-231 682h-8zM1663 1638q-76 0 -120 10t-85 40q-50 38 -74 122q-17 68 -20 123h139q9 -44 29 -90q16 -36 45 -49q13 -8 86 -8q70 0 86 8q29 13 45 49q20 46 29 90
h139q-3 -55 -20 -123q-24 -84 -74 -122q-41 -30 -85 -40t-120 -10zM1663 -377q-48 0 -83.5 34.5t-35.5 84.5q0 47 36 83t83 36q50 0 84.5 -35.5t34.5 -83.5q0 -51 -34 -85t-85 -34z" />
    <glyph glyph-name="uni004C1EB0" horiz-adv-x="2390" 
d="M156 0v1561h241v-1348h643l461 1348h322l534 -1561h-246l-143 422h-612l-142 -422h-1058zM1427 635h471l-231 682h-8zM1663 1638q-79 0 -124.5 9.5t-84.5 40.5q-42 37 -70 127q-18 70 -20 102h135q7 -34 25 -74q16 -36 45 -49q13 -8 94 -8q78 0 94 8q29 13 45 49
q18 40 25 74h135q-2 -32 -20 -102q-28 -90 -70 -127q-39 -31 -84.5 -40.5t-124.5 -9.5zM1583 1915l-254 254h217l213 -254h-176z" />
    <glyph glyph-name="uni004C1EB2" horiz-adv-x="2390" 
d="M156 0v1561h241v-1348h643l461 1348h322l534 -1561h-246l-143 422h-612l-142 -422h-1058zM1427 635h471l-231 682h-8zM1663 1634q-80 0 -125 9.5t-84 39.5q-42 37 -70 127q-18 70 -20 103h135q7 -34 25 -74q16 -36 45 -49q13 -8 94 -8q78 0 94 8q29 13 45 49q18 40 25 74
h135q-2 -33 -20 -103q-28 -90 -70 -127q-39 -30 -84 -39.5t-125 -9.5zM1595 1946q0 33 14 53.5t56 46.5q68 37 68 86q0 21 -18.5 36t-47.5 15q-55 0 -102 -53l-76 76q64 94 186 100q90 0 148.5 -46.5t58.5 -115.5q0 -60 -31.5 -101t-99.5 -79q-23 -12 -28 -22.5t-5 -32.5v-4
h-123v41z" />
    <glyph glyph-name="uni004C1EB4" horiz-adv-x="2390" 
d="M156 0v1561h241v-1348h643l461 1348h322l534 -1561h-246l-143 422h-612l-142 -422h-1058zM1427 635h471l-231 682h-8zM1501 1985q0 122 56.5 196t134.5 74q65 0 149 -66q76 -61 117 -61q34 0 55 43t21 102h127q0 -127 -58 -207.5t-145 -80.5q-67 0 -137 55
q-77 59 -117 59q-36 0 -56 -32.5t-20 -81.5h-127zM1663 1634q-80 0 -125 9.5t-84 39.5q-42 37 -70 127q-18 70 -20 103h135q7 -34 25 -74q16 -36 45 -49q13 -8 94 -8q78 0 94 8q29 13 45 49q18 40 25 74h135q-2 -33 -20 -103q-28 -90 -70 -127q-39 -30 -84 -39.5t-125 -9.5z
" />
    <glyph glyph-name="L_Acircumflex" horiz-adv-x="2390" 
d="M156 0v1561h241v-1348h643l461 1348h322l534 -1561h-246l-143 422h-612l-142 -422h-1058zM1427 635h471l-231 682h-8zM1315 1649l262 270h172l262 -270h-196l-144 131h-16l-144 -131h-196z" />
    <glyph glyph-name="uni004C1EA4" horiz-adv-x="2390" 
d="M156 0v1561h241v-1348h643l461 1348h322l534 -1561h-246l-143 422h-612l-142 -422h-1058zM1427 635h471l-231 682h-8zM1851 1829l222 254h217l-254 -254h-185zM1327 1645l256 251h160l256 -251h-191l-137 114h-16l-137 -114h-191z" />
    <glyph glyph-name="uni004C1EAC" horiz-adv-x="2390" 
d="M156 0v1561h241v-1348h643l461 1348h322l534 -1561h-246l-143 422h-612l-142 -422h-1058zM1427 635h471l-231 682h-8zM1315 1649l262 270h172l262 -270h-196l-144 131h-16l-144 -131h-196zM1663 -377q-48 0 -83.5 34.5t-35.5 84.5q0 47 36 83t83 36q50 0 84.5 -35.5
t34.5 -83.5q0 -51 -34 -85t-85 -34z" />
    <glyph glyph-name="uni004C1EA6" horiz-adv-x="2390" 
d="M156 0v1561h241v-1348h643l461 1348h322l534 -1561h-246l-143 422h-612l-142 -422h-1058zM1427 635h471l-231 682h-8zM1952 1812l-254 254h217l221 -254h-184zM1327 1645l256 251h160l256 -251h-191l-137 114h-16l-137 -114h-191z" />
    <glyph glyph-name="uni004C1EA8" horiz-adv-x="2390" 
d="M156 0v1561h241v-1348h643l461 1348h322l534 -1561h-246l-143 422h-612l-142 -422h-1058zM1427 635h471l-231 682h-8zM1880 1843q0 33 14 54t56 47q67 37 67 86q0 21 -18.5 36t-46.5 15q-56 0 -103 -53l-75 75q65 95 186 101q90 0 148.5 -46.5t58.5 -115.5
q0 -60 -31.5 -101t-99.5 -79q-23 -12 -28 -23t-5 -33v-4h-123v41zM1327 1645l256 251h160l256 -251h-191l-137 114h-16l-137 -114h-191z" />
    <glyph glyph-name="uni004C1EAA" horiz-adv-x="2390" 
d="M156 0v1561h241v-1348h643l461 1348h322l534 -1561h-246l-143 422h-612l-142 -422h-1058zM1427 635h471l-231 682h-8zM1389 1946q0 117 58.5 194.5t135.5 77.5q66 0 150 -66q76 -61 116 -61q34 0 55 43t21 102h131q0 -133 -59 -211.5t-148 -78.5q-67 0 -137 55
q-77 59 -117 59q-35 0 -55 -32.5t-20 -81.5h-131zM1327 1645l256 251h160l256 -251h-191l-137 114h-16l-137 -114h-191z" />
    <glyph glyph-name="uni004C1EA0" horiz-adv-x="2390" 
d="M156 0v1561h241v-1348h643l461 1348h322l534 -1561h-246l-143 422h-612l-142 -422h-1058zM1427 635h471l-231 682h-8zM1663 -377q-48 0 -83.5 34.5t-35.5 84.5q0 47 36 83t83 36q50 0 84.5 -35.5t34.5 -83.5q0 -51 -34 -85t-85 -34z" />
    <glyph glyph-name="L_Agrave" horiz-adv-x="2390" 
d="M156 0v1561h241v-1348h643l461 1348h322l534 -1561h-246l-143 422h-612l-142 -422h-1058zM1427 635h471l-231 682h-8zM1595 1688l-278 278h242l237 -278h-201z" />
    <glyph glyph-name="uni004C1EA2" horiz-adv-x="2390" 
d="M156 0v1561h241v-1348h643l461 1348h322l534 -1561h-246l-143 422h-612l-142 -422h-1058zM1427 635h471l-231 682h-8zM1567 1686q0 33 13.5 53.5t55.5 46.5q68 37 68 86q0 21 -18.5 36t-47.5 15q-32 0 -60 -15t-42 -38l-86 86q76 102 211 102q92 0 152.5 -48.5
t60.5 -125.5q0 -112 -139 -180q-23 -11 -28 -22t-5 -33v-13h-135v50z" />
    <glyph glyph-name="L_Atilde" horiz-adv-x="2390" 
d="M156 0v1561h241v-1348h643l461 1348h322l534 -1561h-246l-143 422h-612l-142 -422h-1058zM1427 635h471l-231 682h-8zM1343 1669q0 120 58 200.5t139 80.5q76 -3 156 -66q71 -53 110 -53q58 0 58 129h139q0 -137 -51 -214t-144 -77q-69 0 -145 55q-74 53 -113 56
q-35 0 -53 -30.5t-18 -80.5h-136z" />
    <glyph glyph-name="T_T" horiz-adv-x="2281" 
d="M485 0v1348h-460v213h2232v-213h-461v-1348h-242v1348h-827v-1348h-242z" />
    <glyph glyph-name="T_left.alt" horiz-adv-x="1189" 
d="M473 0v1343h-387v218h1079v-218h-450v-1343h-242z" />
    <glyph glyph-name="L_A.ss01" horiz-adv-x="2390" 
d="M156 0v1561h241v-1348h643l408 1192q17 49 28.5 73.5t31 46t46.5 29t70 7.5h76q43 0 70 -7.5t46.5 -29t31 -46t28.5 -73.5l481 -1405h-246l-143 422h-612l-142 -422h-1058zM1427 635h471l-231 682h-8z" />
    <glyph glyph-name="L_Aacute.ss01" horiz-adv-x="2390" 
d="M156 0v1561h241v-1348h643l408 1192q17 49 28.5 73.5t31 46t46.5 29t70 7.5h76q43 0 70 -7.5t46.5 -29t31 -46t28.5 -73.5l481 -1405h-246l-143 422h-612l-142 -422h-1058zM1427 635h471l-231 682h-8zM1530 1688l237 278h242l-278 -278h-201z" />
    <glyph glyph-name="L_Abreve.ss01" horiz-adv-x="2390" 
d="M156 0v1561h241v-1348h643l408 1192q17 49 28.5 73.5t31 46t46.5 29t70 7.5h76q43 0 70 -7.5t46.5 -29t31 -46t28.5 -73.5l481 -1405h-246l-143 422h-612l-142 -422h-1058zM1427 635h471l-231 682h-8zM1663 1638q-76 0 -120 10t-85 40q-50 38 -74 122q-17 68 -20 123h139
q9 -44 29 -90q16 -36 45 -49q13 -8 86 -8q70 0 86 8q29 13 45 49q20 46 29 90h139q-3 -55 -20 -123q-24 -84 -74 -122q-41 -30 -85 -40t-120 -10z" />
    <glyph glyph-name="uni004C1EAE.ss01" horiz-adv-x="2390" 
d="M156 0v1561h241v-1348h643l408 1192q17 49 28.5 73.5t31 46t46.5 29t70 7.5h76q43 0 70 -7.5t46.5 -29t31 -46t28.5 -73.5l481 -1405h-246l-143 422h-612l-142 -422h-1058zM1427 635h471l-231 682h-8zM1663 1638q-83 0 -126 8.5t-83 41.5q-46 37 -70 127q-14 54 -20 102
h135q7 -34 25 -74q16 -36 45 -49q13 -8 94 -8q78 0 94 8q29 13 45 49q18 40 25 74h135q-6 -48 -20 -102q-24 -90 -70 -127q-40 -33 -83 -41.5t-126 -8.5zM1571 1927l213 254h217l-254 -254h-176z" />
    <glyph glyph-name="uni004C1EB6.ss01" horiz-adv-x="2390" 
d="M156 0v1561h241v-1348h643l408 1192q17 49 28.5 73.5t31 46t46.5 29t70 7.5h76q43 0 70 -7.5t46.5 -29t31 -46t28.5 -73.5l481 -1405h-246l-143 422h-612l-142 -422h-1058zM1427 635h471l-231 682h-8zM1663 1638q-76 0 -120 10t-85 40q-50 38 -74 122q-17 68 -20 123h139
q9 -44 29 -90q16 -36 45 -49q13 -8 86 -8q70 0 86 8q29 13 45 49q20 46 29 90h139q-3 -55 -20 -123q-24 -84 -74 -122q-41 -30 -85 -40t-120 -10zM1663 -377q-48 0 -83.5 34.5t-35.5 84.5q0 47 36 83t83 36q50 0 84.5 -35.5t34.5 -83.5q0 -51 -34 -85t-85 -34z" />
    <glyph glyph-name="uni004C1EB0.ss01" horiz-adv-x="2390" 
d="M156 0v1561h241v-1348h643l408 1192q17 49 28.5 73.5t31 46t46.5 29t70 7.5h76q43 0 70 -7.5t46.5 -29t31 -46t28.5 -73.5l481 -1405h-246l-143 422h-612l-142 -422h-1058zM1427 635h471l-231 682h-8zM1663 1638q-79 0 -124.5 9.5t-84.5 40.5q-42 37 -70 127
q-18 70 -20 102h135q7 -34 25 -74q16 -36 45 -49q13 -8 94 -8q78 0 94 8q29 13 45 49q18 40 25 74h135q-2 -32 -20 -102q-28 -90 -70 -127q-39 -31 -84.5 -40.5t-124.5 -9.5zM1583 1915l-254 254h217l213 -254h-176z" />
    <glyph glyph-name="uni004C1EB2.ss01" horiz-adv-x="2390" 
d="M156 0v1561h241v-1348h643l408 1192q17 49 28.5 73.5t31 46t46.5 29t70 7.5h76q43 0 70 -7.5t46.5 -29t31 -46t28.5 -73.5l481 -1405h-246l-143 422h-612l-142 -422h-1058zM1427 635h471l-231 682h-8zM1663 1634q-80 0 -125 9.5t-84 39.5q-42 37 -70 127q-18 70 -20 103
h135q7 -34 25 -74q16 -36 45 -49q13 -8 94 -8q78 0 94 8q29 13 45 49q18 40 25 74h135q-2 -33 -20 -103q-28 -90 -70 -127q-39 -30 -84 -39.5t-125 -9.5zM1595 1946q0 33 14 53.5t56 46.5q68 37 68 86q0 21 -18.5 36t-47.5 15q-55 0 -102 -53l-76 76q64 94 186 100
q90 0 148.5 -46.5t58.5 -115.5q0 -60 -31.5 -101t-99.5 -79q-23 -12 -28 -22.5t-5 -32.5v-4h-123v41z" />
    <glyph glyph-name="uni004C1EB4.ss01" horiz-adv-x="2390" 
d="M156 0v1561h241v-1348h643l408 1192q17 49 28.5 73.5t31 46t46.5 29t70 7.5h76q43 0 70 -7.5t46.5 -29t31 -46t28.5 -73.5l481 -1405h-246l-143 422h-612l-142 -422h-1058zM1427 635h471l-231 682h-8zM1501 1985q0 122 56.5 196t134.5 74q65 0 149 -66q76 -61 117 -61
q34 0 55 43t21 102h127q0 -127 -58 -207.5t-145 -80.5q-67 0 -137 55q-77 59 -117 59q-36 0 -56 -32.5t-20 -81.5h-127zM1663 1634q-80 0 -125 9.5t-84 39.5q-42 37 -70 127q-18 70 -20 103h135q7 -34 25 -74q16 -36 45 -49q13 -8 94 -8q78 0 94 8q29 13 45 49q18 40 25 74
h135q-2 -33 -20 -103q-28 -90 -70 -127q-39 -30 -84 -39.5t-125 -9.5z" />
    <glyph glyph-name="L_Acircumflex.ss01" horiz-adv-x="2390" 
d="M156 0v1561h241v-1348h643l408 1192q17 49 28.5 73.5t31 46t46.5 29t70 7.5h76q43 0 70 -7.5t46.5 -29t31 -46t28.5 -73.5l481 -1405h-246l-143 422h-612l-142 -422h-1058zM1427 635h471l-231 682h-8zM1315 1649l262 270h172l262 -270h-196l-144 131h-16l-144 -131h-196z
" />
    <glyph glyph-name="uni004C1EA4.ss01" horiz-adv-x="2390" 
d="M156 0v1561h241v-1348h643l408 1192q17 49 28.5 73.5t31 46t46.5 29t70 7.5h76q43 0 70 -7.5t46.5 -29t31 -46t28.5 -73.5l481 -1405h-246l-143 422h-612l-142 -422h-1058zM1427 635h471l-231 682h-8zM1837 1821l221 254h217l-254 -254h-184zM1313 1636l256 252h160
l256 -252h-191l-137 115h-17l-137 -115h-190z" />
    <glyph glyph-name="uni004C1EAC.ss01" horiz-adv-x="2390" 
d="M156 0v1561h241v-1348h643l408 1192q17 49 28.5 73.5t31 46t46.5 29t70 7.5h76q43 0 70 -7.5t46.5 -29t31 -46t28.5 -73.5l481 -1405h-246l-143 422h-612l-142 -422h-1058zM1427 635h471l-231 682h-8zM1315 1649l262 270h172l262 -270h-196l-144 131h-16l-144 -131h-196z
M1663 -377q-48 0 -83.5 34.5t-35.5 84.5q0 47 36 83t83 36q50 0 84.5 -35.5t34.5 -83.5q0 -51 -34 -85t-85 -34z" />
    <glyph glyph-name="uni004C1EA6.ss01" horiz-adv-x="2390" 
d="M156 0v1561h241v-1348h643l408 1192q17 49 28.5 73.5t31 46t46.5 29t70 7.5h76q43 0 70 -7.5t46.5 -29t31 -46t28.5 -73.5l481 -1405h-246l-143 422h-612l-142 -422h-1058zM1427 635h471l-231 682h-8zM1952 1812l-254 254h217l221 -254h-184zM1327 1645l256 251h160
l256 -251h-191l-137 114h-16l-137 -114h-191z" />
    <glyph glyph-name="uni004C1EA8.ss01" horiz-adv-x="2390" 
d="M156 0v1561h241v-1348h643l408 1192q17 49 28.5 73.5t31 46t46.5 29t70 7.5h76q43 0 70 -7.5t46.5 -29t31 -46t28.5 -73.5l481 -1405h-246l-143 422h-612l-142 -422h-1058zM1427 635h471l-231 682h-8zM1880 1843q0 33 14 54t56 47q67 37 67 86q0 21 -18.5 36t-46.5 15
q-56 0 -103 -53l-75 75q65 95 186 101q90 0 148.5 -46.5t58.5 -115.5q0 -60 -31.5 -101t-99.5 -79q-23 -12 -28 -23t-5 -33v-4h-123v41zM1327 1645l256 251h160l256 -251h-191l-137 114h-16l-137 -114h-191z" />
    <glyph glyph-name="uni004C1EAA.ss01" horiz-adv-x="2390" 
d="M156 0v1561h241v-1348h643l408 1192q17 49 28.5 73.5t31 46t46.5 29t70 7.5h76q43 0 70 -7.5t46.5 -29t31 -46t28.5 -73.5l481 -1405h-246l-143 422h-612l-142 -422h-1058zM1427 635h471l-231 682h-8zM1389 1946q0 117 58.5 194.5t135.5 77.5q66 0 150 -66
q76 -61 116 -61q34 0 55 43t21 102h131q0 -133 -59 -211.5t-148 -78.5q-67 0 -137 55q-77 59 -117 59q-35 0 -55 -32.5t-20 -81.5h-131zM1327 1645l256 251h160l256 -251h-191l-137 114h-16l-137 -114h-191z" />
    <glyph glyph-name="uni004C1EA0.ss01" horiz-adv-x="2390" 
d="M156 0v1561h241v-1348h643l408 1192q17 49 28.5 73.5t31 46t46.5 29t70 7.5h76q43 0 70 -7.5t46.5 -29t31 -46t28.5 -73.5l481 -1405h-246l-143 422h-612l-142 -422h-1058zM1427 635h471l-231 682h-8zM1663 -377q-48 0 -83.5 34.5t-35.5 84.5q0 47 36 83t83 36
q50 0 84.5 -35.5t34.5 -83.5q0 -51 -34 -85t-85 -34z" />
    <glyph glyph-name="L_Agrave.ss01" horiz-adv-x="2390" 
d="M156 0v1561h241v-1348h643l408 1192q17 49 28.5 73.5t31 46t46.5 29t70 7.5h76q43 0 70 -7.5t46.5 -29t31 -46t28.5 -73.5l481 -1405h-246l-143 422h-612l-142 -422h-1058zM1427 635h471l-231 682h-8zM1595 1688l-278 278h242l237 -278h-201z" />
    <glyph glyph-name="uni004C1EA2.ss01" horiz-adv-x="2390" 
d="M156 0v1561h241v-1348h643l408 1192q17 49 28.5 73.5t31 46t46.5 29t70 7.5h76q43 0 70 -7.5t46.5 -29t31 -46t28.5 -73.5l481 -1405h-246l-143 422h-612l-142 -422h-1058zM1427 635h471l-231 682h-8zM1567 1686q0 33 13.5 53.5t55.5 46.5q68 37 68 86q0 21 -18.5 36
t-47.5 15q-32 0 -60 -15t-42 -38l-86 86q76 102 211 102q92 0 152.5 -48.5t60.5 -125.5q0 -112 -139 -180q-23 -11 -28 -22t-5 -33v-13h-135v50z" />
    <glyph glyph-name="L_Atilde.ss01" horiz-adv-x="2390" 
d="M156 0v1561h241v-1348h643l408 1192q17 49 28.5 73.5t31 46t46.5 29t70 7.5h76q43 0 70 -7.5t46.5 -29t31 -46t28.5 -73.5l481 -1405h-246l-143 422h-612l-142 -422h-1058zM1427 635h471l-231 682h-8zM1343 1669q0 120 58 200.5t139 80.5q76 -3 156 -66q71 -53 110 -53
q58 0 58 129h139q0 -137 -51 -214t-144 -77q-69 0 -145 55q-74 53 -113 56q-35 0 -53 -30.5t-18 -80.5h-136z" />
    <glyph glyph-name="igrave.alt" horiz-adv-x="479" 
d="M131 0v1110h234v-1110h-234zM252 1262l-279 278h242l238 -278h-201z" />
    <glyph glyph-name="itilde.alt" horiz-adv-x="466" 
d="M131 0v1110h234v-1110h-234zM-4 1243q0 120 58 200.5t139 80.5q75 -3 155 -66q71 -53 111 -53q57 0 57 129h139q0 -138 -50.5 -214.5t-143.5 -76.5q-70 0 -146 55q-75 53 -112 56q-35 0 -53.5 -30.5t-18.5 -80.5h-135z" />
    <glyph glyph-name="y.alt" horiz-adv-x="1157" 
d="M352 -410l144 402v8h-60l-403 1110h241l301 -854h9l307 854h233l-544 -1520h-228z" />
    <glyph glyph-name="yacute.alt" horiz-adv-x="1157" 
d="M352 -410l144 402v8h-60l-403 1110h241l301 -854h9l307 854h233l-544 -1520h-228zM457 1257l237 279h242l-279 -279h-200z" />
    <glyph glyph-name="uni1EF5.alt" horiz-adv-x="1157" 
d="M352 -410l144 402v8h-60l-403 1110h241l301 -854h9l307 854h233l-544 -1520h-228zM840 -377q-48 0 -83.5 34.5t-35.5 84.5q0 47 36 83t83 36q50 0 84 -35.5t34 -83.5q0 -51 -33.5 -85t-84.5 -34z" />
    <glyph glyph-name="ygrave.alt" horiz-adv-x="1157" 
d="M352 -410l144 402v8h-60l-403 1110h241l301 -854h9l307 854h233l-544 -1520h-228zM522 1257l-278 279h241l238 -279h-201z" />
    <glyph glyph-name="uni1EF7.alt" horiz-adv-x="1157" 
d="M352 -410l144 402v8h-60l-403 1110h241l301 -854h9l307 854h233l-544 -1520h-228zM494 1255q0 33 14 54.5t55 46.5q68 37 68 86q0 21 -18.5 36t-47.5 15q-32 0 -60 -15t-42 -38l-86 86q77 102 211 102q92 0 152.5 -48.5t60.5 -125.5q0 -112 -139 -180q-23 -11 -28 -22
t-5 -33v-13h-135v49z" />
    <glyph glyph-name="uni1EF9.alt" horiz-adv-x="1157" 
d="M352 -410l144 402v8h-60l-403 1110h241l301 -854h9l307 854h233l-544 -1520h-228zM270 1239q0 120 58 200.5t139 80.5q76 -3 156 -66q71 -53 110 -53q58 0 58 129h139q0 -137 -51 -214t-144 -77q-69 0 -145 55q-74 53 -113 56q-35 0 -53 -30.5t-18 -80.5h-136z" />
    <glyph glyph-name="a.ss01" horiz-adv-x="1333" 
d="M604 -25q-109 0 -207.5 41.5t-171.5 115.5t-116 183.5t-43 237.5q0 131 43.5 242t118 186t176.5 116.5t217 41.5q109 0 197.5 -37.5t142.5 -106.5h8v115h233v-1110h-233v158h-8q-49 -90 -141 -136.5t-216 -46.5zM643 190q151 0 244.5 105.5t93.5 263.5q0 157 -93.5 262
t-244.5 105q-152 0 -246 -105t-94 -262q0 -158 94 -263.5t246 -105.5z" />
    <glyph glyph-name="aacute.ss01" horiz-adv-x="1333" 
d="M604 -25q-109 0 -207.5 41.5t-171.5 115.5t-116 183.5t-43 237.5q0 131 43.5 242t118 186t176.5 116.5t217 41.5q109 0 197.5 -37.5t142.5 -106.5h8v115h233v-1110h-233v158h-8q-49 -90 -141 -136.5t-216 -46.5zM643 190q151 0 244.5 105.5t93.5 263.5q0 157 -93.5 262
t-244.5 105q-152 0 -246 -105t-94 -262q0 -158 94 -263.5t246 -105.5zM522 1278l238 278h241l-278 -278h-201z" />
    <glyph glyph-name="abreve.ss01" horiz-adv-x="1333" 
d="M604 -25q-109 0 -207.5 41.5t-171.5 115.5t-116 183.5t-43 237.5q0 131 43.5 242t118 186t176.5 116.5t217 41.5q109 0 197.5 -37.5t142.5 -106.5h8v115h233v-1110h-233v158h-8q-49 -90 -141 -136.5t-216 -46.5zM643 190q151 0 244.5 105.5t93.5 263.5q0 157 -93.5 262
t-244.5 105q-152 0 -246 -105t-94 -262q0 -158 94 -263.5t246 -105.5zM655 1229q-77 0 -120 9.5t-84 39.5q-50 38 -74 123q-19 73 -21 123h140q10 -48 28 -90q16 -38 45 -50q13 -8 86 -8q70 0 86 8q29 12 45 50q20 46 29 90h139q-3 -55 -20 -123q-24 -85 -74 -123
q-41 -30 -84.5 -39.5t-120.5 -9.5z" />
    <glyph glyph-name="uni1EAF.ss01" horiz-adv-x="1333" 
d="M604 -25q-109 0 -207.5 41.5t-171.5 115.5t-116 183.5t-43 237.5q0 131 43.5 242t118 186t176.5 116.5t217 41.5q109 0 197.5 -37.5t142.5 -106.5h8v115h233v-1110h-233v158h-8q-49 -90 -141 -136.5t-216 -46.5zM643 190q151 0 244.5 105.5t93.5 263.5q0 157 -93.5 262
t-244.5 105q-152 0 -246 -105t-94 -262q0 -158 94 -263.5t246 -105.5zM655 1229q-84 0 -127 8.5t-82 40.5q-44 36 -69 127q-16 62 -21 102h136q8 -36 24 -73q16 -38 45 -50q13 -8 94 -8q79 0 95 8q29 12 45 50q16 37 24 73h135q-6 -48 -20 -102q-24 -90 -70 -127
q-39 -32 -82 -40.5t-127 -8.5zM563 1518l213 254h217l-254 -254h-176z" />
    <glyph glyph-name="uni1EB7.ss01" horiz-adv-x="1333" 
d="M604 -25q-109 0 -207.5 41.5t-171.5 115.5t-116 183.5t-43 237.5q0 131 43.5 242t118 186t176.5 116.5t217 41.5q109 0 197.5 -37.5t142.5 -106.5h8v115h233v-1110h-233v158h-8q-49 -90 -141 -136.5t-216 -46.5zM643 190q151 0 244.5 105.5t93.5 263.5q0 157 -93.5 262
t-244.5 105q-152 0 -246 -105t-94 -262q0 -158 94 -263.5t246 -105.5zM655 1229q-77 0 -120 9.5t-84 39.5q-50 38 -74 123q-19 73 -21 123h140q10 -48 28 -90q16 -38 45 -50q13 -8 86 -8q70 0 86 8q29 12 45 50q20 46 29 90h139q-3 -55 -20 -123q-24 -85 -74 -123
q-41 -30 -84.5 -39.5t-120.5 -9.5zM629 -377q-48 0 -83.5 34.5t-35.5 84.5q0 47 36 83t83 36q50 0 84.5 -35.5t34.5 -83.5q0 -51 -34 -85t-85 -34z" />
    <glyph glyph-name="uni1EB1.ss01" horiz-adv-x="1333" 
d="M604 -25q-109 0 -207.5 41.5t-171.5 115.5t-116 183.5t-43 237.5q0 131 43.5 242t118 186t176.5 116.5t217 41.5q109 0 197.5 -37.5t142.5 -106.5h8v115h233v-1110h-233v158h-8q-49 -90 -141 -136.5t-216 -46.5zM643 190q151 0 244.5 105.5t93.5 263.5q0 157 -93.5 262
t-244.5 105q-152 0 -246 -105t-94 -262q0 -158 94 -263.5t246 -105.5zM655 1229q-80 0 -125 9.5t-84 39.5q-41 35 -69 127q-19 75 -21 102h136q8 -36 24 -73q16 -38 45 -50q13 -8 94 -8q79 0 95 8q29 12 45 50q16 37 24 73h135q-2 -32 -20 -102q-28 -90 -70 -127
q-39 -30 -84 -39.5t-125 -9.5zM575 1505l-253 254h217l213 -254h-177z" />
    <glyph glyph-name="uni1EB3.ss01" horiz-adv-x="1333" 
d="M604 -25q-109 0 -207.5 41.5t-171.5 115.5t-116 183.5t-43 237.5q0 131 43.5 242t118 186t176.5 116.5t217 41.5q109 0 197.5 -37.5t142.5 -106.5h8v115h233v-1110h-233v158h-8q-49 -90 -141 -136.5t-216 -46.5zM643 190q151 0 244.5 105.5t93.5 263.5q0 157 -93.5 262
t-244.5 105q-152 0 -246 -105t-94 -262q0 -158 94 -263.5t246 -105.5zM655 1225q-80 0 -125 9.5t-84 39.5q-41 35 -69 127q-19 75 -21 102h136q8 -36 24 -73q16 -38 45 -50q13 -8 94 -8q79 0 95 8q29 12 45 50q16 37 24 73h135q-2 -32 -20 -102q-28 -90 -70 -127
q-39 -30 -84 -39.5t-125 -9.5zM588 1536q0 33 13.5 53.5t55.5 46.5q68 37 68 86q0 21 -19 36.5t-47 15.5q-54 0 -102 -54l-76 76q64 94 187 100q90 0 148 -46t58 -115q0 -60 -31.5 -101.5t-99.5 -79.5q-16 -9 -23 -17.5t-8 -15t-1 -22.5v-4h-123v41z" />
    <glyph glyph-name="uni1EB5.ss01" horiz-adv-x="1333" 
d="M604 -25q-109 0 -207.5 41.5t-171.5 115.5t-116 183.5t-43 237.5q0 131 43.5 242t118 186t176.5 116.5t217 41.5q109 0 197.5 -37.5t142.5 -106.5h8v115h233v-1110h-233v158h-8q-49 -90 -141 -136.5t-216 -46.5zM643 190q151 0 244.5 105.5t93.5 263.5q0 157 -93.5 262
t-244.5 105q-152 0 -246 -105t-94 -262q0 -158 94 -263.5t246 -105.5zM494 1575q0 122 56.5 196t133.5 74q67 0 150 -65q77 -62 116 -62q34 0 55 43t21 103h127q0 -128 -58 -208.5t-145 -80.5q-67 0 -137 55q-78 60 -117 60q-35 0 -55 -32.5t-20 -82.5h-127zM655 1225
q-80 0 -125 9.5t-84 39.5q-41 35 -69 127q-19 75 -21 102h136q8 -36 24 -73q16 -38 45 -50q13 -8 94 -8q79 0 95 8q29 12 45 50q16 37 24 73h135q-2 -32 -20 -102q-28 -90 -70 -127q-39 -30 -84 -39.5t-125 -9.5z" />
    <glyph glyph-name="acircumflex.ss01" horiz-adv-x="1333" 
d="M604 -25q-109 0 -207.5 41.5t-171.5 115.5t-116 183.5t-43 237.5q0 131 43.5 242t118 186t176.5 116.5t217 41.5q109 0 197.5 -37.5t142.5 -106.5h8v115h233v-1110h-233v158h-8q-49 -90 -141 -136.5t-216 -46.5zM643 190q151 0 244.5 105.5t93.5 263.5q0 157 -93.5 262
t-244.5 105q-152 0 -246 -105t-94 -262q0 -158 94 -263.5t246 -105.5zM307 1239l262 270h172l263 -270h-197l-143 131h-17l-143 -131h-197z" />
    <glyph glyph-name="uni1EA5.ss01" horiz-adv-x="1333" 
d="M604 -25q-109 0 -207.5 41.5t-171.5 115.5t-116 183.5t-43 237.5q0 131 43.5 242t118 186t176.5 116.5t217 41.5q109 0 197.5 -37.5t142.5 -106.5h8v115h233v-1110h-233v158h-8q-49 -90 -141 -136.5t-216 -46.5zM643 190q151 0 244.5 105.5t93.5 263.5q0 157 -93.5 262
t-244.5 105q-152 0 -246 -105t-94 -262q0 -158 94 -263.5t246 -105.5zM844 1419l221 254h217l-254 -254h-184zM319 1235l256 252h160l256 -252h-190l-137 115h-17l-137 -115h-191z" />
    <glyph glyph-name="uni1EAD.ss01" horiz-adv-x="1333" 
d="M604 -25q-109 0 -207.5 41.5t-171.5 115.5t-116 183.5t-43 237.5q0 131 43.5 242t118 186t176.5 116.5t217 41.5q109 0 197.5 -37.5t142.5 -106.5h8v115h233v-1110h-233v158h-8q-49 -90 -141 -136.5t-216 -46.5zM643 190q151 0 244.5 105.5t93.5 263.5q0 157 -93.5 262
t-244.5 105q-152 0 -246 -105t-94 -262q0 -158 94 -263.5t246 -105.5zM307 1239l262 270h172l263 -270h-197l-143 131h-17l-143 -131h-197zM629 -377q-48 0 -83.5 34.5t-35.5 84.5q0 47 36 83t83 36q50 0 84.5 -35.5t34.5 -83.5q0 -51 -34 -85t-85 -34z" />
    <glyph glyph-name="uni1EA7.ss01" horiz-adv-x="1333" 
d="M604 -25q-109 0 -207.5 41.5t-171.5 115.5t-116 183.5t-43 237.5q0 131 43.5 242t118 186t176.5 116.5t217 41.5q109 0 197.5 -37.5t142.5 -106.5h8v115h233v-1110h-233v158h-8q-49 -90 -141 -136.5t-216 -46.5zM643 190q151 0 244.5 105.5t93.5 263.5q0 157 -93.5 262
t-244.5 105q-152 0 -246 -105t-94 -262q0 -158 94 -263.5t246 -105.5zM944 1403l-254 254h217l221 -254h-184zM319 1235l256 252h160l256 -252h-190l-137 115h-17l-137 -115h-191z" />
    <glyph glyph-name="uni1EA9.ss01" horiz-adv-x="1333" 
d="M604 -25q-109 0 -207.5 41.5t-171.5 115.5t-116 183.5t-43 237.5q0 131 43.5 242t118 186t176.5 116.5t217 41.5q109 0 197.5 -37.5t142.5 -106.5h8v115h233v-1110h-233v158h-8q-49 -90 -141 -136.5t-216 -46.5zM643 190q151 0 244.5 105.5t93.5 263.5q0 157 -93.5 262
t-244.5 105q-152 0 -246 -105t-94 -262q0 -158 94 -263.5t246 -105.5zM872 1434q0 33 14 53.5t56 46.5q68 37 68 86q0 21 -18.5 36t-47.5 15q-55 0 -102 -53l-76 76q64 94 186 100q90 0 148.5 -46.5t58.5 -115.5q0 -60 -31.5 -101t-99.5 -79q-23 -12 -28 -22.5t-5 -32.5v-4
h-123v41zM319 1235l256 252h160l256 -252h-190l-137 115h-17l-137 -115h-191z" />
    <glyph glyph-name="uni1EAB.ss01" horiz-adv-x="1333" 
d="M604 -25q-109 0 -207.5 41.5t-171.5 115.5t-116 183.5t-43 237.5q0 131 43.5 242t118 186t176.5 116.5t217 41.5q109 0 197.5 -37.5t142.5 -106.5h8v115h233v-1110h-233v158h-8q-49 -90 -141 -136.5t-216 -46.5zM643 190q151 0 244.5 105.5t93.5 263.5q0 157 -93.5 262
t-244.5 105q-152 0 -246 -105t-94 -262q0 -158 94 -263.5t246 -105.5zM381 1536q0 117 58.5 194.5t135.5 77.5q67 0 150 -65q77 -62 117 -62q34 0 55 43t21 103h131q0 -133 -59 -212t-148 -79q-67 0 -137 55q-78 60 -117 60q-35 0 -55.5 -33t-20.5 -82h-131zM319 1235
l256 252h160l256 -252h-190l-137 115h-17l-137 -115h-191z" />
    <glyph glyph-name="uni1EA1.ss01" horiz-adv-x="1333" 
d="M604 -25q-109 0 -207.5 41.5t-171.5 115.5t-116 183.5t-43 237.5q0 131 43.5 242t118 186t176.5 116.5t217 41.5q109 0 197.5 -37.5t142.5 -106.5h8v115h233v-1110h-233v158h-8q-49 -90 -141 -136.5t-216 -46.5zM643 190q151 0 244.5 105.5t93.5 263.5q0 157 -93.5 262
t-244.5 105q-152 0 -246 -105t-94 -262q0 -158 94 -263.5t246 -105.5zM629 -377q-48 0 -83.5 34.5t-35.5 84.5q0 47 36 83t83 36q50 0 84.5 -35.5t34.5 -83.5q0 -51 -34 -85t-85 -34z" />
    <glyph glyph-name="agrave.ss01" horiz-adv-x="1333" 
d="M604 -25q-109 0 -207.5 41.5t-171.5 115.5t-116 183.5t-43 237.5q0 131 43.5 242t118 186t176.5 116.5t217 41.5q109 0 197.5 -37.5t142.5 -106.5h8v115h233v-1110h-233v158h-8q-49 -90 -141 -136.5t-216 -46.5zM643 190q151 0 244.5 105.5t93.5 263.5q0 157 -93.5 262
t-244.5 105q-152 0 -246 -105t-94 -262q0 -158 94 -263.5t246 -105.5zM588 1278l-279 278h242l237 -278h-200z" />
    <glyph glyph-name="uni1EA3.ss01" horiz-adv-x="1333" 
d="M604 -25q-109 0 -207.5 41.5t-171.5 115.5t-116 183.5t-43 237.5q0 131 43.5 242t118 186t176.5 116.5t217 41.5q109 0 197.5 -37.5t142.5 -106.5h8v115h233v-1110h-233v158h-8q-49 -90 -141 -136.5t-216 -46.5zM643 190q151 0 244.5 105.5t93.5 263.5q0 157 -93.5 262
t-244.5 105q-152 0 -246 -105t-94 -262q0 -158 94 -263.5t246 -105.5zM559 1276q0 33 14 53.5t56 46.5q67 37 67 86q0 21 -18.5 36t-46.5 15q-32 0 -60.5 -15t-42.5 -38l-86 86q77 103 211 103q92 0 152.5 -48.5t60.5 -125.5q0 -113 -139 -181q-23 -11 -28 -22t-5 -33v-12
h-135v49z" />
    <glyph glyph-name="atilde.ss01" horiz-adv-x="1333" 
d="M604 -25q-109 0 -207.5 41.5t-171.5 115.5t-116 183.5t-43 237.5q0 131 43.5 242t118 186t176.5 116.5t217 41.5q109 0 197.5 -37.5t142.5 -106.5h8v115h233v-1110h-233v158h-8q-49 -90 -141 -136.5t-216 -46.5zM643 190q151 0 244.5 105.5t93.5 263.5q0 157 -93.5 262
t-244.5 105q-152 0 -246 -105t-94 -262q0 -158 94 -263.5t246 -105.5zM336 1260q0 120 57.5 200t138.5 80q77 -3 156 -65q73 -54 111 -54q57 0 57 129h139q0 -137 -50.5 -213.5t-143.5 -76.5q-70 0 -146 55q-73 52 -112 55q-35 0 -53.5 -30.5t-18.5 -79.5h-135z" />
    <glyph glyph-name="g.ss01" horiz-adv-x="1333" 
d="M678 -467l-467 6v217l463 -6q148 -1 221.5 67.5t73.5 192.5v133h-8q-41 -76 -137 -122t-208 -46q-243 0 -396.5 163t-153.5 415q0 131 43.5 242t118 186t176.5 116.5t217 41.5q109 0 197.5 -41t142.5 -117h8v129h233v-1118q0 -103 -29 -185t-90 -145t-164 -96.5
t-241 -32.5zM643 190q151 0 244.5 105.5t93.5 263.5q0 157 -93.5 262t-244.5 105q-152 0 -246 -105t-94 -262q0 -158 94 -263.5t246 -105.5z" />
    <glyph glyph-name="x.ss01" horiz-adv-x="1226" 
d="M973 -25l-363 408l-364 -408l-168 148l385 424l-381 428l172 164l362 -406l359 406l168 -148l-377 -426l379 -424z" />
    <glyph glyph-name="f_f_t" horiz-adv-x="2027" 
d="M168 0v934h-98v176h98v225q0 230 229 230h221v-213h-102q-60 0 -87.5 -28.5t-27.5 -100.5v-113h410v225q0 230 229 230h263v-213h-144q-60 0 -87.5 -28.5t-27.5 -100.5v-113h398v274h233v-274h299v-176h-299v-592q0 -72 27.5 -100.5t87.5 -28.5h184v-213h-303
q-229 0 -229 229v705h-398v-934h-233v934h-410v-934h-233z" />
    <glyph glyph-name="f_t" horiz-adv-x="1384" 
d="M168 0v934h-98v176h98v225q0 230 229 230h262v-213h-143q-60 0 -87.5 -28.5t-27.5 -100.5v-113h398v274h233v-274h299v-176h-299v-592q0 -72 27.5 -100.5t87.5 -28.5h184v-213h-303q-229 0 -229 229v705h-398v-934h-233z" />
    <glyph glyph-name="t_r" horiz-adv-x="1513" 
d="M385 0q-229 0 -229 229v705h-95v176h95v274h233v-274h655v-156h9q19 75 86.5 123.5t183.5 48.5h133v-217h-133q-143 0 -211 -74t-68 -229v-606h-233v934h-422v-592q0 -72 27.5 -100.5t87.5 -28.5h108v-213h-227z" />
    <glyph glyph-name="t_t" horiz-adv-x="1380" 
d="M385 0q-229 0 -229 229v705h-95v176h95v274h233v-274h406v274h233v-274h299v-176h-299v-592q0 -72 27.5 -100.5t87.5 -28.5h184v-213h-303q-229 0 -229 229v705h-406v-592q0 -72 27.5 -100.5t87.5 -28.5h108v-213h-227z" />
    <glyph glyph-name="zero.tf" horiz-adv-x="1302" 
d="M651 -25q-143 0 -253 65.5t-176.5 179t-100 255.5t-33.5 305q0 130 20.5 246.5t65 219t109.5 177t159 117.5t209 43t209.5 -43t159.5 -117.5t109 -177t64.5 -219t20.5 -246.5q0 -164 -33 -305.5t-99.5 -255t-177 -179t-253.5 -65.5zM651 186q73 0 130.5 36t93 94
t59 137.5t32.5 159.5t9 167q0 110 -16 208.5t-51 188t-101 142.5t-156 53q-72 0 -129 -36t-93 -93.5t-59 -137t-32.5 -159t-9.5 -166.5t9.5 -167t32.5 -159.5t59 -137.5t93 -94t129 -36z" />
    <glyph glyph-name="one.tf" horiz-adv-x="1302" 
d="M135 0v225h500v1057h-8l-385 -197l-95 193l537 283h193v-1336h307v-225h-1049z" />
    <glyph glyph-name="two.tf" horiz-adv-x="1302" 
d="M150 0v217l454 447q149 147 217 245.5t68 198.5q0 120 -72 187t-186 67t-187 -72t-73 -184h-234q0 214 139.5 344.5t364.5 130.5q137 0 248.5 -56t177.5 -162t66 -243q0 -144 -70 -262.5t-244 -290.5l-325 -329v-9h655v-229h-999z" />
    <glyph glyph-name="three.tf" horiz-adv-x="1302" 
d="M606 -25q-161 0 -289 61t-188 140l166 168q133 -139 326 -139q109 0 188.5 71.5t79.5 184.5q0 110 -76.5 182t-208.5 72h-108v205h114q107 0 172.5 67.5t65.5 167.5q0 98 -66.5 154.5t-158.5 56.5q-145 0 -293 -143l-150 149q67 83 190.5 148t258.5 65q200 0 329 -113.5
t129 -300.5q0 -127 -61.5 -217t-144.5 -125v-8q102 -25 177 -123t75 -241q0 -218 -148 -350t-379 -132z" />
    <glyph glyph-name="four.tf" horiz-adv-x="1302" 
d="M780 0v315h-708v177l692 1069h258v-1037h176v-209h-176v-315h-242zM354 524h426v662h-8l-418 -654v-8z" />
    <glyph glyph-name="five.tf" horiz-adv-x="1302" 
d="M680 -25q-113 0 -205.5 31t-151 79t-98.5 109.5t-56.5 119t-16.5 110.5l243 -2q0 -23 15 -56t45.5 -69.5t89.5 -62t133 -25.5q134 0 213.5 87t79.5 228q1 144 -75 228t-204 84q-181 0 -297 -158l-217 117l88 766h862v-230h-671l-47 -391h8q118 109 311 109
q215 0 349.5 -142.5t133.5 -380.5q0 -245 -150 -398t-382 -153z" />
    <glyph glyph-name="six.tf" horiz-adv-x="1302" 
d="M684 -25q-228 0 -380 145.5t-152 373.5q0 146 75 323q41 92 131 244l304 500h272l-340 -562h8q56 27 143 27q128 0 236 -67t172 -186t64 -263q0 -113 -41 -212.5t-111.5 -170.5t-169.5 -111.5t-211 -40.5zM686 205q130 0 211.5 86t81.5 219q0 132 -82 217.5t-211 85.5
q-128 0 -210.5 -86t-82.5 -217q0 -133 82.5 -219t210.5 -86z" />
    <glyph glyph-name="seven.tf" horiz-adv-x="1302" 
d="M307 0l291 635h-375v233l479 -4l209 459v8h-798l4 230h1071v-205l-221 -494l161 -2v-225h-264l-284 -635h-273z" />
    <glyph glyph-name="eight.tf" horiz-adv-x="1302" 
d="M645 -27q-145 0 -263 58t-188.5 168.5t-70.5 253.5q0 77 23 145.5t61 116.5t81.5 81t88.5 50v8q-79 36 -142 122.5t-63 201.5q0 124 67 219t173.5 142.5t232.5 47.5q125 0 231 -47.5t173 -142.5t67 -219q0 -116 -59.5 -202.5t-136.5 -121.5v-8q98 -37 171.5 -140.5
t73.5 -252.5q0 -143 -70.5 -253.5t-188 -168.5t-261.5 -58zM645 195q120 0 199.5 76.5t79.5 195.5q0 118 -80 195t-199 77t-199.5 -77t-80.5 -195q0 -119 80 -195.5t200 -76.5zM645 940q100 0 163.5 61t63.5 152t-63.5 152t-163.5 61q-101 0 -165 -61t-64 -152t64 -152
t165 -61z" />
    <glyph glyph-name="nine.tf" horiz-adv-x="1302" 
d="M403 0l334 567h-8q-54 -28 -133 -28q-103 0 -194.5 41t-157 110t-104 164.5t-38.5 200.5q0 227 156 378.5t383 151.5q240 0 389.5 -140.5t149.5 -367.5q0 -122 -43 -235.5t-148 -298.5l-311 -543h-275zM637 752q127 0 211 87t84 222q0 131 -82.5 213t-212.5 82
t-213.5 -85t-83.5 -216q0 -127 82 -215t215 -88z" />
    <glyph glyph-name="zero.dnom" horiz-adv-x="716" 
d="M358 -12q-76 0 -135.5 34t-94.5 92t-53 130.5t-18 154.5t18 154t53 130.5t94.5 93t135.5 34.5q77 0 136.5 -34.5t94.5 -93t52.5 -130.5t17.5 -154q0 -83 -17.5 -155t-52.5 -130t-94.5 -92t-136.5 -34zM358 135q39 0 67.5 22.5t43.5 61.5t22 83.5t7 96.5q0 51 -7 95
t-22 83.5t-43.5 62t-67.5 22.5t-67.5 -22.5t-43.5 -62t-21.5 -83.5t-6.5 -95q0 -52 6.5 -96t21.5 -83.5t43.5 -62t67.5 -22.5z" />
    <glyph glyph-name="one.dnom" horiz-adv-x="450" 
d="M186 0v600h-4l-96 -65l-74 118l213 146h123v-799h-162z" />
    <glyph glyph-name="two.dnom" horiz-adv-x="651" 
d="M61 2v137l226 221q69 68 100 112t31 87q0 100 -103 100q-53 0 -80 -33t-20 -91h-160q-7 123 66.5 199.5t197.5 76.5q112 0 187.5 -68t75.5 -178q0 -76 -37 -139.5t-125 -144.5l-119 -119v-4h289v-156h-529z" />
    <glyph glyph-name="three.dnom" horiz-adv-x="618" 
d="M281 -12q-94 0 -166.5 39.5t-94.5 83.5l109 110q19 -22 32 -34.5t45 -27t70 -14.5q53 0 85 27t32 74q0 46 -28.5 73t-85.5 27h-76v143h78q45 0 68.5 25.5t23.5 67.5q0 38 -23.5 57.5t-62.5 19.5q-25 0 -48.5 -8t-39.5 -20t-32 -25t-24 -22l-98 98q22 42 95.5 85.5
t150.5 43.5q105 0 174.5 -61t69.5 -160q0 -69 -33 -116t-70 -52v-4q45 -5 85 -52t40 -122q0 -116 -78 -186t-198 -70z" />
    <glyph glyph-name="four.dnom" horiz-adv-x="653" 
d="M367 0v154h-342v114l344 531h159v-500h93v-145h-93v-154h-161zM223 299h144v217h-5l-139 -213v-4z" />
    <glyph glyph-name="five.dnom" horiz-adv-x="673" 
d="M336 -12q-64 0 -115.5 19.5t-82.5 49t-51 65.5t-26 69t-2 59h150q0 -42 31.5 -72.5t91.5 -30.5q54 0 88.5 34.5t34.5 94.5t-32.5 93.5t-84.5 33.5q-46 0 -75.5 -18.5t-55.5 -58.5l-137 69l47 404h458v-156h-325l-17 -135h5q51 43 124 43q111 0 182.5 -75t71.5 -200
q0 -128 -79.5 -208t-200.5 -80z" />
    <glyph glyph-name="six.dnom" horiz-adv-x="641" 
d="M317 -12q-121 0 -200.5 76.5t-79.5 197.5q0 82 39 164q23 57 65 121l152 252h184l-160 -264h5q15 6 45 6q91 0 160 -79t69 -192q0 -121 -80 -201.5t-199 -80.5zM317 141q55 0 87 34t32 91t-32 91t-87 34q-54 0 -86 -34t-32 -91t32 -91t86 -34z" />
    <glyph glyph-name="seven.dnom" horiz-adv-x="571" 
d="M94 0l258 637v4h-336l2 158h521v-125l-269 -674h-176z" />
    <glyph glyph-name="eight.dnom" horiz-adv-x="655" 
d="M328 -12q-116 0 -195.5 69.5t-79.5 180.5q0 79 40.5 132t82.5 60v4q-32 3 -65 49t-33 109q0 100 74.5 160.5t175.5 60.5t175.5 -60.5t74.5 -160.5q0 -64 -32.5 -110t-64.5 -48v-4q43 -9 82 -61t39 -131q0 -111 -79.5 -180.5t-194.5 -69.5zM328 139q50 0 81 29.5t31 79.5
t-31 80t-81 30t-81.5 -30t-31.5 -80t31.5 -79.5t81.5 -29.5zM328 500q40 0 63 22t23 58t-22.5 57.5t-63.5 21.5t-63.5 -21.5t-22.5 -57.5t23 -58t63 -22z" />
    <glyph glyph-name="nine.dnom" horiz-adv-x="638" 
d="M166 2l158 268h-5q-11 -8 -47 -8q-99 0 -167 79.5t-68 193.5q0 118 81.5 198t200.5 80q125 0 204 -75t79 -193q0 -62 -22 -122.5t-72 -146.5l-158 -274h-184zM317 416q55 0 88 33.5t33 91.5q0 57 -32.5 89t-88.5 32q-55 0 -87.5 -33.5t-32.5 -89.5q0 -55 31.5 -89
t88.5 -34z" />
    <glyph glyph-name="zero.numr" horiz-adv-x="716" 
d="M358 709q-76 0 -135.5 34t-94.5 92t-53 130.5t-18 154.5t18 154t53 130.5t94.5 93t135.5 34.5q77 0 136.5 -34.5t94.5 -93t52.5 -130.5t17.5 -154q0 -83 -17.5 -155t-52.5 -130t-94.5 -92t-136.5 -34zM358 856q39 0 67.5 22.5t43.5 61.5t22 83.5t7 96.5q0 51 -7 95
t-22 83t-43.5 61.5t-67.5 22.5t-67.5 -22.5t-43.5 -61.5t-21.5 -83t-6.5 -95q0 -52 6.5 -96t21.5 -83.5t43.5 -62t67.5 -22.5z" />
    <glyph glyph-name="one.numr" horiz-adv-x="450" 
d="M186 721v600h-4l-96 -66l-74 119l213 146h123v-799h-162z" />
    <glyph glyph-name="two.numr" horiz-adv-x="651" 
d="M61 723v137l226 221q69 68 100 112t31 87q0 100 -103 100q-53 0 -80 -33.5t-20 -91.5h-160q-7 123 67 200t197 77q112 0 187.5 -68t75.5 -178q0 -77 -37 -140.5t-125 -144.5l-119 -118v-4h289v-156h-529z" />
    <glyph glyph-name="three.numr" horiz-adv-x="618" 
d="M281 709q-94 0 -166.5 39.5t-94.5 82.5l109 111q19 -22 32 -34.5t45 -27t70 -14.5q53 0 85 27t32 74q0 46 -28.5 73t-85.5 27h-76v143h78q45 0 68.5 25.5t23.5 67.5q0 38 -23.5 57.5t-62.5 19.5q-11 0 -22 -1.5t-21.5 -5t-19 -7t-18 -10t-15 -10t-15 -11t-12.5 -10.5
t-11.5 -11t-9.5 -9l-98 98q22 42 95.5 85.5t150.5 43.5q105 0 174.5 -61t69.5 -160q0 -69 -33 -116t-70 -52v-4q45 -5 85 -52t40 -122q0 -116 -78 -186t-198 -70z" />
    <glyph glyph-name="four.numr" horiz-adv-x="653" 
d="M367 721v153h-342v115l344 531h159v-500h93v-146h-93v-153h-161zM223 1020h144v217h-5l-139 -213v-4z" />
    <glyph glyph-name="five.numr" horiz-adv-x="673" 
d="M336 709q-64 0 -115.5 19.5t-82.5 49t-51 65.5t-26 69t-2 59h150q0 -42 31.5 -72.5t91.5 -30.5q54 0 88.5 34.5t34.5 94.5t-32.5 93.5t-84.5 33.5q-46 0 -75.5 -18.5t-55.5 -58.5l-137 69l47 404h458v-156h-325l-17 -135h5q51 43 124 43q111 0 182.5 -75t71.5 -200
q0 -128 -79.5 -208t-200.5 -80z" />
    <glyph glyph-name="six.numr" horiz-adv-x="641" 
d="M317 709q-121 0 -200.5 76.5t-79.5 197.5q0 82 39 164q23 57 65 121l152 252h184l-160 -265h5q17 7 45 7q91 0 160 -79t69 -192q0 -121 -80 -201.5t-199 -80.5zM317 862q55 0 87 34t32 91t-32 91t-87 34q-54 0 -86 -34t-32 -91t32 -91t86 -34z" />
    <glyph glyph-name="seven.numr" horiz-adv-x="571" 
d="M94 721l258 637v4h-336l2 158h521v-125l-269 -674h-176z" />
    <glyph glyph-name="eight.numr" horiz-adv-x="655" 
d="M328 709q-116 0 -195.5 69t-79.5 180q0 79 40.5 132.5t82.5 60.5v4q-32 3 -65 49t-33 109q0 100 74.5 160.5t175.5 60.5t175.5 -60.5t74.5 -160.5q0 -64 -32.5 -110t-64.5 -48v-4q43 -9 82 -61.5t39 -131.5q0 -111 -79 -180t-195 -69zM328 860q50 0 81 29.5t31 79.5
t-31 80t-81 30t-81.5 -30t-31.5 -80t31.5 -79.5t81.5 -29.5zM328 1221q41 0 63.5 21.5t22.5 57.5t-23 58t-63 22t-63 -22t-23 -58t22.5 -57.5t63.5 -21.5z" />
    <glyph glyph-name="nine.numr" horiz-adv-x="638" 
d="M166 723l158 268h-5q-11 -8 -47 -8q-99 0 -167 79t-68 193q0 118 81.5 198.5t200.5 80.5q125 0 204 -75t79 -193q0 -62 -22 -122.5t-72 -146.5l-158 -274h-184zM317 1137q55 0 88 33.5t33 91.5q0 57 -32.5 88.5t-88.5 31.5q-55 0 -87.5 -33t-32.5 -89q0 -55 31.5 -89
t88.5 -34z" />
    <glyph glyph-name="colon.case" horiz-adv-x="475" 
d="M238 197q-65 0 -110.5 45.5t-45.5 109.5q0 66 45.5 111t110.5 45q66 0 110.5 -45t44.5 -111q0 -65 -44.5 -110t-110.5 -45zM238 958q-64 0 -110 46t-46 110q0 66 45.5 111t110.5 45q66 0 110.5 -45t44.5 -111q0 -65 -44.5 -110.5t-110.5 -45.5z" />
    <glyph glyph-name="hyphen.case" horiz-adv-x="921" 
d="M123 647v189h676v-189h-676z" />
    <glyph glyph-name="endash.case" horiz-adv-x="1187" 
d="M123 647v189h942v-189h-942z" />
    <glyph glyph-name="emdash.case" horiz-adv-x="2068" 
d="M123 647v189h1823v-189h-1823z" />
    <glyph glyph-name="parenleft.case" horiz-adv-x="747" 
d="M512 -139q-369 434 -369 930q0 251 95.5 486t273.5 443l154 -116q-142 -166 -227 -380t-85 -433q0 -215 84.5 -430t225.5 -386z" />
    <glyph glyph-name="parenright.case" horiz-adv-x="747" 
d="M84 -25q140 171 224.5 385.5t84.5 430.5q0 219 -85 433t-226 380l154 116q368 -430 368 -929q0 -497 -368 -930z" />
    <glyph glyph-name="braceleft.case" horiz-adv-x="741" 
d="M610 -152q-155 0 -249.5 91.5t-94.5 244.5v324q0 95 -37.5 150t-109.5 55v131q72 0 109.5 55t37.5 150v323q0 153 94.5 244.5t249.5 91.5h62v-164h-23q-89 0 -135.5 -55t-46.5 -154v-323q0 -179 -148 -230v-8q148 -51 148 -223v-330q0 -97 46.5 -153t135.5 -56h23v-164
h-62z" />
    <glyph glyph-name="braceright.case" horiz-adv-x="741" 
d="M131 -152h-61v164h22q89 0 135.5 56t46.5 153v330q0 172 148 223v8q-148 51 -148 230v323q0 99 -46.5 154t-135.5 55h-22v164h61q155 0 249.5 -91.5t94.5 -244.5v-323q0 -95 38 -150t110 -55v-131q-72 0 -110 -55t-38 -150v-324q0 -153 -94.5 -244.5t-249.5 -91.5z" />
    <glyph glyph-name="bracketleft.case" horiz-adv-x="763" 
d="M266 -156v1860h428v-172h-217v-1516h217v-172h-428z" />
    <glyph glyph-name="bracketright.case" horiz-adv-x="763" 
d="M498 -156h-428v172h217v1516h-217v172h428v-1860z" />
    <glyph glyph-name="at.case" horiz-adv-x="1949" 
d="M1038 -143q-194 -5 -348.5 35.5t-261.5 118t-177.5 191.5t-103 250.5t-32.5 299.5q0 187 65 351.5t180 284.5t283 189.5t365 69.5q259 0 448 -103.5t286 -289.5t97 -435q0 -253 -96 -402t-270 -149q-94 0 -157 48.5t-87 119.5h-8q-100 -165 -330 -168q-140 0 -226.5 76.5
t-86.5 196.5q0 127 97 207.5t269 80.5h250v43q0 88 -61 134.5t-160 46.5q-155 0 -242 -103l-117 113q62 73 162 118.5t213 45.5q189 0 292 -99t103 -278v-250q0 -158 101 -158q83 0 124.5 100.5t41.5 274.5q0 142 -41 262t-119.5 209.5t-202 140t-280.5 50.5
q-206 0 -367.5 -94.5t-249.5 -259.5t-88 -373q0 -134 24.5 -244.5t79.5 -203t139 -154.5t208.5 -94.5t283.5 -28.5l285 6v-168zM915 438q123 0 201 68t78 168v12h-246q-186 0 -186 -127q0 -57 40 -89t113 -32z" />
    <glyph glyph-name="plus.case" horiz-adv-x="1253" 
d="M524 168v412h-389v196h389v412h205v-412h389v-196h-389v-412h-205z" />
    <glyph glyph-name="minus.case" horiz-adv-x="1171" 
d="M135 580v196h901v-196h-901z" />
    <glyph glyph-name="multiply.case" horiz-adv-x="1193" 
d="M264 279l334 333l332 -333l137 135l-334 334l334 333l-137 136l-332 -332l-334 332l-137 -136l471 -469l135 136l-135 137l-471 -471z" />
    <glyph glyph-name="divide.case" horiz-adv-x="1212" 
d="M135 647v197h942v-197h-942zM606 254q-56 0 -95.5 40t-39.5 95t39.5 95t95.5 40t95.5 -40t39.5 -95t-39.5 -95t-95.5 -40zM606 967q-56 0 -95.5 39.5t-39.5 95.5t39.5 95.5t95.5 39.5t95.5 -39.5t39.5 -95.5t-39.5 -95.5t-95.5 -39.5z" />
    <glyph glyph-name="equal.case" horiz-adv-x="1253" 
d="M135 905v197h983v-197h-983zM135 414v196h983v-196h-983z" />
    <glyph glyph-name="greater.case" horiz-adv-x="1310" 
d="M254 166v219l647 324v8l-647 336v223l926 -500v-127z" />
    <glyph glyph-name="less.case" horiz-adv-x="1310" 
d="M1057 166l-926 483v127l926 500v-223l-647 -336v-8l647 -324v-219z" />
    <glyph glyph-name="arrowright.case" horiz-adv-x="1630" 
d="M940 154l-131 131l358 358h-1020v197h1020l-358 358l131 131l588 -588z" />
    <glyph glyph-name="arrowleft.case" horiz-adv-x="1630" 
d="M102 741l588 588l131 -131l-358 -358h1020v-197h-1020l358 -358l-131 -131z" />
    <glyph glyph-name="arrowboth.case" horiz-adv-x="2416" 
d="M1726 154l-131 131l359 358h-1491l358 -358l-131 -131l-588 587l588 588l131 -131l-358 -358h1491l-359 358l131 131l588 -588z" />
    <glyph glyph-name="uni03060301" horiz-adv-x="0" 
d="M295 1180q-84 0 -127 8.5t-82 40.5q-46 37 -70 127q-14 54 -20 102h135q7 -34 25 -74q16 -36 45 -49q13 -8 94 -8q78 0 94 8q29 13 45 49q18 40 25 74h135q-5 -40 -21 -102q-25 -91 -69 -127q-39 -32 -82 -40.5t-127 -8.5zM203 1468l213 254h217l-254 -254h-176z" />
    <glyph glyph-name="uni03060300" horiz-adv-x="0" 
d="M332 1180q-80 0 -125 9.5t-84 39.5q-42 37 -70 127q-18 70 -20 102h135q8 -34 25 -74q16 -36 45 -49q13 -8 94 -8q78 0 94 8q29 13 45 49q17 40 25 74h135q-2 -27 -21 -102q-28 -92 -69 -127q-39 -30 -84 -39.5t-125 -9.5zM252 1456l-254 254h217l213 -254h-176z" />
    <glyph glyph-name="uni03060309" horiz-adv-x="0" 
d="M297 1176q-80 0 -125 9.5t-84 39.5q-42 37 -70 127q-18 70 -20 102h135q7 -34 25 -74q16 -36 45 -49q13 -8 94 -8q78 0 94 8q29 13 45 49q18 40 25 74h135q-2 -27 -21 -102q-28 -92 -69 -127q-39 -30 -84 -39.5t-125 -9.5zM229 1487q0 33 14 53.5t56 46.5q68 37 68 86
q0 21 -18.5 36t-47.5 15q-55 0 -102 -53l-76 76q64 94 186 100q90 0 148.5 -46t58.5 -115q0 -60 -31.5 -101.5t-99.5 -79.5q-23 -12 -28 -22.5t-5 -32.5v-4h-123v41z" />
    <glyph glyph-name="uni03060303" horiz-adv-x="0" 
d="M131 1526q0 122 56.5 196t134.5 74q66 0 149 -65q77 -62 117 -62q34 0 55 43t21 103h127q0 -128 -58 -208.5t-145 -80.5q-67 0 -137 55q-77 59 -117 59q-36 0 -56 -32.5t-20 -81.5h-127zM293 1176q-80 0 -125 9.5t-84 39.5q-42 37 -70 127q-18 70 -20 102h135
q7 -34 25 -74q16 -36 45 -49q13 -8 94 -8q78 0 94 8q29 13 45 49q18 40 25 74h135q-2 -27 -21 -102q-28 -92 -69 -127q-39 -30 -84 -39.5t-125 -9.5z" />
    <glyph glyph-name="uni03020301" horiz-adv-x="0" 
d="M524 1362l221 254h218l-254 -254h-185zM0 1178l256 252h160l256 -252h-191l-137 114h-16l-138 -114h-190z" />
    <glyph glyph-name="uni03020300" horiz-adv-x="0" 
d="M940 1346l-254 253h217l221 -253h-184zM315 1178l256 252h160l256 -252h-190l-138 114h-16l-137 -114h-191z" />
    <glyph glyph-name="uni03020309" horiz-adv-x="0" 
d="M520 1376q0 33 14 54t56 47q67 37 67 86q0 21 -18.5 36t-46.5 15q-56 0 -103 -53l-75 75q65 95 186 101q90 0 148.5 -46.5t58.5 -115.5q0 -60 -31.5 -101t-99.5 -79q-23 -12 -28 -23t-5 -33v-4h-123v41zM-33 1178l256 252h160l256 -252h-190l-138 114h-16l-137 -114h-191
z" />
    <glyph glyph-name="uni03020303" horiz-adv-x="0" 
d="M61 1479q0 117 59 194.5t136 77.5q67 0 150 -65q77 -62 116 -62q34 0 55 43t21 102h131q0 -133 -59 -211.5t-148 -78.5q-67 0 -137 55q-77 59 -117 59q-35 0 -55 -32.5t-20 -81.5h-132zM0 1178l256 252h160l256 -252h-191l-137 114h-16l-138 -114h-190z" />
    <glyph glyph-name="equivalent" horiz-adv-x="2449" 
d="M537 760l-136 -135l136 -136h1376l135 136l-135 135h-1376zM737 289l154 -154l-150 -149l-639 639l639 639l150 -150l-154 -153h975l-153 153l149 150l639 -639l-639 -639l-149 149l153 154h-975z" />
    <glyph glyph-name="implies" horiz-adv-x="1785" 
d="M147 760v201h902l-154 153l149 150l639 -639l-639 -639l-149 149l154 154h-902v200h1102l135 136l-135 135h-1102z" />
    <glyph glyph-name="equivalent.case" horiz-adv-x="2449" 
d="M537 883l-136 -135l136 -136h1376l135 136l-135 135h-1376zM737 412l154 -154l-150 -149l-639 639l639 638l150 -149l-154 -154h975l-153 154l149 149l639 -638l-639 -639l-149 149l153 154h-975z" />
    <glyph glyph-name="implies.case" horiz-adv-x="1785" 
d="M147 883v200h902l-154 154l149 149l639 -638l-639 -639l-149 149l154 154h-902v200h1102l135 136l-135 135h-1102z" />
    </font>
</defs>
</svg>
