<?xml version="1.0" standalone="no"?>
<!DOCTYPE svg PUBLIC "-//W3C//DTD SVG 1.1//EN" "http://www.w3.org/Graphics/SVG/1.1/DTD/svg11.dtd" >
<svg xmlns="http://www.w3.org/2000/svg" xmlns:xlink="http://www.w3.org/1999/xlink" version="1.1">
<metadata>
Created by FontForge 20201107 at Thu Oct 16 05:31:13 2025
 By 
Designed by BeauType Studio. All rights reserved.
</metadata>
<defs>
<font id="BT-BeauSans-Light" horiz-adv-x="1386" >
  <font-face 
    font-family="BT Beau Sans Light"
    font-weight="300"
    font-stretch="normal"
    units-per-em="2048"
    panose-1="0 0 0 0 0 0 0 0 0 0"
    ascent="1638"
    descent="-410"
    x-height="1104"
    cap-height="1554"
    bbox="-403 -758 2228 2314"
    underline-thickness="102"
    underline-position="-255"
    unicode-range="U+0020-2265"
  />
<missing-glyph horiz-adv-x="1536" 
d="M1260 2314v-3072h-973v3072h973zM1024 219h-510v-346h510v346zM922 119v-146h-308v146h308zM1024 752h-307v-172h104v69h101v-143h-308v246h-100v-349h510v349zM1024 1126h-102v-202h-408v-105h510v307zM1024 1311h-510v-103h203v-112h-203v-103h307v215h203v103z
M717 1608v-111h-103v111h103zM821 1712h-307v-319h510v104h-203v215zM1024 2109h-508v-102h201v-113h-203v-102h510v102h-203v113h203v102zM1024 -199h-510v-100h215l-215 -145v-101h510v101h-313l215 145h98v100z" />
    <glyph glyph-name="f_f" unicode="ff" horiz-adv-x="1318" 
d="M188 0v973h-86v131h86v178q0 229 230 229h180v-147h-127q-62 0 -92.5 -28.5t-30.5 -108.5v-123h451v178q0 229 229 229h209v-147h-156q-62 0 -92.5 -28.5t-30.5 -108.5v-123h279v-131h-279v-973h-159v973h-451v-973h-160z" />
    <glyph glyph-name="f_i" unicode="fi" horiz-adv-x="1030" 
d="M188 0v973h-86v131h86v178q0 229 230 229h180v-147h-127q-62 0 -92.5 -28.5t-30.5 -108.5v-123h567v-1104h-161v973h-406v-973h-160zM834 1225q-43 0 -74 31t-31 75q0 43 31 74t74 31q44 0 75 -31t31 -74q0 -44 -31 -75t-75 -31z" />
    <glyph glyph-name="f_l" unicode="fl" horiz-adv-x="1265" 
d="M188 0v973h-86v131h86v264q0 229 230 229h573v-1310q0 -81 29.5 -110.5t91.5 -29.5h102v-147h-155q-230 0 -230 229v1221h-358q-62 0 -92.5 -29t-30.5 -110v-207h291v-131h-291v-973h-160z" />
    <glyph glyph-name=".notdef" horiz-adv-x="1536" 
d="M1260 2314v-3072h-973v3072h973zM1024 219h-510v-346h510v346zM922 119v-146h-308v146h308zM1024 752h-307v-172h104v69h101v-143h-308v246h-100v-349h510v349zM1024 1126h-102v-202h-408v-105h510v307zM1024 1311h-510v-103h203v-112h-203v-103h307v215h203v103z
M717 1608v-111h-103v111h103zM821 1712h-307v-319h510v104h-203v215zM1024 2109h-508v-102h201v-113h-203v-102h510v102h-203v113h203v102zM1024 -199h-510v-100h215l-215 -145v-101h510v101h-313l215 145h98v100z" />
    <glyph glyph-name=".null" horiz-adv-x="0" 
 />
    <glyph glyph-name="nonmarkingreturn" horiz-adv-x="682" 
 />
    <glyph glyph-name="space" unicode=" " horiz-adv-x="540" 
 />
    <glyph glyph-name="space" unicode="&#xa0;" horiz-adv-x="540" 
 />
    <glyph glyph-name="exclam" unicode="!" horiz-adv-x="397" 
d="M131 442l-25 662v346h175v-344l-25 -664h-125zM199 -8q-54 0 -91.5 38t-37.5 91q0 55 37.5 92t91.5 37q55 0 92 -37t37 -92q0 -53 -37 -91t-92 -38z" />
    <glyph glyph-name="quotedbl" unicode="&#x22;" horiz-adv-x="591" 
d="M123 1124q-21 0 -30.5 6t-10.5 23l-25 365q-2 21 2 28.5t17 7.5h153q13 0 17 -7.5t2 -28.5l-25 -365q-1 -17 -10.5 -23t-30.5 -6h-59zM397 1124q-21 0 -30.5 6t-10.5 23l-24 365q-2 21 1.5 28.5t16.5 7.5h154q13 0 16.5 -7.5t1.5 -28.5l-24 -365q-1 -17 -10.5 -23
t-30.5 -6h-60z" />
    <glyph glyph-name="numbersign" unicode="#" horiz-adv-x="1570" 
d="M784 0l107 362h-420l-106 -362h-158l106 362h-227l41 142h227l107 356h-230l43 141h228l114 392h158l-115 -392h420l115 392h158l-115 -392h256l-41 -141h-256l-106 -356h258l-43 -142h-256l-107 -362h-158zM512 504h420l106 356h-420z" />
    <glyph glyph-name="dollar" unicode="$" horiz-adv-x="1214" 
d="M555 -147v124q-128 6 -229.5 64.5t-192.5 181.5l117 121q78 -105 149.5 -155t155.5 -58v637l-84 39q-307 145 -307 397q0 148 111 253.5t280 119.5v127h123v-129q221 -24 350 -193l-113 -112q-96 122 -237 147v-508l86 -41q153 -73 233 -181.5t80 -268.5
q0 -163 -111 -286.5t-288 -149.5v-129h-123zM334 1223q0 -78 55.5 -137t165.5 -115v450q-96 -9 -158.5 -63t-62.5 -135zM678 139q101 25 165 101.5t64 181.5q0 93 -64.5 165.5t-164.5 123.5v-572z" />
    <glyph glyph-name="percent" unicode="%" horiz-adv-x="1449" 
d="M166 0l983 1556h151l-983 -1556h-151zM1055 -16q-126 0 -215.5 89t-89.5 216q0 126 89.5 215.5t215.5 89.5t215.5 -89.5t89.5 -215.5q0 -127 -89.5 -216t-215.5 -89zM1055 106q75 0 128.5 54t53.5 129q0 74 -53.5 128t-128.5 54q-74 0 -128.5 -54.5t-54.5 -127.5
q0 -75 54.5 -129t128.5 -54zM395 946q-126 0 -215.5 89.5t-89.5 215.5q0 127 89.5 216t215.5 89t215.5 -89t89.5 -216q0 -126 -89.5 -215.5t-215.5 -89.5zM395 1069q75 0 129 54t54 128q0 75 -54 129t-129 54q-74 0 -128 -54t-54 -129q0 -73 54.5 -127.5t127.5 -54.5z" />
    <glyph glyph-name="ampersand" unicode="&#x26;" horiz-adv-x="1349" 
d="M502 -16q-176 0 -294 117t-118 309q0 85 25 155.5t69 119t94 80.5t109 52v8q-72 33 -123 122t-51 206q0 168 124.5 279.5t303.5 111.5q99 0 184 -46.5t131 -113.5l-94 -92q-39 54 -102 87.5t-133 33.5q-119 0 -193 -77.5t-74 -198.5t73 -197t198 -76h596v-112h-166v-519
q0 -53 14.5 -76.5t52.5 -23.5h99v-133h-152q-74 0 -117 48.5t-43 105.5v57h-8q-54 -98 -155.5 -162.5t-249.5 -64.5zM567 119q102 0 185 57.5t126.5 145t43.5 182.5v254h-340q-135 0 -234.5 -93.5t-99.5 -246.5q0 -119 84 -209t235 -90z" />
    <glyph glyph-name="quotesingle" unicode="'" horiz-adv-x="329" 
d="M135 1124q-21 0 -30.5 6t-10.5 23l-24 365q-2 21 1.5 28.5t16.5 7.5h154q13 0 16.5 -7.5t1.5 -28.5l-24 -365q-1 -17 -10.5 -23t-30.5 -6h-60z" />
    <glyph glyph-name="parenleft" unicode="(" horiz-adv-x="692" 
d="M506 -229q-369 434 -369 929q0 251 96 487t273 443l119 -88q-148 -174 -234 -396.5t-86 -445.5q0 -220 87.5 -447t232.5 -394z" />
    <glyph glyph-name="parenright" unicode=")" horiz-adv-x="692" 
d="M68 -141q144 166 231.5 393.5t87.5 447.5q0 223 -85.5 445.5t-233.5 396.5l118 88q177 -207 273 -443t96 -487q0 -495 -369 -929z" />
    <glyph glyph-name="asterisk" unicode="*" horiz-adv-x="899" 
d="M285 862l-117 84l215 244l-4 4l-305 66l47 135l282 -121l5 4l-29 309h141l-28 -309l4 -4l284 121l45 -135l-301 -66l-4 -4l213 -244l-117 -84l-163 279h-4z" />
    <glyph glyph-name="plus" unicode="+" horiz-adv-x="1146" 
d="M504 23v395h-389v131h389v395h139v-395h389v-131h-389v-395h-139z" />
    <glyph glyph-name="comma" unicode="," horiz-adv-x="421" 
d="M90 -223q-26 0 -18 33l80 356q6 27 26 27h154q32 0 18 -37l-127 -351q-6 -18 -13.5 -23t-27.5 -5h-92z" />
    <glyph glyph-name="hyphen" unicode="-" horiz-adv-x="823" 
d="M123 516v123h577v-123h-577z" />
    <glyph glyph-name="period" unicode="." horiz-adv-x="397" 
d="M199 -8q-54 0 -91.5 38t-37.5 91q0 55 37.5 92t91.5 37q55 0 92 -37t37 -92q0 -53 -37 -91t-92 -38z" />
    <glyph glyph-name="slash" unicode="/" horiz-adv-x="782" 
d="M78 0l469 1589h160l-469 -1589h-160z" />
    <glyph glyph-name="zero" unicode="0" horiz-adv-x="1267" 
d="M633 -25q-94 0 -173.5 30.5t-137 86t-101 129.5t-69.5 164.5t-39 187t-13 201.5t13 201.5t39 187t69.5 164.5t101 129.5t137 86t173.5 30.5q95 0 174.5 -30.5t137 -86t101 -129.5t69.5 -164.5t39 -187t13 -201.5t-13 -201.5t-39 -187t-69.5 -164.5t-101 -129.5t-137 -86
t-174.5 -30.5zM633 125q86 0 152 39.5t105 101.5t63.5 150.5t33 174t8.5 183.5q0 81 -6.5 154t-21 149t-41.5 136.5t-66 109.5t-97 75.5t-130 26.5q-62 0 -113.5 -20.5t-88 -55.5t-65 -85.5t-46 -106t-28.5 -122t-15.5 -129.5t-4.5 -132t4.5 -131t15.5 -129t28.5 -122.5
t46 -105.5t65 -85t88 -55.5t113.5 -20.5z" />
    <glyph glyph-name="one" unicode="1" horiz-adv-x="634" 
d="M301 0v1329h-8l-203 -133l-82 127l342 231h121v-1554h-170z" />
    <glyph glyph-name="two" unicode="2" horiz-adv-x="1193" 
d="M115 0v158l458 485q66 71 104.5 114t83 98t67 94.5t38 83.5t15.5 85q0 123 -81 202t-210 79q-131 0 -212 -79t-81 -187h-168q0 128 63 229t168 154t230 53q209 0 340 -128t131 -329q0 -104 -53 -205.5t-164 -224.5l-484 -510v-8h703v-164h-948z" />
    <glyph glyph-name="three" unicode="3" horiz-adv-x="1120" 
d="M492 -25q-86 0 -164 18.5t-131.5 47.5t-86.5 53.5t-53 46.5l115 125q11 -12 31.5 -28.5t61 -41t102 -41t129.5 -16.5q128 0 222.5 84.5t94.5 227.5q0 123 -85 204.5t-230 81.5h-101v154h109q121 0 197.5 73t76.5 191q0 110 -80.5 182t-187.5 72q-105 0 -183 -49.5
t-126 -116.5l-113 113q62 99 173.5 161t244.5 62q194 0 324.5 -113.5t130.5 -306.5q0 -117 -61 -211t-136 -123v-8q102 -33 165.5 -137t63.5 -229q0 -212 -141.5 -344t-361.5 -132z" />
    <glyph glyph-name="four" unicode="4" horiz-adv-x="1308" 
d="M844 0v336h-729v117l712 1101h187v-1069h188v-149h-188v-336h-170zM322 485h522v803h-8l-514 -794v-9z" />
    <glyph glyph-name="five" unicode="5" horiz-adv-x="1247" 
d="M614 -25q-103 0 -188 26t-138.5 67t-90 93.5t-51.5 102.5t-15 98h168q0 -28 17.5 -63.5t52.5 -73t99.5 -63t145.5 -25.5q149 0 242.5 101t93.5 264q0 170 -80.5 265t-230.5 95q-64 0 -115.5 -14t-88.5 -42t-60.5 -54.5t-48.5 -65.5l-170 92l90 776h807v-163h-658
l-57 -486h8q133 117 303 117q118 0 211.5 -40t152.5 -110.5t89.5 -163t30.5 -200.5q1 -148 -62 -268.5t-182.5 -192.5t-274.5 -72z" />
    <glyph glyph-name="six" unicode="6" horiz-adv-x="1226" 
d="M602 -25q-135 0 -249.5 58.5t-185.5 172t-71 259.5q0 143 103 360q55 113 127 230l303 499h190l-385 -620h8q73 49 189 49q127 0 236.5 -65.5t175 -181.5t65.5 -255q0 -142 -70.5 -259t-186.5 -182t-249 -65zM600 139q149 0 236.5 92.5t87.5 249.5q0 150 -88.5 246
t-235.5 96q-146 0 -233.5 -96t-87.5 -246q0 -157 86.5 -249.5t234.5 -92.5z" />
    <glyph glyph-name="seven" unicode="7" horiz-adv-x="995" 
d="M211 0l565 1384v9h-764l4 161h936v-165l-553 -1389h-188z" />
    <glyph glyph-name="eight" unicode="8" horiz-adv-x="1251" 
d="M625 -23q-215 0 -354.5 130t-139.5 327q0 153 79 269t175 149v8q-79 36 -142 121.5t-63 200.5q0 175 128.5 285t316.5 110q190 0 318 -110t128 -285q0 -116 -59.5 -201.5t-137.5 -120.5v-8q95 -32 170.5 -148t75.5 -270q0 -197 -139.5 -327t-355.5 -130zM625 133
q137 0 225 85t88 222t-88.5 226.5t-224.5 89.5q-135 0 -223.5 -89.5t-88.5 -226.5t88 -222t224 -85zM625 924q119 0 191.5 69.5t72.5 175.5q0 110 -72 181t-192 71t-192.5 -71t-72.5 -181q0 -106 73 -175.5t192 -69.5z" />
    <glyph glyph-name="nine" unicode="9" horiz-adv-x="1167" 
d="M367 0l378 629h-8q-83 -47 -196 -47q-130 0 -238 70t-167.5 185t-59.5 246q0 137 70 252t185.5 179.5t248.5 64.5q79 0 151.5 -19t136.5 -58.5t111 -97t74.5 -139.5t27.5 -180q0 -117 -52 -242.5t-187 -355.5l-285 -487h-190zM582 741q142 0 231.5 96t89.5 257
q0 145 -90.5 233t-230.5 88q-139 0 -229.5 -92t-90.5 -240q0 -140 86.5 -241t233.5 -101z" />
    <glyph glyph-name="colon" unicode=":" horiz-adv-x="397" 
d="M199 -8q-54 0 -91.5 38t-37.5 91q0 55 37.5 92t91.5 37q55 0 92 -37t37 -92q0 -53 -37 -91t-92 -38zM199 741q-54 0 -91.5 38t-37.5 91q0 55 37.5 92t91.5 37q55 0 92 -36.5t37 -92.5q0 -53 -37 -91t-92 -38z" />
    <glyph glyph-name="semicolon" unicode=";" horiz-adv-x="452" 
d="M250 741q-54 0 -91.5 38t-37.5 91q0 55 37.5 92t91.5 37q56 0 92.5 -36.5t36.5 -92.5q0 -53 -37 -91t-92 -38zM86 -223q-26 0 -18 33l79 356q6 27 27 27h154q32 0 18 -37l-127 -351q-6 -18 -13.5 -23t-27.5 -5h-92z" />
    <glyph glyph-name="less" unicode="&#x3c;" horiz-adv-x="1284" 
d="M1049 2l-926 483v29l926 500v-174l-648 -336v-8l648 -324v-170z" />
    <glyph glyph-name="equal" unicode="=" horiz-adv-x="1148" 
d="M115 713v131h917v-131h-917zM115 221v131h917v-131h-917z" />
    <glyph glyph-name="greater" unicode="&#x3e;" horiz-adv-x="1284" 
d="M242 2v170l647 324v8l-647 336v174l925 -500v-29z" />
    <glyph glyph-name="question" unicode="?" horiz-adv-x="942" 
d="M360 516q0 107 34.5 172t144.5 152q104 81 136 134.5t32 127.5q0 95 -59 150t-156 55q-173 0 -308 -185l-114 115q76 110 190.5 168.5t224.5 58.5q182 0 284.5 -92.5t102.5 -261.5q0 -206 -227 -367q-125 -88 -125 -227v-110h-160v110zM444 -8q-49 0 -83.5 35.5
t-34.5 83.5q0 52 34 86t84 34q51 0 86 -34t35 -86q0 -48 -35.5 -83.5t-85.5 -35.5z" />
    <glyph glyph-name="at" unicode="@" horiz-adv-x="1830" 
d="M1001 -229q-168 -6 -305 21t-234 82t-168 131t-112.5 174t-60.5 204.5t-19 228.5q0 181 62.5 339.5t172 272t266.5 179t339 65.5q198 0 350.5 -60.5t246.5 -168.5t142 -249.5t48 -311.5q0 -253 -83.5 -389.5t-242.5 -136.5q-98 0 -166 60t-78 112h-8q-108 -175 -317 -172
q-131 0 -216.5 77.5t-85.5 202.5q0 291 351 291h258v55q0 98 -66.5 151.5t-179.5 53.5q-83 0 -145 -32t-93 -91l-88 88q58 70 146 115t182 45q199 0 291 -95t92 -278v-284q0 -148 117 -148q182 0 182 375q0 149 -41 271.5t-120 211.5t-200.5 138t-275.5 49
q-196 0 -354.5 -95.5t-248 -264t-89.5 -376.5q0 -130 22 -237t75.5 -201t138 -157t215 -97t300.5 -29l263 9v-121zM846 291q130 0 212.5 81t82.5 222v22h-260q-95 0 -146 -43.5t-51 -123.5q0 -75 42 -116.5t120 -41.5z" />
    <glyph glyph-name="A" unicode="A" 
d="M25 0l538 1554h242l536 -1554h-182l-151 455h-650l-149 -455h-184zM408 602h550l-270 803h-8z" />
    <glyph glyph-name="B" unicode="B" horiz-adv-x="1290" 
d="M168 0v1554h477q98 0 180.5 -21.5t149 -65t104 -118t37.5 -173.5q0 -108 -61 -217.5t-154 -141.5v-6q43 -10 87 -36t87.5 -69.5t71 -115t27.5 -158.5q0 -207 -139 -319.5t-361 -112.5h-506zM705 147q125 0 212 76.5t87 227.5q0 117 -93 198.5t-227 81.5h-346v-584h367z
M698 879q32 0 71.5 16t80.5 48t68.5 91t27.5 133q0 125 -74.5 182.5t-222.5 57.5h-311v-528h360z" />
    <glyph glyph-name="C" unicode="C" horiz-adv-x="1497" 
d="M858 -25q-180 0 -327.5 61.5t-244.5 169.5t-149.5 254t-52.5 316q0 225 98 408.5t275 289t399 105.5q220 0 395 -106q71 -51 135 -109l-104 -104q-171 174 -422 174q-180 0 -320 -92t-213 -241t-73 -325q0 -185 71.5 -332.5t210.5 -235t324 -87.5q168 0 318 84
q58 32 114 90l101 -100q-109 -106 -246.5 -163t-288.5 -57z" />
    <glyph glyph-name="D" unicode="D" horiz-adv-x="1497" 
d="M168 0v1554h457q369 0 573.5 -194t204.5 -535q0 -190 -64.5 -347t-176.5 -260.5t-263 -160.5t-324 -57h-407zM565 147q153 0 280 52.5t210.5 143t129.5 211t46 257.5q0 297 -158.5 446.5t-449.5 149.5h-285v-1260h227z" />
    <glyph glyph-name="E" unicode="E" horiz-adv-x="1132" 
d="M168 0v1554h807v-147h-637v-539h588v-147h-588v-574h645v-147h-815z" />
    <glyph glyph-name="F" unicode="F" horiz-adv-x="1083" 
d="M168 0v1554h815v-147h-645v-590h563v-147h-563v-670h-170z" />
    <glyph glyph-name="G" unicode="G" horiz-adv-x="1669" 
d="M854 -25q-174 0 -318 59.5t-241 163.5t-152 246t-59 306q-3 182 59 339t168 263t248 166.5t297 60.5q191 0 329 -67t251 -205l-109 -109q-101 121 -210.5 178.5t-260.5 57.5q-175 0 -315.5 -93.5t-215.5 -250t-69 -340.5q5 -177 78.5 -318t215.5 -226t331 -85
q152 0 274 73.5t190 200.5t68 281v8h-567v150h731q8 -21 8 -107q0 -221 -91.5 -392t-258 -265.5t-381.5 -94.5z" />
    <glyph glyph-name="H" unicode="H" horiz-adv-x="1572" 
d="M168 0v1554h170v-686h897v686h170v-1554h-170v721h-897v-721h-170z" />
    <glyph glyph-name="I" unicode="I" horiz-adv-x="505" 
d="M168 0v1554h170v-1554h-170z" />
    <glyph glyph-name="J" unicode="J" horiz-adv-x="724" 
d="M23 0v147h167q116 0 160.5 47.5t44.5 170.5v1042h-278v147h448v-1251q0 -303 -340 -303h-202z" />
    <glyph glyph-name="K" unicode="K" horiz-adv-x="1327" 
d="M168 0v1554h170v-698h176l553 698h188l-600 -759v-17l639 -778h-204l-578 709h-174v-709h-170z" />
    <glyph glyph-name="L" unicode="L" horiz-adv-x="974" 
d="M168 0v1554h170v-1407h625v-147h-795z" />
    <glyph glyph-name="M" unicode="M" horiz-adv-x="1765" 
d="M168 0v1554h270l445 -1327h8l446 1327h260v-1554h-170v1155l9 164h-9l-452 -1319h-184l-453 1319h-8l8 -164v-1155h-170z" />
    <glyph glyph-name="N" unicode="N" horiz-adv-x="1529" 
d="M168 0v1554h233l793 -1325h8l-8 181v1144h168v-1554h-232l-792 1327h-8l8 -180v-1147h-170z" />
    <glyph glyph-name="O" unicode="O" horiz-adv-x="1712" 
d="M856 -25q-163 0 -307.5 63.5t-246 171t-160 255t-58.5 311.5q0 168 60.5 317.5t163.5 256t245.5 168t302.5 61.5q221 0 399 -109.5t275.5 -292.5t97.5 -401q0 -224 -102.5 -408t-279.5 -288.5t-390 -104.5zM856 121q131 0 244.5 54t191 144.5t122 209.5t44.5 247
q0 131 -45 251t-123 210t-191 143.5t-243 53.5q-105 0 -199.5 -35t-166.5 -97t-125.5 -144.5t-81 -180.5t-27.5 -201q0 -130 45 -249.5t122.5 -209t190.5 -143t242 -53.5z" />
    <glyph glyph-name="P" unicode="P" horiz-adv-x="1239" 
d="M168 0v1554h512q104 0 192 -25.5t156.5 -76.5t107 -134t38.5 -190q0 -151 -74.5 -260.5t-196 -162t-274.5 -52.5h-291v-653h-170zM711 801q117 0 205 85.5t88 217.5q0 77 -26 137t-69 95t-93.5 53t-104.5 18h-373v-606h373z" />
    <glyph glyph-name="Q" unicode="Q" horiz-adv-x="1748" 
d="M856 -25q-163 0 -307.5 63.5t-246 171t-160 255t-58.5 311.5q0 168 60.5 317.5t163.5 256t245.5 168t302.5 61.5q221 0 399 -109.5t275.5 -292.5t97.5 -401q0 -156 -51 -294t-143 -244l280 -281l-112 -113l-285 285q-204 -154 -461 -154zM856 121q131 0 244.5 54
t191 144.5t122 209.5t44.5 247q0 131 -45 251t-123 210t-191 143.5t-243 53.5q-105 0 -199.5 -35t-166.5 -97t-125.5 -144.5t-81 -180.5t-27.5 -201q0 -130 45 -249.5t122.5 -209t190.5 -143t242 -53.5z" />
    <glyph glyph-name="R" unicode="R" horiz-adv-x="1310" 
d="M168 0v1554h512q105 0 192.5 -24t156 -74t107 -133.5t38.5 -194.5q0 -108 -37.5 -196t-124 -157t-217.5 -101v-8l430 -666h-201l-426 653h-260v-653h-170zM711 801q118 0 205.5 86.5t87.5 216.5q0 145 -85 224t-208 79h-373v-606h373z" />
    <glyph glyph-name="S" unicode="S" horiz-adv-x="1214" 
d="M598 -25q-145 0 -256 57.5t-209 190.5l117 121q87 -117 166 -166t178 -49q130 0 221.5 83t91.5 210q0 180 -260 303l-176 82q-307 145 -307 397q0 158 125 266.5t313 108.5q276 0 426 -197l-113 -112q-122 153 -321 153q-111 0 -185.5 -55.5t-74.5 -144.5
q0 -87 68.5 -151t205.5 -128l156 -76q153 -73 233 -181.5t80 -268.5q0 -183 -136.5 -313t-342.5 -130z" />
    <glyph glyph-name="T" unicode="T" horiz-adv-x="1173" 
d="M502 0v1407h-477v147h1124v-147h-477v-1407h-170z" />
    <glyph glyph-name="U" unicode="U" horiz-adv-x="1523" 
d="M762 -25q-129 0 -240.5 43t-188 117.5t-120 176t-43.5 216.5v1026h170v-1007q0 -105 47.5 -197.5t146 -153.5t228.5 -61t228.5 61t146 153.5t47.5 197.5v1007h170v-1026q0 -115 -43.5 -216.5t-120 -176t-188 -117.5t-240.5 -43z" />
    <glyph glyph-name="V" unicode="V" horiz-adv-x="1394" 
d="M569 0l-520 1554h182l467 -1409h9l460 1409h179l-521 -1554h-256z" />
    <glyph glyph-name="W" unicode="W" horiz-adv-x="2074" 
d="M397 0l-303 1554h174l254 -1318h2l439 1318h157l430 -1318h2l256 1318h172l-305 -1554h-205l-428 1327h-8l-430 -1327h-207z" />
    <glyph glyph-name="X" unicode="X" horiz-adv-x="1347" 
d="M74 0l499 797l-475 757h199l373 -610h8l381 610h184l-469 -759l502 -795h-201l-405 651h-8l-406 -651h-182z" />
    <glyph glyph-name="Y" unicode="Y" horiz-adv-x="1261" 
d="M547 0v686l-498 868h180l398 -700h8l397 700h182l-497 -868v-686h-170z" />
    <glyph glyph-name="Z" unicode="Z" horiz-adv-x="1345" 
d="M135 0v152l862 1247v8h-856v147h1063v-153l-862 -1245v-9h866v-147h-1073z" />
    <glyph glyph-name="bracketleft" unicode="[" horiz-adv-x="681" 
d="M260 -238v1860h361v-119h-199v-1622h199v-119h-361z" />
    <glyph glyph-name="backslash" unicode="\" horiz-adv-x="888" 
d="M600 0l-469 1589h160l469 -1589h-160z" />
    <glyph glyph-name="bracketright" unicode="]" horiz-adv-x="681" 
d="M422 -238h-361v119h199v1622h-199v119h361v-1860z" />
    <glyph glyph-name="asciicircum" unicode="^" horiz-adv-x="821" 
d="M82 1284l274 270h107l276 -270l-100 -98l-221 217h-17l-221 -217z" />
    <glyph glyph-name="underscore" unicode="_" horiz-adv-x="917" 
d="M0 -274v122h918v-122h-918z" />
    <glyph glyph-name="a" unicode="a" horiz-adv-x="1175" 
d="M145 946q157 187 422 187q222 0 344.5 -121t122.5 -322v-690h-160v174h-8q-56 -97 -152.5 -148t-213.5 -51q-185 0 -292.5 97t-107.5 241q0 164 111 256.5t326 92.5h337v45q0 128 -93 202t-226 74q-101 0 -179.5 -40.5t-123.5 -102.5zM539 532q-132 0 -200.5 -55
t-68.5 -151q0 -91 67.5 -147t174.5 -56q152 0 257 103t105 276v30h-335z" />
    <glyph glyph-name="b" unicode="b" horiz-adv-x="1355" 
d="M707 -25q-130 0 -241.5 54.5t-137.5 132.5h-9v-162h-161v1597h161v-659h9q56 82 171.5 138.5t229.5 56.5q105 0 202 -37.5t175 -108.5t125 -184.5t47 -253.5q0 -122 -44 -228.5t-120.5 -182.5t-182 -119.5t-224.5 -43.5zM709 121q172 0 284.5 124.5t112.5 307.5
q0 184 -112.5 308t-284.5 124q-171 0 -283.5 -124t-112.5 -308t112.5 -308t283.5 -124z" />
    <glyph glyph-name="c" unicode="c" horiz-adv-x="1148" 
d="M627 -25q-162 0 -288.5 77t-193.5 208t-67 293q0 136 48.5 247.5t129 182.5t180.5 109t207 38q245 0 406 -196l-105 -107q-125 156 -305 156q-170 0 -277.5 -123t-107.5 -307q0 -185 106 -307.5t273 -122.5q108 0 190.5 49.5t122.5 110.5l103 -103q-70 -90 -180 -147.5
t-242 -57.5z" />
    <glyph glyph-name="d" unicode="d" horiz-adv-x="1355" 
d="M616 -25q-101 0 -195 37t-171.5 106.5t-124.5 183.5t-47 255q0 135 45 245t122 182t177.5 110.5t214.5 38.5q121 0 227.5 -55t165.5 -140h8v659h160v-1597h-160v150h-8q-57 -77 -170 -126t-244 -49zM647 121q171 0 283 124t112 308t-112 308t-283 124q-172 0 -284.5 -124
t-112.5 -308q0 -183 112.5 -307.5t284.5 -124.5z" />
    <glyph glyph-name="e" unicode="e" horiz-adv-x="1251" 
d="M649 -25q-267 0 -419 159t-152 419q0 165 74 297.5t200.5 206t278.5 73.5q236 0 379 -150.5t143 -430.5v-39h-901q11 -173 121.5 -280t296.5 -107q108 0 183.5 39.5t133.5 118.5l109 -103q-154 -203 -447 -203zM983 639q-7 151 -108 247.5t-244 96.5q-148 0 -255.5 -97
t-117.5 -247h725z" />
    <glyph glyph-name="f" unicode="f" horiz-adv-x="708" 
d="M188 0v973h-86v131h86v178q0 229 230 229h209v-147h-156q-62 0 -92.5 -28.5t-30.5 -108.5v-123h279v-131h-279v-973h-160z" />
    <glyph glyph-name="g" unicode="g" horiz-adv-x="1355" 
d="M670 -463q-101 0 -185.5 21.5t-150 63t-114 88.5t-95.5 110l117 117q81 -110 187.5 -176t229.5 -66q100 0 174.5 27t118.5 76t65 110.5t21 136.5v105h-8q-55 -74 -166.5 -124.5t-214.5 -50.5q-260 0 -415.5 159.5t-155.5 422.5q0 135 45 245t122 182t177.5 110.5
t214.5 38.5q121 0 227.5 -55t165.5 -140h8v166h160v-1094q0 -100 -34 -185.5t-99 -150t-166.5 -101t-228.5 -36.5zM647 121q171 0 283 124t112 308t-112 308t-283 124q-172 0 -284.5 -124t-112.5 -308q0 -183 112.5 -307.5t284.5 -124.5z" />
    <glyph glyph-name="h" unicode="h" horiz-adv-x="1275" 
d="M158 0v1597h161v-645h9q39 76 131 126t213 50q204 0 330 -132.5t126 -374.5v-621h-161v621q0 152 -89.5 259t-236.5 107q-137 0 -229.5 -115.5t-92.5 -291.5v-580h-161z" />
    <glyph glyph-name="i" unicode="i" horiz-adv-x="434" 
d="M158 0v1104h161v-1104h-161zM238 1225q-43 0 -74 31t-31 75q0 43 31 74t74 31q44 0 75 -31t31 -74q0 -44 -31 -75t-75 -31z" />
    <glyph glyph-name="j" unicode="j" horiz-adv-x="479" 
d="M-61 -453v148h98q62 0 91.5 29t29.5 110v1270h161v-1327q0 -230 -229 -230h-151zM238 1214q-43 0 -74 31.5t-31 75.5q0 43 31 73.5t74 30.5q44 0 75 -30.5t31 -73.5q0 -44 -31 -75.5t-75 -31.5z" />
    <glyph glyph-name="k" unicode="k" horiz-adv-x="1058" 
d="M158 0v1597h161v-929h121l391 436h191l-444 -492l505 -612h-198l-449 551h-117v-551h-161z" />
    <glyph glyph-name="l" unicode="l" horiz-adv-x="585" 
d="M379 0q-229 0 -229 229v1368h161v-1310q0 -81 29.5 -110.5t91.5 -29.5h103v-147h-156z" />
    <glyph glyph-name="m" unicode="m" horiz-adv-x="2039" 
d="M158 0v1104h161v-152h9q44 80 133.5 128t204.5 48q254 0 374 -237h9q120 237 401 237q212 0 327 -133.5t115 -380.5v-614h-159v608q0 165 -80.5 269t-222.5 104q-148 0 -236 -109t-88 -299v-573h-162v608q0 167 -80.5 270t-222.5 103q-146 0 -234 -109t-88 -299v-573
h-161z" />
    <glyph glyph-name="n" unicode="n" horiz-adv-x="1275" 
d="M672 1128q204 0 330 -132.5t126 -374.5v-621h-161v621q0 152 -89.5 259t-236.5 107q-137 0 -229.5 -115.5t-92.5 -291.5v-580h-161v1104h161v-152h9q38 75 131.5 125.5t212.5 50.5z" />
    <glyph glyph-name="o" unicode="o" horiz-adv-x="1271" 
d="M637 -25q-85 0 -166 24.5t-152 73.5t-125 117.5t-85 162t-31 200.5q0 133 46.5 243.5t124 182.5t178 111.5t210.5 39.5q107 0 206.5 -39.5t178 -111.5t125.5 -183t47 -243q0 -133 -46.5 -243.5t-124 -183t-177.5 -112t-209 -39.5zM637 121q171 0 278 123.5t107 308.5
q0 186 -107 309t-278 123t-279 -123.5t-108 -308.5q0 -184 108 -308t279 -124z" />
    <glyph glyph-name="p" unicode="p" horiz-adv-x="1355" 
d="M158 -451v1555h161v-166h9q56 82 171.5 138.5t229.5 56.5q105 0 202 -37.5t175 -108.5t125 -184.5t47 -253.5q0 -122 -44 -228.5t-120.5 -182.5t-182 -119.5t-224.5 -43.5q-130 0 -241.5 54.5t-137.5 132.5h-9v-613h-161zM709 121q172 0 284.5 124.5t112.5 307.5
q0 184 -112.5 308t-284.5 124q-171 0 -283.5 -124t-112.5 -308t112.5 -308t283.5 -124z" />
    <glyph glyph-name="q" unicode="q" horiz-adv-x="1370" 
d="M1038 -451v601h-8q-57 -77 -170 -126t-244 -49q-101 0 -195 37t-171.5 106.5t-124.5 183.5t-47 255q0 135 45 245t122 182t177.5 110.5t214.5 38.5q121 0 227.5 -55t165.5 -140h8v166h160v-1555h-160zM647 121q171 0 283 124t112 308t-112 308t-283 124
q-172 0 -284.5 -124t-112.5 -308q0 -183 112.5 -307.5t284.5 -124.5z" />
    <glyph glyph-name="r" unicode="r" horiz-adv-x="772" 
d="M158 0v1104h161v-156h9q20 80 86.5 126t183.5 46h102v-157h-102q-69 0 -119.5 -15.5t-81 -41.5t-48.5 -67.5t-24 -87t-6 -106.5v-645h-161z" />
    <glyph glyph-name="s" unicode="s" horiz-adv-x="1091" 
d="M543 -25q-148 0 -271.5 54t-154.5 100l123 125q33 -45 124 -84t193 -39q126 0 186 50t60 124q0 61 -45 109.5t-119 68.5l-164 41q-39 10 -58.5 16t-56 18t-57 23t-49 28t-44.5 36.5t-32.5 44.5t-23.5 57.5t-7 69.5q0 128 115.5 220.5t292.5 92.5q88 0 164.5 -20.5
t125.5 -53t78.5 -61t45.5 -55.5l-99 -100q-16 21 -41 43t-64 46.5t-95 40t-117 15.5q-109 0 -171.5 -45.5t-62.5 -103.5q0 -56 42.5 -89.5t140.5 -58.5l135 -35q72 -19 128 -43t106 -62t77 -95t27 -129q0 -152 -112 -250.5t-320 -98.5z" />
    <glyph glyph-name="t" unicode="t" horiz-adv-x="696" 
d="M397 0q-229 0 -229 229v744h-86v131h86v254h162v-254h319v-131h-319v-686q0 -81 29.5 -110.5t91.5 -29.5h198v-147h-252z" />
    <glyph glyph-name="u" unicode="u" horiz-adv-x="1265" 
d="M598 -25q-97 0 -180 32.5t-145.5 94.5t-98 159.5t-35.5 221.5v621h160v-621q0 -152 89.5 -259t236.5 -107q139 0 231 117t92 307v563h160v-1104h-160v172h-8q-37 -89 -125.5 -143t-216.5 -54z" />
    <glyph glyph-name="v" unicode="v" horiz-adv-x="1138" 
d="M451 0l-392 1104h179l327 -954h8l330 954h178l-391 -1104h-239z" />
    <glyph glyph-name="w" unicode="w" horiz-adv-x="1677" 
d="M330 0l-262 1104h170l206 -944h9l272 944h229l271 -944h8l207 944h170l-260 -1104h-238l-268 905h-8l-271 -905h-235z" />
    <glyph glyph-name="x" unicode="x" horiz-adv-x="1118" 
d="M61 0l404 575v9l-352 520h204l248 -389h8l258 389h185l-348 -516v-8l391 -580h-205l-291 436h-8l-299 -436h-195z" />
    <glyph glyph-name="y" unicode="y" horiz-adv-x="1144" 
d="M176 -416v148h176q41 0 63.5 28t53.5 107l47 125v8h-65l-392 1104h189l317 -950h8l342 950h172l-434 -1221q-24 -66 -38.5 -102.5t-34.5 -76t-37.5 -58t-44 -35t-57.5 -22t-74 -5.5h-191z" />
    <glyph glyph-name="z" unicode="z" horiz-adv-x="1079" 
d="M109 0v135l630 830v8h-630v131h823v-135l-631 -830v-8h657v-131h-849z" />
    <glyph glyph-name="braceleft" unicode="{" horiz-adv-x="696" 
d="M590 -229q-155 0 -249.5 91t-94.5 244v330q0 105 -37.5 162t-110.5 57v90q73 0 110.5 57.5t37.5 162.5v329q0 153 94.5 244.5t249.5 91.5h28v-110h-22q-89 0 -135.5 -62t-46.5 -168v-356q0 -178 -148 -229v-9q148 -51 148 -223v-362q0 -105 47 -167.5t135 -62.5h22v-110
h-28z" />
    <glyph glyph-name="bar" unicode="|" horiz-adv-x="409" 
d="M127 -451v2081h156v-2081h-156z" />
    <glyph glyph-name="braceright" unicode="}" horiz-adv-x="696" 
d="M106 -229h-28v110h22q88 0 135.5 63t47.5 167v362q0 90 36.5 144t110.5 79v9q-147 51 -147 229v356q0 106 -47 168t-136 62h-22v110h28q155 0 250 -91.5t95 -244.5v-329q0 -106 37 -163t110 -57v-90q-73 0 -110 -56.5t-37 -162.5v-330q0 -153 -95 -244t-250 -91z" />
    <glyph glyph-name="asciitilde" unicode="~" horiz-adv-x="1155" 
d="M115 510q139 182 297 182q52 0 97.5 -17.5t108.5 -56.5q106 -67 175 -67q17 0 33.5 4.5t27 9.5t25.5 17t21 18t21.5 23t20.5 22l98 -98q-111 -146 -245 -146q-102 0 -238 82q-100 62 -143 62q-47 0 -104 -42.5t-97 -90.5z" />
    <glyph glyph-name="exclamdown" unicode="&#xa1;" horiz-adv-x="397" 
d="M131 573h125l25 -663v-344h-175v346zM199 1024q55 0 92 -38t37 -91q0 -55 -37 -92t-92 -37q-54 0 -91.5 37t-37.5 92q0 53 37.5 91t91.5 38z" />
    <glyph glyph-name="cent" unicode="&#xa2;" horiz-adv-x="1148" 
d="M559 -147v331q-218 24 -349.5 184.5t-131.5 389.5q0 123 39.5 226t107 173t153 114t181.5 58v375h123v-371q218 -12 367 -194l-105 -107q-109 138 -262 154v-856q92 12 160.5 58t103.5 99l103 -102q-63 -80 -158 -136t-209 -67v-329h-123zM254 758q0 -164 83 -280
t222 -144v846q-139 -29 -222 -145t-83 -277z" />
    <glyph glyph-name="sterling" unicode="&#xa3;" horiz-adv-x="1234" 
d="M164 162q137 159 137 366q0 46 -10 111h-164v127h135l-18 63q-31 91 -31 177q0 193 127.5 326.5t312.5 133.5q120 0 215.5 -51t196.5 -178l-111 -111q-80 104 -146.5 147.5t-148.5 43.5q-123 0 -199.5 -83.5t-76.5 -219.5q0 -65 31 -170l22 -78l541 2v-129h-516
q10 -72 10 -133q0 -189 -96 -336v-6h401q94 0 154.5 35.5t130.5 130.5l108 -113q-57 -75 -108 -118.5t-131 -71t-189 -27.5h-577v162z" />
    <glyph glyph-name="yen" unicode="&#xa5;" horiz-adv-x="1214" 
d="M522 0v291h-332v127h332v192h-332v127h304l-469 817h180l397 -700h8l398 700h182l-469 -817h305v-127h-334v-192h334v-127h-334v-291h-170z" />
    <glyph glyph-name="brokenbar" unicode="&#xa6;" horiz-adv-x="409" 
d="M127 721v909h156v-909h-156zM127 -451v910h156v-910h-156z" />
    <glyph glyph-name="section" unicode="&#xa7;" horiz-adv-x="1091" 
d="M543 -88q-148 0 -271.5 54t-154.5 100l123 124q33 -45 123.5 -83.5t193.5 -38.5q126 0 186 50t60 124q0 61 -45 110t-119 68l-164 41q-42 11 -67 18t-64 21t-63 28t-52 36.5t-44 48.5t-27 62t-11 79q0 77 44 144t122 110q-78 36 -122 92.5t-44 148.5q0 128 115.5 221
t292.5 93q88 0 164.5 -21t125.5 -53.5t78.5 -61t45.5 -55.5l-99 -100q-16 21 -41 43t-64 46.5t-95 40t-117 15.5q-109 0 -171.5 -45.5t-62.5 -103.5q0 -56 42.5 -89.5t140.5 -58.5l135 -35q72 -19 128 -43t106 -62t77 -95t27 -129q0 -175 -141 -238q141 -90 141 -258
q0 -152 -112 -250t-320 -98zM319 784q0 -64 42 -98.5t141 -60.5l174 -45q127 40 127 157q0 57 -35.5 101t-97.5 59l-207 53q-70 -17 -107 -61t-37 -105z" />
    <glyph glyph-name="copyright" unicode="&#xa9;" horiz-adv-x="1722" 
d="M860 -25q-209 0 -385 102.5t-278.5 278.5t-102.5 385q0 208 102.5 384t279 279t384.5 103q209 0 386 -103t279.5 -279t102.5 -384q0 -209 -102.5 -385t-279 -278.5t-386.5 -102.5zM868 375q-157 0 -257.5 107.5t-100.5 267.5q0 162 108.5 268t258.5 106q86 0 151 -30.5
t127 -98.5l-82 -82q-40 48 -83.5 70.5t-110.5 22.5q-94 0 -167 -64t-73 -182q0 -121 74.5 -193.5t165.5 -72.5q131 0 208 96l76 -74q-46 -60 -124 -100.5t-171 -40.5zM860 115q172 0 317 83.5t228.5 227.5t83.5 315q0 129 -49.5 245.5t-133.5 200.5t-200.5 133.5
t-245.5 49.5q-128 0 -244.5 -49.5t-200 -133.5t-133 -200.5t-49.5 -245.5q0 -171 83.5 -315t228 -227.5t315.5 -83.5z" />
    <glyph glyph-name="guillemotleft" unicode="&#xab;" horiz-adv-x="1167" 
d="M827 133l-391 416v8l391 416l99 -88l-312 -328v-8l312 -328zM469 119l-397 430v8l397 430l96 -90l-315 -340v-8l315 -340z" />
    <glyph glyph-name="logicalnot" unicode="&#xac;" horiz-adv-x="1146" 
d="M115 508v131h917v-328h-135v197h-782z" />
    <glyph glyph-name="registered" unicode="&#xae;" horiz-adv-x="804" 
d="M401 909q-146 0 -245 99.5t-99 244.5t99.5 244.5t244.5 99.5q146 0 245 -99.5t99 -244.5q0 -144 -98.5 -244t-245.5 -100zM401 973q117 0 199 82t82 198q0 117 -82 199t-199 82q-116 0 -197 -82t-81 -199q0 -116 81.5 -198t196.5 -82zM309 1079v334h117q45 0 74.5 -25.5
t29.5 -70.5q0 -33 -21 -60t-48 -32v-2l92 -144h-59l-84 138h-48v-138h-53zM430 1268q22 0 37.5 13t15.5 34q0 22 -15 34.5t-38 12.5h-68v-94h68z" />
    <glyph glyph-name="degree" unicode="&#xb0;" horiz-adv-x="614" 
d="M307 948q-127 0 -217 90t-90 217q0 128 90 218t217 90t217 -90t90 -218q0 -127 -90 -217t-217 -90zM307 1092q68 0 116 48t48 115t-48.5 115.5t-115.5 48.5t-115.5 -48.5t-48.5 -115.5t48 -115t116 -48z" />
    <glyph glyph-name="plusminus" unicode="&#xb1;" horiz-adv-x="1146" 
d="M504 322v395h-389v131h389v395h139v-395h389v-131h-389v-395h-139zM113 41v131h915v-131h-915z" />
    <glyph glyph-name="uni00B2" unicode="&#xb2;" horiz-adv-x="567" 
d="M43 817v98l215 224q72 79 102.5 124t30.5 85q0 50 -30 78t-85 28q-58 0 -89 -36t-23 -87h-113q-9 105 58.5 172.5t166.5 67.5q103 0 169.5 -65t66.5 -163q0 -51 -25 -97.5t-79 -108.5l-189 -203v-4h293v-113h-469z" />
    <glyph glyph-name="uni00B3" unicode="&#xb3;" horiz-adv-x="563" 
d="M248 805q-64 0 -118.5 22.5t-77.5 43t-25 28.5l73 84q3 -2 16.5 -13t24.5 -18t28.5 -16t39 -13.5t45.5 -4.5q51 0 87 32t36 90q0 51 -33 83t-94 32h-64v107h68q51 0 78.5 26.5t27.5 75.5q0 43 -29.5 69.5t-72.5 26.5q-56 0 -95.5 -29.5t-47.5 -50.5l-72 70
q30 52 90.5 88.5t122.5 36.5q95 0 160 -56.5t65 -152.5q0 -59 -29.5 -102.5t-64.5 -57.5v-4q46 -9 77.5 -55.5t31.5 -106.5q0 -104 -71 -169.5t-177 -65.5z" />
    <glyph glyph-name="paragraph" unicode="&#xb6;" horiz-adv-x="1191" 
d="M821 0h-170v653q-153 0 -274.5 52.5t-196 162t-74.5 260.5q0 107 38.5 190t107 134t156.5 76.5t192 25.5h221v-1554zM1065 0h-170v1554h170v-1554z" />
    <glyph glyph-name="periodcentered" unicode="&#xb7;" horiz-adv-x="638" 
d="M319 395q-66 0 -111.5 46.5t-45.5 111.5q0 67 45.5 112.5t111.5 45.5q67 0 112.5 -45.5t45.5 -112.5q0 -65 -45.5 -111.5t-112.5 -46.5z" />
    <glyph glyph-name="uni00B9" unicode="&#xb9;" horiz-adv-x="313" 
d="M119 817v594h-4l-82 -53l-53 90l174 115h77v-746h-112z" />
    <glyph glyph-name="guillemotright" unicode="&#xbb;" horiz-adv-x="1167" 
d="M340 133l-98 88l311 328v8l-311 328l98 88l391 -416v-8zM698 119l-96 90l316 340v8l-316 340l96 90l398 -430v-8z" />
    <glyph glyph-name="onequarter" unicode="&#xbc;" horiz-adv-x="1044" 
d="M119 694v594h-4l-82 -53l-53 90l174 115h77v-746h-112zM-90 0l878 1483h80l-878 -1483h-80zM809 0v154h-332v77l334 514h113v-487h88v-104h-88v-154h-115zM623 258h186v285h-4l-182 -281v-4z" />
    <glyph glyph-name="onehalf" unicode="&#xbd;" horiz-adv-x="1032" 
d="M119 694v594h-4l-82 -53l-53 90l174 115h77v-746h-112zM-90 0l878 1483h80l-878 -1483h-80zM508 0v98l215 224q73 79 103 123.5t30 84.5q0 50 -30 78.5t-85 28.5q-58 0 -89 -36t-23 -87h-113q-9 105 58.5 172.5t166.5 67.5q103 0 169.5 -65t66.5 -163q0 -51 -25.5 -98
t-79.5 -109l-188 -202v-4h293v-113h-469z" />
    <glyph glyph-name="threequarters" unicode="&#xbe;" horiz-adv-x="1294" 
d="M248 682q-64 0 -118.5 22.5t-77.5 43t-25 28.5l73 84q3 -2 16.5 -13t24.5 -18t28.5 -16t39 -13.5t45.5 -4.5q51 0 87 32.5t36 90.5q0 51 -33 82.5t-94 31.5h-64v107h68q51 0 78.5 26.5t27.5 75.5q0 43 -29.5 69.5t-72.5 26.5q-56 0 -95.5 -29.5t-47.5 -50.5l-72 70
q30 52 90.5 88.5t122.5 36.5q95 0 160 -56.5t65 -152.5q0 -59 -29.5 -102.5t-64.5 -57.5v-4q46 -9 77.5 -55t31.5 -106q0 -104 -71 -170t-177 -66zM160 0l878 1483h80l-878 -1483h-80zM1059 0v154h-332v77l334 514h113v-487h88v-104h-88v-154h-115zM872 258h187v285h-4
l-183 -281v-4z" />
    <glyph glyph-name="questiondown" unicode="&#xbf;" horiz-adv-x="942" 
d="M582 502q0 -107 -34.5 -172t-144.5 -152q-103 -80 -135 -134t-32 -128q0 -95 59 -150t156 -55q172 0 307 185l114 -115q-76 -110 -190.5 -168.5t-224.5 -58.5q-182 0 -284.5 92.5t-102.5 261.5q0 205 227 366q125 88 125 228v110h160v-110zM498 1026q49 0 83.5 -35.5
t34.5 -83.5q0 -52 -34 -86.5t-84 -34.5q-51 0 -86 34.5t-35 86.5q0 48 35.5 83.5t85.5 35.5z" />
    <glyph glyph-name="Agrave" unicode="&#xc0;" 
d="M25 0l538 1554h242l536 -1554h-182l-151 455h-650l-149 -455h-184zM408 602h550l-270 803h-8zM633 1688l-279 278h209l238 -278h-168z" />
    <glyph glyph-name="Aacute" unicode="&#xc1;" 
d="M25 0l538 1554h242l536 -1554h-182l-151 455h-650l-149 -455h-184zM408 602h550l-270 803h-8zM567 1688l238 278h209l-279 -278h-168z" />
    <glyph glyph-name="Acircumflex" unicode="&#xc2;" 
d="M25 0l538 1554h242l536 -1554h-182l-151 455h-650l-149 -455h-184zM408 602h550l-270 803h-8zM356 1649l275 270h106l277 -270h-158l-164 131h-16l-162 -131h-158z" />
    <glyph glyph-name="Atilde" unicode="&#xc3;" 
d="M25 0l538 1554h242l536 -1554h-182l-151 455h-650l-149 -455h-184zM408 602h550l-270 803h-8zM365 1669q0 119 57 193.5t139 74.5q73 -3 156 -65q67 -53 110 -53q58 0 58 129h139q0 -127 -51.5 -203t-143.5 -76q-69 0 -145 55q-74 53 -113 56q-35 0 -53 -30.5t-18 -80.5
h-135z" />
    <glyph glyph-name="Egrave" unicode="&#xc8;" horiz-adv-x="1132" 
d="M168 0v1554h807v-147h-637v-539h588v-147h-588v-574h645v-147h-815zM516 1704l-278 278h208l238 -278h-168z" />
    <glyph glyph-name="Eacute" unicode="&#xc9;" horiz-adv-x="1132" 
d="M168 0v1554h807v-147h-637v-539h588v-147h-588v-574h645v-147h-815zM451 1704l237 278h209l-279 -278h-167z" />
    <glyph glyph-name="Ecircumflex" unicode="&#xca;" horiz-adv-x="1132" 
d="M168 0v1554h807v-147h-637v-539h588v-147h-588v-574h645v-147h-815zM240 1665l274 270h107l276 -270h-158l-164 131h-16l-162 -131h-157z" />
    <glyph glyph-name="Igrave" unicode="&#xcc;" horiz-adv-x="505" 
d="M168 0v1554h170v-1554h-170zM203 1688l-279 278h209l238 -278h-168z" />
    <glyph glyph-name="Iacute" unicode="&#xcd;" horiz-adv-x="505" 
d="M168 0v1554h170v-1554h-170zM137 1688l238 278h209l-279 -278h-168z" />
    <glyph glyph-name="Ograve" unicode="&#xd2;" horiz-adv-x="1712" 
d="M856 -25q-163 0 -307.5 63.5t-246 171t-160 255t-58.5 311.5q0 168 60.5 317.5t163.5 256t245.5 168t302.5 61.5q221 0 399 -109.5t275.5 -292.5t97.5 -401q0 -224 -102.5 -408t-279.5 -288.5t-390 -104.5zM856 121q131 0 244.5 54t191 144.5t122 209.5t44.5 247
q0 131 -45 251t-123 210t-191 143.5t-243 53.5q-105 0 -199.5 -35t-166.5 -97t-125.5 -144.5t-81 -180.5t-27.5 -201q0 -130 45 -249.5t122.5 -209t190.5 -143t242 -53.5zM805 1704l-279 278h209l238 -278h-168z" />
    <glyph glyph-name="Oacute" unicode="&#xd3;" horiz-adv-x="1712" 
d="M856 -25q-163 0 -307.5 63.5t-246 171t-160 255t-58.5 311.5q0 168 60.5 317.5t163.5 256t245.5 168t302.5 61.5q221 0 399 -109.5t275.5 -292.5t97.5 -401q0 -224 -102.5 -408t-279.5 -288.5t-390 -104.5zM856 121q131 0 244.5 54t191 144.5t122 209.5t44.5 247
q0 131 -45 251t-123 210t-191 143.5t-243 53.5q-105 0 -199.5 -35t-166.5 -97t-125.5 -144.5t-81 -180.5t-27.5 -201q0 -130 45 -249.5t122.5 -209t190.5 -143t242 -53.5zM739 1704l238 278h209l-279 -278h-168z" />
    <glyph glyph-name="Ocircumflex" unicode="&#xd4;" horiz-adv-x="1712" 
d="M856 -25q-163 0 -307.5 63.5t-246 171t-160 255t-58.5 311.5q0 168 60.5 317.5t163.5 256t245.5 168t302.5 61.5q221 0 399 -109.5t275.5 -292.5t97.5 -401q0 -224 -102.5 -408t-279.5 -288.5t-390 -104.5zM856 121q131 0 244.5 54t191 144.5t122 209.5t44.5 247
q0 131 -45 251t-123 210t-191 143.5t-243 53.5q-105 0 -199.5 -35t-166.5 -97t-125.5 -144.5t-81 -180.5t-27.5 -201q0 -130 45 -249.5t122.5 -209t190.5 -143t242 -53.5zM528 1665l275 270h106l277 -270h-158l-164 131h-16l-162 -131h-158z" />
    <glyph glyph-name="Otilde" unicode="&#xd5;" horiz-adv-x="1712" 
d="M856 -25q-163 0 -307.5 63.5t-246 171t-160 255t-58.5 311.5q0 168 60.5 317.5t163.5 256t245.5 168t302.5 61.5q221 0 399 -109.5t275.5 -292.5t97.5 -401q0 -224 -102.5 -408t-279.5 -288.5t-390 -104.5zM856 121q131 0 244.5 54t191 144.5t122 209.5t44.5 247
q0 131 -45 251t-123 210t-191 143.5t-243 53.5q-105 0 -199.5 -35t-166.5 -97t-125.5 -144.5t-81 -180.5t-27.5 -201q0 -130 45 -249.5t122.5 -209t190.5 -143t242 -53.5zM537 1686q0 119 57 193.5t139 74.5q72 -3 156 -66q67 -53 110 -53q58 0 58 129h139
q0 -127 -51.5 -202.5t-143.5 -75.5q-69 0 -145 55q-73 52 -113 55q-35 0 -53 -30t-18 -80h-135z" />
    <glyph glyph-name="multiply" unicode="&#xd7;" horiz-adv-x="1099" 
d="M207 29l344 344l342 -344l100 98l-344 344l344 344l-100 98l-342 -342l-344 342l-101 -98l445 -442l98 98l-98 100l-445 -444z" />
    <glyph glyph-name="Ugrave" unicode="&#xd9;" horiz-adv-x="1523" 
d="M762 -25q-129 0 -240.5 43t-188 117.5t-120 176t-43.5 216.5v1026h170v-1007q0 -105 47.5 -197.5t146 -153.5t228.5 -61t228.5 61t146 153.5t47.5 197.5v1007h170v-1026q0 -115 -43.5 -216.5t-120 -176t-188 -117.5t-240.5 -43zM709 1688l-279 278h209l238 -278h-168z
" />
    <glyph glyph-name="Uacute" unicode="&#xda;" horiz-adv-x="1523" 
d="M762 -25q-129 0 -240.5 43t-188 117.5t-120 176t-43.5 216.5v1026h170v-1007q0 -105 47.5 -197.5t146 -153.5t228.5 -61t228.5 61t146 153.5t47.5 197.5v1007h170v-1026q0 -115 -43.5 -216.5t-120 -176t-188 -117.5t-240.5 -43zM643 1688l238 278h209l-279 -278h-168z
" />
    <glyph glyph-name="Yacute" unicode="&#xdd;" horiz-adv-x="1261" 
d="M547 0v686l-498 868h180l398 -700h8l397 700h182l-497 -868v-686h-170zM514 1688l238 278h209l-279 -278h-168z" />
    <glyph glyph-name="agrave" unicode="&#xe0;" horiz-adv-x="1175" 
d="M145 946q157 187 422 187q222 0 344.5 -121t122.5 -322v-690h-160v174h-8q-56 -97 -152.5 -148t-213.5 -51q-185 0 -292.5 97t-107.5 241q0 164 111 256.5t326 92.5h337v45q0 128 -93 202t-226 74q-101 0 -179.5 -40.5t-123.5 -102.5zM539 532q-132 0 -200.5 -55
t-68.5 -151q0 -91 67.5 -147t174.5 -56q152 0 257 103t105 276v30h-335zM522 1276l-278 278h209l237 -278h-168z" />
    <glyph glyph-name="aacute" unicode="&#xe1;" horiz-adv-x="1175" 
d="M145 946q157 187 422 187q222 0 344.5 -121t122.5 -322v-690h-160v174h-8q-56 -97 -152.5 -148t-213.5 -51q-185 0 -292.5 97t-107.5 241q0 164 111 256.5t326 92.5h337v45q0 128 -93 202t-226 74q-101 0 -179.5 -40.5t-123.5 -102.5zM539 532q-132 0 -200.5 -55
t-68.5 -151q0 -91 67.5 -147t174.5 -56q152 0 257 103t105 276v30h-335zM457 1276l237 278h209l-278 -278h-168z" />
    <glyph glyph-name="acircumflex" unicode="&#xe2;" horiz-adv-x="1175" 
d="M145 946q157 187 422 187q222 0 344.5 -121t122.5 -322v-690h-160v174h-8q-56 -97 -152.5 -148t-213.5 -51q-185 0 -292.5 97t-107.5 241q0 164 111 256.5t326 92.5h337v45q0 128 -93 202t-226 74q-101 0 -179.5 -40.5t-123.5 -102.5zM539 532q-132 0 -200.5 -55
t-68.5 -151q0 -91 67.5 -147t174.5 -56q152 0 257 103t105 276v30h-335zM246 1237l274 270h107l276 -270h-158l-163 131h-17l-162 -131h-157z" />
    <glyph glyph-name="atilde" unicode="&#xe3;" horiz-adv-x="1175" 
d="M145 946q157 187 422 187q222 0 344.5 -121t122.5 -322v-690h-160v174h-8q-56 -97 -152.5 -148t-213.5 -51q-185 0 -292.5 97t-107.5 241q0 164 111 256.5t326 92.5h337v45q0 128 -93 202t-226 74q-101 0 -179.5 -40.5t-123.5 -102.5zM539 532q-132 0 -200.5 -55
t-68.5 -151q0 -91 67.5 -147t174.5 -56q152 0 257 103t105 276v30h-335zM254 1257q0 119 57.5 194t139.5 75q70 -3 155 -66q67 -53 111 -53q57 0 57 129h139q0 -127 -51 -203t-143 -76q-69 0 -146 56q-73 52 -112 55q-35 0 -53.5 -30.5t-18.5 -80.5h-135z" />
    <glyph glyph-name="egrave" unicode="&#xe8;" horiz-adv-x="1251" 
d="M649 -25q-267 0 -419 159t-152 419q0 165 74 297.5t200.5 206t278.5 73.5q236 0 379 -150.5t143 -430.5v-39h-901q11 -173 121.5 -280t296.5 -107q108 0 183.5 39.5t133.5 118.5l109 -103q-154 -203 -447 -203zM983 639q-7 151 -108 247.5t-244 96.5q-148 0 -255.5 -97
t-117.5 -247h725zM588 1294l-279 279h209l238 -279h-168z" />
    <glyph glyph-name="eacute" unicode="&#xe9;" horiz-adv-x="1251" 
d="M649 -25q-267 0 -419 159t-152 419q0 165 74 297.5t200.5 206t278.5 73.5q236 0 379 -150.5t143 -430.5v-39h-901q11 -173 121.5 -280t296.5 -107q108 0 183.5 39.5t133.5 118.5l109 -103q-154 -203 -447 -203zM983 639q-7 151 -108 247.5t-244 96.5q-148 0 -255.5 -97
t-117.5 -247h725zM522 1294l238 279h209l-279 -279h-168z" />
    <glyph glyph-name="ecircumflex" unicode="&#xea;" horiz-adv-x="1251" 
d="M649 -25q-267 0 -419 159t-152 419q0 165 74 297.5t200.5 206t278.5 73.5q236 0 379 -150.5t143 -430.5v-39h-901q11 -173 121.5 -280t296.5 -107q108 0 183.5 39.5t133.5 118.5l109 -103q-154 -203 -447 -203zM983 639q-7 151 -108 247.5t-244 96.5q-148 0 -255.5 -97
t-117.5 -247h725zM311 1255l275 271h106l277 -271h-158l-164 131h-16l-162 -131h-158z" />
    <glyph glyph-name="igrave" unicode="&#xec;" horiz-adv-x="434" 
d="M158 0v1104h161v-1104h-161zM186 1262l-278 278h209l237 -278h-168z" />
    <glyph glyph-name="iacute" unicode="&#xed;" horiz-adv-x="434" 
d="M158 0v1104h161v-1104h-161zM121 1262l237 278h209l-278 -278h-168z" />
    <glyph glyph-name="ograve" unicode="&#xf2;" horiz-adv-x="1271" 
d="M637 -25q-85 0 -166 24.5t-152 73.5t-125 117.5t-85 162t-31 200.5q0 133 46.5 243.5t124 182.5t178 111.5t210.5 39.5q107 0 206.5 -39.5t178 -111.5t125.5 -183t47 -243q0 -133 -46.5 -243.5t-124 -183t-177.5 -112t-209 -39.5zM637 121q171 0 278 123.5t107 308.5
q0 186 -107 309t-278 123t-279 -123.5t-108 -308.5q0 -184 108 -308t279 -124zM586 1278l-279 278h209l238 -278h-168z" />
    <glyph glyph-name="oacute" unicode="&#xf3;" horiz-adv-x="1271" 
d="M637 -25q-85 0 -166 24.5t-152 73.5t-125 117.5t-85 162t-31 200.5q0 133 46.5 243.5t124 182.5t178 111.5t210.5 39.5q107 0 206.5 -39.5t178 -111.5t125.5 -183t47 -243q0 -133 -46.5 -243.5t-124 -183t-177.5 -112t-209 -39.5zM637 121q171 0 278 123.5t107 308.5
q0 186 -107 309t-278 123t-279 -123.5t-108 -308.5q0 -184 108 -308t279 -124zM520 1278l238 278h209l-279 -278h-168z" />
    <glyph glyph-name="ocircumflex" unicode="&#xf4;" horiz-adv-x="1271" 
d="M637 -25q-85 0 -166 24.5t-152 73.5t-125 117.5t-85 162t-31 200.5q0 133 46.5 243.5t124 182.5t178 111.5t210.5 39.5q107 0 206.5 -39.5t178 -111.5t125.5 -183t47 -243q0 -133 -46.5 -243.5t-124 -183t-177.5 -112t-209 -39.5zM637 121q171 0 278 123.5t107 308.5
q0 186 -107 309t-278 123t-279 -123.5t-108 -308.5q0 -184 108 -308t279 -124zM309 1239l275 270h106l277 -270h-158l-164 131h-16l-162 -131h-158z" />
    <glyph glyph-name="otilde" unicode="&#xf5;" horiz-adv-x="1271" 
d="M637 -25q-85 0 -166 24.5t-152 73.5t-125 117.5t-85 162t-31 200.5q0 133 46.5 243.5t124 182.5t178 111.5t210.5 39.5q107 0 206.5 -39.5t178 -111.5t125.5 -183t47 -243q0 -133 -46.5 -243.5t-124 -183t-177.5 -112t-209 -39.5zM637 121q171 0 278 123.5t107 308.5
q0 186 -107 309t-278 123t-279 -123.5t-108 -308.5q0 -184 108 -308t279 -124zM317 1260q0 118 57.5 193t139.5 75q72 -3 156 -66q67 -53 110 -53q58 0 58 129h139q0 -127 -51.5 -202.5t-143.5 -75.5q-69 0 -145 55q-73 52 -113 55q-35 0 -53 -30t-18 -80h-136z" />
    <glyph glyph-name="divide" unicode="&#xf7;" horiz-adv-x="1107" 
d="M115 406v131h876v-131h-876zM553 51q-47 0 -81 35t-34 82t34 81t81 34q49 0 83 -33.5t34 -81.5t-34 -82.5t-83 -34.5zM553 659q-47 0 -81 34t-34 81q0 49 33.5 83t81.5 34q49 0 83 -33.5t34 -83.5q0 -48 -34 -81.5t-83 -33.5z" />
    <glyph glyph-name="ugrave" unicode="&#xf9;" horiz-adv-x="1265" 
d="M598 -25q-97 0 -180 32.5t-145.5 94.5t-98 159.5t-35.5 221.5v621h160v-621q0 -152 89.5 -259t236.5 -107q139 0 231 117t92 307v563h160v-1104h-160v172h-8q-37 -89 -125.5 -143t-216.5 -54zM590 1262l-279 278h209l238 -278h-168z" />
    <glyph glyph-name="uacute" unicode="&#xfa;" horiz-adv-x="1265" 
d="M598 -25q-97 0 -180 32.5t-145.5 94.5t-98 159.5t-35.5 221.5v621h160v-621q0 -152 89.5 -259t236.5 -107q139 0 231 117t92 307v563h160v-1104h-160v172h-8q-37 -89 -125.5 -143t-216.5 -54zM524 1262l238 278h209l-279 -278h-168z" />
    <glyph glyph-name="yacute" unicode="&#xfd;" horiz-adv-x="1144" 
d="M176 -416v148h176q41 0 63.5 28t53.5 107l47 125v8h-65l-392 1104h189l317 -950h8l342 950h172l-434 -1221q-24 -66 -38.5 -102.5t-34.5 -76t-37.5 -58t-44 -35t-57.5 -22t-74 -5.5h-191zM471 1262l238 278h209l-279 -278h-168z" />
    <glyph glyph-name="Abreve" unicode="&#x102;" 
d="M25 0l538 1554h242l536 -1554h-182l-151 455h-650l-149 -455h-184zM408 602h550l-270 803h-8zM684 1638q-81 0 -124.5 9t-80.5 41q-34 29 -61 122l-27 111h127q15 -57 35 -104q18 -36 45 -50q20 -8 86 -8q62 0 86 8q27 14 45 50q20 47 35 104h127l-27 -111
q-27 -93 -61 -122q-37 -32 -80.5 -41t-124.5 -9z" />
    <glyph glyph-name="abreve" unicode="&#x103;" horiz-adv-x="1175" 
d="M145 946q157 187 422 187q222 0 344.5 -121t122.5 -322v-690h-160v174h-8q-56 -97 -152.5 -148t-213.5 -51q-185 0 -292.5 97t-107.5 241q0 164 111 256.5t326 92.5h337v45q0 128 -93 202t-226 74q-101 0 -179.5 -40.5t-123.5 -102.5zM539 532q-132 0 -200.5 -55
t-68.5 -151q0 -91 67.5 -147t174.5 -56q152 0 257 103t105 276v30h-335zM573 1227q-82 0 -124.5 9t-79.5 40q-35 30 -62 123l-26 110h127q16 -63 34 -104q17 -35 45 -49q20 -8 86 -8q62 0 86 8q29 15 46 49q18 41 34 104h127l-26 -110q-27 -93 -62 -123q-37 -31 -80 -40
t-125 -9z" />
    <glyph glyph-name="Dcroat" unicode="&#x110;" horiz-adv-x="1497" 
d="M168 0v709h-94v147h94v698h457q369 0 573.5 -194t204.5 -535q0 -190 -64.5 -347t-176.5 -260.5t-263 -160.5t-324 -57h-407zM565 147q153 0 280 52.5t210.5 143t129.5 211t46 257.5q0 297 -158.5 446.5t-449.5 149.5h-285v-551h328v-147h-328v-562h227z" />
    <glyph glyph-name="dcroat" unicode="&#x111;" horiz-adv-x="1355" 
d="M616 -25q-101 0 -195 37t-171.5 106.5t-124.5 183.5t-47 255q0 135 45 245t122 182t177.5 110.5t214.5 38.5q121 0 227.5 -55t165.5 -140h8v405h-307v132h307v122h160v-122h90v-132h-90v-1343h-160v150h-8q-57 -77 -170 -126t-244 -49zM647 121q171 0 283 124t112 308
t-112 308t-283 124q-172 0 -284.5 -124t-112.5 -308q0 -183 112.5 -307.5t284.5 -124.5z" />
    <glyph glyph-name="Itilde" unicode="&#x128;" horiz-adv-x="505" 
d="M168 0v1554h170v-1554h-170zM-66 1669q0 118 57.5 193t139.5 75q73 -3 156 -65q67 -53 110 -53q58 0 58 129h139q0 -127 -51.5 -203t-143.5 -76q-69 0 -145 55q-74 53 -113 56q-35 0 -53 -30.5t-18 -80.5h-136z" />
    <glyph glyph-name="itilde" unicode="&#x129;" horiz-adv-x="434" 
d="M158 0v1104h161v-1104h-161zM-82 1243q0 118 57.5 193t139.5 75q72 -3 155 -65q67 -53 111 -53q57 0 57 129h140q0 -127 -51.5 -203t-143.5 -76q-69 0 -145 55q-74 53 -113 56q-35 0 -53.5 -30.5t-18.5 -80.5h-135z" />
    <glyph glyph-name="Utilde" unicode="&#x168;" horiz-adv-x="1523" 
d="M762 -25q-129 0 -240.5 43t-188 117.5t-120 176t-43.5 216.5v1026h170v-1007q0 -105 47.5 -197.5t146 -153.5t228.5 -61t228.5 61t146 153.5t47.5 197.5v1007h170v-1026q0 -115 -43.5 -216.5t-120 -176t-188 -117.5t-240.5 -43zM440 1669q0 118 57.5 193t139.5 75
q73 -3 156 -65q67 -53 110 -53q58 0 58 129h139q0 -127 -51.5 -203t-143.5 -76q-69 0 -145 55q-74 53 -113 56q-35 0 -53.5 -30.5t-18.5 -80.5h-135z" />
    <glyph glyph-name="utilde" unicode="&#x169;" horiz-adv-x="1265" 
d="M598 -25q-97 0 -180 32.5t-145.5 94.5t-98 159.5t-35.5 221.5v621h160v-621q0 -152 89.5 -259t236.5 -107q139 0 231 117t92 307v563h160v-1104h-160v172h-8q-37 -89 -125.5 -143t-216.5 -54zM322 1243q0 119 57 193.5t139 74.5q73 -3 156 -65q67 -53 110 -53
q58 0 58 129h139q0 -127 -51.5 -203t-143.5 -76q-69 0 -145 55q-74 53 -113 56q-35 0 -53 -30.5t-18 -80.5h-135z" />
    <glyph glyph-name="Ohorn" unicode="&#x1a0;" horiz-adv-x="1712" 
d="M856 -25q-163 0 -307.5 63.5t-246 171t-160 255t-58.5 311.5q0 168 60.5 317.5t163.5 256t245.5 168t302.5 61.5q172 0 324 -70q86 6 86 99q0 59 -35 118h172q22 -48 22 -129q0 -111 -112 -165q147 -109 231 -282.5t84 -373.5q0 -224 -102.5 -408t-279.5 -288.5
t-390 -104.5zM856 121q131 0 244.5 54t191 144.5t122 209.5t44.5 247q0 131 -45 251t-123 210t-191 143.5t-243 53.5q-105 0 -199.5 -35t-166.5 -97t-125.5 -144.5t-81 -180.5t-27.5 -201q0 -130 45 -249.5t122.5 -209t190.5 -143t242 -53.5z" />
    <glyph glyph-name="ohorn" unicode="&#x1a1;" horiz-adv-x="1306" 
d="M637 -25q-85 0 -166 24.5t-152 73.5t-125 117.5t-85 162t-31 200.5q0 133 46.5 243.5t124 182.5t178 111.5t210.5 39.5q157 0 287 -77q75 9 75 96q0 61 -34 119h172q22 -48 22 -129q0 -119 -125 -172q160 -163 160 -414q0 -133 -46.5 -243.5t-124 -183t-177.5 -112
t-209 -39.5zM637 121q171 0 278 123.5t107 308.5q0 186 -107 309t-278 123t-279 -123.5t-108 -308.5q0 -184 108 -308t279 -124z" />
    <glyph glyph-name="Uhorn" unicode="&#x1af;" horiz-adv-x="1527" 
d="M762 -25q-129 0 -240.5 43t-188 117.5t-120 176t-43.5 216.5v1026h170v-1007q0 -105 47.5 -197.5t146 -153.5t228.5 -61t228.5 61t146 153.5t47.5 197.5v1007h170v-30q37 23 37 84q0 59 -35 118h172q22 -48 22 -129q0 -76 -53 -126.5t-143 -65.5v-877
q0 -115 -43.5 -216.5t-120 -176t-188 -117.5t-240.5 -43z" />
    <glyph glyph-name="uhorn" unicode="&#x1b0;" horiz-adv-x="1343" 
d="M598 -25q-97 0 -180 32.5t-145.5 94.5t-98 159.5t-35.5 221.5v621h160v-621q0 -152 89.5 -259t236.5 -107q139 0 231 117t92 307v563h160v-47q55 18 55 92q0 60 -35 119h172q23 -50 23 -129t-58.5 -132t-156.5 -65v-942h-160v172h-8q-37 -89 -125.5 -143t-216.5 -54z" />
    <glyph glyph-name="gravecomb" unicode="&#x300;" horiz-adv-x="0" 
d="M279 1229l-279 278h209l237 -278h-167z" />
    <glyph glyph-name="acutecomb" unicode="&#x301;" horiz-adv-x="0" 
d="M0 1229l238 278h208l-278 -278h-168z" />
    <glyph glyph-name="uni0302" unicode="&#x302;" horiz-adv-x="0" 
d="M0 1190l274 270h107l276 -270h-157l-164 131h-17l-161 -131h-158z" />
    <glyph glyph-name="tildecomb" unicode="&#x303;" horiz-adv-x="0" 
d="M0 1210q0 119 57.5 194t139.5 75q70 -3 155 -66q67 -53 111 -53q57 0 57 129h139q0 -127 -51 -203t-143 -76q-69 0 -146 56q-73 52 -112 55q-35 0 -53.5 -30.5t-18.5 -80.5h-135z" />
    <glyph glyph-name="uni0306" unicode="&#x306;" horiz-adv-x="0" 
d="M295 1180q-82 0 -125 9t-80 40q-33 29 -61 123l-27 110h127q15 -57 35 -104q17 -35 45 -49q22 -9 86 -9q59 0 86 9q28 14 45 49q20 47 35 104h127l-27 -110q-28 -94 -61 -123q-37 -31 -80 -40t-125 -9z" />
    <glyph glyph-name="hookabovecomb" unicode="&#x309;" horiz-adv-x="0" 
d="M121 1247q0 33 14 54.5t55 46.5q68 37 68 86q0 21 -19 36t-46 15q-33 0 -61 -14.5t-42 -38.5l-80 79q59 103 185 103q93 0 153 -45.5t60 -122.5q0 -112 -140 -180q-16 -8 -23 -17t-8 -16t-1 -23v-12h-115v49z" />
    <glyph glyph-name="uni031B" unicode="&#x31b;" horiz-adv-x="0" 
d="M0 1112v111h29q96 0 96 98q0 60 -35 119h172q23 -50 23 -129q0 -90 -75 -144.5t-192 -54.5h-18z" />
    <glyph glyph-name="dotbelowcomb" unicode="&#x323;" horiz-adv-x="0" 
d="M98 -330q-40 0 -69 29.5t-29 71.5q0 40 29 69t69 29q42 0 71.5 -29t29.5 -69q0 -43 -29 -72t-72 -29z" />
    <glyph glyph-name="uni0E3F" unicode="&#xe3f;" horiz-adv-x="1290" 
d="M168 0v1554h375v150h123v-150q95 -2 174.5 -25t142.5 -67t98 -117t35 -169q0 -108 -61 -217.5t-154 -141.5v-6q43 -10 87 -36t87.5 -69.5t71 -115t27.5 -158.5q0 -207 -139 -319.5t-361 -112.5h-8v-147h-123v147h-375zM705 147q125 0 212 76.5t87 227.5q0 117 -93 198.5
t-227 81.5h-18v-584h39zM698 879q32 0 71.5 16t80.5 48t68.5 91t27.5 133q0 122 -69.5 179.5t-210.5 60.5v-528h32zM338 147h205v584h-205v-584zM338 879h205v528h-205v-528z" />
    <glyph glyph-name="uni1EA0" unicode="&#x1ea0;" 
d="M25 0l538 1554h242l536 -1554h-182l-151 455h-650l-149 -455h-184zM408 602h550l-270 803h-8zM684 -338q-40 0 -69 29t-29 71q0 40 29 69.5t69 29.5q42 0 71 -29.5t29 -69.5q0 -43 -28.5 -71.5t-71.5 -28.5z" />
    <glyph glyph-name="uni1EA1" unicode="&#x1ea1;" horiz-adv-x="1175" 
d="M145 946q157 187 422 187q222 0 344.5 -121t122.5 -322v-690h-160v174h-8q-56 -97 -152.5 -148t-213.5 -51q-185 0 -292.5 97t-107.5 241q0 164 111 256.5t326 92.5h337v45q0 128 -93 202t-226 74q-101 0 -179.5 -40.5t-123.5 -102.5zM539 532q-132 0 -200.5 -55
t-68.5 -151q0 -91 67.5 -147t174.5 -56q152 0 257 103t105 276v30h-335zM584 -338q-40 0 -69.5 29t-29.5 71q0 40 29.5 69.5t69.5 29.5q42 0 71 -29.5t29 -69.5q0 -43 -28.5 -71.5t-71.5 -28.5z" />
    <glyph glyph-name="uni1EA2" unicode="&#x1ea2;" 
d="M25 0l538 1554h242l536 -1554h-182l-151 455h-650l-149 -455h-184zM408 602h550l-270 803h-8zM602 1706q0 33 14 53.5t56 46.5q67 37 67 86q0 21 -19 36.5t-46 15.5q-33 0 -61 -15t-42 -39l-79 80q59 103 184 103q93 0 153 -45.5t60 -122.5q0 -113 -139 -181
q-23 -11 -28 -22t-5 -33v-12h-115v49z" />
    <glyph glyph-name="uni1EA3" unicode="&#x1ea3;" horiz-adv-x="1175" 
d="M145 946q157 187 422 187q222 0 344.5 -121t122.5 -322v-690h-160v174h-8q-56 -97 -152.5 -148t-213.5 -51q-185 0 -292.5 97t-107.5 241q0 164 111 256.5t326 92.5h337v45q0 128 -93 202t-226 74q-101 0 -179.5 -40.5t-123.5 -102.5zM539 532q-132 0 -200.5 -55
t-68.5 -151q0 -91 67.5 -147t174.5 -56q152 0 257 103t105 276v30h-335zM492 1294q0 33 14 54.5t55 46.5q68 37 68 86q0 21 -19.5 36t-46.5 15q-33 0 -60.5 -14.5t-41.5 -38.5l-80 80q58 102 184 102q93 0 153 -45.5t60 -122.5q0 -112 -139 -180q-23 -11 -28 -22t-5 -34v-12
h-114v49z" />
    <glyph glyph-name="uni1EA4" unicode="&#x1ea4;" 
d="M25 0l538 1554h242l536 -1554h-182l-151 455h-650l-149 -455h-184zM408 602h550l-270 803h-8zM836 1845l221 254h211l-254 -254h-178zM360 1645l267 241h112l267 -241h-168l-146 114h-16l-148 -114h-168z" />
    <glyph glyph-name="uni1EA5" unicode="&#x1ea5;" horiz-adv-x="1175" 
d="M145 946q157 187 422 187q222 0 344.5 -121t122.5 -322v-690h-160v174h-8q-56 -97 -152.5 -148t-213.5 -51q-185 0 -292.5 97t-107.5 241q0 164 111 256.5t326 92.5h337v45q0 128 -93 202t-226 74q-101 0 -179.5 -40.5t-123.5 -102.5zM539 532q-132 0 -200.5 -55
t-68.5 -151q0 -91 67.5 -147t174.5 -56q152 0 257 103t105 276v30h-335zM725 1434l221 254h211l-254 -254h-178zM250 1233l266 242h113l266 -242h-168l-145 115h-17l-147 -115h-168z" />
    <glyph glyph-name="uni1EA6" unicode="&#x1ea6;" 
d="M25 0l538 1554h242l536 -1554h-182l-151 455h-650l-149 -455h-184zM408 602h550l-270 803h-8zM932 1829l-254 254h211l221 -254h-178zM360 1645l267 241h112l267 -241h-168l-146 114h-16l-148 -114h-168z" />
    <glyph glyph-name="uni1EA7" unicode="&#x1ea7;" horiz-adv-x="1175" 
d="M145 946q157 187 422 187q222 0 344.5 -121t122.5 -322v-690h-160v174h-8q-56 -97 -152.5 -148t-213.5 -51q-185 0 -292.5 97t-107.5 241q0 164 111 256.5t326 92.5h337v45q0 128 -93 202t-226 74q-101 0 -179.5 -40.5t-123.5 -102.5zM539 532q-132 0 -200.5 -55
t-68.5 -151q0 -91 67.5 -147t174.5 -56q152 0 257 103t105 276v30h-335zM821 1417l-254 254h211l221 -254h-178zM250 1233l266 242h113l266 -242h-168l-145 115h-17l-147 -115h-168z" />
    <glyph glyph-name="uni1EA8" unicode="&#x1ea8;" 
d="M25 0l538 1554h242l536 -1554h-182l-151 455h-650l-149 -455h-184zM408 602h550l-270 803h-8zM881 1823q0 34 13.5 54t55.5 46q68 40 68 86q0 22 -19 36.5t-47 14.5q-60 0 -102 -53l-76 76q64 94 187 100q89 0 147.5 -46t58.5 -116q0 -59 -31.5 -100t-99.5 -80
q-16 -9 -23 -17.5t-8 -15t-1 -22.5v-4h-123v41zM360 1645l267 241h112l267 -241h-168l-146 114h-16l-148 -114h-168z" />
    <glyph glyph-name="uni1EA9" unicode="&#x1ea9;" horiz-adv-x="1175" 
d="M145 946q157 187 422 187q222 0 344.5 -121t122.5 -322v-690h-160v174h-8q-56 -97 -152.5 -148t-213.5 -51q-185 0 -292.5 97t-107.5 241q0 164 111 256.5t326 92.5h337v45q0 128 -93 202t-226 74q-101 0 -179.5 -40.5t-123.5 -102.5zM539 532q-132 0 -200.5 -55
t-68.5 -151q0 -91 67.5 -147t174.5 -56q152 0 257 103t105 276v30h-335zM770 1411q0 34 14 54t56 46q36 22 51.5 41.5t15.5 44.5q0 22 -18.5 37t-46.5 15q-61 0 -103 -54l-75 76q65 95 186 101q89 0 148 -46t59 -116q0 -59 -31.5 -100t-99.5 -80q-23 -12 -28 -23t-5 -33v-4
h-123v41zM250 1233l266 242h113l266 -242h-168l-145 115h-17l-147 -115h-168z" />
    <glyph glyph-name="uni1EAA" unicode="&#x1eaa;" 
d="M25 0l538 1554h242l536 -1554h-182l-151 455h-650l-149 -455h-184zM408 602h550l-270 803h-8zM401 1958q0 117 56 188.5t133 71.5q68 0 149 -66q79 -61 117 -61q34 0 55 43t21 102h125q0 -123 -57 -200.5t-144 -77.5q-67 0 -137 55q-75 60 -117 60q-35 0 -55.5 -33
t-20.5 -82h-125zM360 1645l267 241h112l267 -241h-168l-146 114h-16l-148 -114h-168z" />
    <glyph glyph-name="uni1EAB" unicode="&#x1eab;" horiz-adv-x="1175" 
d="M145 946q157 187 422 187q222 0 344.5 -121t122.5 -322v-690h-160v174h-8q-56 -97 -152.5 -148t-213.5 -51q-185 0 -292.5 97t-107.5 241q0 164 111 256.5t326 92.5h337v45q0 128 -93 202t-226 74q-101 0 -179.5 -40.5t-123.5 -102.5zM539 532q-132 0 -200.5 -55
t-68.5 -151q0 -91 67.5 -147t174.5 -56q152 0 257 103t105 276v30h-335zM291 1546q0 117 55.5 188.5t132.5 71.5q70 0 150 -65q80 -62 116 -62q34 0 55 43t21 103h125q0 -123 -57 -201t-144 -78q-66 0 -137 56q-73 59 -116 59q-35 0 -55.5 -33t-20.5 -82h-125zM250 1233
l266 242h113l266 -242h-168l-145 115h-17l-147 -115h-168z" />
    <glyph glyph-name="uni1EAC" unicode="&#x1eac;" 
d="M25 0l538 1554h242l536 -1554h-182l-151 455h-650l-149 -455h-184zM408 602h550l-270 803h-8zM356 1649l275 270h106l277 -270h-158l-164 131h-16l-162 -131h-158zM684 -338q-40 0 -69 29t-29 71q0 40 29 69.5t69 29.5q42 0 71 -29.5t29 -69.5q0 -43 -28.5 -71.5
t-71.5 -28.5z" />
    <glyph glyph-name="uni1EAD" unicode="&#x1ead;" horiz-adv-x="1175" 
d="M145 946q157 187 422 187q222 0 344.5 -121t122.5 -322v-690h-160v174h-8q-56 -97 -152.5 -148t-213.5 -51q-185 0 -292.5 97t-107.5 241q0 164 111 256.5t326 92.5h337v45q0 128 -93 202t-226 74q-101 0 -179.5 -40.5t-123.5 -102.5zM539 532q-132 0 -200.5 -55
t-68.5 -151q0 -91 67.5 -147t174.5 -56q152 0 257 103t105 276v30h-335zM246 1237l274 270h107l276 -270h-158l-163 131h-17l-162 -131h-157zM584 -338q-40 0 -69.5 29t-29.5 71q0 40 29.5 69.5t69.5 29.5q42 0 71 -29.5t29 -69.5q0 -43 -28.5 -71.5t-71.5 -28.5z" />
    <glyph glyph-name="uni1EAE" unicode="&#x1eae;" 
d="M25 0l538 1554h242l536 -1554h-182l-151 455h-650l-149 -455h-184zM408 602h550l-270 803h-8zM684 1638q-79 0 -122 9.5t-81 40.5q-37 32 -63 120q-25 92 -27 103h129q8 -55 25 -94q18 -36 45 -50q20 -8 94 -8q70 0 94 8q27 14 45 50q17 39 25 94h129q-2 -11 -27 -103
q-26 -88 -63 -120q-38 -31 -81 -40.5t-122 -9.5zM600 1935l213 254h209l-254 -254h-168z" />
    <glyph glyph-name="uni1EAF" unicode="&#x1eaf;" horiz-adv-x="1175" 
d="M145 946q157 187 422 187q222 0 344.5 -121t122.5 -322v-690h-160v174h-8q-56 -97 -152.5 -148t-213.5 -51q-185 0 -292.5 97t-107.5 241q0 164 111 256.5t326 92.5h337v45q0 128 -93 202t-226 74q-101 0 -179.5 -40.5t-123.5 -102.5zM539 532q-132 0 -200.5 -55
t-68.5 -151q0 -91 67.5 -147t174.5 -56q152 0 257 103t105 276v30h-335zM573 1227q-79 0 -121.5 9t-80.5 40q-38 33 -64 121q-22 82 -26 102h129q9 -58 24 -94q17 -35 45 -49q20 -8 94 -8q71 0 95 8q28 14 45 49q15 36 24 94h129q-4 -20 -26 -102q-26 -88 -64 -121
q-38 -30 -80.5 -39.5t-122.5 -9.5zM489 1524l213 254h209l-254 -254h-168z" />
    <glyph glyph-name="uni1EB0" unicode="&#x1eb0;" 
d="M25 0l538 1554h242l536 -1554h-182l-151 455h-650l-149 -455h-184zM408 602h550l-270 803h-8zM684 1638q-78 0 -121 9.5t-82 40.5q-36 29 -63 120l-27 103h129q8 -55 25 -94q18 -36 45 -50q20 -8 94 -8q70 0 94 8q27 14 45 50q17 39 25 94h129l-27 -103q-27 -91 -63 -120
q-39 -31 -82 -40.5t-121 -9.5zM608 1905l-254 254h209l213 -254h-168z" />
    <glyph glyph-name="uni1EB1" unicode="&#x1eb1;" horiz-adv-x="1175" 
d="M145 946q157 187 422 187q222 0 344.5 -121t122.5 -322v-690h-160v174h-8q-56 -97 -152.5 -148t-213.5 -51q-185 0 -292.5 97t-107.5 241q0 164 111 256.5t326 92.5h337v45q0 128 -93 202t-226 74q-101 0 -179.5 -40.5t-123.5 -102.5zM539 532q-132 0 -200.5 -55
t-68.5 -151q0 -91 67.5 -147t174.5 -56q152 0 257 103t105 276v30h-335zM573 1227q-79 0 -121 9t-81 40q-37 30 -64 121l-26 102h129q9 -58 24 -94q17 -35 45 -49q20 -8 94 -8q71 0 95 8q28 14 45 49q15 36 24 94h129l-26 -102q-27 -91 -64 -121q-39 -31 -81.5 -40
t-121.5 -9zM498 1493l-254 254h209l213 -254h-168z" />
    <glyph glyph-name="uni1EB2" unicode="&#x1eb2;" 
d="M25 0l538 1554h242l536 -1554h-182l-151 455h-650l-149 -455h-184zM408 602h550l-270 803h-8zM684 1634q-79 0 -121.5 9t-81.5 40q-36 29 -63 121l-27 103h129q8 -57 25 -95q17 -35 45 -49q20 -8 94 -8q70 0 94 8q28 14 45 49q17 38 25 95h129l-27 -103q-27 -92 -63 -121
q-39 -31 -81.5 -40t-121.5 -9zM616 1946q0 33 14 53.5t56 46.5q68 37 68 86q0 21 -18.5 36t-47.5 15q-55 0 -102 -53l-76 76q64 94 186 100q90 0 148.5 -46.5t58.5 -115.5q0 -60 -31.5 -101t-99.5 -79q-23 -12 -28 -22.5t-5 -32.5v-4h-123v41z" />
    <glyph glyph-name="uni1EB3" unicode="&#x1eb3;" horiz-adv-x="1175" 
d="M145 946q157 187 422 187q222 0 344.5 -121t122.5 -322v-690h-160v174h-8q-56 -97 -152.5 -148t-213.5 -51q-185 0 -292.5 97t-107.5 241q0 164 111 256.5t326 92.5h337v45q0 128 -93 202t-226 74q-101 0 -179.5 -40.5t-123.5 -102.5zM539 532q-132 0 -200.5 -55
t-68.5 -151q0 -91 67.5 -147t174.5 -56q152 0 257 103t105 276v30h-335zM573 1223q-79 0 -121 9t-81 40q-37 30 -64 121l-26 102h129q9 -58 24 -94q17 -35 45 -49q22 -9 94 -9q68 0 95 9q28 14 45 49q15 36 24 94h129l-26 -102q-27 -91 -64 -121q-39 -31 -81.5 -40
t-121.5 -9zM506 1534q0 33 13.5 53.5t55.5 46.5q68 37 68 86q0 21 -18.5 36.5t-46.5 15.5q-55 0 -103 -54l-76 76q64 94 187 100q90 0 148.5 -46t58.5 -115q0 -60 -31.5 -101.5t-99.5 -79.5q-23 -12 -28 -22.5t-5 -32.5v-4h-123v41z" />
    <glyph glyph-name="uni1EB4" unicode="&#x1eb4;" 
d="M25 0l538 1554h242l536 -1554h-182l-151 455h-650l-149 -455h-184zM408 602h550l-270 803h-8zM522 1985q0 122 56.5 196t134.5 74q65 0 149 -66q76 -61 117 -61q34 0 55 43t21 102h127q0 -127 -58 -207.5t-145 -80.5q-67 0 -137 55q-77 59 -117 59q-36 0 -56 -32.5
t-20 -81.5h-127zM684 1634q-79 0 -121.5 9t-81.5 40q-36 29 -63 121l-27 103h129q8 -57 25 -95q17 -35 45 -49q20 -8 94 -8q70 0 94 8q28 14 45 49q17 38 25 95h129l-27 -103q-27 -92 -63 -121q-39 -31 -81.5 -40t-121.5 -9z" />
    <glyph glyph-name="uni1EB5" unicode="&#x1eb5;" horiz-adv-x="1175" 
d="M145 946q157 187 422 187q222 0 344.5 -121t122.5 -322v-690h-160v174h-8q-56 -97 -152.5 -148t-213.5 -51q-185 0 -292.5 97t-107.5 241q0 164 111 256.5t326 92.5h337v45q0 128 -93 202t-226 74q-101 0 -179.5 -40.5t-123.5 -102.5zM539 532q-132 0 -200.5 -55
t-68.5 -151q0 -91 67.5 -147t174.5 -56q152 0 257 103t105 276v30h-335zM412 1573q0 122 56.5 196t133.5 74q67 0 150 -65q77 -62 116 -62q34 0 55 43t21 103h127q0 -128 -58 -208.5t-145 -80.5q-67 0 -137 55q-78 60 -117 60q-35 0 -55 -32.5t-20 -82.5h-127zM573 1223
q-79 0 -121 9t-81 40q-37 30 -64 121l-26 102h129q9 -58 24 -94q17 -35 45 -49q22 -9 94 -9q68 0 95 9q28 14 45 49q15 36 24 94h129l-26 -102q-27 -91 -64 -121q-39 -31 -81.5 -40t-121.5 -9z" />
    <glyph glyph-name="uni1EB6" unicode="&#x1eb6;" 
d="M25 0l538 1554h242l536 -1554h-182l-151 455h-650l-149 -455h-184zM408 602h550l-270 803h-8zM684 1638q-81 0 -124.5 9t-80.5 41q-34 29 -61 122l-27 111h127q15 -57 35 -104q18 -36 45 -50q20 -8 86 -8q62 0 86 8q27 14 45 50q20 47 35 104h127l-27 -111
q-27 -93 -61 -122q-37 -32 -80.5 -41t-124.5 -9zM684 -338q-40 0 -69 29t-29 71q0 40 29 69.5t69 29.5q42 0 71 -29.5t29 -69.5q0 -43 -28.5 -71.5t-71.5 -28.5z" />
    <glyph glyph-name="uni1EB7" unicode="&#x1eb7;" horiz-adv-x="1175" 
d="M145 946q157 187 422 187q222 0 344.5 -121t122.5 -322v-690h-160v174h-8q-56 -97 -152.5 -148t-213.5 -51q-185 0 -292.5 97t-107.5 241q0 164 111 256.5t326 92.5h337v45q0 128 -93 202t-226 74q-101 0 -179.5 -40.5t-123.5 -102.5zM539 532q-132 0 -200.5 -55
t-68.5 -151q0 -91 67.5 -147t174.5 -56q152 0 257 103t105 276v30h-335zM573 1227q-82 0 -124.5 9t-79.5 40q-35 30 -62 123l-26 110h127q16 -63 34 -104q17 -35 45 -49q20 -8 86 -8q62 0 86 8q29 15 46 49q18 41 34 104h127l-26 -110q-27 -93 -62 -123q-37 -31 -80 -40
t-125 -9zM584 -338q-40 0 -69.5 29t-29.5 71q0 40 29.5 69.5t69.5 29.5q42 0 71 -29.5t29 -69.5q0 -43 -28.5 -71.5t-71.5 -28.5z" />
    <glyph glyph-name="uni1EB8" unicode="&#x1eb8;" horiz-adv-x="1132" 
d="M168 0v1554h807v-147h-637v-539h588v-147h-588v-574h645v-147h-815zM592 -338q-40 0 -69 29t-29 71q0 40 29 69.5t69 29.5q42 0 71 -29.5t29 -69.5q0 -43 -28.5 -71.5t-71.5 -28.5z" />
    <glyph glyph-name="uni1EB9" unicode="&#x1eb9;" horiz-adv-x="1251" 
d="M649 -25q-267 0 -419 159t-152 419q0 165 74 297.5t200.5 206t278.5 73.5q236 0 379 -150.5t143 -430.5v-39h-901q11 -173 121.5 -280t296.5 -107q108 0 183.5 39.5t133.5 118.5l109 -103q-154 -203 -447 -203zM983 639q-7 151 -108 247.5t-244 96.5q-148 0 -255.5 -97
t-117.5 -247h725zM639 -338q-40 0 -69 29t-29 71q0 40 29 69.5t69 29.5q42 0 71 -29.5t29 -69.5q0 -43 -28.5 -71.5t-71.5 -28.5z" />
    <glyph glyph-name="uni1EBA" unicode="&#x1eba;" horiz-adv-x="1132" 
d="M168 0v1554h807v-147h-637v-539h588v-147h-588v-574h645v-147h-815zM485 1722q0 33 14 54t56 47q68 37 68 86q0 21 -19.5 36t-46.5 15q-33 0 -60.5 -14.5t-41.5 -38.5l-80 80q59 102 184 102q93 0 153 -45.5t60 -122.5q0 -112 -139 -180q-23 -11 -28 -22t-5 -33v-13h-115
v49z" />
    <glyph glyph-name="uni1EBB" unicode="&#x1ebb;" horiz-adv-x="1251" 
d="M649 -25q-267 0 -419 159t-152 419q0 165 74 297.5t200.5 206t278.5 73.5q236 0 379 -150.5t143 -430.5v-39h-901q11 -173 121.5 -280t296.5 -107q108 0 183.5 39.5t133.5 118.5l109 -103q-154 -203 -447 -203zM983 639q-7 151 -108 247.5t-244 96.5q-148 0 -255.5 -97
t-117.5 -247h725zM557 1313q0 33 14 53.5t56 46.5q67 37 67 86q0 21 -19 36t-46 15q-33 0 -61 -14.5t-42 -38.5l-80 80q58 102 185 102q93 0 153 -45.5t60 -122.5q0 -112 -139 -180q-23 -11 -28 -22t-5 -33v-12h-115v49z" />
    <glyph glyph-name="uni1EBC" unicode="&#x1ebc;" horiz-adv-x="1132" 
d="M168 0v1554h807v-147h-637v-539h588v-147h-588v-574h645v-147h-815zM248 1686q0 119 57 193.5t139 74.5q72 -3 156 -66q67 -53 111 -53q57 0 57 129h139q0 -127 -51 -202.5t-143 -75.5q-70 0 -146 55q-73 52 -112 55q-35 0 -53.5 -30.5t-18.5 -79.5h-135z" />
    <glyph glyph-name="uni1EBD" unicode="&#x1ebd;" horiz-adv-x="1251" 
d="M649 -25q-267 0 -419 159t-152 419q0 165 74 297.5t200.5 206t278.5 73.5q236 0 379 -150.5t143 -430.5v-39h-901q11 -173 121.5 -280t296.5 -107q108 0 183.5 39.5t133.5 118.5l109 -103q-154 -203 -447 -203zM983 639q-7 151 -108 247.5t-244 96.5q-148 0 -255.5 -97
t-117.5 -247h725zM319 1276q0 118 57.5 193t139.5 75q73 -3 156 -65q69 -54 110 -54q58 0 58 129h139q0 -127 -51.5 -202.5t-143.5 -75.5q-69 0 -145 55q-73 52 -113 55q-35 0 -53 -30t-18 -80h-136z" />
    <glyph glyph-name="uni1EBE" unicode="&#x1ebe;" horiz-adv-x="1132" 
d="M168 0v1554h807v-147h-637v-539h588v-147h-588v-574h645v-147h-815zM719 1862l221 254h211l-254 -254h-178zM244 1661l266 242h113l266 -242h-168l-146 115h-16l-147 -115h-168z" />
    <glyph glyph-name="uni1EBF" unicode="&#x1ebf;" horiz-adv-x="1251" 
d="M649 -25q-267 0 -419 159t-152 419q0 165 74 297.5t200.5 206t278.5 73.5q236 0 379 -150.5t143 -430.5v-39h-901q11 -173 121.5 -280t296.5 -107q108 0 183.5 39.5t133.5 118.5l109 -103q-154 -203 -447 -203zM983 639q-7 151 -108 247.5t-244 96.5q-148 0 -255.5 -97
t-117.5 -247h725zM791 1452l221 254h211l-254 -254h-178zM315 1251l267 242h112l267 -242h-168l-146 115h-16l-148 -115h-168z" />
    <glyph glyph-name="uni1EC0" unicode="&#x1ec0;" horiz-adv-x="1132" 
d="M168 0v1554h807v-147h-637v-539h588v-147h-588v-574h645v-147h-815zM815 1845l-254 254h211l221 -254h-178zM244 1661l266 242h113l266 -242h-168l-146 115h-16l-147 -115h-168z" />
    <glyph glyph-name="uni1EC1" unicode="&#x1ec1;" horiz-adv-x="1251" 
d="M649 -25q-267 0 -419 159t-152 419q0 165 74 297.5t200.5 206t278.5 73.5q236 0 379 -150.5t143 -430.5v-39h-901q11 -173 121.5 -280t296.5 -107q108 0 183.5 39.5t133.5 118.5l109 -103q-154 -203 -447 -203zM983 639q-7 151 -108 247.5t-244 96.5q-148 0 -255.5 -97
t-117.5 -247h725zM887 1436l-254 254h211l221 -254h-178zM315 1251l267 242h112l267 -242h-168l-146 115h-16l-148 -115h-168z" />
    <glyph glyph-name="uni1EC2" unicode="&#x1ec2;" horiz-adv-x="1132" 
d="M168 0v1554h807v-147h-637v-539h588v-147h-588v-574h645v-147h-815zM764 1839q0 34 14 54t56 46q36 22 51.5 41.5t15.5 44.5q0 22 -18.5 37t-46.5 15q-61 0 -103 -54l-76 76q65 95 187 101q89 0 148 -46t59 -116q0 -59 -31.5 -100t-99.5 -80q-23 -12 -28 -23t-5 -33v-4
h-123v41zM244 1661l266 242h113l266 -242h-168l-146 115h-16l-147 -115h-168z" />
    <glyph glyph-name="uni1EC3" unicode="&#x1ec3;" horiz-adv-x="1251" 
d="M649 -25q-267 0 -419 159t-152 419q0 165 74 297.5t200.5 206t278.5 73.5q236 0 379 -150.5t143 -430.5v-39h-901q11 -173 121.5 -280t296.5 -107q108 0 183.5 39.5t133.5 118.5l109 -103q-154 -203 -447 -203zM983 639q-7 151 -108 247.5t-244 96.5q-148 0 -255.5 -97
t-117.5 -247h725zM836 1430q0 34 13.5 54t55.5 46q68 40 68 86q0 22 -19 36.5t-47 14.5q-60 0 -102 -53l-76 76q64 94 186 100q89 0 148 -46t59 -116q0 -59 -31.5 -100t-99.5 -80q-23 -12 -28 -22.5t-5 -32.5v-4h-122v41zM315 1251l267 242h112l267 -242h-168l-146 115h-16
l-148 -115h-168z" />
    <glyph glyph-name="uni1EC4" unicode="&#x1ec4;" horiz-adv-x="1132" 
d="M168 0v1554h807v-147h-637v-539h588v-147h-588v-574h645v-147h-815zM285 1974q0 117 55.5 188.5t132.5 71.5q70 0 150 -65q80 -62 116 -62q34 0 55 43t21 103h125q0 -123 -57 -201t-144 -78q-66 0 -137 56q-73 59 -117 59q-35 0 -55 -32.5t-20 -82.5h-125zM244 1661
l266 242h113l266 -242h-168l-146 115h-16l-147 -115h-168z" />
    <glyph glyph-name="uni1EC5" unicode="&#x1ec5;" horiz-adv-x="1251" 
d="M649 -25q-267 0 -419 159t-152 419q0 165 74 297.5t200.5 206t278.5 73.5q236 0 379 -150.5t143 -430.5v-39h-901q11 -173 121.5 -280t296.5 -107q108 0 183.5 39.5t133.5 118.5l109 -103q-154 -203 -447 -203zM983 639q-7 151 -108 247.5t-244 96.5q-148 0 -255.5 -97
t-117.5 -247h725zM356 1565q0 117 56 188.5t133 71.5q68 0 149 -66q79 -61 117 -61q34 0 55 43t21 102h125q0 -123 -57 -200.5t-144 -77.5q-67 0 -137 55q-73 59 -117 59q-36 0 -56 -32.5t-20 -81.5h-125zM315 1251l267 242h112l267 -242h-168l-146 115h-16l-148 -115h-168z
" />
    <glyph glyph-name="uni1EC6" unicode="&#x1ec6;" horiz-adv-x="1132" 
d="M168 0v1554h807v-147h-637v-539h588v-147h-588v-574h645v-147h-815zM240 1665l274 270h107l276 -270h-158l-164 131h-16l-162 -131h-157zM592 -338q-40 0 -69 29t-29 71q0 40 29 69.5t69 29.5q42 0 71 -29.5t29 -69.5q0 -43 -28.5 -71.5t-71.5 -28.5z" />
    <glyph glyph-name="uni1EC7" unicode="&#x1ec7;" horiz-adv-x="1251" 
d="M649 -25q-267 0 -419 159t-152 419q0 165 74 297.5t200.5 206t278.5 73.5q236 0 379 -150.5t143 -430.5v-39h-901q11 -173 121.5 -280t296.5 -107q108 0 183.5 39.5t133.5 118.5l109 -103q-154 -203 -447 -203zM983 639q-7 151 -108 247.5t-244 96.5q-148 0 -255.5 -97
t-117.5 -247h725zM311 1255l275 271h106l277 -271h-158l-164 131h-16l-162 -131h-158zM639 -338q-40 0 -69 29t-29 71q0 40 29 69.5t69 29.5q42 0 71 -29.5t29 -69.5q0 -43 -28.5 -71.5t-71.5 -28.5z" />
    <glyph glyph-name="uni1EC8" unicode="&#x1ec8;" horiz-adv-x="505" 
d="M168 0v1554h170v-1554h-170zM172 1706q0 33 14 53.5t56 46.5q67 37 67 86q0 21 -19 36.5t-46 15.5q-33 0 -61 -15t-42 -39l-80 80q59 103 185 103q93 0 153 -45.5t60 -122.5q0 -113 -140 -181q-16 -8 -23 -17t-8 -15.5t-1 -22.5v-12h-115v49z" />
    <glyph glyph-name="uni1EC9" unicode="&#x1ec9;" horiz-adv-x="434" 
d="M158 0v1104h161v-1104h-161zM156 1280q0 33 13.5 53.5t55.5 46.5q68 37 68 86q0 21 -19.5 36.5t-46.5 15.5q-33 0 -60.5 -15t-41.5 -39l-80 80q59 103 184 103q93 0 153 -45.5t60 -122.5q0 -113 -139 -181q-23 -11 -28 -22t-5 -33v-12h-114v49z" />
    <glyph glyph-name="uni1ECA" unicode="&#x1eca;" horiz-adv-x="505" 
d="M168 0v1554h170v-1554h-170zM254 -338q-40 0 -69 29t-29 71q0 40 29 69.5t69 29.5q42 0 71 -29.5t29 -69.5q0 -43 -28.5 -71.5t-71.5 -28.5z" />
    <glyph glyph-name="uni1ECB" unicode="&#x1ecb;" horiz-adv-x="434" 
d="M158 0v1104h161v-1104h-161zM238 1225q-43 0 -74 31t-31 75q0 43 31 74t74 31q44 0 75 -31t31 -74q0 -44 -31 -75t-75 -31zM238 -338q-40 0 -69.5 29t-29.5 71q0 40 29.5 69.5t69.5 29.5q42 0 71 -29.5t29 -69.5q0 -43 -28.5 -71.5t-71.5 -28.5z" />
    <glyph glyph-name="uni1ECC" unicode="&#x1ecc;" horiz-adv-x="1712" 
d="M856 -25q-163 0 -307.5 63.5t-246 171t-160 255t-58.5 311.5q0 168 60.5 317.5t163.5 256t245.5 168t302.5 61.5q221 0 399 -109.5t275.5 -292.5t97.5 -401q0 -224 -102.5 -408t-279.5 -288.5t-390 -104.5zM856 121q131 0 244.5 54t191 144.5t122 209.5t44.5 247
q0 131 -45 251t-123 210t-191 143.5t-243 53.5q-105 0 -199.5 -35t-166.5 -97t-125.5 -144.5t-81 -180.5t-27.5 -201q0 -130 45 -249.5t122.5 -209t190.5 -143t242 -53.5zM856 -338q-40 0 -69 29t-29 71q0 40 29 69.5t69 29.5q42 0 71 -29.5t29 -69.5q0 -43 -28.5 -71.5
t-71.5 -28.5z" />
    <glyph glyph-name="uni1ECD" unicode="&#x1ecd;" horiz-adv-x="1271" 
d="M637 -25q-85 0 -166 24.5t-152 73.5t-125 117.5t-85 162t-31 200.5q0 133 46.5 243.5t124 182.5t178 111.5t210.5 39.5q107 0 206.5 -39.5t178 -111.5t125.5 -183t47 -243q0 -133 -46.5 -243.5t-124 -183t-177.5 -112t-209 -39.5zM637 121q171 0 278 123.5t107 308.5
q0 186 -107 309t-278 123t-279 -123.5t-108 -308.5q0 -184 108 -308t279 -124zM635 -338q-40 0 -69 29t-29 71q0 40 29 69.5t69 29.5q42 0 71 -29.5t29 -69.5q0 -43 -28.5 -71.5t-71.5 -28.5z" />
    <glyph glyph-name="uni1ECE" unicode="&#x1ece;" horiz-adv-x="1712" 
d="M856 -25q-163 0 -307.5 63.5t-246 171t-160 255t-58.5 311.5q0 168 60.5 317.5t163.5 256t245.5 168t302.5 61.5q221 0 399 -109.5t275.5 -292.5t97.5 -401q0 -224 -102.5 -408t-279.5 -288.5t-390 -104.5zM856 121q131 0 244.5 54t191 144.5t122 209.5t44.5 247
q0 131 -45 251t-123 210t-191 143.5t-243 53.5q-105 0 -199.5 -35t-166.5 -97t-125.5 -144.5t-81 -180.5t-27.5 -201q0 -130 45 -249.5t122.5 -209t190.5 -143t242 -53.5zM774 1722q0 33 14 54t56 47q67 37 67 86q0 21 -19 36t-46 15q-33 0 -61 -14.5t-42 -38.5l-79 80
q58 102 184 102q93 0 153 -45.5t60 -122.5q0 -112 -139 -180q-23 -11 -28 -22t-5 -33v-13h-115v49z" />
    <glyph glyph-name="uni1ECF" unicode="&#x1ecf;" horiz-adv-x="1271" 
d="M637 -25q-85 0 -166 24.5t-152 73.5t-125 117.5t-85 162t-31 200.5q0 133 46.5 243.5t124 182.5t178 111.5t210.5 39.5q107 0 206.5 -39.5t178 -111.5t125.5 -183t47 -243q0 -133 -46.5 -243.5t-124 -183t-177.5 -112t-209 -39.5zM637 121q171 0 278 123.5t107 308.5
q0 186 -107 309t-278 123t-279 -123.5t-108 -308.5q0 -184 108 -308t279 -124zM555 1296q0 33 14 54t56 47q67 37 67 86q0 21 -19 36t-46 15q-33 0 -61 -14.5t-42 -38.5l-80 80q58 102 185 102q93 0 153 -45.5t60 -122.5q0 -112 -140 -180q-16 -8 -23 -17t-8 -15.5t-1 -22.5
v-13h-115v49z" />
    <glyph glyph-name="uni1ED0" unicode="&#x1ed0;" horiz-adv-x="1712" 
d="M856 -25q-163 0 -307.5 63.5t-246 171t-160 255t-58.5 311.5q0 168 60.5 317.5t163.5 256t245.5 168t302.5 61.5q221 0 399 -109.5t275.5 -292.5t97.5 -401q0 -224 -102.5 -408t-279.5 -288.5t-390 -104.5zM856 121q131 0 244.5 54t191 144.5t122 209.5t44.5 247
q0 131 -45 251t-123 210t-191 143.5t-243 53.5q-105 0 -199.5 -35t-166.5 -97t-125.5 -144.5t-81 -180.5t-27.5 -201q0 -130 45 -249.5t122.5 -209t190.5 -143t242 -53.5zM1008 1862l221 254h211l-254 -254h-178zM532 1661l267 242h112l267 -242h-168l-146 115h-16
l-148 -115h-168z" />
    <glyph glyph-name="uni1ED1" unicode="&#x1ed1;" horiz-adv-x="1271" 
d="M637 -25q-85 0 -166 24.5t-152 73.5t-125 117.5t-85 162t-31 200.5q0 133 46.5 243.5t124 182.5t178 111.5t210.5 39.5q107 0 206.5 -39.5t178 -111.5t125.5 -183t47 -243q0 -133 -46.5 -243.5t-124 -183t-177.5 -112t-209 -39.5zM637 121q171 0 278 123.5t107 308.5
q0 186 -107 309t-278 123t-279 -123.5t-108 -308.5q0 -184 108 -308t279 -124zM788 1436l222 254h211l-254 -254h-179zM313 1235l267 242h112l266 -242h-167l-146 115h-16l-148 -115h-168z" />
    <glyph glyph-name="uni1ED2" unicode="&#x1ed2;" horiz-adv-x="1712" 
d="M856 -25q-163 0 -307.5 63.5t-246 171t-160 255t-58.5 311.5q0 168 60.5 317.5t163.5 256t245.5 168t302.5 61.5q221 0 399 -109.5t275.5 -292.5t97.5 -401q0 -224 -102.5 -408t-279.5 -288.5t-390 -104.5zM856 121q131 0 244.5 54t191 144.5t122 209.5t44.5 247
q0 131 -45 251t-123 210t-191 143.5t-243 53.5q-105 0 -199.5 -35t-166.5 -97t-125.5 -144.5t-81 -180.5t-27.5 -201q0 -130 45 -249.5t122.5 -209t190.5 -143t242 -53.5zM1104 1845l-254 254h211l221 -254h-178zM532 1661l267 242h112l267 -242h-168l-146 115h-16
l-148 -115h-168z" />
    <glyph glyph-name="uni1ED3" unicode="&#x1ed3;" horiz-adv-x="1271" 
d="M637 -25q-85 0 -166 24.5t-152 73.5t-125 117.5t-85 162t-31 200.5q0 133 46.5 243.5t124 182.5t178 111.5t210.5 39.5q107 0 206.5 -39.5t178 -111.5t125.5 -183t47 -243q0 -133 -46.5 -243.5t-124 -183t-177.5 -112t-209 -39.5zM637 121q171 0 278 123.5t107 308.5
q0 186 -107 309t-278 123t-279 -123.5t-108 -308.5q0 -184 108 -308t279 -124zM885 1419l-254 254h211l221 -254h-178zM313 1235l267 242h112l266 -242h-167l-146 115h-16l-148 -115h-168z" />
    <glyph glyph-name="uni1ED4" unicode="&#x1ed4;" horiz-adv-x="1712" 
d="M856 -25q-163 0 -307.5 63.5t-246 171t-160 255t-58.5 311.5q0 168 60.5 317.5t163.5 256t245.5 168t302.5 61.5q221 0 399 -109.5t275.5 -292.5t97.5 -401q0 -224 -102.5 -408t-279.5 -288.5t-390 -104.5zM856 121q131 0 244.5 54t191 144.5t122 209.5t44.5 247
q0 131 -45 251t-123 210t-191 143.5t-243 53.5q-105 0 -199.5 -35t-166.5 -97t-125.5 -144.5t-81 -180.5t-27.5 -201q0 -130 45 -249.5t122.5 -209t190.5 -143t242 -53.5zM1053 1839q0 34 13.5 54t55.5 46q68 40 68 86q0 22 -19 37t-47 15q-60 0 -102 -54l-76 76
q65 95 187 101q89 0 147.5 -46t58.5 -116q0 -59 -31.5 -100t-99.5 -80q-16 -9 -23 -18t-8 -15.5t-1 -22.5v-4h-123v41zM532 1661l267 242h112l267 -242h-168l-146 115h-16l-148 -115h-168z" />
    <glyph glyph-name="uni1ED5" unicode="&#x1ed5;" horiz-adv-x="1271" 
d="M637 -25q-85 0 -166 24.5t-152 73.5t-125 117.5t-85 162t-31 200.5q0 133 46.5 243.5t124 182.5t178 111.5t210.5 39.5q107 0 206.5 -39.5t178 -111.5t125.5 -183t47 -243q0 -133 -46.5 -243.5t-124 -183t-177.5 -112t-209 -39.5zM637 121q171 0 278 123.5t107 308.5
q0 186 -107 309t-278 123t-279 -123.5t-108 -308.5q0 -184 108 -308t279 -124zM834 1413q0 34 13.5 54t55.5 46q68 40 68 86q0 22 -19 37t-47 15q-60 0 -102 -54l-76 76q65 95 186 101q89 0 148 -46t59 -116q0 -59 -31.5 -100t-99.5 -80q-23 -12 -28 -23t-5 -33v-4h-122v41z
M313 1235l267 242h112l266 -242h-167l-146 115h-16l-148 -115h-168z" />
    <glyph glyph-name="uni1ED6" unicode="&#x1ed6;" horiz-adv-x="1712" 
d="M856 -25q-163 0 -307.5 63.5t-246 171t-160 255t-58.5 311.5q0 168 60.5 317.5t163.5 256t245.5 168t302.5 61.5q221 0 399 -109.5t275.5 -292.5t97.5 -401q0 -224 -102.5 -408t-279.5 -288.5t-390 -104.5zM856 121q131 0 244.5 54t191 144.5t122 209.5t44.5 247
q0 131 -45 251t-123 210t-191 143.5t-243 53.5q-105 0 -199.5 -35t-166.5 -97t-125.5 -144.5t-81 -180.5t-27.5 -201q0 -130 45 -249.5t122.5 -209t190.5 -143t242 -53.5zM573 1974q0 117 56 188.5t133 71.5q69 0 149 -65q80 -62 117 -62q34 0 55 43t21 103h125
q0 -123 -57 -201t-144 -78q-66 0 -137 56q-73 59 -117 59q-35 0 -55.5 -33t-20.5 -82h-125zM532 1661l267 242h112l267 -242h-168l-146 115h-16l-148 -115h-168z" />
    <glyph glyph-name="uni1ED7" unicode="&#x1ed7;" horiz-adv-x="1271" 
d="M637 -25q-85 0 -166 24.5t-152 73.5t-125 117.5t-85 162t-31 200.5q0 133 46.5 243.5t124 182.5t178 111.5t210.5 39.5q107 0 206.5 -39.5t178 -111.5t125.5 -183t47 -243q0 -133 -46.5 -243.5t-124 -183t-177.5 -112t-209 -39.5zM637 121q171 0 278 123.5t107 308.5
q0 186 -107 309t-278 123t-279 -123.5t-108 -308.5q0 -184 108 -308t279 -124zM354 1548q0 117 56 188.5t133 71.5q69 0 149 -65q80 -62 117 -62q34 0 55 43t21 103h125q0 -123 -57 -201t-144 -78q-66 0 -137 56q-73 59 -117 59q-35 0 -55.5 -33t-20.5 -82h-125zM313 1235
l267 242h112l266 -242h-167l-146 115h-16l-148 -115h-168z" />
    <glyph glyph-name="uni1ED8" unicode="&#x1ed8;" horiz-adv-x="1712" 
d="M856 -25q-163 0 -307.5 63.5t-246 171t-160 255t-58.5 311.5q0 168 60.5 317.5t163.5 256t245.5 168t302.5 61.5q221 0 399 -109.5t275.5 -292.5t97.5 -401q0 -224 -102.5 -408t-279.5 -288.5t-390 -104.5zM856 121q131 0 244.5 54t191 144.5t122 209.5t44.5 247
q0 131 -45 251t-123 210t-191 143.5t-243 53.5q-105 0 -199.5 -35t-166.5 -97t-125.5 -144.5t-81 -180.5t-27.5 -201q0 -130 45 -249.5t122.5 -209t190.5 -143t242 -53.5zM528 1665l275 270h106l277 -270h-158l-164 131h-16l-162 -131h-158zM856 -338q-40 0 -69 29t-29 71
q0 40 29 69.5t69 29.5q42 0 71 -29.5t29 -69.5q0 -43 -28.5 -71.5t-71.5 -28.5z" />
    <glyph glyph-name="uni1ED9" unicode="&#x1ed9;" horiz-adv-x="1271" 
d="M637 -25q-85 0 -166 24.5t-152 73.5t-125 117.5t-85 162t-31 200.5q0 133 46.5 243.5t124 182.5t178 111.5t210.5 39.5q107 0 206.5 -39.5t178 -111.5t125.5 -183t47 -243q0 -133 -46.5 -243.5t-124 -183t-177.5 -112t-209 -39.5zM637 121q171 0 278 123.5t107 308.5
q0 186 -107 309t-278 123t-279 -123.5t-108 -308.5q0 -184 108 -308t279 -124zM309 1239l275 270h106l277 -270h-158l-164 131h-16l-162 -131h-158zM637 -338q-40 0 -69 29t-29 71q0 40 29 69.5t69 29.5q42 0 71 -29.5t29 -69.5q0 -43 -28.5 -71.5t-71.5 -28.5z" />
    <glyph glyph-name="uni1EDA" unicode="&#x1eda;" horiz-adv-x="1712" 
d="M856 -25q-163 0 -307.5 63.5t-246 171t-160 255t-58.5 311.5q0 168 60.5 317.5t163.5 256t245.5 168t302.5 61.5q172 0 324 -70q86 6 86 99q0 59 -35 118h172q22 -48 22 -129q0 -111 -112 -165q147 -109 231 -282.5t84 -373.5q0 -224 -102.5 -408t-279.5 -288.5
t-390 -104.5zM856 121q131 0 244.5 54t191 144.5t122 209.5t44.5 247q0 131 -45 251t-123 210t-191 143.5t-243 53.5q-105 0 -199.5 -35t-166.5 -97t-125.5 -144.5t-81 -180.5t-27.5 -201q0 -130 45 -249.5t122.5 -209t190.5 -143t242 -53.5zM739 1704l238 278h209
l-279 -278h-168z" />
    <glyph glyph-name="uni1EDB" unicode="&#x1edb;" horiz-adv-x="1306" 
d="M637 -25q-85 0 -166 24.5t-152 73.5t-125 117.5t-85 162t-31 200.5q0 133 46.5 243.5t124 182.5t178 111.5t210.5 39.5q157 0 287 -77q75 9 75 96q0 61 -34 119h172q22 -48 22 -129q0 -119 -125 -172q160 -163 160 -414q0 -133 -46.5 -243.5t-124 -183t-177.5 -112
t-209 -39.5zM637 121q171 0 278 123.5t107 308.5q0 186 -107 309t-278 123t-279 -123.5t-108 -308.5q0 -184 108 -308t279 -124zM520 1278l238 278h209l-279 -278h-168z" />
    <glyph glyph-name="uni1EDC" unicode="&#x1edc;" horiz-adv-x="1712" 
d="M856 -25q-163 0 -307.5 63.5t-246 171t-160 255t-58.5 311.5q0 168 60.5 317.5t163.5 256t245.5 168t302.5 61.5q172 0 324 -70q86 6 86 99q0 59 -35 118h172q22 -48 22 -129q0 -111 -112 -165q147 -109 231 -282.5t84 -373.5q0 -224 -102.5 -408t-279.5 -288.5
t-390 -104.5zM856 121q131 0 244.5 54t191 144.5t122 209.5t44.5 247q0 131 -45 251t-123 210t-191 143.5t-243 53.5q-105 0 -199.5 -35t-166.5 -97t-125.5 -144.5t-81 -180.5t-27.5 -201q0 -130 45 -249.5t122.5 -209t190.5 -143t242 -53.5zM805 1704l-279 278h209
l238 -278h-168z" />
    <glyph glyph-name="uni1EDD" unicode="&#x1edd;" horiz-adv-x="1306" 
d="M637 -25q-85 0 -166 24.5t-152 73.5t-125 117.5t-85 162t-31 200.5q0 133 46.5 243.5t124 182.5t178 111.5t210.5 39.5q157 0 287 -77q75 9 75 96q0 61 -34 119h172q22 -48 22 -129q0 -119 -125 -172q160 -163 160 -414q0 -133 -46.5 -243.5t-124 -183t-177.5 -112
t-209 -39.5zM637 121q171 0 278 123.5t107 308.5q0 186 -107 309t-278 123t-279 -123.5t-108 -308.5q0 -184 108 -308t279 -124zM586 1278l-279 278h209l238 -278h-168z" />
    <glyph glyph-name="uni1EDE" unicode="&#x1ede;" horiz-adv-x="1712" 
d="M856 -25q-163 0 -307.5 63.5t-246 171t-160 255t-58.5 311.5q0 168 60.5 317.5t163.5 256t245.5 168t302.5 61.5q172 0 324 -70q86 6 86 99q0 59 -35 118h172q22 -48 22 -129q0 -111 -112 -165q147 -109 231 -282.5t84 -373.5q0 -224 -102.5 -408t-279.5 -288.5
t-390 -104.5zM856 121q131 0 244.5 54t191 144.5t122 209.5t44.5 247q0 131 -45 251t-123 210t-191 143.5t-243 53.5q-105 0 -199.5 -35t-166.5 -97t-125.5 -144.5t-81 -180.5t-27.5 -201q0 -130 45 -249.5t122.5 -209t190.5 -143t242 -53.5zM774 1722q0 33 14 54t56 47
q67 37 67 86q0 21 -19 36t-46 15q-33 0 -61 -14.5t-42 -38.5l-79 80q58 102 184 102q93 0 153 -45.5t60 -122.5q0 -112 -139 -180q-23 -11 -28 -22t-5 -33v-13h-115v49z" />
    <glyph glyph-name="uni1EDF" unicode="&#x1edf;" horiz-adv-x="1306" 
d="M637 -25q-85 0 -166 24.5t-152 73.5t-125 117.5t-85 162t-31 200.5q0 133 46.5 243.5t124 182.5t178 111.5t210.5 39.5q157 0 287 -77q75 9 75 96q0 61 -34 119h172q22 -48 22 -129q0 -119 -125 -172q160 -163 160 -414q0 -133 -46.5 -243.5t-124 -183t-177.5 -112
t-209 -39.5zM637 121q171 0 278 123.5t107 308.5q0 186 -107 309t-278 123t-279 -123.5t-108 -308.5q0 -184 108 -308t279 -124zM555 1296q0 33 14 54t56 47q67 37 67 86q0 21 -19 36t-46 15q-33 0 -61 -14.5t-42 -38.5l-80 80q58 102 185 102q93 0 153 -45.5t60 -122.5
q0 -112 -140 -180q-16 -8 -23 -17t-8 -15.5t-1 -22.5v-13h-115v49z" />
    <glyph glyph-name="uni1EE0" unicode="&#x1ee0;" horiz-adv-x="1712" 
d="M856 -25q-163 0 -307.5 63.5t-246 171t-160 255t-58.5 311.5q0 168 60.5 317.5t163.5 256t245.5 168t302.5 61.5q172 0 324 -70q86 6 86 99q0 59 -35 118h172q22 -48 22 -129q0 -111 -112 -165q147 -109 231 -282.5t84 -373.5q0 -224 -102.5 -408t-279.5 -288.5
t-390 -104.5zM856 121q131 0 244.5 54t191 144.5t122 209.5t44.5 247q0 131 -45 251t-123 210t-191 143.5t-243 53.5q-105 0 -199.5 -35t-166.5 -97t-125.5 -144.5t-81 -180.5t-27.5 -201q0 -130 45 -249.5t122.5 -209t190.5 -143t242 -53.5zM537 1686q0 119 57 193.5
t139 74.5q72 -3 156 -66q67 -53 110 -53q58 0 58 129h139q0 -127 -51.5 -202.5t-143.5 -75.5q-69 0 -145 55q-73 52 -113 55q-35 0 -53 -30t-18 -80h-135z" />
    <glyph glyph-name="uni1EE1" unicode="&#x1ee1;" horiz-adv-x="1306" 
d="M637 -25q-85 0 -166 24.5t-152 73.5t-125 117.5t-85 162t-31 200.5q0 133 46.5 243.5t124 182.5t178 111.5t210.5 39.5q157 0 287 -77q75 9 75 96q0 61 -34 119h172q22 -48 22 -129q0 -119 -125 -172q160 -163 160 -414q0 -133 -46.5 -243.5t-124 -183t-177.5 -112
t-209 -39.5zM637 121q171 0 278 123.5t107 308.5q0 186 -107 309t-278 123t-279 -123.5t-108 -308.5q0 -184 108 -308t279 -124zM317 1260q0 118 57.5 193t139.5 75q72 -3 156 -66q67 -53 110 -53q58 0 58 129h139q0 -127 -51.5 -202.5t-143.5 -75.5q-69 0 -145 55
q-73 52 -113 55q-35 0 -53 -30t-18 -80h-136z" />
    <glyph glyph-name="uni1EE2" unicode="&#x1ee2;" horiz-adv-x="1712" 
d="M856 -25q-163 0 -307.5 63.5t-246 171t-160 255t-58.5 311.5q0 168 60.5 317.5t163.5 256t245.5 168t302.5 61.5q172 0 324 -70q86 6 86 99q0 59 -35 118h172q22 -48 22 -129q0 -111 -112 -165q147 -109 231 -282.5t84 -373.5q0 -224 -102.5 -408t-279.5 -288.5
t-390 -104.5zM856 121q131 0 244.5 54t191 144.5t122 209.5t44.5 247q0 131 -45 251t-123 210t-191 143.5t-243 53.5q-105 0 -199.5 -35t-166.5 -97t-125.5 -144.5t-81 -180.5t-27.5 -201q0 -130 45 -249.5t122.5 -209t190.5 -143t242 -53.5zM856 -338q-40 0 -69 29t-29 71
q0 40 29 69.5t69 29.5q42 0 71 -29.5t29 -69.5q0 -43 -28.5 -71.5t-71.5 -28.5z" />
    <glyph glyph-name="uni1EE3" unicode="&#x1ee3;" horiz-adv-x="1306" 
d="M637 -25q-85 0 -166 24.5t-152 73.5t-125 117.5t-85 162t-31 200.5q0 133 46.5 243.5t124 182.5t178 111.5t210.5 39.5q157 0 287 -77q75 9 75 96q0 61 -34 119h172q22 -48 22 -129q0 -119 -125 -172q160 -163 160 -414q0 -133 -46.5 -243.5t-124 -183t-177.5 -112
t-209 -39.5zM637 121q171 0 278 123.5t107 308.5q0 186 -107 309t-278 123t-279 -123.5t-108 -308.5q0 -184 108 -308t279 -124zM637 -338q-40 0 -69 29t-29 71q0 40 29 69.5t69 29.5q42 0 71 -29.5t29 -69.5q0 -43 -28.5 -71.5t-71.5 -28.5z" />
    <glyph glyph-name="uni1EE4" unicode="&#x1ee4;" horiz-adv-x="1523" 
d="M762 -25q-129 0 -240.5 43t-188 117.5t-120 176t-43.5 216.5v1026h170v-1007q0 -105 47.5 -197.5t146 -153.5t228.5 -61t228.5 61t146 153.5t47.5 197.5v1007h170v-1026q0 -115 -43.5 -216.5t-120 -176t-188 -117.5t-240.5 -43zM760 -338q-40 0 -69 29t-29 71
q0 40 29 69.5t69 29.5q42 0 71 -29.5t29 -69.5q0 -43 -28.5 -71.5t-71.5 -28.5z" />
    <glyph glyph-name="uni1EE5" unicode="&#x1ee5;" horiz-adv-x="1265" 
d="M598 -25q-97 0 -180 32.5t-145.5 94.5t-98 159.5t-35.5 221.5v621h160v-621q0 -152 89.5 -259t236.5 -107q139 0 231 117t92 307v563h160v-1104h-160v172h-8q-37 -89 -125.5 -143t-216.5 -54zM643 -338q-40 0 -69 29t-29 71q0 40 29 69.5t69 29.5q42 0 71 -29.5t29 -69.5
q0 -43 -28.5 -71.5t-71.5 -28.5z" />
    <glyph glyph-name="uni1EE6" unicode="&#x1ee6;" horiz-adv-x="1523" 
d="M762 -25q-129 0 -240.5 43t-188 117.5t-120 176t-43.5 216.5v1026h170v-1007q0 -105 47.5 -197.5t146 -153.5t228.5 -61t228.5 61t146 153.5t47.5 197.5v1007h170v-1026q0 -115 -43.5 -216.5t-120 -176t-188 -117.5t-240.5 -43zM678 1706q0 33 14 53.5t56 46.5
q67 37 67 86q0 21 -19 36.5t-46 15.5q-33 0 -61 -15t-42 -39l-80 80q59 103 185 103q93 0 153 -45.5t60 -122.5q0 -113 -140 -181q-16 -8 -23 -17t-8 -15.5t-1 -22.5v-12h-115v49z" />
    <glyph glyph-name="uni1EE7" unicode="&#x1ee7;" horiz-adv-x="1265" 
d="M598 -25q-97 0 -180 32.5t-145.5 94.5t-98 159.5t-35.5 221.5v621h160v-621q0 -152 89.5 -259t236.5 -107q139 0 231 117t92 307v563h160v-1104h-160v172h-8q-37 -89 -125.5 -143t-216.5 -54zM559 1280q0 33 14 53.5t56 46.5q67 37 67 86q0 21 -19 36.5t-46 15.5
q-33 0 -61 -15t-42 -39l-79 80q59 103 184 103q93 0 153 -45.5t60 -122.5q0 -113 -139 -181q-23 -11 -28 -22t-5 -33v-12h-115v49z" />
    <glyph glyph-name="uni1EE8" unicode="&#x1ee8;" horiz-adv-x="1527" 
d="M762 -25q-129 0 -240.5 43t-188 117.5t-120 176t-43.5 216.5v1026h170v-1007q0 -105 47.5 -197.5t146 -153.5t228.5 -61t228.5 61t146 153.5t47.5 197.5v1007h170v-30q37 23 37 84q0 59 -35 118h172q22 -48 22 -129q0 -76 -53 -126.5t-143 -65.5v-877
q0 -115 -43.5 -216.5t-120 -176t-188 -117.5t-240.5 -43zM643 1688l238 278h209l-279 -278h-168z" />
    <glyph glyph-name="uni1EE9" unicode="&#x1ee9;" horiz-adv-x="1343" 
d="M598 -25q-97 0 -180 32.5t-145.5 94.5t-98 159.5t-35.5 221.5v621h160v-621q0 -152 89.5 -259t236.5 -107q139 0 231 117t92 307v563h160v-47q55 18 55 92q0 60 -35 119h172q23 -50 23 -129t-58.5 -132t-156.5 -65v-942h-160v172h-8q-37 -89 -125.5 -143t-216.5 -54z
M524 1262l238 278h209l-279 -278h-168z" />
    <glyph glyph-name="uni1EEA" unicode="&#x1eea;" horiz-adv-x="1527" 
d="M762 -25q-129 0 -240.5 43t-188 117.5t-120 176t-43.5 216.5v1026h170v-1007q0 -105 47.5 -197.5t146 -153.5t228.5 -61t228.5 61t146 153.5t47.5 197.5v1007h170v-30q37 23 37 84q0 59 -35 118h172q22 -48 22 -129q0 -76 -53 -126.5t-143 -65.5v-877
q0 -115 -43.5 -216.5t-120 -176t-188 -117.5t-240.5 -43zM709 1688l-279 278h209l238 -278h-168z" />
    <glyph glyph-name="uni1EEB" unicode="&#x1eeb;" horiz-adv-x="1343" 
d="M598 -25q-97 0 -180 32.5t-145.5 94.5t-98 159.5t-35.5 221.5v621h160v-621q0 -152 89.5 -259t236.5 -107q139 0 231 117t92 307v563h160v-47q55 18 55 92q0 60 -35 119h172q23 -50 23 -129t-58.5 -132t-156.5 -65v-942h-160v172h-8q-37 -89 -125.5 -143t-216.5 -54z
M590 1262l-279 278h209l238 -278h-168z" />
    <glyph glyph-name="uni1EEC" unicode="&#x1eec;" horiz-adv-x="1527" 
d="M762 -25q-129 0 -240.5 43t-188 117.5t-120 176t-43.5 216.5v1026h170v-1007q0 -105 47.5 -197.5t146 -153.5t228.5 -61t228.5 61t146 153.5t47.5 197.5v1007h170v-30q37 23 37 84q0 59 -35 118h172q22 -48 22 -129q0 -76 -53 -126.5t-143 -65.5v-877
q0 -115 -43.5 -216.5t-120 -176t-188 -117.5t-240.5 -43zM678 1706q0 33 14 53.5t56 46.5q67 37 67 86q0 21 -19 36.5t-46 15.5q-33 0 -61 -15t-42 -39l-80 80q59 103 185 103q93 0 153 -45.5t60 -122.5q0 -113 -140 -181q-16 -8 -23 -17t-8 -15.5t-1 -22.5v-12h-115v49z
" />
    <glyph glyph-name="uni1EED" unicode="&#x1eed;" horiz-adv-x="1343" 
d="M598 -25q-97 0 -180 32.5t-145.5 94.5t-98 159.5t-35.5 221.5v621h160v-621q0 -152 89.5 -259t236.5 -107q139 0 231 117t92 307v563h160v-47q55 18 55 92q0 60 -35 119h172q23 -50 23 -129t-58.5 -132t-156.5 -65v-942h-160v172h-8q-37 -89 -125.5 -143t-216.5 -54z
M559 1280q0 33 14 53.5t56 46.5q67 37 67 86q0 21 -19 36.5t-46 15.5q-33 0 -61 -15t-42 -39l-79 80q59 103 184 103q93 0 153 -45.5t60 -122.5q0 -113 -139 -181q-23 -11 -28 -22t-5 -33v-12h-115v49z" />
    <glyph glyph-name="uni1EEE" unicode="&#x1eee;" horiz-adv-x="1527" 
d="M762 -25q-129 0 -240.5 43t-188 117.5t-120 176t-43.5 216.5v1026h170v-1007q0 -105 47.5 -197.5t146 -153.5t228.5 -61t228.5 61t146 153.5t47.5 197.5v1007h170v-30q37 23 37 84q0 59 -35 118h172q22 -48 22 -129q0 -76 -53 -126.5t-143 -65.5v-877
q0 -115 -43.5 -216.5t-120 -176t-188 -117.5t-240.5 -43zM440 1669q0 118 57.5 193t139.5 75q73 -3 156 -65q67 -53 110 -53q58 0 58 129h139q0 -127 -51.5 -203t-143.5 -76q-69 0 -145 55q-74 53 -113 56q-35 0 -53.5 -30.5t-18.5 -80.5h-135z" />
    <glyph glyph-name="uni1EEF" unicode="&#x1eef;" horiz-adv-x="1343" 
d="M598 -25q-97 0 -180 32.5t-145.5 94.5t-98 159.5t-35.5 221.5v621h160v-621q0 -152 89.5 -259t236.5 -107q139 0 231 117t92 307v563h160v-47q55 18 55 92q0 60 -35 119h172q23 -50 23 -129t-58.5 -132t-156.5 -65v-942h-160v172h-8q-37 -89 -125.5 -143t-216.5 -54z
M322 1243q0 119 57 193.5t139 74.5q73 -3 156 -65q67 -53 110 -53q58 0 58 129h139q0 -127 -51.5 -203t-143.5 -76q-69 0 -145 55q-74 53 -113 56q-35 0 -53 -30.5t-18 -80.5h-135z" />
    <glyph glyph-name="uni1EF0" unicode="&#x1ef0;" horiz-adv-x="1527" 
d="M762 -25q-129 0 -240.5 43t-188 117.5t-120 176t-43.5 216.5v1026h170v-1007q0 -105 47.5 -197.5t146 -153.5t228.5 -61t228.5 61t146 153.5t47.5 197.5v1007h170v-30q37 23 37 84q0 59 -35 118h172q22 -48 22 -129q0 -76 -53 -126.5t-143 -65.5v-877
q0 -115 -43.5 -216.5t-120 -176t-188 -117.5t-240.5 -43zM760 -338q-40 0 -69 29t-29 71q0 40 29 69.5t69 29.5q42 0 71 -29.5t29 -69.5q0 -43 -28.5 -71.5t-71.5 -28.5z" />
    <glyph glyph-name="uni1EF1" unicode="&#x1ef1;" horiz-adv-x="1343" 
d="M598 -25q-97 0 -180 32.5t-145.5 94.5t-98 159.5t-35.5 221.5v621h160v-621q0 -152 89.5 -259t236.5 -107q139 0 231 117t92 307v563h160v-47q55 18 55 92q0 60 -35 119h172q23 -50 23 -129t-58.5 -132t-156.5 -65v-942h-160v172h-8q-37 -89 -125.5 -143t-216.5 -54z
M643 -338q-40 0 -69 29t-29 71q0 40 29 69.5t69 29.5q42 0 71 -29.5t29 -69.5q0 -43 -28.5 -71.5t-71.5 -28.5z" />
    <glyph glyph-name="Ygrave" unicode="&#x1ef2;" horiz-adv-x="1261" 
d="M547 0v686l-498 868h180l398 -700h8l397 700h182l-497 -868v-686h-170zM580 1688l-279 278h209l238 -278h-168z" />
    <glyph glyph-name="ygrave" unicode="&#x1ef3;" horiz-adv-x="1144" 
d="M176 -416v148h176q41 0 63.5 28t53.5 107l47 125v8h-65l-392 1104h189l317 -950h8l342 950h172l-434 -1221q-24 -66 -38.5 -102.5t-34.5 -76t-37.5 -58t-44 -35t-57.5 -22t-74 -5.5h-191zM537 1262l-279 278h209l238 -278h-168z" />
    <glyph glyph-name="uni1EF4" unicode="&#x1ef4;" horiz-adv-x="1261" 
d="M547 0v686l-498 868h180l398 -700h8l397 700h182l-497 -868v-686h-170zM631 -338q-40 0 -69.5 29t-29.5 71q0 40 29.5 69.5t69.5 29.5q42 0 71 -29.5t29 -69.5q0 -43 -28.5 -71.5t-71.5 -28.5z" />
    <glyph glyph-name="uni1EF5" unicode="&#x1ef5;" horiz-adv-x="1144" 
d="M176 -416v148h176q41 0 63.5 28t53.5 107l47 125v8h-65l-392 1104h189l317 -950h8l342 950h172l-434 -1221q-24 -66 -38.5 -102.5t-34.5 -76t-37.5 -58t-44 -35t-57.5 -22t-74 -5.5h-191zM807 -338q-40 0 -69 29t-29 71q0 40 29 69.5t69 29.5q42 0 71 -29.5t29 -69.5
q0 -43 -28.5 -71.5t-71.5 -28.5z" />
    <glyph glyph-name="uni1EF6" unicode="&#x1ef6;" horiz-adv-x="1261" 
d="M547 0v686l-498 868h180l398 -700h8l397 700h182l-497 -868v-686h-170zM549 1706q0 33 13.5 53.5t55.5 46.5q68 37 68 86q0 21 -19 36.5t-46 15.5q-33 0 -61 -15t-42 -39l-80 80q59 103 185 103q93 0 153 -45.5t60 -122.5q0 -113 -140 -181q-16 -8 -23 -17t-8 -15.5
t-1 -22.5v-12h-115v49z" />
    <glyph glyph-name="uni1EF7" unicode="&#x1ef7;" horiz-adv-x="1144" 
d="M176 -416v148h176q41 0 63.5 28t53.5 107l47 125v8h-65l-392 1104h189l317 -950h8l342 950h172l-434 -1221q-24 -66 -38.5 -102.5t-34.5 -76t-37.5 -58t-44 -35t-57.5 -22t-74 -5.5h-191zM506 1280q0 33 13.5 53.5t55.5 46.5q68 37 68 86q0 21 -19 36.5t-46 15.5
q-33 0 -61 -15t-42 -39l-80 80q59 103 185 103q93 0 153 -45.5t60 -122.5q0 -113 -140 -181q-16 -8 -23 -17t-8 -15.5t-1 -22.5v-12h-115v49z" />
    <glyph glyph-name="uni1EF8" unicode="&#x1ef8;" horiz-adv-x="1261" 
d="M547 0v686l-498 868h180l398 -700h8l397 700h182l-497 -868v-686h-170zM311 1669q0 118 57.5 193t139.5 75q73 -3 156 -65q67 -53 110 -53q57 0 57 129h140q0 -127 -51.5 -203t-143.5 -76q-69 0 -145 55q-74 53 -113 56q-35 0 -53.5 -30.5t-18.5 -80.5h-135z" />
    <glyph glyph-name="uni1EF9" unicode="&#x1ef9;" horiz-adv-x="1144" 
d="M176 -416v148h176q41 0 63.5 28t53.5 107l47 125v8h-65l-392 1104h189l317 -950h8l342 950h172l-434 -1221q-24 -66 -38.5 -102.5t-34.5 -76t-37.5 -58t-44 -35t-57.5 -22t-74 -5.5h-191zM268 1243q0 118 57.5 193t139.5 75q73 -3 156 -65q67 -53 110 -53q57 0 57 129
h140q0 -127 -51.5 -203t-143.5 -76q-69 0 -145 55q-74 53 -113 56q-35 0 -53.5 -30.5t-18.5 -80.5h-135z" />
    <glyph glyph-name="endash" unicode="&#x2013;" horiz-adv-x="1187" 
d="M123 516v123h942v-123h-942z" />
    <glyph glyph-name="emdash" unicode="&#x2014;" horiz-adv-x="1970" 
d="M123 516v123h1724v-123h-1724z" />
    <glyph glyph-name="quoteleft" unicode="&#x2018;" horiz-adv-x="421" 
d="M332 1554q26 0 18 -32l-80 -357q-6 -26 -26 -26h-154q-32 0 -18 37l127 350q6 18 13.5 23t27.5 5h92z" />
    <glyph glyph-name="quoteright" unicode="&#x2019;" horiz-adv-x="421" 
d="M90 1139q-26 0 -18 32l80 357q6 26 26 26h154q31 0 18 -36l-127 -351q-6 -18 -13.5 -23t-27.5 -5h-92z" />
    <glyph glyph-name="quotesinglbase" unicode="&#x201a;" horiz-adv-x="421" 
d="M90 -223q-26 0 -18 33l80 356q6 27 26 27h154q32 0 18 -37l-127 -351q-6 -18 -13.5 -23t-27.5 -5h-92z" />
    <glyph glyph-name="quotedblleft" unicode="&#x201c;" horiz-adv-x="724" 
d="M332 1554q26 0 18 -32l-80 -357q-6 -26 -26 -26h-154q-32 0 -18 37l127 350q6 18 13.5 23t27.5 5h92zM635 1554q26 0 18 -32l-80 -357q-6 -26 -26 -26h-154q-32 0 -18 37l127 350q6 18 13.5 23t27.5 5h92z" />
    <glyph glyph-name="quotedblright" unicode="&#x201d;" horiz-adv-x="724" 
d="M393 1139q-26 0 -18 32l80 357q6 26 26 26h154q31 0 18 -36l-127 -351q-6 -18 -13.5 -23t-27.5 -5h-92zM90 1139q-26 0 -18 32l80 357q6 26 26 26h154q31 0 18 -36l-127 -351q-6 -18 -13.5 -23t-27.5 -5h-92z" />
    <glyph glyph-name="quotedblbase" unicode="&#x201e;" horiz-adv-x="712" 
d="M381 -223q-27 0 -19 33l80 356q6 27 27 27h154q32 0 18 -37l-127 -351q-6 -18 -13.5 -23t-27.5 -5h-92zM90 -223q-26 0 -18 33l80 356q6 27 26 27h154q32 0 18 -37l-127 -351q-6 -18 -13.5 -23t-27.5 -5h-92z" />
    <glyph glyph-name="bullet" unicode="&#x2022;" horiz-adv-x="1189" 
d="M594 397q-98 0 -167 70t-69 168q0 101 68.5 169t167.5 68q101 0 169 -68t68 -169q0 -99 -68.5 -168.5t-168.5 -69.5z" />
    <glyph glyph-name="ellipsis" unicode="&#x2026;" horiz-adv-x="1150" 
d="M199 -8q-54 0 -91.5 38t-37.5 91q0 55 37.5 92t91.5 37q55 0 92 -37t37 -92q0 -53 -37 -91t-92 -38zM575 -8q-54 0 -91.5 38t-37.5 91q0 55 37.5 92t91.5 37q56 0 93 -37t37 -92q0 -53 -37.5 -91t-92.5 -38zM952 -8q-54 0 -91.5 38t-37.5 91q0 55 37.5 92t91.5 37
q56 0 92.5 -37t36.5 -92q0 -53 -37 -91t-92 -38z" />
    <glyph glyph-name="perthousand" unicode="&#x2030;" horiz-adv-x="2123" 
d="M166 0l983 1556h151l-983 -1556h-151zM1055 -16q-126 0 -215.5 89t-89.5 216q0 126 89.5 215.5t215.5 89.5t215.5 -89.5t89.5 -215.5q0 -127 -89.5 -216t-215.5 -89zM1055 106q75 0 128.5 54t53.5 129q0 74 -53.5 128t-128.5 54q-74 0 -128.5 -54.5t-54.5 -127.5
q0 -75 54.5 -129t128.5 -54zM395 946q-126 0 -215.5 89.5t-89.5 215.5q0 127 89.5 216t215.5 89t215.5 -89t89.5 -216q0 -126 -89.5 -215.5t-215.5 -89.5zM395 1069q75 0 129 54t54 128q0 75 -54 129t-129 54q-74 0 -128 -54t-54 -129q0 -73 54.5 -127.5t127.5 -54.5z
M1729 -16q-126 0 -216 89t-90 216q0 126 90 215.5t216 89.5t215.5 -89.5t89.5 -215.5q0 -127 -89.5 -216t-215.5 -89zM1729 106q75 0 128.5 54t53.5 129q0 74 -53.5 128t-128.5 54q-74 0 -128.5 -54.5t-54.5 -127.5q0 -75 54.5 -129t128.5 -54z" />
    <glyph glyph-name="guilsinglleft" unicode="&#x2039;" horiz-adv-x="747" 
d="M459 119l-398 430v8l398 430l96 -90l-315 -340v-8l315 -340z" />
    <glyph glyph-name="guilsinglright" unicode="&#x203a;" horiz-adv-x="747" 
d="M289 119l-96 90l315 340v8l-315 340l96 90l397 -430v-8z" />
    <glyph glyph-name="fraction" unicode="&#x2044;" horiz-adv-x="151" 
d="M-403 0l878 1483h80l-879 -1483h-79z" />
    <glyph glyph-name="uni2070" unicode="&#x2070;" horiz-adv-x="612" 
d="M305 805q-68 0 -120 33t-81.5 89.5t-44 122.5t-14.5 140q0 73 14.5 139t44 122.5t81.5 90t120 33.5q69 0 121.5 -33.5t82 -90t44 -122.5t14.5 -139q0 -74 -14.5 -140t-44 -122.5t-82 -89.5t-121.5 -33zM305 911q148 0 148 279q0 278 -148 278q-145 0 -145 -278
q0 -279 145 -279z" />
    <glyph glyph-name="uni2074" unicode="&#x2074;" horiz-adv-x="579" 
d="M344 817v154h-332v78l334 514h113v-488h88v-104h-88v-154h-115zM158 1075h186v285h-4l-182 -281v-4z" />
    <glyph glyph-name="uni2075" unicode="&#x2075;" horiz-adv-x="595" 
d="M297 805q-55 0 -99.5 15.5t-71 39.5t-43.5 53t-22 56t-2 49h121q-4 -36 23.5 -69.5t95.5 -33.5q64 0 98.5 40t34.5 110q0 73 -28.5 109t-92.5 36q-31 0 -53 -6.5t-39 -23.5t-24.5 -27.5t-22.5 -36.5l-104 64l47 383h401v-111h-301l-20 -164h4q64 31 112 31
q115 0 177.5 -72t62.5 -182t-70 -185t-184 -75z" />
    <glyph glyph-name="uni2076" unicode="&#x2076;" horiz-adv-x="579" 
d="M293 805q-102 0 -176 67.5t-74 174.5q0 78 47 174q38 73 62 104l141 238h131l-168 -269h4q18 9 57 9q96 0 160 -72t64 -176t-74.5 -177t-173.5 -73zM291 920q61 0 95 36t34 101q0 63 -34.5 101t-94.5 38t-94.5 -38t-34.5 -101q0 -65 34 -101t95 -36z" />
    <glyph glyph-name="uni2077" unicode="&#x2077;" horiz-adv-x="499" 
d="M86 817l258 633v4h-340l2 109h461v-95l-258 -651h-123z" />
    <glyph glyph-name="uni2078" unicode="&#x2078;" horiz-adv-x="610" 
d="M305 805q-104 0 -175 65t-71 162q0 77 37.5 129.5t79.5 57.5v4q-34 10 -63 52t-29 101q0 88 64 143.5t157 55.5t157 -55.5t64 -143.5q0 -61 -29.5 -103.5t-64.5 -49.5v-4q43 -9 81 -60.5t38 -126.5q0 -97 -71 -162t-175 -65zM305 913q58 0 92.5 32.5t34.5 90.5
q0 56 -35 91.5t-92 35.5t-92 -35.5t-35 -91.5q0 -58 34.5 -90.5t92.5 -32.5zM305 1276q48 0 75.5 26t27.5 68q0 44 -27 70t-76 26t-75.5 -26t-26.5 -70q0 -42 27 -68t75 -26z" />
    <glyph glyph-name="uni2079" unicode="&#x2079;" horiz-adv-x="567" 
d="M147 817l166 275h-4q-21 -9 -49 -9q-94 0 -161.5 76t-67.5 174q0 99 73 170.5t172 71.5q101 0 174.5 -64t73.5 -182q0 -54 -24.5 -115t-85.5 -165l-140 -232h-127zM279 1200q59 0 93 37t34 104q0 61 -34.5 95t-92.5 34q-57 0 -92 -35.5t-35 -95.5q0 -61 33 -100t94 -39z
" />
    <glyph glyph-name="uni207D" unicode="&#x207d;" horiz-adv-x="329" 
d="M240 743q-191 224 -191 467q0 246 193 469l88 -65q-74 -84 -117 -189t-43 -215q0 -104 44.5 -213t117.5 -188z" />
    <glyph glyph-name="uni207E" unicode="&#x207e;" horiz-adv-x="329" 
d="M-2 809q73 79 117.5 188t44.5 213q0 110 -43 215t-117 189l88 65q193 -223 193 -469q0 -243 -191 -467z" />
    <glyph glyph-name="uni2080" unicode="&#x2080;" horiz-adv-x="612" 
d="M305 -244q-68 0 -120 33t-81.5 89.5t-44 122.5t-14.5 140q0 73 14.5 139t44 122.5t81.5 90t120 33.5q69 0 121.5 -33.5t82 -90t44 -122.5t14.5 -139q0 -74 -14.5 -140t-44 -122.5t-82 -89.5t-121.5 -33zM305 -137q148 0 148 278q0 55 -6.5 101t-22.5 88t-46 66t-73 24
q-145 0 -145 -279q0 -278 145 -278z" />
    <glyph glyph-name="uni2081" unicode="&#x2081;" horiz-adv-x="313" 
d="M119 -229v594h-4l-82 -54l-53 90l174 115h77v-745h-112z" />
    <glyph glyph-name="uni2082" unicode="&#x2082;" horiz-adv-x="567" 
d="M43 -229v98l215 223q72 79 102.5 124t30.5 85q0 50 -30 78.5t-85 28.5q-58 0 -89 -36t-23 -87h-113q-9 105 58.5 172t166.5 67q103 0 169.5 -64.5t66.5 -162.5q0 -51 -25 -98t-79 -109l-189 -203v-4h293v-112h-469z" />
    <glyph glyph-name="uni2083" unicode="&#x2083;" horiz-adv-x="563" 
d="M248 -242q-64 0 -118.5 22.5t-77.5 43.5t-25 29l73 84q3 -2 16.5 -13t24.5 -18t28.5 -16.5t39 -14t45.5 -4.5q51 0 87 32.5t36 90.5q0 51 -33 83t-94 32h-64v106h68q51 0 78.5 26.5t27.5 75.5q0 43 -29.5 70t-72.5 27q-56 0 -95.5 -29.5t-47.5 -50.5l-72 69
q30 52 90.5 88.5t122.5 36.5q95 0 160 -56.5t65 -152.5q0 -59 -29.5 -102t-64.5 -57v-4q46 -9 77.5 -55.5t31.5 -106.5q0 -104 -71 -170t-177 -66z" />
    <glyph glyph-name="uni2084" unicode="&#x2084;" horiz-adv-x="579" 
d="M344 -229v153h-332v78l334 514h113v-487h88v-105h-88v-153h-115zM158 29h186v284h-4l-182 -280v-4z" />
    <glyph glyph-name="uni2085" unicode="&#x2085;" horiz-adv-x="595" 
d="M297 -242q-55 0 -99.5 15.5t-71 39.5t-43.5 53t-22 56t-2 49h121q-4 -35 23.5 -68.5t95.5 -33.5q64 0 98.5 39.5t34.5 109.5q0 73 -28.5 109.5t-92.5 36.5q-31 0 -53 -6.5t-39 -23.5t-24.5 -27.5t-22.5 -36.5l-104 63l47 383h401v-110h-301l-20 -164h4q62 30 112 30
q115 0 177.5 -72t62.5 -182t-70 -185t-184 -75z" />
    <glyph glyph-name="uni2086" unicode="&#x2086;" horiz-adv-x="579" 
d="M293 -242q-102 0 -176 67.5t-74 174.5q0 78 47 174q39 76 62 105l141 237h131l-168 -268h4q16 8 57 8q96 0 160 -72t64 -176t-74.5 -177t-173.5 -73zM291 -127q61 0 95 36t34 101q0 64 -34.5 102t-94.5 38t-94.5 -38t-34.5 -102q0 -65 34 -101t95 -36z" />
    <glyph glyph-name="uni2087" unicode="&#x2087;" horiz-adv-x="499" 
d="M86 -229l258 632v5h-340l2 108h461v-94l-258 -651h-123z" />
    <glyph glyph-name="uni2088" unicode="&#x2088;" horiz-adv-x="610" 
d="M305 -242q-104 0 -175 65.5t-71 162.5q0 77 37.5 129t79.5 57v4q-34 10 -63 52.5t-29 101.5q0 87 64 142.5t157 55.5t157 -55.5t64 -142.5q0 -61 -30 -104t-64 -50v-4q43 -9 81 -60t38 -126q0 -97 -71 -162.5t-175 -65.5zM305 -133q58 0 92.5 32.5t34.5 90.5
q0 56 -35 91.5t-92 35.5t-92 -35.5t-35 -91.5q0 -58 34.5 -90.5t92.5 -32.5zM305 229q48 0 75.5 26.5t27.5 68.5q0 44 -27 70t-76 26t-75.5 -26t-26.5 -70q0 -42 27 -68.5t75 -26.5z" />
    <glyph glyph-name="uni2089" unicode="&#x2089;" horiz-adv-x="567" 
d="M147 -229l166 274h-4q-19 -8 -49 -8q-94 0 -161.5 76t-67.5 174q0 99 73 170t172 71q101 0 174.5 -63.5t73.5 -181.5q0 -55 -25 -116t-85 -165l-140 -231h-127zM279 154q59 0 93 37t34 104q0 61 -34.5 95t-92.5 34q-57 0 -92 -35.5t-35 -95.5q0 -61 33 -100t94 -39z" />
    <glyph glyph-name="uni208D" unicode="&#x208d;" horiz-adv-x="329" 
d="M240 -309q-191 224 -191 467q0 246 193 469l88 -66q-74 -84 -117 -189t-43 -214q0 -105 44.5 -214t117.5 -188z" />
    <glyph glyph-name="uni208E" unicode="&#x208e;" horiz-adv-x="329" 
d="M-2 -244q73 79 117.5 188t44.5 214q0 109 -43 214t-117 189l88 66q193 -223 193 -469q0 -243 -191 -467z" />
    <glyph glyph-name="Euro" unicode="&#x20ac;" horiz-adv-x="1347" 
d="M874 -23q-271 0 -430.5 122.5t-228.5 387.5h-96v125h71q-6 62 -6 95q0 35 6 94h-71v125h98q16 64 42 125.5t78 135t119 127t172.5 90t231.5 36.5q214 0 422 -152l-113 -110q-144 112 -301 112q-167 0 -286 -92t-183 -272h570v-125h-600q-7 -44 -7 -96q0 -49 7 -93h600
v-125h-572q33 -164 156.5 -262t320.5 -98q188 0 310 98l104 -112q-186 -136 -414 -136z" />
    <glyph glyph-name="uni20BD" unicode="&#x20bd;" horiz-adv-x="1239" 
d="M168 0v328h-98v147h98v178h-98v148h98v753h512q104 0 192 -25.5t156.5 -76.5t107 -134t38.5 -190q0 -151 -74.5 -260.5t-196 -162t-274.5 -52.5h-291v-178h291v-147h-291v-328h-170zM711 801q117 0 205 85.5t88 217.5q0 77 -26 137t-69 95t-93.5 53t-104.5 18h-373v-606
h373z" />
    <glyph glyph-name="trademark" unicode="&#x2122;" horiz-adv-x="1564" 
d="M668 819v778h155l211 -626h4l211 626h156v-778h-102v549l4 82h-4l-216 -627h-102l-215 627h-4l4 -82v-549h-102zM250 819v686h-227v92h559v-92h-230v-686h-102z" />
    <glyph glyph-name="uni2150" unicode="&#x2150;" horiz-adv-x="964" 
d="M119 694v594h-4l-82 -53l-53 90l174 115h77v-746h-112zM-90 0l878 1483h80l-878 -1483h-80zM551 0l258 633v4h-340l2 108h461v-94l-258 -651h-123z" />
    <glyph glyph-name="uni2151" unicode="&#x2151;" horiz-adv-x="1032" 
d="M119 694v594h-4l-82 -53l-53 90l174 115h77v-746h-112zM-90 0l878 1483h80l-878 -1483h-80zM612 0l166 274h-4q-19 -8 -49 -8q-94 0 -161.5 76t-67.5 174q0 99 73 170.5t172 71.5q101 0 174.5 -64t73.5 -182q0 -55 -25 -116t-85 -165l-140 -231h-127zM743 383q59 0 93 37
t34 104q0 61 -34.5 95t-92.5 34q-57 0 -92 -35.5t-35 -95.5q0 -61 33 -100t94 -39z" />
    <glyph glyph-name="uni2152" unicode="&#x2152;" horiz-adv-x="1398" 
d="M119 694v594h-4l-82 -53l-53 90l174 115h77v-746h-112zM-90 0l878 1483h80l-878 -1483h-80zM584 0v594h-4l-82 -53l-54 90l174 114h78v-745h-112zM1092 -14q-55 0 -100 22t-74.5 59t-49.5 87.5t-28.5 104.5t-8.5 112q0 73 14.5 139t44 122.5t82 90t120.5 33.5
q69 0 121.5 -33.5t82 -90t44 -122.5t14.5 -139q0 -74 -14.5 -140t-44 -122.5t-82 -89.5t-121.5 -33zM1092 92q147 0 147 279q0 278 -147 278q-42 0 -72 -23.5t-45.5 -65.5t-22 -88t-6.5 -101q0 -279 146 -279z" />
    <glyph glyph-name="uni2153" unicode="&#x2153;" horiz-adv-x="1028" 
d="M119 694v594h-4l-82 -53l-53 90l174 115h77v-746h-112zM-90 0l878 1483h80l-878 -1483h-80zM713 -12q-64 0 -118.5 22.5t-77.5 43t-25 28.5l73 84q3 -2 16.5 -13t24.5 -18t28.5 -16.5t39 -14t45.5 -4.5q51 0 87 32.5t36 90.5q0 51 -33 83t-94 32h-64v106h68
q51 0 78.5 26.5t27.5 76.5q0 43 -29.5 69.5t-72.5 26.5q-56 0 -95.5 -29.5t-47.5 -50.5l-72 70q30 52 90.5 88.5t122.5 36.5q95 0 160 -56.5t65 -152.5q0 -59 -29.5 -102.5t-64.5 -57.5v-4q46 -9 77.5 -55.5t31.5 -106.5q0 -104 -71 -169.5t-177 -65.5z" />
    <glyph glyph-name="uni2154" unicode="&#x2154;" horiz-adv-x="1282" 
d="M43 694v99l215 223q72 79 102.5 124t30.5 85q0 50 -30 78t-85 28q-58 0 -89 -36t-23 -87h-113q-9 105 58.5 172.5t166.5 67.5q103 0 169.5 -64.5t66.5 -162.5q0 -51 -25 -98t-79 -109l-189 -203v-4h293v-113h-469zM164 0l878 1483h80l-878 -1483h-80zM967 -12
q-64 0 -119 22.5t-78 43t-25 28.5l74 84q3 -2 16.5 -13t24.5 -18t28.5 -16.5t39 -14t45.5 -4.5q51 0 87 32.5t36 90.5q0 51 -33 83t-94 32h-64v106h68q51 0 78.5 26.5t27.5 76.5q0 43 -29.5 69.5t-72.5 26.5q-56 0 -95.5 -29.5t-47.5 -50.5l-72 70q30 52 90.5 88.5
t122.5 36.5q95 0 160 -56.5t65 -152.5q0 -59 -29.5 -102.5t-64.5 -57.5v-4q46 -9 77 -55.5t31 -106.5q0 -104 -70.5 -169.5t-176.5 -65.5z" />
    <glyph glyph-name="uni2155" unicode="&#x2155;" horiz-adv-x="1060" 
d="M119 694v594h-4l-82 -53l-53 90l174 115h77v-746h-112zM-90 0l878 1483h80l-878 -1483h-80zM762 -12q-55 0 -99.5 15.5t-71 39.5t-43.5 53t-22 56t-2 49h121q-4 -36 23.5 -69.5t95.5 -33.5q64 0 98.5 40t34.5 110q0 73 -28.5 109t-92.5 36q-31 0 -53 -6.5t-39 -23.5
t-24.5 -27.5t-22.5 -36.5l-105 63l48 383h401v-110h-301l-21 -164h5q64 31 112 31q115 0 177.5 -72t62.5 -182t-70 -185t-184 -75z" />
    <glyph glyph-name="uni2156" unicode="&#x2156;" horiz-adv-x="1314" 
d="M43 694v99l215 223q72 79 102.5 124t30.5 85q0 50 -30 78t-85 28q-58 0 -89 -36t-23 -87h-113q-9 105 58.5 172.5t166.5 67.5q103 0 169.5 -64.5t66.5 -162.5q0 -51 -25 -98t-79 -109l-189 -203v-4h293v-113h-469zM164 0l878 1483h80l-878 -1483h-80zM1016 -12
q-55 0 -99.5 15.5t-71 39.5t-43.5 53t-22 56t-2 49h121q-4 -36 23.5 -69.5t95.5 -33.5q64 0 98.5 40t34.5 110q0 73 -28.5 109t-92.5 36q-31 0 -53 -6.5t-39 -23.5t-24.5 -27.5t-22.5 -36.5l-105 63l48 383h401v-110h-301l-21 -164h5q64 31 112 31q115 0 177.5 -72
t62.5 -182t-70 -185t-184 -75z" />
    <glyph glyph-name="uni2157" unicode="&#x2157;" horiz-adv-x="1310" 
d="M248 682q-64 0 -118.5 22.5t-77.5 43t-25 28.5l73 84q3 -2 16.5 -13t24.5 -18t28.5 -16t39 -13.5t45.5 -4.5q51 0 87 32.5t36 90.5q0 51 -33 82.5t-94 31.5h-64v107h68q51 0 78.5 26.5t27.5 75.5q0 43 -29.5 69.5t-72.5 26.5q-56 0 -95.5 -29.5t-47.5 -50.5l-72 70
q30 52 90.5 88.5t122.5 36.5q95 0 160 -56.5t65 -152.5q0 -59 -29.5 -102.5t-64.5 -57.5v-4q46 -9 77.5 -55t31.5 -106q0 -104 -71 -170t-177 -66zM160 0l878 1483h80l-878 -1483h-80zM1012 -12q-55 0 -99.5 15.5t-71 39.5t-43.5 53t-22 56t-2 49h121q-4 -36 23.5 -69.5
t95.5 -33.5q64 0 98.5 40t34.5 110q0 73 -28.5 109t-92.5 36q-31 0 -53 -6.5t-39 -23.5t-24.5 -27.5t-22.5 -36.5l-105 63l47 383h402v-110h-301l-21 -164h4q64 31 113 31q115 0 177.5 -72t62.5 -182t-70 -185t-184 -75z" />
    <glyph glyph-name="uni2158" unicode="&#x2158;" horiz-adv-x="1327" 
d="M344 694v154h-332v78l334 514h113v-488h88v-104h-88v-154h-115zM158 952h186v285h-4l-182 -281v-4zM176 0l879 1483h80l-879 -1483h-80zM1028 -12q-68 0 -119 23t-76 57.5t-35.5 69t-6.5 63.5h120q-4 -36 23.5 -69.5t95.5 -33.5q64 0 98.5 40t34.5 110q0 73 -28.5 109
t-92.5 36q-31 0 -53 -6.5t-39 -23.5t-24.5 -27.5t-22.5 -36.5l-104 63l47 383h401v-110h-301l-20 -164h4q64 31 112 31q115 0 177.5 -72t62.5 -182t-70 -185t-184 -75z" />
    <glyph glyph-name="uni2159" unicode="&#x2159;" horiz-adv-x="1044" 
d="M119 694v594h-4l-82 -53l-53 90l174 115h77v-746h-112zM-90 0l878 1483h80l-878 -1483h-80zM758 -12q-102 0 -176 67t-74 174q0 78 47 174q41 80 61 105l142 237h131l-168 -268h4q16 8 57 8q96 0 160 -71.5t64 -175.5t-74.5 -177t-173.5 -73zM756 102q60 0 94.5 36
t34.5 102q0 63 -34.5 101t-94.5 38t-94.5 -38t-34.5 -101q0 -66 34.5 -102t94.5 -36z" />
    <glyph glyph-name="uni215A" unicode="&#x215a;" horiz-adv-x="1327" 
d="M297 682q-55 0 -99.5 15.5t-71 39.5t-43.5 53t-22 56t-2 49h121q-4 -35 23.5 -68.5t95.5 -33.5q64 0 98.5 39.5t34.5 109.5q0 73 -28.5 109t-92.5 36q-31 0 -53 -6.5t-39 -23.5t-24.5 -27.5t-22.5 -36.5l-104 64l47 383h401v-111h-301l-20 -164h4q64 31 112 31
q115 0 177.5 -72t62.5 -182t-70 -185t-184 -75zM193 0l878 1483h80l-879 -1483h-79zM1040 -12q-102 0 -175.5 67t-73.5 174q0 78 47 174q41 80 61 105l141 237h131l-167 -268h4q16 8 57 8q96 0 159.5 -71.5t63.5 -175.5t-74.5 -177t-173.5 -73zM1038 102q60 0 94.5 36
t34.5 102q0 63 -34.5 101t-94.5 38t-94.5 -38t-34.5 -101q0 -66 34.5 -102t94.5 -36z" />
    <glyph glyph-name="oneeighth" unicode="&#x215b;" horiz-adv-x="1075" 
d="M119 694v594h-4l-82 -53l-53 90l174 115h77v-746h-112zM-90 0l878 1483h80l-878 -1483h-80zM770 -12q-104 0 -175 65t-71 162q0 77 37.5 129t79.5 57v5q-34 10 -63 52t-29 101q0 88 64 143.5t157 55.5t157 -55.5t64 -143.5q0 -61 -29.5 -103.5t-64.5 -49.5v-5
q43 -9 81 -60t38 -126q0 -97 -71 -162t-175 -65zM770 96q58 0 92.5 32.5t34.5 90.5q0 56 -35 91.5t-92 35.5t-92 -35.5t-35 -91.5q0 -58 34.5 -90.5t92.5 -32.5zM770 459q48 0 75 26t27 68q0 44 -26.5 70t-75.5 26t-75.5 -26t-26.5 -70q0 -42 27 -68t75 -26z" />
    <glyph glyph-name="threeeighths" unicode="&#x215c;" horiz-adv-x="1325" 
d="M248 682q-64 0 -118.5 22.5t-77.5 43t-25 28.5l73 84q3 -2 16.5 -13t24.5 -18t28.5 -16t39 -13.5t45.5 -4.5q51 0 87 32.5t36 90.5q0 51 -33 82.5t-94 31.5h-64v107h68q51 0 78.5 26.5t27.5 75.5q0 43 -29.5 69.5t-72.5 26.5q-56 0 -95.5 -29.5t-47.5 -50.5l-72 70
q30 52 90.5 88.5t122.5 36.5q95 0 160 -56.5t65 -152.5q0 -59 -29.5 -102.5t-64.5 -57.5v-4q46 -9 77.5 -55t31.5 -106q0 -104 -71 -170t-177 -66zM160 0l878 1483h80l-878 -1483h-80zM1020 -12q-104 0 -175 65t-71 162q0 77 37.5 129t79.5 57v5q-34 10 -63 52t-29 101
q0 88 64 143.5t157 55.5t157 -55.5t64 -143.5q0 -61 -29.5 -103.5t-64.5 -49.5v-5q43 -9 81 -60t38 -126q0 -97 -71 -162t-175 -65zM1020 96q58 0 92.5 32.5t34.5 90.5q0 56 -35 91.5t-92 35.5t-92 -35.5t-35 -91.5q0 -58 34.5 -90.5t92.5 -32.5zM1020 459q48 0 75 26t27 68
q0 44 -26.5 70t-75.5 26t-75.5 -26t-26.5 -70q0 -42 27 -68t75 -26z" />
    <glyph glyph-name="fiveeighths" unicode="&#x215d;" horiz-adv-x="1357" 
d="M297 682q-55 0 -99.5 15.5t-71 39.5t-43.5 53t-22 56t-2 49h121q-4 -35 23.5 -68.5t95.5 -33.5q64 0 98.5 39.5t34.5 109.5q0 73 -28.5 109t-92.5 36q-31 0 -53 -6.5t-39 -23.5t-24.5 -27.5t-22.5 -36.5l-104 64l47 383h401v-111h-301l-20 -164h4q64 31 112 31
q115 0 177.5 -72t62.5 -182t-70 -185t-184 -75zM193 0l878 1483h80l-879 -1483h-79zM1053 -12q-104 0 -175 65t-71 162q0 77 37.5 129t79.5 57v5q-34 10 -63.5 52t-29.5 101q0 87 64.5 143t157.5 56t157 -55.5t64 -143.5q0 -61 -29.5 -103.5t-64.5 -49.5v-5q42 -9 80 -60
t38 -126q0 -97 -70.5 -162t-174.5 -65zM1053 96q58 0 92.5 32.5t34.5 90.5q0 56 -35 91.5t-92 35.5t-92 -35.5t-35 -91.5q0 -58 34.5 -90.5t92.5 -32.5zM1053 459q48 0 75 26t27 68q0 44 -26.5 70t-75.5 26t-76 -26t-27 -70q0 -42 27.5 -68t75.5 -26z" />
    <glyph glyph-name="seveneighths" unicode="&#x215e;" horiz-adv-x="1261" 
d="M86 694l258 633v4h-340l2 109h461v-94l-258 -652h-123zM96 0l879 1483h80l-879 -1483h-80zM956 -12q-104 0 -174.5 65t-70.5 162q0 77 37 129t79 57v5q-34 10 -63 52t-29 101q0 88 64 143.5t157 55.5t157.5 -56t64.5 -143q0 -61 -30 -103.5t-65 -49.5v-5q43 -9 81 -60
t38 -126q0 -97 -71 -162t-175 -65zM956 96q58 0 92.5 32.5t34.5 90.5q0 56 -35 91.5t-92 35.5t-92 -35.5t-35 -91.5q0 -58 34.5 -90.5t92.5 -32.5zM956 459q48 0 75.5 26t27.5 68q0 44 -27 70t-76 26t-75.5 -26t-26.5 -70q0 -42 27 -68t75 -26z" />
    <glyph glyph-name="uni215F" unicode="&#x215f;" horiz-adv-x="464" 
d="M119 694v594h-4l-82 -53l-53 90l174 115h77v-746h-112zM-90 0l878 1483h80l-878 -1483h-80z" />
    <glyph glyph-name="uni2189" unicode="&#x2189;" horiz-adv-x="1327" 
d="M305 680q-68 0 -120 33t-81.5 89.5t-44 122.5t-14.5 140q0 73 14.5 139t44 122.5t81.5 90t120 33.5q69 0 121.5 -33.5t82 -90t44 -122.5t14.5 -139q0 -74 -14.5 -140t-44 -122.5t-82 -89.5t-121.5 -33zM305 786q148 0 148 279q0 278 -148 278q-145 0 -145 -278
q0 -279 145 -279zM209 0l878 1483h80l-878 -1483h-80zM1012 -12q-64 0 -118.5 22.5t-77.5 43t-25 28.5l73 84q3 -2 16.5 -13t24.5 -18t28.5 -16.5t39 -14t45.5 -4.5q51 0 87 32.5t36 90.5q0 51 -33 83t-94 32h-64v106h68q51 0 78.5 26.5t27.5 76.5q0 43 -29.5 69.5
t-72.5 26.5q-56 0 -95.5 -29.5t-47.5 -50.5l-72 70q30 52 90.5 88.5t122.5 36.5q95 0 160 -56.5t65 -152.5q0 -59 -29.5 -102.5t-64.5 -57.5v-4q46 -9 77.5 -55.5t31.5 -106.5q0 -104 -71 -169.5t-177 -65.5z" />
    <glyph glyph-name="arrowleft" unicode="&#x2190;" horiz-adv-x="1433" 
d="M190 475l-94 96l572 572l94 -96l-408 -408h959v-137h-959l408 -408l-94 -94l-475 477z" />
    <glyph glyph-name="arrowup" unicode="&#x2191;" horiz-adv-x="1433" 
d="M813 1122l475 -477l-94 -94l-408 407v-958h-137v958l-407 -407l-97 94l572 572z" />
    <glyph glyph-name="arrowright" unicode="&#x2192;" horiz-adv-x="1433" 
d="M1243 475v2l-477 -477l-94 94l407 408h-958v137h958l-407 408l94 96l571 -572z" />
    <glyph glyph-name="arrowdown" unicode="&#x2193;" horiz-adv-x="1433" 
d="M621 88l2 2l-478 475l95 94l407 -407v958h137v-958l408 407l96 -94l-571 -571z" />
    <glyph glyph-name="arrowboth" unicode="&#x2194;" horiz-adv-x="2088" 
d="M1898 475v2l-477 -477l-94 94l408 408h-1381l408 -408l-94 -94l-475 477l-3 -2l-94 96l572 572l94 -96l-408 -408h1381l-408 408l94 96l572 -572z" />
    <glyph glyph-name="arrowupdn" unicode="&#x2195;" horiz-adv-x="1433" 
d="M621 -248l2 2l-478 475l95 95l407 -408v1380l-407 -407l-95 94l478 477h-2l96 94l571 -571l-96 -94l-408 407v-1380l408 408l96 -95l-571 -571z" />
    <glyph glyph-name="uni2196" unicode="&#x2196;" horiz-adv-x="1404" 
d="M283 872l2 136h807l-2 -136h-576l678 -677l-96 -97l-678 678v-577h-133v673h-2z" />
    <glyph glyph-name="uni2197" unicode="&#x2197;" horiz-adv-x="1404" 
d="M1122 872h-2v-673h-133v577l-678 -678l-96 97l678 677h-576l-2 136h807z" />
    <glyph glyph-name="uni2198" unicode="&#x2198;" horiz-adv-x="1404" 
d="M987 106v3h-674v133h578l-678 678l96 96l678 -678v575l135 2v-806z" />
    <glyph glyph-name="uni2199" unicode="&#x2199;" horiz-adv-x="1404" 
d="M418 106l-135 3v806l135 -2v-575l678 678l96 -96l-678 -678h578v-133h-674v-3z" />
    <glyph glyph-name="partialdiff" unicode="&#x2202;" horiz-adv-x="1226" 
d="M616 -25q-212 0 -354.5 144.5t-142.5 361.5q0 219 145 360.5t393 141.5q154 0 295 -53h9q-9 226 -100.5 355.5t-254.5 129.5q-106 0 -188.5 -43t-165.5 -123l-107 109q69 78 190 141.5t271 63.5q102 0 181.5 -24.5t145 -80.5t108.5 -146.5t66 -224.5t23 -311
q0 -179 -27.5 -318t-74 -229t-113 -148t-140 -82t-159.5 -24zM610 139q163 0 257 148.5t94 427.5v39q-119 69 -299 69q-170 0 -264.5 -95t-94.5 -247q0 -156 84.5 -249t222.5 -93z" />
    <glyph glyph-name="product" unicode="&#x220f;" horiz-adv-x="1196" 
d="M913 -451v1852h-630v-1852h-156v2005h942v-2005h-156z" />
    <glyph glyph-name="summation" unicode="&#x2211;" horiz-adv-x="1316" 
d="M696 557l-569 844v153h1063v-147h-873v-8l568 -842v-8l-568 -844v-8h873v-148h-1063v154l569 846v8z" />
    <glyph glyph-name="minus" unicode="&#x2212;" horiz-adv-x="1064" 
d="M115 418v131h835v-131h-835z" />
    <glyph glyph-name="radical" unicode="&#x221a;" horiz-adv-x="1095" 
d="M369 0l-183 543h-161v153h270l160 -479h8l432 1337h176l-520 -1554h-182z" />
    <glyph glyph-name="infinity" unicode="&#x221e;" horiz-adv-x="1986" 
d="M989 446q-32 -95 -148 -170t-270 -75q-197 0 -326.5 139.5t-129.5 355.5q0 215 129.5 354.5t326.5 139.5q153 0 269 -79t149 -175h8q33 96 149 175t269 79q197 0 327 -139.5t130 -354.5q0 -216 -130 -355.5t-327 -139.5q-154 0 -270 75t-148 170h-8zM270 696
q0 -137 85.5 -225t222.5 -88t226 88.5t89 224.5q0 135 -89.5 223.5t-225.5 88.5q-137 0 -222.5 -88t-85.5 -224zM1716 696q0 136 -85 224t-222 88q-136 0 -225.5 -88.5t-89.5 -223.5q0 -136 89 -224.5t226 -88.5t222 88t85 225z" />
    <glyph glyph-name="integral" unicode="&#x222b;" horiz-adv-x="651" 
d="M25 -281v148h98q62 0 91.5 29t29.5 110v1565q0 229 231 229h152v-147h-99q-62 0 -91 -29.5t-29 -110.5v-1564q0 -230 -232 -230h-151z" />
    <glyph glyph-name="approxequal" unicode="&#x2248;" horiz-adv-x="1155" 
d="M94 745q127 166 297 166q52 0 98.5 -17.5t108.5 -55.5q108 -68 174 -68q17 0 33.5 4.5t27 9t26 17.5t21 18t22.5 23t20 22l98 -98q-110 -145 -246 -145q-102 0 -237 81q-100 62 -152 62q-42 0 -82 -21t-61.5 -42t-48.5 -54zM94 326q139 182 297 182q52 0 98 -17.5
t109 -56.5q106 -67 180 -67q33 0 64.5 13.5t79.5 47.5l98 -98q-64 -66 -119 -89.5t-127 -23.5q-101 0 -237 82q-98 61 -144 61q-47 0 -103.5 -42.5t-96.5 -90.5z" />
    <glyph glyph-name="notequal" unicode="&#x2260;" horiz-adv-x="1165" 
d="M184 0l162 340h-231v131h293l172 360h-465v132h526l166 348h108l-165 -348h256v-132h-318l-172 -360h490v-131h-551l-162 -340h-109z" />
    <glyph glyph-name="lessequal" unicode="&#x2264;" horiz-adv-x="1439" 
d="M1198 0h-1040v123h1040v-123zM1137 233l-926 484v28l926 500v-174l-648 -336v-8l648 -324v-170z" />
    <glyph glyph-name="greaterequal" unicode="&#x2265;" horiz-adv-x="1439" 
d="M242 0v123h1040v-123h-1040zM303 233v170l647 324v8l-647 336v174l926 -500v-28z" />
    <glyph glyph-name="A.ss01" 
d="M526 1448q24 68 44.5 87t74.5 19h78q54 0 74.5 -19t44.5 -87l499 -1448h-182l-151 455h-650l-149 -455h-184zM408 602h550l-270 803h-8z" />
    <glyph glyph-name="Aacute.ss01" 
d="M526 1448q24 68 44.5 87t74.5 19h78q54 0 74.5 -19t44.5 -87l499 -1448h-182l-151 455h-650l-149 -455h-184zM408 602h550l-270 803h-8zM567 1688l238 278h209l-279 -278h-168z" />
    <glyph glyph-name="Abreve.ss01" 
d="M526 1448q24 68 44.5 87t74.5 19h78q54 0 74.5 -19t44.5 -87l499 -1448h-182l-151 455h-650l-149 -455h-184zM408 602h550l-270 803h-8zM684 1638q-81 0 -124.5 9t-80.5 41q-34 29 -61 122l-27 111h127q15 -57 35 -104q18 -36 45 -50q20 -8 86 -8q62 0 86 8q27 14 45 50
q20 47 35 104h127l-27 -111q-27 -93 -61 -122q-37 -32 -80.5 -41t-124.5 -9z" />
    <glyph glyph-name="uni1EAE.ss01" 
d="M526 1448q24 68 44.5 87t74.5 19h78q54 0 74.5 -19t44.5 -87l499 -1448h-182l-151 455h-650l-149 -455h-184zM408 602h550l-270 803h-8zM684 1638q-79 0 -122 9.5t-81 40.5q-37 32 -63 120q-25 92 -27 103h129q8 -55 25 -94q18 -36 45 -50q20 -8 94 -8q70 0 94 8
q27 14 45 50q17 39 25 94h129q-2 -11 -27 -103q-26 -88 -63 -120q-38 -31 -81 -40.5t-122 -9.5zM600 1935l213 254h209l-254 -254h-168z" />
    <glyph glyph-name="uni1EB6.ss01" 
d="M526 1448q24 68 44.5 87t74.5 19h78q54 0 74.5 -19t44.5 -87l499 -1448h-182l-151 455h-650l-149 -455h-184zM408 602h550l-270 803h-8zM684 1638q-81 0 -124.5 9t-80.5 41q-34 29 -61 122l-27 111h127q15 -57 35 -104q18 -36 45 -50q20 -8 86 -8q62 0 86 8q27 14 45 50
q20 47 35 104h127l-27 -111q-27 -93 -61 -122q-37 -32 -80.5 -41t-124.5 -9zM684 -338q-40 0 -69 29t-29 71q0 40 29 69.5t69 29.5q42 0 71 -29.5t29 -69.5q0 -43 -28.5 -71.5t-71.5 -28.5z" />
    <glyph glyph-name="uni1EB0.ss01" 
d="M526 1448q24 68 44.5 87t74.5 19h78q54 0 74.5 -19t44.5 -87l499 -1448h-182l-151 455h-650l-149 -455h-184zM408 602h550l-270 803h-8zM684 1638q-78 0 -121 9.5t-82 40.5q-36 29 -63 120l-27 103h129q8 -55 25 -94q18 -36 45 -50q20 -8 94 -8q70 0 94 8q27 14 45 50
q17 39 25 94h129l-27 -103q-27 -91 -63 -120q-39 -31 -82 -40.5t-121 -9.5zM608 1905l-254 254h209l213 -254h-168z" />
    <glyph glyph-name="uni1EB2.ss01" 
d="M526 1448q24 68 44.5 87t74.5 19h78q54 0 74.5 -19t44.5 -87l499 -1448h-182l-151 455h-650l-149 -455h-184zM408 602h550l-270 803h-8zM684 1634q-79 0 -121.5 9t-81.5 40q-36 29 -63 121l-27 103h129q8 -57 25 -95q17 -35 45 -49q20 -8 94 -8q70 0 94 8q28 14 45 49
q17 38 25 95h129l-27 -103q-27 -92 -63 -121q-39 -31 -81.5 -40t-121.5 -9zM616 1946q0 33 14 53.5t56 46.5q68 37 68 86q0 21 -18.5 36t-47.5 15q-55 0 -102 -53l-76 76q64 94 186 100q90 0 148.5 -46.5t58.5 -115.5q0 -60 -31.5 -101t-99.5 -79q-23 -12 -28 -22.5
t-5 -32.5v-4h-123v41z" />
    <glyph glyph-name="uni1EB4.ss01" 
d="M526 1448q24 68 44.5 87t74.5 19h78q54 0 74.5 -19t44.5 -87l499 -1448h-182l-151 455h-650l-149 -455h-184zM408 602h550l-270 803h-8zM522 1985q0 122 56.5 196t134.5 74q65 0 149 -66q76 -61 117 -61q34 0 55 43t21 102h127q0 -127 -58 -207.5t-145 -80.5
q-67 0 -137 55q-77 59 -117 59q-36 0 -56 -32.5t-20 -81.5h-127zM684 1634q-79 0 -121.5 9t-81.5 40q-36 29 -63 121l-27 103h129q8 -57 25 -95q17 -35 45 -49q20 -8 94 -8q70 0 94 8q28 14 45 49q17 38 25 95h129l-27 -103q-27 -92 -63 -121q-39 -31 -81.5 -40t-121.5 -9z
" />
    <glyph glyph-name="Acircumflex.ss01" 
d="M526 1448q24 68 44.5 87t74.5 19h78q54 0 74.5 -19t44.5 -87l499 -1448h-182l-151 455h-650l-149 -455h-184zM408 602h550l-270 803h-8zM356 1649l275 270h106l277 -270h-158l-164 131h-16l-162 -131h-158z" />
    <glyph glyph-name="uni1EA4.ss01" 
d="M526 1448q24 68 44.5 87t74.5 19h78q54 0 74.5 -19t44.5 -87l499 -1448h-182l-151 455h-650l-149 -455h-184zM408 602h550l-270 803h-8zM836 1845l221 254h211l-254 -254h-178zM360 1645l267 241h112l267 -241h-168l-146 114h-16l-148 -114h-168z" />
    <glyph glyph-name="uni1EAC.ss01" 
d="M526 1448q24 68 44.5 87t74.5 19h78q54 0 74.5 -19t44.5 -87l499 -1448h-182l-151 455h-650l-149 -455h-184zM408 602h550l-270 803h-8zM356 1649l275 270h106l277 -270h-158l-164 131h-16l-162 -131h-158zM684 -338q-40 0 -69 29t-29 71q0 40 29 69.5t69 29.5
q42 0 71 -29.5t29 -69.5q0 -43 -28.5 -71.5t-71.5 -28.5z" />
    <glyph glyph-name="uni1EA6.ss01" 
d="M526 1448q24 68 44.5 87t74.5 19h78q54 0 74.5 -19t44.5 -87l499 -1448h-182l-151 455h-650l-149 -455h-184zM408 602h550l-270 803h-8zM932 1829l-254 254h211l221 -254h-178zM360 1645l267 241h112l267 -241h-168l-146 114h-16l-148 -114h-168z" />
    <glyph glyph-name="uni1EA8.ss01" 
d="M526 1448q24 68 44.5 87t74.5 19h78q54 0 74.5 -19t44.5 -87l499 -1448h-182l-151 455h-650l-149 -455h-184zM408 602h550l-270 803h-8zM881 1823q0 34 13.5 54t55.5 46q68 40 68 86q0 22 -19 36.5t-47 14.5q-60 0 -102 -53l-76 76q64 94 187 100q89 0 147.5 -46
t58.5 -116q0 -59 -31.5 -100t-99.5 -80q-16 -9 -23 -17.5t-8 -15t-1 -22.5v-4h-123v41zM360 1645l267 241h112l267 -241h-168l-146 114h-16l-148 -114h-168z" />
    <glyph glyph-name="uni1EAA.ss01" 
d="M526 1448q24 68 44.5 87t74.5 19h78q54 0 74.5 -19t44.5 -87l499 -1448h-182l-151 455h-650l-149 -455h-184zM408 602h550l-270 803h-8zM401 1958q0 117 56 188.5t133 71.5q68 0 149 -66q79 -61 117 -61q34 0 55 43t21 102h125q0 -123 -57 -200.5t-144 -77.5
q-67 0 -137 55q-75 60 -117 60q-35 0 -55.5 -33t-20.5 -82h-125zM360 1645l267 241h112l267 -241h-168l-146 114h-16l-148 -114h-168z" />
    <glyph glyph-name="uni1EA0.ss01" 
d="M526 1448q24 68 44.5 87t74.5 19h78q54 0 74.5 -19t44.5 -87l499 -1448h-182l-151 455h-650l-149 -455h-184zM408 602h550l-270 803h-8zM684 -338q-40 0 -69 29t-29 71q0 40 29 69.5t69 29.5q42 0 71 -29.5t29 -69.5q0 -43 -28.5 -71.5t-71.5 -28.5z" />
    <glyph glyph-name="Agrave.ss01" 
d="M526 1448q24 68 44.5 87t74.5 19h78q54 0 74.5 -19t44.5 -87l499 -1448h-182l-151 455h-650l-149 -455h-184zM408 602h550l-270 803h-8zM633 1688l-279 278h209l238 -278h-168z" />
    <glyph glyph-name="uni1EA2.ss01" 
d="M526 1448q24 68 44.5 87t74.5 19h78q54 0 74.5 -19t44.5 -87l499 -1448h-182l-151 455h-650l-149 -455h-184zM408 602h550l-270 803h-8zM602 1706q0 33 14 53.5t56 46.5q67 37 67 86q0 21 -19 36.5t-46 15.5q-33 0 -61 -15t-42 -39l-79 80q59 103 184 103q93 0 153 -45.5
t60 -122.5q0 -113 -139 -181q-23 -11 -28 -22t-5 -33v-12h-115v49z" />
    <glyph glyph-name="Atilde.ss01" 
d="M526 1448q24 68 44.5 87t74.5 19h78q54 0 74.5 -19t44.5 -87l499 -1448h-182l-151 455h-650l-149 -455h-184zM408 602h550l-270 803h-8zM365 1669q0 119 57 193.5t139 74.5q73 -3 156 -65q67 -53 110 -53q58 0 58 129h139q0 -127 -51.5 -203t-143.5 -76q-69 0 -145 55
q-74 53 -113 56q-35 0 -53 -30.5t-18 -80.5h-135z" />
    <glyph glyph-name="E.ss01" horiz-adv-x="1132" 
d="M168 1325q0 229 229 229h578v-147h-526q-59 0 -85 -26.5t-26 -96.5v-414h588v-147h-588v-576h645v-147h-815v1325z" />
    <glyph glyph-name="Eacute.ss01" horiz-adv-x="1132" 
d="M168 1325q0 229 229 229h578v-147h-526q-59 0 -85 -26.5t-26 -96.5v-414h588v-147h-588v-576h645v-147h-815v1325zM500 1704l237 278h209l-278 -278h-168z" />
    <glyph glyph-name="Ecircumflex.ss01" horiz-adv-x="1132" 
d="M168 1325q0 229 229 229h578v-147h-526q-59 0 -85 -26.5t-26 -96.5v-414h588v-147h-588v-576h645v-147h-815v1325zM289 1665l274 270h107l276 -270h-158l-163 131h-17l-162 -131h-157z" />
    <glyph glyph-name="uni1EBE.ss01" horiz-adv-x="1132" 
d="M168 1325q0 229 229 229h578v-147h-526q-59 0 -85 -26.5t-26 -96.5v-414h588v-147h-588v-576h645v-147h-815v1325zM768 1862l221 254h211l-254 -254h-178zM293 1661l266 242h113l266 -242h-168l-145 115h-17l-147 -115h-168z" />
    <glyph glyph-name="uni1EC6.ss01" horiz-adv-x="1132" 
d="M168 1325q0 229 229 229h578v-147h-526q-59 0 -85 -26.5t-26 -96.5v-414h588v-147h-588v-576h645v-147h-815v1325zM289 1665l274 270h107l276 -270h-158l-163 131h-17l-162 -131h-157zM588 -338q-40 0 -69.5 29t-29.5 71q0 40 29.5 69.5t69.5 29.5q42 0 71 -29.5
t29 -69.5q0 -43 -28.5 -71.5t-71.5 -28.5z" />
    <glyph glyph-name="uni1EC0.ss01" horiz-adv-x="1132" 
d="M168 1325q0 229 229 229h578v-147h-526q-59 0 -85 -26.5t-26 -96.5v-414h588v-147h-588v-576h645v-147h-815v1325zM864 1845l-254 254h211l221 -254h-178zM293 1661l266 242h113l266 -242h-168l-145 115h-17l-147 -115h-168z" />
    <glyph glyph-name="uni1EC2.ss01" horiz-adv-x="1132" 
d="M168 1325q0 229 229 229h578v-147h-526q-59 0 -85 -26.5t-26 -96.5v-414h588v-147h-588v-576h645v-147h-815v1325zM813 1839q0 34 14 54t56 46q36 22 51.5 41.5t15.5 44.5q0 22 -18.5 37t-46.5 15q-61 0 -103 -54l-75 76q65 95 186 101q89 0 148 -46t59 -116
q0 -59 -31.5 -100t-99.5 -80q-23 -12 -28 -23t-5 -33v-4h-123v41zM293 1661l266 242h113l266 -242h-168l-145 115h-17l-147 -115h-168z" />
    <glyph glyph-name="uni1EC4.ss01" horiz-adv-x="1132" 
d="M168 1325q0 229 229 229h578v-147h-526q-59 0 -85 -26.5t-26 -96.5v-414h588v-147h-588v-576h645v-147h-815v1325zM334 1974q0 117 55.5 188.5t132.5 71.5q70 0 150 -65q80 -62 116 -62q34 0 55 43t21 103h125q0 -123 -57 -201t-144 -78q-66 0 -137 56q-73 59 -116 59
q-35 0 -55.5 -33t-20.5 -82h-125zM293 1661l266 242h113l266 -242h-168l-145 115h-17l-147 -115h-168z" />
    <glyph glyph-name="uni1EB8.ss01" horiz-adv-x="1132" 
d="M168 1325q0 229 229 229h578v-147h-526q-59 0 -85 -26.5t-26 -96.5v-414h588v-147h-588v-576h645v-147h-815v1325zM588 -338q-40 0 -69.5 29t-29.5 71q0 40 29.5 69.5t69.5 29.5q42 0 71 -29.5t29 -69.5q0 -43 -28.5 -71.5t-71.5 -28.5z" />
    <glyph glyph-name="Egrave.ss01" horiz-adv-x="1132" 
d="M168 1325q0 229 229 229h578v-147h-526q-59 0 -85 -26.5t-26 -96.5v-414h588v-147h-588v-576h645v-147h-815v1325zM565 1704l-278 278h209l237 -278h-168z" />
    <glyph glyph-name="uni1EBA.ss01" horiz-adv-x="1132" 
d="M168 1325q0 229 229 229h578v-147h-526q-59 0 -85 -26.5t-26 -96.5v-414h588v-147h-588v-576h645v-147h-815v1325zM535 1722q0 33 14 54.5t55 46.5q68 37 68 86q0 21 -19.5 36t-46.5 15q-33 0 -60.5 -14.5t-41.5 -38.5l-80 80q58 102 184 102q93 0 153 -45.5t60 -122.5
q0 -112 -139 -180q-23 -11 -28 -22t-5 -33v-13h-114v49z" />
    <glyph glyph-name="uni1EBC.ss01" horiz-adv-x="1132" 
d="M168 1325q0 229 229 229h578v-147h-526q-59 0 -85 -26.5t-26 -96.5v-414h588v-147h-588v-576h645v-147h-815v1325zM297 1686q0 118 57.5 193t139.5 75q70 -3 155 -66q67 -53 111 -53q57 0 57 129h139q0 -127 -51 -202.5t-143 -75.5q-70 0 -146 55q-73 52 -112 55
q-35 0 -53.5 -30.5t-18.5 -79.5h-135z" />
    <glyph glyph-name="F.ss01" horiz-adv-x="1075" 
d="M168 1325q0 229 229 229h578v-147h-526q-59 0 -85 -26.5t-26 -96.5v-457h567v-147h-567v-680h-170v1325z" />
    <glyph glyph-name="G.ss01" horiz-adv-x="1597" 
d="M856 -25q-165 0 -308.5 61.5t-245 167.5t-160 254.5t-58.5 317.5q0 170 57 317.5t161 255t258 169t339 61.5q199 -3 344 -80q114 -69 174 -141l-106 -107q-93 93 -191.5 138t-238.5 45q-118 0 -219.5 -35t-175 -96.5t-126 -144.5t-78.5 -180t-26 -202q0 -130 42.5 -247.5
t121 -208.5t199.5 -145t268 -54q126 0 248 48.5t147 96.5v420h-346v148h510v-637q-108 -103 -267.5 -162.5t-322.5 -59.5z" />
    <glyph glyph-name="I.ss01" horiz-adv-x="755" 
d="M98 0v152h193v1249h-193v153h559v-153h-196v-1249h196v-152h-559z" />
    <glyph glyph-name="Iacute.ss01" horiz-adv-x="755" 
d="M98 0v152h193v1249h-193v153h559v-153h-196v-1249h196v-152h-559zM260 1688l238 278h209l-279 -278h-168z" />
    <glyph glyph-name="uni1ECA.ss01" horiz-adv-x="755" 
d="M98 0v152h193v1249h-193v153h559v-153h-196v-1249h196v-152h-559zM377 -338q-40 0 -69 29t-29 71q0 40 29 69.5t69 29.5q42 0 71 -29.5t29 -69.5q0 -43 -28.5 -71.5t-71.5 -28.5z" />
    <glyph glyph-name="Igrave.ss01" horiz-adv-x="755" 
d="M98 0v152h193v1249h-193v153h559v-153h-196v-1249h196v-152h-559zM326 1688l-279 278h209l238 -278h-168z" />
    <glyph glyph-name="uni1EC8.ss01" horiz-adv-x="755" 
d="M98 0v152h193v1249h-193v153h559v-153h-196v-1249h196v-152h-559zM295 1706q0 33 14 53.5t56 46.5q67 37 67 86q0 21 -19 36.5t-46 15.5q-33 0 -61 -15t-42 -39l-80 80q59 103 185 103q93 0 153 -45.5t60 -122.5q0 -113 -140 -181q-16 -8 -23 -17t-8 -15.5t-1 -22.5v-12
h-115v49z" />
    <glyph glyph-name="Itilde.ss01" horiz-adv-x="755" 
d="M98 0v152h193v1249h-193v153h559v-153h-196v-1249h196v-152h-559zM57 1669q0 118 57.5 193t139.5 75q73 -3 156 -65q67 -53 110 -53q58 0 58 129h139q0 -127 -51.5 -203t-143.5 -76q-69 0 -145 55q-74 53 -113 56q-35 0 -53 -30.5t-18 -80.5h-136z" />
    <glyph glyph-name="K.ss01" horiz-adv-x="1314" 
d="M168 0v1554h170v-692h217l553 692h188l-565 -708v-17q239 -81 347.5 -280.5t111.5 -519.5v-29h-166v57q-7 314 -147 486t-367 172h-172v-715h-170z" />
    <glyph glyph-name="R.ss01" horiz-adv-x="1302" 
d="M168 0v1554h512q80 0 151.5 -15t134.5 -48t109 -82t72.5 -121t26.5 -160q0 -151 -60 -244.5t-201 -164.5v-8q258 -156 258 -711h-170q3 113 -20 260q-12 80 -37.5 147.5t-67 124.5t-105.5 89t-144 32h-289v-653h-170zM700 801q124 0 214 86t90 217q0 145 -87 224t-217 79
h-362v-606h362z" />
    <glyph glyph-name="L_A" horiz-adv-x="2271" 
d="M168 0v1554h170v-1407h623l487 1407h242l536 -1554h-182l-152 455h-649l-149 -455h-926zM1292 602h551l-270 803h-8z" />
    <glyph glyph-name="L_Aacute" horiz-adv-x="2271" 
d="M168 0v1554h170v-1407h623l487 1407h242l536 -1554h-182l-152 455h-649l-149 -455h-926zM1292 602h551l-270 803h-8zM1452 1688l238 278h208l-278 -278h-168z" />
    <glyph glyph-name="L_Abreve" horiz-adv-x="2271" 
d="M168 0v1554h170v-1407h623l487 1407h242l536 -1554h-182l-152 455h-649l-149 -455h-926zM1292 602h551l-270 803h-8zM1569 1638q-81 0 -124.5 9t-80.5 41q-34 29 -61 122l-27 111h127q15 -57 35 -104q18 -36 45 -50q20 -8 86 -8q62 0 86 8q27 14 45 50q20 47 35 104h127
l-27 -111q-27 -93 -61 -122q-37 -32 -80.5 -41t-124.5 -9z" />
    <glyph glyph-name="uni004C1EAE" horiz-adv-x="2271" 
d="M168 0v1554h170v-1407h623l487 1407h242l536 -1554h-182l-152 455h-649l-149 -455h-926zM1292 602h551l-270 803h-8zM1569 1638q-79 0 -122 9.5t-81 40.5q-37 32 -63 120q-25 92 -27 103h129q8 -55 25 -94q18 -36 45 -50q20 -8 94 -8q70 0 94 8q27 14 45 50q17 39 25 94
h129q-2 -11 -27 -103q-26 -88 -63 -120q-38 -31 -81 -40.5t-122 -9.5zM1485 1935l213 254h209l-254 -254h-168z" />
    <glyph glyph-name="uni004C1EB6" horiz-adv-x="2271" 
d="M168 0v1554h170v-1407h623l487 1407h242l536 -1554h-182l-152 455h-649l-149 -455h-926zM1292 602h551l-270 803h-8zM1569 1638q-81 0 -124.5 9t-80.5 41q-34 29 -61 122l-27 111h127q15 -57 35 -104q18 -36 45 -50q20 -8 86 -8q62 0 86 8q27 14 45 50q20 47 35 104h127
l-27 -111q-27 -93 -61 -122q-37 -32 -80.5 -41t-124.5 -9zM1569 -338q-40 0 -69.5 29t-29.5 71q0 40 29.5 69.5t69.5 29.5q42 0 71 -29.5t29 -69.5q0 -43 -28.5 -71.5t-71.5 -28.5z" />
    <glyph glyph-name="uni004C1EB0" horiz-adv-x="2271" 
d="M168 0v1554h170v-1407h623l487 1407h242l536 -1554h-182l-152 455h-649l-149 -455h-926zM1292 602h551l-270 803h-8zM1569 1638q-78 0 -121 9.5t-82 40.5q-36 29 -63 120l-27 103h129q8 -55 25 -94q18 -36 45 -50q20 -8 94 -8q70 0 94 8q27 14 45 50q17 39 25 94h129
l-27 -103q-27 -91 -63 -120q-39 -31 -82 -40.5t-121 -9.5zM1493 1905l-254 254h209l213 -254h-168z" />
    <glyph glyph-name="uni004C1EB2" horiz-adv-x="2271" 
d="M168 0v1554h170v-1407h623l487 1407h242l536 -1554h-182l-152 455h-649l-149 -455h-926zM1292 602h551l-270 803h-8zM1569 1634q-79 0 -121.5 9t-81.5 40q-36 29 -63 121l-27 103h129q8 -57 25 -95q17 -35 45 -49q20 -8 94 -8q70 0 94 8q28 14 45 49q17 38 25 95h129
l-27 -103q-27 -92 -63 -121q-39 -31 -81.5 -40t-121.5 -9zM1501 1946q0 33 14 53.5t56 46.5q67 37 67 86q0 21 -18.5 36t-46.5 15q-56 0 -103 -53l-75 76q64 94 186 100q90 0 148.5 -46.5t58.5 -115.5q0 -60 -31.5 -101t-99.5 -79q-23 -12 -28 -22.5t-5 -32.5v-4h-123v41z
" />
    <glyph glyph-name="uni004C1EB4" horiz-adv-x="2271" 
d="M168 0v1554h170v-1407h623l487 1407h242l536 -1554h-182l-152 455h-649l-149 -455h-926zM1292 602h551l-270 803h-8zM1407 1985q0 122 56.5 196t133.5 74q66 0 150 -66q76 -61 117 -61q34 0 54.5 42.5t20.5 102.5h127q0 -128 -57.5 -208t-144.5 -80q-68 0 -138 55
q-77 59 -116 59q-36 0 -56 -32.5t-20 -81.5h-127zM1569 1634q-79 0 -121.5 9t-81.5 40q-36 29 -63 121l-27 103h129q8 -57 25 -95q17 -35 45 -49q20 -8 94 -8q70 0 94 8q28 14 45 49q17 38 25 95h129l-27 -103q-27 -92 -63 -121q-39 -31 -81.5 -40t-121.5 -9z" />
    <glyph glyph-name="L_Acircumflex" horiz-adv-x="2271" 
d="M168 0v1554h170v-1407h623l487 1407h242l536 -1554h-182l-152 455h-649l-149 -455h-926zM1292 602h551l-270 803h-8zM1241 1649l275 270h106l276 -270h-157l-164 131h-16l-162 -131h-158z" />
    <glyph glyph-name="uni004C1EA4" horiz-adv-x="2271" 
d="M168 0v1554h170v-1407h623l487 1407h242l536 -1554h-182l-152 455h-649l-149 -455h-926zM1292 602h551l-270 803h-8zM1720 1845l222 254h210l-254 -254h-178zM1245 1645l266 241h113l266 -241h-168l-145 114h-16l-148 -114h-168z" />
    <glyph glyph-name="uni004C1EAC" horiz-adv-x="2271" 
d="M168 0v1554h170v-1407h623l487 1407h242l536 -1554h-182l-152 455h-649l-149 -455h-926zM1292 602h551l-270 803h-8zM1241 1649l275 270h106l276 -270h-157l-164 131h-16l-162 -131h-158zM1569 -338q-40 0 -69.5 29t-29.5 71q0 40 29.5 69.5t69.5 29.5q42 0 71 -29.5
t29 -69.5q0 -43 -28.5 -71.5t-71.5 -28.5z" />
    <glyph glyph-name="uni004C1EA6" horiz-adv-x="2271" 
d="M168 0v1554h170v-1407h623l487 1407h242l536 -1554h-182l-152 455h-649l-149 -455h-926zM1292 602h551l-270 803h-8zM1817 1829l-254 254h211l221 -254h-178zM1245 1645l266 241h113l266 -241h-168l-145 114h-16l-148 -114h-168z" />
    <glyph glyph-name="uni004C1EA8" horiz-adv-x="2271" 
d="M168 0v1554h170v-1407h623l487 1407h242l536 -1554h-182l-152 455h-649l-149 -455h-926zM1292 602h551l-270 803h-8zM1765 1823q0 34 14 54t56 46q68 40 68 86q0 22 -19 36.5t-47 14.5q-60 0 -102 -53l-76 76q64 94 186 100q89 0 148 -46t59 -116q0 -59 -31.5 -100
t-99.5 -80q-23 -12 -28 -22.5t-5 -32.5v-4h-123v41zM1245 1645l266 241h113l266 -241h-168l-145 114h-16l-148 -114h-168z" />
    <glyph glyph-name="uni004C1EAA" horiz-adv-x="2271" 
d="M168 0v1554h170v-1407h623l487 1407h242l536 -1554h-182l-152 455h-649l-149 -455h-926zM1292 602h551l-270 803h-8zM1286 1958q0 117 56 188.5t133 71.5q68 0 149 -66q79 -61 117 -61q34 0 55 43t21 102h125q0 -123 -57 -200.5t-144 -77.5q-67 0 -137 55q-75 60 -117 60
q-35 0 -55.5 -33t-20.5 -82h-125zM1245 1645l266 241h113l266 -241h-168l-145 114h-16l-148 -114h-168z" />
    <glyph glyph-name="uni004C1EA0" horiz-adv-x="2271" 
d="M168 0v1554h170v-1407h623l487 1407h242l536 -1554h-182l-152 455h-649l-149 -455h-926zM1292 602h551l-270 803h-8zM1569 -338q-40 0 -69.5 29t-29.5 71q0 40 29.5 69.5t69.5 29.5q42 0 71 -29.5t29 -69.5q0 -43 -28.5 -71.5t-71.5 -28.5z" />
    <glyph glyph-name="L_Agrave" horiz-adv-x="2271" 
d="M168 0v1554h170v-1407h623l487 1407h242l536 -1554h-182l-152 455h-649l-149 -455h-926zM1292 602h551l-270 803h-8zM1518 1688l-279 278h209l238 -278h-168z" />
    <glyph glyph-name="uni004C1EA2" horiz-adv-x="2271" 
d="M168 0v1554h170v-1407h623l487 1407h242l536 -1554h-182l-152 455h-649l-149 -455h-926zM1292 602h551l-270 803h-8zM1487 1706q0 33 13.5 53.5t55.5 46.5q68 37 68 86q0 21 -19 36.5t-46 15.5q-33 0 -61 -15t-42 -39l-80 80q59 103 185 103q93 0 153 -45.5t60 -122.5
q0 -113 -140 -181q-16 -8 -23 -17t-8 -15.5t-1 -22.5v-12h-115v49z" />
    <glyph glyph-name="L_Atilde" horiz-adv-x="2271" 
d="M168 0v1554h170v-1407h623l487 1407h242l536 -1554h-182l-152 455h-649l-149 -455h-926zM1292 602h551l-270 803h-8zM1249 1669q0 118 57.5 193t139.5 75q73 -3 156 -65q67 -53 110 -53q57 0 57 129h140q0 -127 -51.5 -203t-143.5 -76q-69 0 -145 55q-74 53 -113 56
q-35 0 -53.5 -30.5t-18.5 -80.5h-135z" />
    <glyph glyph-name="T_T" horiz-adv-x="2134" 
d="M502 0v1407h-477v147h2084v-147h-477v-1407h-170v1407h-790v-1407h-170z" />
    <glyph glyph-name="T_left.alt" horiz-adv-x="1155" 
d="M510 0v1409h-418v145h1038v-145h-452v-1409h-168z" />
    <glyph glyph-name="L_A.ss01" horiz-adv-x="2271" 
d="M168 0v1554h170v-1407h623l450 1301q24 68 44.5 87t74.5 19h78q54 0 74 -19t44 -87l500 -1448h-182l-152 455h-649l-149 -455h-926zM1292 602h551l-270 803h-8z" />
    <glyph glyph-name="L_Aacute.ss01" horiz-adv-x="2271" 
d="M168 0v1554h170v-1407h623l450 1301q24 68 44.5 87t74.5 19h78q54 0 74 -19t44 -87l500 -1448h-182l-152 455h-649l-149 -455h-926zM1292 602h551l-270 803h-8zM1452 1688l238 278h208l-278 -278h-168z" />
    <glyph glyph-name="L_Abreve.ss01" horiz-adv-x="2271" 
d="M168 0v1554h170v-1407h623l450 1301q24 68 44.5 87t74.5 19h78q54 0 74 -19t44 -87l500 -1448h-182l-152 455h-649l-149 -455h-926zM1292 602h551l-270 803h-8zM1569 1638q-81 0 -124.5 9t-80.5 41q-34 29 -61 122l-27 111h127q15 -57 35 -104q18 -36 45 -50q20 -8 86 -8
q62 0 86 8q27 14 45 50q20 47 35 104h127l-27 -111q-27 -93 -61 -122q-37 -32 -80.5 -41t-124.5 -9z" />
    <glyph glyph-name="uni004C1EAE.ss01" horiz-adv-x="2271" 
d="M168 0v1554h170v-1407h623l450 1301q24 68 44.5 87t74.5 19h78q54 0 74 -19t44 -87l500 -1448h-182l-152 455h-649l-149 -455h-926zM1292 602h551l-270 803h-8zM1569 1638q-79 0 -122 9.5t-81 40.5q-37 32 -63 120q-25 92 -27 103h129q8 -55 25 -94q18 -36 45 -50
q20 -8 94 -8q70 0 94 8q27 14 45 50q17 39 25 94h129q-2 -11 -27 -103q-26 -88 -63 -120q-38 -31 -81 -40.5t-122 -9.5zM1485 1935l213 254h209l-254 -254h-168z" />
    <glyph glyph-name="uni004C1EB6.ss01" horiz-adv-x="2271" 
d="M168 0v1554h170v-1407h623l450 1301q24 68 44.5 87t74.5 19h78q54 0 74 -19t44 -87l500 -1448h-182l-152 455h-649l-149 -455h-926zM1292 602h551l-270 803h-8zM1569 1638q-81 0 -124.5 9t-80.5 41q-34 29 -61 122l-27 111h127q15 -57 35 -104q18 -36 45 -50q20 -8 86 -8
q62 0 86 8q27 14 45 50q20 47 35 104h127l-27 -111q-27 -93 -61 -122q-37 -32 -80.5 -41t-124.5 -9zM1569 -338q-40 0 -69.5 29t-29.5 71q0 40 29.5 69.5t69.5 29.5q42 0 71 -29.5t29 -69.5q0 -43 -28.5 -71.5t-71.5 -28.5z" />
    <glyph glyph-name="uni004C1EB0.ss01" horiz-adv-x="2271" 
d="M168 0v1554h170v-1407h623l450 1301q24 68 44.5 87t74.5 19h78q54 0 74 -19t44 -87l500 -1448h-182l-152 455h-649l-149 -455h-926zM1292 602h551l-270 803h-8zM1569 1638q-78 0 -121 9.5t-82 40.5q-36 29 -63 120l-27 103h129q8 -55 25 -94q18 -36 45 -50q20 -8 94 -8
q70 0 94 8q27 14 45 50q17 39 25 94h129l-27 -103q-27 -91 -63 -120q-39 -31 -82 -40.5t-121 -9.5zM1493 1905l-254 254h209l213 -254h-168z" />
    <glyph glyph-name="uni004C1EB2.ss01" horiz-adv-x="2271" 
d="M168 0v1554h170v-1407h623l450 1301q24 68 44.5 87t74.5 19h78q54 0 74 -19t44 -87l500 -1448h-182l-152 455h-649l-149 -455h-926zM1292 602h551l-270 803h-8zM1569 1634q-79 0 -121.5 9t-81.5 40q-36 29 -63 121l-27 103h129q8 -57 25 -95q17 -35 45 -49q20 -8 94 -8
q70 0 94 8q28 14 45 49q17 38 25 95h129l-27 -103q-27 -92 -63 -121q-39 -31 -81.5 -40t-121.5 -9zM1501 1946q0 33 14 53.5t56 46.5q67 37 67 86q0 21 -18.5 36t-46.5 15q-56 0 -103 -53l-75 76q64 94 186 100q90 0 148.5 -46.5t58.5 -115.5q0 -60 -31.5 -101t-99.5 -79
q-23 -12 -28 -22.5t-5 -32.5v-4h-123v41z" />
    <glyph glyph-name="uni004C1EB4.ss01" horiz-adv-x="2271" 
d="M168 0v1554h170v-1407h623l450 1301q24 68 44.5 87t74.5 19h78q54 0 74 -19t44 -87l500 -1448h-182l-152 455h-649l-149 -455h-926zM1292 602h551l-270 803h-8zM1407 1985q0 122 56.5 196t133.5 74q66 0 150 -66q76 -61 117 -61q34 0 54.5 42.5t20.5 102.5h127
q0 -128 -57.5 -208t-144.5 -80q-68 0 -138 55q-77 59 -116 59q-36 0 -56 -32.5t-20 -81.5h-127zM1569 1634q-79 0 -121.5 9t-81.5 40q-36 29 -63 121l-27 103h129q8 -57 25 -95q17 -35 45 -49q20 -8 94 -8q70 0 94 8q28 14 45 49q17 38 25 95h129l-27 -103q-27 -92 -63 -121
q-39 -31 -81.5 -40t-121.5 -9z" />
    <glyph glyph-name="L_Acircumflex.ss01" horiz-adv-x="2271" 
d="M168 0v1554h170v-1407h623l450 1301q24 68 44.5 87t74.5 19h78q54 0 74 -19t44 -87l500 -1448h-182l-152 455h-649l-149 -455h-926zM1292 602h551l-270 803h-8zM1241 1649l275 270h106l276 -270h-157l-164 131h-16l-162 -131h-158z" />
    <glyph glyph-name="uni004C1EA4.ss01" horiz-adv-x="2271" 
d="M168 0v1554h170v-1407h623l450 1301q24 68 44.5 87t74.5 19h78q54 0 74 -19t44 -87l500 -1448h-182l-152 455h-649l-149 -455h-926zM1292 602h551l-270 803h-8zM1720 1845l222 254h210l-254 -254h-178zM1245 1645l266 241h113l266 -241h-168l-145 114h-16l-148 -114h-168
z" />
    <glyph glyph-name="uni004C1EAC.ss01" horiz-adv-x="2273" 
d="M168 0v1554h170v-1407h625l450 1303q24 68 44.5 87t74.5 19h78q54 0 74.5 -19t44.5 -87l499 -1448h-182l-152 455h-649l-149 -455h-133v-2h-795zM1294 604h551l-270 803h-8zM1243 1651l275 270h106l277 -270h-158l-164 131h-16l-162 -131h-158zM1571 -336q-40 0 -69 29
t-29 71q0 40 29 69.5t69 29.5q42 0 71 -29.5t29 -69.5q0 -43 -28.5 -71.5t-71.5 -28.5z" />
    <glyph glyph-name="uni004C1EA6.ss01" horiz-adv-x="2271" 
d="M168 0v1554h170v-1407h623l450 1301q24 68 44.5 87t74.5 19h78q54 0 74 -19t44 -87l500 -1448h-182l-152 455h-649l-149 -455h-926zM1292 602h551l-270 803h-8zM1817 1829l-254 254h211l221 -254h-178zM1245 1645l266 241h113l266 -241h-168l-145 114h-16l-148 -114h-168
z" />
    <glyph glyph-name="uni004C1EA8.ss01" horiz-adv-x="2271" 
d="M168 0v1554h170v-1407h623l450 1301q24 68 44.5 87t74.5 19h78q54 0 74 -19t44 -87l500 -1448h-182l-152 455h-649l-149 -455h-926zM1292 602h551l-270 803h-8zM1765 1823q0 34 14 54t56 46q68 40 68 86q0 22 -19 36.5t-47 14.5q-60 0 -102 -53l-76 76q64 94 186 100
q89 0 148 -46t59 -116q0 -59 -31.5 -100t-99.5 -80q-23 -12 -28 -22.5t-5 -32.5v-4h-123v41zM1245 1645l266 241h113l266 -241h-168l-145 114h-16l-148 -114h-168z" />
    <glyph glyph-name="uni004C1EAA.ss01" horiz-adv-x="2271" 
d="M168 0v1554h170v-1407h623l450 1301q24 68 44.5 87t74.5 19h78q54 0 74 -19t44 -87l500 -1448h-182l-152 455h-649l-149 -455h-926zM1292 602h551l-270 803h-8zM1286 1958q0 117 56 188.5t133 71.5q68 0 149 -66q79 -61 117 -61q34 0 55 43t21 102h125q0 -123 -57 -200.5
t-144 -77.5q-67 0 -137 55q-75 60 -117 60q-35 0 -55.5 -33t-20.5 -82h-125zM1245 1645l266 241h113l266 -241h-168l-145 114h-16l-148 -114h-168z" />
    <glyph glyph-name="uni004C1EA0.ss01" horiz-adv-x="2271" 
d="M168 0v1554h170v-1407h623l450 1301q24 68 44.5 87t74.5 19h78q54 0 74 -19t44 -87l500 -1448h-182l-152 455h-649l-149 -455h-926zM1292 602h551l-270 803h-8zM1569 -338q-40 0 -69.5 29t-29.5 71q0 40 29.5 69.5t69.5 29.5q42 0 71 -29.5t29 -69.5q0 -43 -28.5 -71.5
t-71.5 -28.5z" />
    <glyph glyph-name="L_Agrave.ss01" horiz-adv-x="2271" 
d="M168 0v1554h170v-1407h623l450 1303q24 68 44.5 87t74.5 19h78q54 0 74 -19t44 -87l500 -1448h-182l-152 455h-649l-149 -455h-131v-2h-795zM1292 604h551l-270 803h-8zM1518 1690l-279 278h209l238 -278h-168z" />
    <glyph glyph-name="uni004C1EA2.ss01" horiz-adv-x="2271" 
d="M168 0v1554h170v-1407h623l450 1301q24 68 44.5 87t74.5 19h78q54 0 74 -19t44 -87l500 -1448h-182l-152 455h-649l-149 -455h-926zM1292 602h551l-270 803h-8zM1487 1706q0 33 13.5 53.5t55.5 46.5q68 37 68 86q0 21 -19 36.5t-46 15.5q-33 0 -61 -15t-42 -39l-80 80
q59 103 185 103q93 0 153 -45.5t60 -122.5q0 -113 -140 -181q-16 -8 -23 -17t-8 -15.5t-1 -22.5v-12h-115v49z" />
    <glyph glyph-name="L_Atilde.ss01" horiz-adv-x="2271" 
d="M168 0v1554h170v-1407h623l450 1301q24 68 44.5 87t74.5 19h78q54 0 74 -19t44 -87l500 -1448h-182l-152 455h-649l-149 -455h-926zM1292 602h551l-270 803h-8zM1249 1669q0 118 57.5 193t139.5 75q73 -3 156 -65q67 -53 110 -53q57 0 57 129h140q0 -127 -51.5 -203
t-143.5 -76q-69 0 -145 55q-74 53 -113 56q-35 0 -53.5 -30.5t-18.5 -80.5h-135z" />
    <glyph glyph-name="igrave.alt" horiz-adv-x="434" 
d="M158 0v1104h161v-1104h-161zM240 1262l-279 278h209l238 -278h-168z" />
    <glyph glyph-name="itilde.alt" horiz-adv-x="466" 
d="M158 0v1104h161v-1104h-161zM-37 1243q0 118 57.5 193t139.5 75q72 -3 155 -65q67 -53 111 -53q57 0 57 129h140q0 -127 -51.5 -203t-143.5 -76q-69 0 -145 55q-74 53 -113 56q-35 0 -53.5 -30.5t-18.5 -80.5h-135z" />
    <glyph glyph-name="y.alt" horiz-adv-x="1144" 
d="M373 -410l143 402v8h-65l-392 1104h191l315 -950h8l340 950h174l-536 -1514h-178z" />
    <glyph glyph-name="yacute.alt" horiz-adv-x="1144" 
d="M373 -410l143 402v8h-65l-392 1104h191l315 -950h8l340 950h174l-536 -1514h-178zM465 1251l237 279h209l-278 -279h-168z" />
    <glyph glyph-name="uni1EF5.alt" horiz-adv-x="1144" 
d="M373 -410l143 402v8h-65l-392 1104h191l315 -950h8l340 950h174l-536 -1514h-178zM807 -338q-40 0 -69 29t-29 71q0 40 29 69.5t69 29.5q42 0 71 -29.5t29 -69.5q0 -43 -28.5 -71.5t-71.5 -28.5z" />
    <glyph glyph-name="ygrave.alt" horiz-adv-x="1144" 
d="M373 -410l143 402v8h-65l-392 1104h191l315 -950h8l340 950h174l-536 -1514h-178zM530 1251l-278 279h209l237 -279h-168z" />
    <glyph glyph-name="uni1EF7.alt" horiz-adv-x="1144" 
d="M373 -410l143 402v8h-65l-392 1104h191l315 -950h8l340 950h174l-536 -1514h-178zM500 1270q0 33 13.5 53.5t55.5 46.5q68 37 68 86q0 21 -19.5 36t-46.5 15q-33 0 -60.5 -14.5t-41.5 -38.5l-80 80q59 102 184 102q93 0 153 -45.5t60 -122.5q0 -112 -139 -180
q-23 -11 -28 -22t-5 -33v-12h-114v49z" />
    <glyph glyph-name="uni1EF9.alt" horiz-adv-x="1144" 
d="M373 -410l143 402v8h-65l-392 1104h191l315 -950h8l340 950h174l-536 -1514h-178zM262 1233q0 118 57.5 193t139.5 75q72 -3 155 -65q69 -54 111 -54q57 0 57 129h140q0 -127 -51.5 -202.5t-143.5 -75.5q-69 0 -145 55q-73 52 -113 55q-35 0 -53.5 -30.5t-18.5 -79.5
h-135z" />
    <glyph glyph-name="a.ss01" horiz-adv-x="1355" 
d="M616 -25q-101 0 -195 37t-171.5 106.5t-124.5 183.5t-47 255q0 135 45 245t122 182t177.5 110.5t214.5 38.5q118 0 225 -46t168 -112h8v129h160v-1104h-160v186h-8q-73 -110 -175 -160.5t-239 -50.5zM647 121q171 0 283 124t112 308t-112 308t-283 124
q-172 0 -284.5 -124t-112.5 -308q0 -183 112.5 -307.5t284.5 -124.5z" />
    <glyph glyph-name="aacute.ss01" horiz-adv-x="1355" 
d="M616 -25q-101 0 -195 37t-171.5 106.5t-124.5 183.5t-47 255q0 135 45 245t122 182t177.5 110.5t214.5 38.5q118 0 225 -46t168 -112h8v129h160v-1104h-160v186h-8q-73 -110 -175 -160.5t-239 -50.5zM647 121q171 0 283 124t112 308t-112 308t-283 124
q-172 0 -284.5 -124t-112.5 -308q0 -183 112.5 -307.5t284.5 -124.5zM553 1278l238 278h208l-278 -278h-168z" />
    <glyph glyph-name="abreve.ss01" horiz-adv-x="1355" 
d="M616 -25q-101 0 -195 37t-171.5 106.5t-124.5 183.5t-47 255q0 135 45 245t122 182t177.5 110.5t214.5 38.5q118 0 225 -46t168 -112h8v129h160v-1104h-160v186h-8q-73 -110 -175 -160.5t-239 -50.5zM647 121q171 0 283 124t112 308t-112 308t-283 124
q-172 0 -284.5 -124t-112.5 -308q0 -183 112.5 -307.5t284.5 -124.5zM670 1229q-82 0 -125 9t-80 40q-35 30 -62 123l-26 110h127q15 -57 35 -104q17 -35 45 -49q20 -8 86 -8q62 0 86 8q28 14 45 49q20 47 35 104h127l-27 -110q-27 -93 -62 -123q-37 -31 -79.5 -40
t-124.5 -9z" />
    <glyph glyph-name="uni1EAF.ss01" horiz-adv-x="1355" 
d="M616 -25q-101 0 -195 37t-171.5 106.5t-124.5 183.5t-47 255q0 135 45 245t122 182t177.5 110.5t214.5 38.5q118 0 225 -46t168 -112h8v129h160v-1104h-160v186h-8q-73 -110 -175 -160.5t-239 -50.5zM647 121q171 0 283 124t112 308t-112 308t-283 124
q-172 0 -284.5 -124t-112.5 -308q0 -183 112.5 -307.5t284.5 -124.5zM670 1229q-80 0 -122.5 9.5t-80.5 39.5q-38 33 -64 121q-22 82 -26 102h129q9 -58 24 -94q17 -35 45 -49q20 -8 95 -8q70 0 94 8q28 14 45 49q17 39 25 94h129q-1 -7 -27 -102q-26 -88 -64 -121
q-38 -31 -80.5 -40t-121.5 -9zM586 1526l213 254h209l-254 -254h-168z" />
    <glyph glyph-name="uni1EB7.ss01" horiz-adv-x="1355" 
d="M616 -25q-101 0 -195 37t-171.5 106.5t-124.5 183.5t-47 255q0 135 45 245t122 182t177.5 110.5t214.5 38.5q118 0 225 -46t168 -112h8v129h160v-1104h-160v186h-8q-73 -110 -175 -160.5t-239 -50.5zM647 121q171 0 283 124t112 308t-112 308t-283 124
q-172 0 -284.5 -124t-112.5 -308q0 -183 112.5 -307.5t284.5 -124.5zM670 1229q-82 0 -125 9t-80 40q-35 30 -62 123l-26 110h127q15 -57 35 -104q17 -35 45 -49q20 -8 86 -8q62 0 86 8q28 14 45 49q20 47 35 104h127l-27 -110q-27 -93 -62 -123q-37 -31 -79.5 -40
t-124.5 -9zM662 -338q-40 0 -69.5 29t-29.5 71q0 40 29.5 69.5t69.5 29.5q42 0 71 -29.5t29 -69.5q0 -43 -28.5 -71.5t-71.5 -28.5z" />
    <glyph glyph-name="uni1EB1.ss01" horiz-adv-x="1355" 
d="M616 -25q-101 0 -195 37t-171.5 106.5t-124.5 183.5t-47 255q0 135 45 245t122 182t177.5 110.5t214.5 38.5q118 0 225 -46t168 -112h8v129h160v-1104h-160v186h-8q-73 -110 -175 -160.5t-239 -50.5zM647 121q171 0 283 124t112 308t-112 308t-283 124
q-172 0 -284.5 -124t-112.5 -308q0 -183 112.5 -307.5t284.5 -124.5zM670 1229q-79 0 -121.5 9t-81.5 40q-37 30 -64 121l-26 102h129q9 -58 24 -94q17 -35 45 -49q20 -8 95 -8q70 0 94 8q28 14 45 49q17 39 25 94h129l-27 -102q-27 -91 -64 -121q-39 -31 -81 -40t-121 -9z
M594 1495l-254 254h209l213 -254h-168z" />
    <glyph glyph-name="uni1EB3.ss01" horiz-adv-x="1355" 
d="M616 -25q-101 0 -195 37t-171.5 106.5t-124.5 183.5t-47 255q0 135 45 245t122 182t177.5 110.5t214.5 38.5q118 0 225 -46t168 -112h8v129h160v-1104h-160v186h-8q-73 -110 -175 -160.5t-239 -50.5zM647 121q171 0 283 124t112 308t-112 308t-283 124
q-172 0 -284.5 -124t-112.5 -308q0 -183 112.5 -307.5t284.5 -124.5zM670 1225q-79 0 -121.5 9t-81.5 40q-37 30 -64 121l-26 102h129q9 -58 24 -94q17 -35 45 -49q20 -8 95 -8q70 0 94 8q28 14 45 49q17 39 25 94h129l-27 -102q-27 -91 -64 -121q-39 -31 -81 -40t-121 -9z
M602 1536q0 33 14 53.5t56 46.5q67 37 67 86q0 21 -18.5 36.5t-46.5 15.5q-55 0 -103 -54l-75 76q64 94 186 100q90 0 148.5 -46t58.5 -115q0 -60 -31.5 -101.5t-99.5 -79.5q-23 -12 -28 -22.5t-5 -32.5v-4h-123v41z" />
    <glyph glyph-name="uni1EB5.ss01" horiz-adv-x="1355" 
d="M616 -25q-101 0 -195 37t-171.5 106.5t-124.5 183.5t-47 255q0 135 45 245t122 182t177.5 110.5t214.5 38.5q118 0 225 -46t168 -112h8v129h160v-1104h-160v186h-8q-73 -110 -175 -160.5t-239 -50.5zM647 121q171 0 283 124t112 308t-112 308t-283 124
q-172 0 -284.5 -124t-112.5 -308q0 -183 112.5 -307.5t284.5 -124.5zM508 1575q0 122 56.5 196t133.5 74q67 0 150 -65q77 -62 117 -62q34 0 54.5 43t20.5 103h127q0 -128 -57.5 -208.5t-144.5 -80.5q-68 0 -138 55q-78 60 -116 60q-35 0 -55.5 -33t-20.5 -82h-127z
M670 1225q-79 0 -121.5 9t-81.5 40q-37 30 -64 121l-26 102h129q9 -58 24 -94q17 -35 45 -49q20 -8 95 -8q70 0 94 8q28 14 45 49q17 39 25 94h129l-27 -102q-27 -91 -64 -121q-39 -31 -81 -40t-121 -9z" />
    <glyph glyph-name="acircumflex.ss01" horiz-adv-x="1355" 
d="M616 -25q-101 0 -195 37t-171.5 106.5t-124.5 183.5t-47 255q0 135 45 245t122 182t177.5 110.5t214.5 38.5q118 0 225 -46t168 -112h8v129h160v-1104h-160v186h-8q-73 -110 -175 -160.5t-239 -50.5zM647 121q171 0 283 124t112 308t-112 308t-283 124
q-172 0 -284.5 -124t-112.5 -308q0 -183 112.5 -307.5t284.5 -124.5zM342 1239l274 270h107l276 -270h-157l-164 131h-16l-162 -131h-158z" />
    <glyph glyph-name="uni1EA5.ss01" horiz-adv-x="1355" 
d="M616 -25q-101 0 -195 37t-171.5 106.5t-124.5 183.5t-47 255q0 135 45 245t122 182t177.5 110.5t214.5 38.5q118 0 225 -46t168 -112h8v129h160v-1104h-160v186h-8q-73 -110 -175 -160.5t-239 -50.5zM647 121q171 0 283 124t112 308t-112 308t-283 124
q-172 0 -284.5 -124t-112.5 -308q0 -183 112.5 -307.5t284.5 -124.5zM821 1436l221 254h211l-254 -254h-178zM346 1235l266 242h113l266 -242h-168l-145 115h-16l-148 -115h-168z" />
    <glyph glyph-name="uni1EAD.ss01" horiz-adv-x="1355" 
d="M616 -25q-101 0 -195 37t-171.5 106.5t-124.5 183.5t-47 255q0 135 45 245t122 182t177.5 110.5t214.5 38.5q118 0 225 -46t168 -112h8v129h160v-1104h-160v186h-8q-73 -110 -175 -160.5t-239 -50.5zM647 121q171 0 283 124t112 308t-112 308t-283 124
q-172 0 -284.5 -124t-112.5 -308q0 -183 112.5 -307.5t284.5 -124.5zM342 1239l274 270h107l276 -270h-157l-164 131h-16l-162 -131h-158zM662 -338q-40 0 -69.5 29t-29.5 71q0 40 29.5 69.5t69.5 29.5q42 0 71 -29.5t29 -69.5q0 -43 -28.5 -71.5t-71.5 -28.5z" />
    <glyph glyph-name="uni1EA7.ss01" horiz-adv-x="1355" 
d="M616 -25q-101 0 -195 37t-171.5 106.5t-124.5 183.5t-47 255q0 135 45 245t122 182t177.5 110.5t214.5 38.5q118 0 225 -46t168 -112h8v129h160v-1104h-160v186h-8q-73 -110 -175 -160.5t-239 -50.5zM647 121q171 0 283 124t112 308t-112 308t-283 124
q-172 0 -284.5 -124t-112.5 -308q0 -183 112.5 -307.5t284.5 -124.5zM918 1419l-254 254h210l222 -254h-178zM346 1235l266 242h113l266 -242h-168l-145 115h-16l-148 -115h-168z" />
    <glyph glyph-name="uni1EA9.ss01" horiz-adv-x="1355" 
d="M616 -25q-101 0 -195 37t-171.5 106.5t-124.5 183.5t-47 255q0 135 45 245t122 182t177.5 110.5t214.5 38.5q118 0 225 -46t168 -112h8v129h160v-1104h-160v186h-8q-73 -110 -175 -160.5t-239 -50.5zM647 121q171 0 283 124t112 308t-112 308t-283 124
q-172 0 -284.5 -124t-112.5 -308q0 -183 112.5 -307.5t284.5 -124.5zM866 1413q0 34 14 54t56 46q68 40 68 86q0 22 -19 37t-47 15q-60 0 -102 -54l-76 76q65 95 186 101q89 0 148 -46t59 -116q0 -59 -31.5 -100t-99.5 -80q-23 -12 -28 -23t-5 -33v-4h-123v41zM346 1235
l266 242h113l266 -242h-168l-145 115h-16l-148 -115h-168z" />
    <glyph glyph-name="uni1EAB.ss01" horiz-adv-x="1355" 
d="M616 -25q-101 0 -195 37t-171.5 106.5t-124.5 183.5t-47 255q0 135 45 245t122 182t177.5 110.5t214.5 38.5q118 0 225 -46t168 -112h8v129h160v-1104h-160v186h-8q-73 -110 -175 -160.5t-239 -50.5zM647 121q171 0 283 124t112 308t-112 308t-283 124
q-172 0 -284.5 -124t-112.5 -308q0 -183 112.5 -307.5t284.5 -124.5zM387 1548q0 117 55.5 188.5t132.5 71.5q70 0 150 -65q80 -62 117 -62q34 0 55 43t21 103h124q0 -124 -56.5 -201.5t-143.5 -77.5q-66 0 -137 56q-73 59 -117 59q-35 0 -55.5 -33t-20.5 -82h-125z
M346 1235l266 242h113l266 -242h-168l-145 115h-16l-148 -115h-168z" />
    <glyph glyph-name="uni1EA1.ss01" horiz-adv-x="1355" 
d="M616 -25q-101 0 -195 37t-171.5 106.5t-124.5 183.5t-47 255q0 135 45 245t122 182t177.5 110.5t214.5 38.5q118 0 225 -46t168 -112h8v129h160v-1104h-160v186h-8q-73 -110 -175 -160.5t-239 -50.5zM647 121q171 0 283 124t112 308t-112 308t-283 124
q-172 0 -284.5 -124t-112.5 -308q0 -183 112.5 -307.5t284.5 -124.5zM662 -338q-40 0 -69.5 29t-29.5 71q0 40 29.5 69.5t69.5 29.5q42 0 71 -29.5t29 -69.5q0 -43 -28.5 -71.5t-71.5 -28.5z" />
    <glyph glyph-name="agrave.ss01" horiz-adv-x="1355" 
d="M616 -25q-101 0 -195 37t-171.5 106.5t-124.5 183.5t-47 255q0 135 45 245t122 182t177.5 110.5t214.5 38.5q118 0 225 -46t168 -112h8v129h160v-1104h-160v186h-8q-73 -110 -175 -160.5t-239 -50.5zM647 121q171 0 283 124t112 308t-112 308t-283 124
q-172 0 -284.5 -124t-112.5 -308q0 -183 112.5 -307.5t284.5 -124.5zM618 1278l-278 278h209l237 -278h-168z" />
    <glyph glyph-name="uni1EA3.ss01" horiz-adv-x="1355" 
d="M616 -25q-101 0 -195 37t-171.5 106.5t-124.5 183.5t-47 255q0 135 45 245t122 182t177.5 110.5t214.5 38.5q118 0 225 -46t168 -112h8v129h160v-1104h-160v186h-8q-73 -110 -175 -160.5t-239 -50.5zM647 121q171 0 283 124t112 308t-112 308t-283 124
q-172 0 -284.5 -124t-112.5 -308q0 -183 112.5 -307.5t284.5 -124.5zM588 1296q0 33 14 54.5t55 46.5q68 37 68 86q0 21 -19.5 36t-46.5 15q-33 0 -60.5 -14.5t-41.5 -38.5l-80 80q59 102 185 102q93 0 152.5 -45.5t59.5 -122.5q0 -112 -139 -180q-23 -11 -28 -22t-5 -33
v-13h-114v49z" />
    <glyph glyph-name="atilde.ss01" horiz-adv-x="1355" 
d="M616 -25q-101 0 -195 37t-171.5 106.5t-124.5 183.5t-47 255q0 135 45 245t122 182t177.5 110.5t214.5 38.5q118 0 225 -46t168 -112h8v129h160v-1104h-160v186h-8q-73 -110 -175 -160.5t-239 -50.5zM647 121q171 0 283 124t112 308t-112 308t-283 124
q-172 0 -284.5 -124t-112.5 -308q0 -183 112.5 -307.5t284.5 -124.5zM350 1260q0 118 57.5 193t139.5 75q70 -3 155 -66q67 -53 111 -53q57 0 57 129h140q0 -127 -51.5 -202.5t-143.5 -75.5q-69 0 -145 55q-73 52 -113 55q-35 0 -53.5 -30.5t-18.5 -79.5h-135z" />
    <glyph glyph-name="g.ss01" horiz-adv-x="1355" 
d="M674 -440l-441 6v158l437 -7q197 -4 282.5 71t85.5 226v136h-8q-55 -74 -166.5 -124.5t-214.5 -50.5q-260 0 -415.5 159.5t-155.5 422.5q0 135 45 245t122 182t177.5 110.5t214.5 38.5q121 0 227.5 -55t165.5 -140h8v166h160v-1124q0 -103 -26 -178.5t-85 -132.5
t-162.5 -84.5t-250.5 -24.5zM647 121q171 0 283 124t112 308t-112 308t-283 124q-172 0 -284.5 -124t-112.5 -308q0 -183 112.5 -307.5t284.5 -124.5z" />
    <glyph glyph-name="x.ss01" horiz-adv-x="1134" 
d="M918 -25l-353 441l-366 -441l-129 115l385 461l-373 465l135 114l350 -436l371 436l131 -114l-393 -457l377 -469z" />
    <glyph glyph-name="f_f_t" horiz-adv-x="1929" 
d="M188 0v973h-86v131h86v178q0 229 230 229h180v-147h-127q-62 0 -92.5 -28.5t-30.5 -108.5v-123h451v178q0 229 229 229h221v-147h-168q-62 0 -92.5 -28.5t-30.5 -108.5v-123h443v254h162v-254h319v-131h-319v-686q0 -81 29 -110.5t91 -29.5h199v-147h-252
q-229 0 -229 229v744h-443v-973h-159v973h-451v-973h-160z" />
    <glyph glyph-name="f_t" horiz-adv-x="1318" 
d="M188 0v973h-86v131h86v178q0 229 230 229h221v-147h-168q-62 0 -92.5 -28.5t-30.5 -108.5v-123h443v254h161v-254h320v-131h-320v-686q0 -81 29.5 -110.5t91.5 -29.5h199v-147h-252q-229 0 -229 229v744h-443v-973h-160z" />
    <glyph glyph-name="t_r" horiz-adv-x="1431" 
d="M397 0q-229 0 -229 229v744h-86v131h86v254h162v-254h649v-156h8q20 80 86.5 126t183.5 46h103v-157h-103q-86 0 -142.5 -22t-85.5 -67t-39.5 -98t-10.5 -131v-645h-162v973h-487v-686q0 -81 29.5 -110.5t91.5 -29.5h133v-147h-187z" />
    <glyph glyph-name="t_t" horiz-adv-x="1323" 
d="M397 0q-229 0 -229 229v744h-86v131h86v254h162v-254h465v254h161v-254h320v-131h-320v-686q0 -81 29.5 -110.5t91.5 -29.5h199v-147h-252q-229 0 -229 229v744h-465v-686q0 -81 29.5 -110.5t91.5 -29.5h133v-147h-187z" />
    <glyph glyph-name="zero.tf" horiz-adv-x="1236" 
d="M618 -25q-115 0 -207.5 44.5t-153.5 119t-102 178t-59 217t-18 240.5t18 240.5t59 217t102 178t153.5 119t207.5 44.5t207.5 -44t154 -119t102.5 -178.5t59 -217.5t18 -240t-18 -240t-59 -217.5t-102.5 -178.5t-154 -119t-207.5 -44zM618 125q88 0 155 39.5t107 101.5
t64.5 150.5t33.5 174t9 183.5q0 99 -9 185t-33.5 174.5t-64.5 150.5t-107 101.5t-155 39.5t-155 -39.5t-106.5 -101.5t-64.5 -150.5t-33.5 -174.5t-8.5 -185t8.5 -184t33.5 -173.5t64.5 -150.5t106.5 -101.5t155 -39.5z" />
    <glyph glyph-name="one.tf" horiz-adv-x="1236" 
d="M156 0v154h460v1175h-8l-411 -239l-88 135l557 329h120v-1400h312v-154h-942z" />
    <glyph glyph-name="two.tf" horiz-adv-x="1236" 
d="M147 0v158l457 485q165 176 236 278t71 197q0 124 -80 202.5t-210 78.5t-210.5 -79t-80.5 -187h-168q0 129 63 229.5t167.5 153.5t230.5 53q207 0 339 -128t132 -329q0 -103 -53 -204.5t-164 -225.5l-486 -510v-8h703v-164h-947z" />
    <glyph glyph-name="three.tf" horiz-adv-x="1236" 
d="M580 -25q-86 0 -164 18.5t-131.5 47.5t-86.5 53.5t-53 46.5l115 125q11 -12 31.5 -28.5t61 -41t102 -41t129.5 -16.5q128 0 222.5 84.5t94.5 227.5q0 123 -85 204.5t-230 81.5h-101v154h109q121 0 197.5 73t76.5 191q0 110 -80.5 182t-187.5 72q-105 0 -183 -49.5
t-126 -116.5l-113 113q62 99 173.5 161t244.5 62q194 0 324.5 -113.5t130.5 -306.5q0 -117 -61 -211t-136 -123v-8q102 -33 165.5 -137t63.5 -229q0 -212 -141.5 -344t-361.5 -132z" />
    <glyph glyph-name="four.tf" horiz-adv-x="1236" 
d="M797 0v336h-729v117l712 1101h187v-1069h157v-149h-157v-336h-170zM276 485h521v803h-9l-512 -794v-9z" />
    <glyph glyph-name="five.tf" horiz-adv-x="1236" 
d="M629 -25q-104 0 -189 26t-138.5 67t-90 93.5t-51.5 102.5t-15 98h168q0 -28 17.5 -63.5t52 -73t99.5 -63t147 -25.5q148 0 242 101.5t94 263.5q0 170 -81 265t-231 95q-64 0 -115.5 -14t-88.5 -42t-60.5 -54.5t-48.5 -65.5l-170 92l90 776h807v-163h-659l-56 -486h8
q133 117 304 117q157 0 268 -70t163 -184t52 -260q0 -148 -62.5 -268.5t-181.5 -192.5t-274 -72z" />
    <glyph glyph-name="six.tf" horiz-adv-x="1236" 
d="M664 -25q-134 0 -248.5 58.5t-186 172t-71.5 259.5q0 145 102 360q75 145 129 230l303 499h191l-387 -620h8q73 49 190 49q126 0 235.5 -65.5t175.5 -181.5t66 -255q0 -142 -71 -259t-187 -182t-249 -65zM664 139q148 0 234.5 92.5t86.5 249.5q0 150 -87.5 246t-233.5 96
q-147 0 -235.5 -96t-88.5 -246q0 -157 87.5 -249.5t236.5 -92.5z" />
    <glyph glyph-name="seven.tf" horiz-adv-x="1236" 
d="M352 0l291 668h-424v161l492 -4l243 557v9h-831l4 163h1016v-165l-242 -566l152 -2v-153h-217l-285 -668h-199z" />
    <glyph glyph-name="eight.tf" horiz-adv-x="1236" 
d="M637 -23q-221 0 -361.5 133.5t-140.5 346.5q0 150 78 256t176 139v8q-79 36 -142 121.5t-63 200.5q0 175 130 285t323 110q191 0 320.5 -110t129.5 -285q0 -116 -59 -201.5t-137 -120.5v-8q97 -33 171.5 -138.5t74.5 -256.5q0 -213 -140.5 -346.5t-359.5 -133.5zM637 133
q140 0 227.5 84.5t87.5 222.5q0 137 -88 226.5t-227 89.5q-140 0 -229 -89.5t-89 -226.5q0 -138 88.5 -222.5t229.5 -84.5zM637 924q122 0 195 69t73 176q0 111 -73 181.5t-195 70.5q-124 0 -197 -70.5t-73 -181.5q0 -107 73.5 -176t196.5 -69z" />
    <glyph glyph-name="nine.tf" horiz-adv-x="1236" 
d="M387 0l377 629h-8q-79 -47 -197 -47q-129 0 -236.5 70t-167 185t-59.5 246q0 137 70 252t185 179.5t247 64.5q79 0 151.5 -19t137 -58.5t112.5 -97t75.5 -139.5t27.5 -180q0 -117 -52.5 -242t-187.5 -356l-287 -487h-188zM602 741q141 0 230.5 96t89.5 257
q0 146 -90 233.5t-230 87.5t-230.5 -92t-90.5 -240q0 -140 86.5 -241t234.5 -101z" />
    <glyph glyph-name="zero.dnom" horiz-adv-x="612" 
d="M305 -14q-68 0 -120 33t-81.5 89.5t-44 122.5t-14.5 140q0 73 14.5 139t44 122.5t81.5 90t120 33.5q69 0 121.5 -33.5t82 -90t44 -122.5t14.5 -139q0 -74 -14.5 -140t-44 -122.5t-82 -89.5t-121.5 -33zM305 92q148 0 148 279q0 278 -148 278q-145 0 -145 -278
q0 -279 145 -279z" />
    <glyph glyph-name="one.dnom" horiz-adv-x="313" 
d="M119 0v594h-4l-82 -53l-53 90l174 114h77v-745h-112z" />
    <glyph glyph-name="two.dnom" horiz-adv-x="567" 
d="M43 0v98l215 224q73 79 103 123.5t30 84.5q0 50 -30 78.5t-85 28.5q-58 0 -89 -36t-23 -87h-113q-9 105 58.5 172.5t166.5 67.5q103 0 169.5 -65t66.5 -163q0 -51 -25 -98t-79 -109l-189 -202v-4h293v-113h-469z" />
    <glyph glyph-name="three.dnom" horiz-adv-x="563" 
d="M248 -12q-64 0 -118.5 22.5t-77.5 43t-25 28.5l73 84q3 -2 16.5 -13t24.5 -18t28.5 -16.5t39 -14t45.5 -4.5q51 0 87 32.5t36 90.5q0 51 -33 83t-94 32h-64v106h68q51 0 78.5 26.5t27.5 76.5q0 43 -29.5 69.5t-72.5 26.5q-56 0 -95.5 -29.5t-47.5 -50.5l-72 70
q30 52 90.5 88.5t122.5 36.5q95 0 160 -56.5t65 -152.5q0 -59 -29.5 -102.5t-64.5 -57.5v-4q46 -9 77.5 -55.5t31.5 -106.5q0 -104 -71 -169.5t-177 -65.5z" />
    <glyph glyph-name="four.dnom" horiz-adv-x="579" 
d="M344 0v154h-332v77l334 514h113v-487h88v-104h-88v-154h-115zM158 258h186v285h-4l-182 -281v-4z" />
    <glyph glyph-name="five.dnom" horiz-adv-x="595" 
d="M297 -12q-55 0 -99.5 15.5t-71 39.5t-43.5 53t-22 56t-2 49h121q-4 -36 23.5 -69.5t95.5 -33.5q64 0 98.5 40t34.5 110q0 73 -28.5 109t-92.5 36q-31 0 -53 -6.5t-39 -23.5t-24.5 -27.5t-22.5 -36.5l-104 63l47 383h401v-110h-301l-20 -164h4q64 31 112 31
q115 0 177.5 -72t62.5 -182t-70 -185t-184 -75z" />
    <glyph glyph-name="six.dnom" horiz-adv-x="579" 
d="M293 -12q-102 0 -176 67t-74 174q0 78 47 174q39 76 62 105l141 237h131l-168 -268h4q16 8 57 8q96 0 160 -71.5t64 -175.5t-74.5 -177t-173.5 -73zM291 102q60 0 94.5 36t34.5 102q0 63 -34.5 101t-94.5 38t-94.5 -38t-34.5 -101q0 -66 34.5 -102t94.5 -36z" />
    <glyph glyph-name="seven.dnom" horiz-adv-x="499" 
d="M86 0l258 633v4h-340l2 108h461v-94l-258 -651h-123z" />
    <glyph glyph-name="eight.dnom" horiz-adv-x="610" 
d="M305 -12q-104 0 -175 65t-71 162q0 77 37.5 129t79.5 57v5q-34 10 -63 52t-29 101q0 88 64 143.5t157 55.5t157 -55.5t64 -143.5q0 -61 -29.5 -103.5t-64.5 -49.5v-5q43 -9 81 -60t38 -126q0 -97 -71 -162t-175 -65zM305 96q58 0 92.5 32.5t34.5 90.5q0 56 -35 91.5
t-92 35.5t-92 -35.5t-35 -91.5q0 -58 34.5 -90.5t92.5 -32.5zM305 459q48 0 75.5 26t27.5 68q0 44 -27 70t-76 26t-75.5 -26t-26.5 -70q0 -42 27 -68t75 -26z" />
    <glyph glyph-name="nine.dnom" horiz-adv-x="567" 
d="M147 0l166 274h-4q-19 -8 -49 -8q-94 0 -161.5 76t-67.5 174q0 99 73 170.5t172 71.5q101 0 174.5 -64t73.5 -182q0 -55 -25 -116t-85 -165l-140 -231h-127zM279 383q59 0 93 37t34 104q0 61 -34.5 95t-92.5 34q-57 0 -92 -35.5t-35 -95.5q0 -61 33 -100t94 -39z" />
    <glyph glyph-name="zero.numr" horiz-adv-x="612" 
d="M305 680q-68 0 -120 33t-81.5 89.5t-44 122.5t-14.5 140q0 73 14.5 139t44 122.5t81.5 90t120 33.5q69 0 121.5 -33.5t82 -90t44 -122.5t14.5 -139q0 -74 -14.5 -140t-44 -122.5t-82 -89.5t-121.5 -33zM305 786q148 0 148 279q0 278 -148 278q-145 0 -145 -278
q0 -279 145 -279z" />
    <glyph glyph-name="one.numr" horiz-adv-x="313" 
d="M119 694v594h-4l-82 -53l-53 90l174 115h77v-746h-112z" />
    <glyph glyph-name="two.numr" horiz-adv-x="567" 
d="M43 694v99l215 223q72 79 102.5 124t30.5 85q0 50 -30 78t-85 28q-58 0 -89 -36t-23 -87h-113q-9 105 58.5 172.5t166.5 67.5q103 0 169.5 -64.5t66.5 -162.5q0 -51 -25 -98t-79 -109l-189 -203v-4h293v-113h-469z" />
    <glyph glyph-name="three.numr" horiz-adv-x="563" 
d="M248 682q-64 0 -118.5 22.5t-77.5 43t-25 28.5l73 84q3 -2 16.5 -13t24.5 -18t28.5 -16t39 -13.5t45.5 -4.5q51 0 87 32.5t36 90.5q0 51 -33 82.5t-94 31.5h-64v107h68q51 0 78.5 26.5t27.5 75.5q0 43 -29.5 69.5t-72.5 26.5q-56 0 -95.5 -29.5t-47.5 -50.5l-72 70
q30 52 90.5 88.5t122.5 36.5q95 0 160 -56.5t65 -152.5q0 -59 -29.5 -102.5t-64.5 -57.5v-4q46 -9 77.5 -55t31.5 -106q0 -104 -71 -170t-177 -66z" />
    <glyph glyph-name="four.numr" horiz-adv-x="579" 
d="M344 694v154h-332v78l334 514h113v-488h88v-104h-88v-154h-115zM158 952h186v285h-4l-182 -281v-4z" />
    <glyph glyph-name="five.numr" horiz-adv-x="595" 
d="M297 682q-55 0 -99.5 15.5t-71 39.5t-43.5 53t-22 56t-2 49h121q-4 -35 23.5 -68.5t95.5 -33.5q64 0 98.5 39.5t34.5 109.5q0 73 -28.5 109t-92.5 36q-31 0 -53 -6.5t-39 -23.5t-24.5 -27.5t-22.5 -36.5l-104 64l47 383h401v-111h-301l-20 -164h4q64 31 112 31
q115 0 177.5 -72t62.5 -182t-70 -185t-184 -75z" />
    <glyph glyph-name="six.numr" horiz-adv-x="579" 
d="M293 682q-102 0 -176 67.5t-74 174.5q0 78 47 174q38 73 62 104l141 238h131l-168 -269h4q18 9 57 9q96 0 160 -72t64 -176t-74.5 -177t-173.5 -73zM291 797q61 0 95 36t34 101q0 63 -34.5 101t-94.5 38t-94.5 -38t-34.5 -101q0 -65 34 -101t95 -36z" />
    <glyph glyph-name="seven.numr" horiz-adv-x="499" 
d="M86 694l258 633v4h-340l2 109h461v-94l-258 -652h-123z" />
    <glyph glyph-name="eight.numr" horiz-adv-x="610" 
d="M305 682q-104 0 -175 65t-71 162q0 77 37.5 129.5t79.5 57.5v4q-34 10 -63 52t-29 101q0 88 64 143.5t157 55.5t157 -55.5t64 -143.5q0 -61 -29.5 -103.5t-64.5 -49.5v-4q43 -9 81 -60.5t38 -126.5q0 -97 -71 -162t-175 -65zM305 791q58 0 92.5 32t34.5 90q0 56 -35 91.5
t-92 35.5t-92 -35.5t-35 -91.5q0 -58 34.5 -90t92.5 -32zM305 1153q48 0 75.5 26t27.5 68q0 44 -27 70t-76 26t-75.5 -26t-26.5 -70q0 -42 27 -68t75 -26z" />
    <glyph glyph-name="nine.numr" horiz-adv-x="567" 
d="M147 694l166 275h-4q-19 -8 -49 -8q-94 0 -161.5 75.5t-67.5 173.5q0 99 73 170.5t172 71.5q101 0 174.5 -64t73.5 -182q0 -54 -24.5 -115t-85.5 -165l-140 -232h-127zM279 1077q59 0 93 37.5t34 104.5q0 61 -34.5 95t-92.5 34q-57 0 -92 -35.5t-35 -95.5
q0 -61 33 -100.5t94 -39.5z" />
    <glyph glyph-name="colon.case" horiz-adv-x="397" 
d="M199 197q-54 0 -91.5 38t-37.5 91q0 55 37.5 92t91.5 37q55 0 92 -36.5t37 -92.5q0 -53 -37 -91t-92 -38zM199 946q-54 0 -91.5 38t-37.5 91q0 55 37.5 92t91.5 37q55 0 92 -37t37 -92q0 -53 -37 -91t-92 -38z" />
    <glyph glyph-name="hyphen.case" horiz-adv-x="823" 
d="M123 680v123h577v-123h-577z" />
    <glyph glyph-name="endash.case" horiz-adv-x="1187" 
d="M123 680v123h942v-123h-942z" />
    <glyph glyph-name="emdash.case" horiz-adv-x="1970" 
d="M123 680v123h1724v-123h-1724z" />
    <glyph glyph-name="parenleft.case" horiz-adv-x="692" 
d="M506 -127q-369 434 -369 930q0 251 96 487t273 443l119 -88q-148 -174 -234 -396.5t-86 -445.5q0 -220 88 -447.5t232 -394.5z" />
    <glyph glyph-name="parenright.case" horiz-adv-x="692" 
d="M68 -39q144 166 231.5 394t87.5 448q0 223 -85.5 445.5t-233.5 396.5l118 88q177 -207 273 -443t96 -487q0 -496 -369 -930z" />
    <glyph glyph-name="braceleft.case" horiz-adv-x="696" 
d="M590 -145q-155 0 -249.5 91t-94.5 244v330q0 105 -37.5 162t-110.5 57v90q73 0 110.5 57.5t37.5 162.5v329q0 153 94.5 244.5t249.5 91.5h28v-110h-22q-89 0 -135.5 -62t-46.5 -168v-356q0 -179 -148 -230v-8q148 -51 148 -223v-362q0 -105 47 -167.5t135 -62.5h22v-110
h-28z" />
    <glyph glyph-name="braceright.case" horiz-adv-x="696" 
d="M106 -145h-28v110h22q88 0 135.5 63t47.5 167v362q0 90 36.5 144t110.5 79v8q-147 51 -147 230v356q0 106 -47 168t-136 62h-22v110h28q155 0 250 -91.5t95 -244.5v-329q0 -106 37 -163t110 -57v-90q-73 0 -110 -56.5t-37 -162.5v-330q0 -153 -95 -244t-250 -91z" />
    <glyph glyph-name="bracketleft.case" horiz-adv-x="681" 
d="M260 -156v1860h361v-119h-199v-1622h199v-119h-361z" />
    <glyph glyph-name="bracketright.case" horiz-adv-x="681" 
d="M422 -156h-361v119h199v1622h-199v119h361v-1860z" />
    <glyph glyph-name="at.case" horiz-adv-x="1830" 
d="M1001 -102q-168 -6 -305 21t-234 82t-168 131t-112.5 174t-60.5 204.5t-19 228.5q0 181 62.5 339.5t172 272t266.5 179t339 65.5q198 0 350.5 -60.5t246.5 -168.5t142 -249.5t48 -311.5q0 -253 -83.5 -389.5t-242.5 -136.5q-98 0 -166 60t-78 112h-8q-108 -175 -317 -172
q-131 0 -216.5 77.5t-85.5 202.5q0 291 351 291h258v55q0 98 -66.5 151.5t-179.5 53.5q-83 0 -145 -32t-93 -91l-88 88q58 70 146 115t182 45q199 0 291 -95t92 -278v-284q0 -148 117 -148q182 0 182 375q0 149 -41 271.5t-120 211.5t-200.5 138t-275.5 49
q-196 0 -354.5 -95.5t-248 -264t-89.5 -376.5q0 -130 22 -237t75.5 -201t138 -157t215 -97t300.5 -29l263 9v-121zM846 418q130 0 212.5 81t82.5 222v22h-260q-95 0 -146 -44t-51 -124q0 -74 41.5 -115.5t120.5 -41.5z" />
    <glyph glyph-name="plus.case" horiz-adv-x="1148" 
d="M504 330v395h-389v131h389v395h139v-395h389v-131h-389v-395h-139z" />
    <glyph glyph-name="minus.case" horiz-adv-x="1067" 
d="M115 725v131h835v-131h-835z" />
    <glyph glyph-name="multiply.case" horiz-adv-x="1099" 
d="M207 332l344 344l342 -344l100 98l-344 344l344 344l-100 99l-342 -343l-344 343l-101 -99l445 -442l98 98l-98 100l-445 -444z" />
    <glyph glyph-name="divide.case" horiz-adv-x="1107" 
d="M115 713v131h876v-131h-876zM553 358q-47 0 -81 35t-34 82t34 81t81 34q49 0 83 -33.5t34 -81.5t-34 -82.5t-83 -34.5zM553 967q-47 0 -81 33.5t-34 80.5q0 49 33.5 83t81.5 34q49 0 83 -34t34 -83q0 -47 -34 -80.5t-83 -33.5z" />
    <glyph glyph-name="equal.case" horiz-adv-x="1148" 
d="M115 991v131h917v-131h-917zM115 500v131h917v-131h-917z" />
    <glyph glyph-name="greater.case" horiz-adv-x="1284" 
d="M242 215v170l647 324v8l-647 336v174l925 -500v-29z" />
    <glyph glyph-name="less.case" horiz-adv-x="1284" 
d="M1042 215l-925 483v29l925 500v-174l-647 -336v-8l647 -324v-170z" />
    <glyph glyph-name="arrowright.case" horiz-adv-x="1433" 
d="M1243 639v2l-477 -477l-94 94l407 408h-958v137h958l-407 407l94 97l571 -572z" />
    <glyph glyph-name="arrowleft.case" horiz-adv-x="1433" 
d="M190 639l-94 96l572 572l94 -97l-408 -407h959v-137h-959l408 -408l-94 -94l-475 477z" />
    <glyph glyph-name="arrowboth.case" horiz-adv-x="2088" 
d="M1898 639v2l-477 -477l-94 94l408 408h-1381l408 -408l-94 -94l-475 477l-3 -2l-94 96l572 572l94 -97l-408 -407h1381l-408 407l94 97l572 -572z" />
    <glyph glyph-name="uni03060301" horiz-adv-x="0" 
d="M295 1180q-80 0 -122.5 9.5t-80.5 39.5q-37 32 -63 121q-26 95 -27 102h129q8 -55 25 -94q17 -35 45 -49q23 -9 94 -9q67 0 94 9q28 14 45 49q17 39 25 94h129q-1 -7 -27 -102q-26 -89 -63 -121q-38 -30 -80.5 -39.5t-122.5 -9.5zM211 1477l213 254h209l-254 -254h-168z
" />
    <glyph glyph-name="uni03060300" horiz-adv-x="0" 
d="M332 1180q-79 0 -121.5 9t-81.5 40q-36 29 -63 121l-27 102h129q8 -55 25 -94q17 -35 45 -49q23 -9 94 -9q67 0 94 9q28 14 45 49q17 39 25 94h129l-27 -102q-27 -92 -63 -121q-39 -31 -81.5 -40t-121.5 -9zM256 1446l-254 254h209l213 -254h-168z" />
    <glyph glyph-name="uni03060309" horiz-adv-x="0" 
d="M297 1176q-79 0 -121.5 9t-81.5 40q-36 29 -63 121l-27 102h129q8 -55 25 -94q17 -35 45 -49q23 -9 94 -9q67 0 94 9q28 14 45 49q17 39 25 94h129l-27 -102q-27 -92 -63 -121q-39 -31 -81.5 -40t-121.5 -9zM229 1487q0 33 14 53.5t56 46.5q68 37 68 86q0 21 -18.5 36
t-47.5 15q-55 0 -102 -53l-76 76q64 94 186 100q90 0 148.5 -46t58.5 -115q0 -60 -31.5 -101.5t-99.5 -79.5q-23 -12 -28 -22.5t-5 -32.5v-4h-123v41z" />
    <glyph glyph-name="uni03060303" horiz-adv-x="0" 
d="M131 1526q0 122 56.5 196t134.5 74q66 0 149 -65q77 -62 117 -62q34 0 55 43t21 103h127q0 -128 -58 -208.5t-145 -80.5q-67 0 -137 55q-77 59 -117 59q-36 0 -56 -32.5t-20 -81.5h-127zM293 1176q-79 0 -121.5 9t-81.5 40q-36 29 -63 121l-27 102h129q8 -55 25 -94
q17 -35 45 -49q22 -9 94 -9q67 0 94 9q28 14 45 49q17 39 25 94h129l-27 -102q-27 -92 -63 -121q-39 -31 -81.5 -40t-121.5 -9z" />
    <glyph glyph-name="uni03020301" horiz-adv-x="0" 
d="M475 1378l221 254h211l-254 -254h-178zM0 1178l266 241h113l266 -241h-168l-145 114h-17l-147 -114h-168z" />
    <glyph glyph-name="uni03020300" horiz-adv-x="0" 
d="M891 1362l-254 254h211l221 -254h-178zM319 1178l267 241h112l267 -241h-168l-146 114h-16l-148 -114h-168z" />
    <glyph glyph-name="uni03020309" horiz-adv-x="0" 
d="M541 1356q0 34 13.5 54t55.5 46q68 40 68 86q0 22 -19 36.5t-47 14.5q-60 0 -102 -53l-76 76q64 94 187 100q89 0 147.5 -46t58.5 -116q0 -59 -31.5 -100t-99.5 -80q-16 -9 -23 -17.5t-8 -15t-1 -22.5v-4h-123v41zM20 1178l267 241h112l267 -241h-168l-146 114h-16
l-148 -114h-168z" />
    <glyph glyph-name="uni03020303" horiz-adv-x="0" 
d="M41 1491q0 117 55.5 188.5t132.5 71.5q70 0 150 -65q80 -62 117 -62q34 0 54.5 42.5t20.5 102.5h125q0 -123 -56.5 -200.5t-143.5 -77.5q-68 0 -138 55q-75 60 -116 60q-35 0 -55.5 -33t-20.5 -82h-125zM0 1178l266 241h113l266 -241h-168l-145 114h-17l-147 -114h-168z
" />
    <glyph glyph-name="equivalent" horiz-adv-x="2109" 
d="M457 782l-181 -180l181 -180h1196l180 180l-180 180h-1196zM594 285l139 -140l-90 -90l-547 547l547 547l90 -90l-141 -141h926l-142 141l90 90l547 -547l-547 -547l-90 90l140 140h-922z" />
    <glyph glyph-name="implies" horiz-adv-x="1615" 
d="M121 782v136h903l-141 141l90 90l547 -547l-547 -547l-90 90l139 140h-901v137h1038l180 180l-180 180h-1038z" />
    <glyph glyph-name="equivalent.case" horiz-adv-x="2109" 
d="M457 905l-181 -180l181 -180h1196l180 180l-180 180h-1196zM594 408l139 -140l-90 -90l-547 547l547 547l90 -90l-141 -142h926l-142 142l90 90l547 -547l-547 -547l-90 90l140 140h-922z" />
    <glyph glyph-name="implies.case" horiz-adv-x="1615" 
d="M121 905v135h903l-141 142l90 90l547 -547l-547 -547l-90 90l139 140h-901v137h1038l180 180l-180 180h-1038z" />
    </font>
</defs>
</svg>
