<?xml version="1.0" standalone="no"?>
<!DOCTYPE svg PUBLIC "-//W3C//DTD SVG 1.1//EN" "http://www.w3.org/Graphics/SVG/1.1/DTD/svg11.dtd" >
<svg xmlns="http://www.w3.org/2000/svg" xmlns:xlink="http://www.w3.org/1999/xlink" version="1.1">
<metadata>
Created by FontForge 20201107 at Thu Oct 16 05:31:12 2025
 By 
Designed by BeauType Studio. All rights reserved.
</metadata>
<defs>
<font id="BT-BeauSans-Bold" horiz-adv-x="1495" >
  <font-face 
    font-family="BT Beau Sans"
    font-weight="700"
    font-stretch="normal"
    units-per-em="2048"
    panose-1="0 0 0 0 0 0 0 0 0 0"
    ascent="1638"
    descent="-410"
    x-height="1114"
    cap-height="1565"
    bbox="-393 -758 2556 2314"
    underline-thickness="102"
    underline-position="-255"
    unicode-range="U+0020-2265"
  />
<missing-glyph horiz-adv-x="1536" 
d="M1260 2314v-3072h-973v3072h973zM1024 219h-510v-346h510v346zM922 119v-146h-308v146h308zM1024 752h-307v-172h104v69h101v-143h-308v246h-100v-349h510v349zM1024 1126h-102v-202h-408v-105h510v307zM1024 1311h-510v-103h203v-112h-203v-103h307v215h203v103z
M717 1608v-111h-103v111h103zM821 1712h-307v-319h510v104h-203v215zM1024 2109h-508v-102h201v-113h-203v-102h510v102h-203v113h203v102zM1024 -199h-510v-100h215l-215 -145v-101h510v101h-313l215 145h98v100z" />
    <glyph glyph-name="f_f" unicode="ff" horiz-adv-x="1392" 
d="M156 0v909h-107v205h107v254q0 229 229 229h246v-254h-86q-59 0 -85 -27.5t-26 -94.5v-107h385v254q0 229 230 229h327v-254h-168q-58 0 -84 -27t-26 -95v-107h278v-205h-278v-909h-279v909h-385v-909h-278z" />
    <glyph glyph-name="f_i" unicode="fi" horiz-adv-x="1220" 
d="M156 0v909h-107v205h107v254q0 229 229 229h246v-254h-86q-59 0 -85 -27.5t-26 -94.5v-107h672v-1114h-279v909h-393v-909h-278zM967 1204q-67 0 -115.5 48t-48.5 116t48.5 116t115.5 48t115 -48t48 -116t-48 -116t-115 -48z" />
    <glyph glyph-name="f_l" unicode="fl" horiz-adv-x="1392" 
d="M156 0v909h-107v205h107v254q0 229 229 229h754v-1220q0 -68 26 -95.5t84 -27.5h135v-254h-294q-230 0 -230 229v1114h-315q-59 0 -85 -27.5t-26 -94.5v-107h238v-205h-238v-909h-278z" />
    <glyph glyph-name=".notdef" horiz-adv-x="1536" 
d="M1260 2314v-3072h-973v3072h973zM1024 219h-510v-346h510v346zM922 119v-146h-308v146h308zM1024 752h-307v-172h104v69h101v-143h-308v246h-100v-349h510v349zM1024 1126h-102v-202h-408v-105h510v307zM1024 1311h-510v-103h203v-112h-203v-103h307v215h203v103z
M717 1608v-111h-103v111h103zM821 1712h-307v-319h510v104h-203v215zM1024 2109h-508v-102h201v-113h-203v-102h510v102h-203v113h203v102zM1024 -199h-510v-100h215l-215 -145v-101h510v101h-313l215 145h98v100z" />
    <glyph glyph-name=".null" horiz-adv-x="0" 
 />
    <glyph glyph-name="nonmarkingreturn" horiz-adv-x="682" 
 />
    <glyph glyph-name="space" unicode=" " horiz-adv-x="475" 
 />
    <glyph glyph-name="space" unicode="&#xa0;" horiz-adv-x="475" 
 />
    <glyph glyph-name="exclam" unicode="!" horiz-adv-x="524" 
d="M184 442l-24 672v336h237v-334l-24 -674h-189zM262 -8q-72 0 -122 50t-50 122q0 73 50 122.5t122 49.5q74 0 123 -49t49 -123q0 -72 -49.5 -122t-122.5 -50z" />
    <glyph glyph-name="quotedbl" unicode="&#x22;" horiz-adv-x="677" 
d="M164 1118q-21 0 -30.5 6t-10.5 23l-25 381q-2 21 2 29t17 8h166q13 0 16.5 -8t1.5 -29l-25 -381q-1 -17 -10 -23t-30 -6h-72zM451 1118q-21 0 -30.5 6t-10.5 23l-25 381q-2 21 1.5 29t16.5 8h166q13 0 17 -8t2 -29l-25 -381q-1 -17 -10.5 -23t-30.5 -6h-71z" />
    <glyph glyph-name="numbersign" unicode="#" horiz-adv-x="1677" 
d="M838 0l88 299h-377l-88 -299h-221l88 299h-222l54 205h227l107 356h-230l53 205h236l96 328h221l-96 -328h377l96 328h221l-96 -328h207l-53 -205h-213l-107 -356h215l-53 -205h-221l-88 -299h-221zM608 504h377l107 356h-377z" />
    <glyph glyph-name="dollar" unicode="$" horiz-adv-x="1277" 
d="M584 -147v124q-150 13 -283 78t-211 158l205 205q55 -55 133 -98t156 -62v432l-119 53q-177 78 -257.5 175.5t-80.5 232.5q0 182 127 298.5t330 135.5v119h139v-117q243 -21 420 -198l-189 -189q-114 103 -231 121v-399l111 -45q370 -151 370 -453q0 -192 -132.5 -310
t-348.5 -137v-124h-139zM414 1161q0 -109 170 -182v342q-79 -15 -124.5 -58t-45.5 -102zM723 248q92 9 143.5 56t51.5 112q0 63 -47 114.5t-148 98.5v-381z" />
    <glyph glyph-name="percent" unicode="%" horiz-adv-x="1556" 
d="M193 0l983 1556h204l-983 -1556h-204zM1135 -16q-131 0 -223.5 92.5t-92.5 222.5t92.5 222.5t223.5 92.5t223 -92t92 -223t-92 -223t-223 -92zM1135 143q64 0 109.5 45.5t45.5 110.5t-45.5 110.5t-109.5 45.5q-65 0 -110.5 -45.5t-45.5 -110.5t45.5 -110.5t110.5 -45.5z
M422 926q-131 0 -223.5 92.5t-92.5 222.5t92.5 222.5t223.5 92.5q130 0 222.5 -92t92.5 -223t-92.5 -223t-222.5 -92zM422 1085q64 0 110 45.5t46 110.5t-46 110.5t-110 45.5t-110 -45.5t-46 -110.5t46 -110.5t110 -45.5z" />
    <glyph glyph-name="ampersand" unicode="&#x26;" horiz-adv-x="1466" 
d="M504 -16q-178 0 -296 117t-118 311q0 86 25 157.5t69 120.5t94 81t109 52v8q-75 34 -131.5 124t-56.5 208q0 173 127.5 287.5t312.5 114.5q99 0 188 -45t142 -107l-166 -162q-67 76 -168 76q-82 0 -132 -51t-50 -133q0 -86 54 -137.5t157 -51.5h679v-196h-196v-477
q0 -49 13.5 -66.5t56.5 -17.5h126v-197h-241q-87 0 -133.5 44.5t-46.5 133.5v35h-9q-58 -100 -159.5 -164.5t-249.5 -64.5zM606 207q127 0 211 97t84 220v213h-283q-111 0 -192.5 -78.5t-81.5 -205.5q0 -98 69 -172t193 -74z" />
    <glyph glyph-name="quotesingle" unicode="'" horiz-adv-x="382" 
d="M156 1118q-21 0 -30.5 6t-10.5 23l-25 381q-2 21 2 29t17 8h165q13 0 17 -8t2 -29l-25 -381q-1 -17 -10.5 -23t-30.5 -6h-71z" />
    <glyph glyph-name="parenleft" unicode="(" horiz-adv-x="780" 
d="M516 -229q-369 434 -369 929q0 251 96 487t273 443l174 -135q-137 -160 -221 -369t-84 -426q0 -212 82 -417.5t219 -380.5z" />
    <glyph glyph-name="parenright" unicode=")" horiz-adv-x="780" 
d="M94 -98q137 175 219 380.5t82 417.5q0 217 -84 426t-221 369l174 135q177 -207 273 -443t96 -487q0 -495 -369 -929z" />
    <glyph glyph-name="asterisk" unicode="*" horiz-adv-x="1120" 
d="M393 723l-196 135l278 270l-4 5l-365 47l70 225l324 -174l4 4l-64 362h238l-64 -362l4 -4l322 174l74 -225l-365 -47l-4 -5l277 -270l-197 -135l-164 350h-4z" />
    <glyph glyph-name="plus" unicode="+" horiz-adv-x="1318" 
d="M537 8v422h-390v238h390v422h245v-422h389v-238h-389v-422h-245z" />
    <glyph glyph-name="comma" unicode="," horiz-adv-x="518" 
d="M111 -250q-27 0 -19 33l80 436q6 27 27 27h207q32 0 18 -37l-129 -430q-5 -18 -12 -23.5t-27 -5.5h-145z" />
    <glyph glyph-name="hyphen" unicode="-" horiz-adv-x="983" 
d="M123 463v229h737v-229h-737z" />
    <glyph glyph-name="period" unicode="." horiz-adv-x="524" 
d="M262 -8q-72 0 -122 50t-50 122q0 73 50 122.5t122 49.5q74 0 123 -49t49 -123q0 -72 -49.5 -122t-122.5 -50z" />
    <glyph glyph-name="slash" unicode="/" horiz-adv-x="878" 
d="M98 0l469 1589h213l-469 -1589h-213z" />
    <glyph glyph-name="zero" unicode="0" horiz-adv-x="1384" 
d="M692 -25q-122 0 -222.5 42.5t-170 116.5t-117.5 176.5t-70 221t-22 250.5t22 250.5t70 221t117.5 176.5t170 116.5t222.5 42.5t222.5 -42.5t170 -116.5t117.5 -176.5t70 -221t22 -250.5t-22 -250.5t-70 -221t-117.5 -176.5t-170 -116.5t-222.5 -42.5zM692 225
q70 0 126 34t91.5 88.5t59 129t33.5 150t10 155.5t-10 155.5t-33.5 150t-59 129t-91.5 88.5t-126 34t-126 -34t-91.5 -88.5t-59 -129t-33 -150t-9.5 -155.5t9.5 -155.5t33 -150t59 -129t91.5 -88.5t126 -34z" />
    <glyph glyph-name="one" unicode="1" horiz-adv-x="829" 
d="M379 0v1251h-8l-246 -170l-117 187l420 297h238v-1565h-287z" />
    <glyph glyph-name="two" unicode="2" horiz-adv-x="1312" 
d="M150 0v254l452 422q142 132 207 226t65 200q0 117 -66 177t-171 60q-103 0 -172.5 -67.5t-69.5 -181.5h-274q0 226 143 362.5t387 136.5q137 0 251.5 -55t184.5 -162.5t70 -247.5q0 -87 -19.5 -159t-68 -148t-113.5 -147.5t-174 -175.5l-225 -215v-9h625v-270h-1032z" />
    <glyph glyph-name="three" unicode="3" horiz-adv-x="1216" 
d="M561 -25q-163 0 -299.5 64t-204.5 158l197 196q28 -29 52 -49t65 -45.5t94.5 -39t116.5 -13.5q96 0 166.5 63t70.5 158q0 103 -71 168t-195 65h-113v238h117q101 0 159 64t58 153q0 90 -58.5 137t-142.5 47q-17 0 -35 -2.5t-32.5 -5.5t-33 -10.5t-29.5 -12t-29.5 -15.5
t-26.5 -15.5t-27 -18t-24 -17t-24 -18t-21 -16.5l-172 172q73 75 203 142t266 67q204 0 332.5 -113t128.5 -298q0 -131 -62.5 -219.5t-150.5 -127.5v-8q46 -9 91 -35.5t85.5 -69t65 -110t24.5 -147.5q0 -147 -70.5 -258.5t-192.5 -169.5t-278 -58z" />
    <glyph glyph-name="four" unicode="4" horiz-adv-x="1390" 
d="M809 0v303h-694v213l678 1049h303v-1016h188v-246h-188v-303h-287zM444 549h365v573h-8l-357 -565v-8z" />
    <glyph glyph-name="five" unicode="5" horiz-adv-x="1310" 
d="M686 -25q-118 0 -215.5 34t-158.5 86.5t-103.5 119t-60 128.5t-17.5 118l291 -2q0 -16 7.5 -39.5t27 -53t48 -54t75.5 -41.5t104 -17q124 0 194 78t72 205q1 127 -71.5 204.5t-188.5 77.5q-164 0 -287 -147l-245 133l88 760h897v-271h-682l-41 -333h8q110 104 317 104
q97 0 184 -34.5t154.5 -99t107 -166.5t38.5 -228q-1 -171 -74 -300.5t-195.5 -195.5t-273.5 -66z" />
    <glyph glyph-name="six" unicode="6" horiz-adv-x="1273" 
d="M655 -25q-242 0 -395.5 151t-153.5 384q0 154 60 301q38 94 131 252l303 502h324l-312 -525h9q46 13 114 13q196 0 332.5 -151t136.5 -374q0 -158 -69 -284t-194.5 -197.5t-285.5 -71.5zM659 246q118 0 196.5 81.5t78.5 200.5t-78.5 199t-196.5 80t-196 -80t-78 -199
t78 -200.5t196 -81.5z" />
    <glyph glyph-name="seven" unicode="7" horiz-adv-x="1157" 
d="M238 0l512 1278v8h-684l4 279h1013v-230l-534 -1335h-311z" />
    <glyph glyph-name="eight" unicode="8" horiz-adv-x="1298" 
d="M649 -29q-144 0 -264.5 56.5t-195 167.5t-74.5 256q0 76 23 143.5t61.5 115t81 80.5t88.5 52v8q-79 36 -142 123t-63 201q0 79 27 147.5t73.5 117.5t108.5 84.5t132 52.5t144 17q93 0 179 -28t155 -79t110.5 -132.5t41.5 -179.5q0 -115 -60 -202t-137 -122v-8
q99 -41 172.5 -142.5t73.5 -248.5q0 -145 -75 -256t-195.5 -167.5t-264.5 -56.5zM649 233q106 0 181 71.5t75 178.5q0 104 -75 175t-181 71t-181 -71t-75 -175q0 -107 75 -178.5t181 -71.5zM649 950q87 0 145 56.5t58 136.5q0 78 -58 133t-145 55t-145 -55t-58 -133
q0 -80 58 -136.5t145 -56.5z" />
    <glyph glyph-name="nine" unicode="9" horiz-adv-x="1294" 
d="M373 0l305 528h-8q-32 -16 -92 -16q-216 0 -364 150.5t-148 373.5q0 239 159 396t402 157q130 0 237 -41t177.5 -112t108.5 -164.5t38 -200.5q0 -124 -37.5 -231.5t-124.5 -261.5l-326 -578h-327zM616 758q119 0 200 80t81 200q0 123 -78.5 202t-202.5 79
q-123 0 -201.5 -81.5t-78.5 -201.5t78.5 -199t201.5 -79z" />
    <glyph glyph-name="colon" unicode=":" horiz-adv-x="524" 
d="M262 -8q-72 0 -122 50t-50 122q0 73 50 122.5t122 49.5q74 0 123 -49t49 -123q0 -72 -49.5 -122t-122.5 -50zM262 762q-72 0 -122 50t-50 122q0 73 50 122.5t122 49.5q74 0 123 -49t49 -123q0 -72 -49.5 -122t-122.5 -50z" />
    <glyph glyph-name="semicolon" unicode=";" horiz-adv-x="550" 
d="M307 762q-72 0 -122 50t-50 122q0 73 50 122.5t122 49.5q73 0 122.5 -49t49.5 -123q0 -72 -49.5 -122t-122.5 -50zM127 -250q-26 0 -18 33l79 436q6 27 27 27h207q32 0 18 -37l-129 -430q-5 -18 -12 -23.5t-27 -5.5h-145z" />
    <glyph glyph-name="less" unicode="&#x3c;" horiz-adv-x="1327" 
d="M1049 135l-926 483v189l926 500v-254l-648 -336v-8l648 -324v-250z" />
    <glyph glyph-name="equal" unicode="=" horiz-adv-x="1318" 
d="M147 696v238h1024v-238h-1024zM147 205v237h1024v-237h-1024z" />
    <glyph glyph-name="greater" unicode="&#x3e;" horiz-adv-x="1327" 
d="M262 135v250l647 324v8l-647 336v254l926 -500v-189z" />
    <glyph glyph-name="question" unicode="?" horiz-adv-x="1015" 
d="M360 516q0 107 29.5 175t85.5 124q17 16 67.5 61t77 71.5t51.5 70t25 84.5q0 67 -48.5 109t-123.5 42q-172 0 -286 -163l-148 147q86 115 194.5 176.5t227.5 61.5q187 0 300.5 -103.5t113.5 -281.5q0 -87 -48.5 -169t-172.5 -186q-132 -108 -132 -219v-57h-213v57z
M477 -8q-63 0 -107 44t-44 107q0 65 43.5 108.5t107.5 43.5t108 -43.5t44 -108.5q0 -63 -44.5 -107t-107.5 -44z" />
    <glyph glyph-name="at" unicode="@" horiz-adv-x="2023" 
d="M1061 -315q-189 -5 -343 35t-264.5 119.5t-185 195.5t-110 260.5t-35.5 316.5q0 190 66.5 358.5t185 292t293 195.5t379.5 72q258 0 452.5 -101t302 -294.5t107.5 -454.5q0 -165 -46 -292t-136 -200t-211 -73q-179 0 -244 164h-8q-91 -155 -338 -164q-146 0 -234 75.5
t-88 190.5t104 202t275 87h244v35q0 81 -58 123t-149 42q-144 0 -244 -92l-133 129q65 76 171.5 121t232.5 45q183 0 292 -100.5t109 -278.5v-227q0 -166 90 -166q77 0 117.5 103.5t40.5 271.5q0 139 -41 257t-119.5 208t-204 141t-284.5 51q-212 0 -374.5 -93.5
t-249.5 -257t-87 -370.5q0 -172 41.5 -305.5t127.5 -230.5t226.5 -147t329.5 -46l299 6v-196zM958 303q118 0 193.5 60t75.5 133v6h-238q-180 0 -180 -101q0 -47 39.5 -72.5t109.5 -25.5z" />
    <glyph glyph-name="A" unicode="A" 
d="M25 0l532 1565h381l532 -1565h-286l-137 401h-598l-138 -401h-286zM535 655h426l-209 615h-9z" />
    <glyph glyph-name="B" unicode="B" horiz-adv-x="1343" 
d="M147 0v1565h574q108 0 195 -21t154.5 -66t104.5 -121.5t37 -180.5q0 -118 -64 -222t-161 -137v-6q119 -29 201 -127t82 -252q0 -207 -139 -319.5t-361 -112.5h-623zM672 254q155 0 233 59t78 162q0 209 -311 209h-238v-430h238zM618 938q58 0 100.5 4t84.5 16.5t68.5 34
t42.5 58.5t16 88q0 75 -59.5 123.5t-161.5 48.5h-275v-373h184z" />
    <glyph glyph-name="C" unicode="C" horiz-adv-x="1486" 
d="M864 -25q-236 0 -416 102.5t-277 285.5t-97 419q0 177 64.5 330t173.5 256.5t254 162t306 58.5q222 0 400 -106q81 -49 135 -109l-195 -192q-68 71 -159.5 108t-192.5 37q-140 0 -255.5 -71.5t-181 -196.5t-65.5 -277q0 -246 137 -395t365 -149q133 0 266 71q40 22 95 74
l192 -188q-110 -107 -250 -163.5t-299 -56.5z" />
    <glyph glyph-name="D" unicode="D" horiz-adv-x="1576" 
d="M147 0v1565h574q373 0 577.5 -194.5t204.5 -539.5q0 -245 -104 -434t-293 -293t-434 -104h-525zM707 254q225 0 371.5 157.5t146.5 397.5q0 234 -132.5 368t-365.5 134h-293v-1057h273z" />
    <glyph glyph-name="E" unicode="E" horiz-adv-x="1196" 
d="M147 0v1565h934v-254h-647v-373h598v-254h-598v-430h656v-254h-943z" />
    <glyph glyph-name="F" unicode="F" horiz-adv-x="1146" 
d="M147 0v1565h943v-254h-656v-451h606v-254h-606v-606h-287z" />
    <glyph glyph-name="G" unicode="G" horiz-adv-x="1712" 
d="M881 -25q-124 0 -240 32t-218 98t-179 160t-122.5 227t-47.5 290q-4 227 96 411.5t284.5 290t417.5 105.5q403 0 617 -262l-207 -207q-79 104 -178.5 155.5t-231.5 51.5q-224 0 -370 -151t-146 -394q0 -253 146.5 -399.5t394.5 -146.5q112 0 216.5 40.5t175.5 123
t71 186.5v8h-488v246h758q8 -21 8 -107q0 -229 -99 -402.5t-270 -264.5t-388 -91z" />
    <glyph glyph-name="H" unicode="H" horiz-adv-x="1605" 
d="M147 0v1565h287v-623h737v623h287v-1565h-287v688h-737v-688h-287z" />
    <glyph glyph-name="I" unicode="I" horiz-adv-x="581" 
d="M147 0v1565h287v-1565h-287z" />
    <glyph glyph-name="J" unicode="J" horiz-adv-x="864" 
d="M66 0v254h167q116 0 160.5 47t44.5 170v840h-311v254h598v-1209q0 -186 -106.5 -271t-350.5 -85h-202z" />
    <glyph glyph-name="K" unicode="K" horiz-adv-x="1413" 
d="M147 0v1565h287v-656h135l473 656h328l-555 -770v-17l606 -778h-352l-518 655h-117v-655h-287z" />
    <glyph glyph-name="L" unicode="L" horiz-adv-x="1114" 
d="M147 0v1565h287v-1311h656v-254h-943z" />
    <glyph glyph-name="M" unicode="M" horiz-adv-x="1933" 
d="M147 0v1565h435l383 -1188h8l379 1188h434v-1565h-287v942l8 164h-8l-369 -1106h-327l-369 1106h-8l8 -164v-942h-287z" />
    <glyph glyph-name="N" unicode="N" horiz-adv-x="1581" 
d="M147 0v1565h328l672 -1090h8l-8 180v910h287v-1565h-328l-672 1081h-8l8 -180v-901h-287z" />
    <glyph glyph-name="O" unicode="O" horiz-adv-x="1744" 
d="M872 -25q-167 0 -314.5 62t-254 169t-168 257t-61.5 319q0 142 42 269.5t117.5 224.5t175 168t218.5 108t245 37q160 0 305.5 -59.5t254.5 -163.5t174 -256.5t65 -327.5q0 -143 -42.5 -271t-117.5 -225t-175 -167.5t-219 -107t-245 -36.5zM872 238q104 0 198.5 40
t165 110t112 172.5t41.5 221.5q0 112 -39.5 212.5t-107.5 173.5t-164.5 116t-205.5 43q-104 0 -198 -40t-164.5 -110.5t-112 -173t-41.5 -221.5q0 -150 66.5 -274.5t185 -197t264.5 -72.5z" />
    <glyph glyph-name="P" unicode="P" horiz-adv-x="1302" 
d="M147 0v1565h607q114 0 207 -26.5t163 -80.5t108 -141.5t38 -202.5q0 -166 -75 -286t-204 -179t-299 -59h-258v-590h-287zM651 844q188 0 262 57.5t74 181.5q0 114 -76.5 171t-259.5 57h-217v-467h217z" />
    <glyph glyph-name="Q" unicode="Q" horiz-adv-x="1761" 
d="M872 -25q-167 0 -314.5 62t-254 169t-168 257t-61.5 319q0 142 42 269.5t117.5 224.5t175 168t218.5 108t245 37q160 0 305.5 -59.5t254.5 -163.5t174 -256.5t65 -327.5t-62 -323t-171 -256l225 -226l-176 -176l-256 256q-172 -82 -359 -82zM872 238q104 0 198.5 40
t165 110t112 172.5t41.5 221.5q0 112 -39.5 212.5t-107.5 173.5t-164.5 116t-205.5 43q-104 0 -198 -40t-164.5 -110.5t-112 -173t-41.5 -221.5q0 -150 66.5 -274.5t185 -197t264.5 -72.5z" />
    <glyph glyph-name="R" unicode="R" horiz-adv-x="1361" 
d="M147 0v1565h607q102 0 192.5 -27t164 -80.5t116.5 -142t43 -201.5q0 -184 -89 -308t-241 -177v-8l356 -621h-325l-330 590h-207v-590h-287zM651 844q188 0 262 57.5t74 181.5q0 114 -76.5 171t-259.5 57h-217v-467h217z" />
    <glyph glyph-name="S" unicode="S" horiz-adv-x="1277" 
d="M651 -25q-167 0 -320 67.5t-241 170.5l205 205q74 -74 182 -123t205 -49q112 0 174 48.5t62 121.5q0 66 -51.5 119t-166.5 104l-235 104q-177 78 -257.5 175.5t-80.5 232.5q0 199 149 318.5t381 119.5q286 0 486 -200l-189 -189q-141 127 -295 127q-109 0 -177 -46.5
t-68 -119.5q0 -114 188 -190l232 -94q370 -151 370 -453q0 -139 -73 -242t-197 -155t-283 -52z" />
    <glyph glyph-name="T" unicode="T" horiz-adv-x="1236" 
d="M475 0v1311h-450v254h1187v-254h-450v-1311h-287z" />
    <glyph glyph-name="U" unicode="U" horiz-adv-x="1523" 
d="M762 -25q-131 0 -251 44t-209.5 121.5t-142.5 190t-53 242.5v992h287v-932q0 -165 91.5 -268t277.5 -103t277 103t91 268v932h287v-992q0 -172 -90.5 -310.5t-239.5 -213t-325 -74.5z" />
    <glyph glyph-name="V" unicode="V" horiz-adv-x="1409" 
d="M522 0l-522 1565h303l397 -1239h9l397 1239h303l-522 -1565h-365z" />
    <glyph glyph-name="W" unicode="W" horiz-adv-x="2187" 
d="M381 0l-315 1565h299l204 -1078h9l342 1078h348l342 -1078h8l205 1078h299l-316 -1565h-327l-381 1188h-8l-381 -1188h-328z" />
    <glyph glyph-name="X" unicode="X" horiz-adv-x="1433" 
d="M41 0l512 803l-487 762h327l320 -525h8l328 525h311l-479 -764l512 -801h-328l-352 565h-8l-353 -565h-311z" />
    <glyph glyph-name="Y" unicode="Y" horiz-adv-x="1400" 
d="M557 0v623l-541 942h320l360 -647h9l360 647h319l-540 -942v-623h-287z" />
    <glyph glyph-name="Z" unicode="Z" horiz-adv-x="1409" 
d="M115 0v238l786 1065v8h-770v254h1147v-238l-786 -1065v-8h802v-254h-1179z" />
    <glyph glyph-name="bracketleft" unicode="[" horiz-adv-x="813" 
d="M270 -238v1860h469v-205h-229v-1450h229v-205h-469z" />
    <glyph glyph-name="backslash" unicode="\" horiz-adv-x="878" 
d="M567 0l-469 1589h213l469 -1589h-213z" />
    <glyph glyph-name="bracketright" unicode="]" horiz-adv-x="813" 
d="M543 -238h-469v205h229v1450h-229v205h469v-1860z" />
    <glyph glyph-name="asciicircum" unicode="^" horiz-adv-x="868" 
d="M74 1298l254 271h213l254 -271l-127 -110l-226 242h-16l-225 -242z" />
    <glyph glyph-name="underscore" unicode="_" horiz-adv-x="1024" 
d="M0 -328v230h1024v-230h-1024z" />
    <glyph glyph-name="a" unicode="a" horiz-adv-x="1191" 
d="M102 946q200 197 492 197q230 0 365 -117t135 -344v-682h-279v164h-8q-145 -189 -379 -189q-158 0 -264.5 93.5t-106.5 250.5t123.5 253t337.5 96h297v28q0 98 -70 149.5t-182 51.5q-165 0 -293 -119zM512 463q-95 0 -133.5 -38t-38.5 -93q0 -54 44 -92.5t136 -38.5
q133 0 214 76.5t81 177.5v8h-303z" />
    <glyph glyph-name="b" unicode="b" horiz-adv-x="1318" 
d="M723 -25q-92 0 -168.5 29t-153.5 94h-8v-98h-278v1597h278v-589h8q99 135 310 135q151 0 276 -69.5t200 -201t75 -299.5q0 -176 -73 -313.5t-195.5 -211t-270.5 -73.5zM680 233q139 0 221 93t82 235t-82 235t-221 93t-221 -93t-82 -235t82 -235t221 -93z" />
    <glyph glyph-name="c" unicode="c" horiz-adv-x="1138" 
d="M633 -25q-158 0 -288 70t-209 205t-79 311q0 258 162 422t414 164q286 0 448 -211l-170 -170q-99 127 -262 127q-149 0 -235 -92t-86 -240q0 -141 85.5 -236.5t235.5 -95.5q75 0 134.5 24.5t125.5 84.5l172 -172q-76 -90 -190 -140.5t-258 -50.5z" />
    <glyph glyph-name="d" unicode="d" horiz-adv-x="1318" 
d="M596 -25q-153 0 -276.5 76t-193 208t-69.5 292q0 260 157 426t394 166q211 0 310 -135h8v589h278v-1597h-278v139h-8q-32 -77 -118 -120.5t-204 -43.5zM639 233q139 0 221 93t82 235t-82 235t-221 93t-221 -93t-82 -235t82 -235t221 -93z" />
    <glyph glyph-name="e" unicode="e" horiz-adv-x="1224" 
d="M633 -25q-119 0 -224.5 42t-183.5 117t-123 185t-45 240q0 128 44.5 238.5t121 186.5t181 119.5t221.5 43.5q250 0 392 -161.5t142 -426.5l-4 -84h-825q7 -109 93.5 -177.5t209.5 -68.5q183 0 301 99l164 -166q-78 -86 -204 -136.5t-261 -50.5zM883 684q-7 95 -80.5 152
t-181.5 57q-118 0 -196 -55.5t-95 -153.5h553z" />
    <glyph glyph-name="f" unicode="f" horiz-adv-x="729" 
d="M156 0v909h-107v205h107v254q0 229 229 229h328v-254h-168q-59 0 -85 -27.5t-26 -94.5v-107h279v-205h-279v-909h-278z" />
    <glyph glyph-name="g" unicode="g" horiz-adv-x="1318" 
d="M643 -516q-152 0 -296 58.5t-232 152.5l180 180q75 -68 153.5 -102.5t190.5 -34.5q134 0 210.5 79.5t76.5 190.5v131h-8q-32 -77 -118 -120.5t-204 -43.5q-153 0 -276.5 76t-193 208t-69.5 292q0 260 157 426t394 166q211 0 310 -135h8v106h278v-1114q0 -102 -37 -194
t-105.5 -164.5t-177 -115t-241.5 -42.5zM639 233q139 0 221 93t82 235t-82 235t-221 93t-221 -93t-82 -235t82 -235t221 -93z" />
    <glyph glyph-name="h" unicode="h" horiz-adv-x="1282" 
d="M115 0v1597h278v-655h8q46 84 143.5 140.5t209.5 56.5q195 0 308.5 -111t113.5 -315v-713h-279v623q0 143 -63.5 210.5t-165.5 67.5q-123 0 -199 -77.5t-76 -233.5v-590h-278z" />
    <glyph glyph-name="i" unicode="i" horiz-adv-x="507" 
d="M115 0v1114h278v-1114h-278zM254 1204q-68 0 -116 48t-48 116t48 116t116 48t116 -48t48 -116t-48 -116t-116 -48z" />
    <glyph glyph-name="j" unicode="j" horiz-adv-x="532" 
d="M-82 -442v254h86q59 0 85 27.5t26 94.5v1180h278v-1327q0 -229 -229 -229h-246zM254 1194q-68 0 -116 48t-48 116t48 116t116 48t116 -48t48 -116t-48 -116t-116 -48z" />
    <glyph glyph-name="k" unicode="k" horiz-adv-x="1144" 
d="M115 0v1597h278v-856h107l284 373h328l-385 -502l447 -612h-336l-357 487h-88v-487h-278z" />
    <glyph glyph-name="l" unicode="l" horiz-adv-x="638" 
d="M336 0q-230 0 -230 229v1368h279v-1220q0 -68 26.5 -95.5t84.5 -27.5h135v-254h-295z" />
    <glyph glyph-name="m" unicode="m" horiz-adv-x="2031" 
d="M115 0v1114h278v-172h8q43 87 140.5 142t212.5 55q119 0 218.5 -56t141.5 -149h8q134 205 361 205q202 0 322 -112t120 -298v-729h-278v664q0 120 -66 187t-168 67q-125 0 -189.5 -85.5t-64.5 -226.5v-606h-278v664q0 124 -65.5 189t-168.5 65q-125 0 -189.5 -85.5
t-64.5 -226.5v-606h-278z" />
    <glyph glyph-name="n" unicode="n" horiz-adv-x="1282" 
d="M754 1139q195 0 308.5 -111t113.5 -315v-713h-279v623q0 143 -63.5 210.5t-165.5 67.5q-123 0 -199 -77.5t-76 -233.5v-590h-278v1114h278v-172h8q46 86 140.5 141.5t212.5 55.5z" />
    <glyph glyph-name="o" unicode="o" horiz-adv-x="1277" 
d="M639 -25q-163 0 -295 71t-209.5 205.5t-77.5 309.5q0 254 164.5 420t417.5 166q159 0 291 -70t211.5 -205t79.5 -311q0 -254 -164.5 -420t-417.5 -166zM639 233q139 0 221 93t82 235t-82 235t-221 93t-221 -93t-82 -235t82 -235t221 -93z" />
    <glyph glyph-name="p" unicode="p" horiz-adv-x="1318" 
d="M115 -451v1565h278v-106h8q99 135 310 135q151 0 276 -69.5t200 -201t75 -299.5q0 -176 -73 -313.5t-195.5 -211t-270.5 -73.5q-92 0 -168.5 29t-153.5 94h-8v-549h-278zM680 233q139 0 221 93t82 235t-82 235t-221 93t-221 -93t-82 -235t82 -235t221 -93z" />
    <glyph glyph-name="q" unicode="q" horiz-adv-x="1310" 
d="M926 -451v590h-8q-32 -77 -118 -120.5t-204 -43.5q-153 0 -276.5 76t-193 208t-69.5 292q0 260 157 426t394 166q211 0 310 -135h8v106h278v-1565h-278zM639 233q139 0 221 93t82 235t-82 235t-221 93t-221 -93t-82 -235t82 -235t221 -93z" />
    <glyph glyph-name="r" unicode="r" horiz-adv-x="872" 
d="M115 0v1114h278v-156h8q19 73 87.5 122.5t183.5 49.5h151v-253h-151q-279 0 -279 -295v-582h-278z" />
    <glyph glyph-name="s" unicode="s" horiz-adv-x="1064" 
d="M541 -25q-153 0 -275 50t-192 122l172 172q117 -114 303 -114q67 0 115.5 29t48.5 81q0 51 -44 79t-128 48l-90 21q-169 39 -257 121t-88 204q0 157 132.5 258t326.5 101q114 0 223 -43.5t179 -124.5l-164 -164q-99 107 -238 107q-85 0 -132.5 -30.5t-47.5 -80.5
q0 -38 40 -65.5t140 -51.5l70 -16q356 -83 356 -342q0 -157 -131 -259t-319 -102z" />
    <glyph glyph-name="t" unicode="t" horiz-adv-x="770" 
d="M377 0q-230 0 -230 229v680h-98v205h98v287h279v-287h287v-205h-287v-532q0 -68 26.5 -95.5t84.5 -27.5h176v-254h-336z" />
    <glyph glyph-name="u" unicode="u" horiz-adv-x="1282" 
d="M537 -25q-192 0 -311.5 118t-119.5 308v713h279v-622q0 -144 63.5 -211.5t165.5 -67.5q125 0 200 79t75 249v573h278v-1114h-278v172h-8q-47 -87 -137 -142t-207 -55z" />
    <glyph glyph-name="v" unicode="v" horiz-adv-x="1171" 
d="M426 0l-410 1114h295l271 -795h8l270 795h295l-410 -1114h-319z" />
    <glyph glyph-name="w" unicode="w" horiz-adv-x="1826" 
d="M369 0l-312 1114h287l186 -735h9l206 735h336l207 -735h8l187 735h286l-311 -1114h-311l-229 778h-9l-229 -778h-311z" />
    <glyph glyph-name="x" unicode="x" horiz-adv-x="1173" 
d="M41 0l381 569v9l-361 536h312l217 -334h8l223 334h312l-377 -563v-8l364 -543h-311l-221 340h-8l-228 -340h-311z" />
    <glyph glyph-name="y" unicode="y" horiz-adv-x="1163" 
d="M160 -459v254h139q72 0 97.5 22t62.5 113l24 62v8h-57l-410 1114h275l291 -795h8l284 795h273l-459 -1274q-23 -65 -38 -102.5t-35 -76t-38 -57.5t-44 -35.5t-57.5 -22t-74.5 -5.5h-241z" />
    <glyph glyph-name="z" unicode="z" horiz-adv-x="1099" 
d="M98 0v188l535 713v8h-535v205h887v-188l-534 -713v-8h550v-205h-903z" />
    <glyph glyph-name="braceleft" unicode="{" horiz-adv-x="770" 
d="M623 -229q-155 0 -249.5 91t-94.5 244v320q0 88 -38.5 142.5t-109.5 54.5v155q71 0 109.5 54.5t38.5 142.5v319q0 153 94.5 244.5t249.5 91.5h82v-196h-23q-89 0 -135.5 -51.5t-46.5 -145.5v-303q0 -178 -148 -229v-9q148 -51 148 -223v-309q0 -94 46.5 -145.5
t135.5 -51.5h23v-196h-82z" />
    <glyph glyph-name="bar" unicode="|" horiz-adv-x="835" 
d="M287 -451v2081h262v-2081h-262z" />
    <glyph glyph-name="braceright" unicode="}" horiz-adv-x="770" 
d="M147 -229h-81v196h22q89 0 135.5 51.5t46.5 145.5v309q0 172 148 223v9q-148 51 -148 229v303q0 94 -46.5 145.5t-135.5 51.5h-22v196h81q155 0 250 -91.5t95 -244.5v-319q0 -88 38 -142.5t109 -54.5v-155q-71 0 -109 -54.5t-38 -142.5v-320q0 -153 -95 -244t-250 -91z
" />
    <glyph glyph-name="asciitilde" unicode="~" horiz-adv-x="1392" 
d="M147 547q82 108 171 162.5t196 54.5q104 0 207 -64q96 -61 162 -61q101 0 182 98l180 -164q-77 -101 -161 -144.5t-185 -43.5q-110 0 -217 64q-4 2 -26 14t-28 15t-24 11t-28 10.5t-24.5 5.5t-27.5 3q-113 0 -200 -121z" />
    <glyph glyph-name="exclamdown" unicode="&#xa1;" horiz-adv-x="524" 
d="M184 573h189l24 -673v-334h-237v336zM262 1024q73 0 122.5 -50t49.5 -122q0 -74 -49 -123t-123 -49q-72 0 -122 49.5t-50 122.5q0 72 50 122t122 50z" />
    <glyph glyph-name="cent" unicode="&#xa2;" horiz-adv-x="1138" 
d="M559 -147v331q-218 26 -360 182.5t-142 399.5q0 238 139 397.5t363 184.5v356h139v-356q243 -23 383 -207l-170 -170q-84 109 -213 125v-660q107 12 211 107l172 -172q-143 -168 -383 -189v-329h-139zM328 766q0 -118 61 -206.5t170 -115.5v643q-108 -26 -169.5 -112.5
t-61.5 -208.5z" />
    <glyph glyph-name="sterling" unicode="&#xa3;" horiz-adv-x="1439" 
d="M178 172q150 177 150 393q0 28 -4 74h-201v180h166l-23 70q-30 91 -30 180q0 138 67.5 253.5t185.5 183t259 67.5q153 0 260.5 -57.5t208.5 -204.5l-164 -166q-59 86 -128.5 133t-166.5 47q-106 0 -164.5 -76.5t-58.5 -206.5q0 -78 26 -163l21 -62l434 -2v-176h-402v-35
q0 -199 -106 -356v-10h428q86 0 142 34t120 123l168 -162q-61 -81 -114.5 -127.5t-139 -76t-203.5 -29.5h-731v172z" />
    <glyph glyph-name="yen" unicode="&#xa5;" horiz-adv-x="1466" 
d="M590 0v270h-328v181h328v139h-328v180h244l-457 795h320l360 -647h8l361 647h319l-456 -795h243v-180h-327v-139h327v-181h-327v-270h-287z" />
    <glyph glyph-name="brokenbar" unicode="&#xa6;" horiz-adv-x="835" 
d="M287 721v909h262v-909h-262zM287 -451v910h262v-910h-262z" />
    <glyph glyph-name="section" unicode="&#xa7;" horiz-adv-x="1064" 
d="M541 -74q-153 0 -275 50t-192 122l172 172q117 -114 303 -114q67 0 115.5 29t48.5 81q0 51 -44 79t-128 48l-90 21q-169 39 -257 121t-88 204q0 140 109 238q-109 92 -109 237q0 157 132.5 258t326.5 101q114 0 223 -43.5t179 -124.5l-164 -164q-99 107 -238 107
q-85 0 -132.5 -30.5t-47.5 -80.5q0 -38 40 -65.5t140 -51.5l70 -16q356 -83 356 -342q0 -140 -104 -236q104 -96 104 -239q0 -157 -131 -259t-319 -102zM385 770q0 -40 25.5 -67t60.5 -35l170 -41q42 0 69 28t27 72q0 46 -36 80.5t-93 46.5l-114 27q-46 -8 -77.5 -37
t-31.5 -74z" />
    <glyph glyph-name="copyright" unicode="&#xa9;" horiz-adv-x="1785" 
d="M893 -25q-159 0 -304 62t-249.5 167t-166.5 250t-62 304q0 158 62 303t166.5 250t249.5 167t304 62t304 -62t249.5 -167t166.5 -250t62 -303q0 -159 -62 -304t-166.5 -250t-249.5 -167t-304 -62zM901 383q-161 0 -263.5 109t-102.5 274t110.5 274t263.5 109q86 0 153 -32
t130 -101l-119 -121q-39 43 -75 62.5t-91 19.5q-77 0 -136.5 -53.5t-59.5 -151.5t60.5 -157.5t135.5 -59.5q108 0 180 88l113 -117q-47 -61 -126 -102t-173 -41zM893 150q165 0 305 81t221.5 221t81.5 306q0 165 -81 304.5t-221 220.5t-306 81t-306 -81t-221 -220.5
t-81 -304.5q0 -166 81.5 -306t221.5 -221t305 -81z" />
    <glyph glyph-name="guillemotleft" unicode="&#xab;" horiz-adv-x="1363" 
d="M967 74l-449 475v8l449 475l135 -127l-328 -348v-8l328 -346zM549 45l-467 504v8l467 504l137 -127l-350 -377v-8l350 -377z" />
    <glyph glyph-name="logicalnot" unicode="&#xac;" horiz-adv-x="1318" 
d="M147 508v237h1024v-458h-245v221h-779z" />
    <glyph glyph-name="registered" unicode="&#xae;" horiz-adv-x="1081" 
d="M541 696q-186 0 -318.5 130.5t-132.5 320.5t130 320t321 130t320.5 -129.5t129.5 -320.5q0 -127 -62 -231t-165 -162t-223 -58zM541 803q143 0 243.5 100.5t100.5 243.5q0 141 -101.5 242.5t-242.5 101.5t-242.5 -101.5t-101.5 -242.5q0 -143 100.5 -243.5t243.5 -100.5z
M389 930v440h176q64 0 108 -36t44 -97q0 -49 -26.5 -87t-72.5 -50v-2l103 -168h-103l-94 160h-45v-160h-90zM557 1169q32 0 51 16.5t19 47.5q0 57 -70 57h-78v-121h78z" />
    <glyph glyph-name="degree" unicode="&#xb0;" horiz-adv-x="638" 
d="M319 934q-132 0 -225.5 93.5t-93.5 225.5t93.5 226t225.5 94t226 -94t94 -226t-94 -225.5t-226 -93.5zM319 1110q60 0 102 41.5t42 101.5t-42 102t-102 42t-101.5 -42t-41.5 -102t41.5 -101.5t101.5 -41.5z" />
    <glyph glyph-name="plusminus" unicode="&#xb1;" horiz-adv-x="1327" 
d="M537 254v422h-390v237h390v422h245v-422h389v-237h-389v-422h-245zM150 -160v238h1030v-238h-1030z" />
    <glyph glyph-name="uni00B2" unicode="&#xb2;" horiz-adv-x="702" 
d="M72 829v162l233 219q68 63 98.5 106t30.5 89q0 94 -94 94q-51 0 -76 -31.5t-18 -93.5h-189q-8 133 71.5 216t217.5 83q117 0 198 -70t81 -186q0 -92 -44 -165.5t-153 -168.5l-76 -65v-4h285v-185h-565z" />
    <glyph glyph-name="uni00B3" unicode="&#xb3;" horiz-adv-x="651" 
d="M299 815q-96 0 -174 40.5t-109 98.5l129 129q57 -84 144 -84q54 0 84 23.5t30 62.5q0 93 -108 93h-82v168h84q41 0 62.5 23.5t21.5 60.5q0 67 -76 67q-21 0 -44 -9t-33 -15t-37.5 -28t-28.5 -22l-117 117q16 34 98 82.5t168 48.5q111 0 183.5 -63.5t72.5 -165.5
q0 -75 -34.5 -123.5t-71.5 -50.5v-4q42 0 87.5 -48t45.5 -133q0 -123 -83 -195.5t-212 -72.5z" />
    <glyph glyph-name="paragraph" unicode="&#xb6;" horiz-adv-x="1642" 
d="M1028 0h-287v590q-126 0 -232 34.5t-182.5 99.5t-119.5 165t-43 225q0 115 38 202.5t108 141.5t163 80.5t207 26.5h348v-1565zM1397 0h-287v1565h287v-1565z" />
    <glyph glyph-name="periodcentered" unicode="&#xb7;" horiz-adv-x="712" 
d="M356 369q-75 0 -129.5 54.5t-54.5 129.5q0 77 54 130.5t130 53.5q78 0 131.5 -53t53.5 -131q0 -76 -54 -130t-131 -54z" />
    <glyph glyph-name="uni00B9" unicode="&#xb9;" horiz-adv-x="534" 
d="M227 827v605h-4l-104 -74l-86 135l235 166h152v-832h-193z" />
    <glyph glyph-name="guillemotright" unicode="&#xbb;" horiz-adv-x="1363" 
d="M397 74l-135 129l328 346v8l-328 348l135 127l449 -475v-8zM815 45l-137 127l350 377v8l-350 377l137 127l467 -504v-8z" />
    <glyph glyph-name="onequarter" unicode="&#xbc;" horiz-adv-x="1480" 
d="M227 737v604h-4l-104 -73l-86 135l235 166h152v-832h-193zM141 0l879 1589h156l-879 -1589h-156zM1161 0v152h-346v139l348 540h191v-507h94v-172h-94v-152h-193zM1047 324h114v176h-4l-110 -172v-4z" />
    <glyph glyph-name="onehalf" unicode="&#xbd;" horiz-adv-x="1484" 
d="M227 737v604h-4l-104 -73l-86 135l235 166h152v-832h-193zM141 0l879 1589h156l-879 -1589h-156zM854 2v162l233 219q69 64 99.5 106.5t30.5 88.5q0 94 -95 94q-51 0 -76 -31.5t-18 -93.5h-188q-8 133 71 216t217 83q117 0 198 -70t81 -186q0 -92 -44 -165.5t-153 -168.5
l-75 -66v-4h284v-184h-565z" />
    <glyph glyph-name="threequarters" unicode="&#xbe;" horiz-adv-x="1597" 
d="M299 725q-96 0 -174 40.5t-109 98.5l129 129q57 -84 144 -84q54 0 84 23.5t30 62.5q0 92 -108 92h-82v168h84q41 0 62.5 23.5t21.5 60.5q0 68 -76 68q-21 0 -44 -9t-33 -15t-37.5 -28t-28.5 -22l-117 117q16 34 98 82.5t168 48.5q111 0 183.5 -63.5t72.5 -165.5
q0 -75 -34.5 -123.5t-71.5 -50.5v-4q42 0 87.5 -48t45.5 -133q0 -123 -83 -195.5t-212 -72.5zM258 0l879 1589h155l-878 -1589h-156zM1278 0v152h-346v139l348 540h190v-507h95v-172h-95v-152h-192zM1163 324h115v176h-4l-111 -172v-4z" />
    <glyph glyph-name="questiondown" unicode="&#xbf;" horiz-adv-x="1015" 
d="M655 502q0 -107 -29 -175t-85 -124q-18 -18 -54.5 -49t-61 -54.5t-51.5 -54.5t-41 -63.5t-14 -65.5q0 -67 49 -109.5t124 -42.5q172 0 286 164l148 -147q-86 -115 -194.5 -176.5t-227.5 -61.5q-187 0 -300.5 103.5t-113.5 281.5q0 87 48.5 169t172.5 186q131 107 131 219
v57h213v-57zM539 1026q63 0 107 -44.5t44 -107.5q0 -65 -43.5 -108t-107.5 -43t-108 43t-44 108q0 63 44.5 107.5t107.5 44.5z" />
    <glyph glyph-name="Agrave" unicode="&#xc0;" 
d="M25 0l532 1565h381l532 -1565h-286l-137 401h-598l-138 -401h-286zM535 655h426l-209 615h-9zM670 1688l-279 278h262l238 -278h-221z" />
    <glyph glyph-name="Aacute" unicode="&#xc1;" 
d="M25 0l532 1565h381l532 -1565h-286l-137 401h-598l-138 -401h-286zM535 655h426l-209 615h-9zM604 1688l238 278h262l-279 -278h-221z" />
    <glyph glyph-name="Acircumflex" unicode="&#xc2;" 
d="M25 0l532 1565h381l532 -1565h-286l-137 401h-598l-138 -401h-286zM535 655h426l-209 615h-9zM387 1649l254 270h213l254 -270h-221l-131 131h-17l-131 -131h-221z" />
    <glyph glyph-name="Atilde" unicode="&#xc3;" 
d="M25 0l532 1565h381l532 -1565h-286l-137 401h-598l-138 -401h-286zM535 655h426l-209 615h-9zM428 1669q0 120 58.5 204.5t138.5 84.5q75 -3 155 -66q71 -53 111 -53q57 0 57 129h139q0 -146 -50 -222.5t-144 -76.5q-69 0 -145 55q-74 53 -113 56q-35 0 -53.5 -30.5
t-18.5 -80.5h-135z" />
    <glyph glyph-name="Egrave" unicode="&#xc8;" horiz-adv-x="1196" 
d="M147 0v1565h934v-254h-647v-373h598v-254h-598v-430h656v-254h-943zM543 1704l-279 278h262l238 -278h-221z" />
    <glyph glyph-name="Eacute" unicode="&#xc9;" horiz-adv-x="1196" 
d="M147 0v1565h934v-254h-647v-373h598v-254h-598v-430h656v-254h-943zM477 1704l238 278h262l-279 -278h-221z" />
    <glyph glyph-name="Ecircumflex" unicode="&#xca;" horiz-adv-x="1196" 
d="M147 0v1565h934v-254h-647v-373h598v-254h-598v-430h656v-254h-943zM260 1665l254 270h213l254 -270h-221l-131 131h-17l-131 -131h-221z" />
    <glyph glyph-name="Igrave" unicode="&#xcc;" horiz-adv-x="581" 
d="M147 0v1565h287v-1565h-287zM213 1688l-279 278h263l237 -278h-221z" />
    <glyph glyph-name="Iacute" unicode="&#xcd;" horiz-adv-x="581" 
d="M147 0v1565h287v-1565h-287zM147 1688l238 278h262l-278 -278h-222z" />
    <glyph glyph-name="Ograve" unicode="&#xd2;" horiz-adv-x="1744" 
d="M872 -25q-167 0 -314.5 62t-254 169t-168 257t-61.5 319q0 142 42 269.5t117.5 224.5t175 168t218.5 108t245 37q160 0 305.5 -59.5t254.5 -163.5t174 -256.5t65 -327.5q0 -143 -42.5 -271t-117.5 -225t-175 -167.5t-219 -107t-245 -36.5zM872 238q104 0 198.5 40
t165 110t112 172.5t41.5 221.5q0 112 -39.5 212.5t-107.5 173.5t-164.5 116t-205.5 43q-104 0 -198 -40t-164.5 -110.5t-112 -173t-41.5 -221.5q0 -150 66.5 -274.5t185 -197t264.5 -72.5zM795 1704l-279 278h262l238 -278h-221z" />
    <glyph glyph-name="Oacute" unicode="&#xd3;" horiz-adv-x="1744" 
d="M872 -25q-167 0 -314.5 62t-254 169t-168 257t-61.5 319q0 142 42 269.5t117.5 224.5t175 168t218.5 108t245 37q160 0 305.5 -59.5t254.5 -163.5t174 -256.5t65 -327.5q0 -143 -42.5 -271t-117.5 -225t-175 -167.5t-219 -107t-245 -36.5zM872 238q104 0 198.5 40
t165 110t112 172.5t41.5 221.5q0 112 -39.5 212.5t-107.5 173.5t-164.5 116t-205.5 43q-104 0 -198 -40t-164.5 -110.5t-112 -173t-41.5 -221.5q0 -150 66.5 -274.5t185 -197t264.5 -72.5zM729 1704l238 278h262l-279 -278h-221z" />
    <glyph glyph-name="Ocircumflex" unicode="&#xd4;" horiz-adv-x="1744" 
d="M872 -25q-167 0 -314.5 62t-254 169t-168 257t-61.5 319q0 142 42 269.5t117.5 224.5t175 168t218.5 108t245 37q160 0 305.5 -59.5t254.5 -163.5t174 -256.5t65 -327.5q0 -143 -42.5 -271t-117.5 -225t-175 -167.5t-219 -107t-245 -36.5zM872 238q104 0 198.5 40
t165 110t112 172.5t41.5 221.5q0 112 -39.5 212.5t-107.5 173.5t-164.5 116t-205.5 43q-104 0 -198 -40t-164.5 -110.5t-112 -173t-41.5 -221.5q0 -150 66.5 -274.5t185 -197t264.5 -72.5zM512 1665l254 270h213l254 -270h-221l-131 131h-17l-131 -131h-221z" />
    <glyph glyph-name="Otilde" unicode="&#xd5;" horiz-adv-x="1744" 
d="M872 -25q-167 0 -314.5 62t-254 169t-168 257t-61.5 319q0 142 42 269.5t117.5 224.5t175 168t218.5 108t245 37q160 0 305.5 -59.5t254.5 -163.5t174 -256.5t65 -327.5q0 -143 -42.5 -271t-117.5 -225t-175 -167.5t-219 -107t-245 -36.5zM872 238q104 0 198.5 40
t165 110t112 172.5t41.5 221.5q0 112 -39.5 212.5t-107.5 173.5t-164.5 116t-205.5 43q-104 0 -198 -40t-164.5 -110.5t-112 -173t-41.5 -221.5q0 -150 66.5 -274.5t185 -197t264.5 -72.5zM553 1686q0 120 58.5 204t138.5 84q76 -3 155 -65q73 -54 111 -54q57 0 57 130h139
q0 -146 -50 -222.5t-144 -76.5q-70 0 -146 55q-73 52 -112 55q-35 0 -53.5 -30.5t-18.5 -79.5h-135z" />
    <glyph glyph-name="multiply" unicode="&#xd7;" horiz-adv-x="1251" 
d="M299 154l328 327l325 -327l160 159l-326 328l326 326l-160 159l-325 -325l-328 325l-160 -159l488 -486l159 160l-159 160l-488 -488z" />
    <glyph glyph-name="Ugrave" unicode="&#xd9;" horiz-adv-x="1523" 
d="M762 -25q-131 0 -251 44t-209.5 121.5t-142.5 190t-53 242.5v992h287v-932q0 -165 91.5 -268t277.5 -103t277 103t91 268v932h287v-992q0 -172 -90.5 -310.5t-239.5 -213t-325 -74.5zM692 1688l-278 278h262l237 -278h-221z" />
    <glyph glyph-name="Uacute" unicode="&#xda;" horiz-adv-x="1523" 
d="M762 -25q-131 0 -251 44t-209.5 121.5t-142.5 190t-53 242.5v992h287v-932q0 -165 91.5 -268t277.5 -103t277 103t91 268v932h287v-992q0 -172 -90.5 -310.5t-239.5 -213t-325 -74.5zM627 1688l237 278h262l-278 -278h-221z" />
    <glyph glyph-name="Yacute" unicode="&#xdd;" horiz-adv-x="1400" 
d="M557 0v623l-541 942h320l360 -647h9l360 647h319l-540 -942v-623h-287zM557 1688l238 278h262l-279 -278h-221z" />
    <glyph glyph-name="agrave" unicode="&#xe0;" horiz-adv-x="1191" 
d="M102 946q200 197 492 197q230 0 365 -117t135 -344v-682h-279v164h-8q-145 -189 -379 -189q-158 0 -264.5 93.5t-106.5 250.5t123.5 253t337.5 96h297v28q0 98 -70 149.5t-182 51.5q-165 0 -293 -119zM512 463q-95 0 -133.5 -38t-38.5 -93q0 -54 44 -92.5t136 -38.5
q133 0 214 76.5t81 177.5v8h-303zM528 1276l-278 278h262l238 -278h-222z" />
    <glyph glyph-name="aacute" unicode="&#xe1;" horiz-adv-x="1191" 
d="M102 946q200 197 492 197q230 0 365 -117t135 -344v-682h-279v164h-8q-145 -189 -379 -189q-158 0 -264.5 93.5t-106.5 250.5t123.5 253t337.5 96h297v28q0 98 -70 149.5t-182 51.5q-165 0 -293 -119zM512 463q-95 0 -133.5 -38t-38.5 -93q0 -54 44 -92.5t136 -38.5
q133 0 214 76.5t81 177.5v8h-303zM463 1276l237 278h263l-279 -278h-221z" />
    <glyph glyph-name="acircumflex" unicode="&#xe2;" horiz-adv-x="1191" 
d="M102 946q200 197 492 197q230 0 365 -117t135 -344v-682h-279v164h-8q-145 -189 -379 -189q-158 0 -264.5 93.5t-106.5 250.5t123.5 253t337.5 96h297v28q0 98 -70 149.5t-182 51.5q-165 0 -293 -119zM512 463q-95 0 -133.5 -38t-38.5 -93q0 -54 44 -92.5t136 -38.5
q133 0 214 76.5t81 177.5v8h-303zM246 1237l254 270h213l254 -270h-222l-131 131h-16l-131 -131h-221z" />
    <glyph glyph-name="atilde" unicode="&#xe3;" horiz-adv-x="1191" 
d="M102 946q200 197 492 197q230 0 365 -117t135 -344v-682h-279v164h-8q-145 -189 -379 -189q-158 0 -264.5 93.5t-106.5 250.5t123.5 253t337.5 96h297v28q0 98 -70 149.5t-182 51.5q-165 0 -293 -119zM512 463q-95 0 -133.5 -38t-38.5 -93q0 -54 44 -92.5t136 -38.5
q133 0 214 76.5t81 177.5v8h-303zM287 1257q0 121 58 205t138 84q77 -3 156 -65q73 -54 111 -54q57 0 57 129h139q0 -146 -50 -222.5t-144 -76.5q-69 0 -146 56q-73 52 -112 55q-35 0 -53.5 -30.5t-18.5 -80.5h-135z" />
    <glyph glyph-name="egrave" unicode="&#xe8;" horiz-adv-x="1224" 
d="M633 -25q-119 0 -224.5 42t-183.5 117t-123 185t-45 240q0 128 44.5 238.5t121 186.5t181 119.5t221.5 43.5q250 0 392 -161.5t142 -426.5l-4 -84h-825q7 -109 93.5 -177.5t209.5 -68.5q183 0 301 99l164 -166q-78 -86 -204 -136.5t-261 -50.5zM883 684q-7 95 -80.5 152
t-181.5 57q-118 0 -196 -55.5t-95 -153.5h553zM555 1298l-279 279h263l237 -279h-221z" />
    <glyph glyph-name="eacute" unicode="&#xe9;" horiz-adv-x="1224" 
d="M633 -25q-119 0 -224.5 42t-183.5 117t-123 185t-45 240q0 128 44.5 238.5t121 186.5t181 119.5t221.5 43.5q250 0 392 -161.5t142 -426.5l-4 -84h-825q7 -109 93.5 -177.5t209.5 -68.5q183 0 301 99l164 -166q-78 -86 -204 -136.5t-261 -50.5zM883 684q-7 95 -80.5 152
t-181.5 57q-118 0 -196 -55.5t-95 -153.5h553zM489 1298l238 279h262l-278 -279h-222z" />
    <glyph glyph-name="ecircumflex" unicode="&#xea;" horiz-adv-x="1224" 
d="M633 -25q-119 0 -224.5 42t-183.5 117t-123 185t-45 240q0 128 44.5 238.5t121 186.5t181 119.5t221.5 43.5q250 0 392 -161.5t142 -426.5l-4 -84h-825q7 -109 93.5 -177.5t209.5 -68.5q183 0 301 99l164 -166q-78 -86 -204 -136.5t-261 -50.5zM883 684q-7 95 -80.5 152
t-181.5 57q-118 0 -196 -55.5t-95 -153.5h553zM272 1260l254 270h213l254 -270h-221l-131 131h-16l-131 -131h-222z" />
    <glyph glyph-name="igrave" unicode="&#xec;" horiz-adv-x="507" 
d="M115 0v1114h278v-1114h-278zM176 1262l-278 278h262l237 -278h-221z" />
    <glyph glyph-name="iacute" unicode="&#xed;" horiz-adv-x="507" 
d="M115 0v1114h278v-1114h-278zM111 1262l237 278h262l-278 -278h-221z" />
    <glyph glyph-name="ograve" unicode="&#xf2;" horiz-adv-x="1277" 
d="M639 -25q-163 0 -295 71t-209.5 205.5t-77.5 309.5q0 254 164.5 420t417.5 166q159 0 291 -70t211.5 -205t79.5 -311q0 -254 -164.5 -420t-417.5 -166zM639 233q139 0 221 93t82 235t-82 235t-221 93t-221 -93t-82 -235t82 -235t221 -93zM561 1278l-278 278h262l237 -278
h-221z" />
    <glyph glyph-name="oacute" unicode="&#xf3;" horiz-adv-x="1277" 
d="M639 -25q-163 0 -295 71t-209.5 205.5t-77.5 309.5q0 254 164.5 420t417.5 166q159 0 291 -70t211.5 -205t79.5 -311q0 -254 -164.5 -420t-417.5 -166zM639 233q139 0 221 93t82 235t-82 235t-221 93t-221 -93t-82 -235t82 -235t221 -93zM496 1278l237 278h262l-278 -278
h-221z" />
    <glyph glyph-name="ocircumflex" unicode="&#xf4;" horiz-adv-x="1277" 
d="M639 -25q-163 0 -295 71t-209.5 205.5t-77.5 309.5q0 254 164.5 420t417.5 166q159 0 291 -70t211.5 -205t79.5 -311q0 -254 -164.5 -420t-417.5 -166zM639 233q139 0 221 93t82 235t-82 235t-221 93t-221 -93t-82 -235t82 -235t221 -93zM279 1239l253 270h213l254 -270
h-221l-131 131h-16l-131 -131h-221z" />
    <glyph glyph-name="otilde" unicode="&#xf5;" horiz-adv-x="1277" 
d="M639 -25q-163 0 -295 71t-209.5 205.5t-77.5 309.5q0 254 164.5 420t417.5 166q159 0 291 -70t211.5 -205t79.5 -311q0 -254 -164.5 -420t-417.5 -166zM639 233q139 0 221 93t82 235t-82 235t-221 93t-221 -93t-82 -235t82 -235t221 -93zM319 1260q0 120 58.5 204
t138.5 84q77 -3 156 -65q71 -53 110 -53q58 0 58 129h139q0 -146 -50.5 -222.5t-144.5 -76.5q-69 0 -145 55q-73 52 -113 55q-35 0 -53 -30t-18 -80h-136z" />
    <glyph glyph-name="divide" unicode="&#xf7;" horiz-adv-x="1277" 
d="M147 483v238h983v-238h-983zM639 66q-60 0 -103.5 43t-43.5 104q0 60 43.5 103.5t103.5 43.5t103.5 -43.5t43.5 -103.5q0 -61 -43.5 -104t-103.5 -43zM639 844q-60 0 -103.5 43.5t-43.5 103.5t43.5 104t103.5 44t103.5 -44t43.5 -104t-43.5 -103.5t-103.5 -43.5z" />
    <glyph glyph-name="ugrave" unicode="&#xf9;" horiz-adv-x="1282" 
d="M537 -25q-192 0 -311.5 118t-119.5 308v713h279v-622q0 -144 63.5 -211.5t165.5 -67.5q125 0 200 79t75 249v573h278v-1114h-278v172h-8q-47 -87 -137 -142t-207 -55zM563 1262l-278 278h262l237 -278h-221z" />
    <glyph glyph-name="uacute" unicode="&#xfa;" horiz-adv-x="1282" 
d="M537 -25q-192 0 -311.5 118t-119.5 308v713h279v-622q0 -144 63.5 -211.5t165.5 -67.5q125 0 200 79t75 249v573h278v-1114h-278v172h-8q-47 -87 -137 -142t-207 -55zM498 1262l237 278h262l-278 -278h-221z" />
    <glyph glyph-name="yacute" unicode="&#xfd;" horiz-adv-x="1163" 
d="M160 -459v254h139q72 0 97.5 22t62.5 113l24 62v8h-57l-410 1114h275l291 -795h8l284 795h273l-459 -1274q-23 -65 -38 -102.5t-35 -76t-38 -57.5t-44 -35.5t-57.5 -22t-74.5 -5.5h-241zM469 1262l238 278h262l-279 -278h-221z" />
    <glyph glyph-name="Abreve" unicode="&#x102;" 
d="M25 0l532 1565h381l532 -1565h-286l-137 401h-598l-138 -401h-286zM535 655h426l-209 615h-9zM748 1638q-74 0 -117.5 10.5t-87.5 39.5q-62 46 -82 122q-17 66 -17 132h148q8 -46 24 -82q16 -37 46 -50q13 -8 86 -8q70 0 86 8q29 12 45 50q16 36 24 82h148
q0 -66 -17 -132q-20 -76 -82 -122q-44 -29 -87 -39.5t-117 -10.5z" />
    <glyph glyph-name="abreve" unicode="&#x103;" horiz-adv-x="1191" 
d="M102 946q200 197 492 197q230 0 365 -117t135 -344v-682h-279v164h-8q-145 -189 -379 -189q-158 0 -264.5 93.5t-106.5 250.5t123.5 253t337.5 96h297v28q0 98 -70 149.5t-182 51.5q-165 0 -293 -119zM512 463q-95 0 -133.5 -38t-38.5 -93q0 -54 44 -92.5t136 -38.5
q133 0 214 76.5t81 177.5v8h-303zM606 1227q-75 0 -118 10t-87 39q-62 46 -82 123q-16 62 -16 131h148q8 -46 24 -82t45 -49q13 -8 86 -8q70 0 86 8q29 13 45 49q17 40 25 82h147q0 -69 -16 -131q-20 -77 -82 -123q-44 -29 -87 -39t-118 -10z" />
    <glyph glyph-name="Dcroat" unicode="&#x110;" horiz-adv-x="1576" 
d="M147 0v655h-73v254h73v656h574q373 0 577.5 -194.5t204.5 -539.5q0 -245 -104 -434t-293 -293t-434 -104h-525zM707 254q225 0 371.5 157.5t146.5 397.5q0 234 -132.5 368t-365.5 134h-293v-402h332v-254h-332v-401h273z" />
    <glyph glyph-name="dcroat" unicode="&#x111;" horiz-adv-x="1318" 
d="M596 -25q-153 0 -276.5 76t-193 208t-69.5 292q0 260 157 426t394 166q211 0 310 -135h8v262h-221v205h221v122h278v-122h58v-205h-58v-1270h-278v139h-8q-32 -77 -118 -120.5t-204 -43.5zM639 233q139 0 221 93t82 235t-82 235t-221 93t-221 -93t-82 -235t82 -235
t221 -93z" />
    <glyph glyph-name="Itilde" unicode="&#x128;" horiz-adv-x="581" 
d="M147 0v1565h287v-1565h-287zM-29 1669q0 120 58.5 204.5t138.5 84.5q76 -3 156 -66q71 -53 110 -53q58 0 58 129h139q0 -146 -50.5 -222.5t-144.5 -76.5q-69 0 -145 55q-74 53 -113 56q-35 0 -53.5 -30.5t-18.5 -80.5h-135z" />
    <glyph glyph-name="itilde" unicode="&#x129;" horiz-adv-x="507" 
d="M115 0v1114h278v-1114h-278zM-66 1243q0 120 58.5 204.5t138.5 84.5q76 -3 156 -66q71 -53 110 -53q58 0 58 129h139q0 -146 -50.5 -222.5t-144.5 -76.5q-69 0 -145 55q-74 53 -113 56q-35 0 -53 -30.5t-18 -80.5h-136z" />
    <glyph glyph-name="Utilde" unicode="&#x168;" horiz-adv-x="1523" 
d="M762 -25q-131 0 -251 44t-209.5 121.5t-142.5 190t-53 242.5v992h287v-932q0 -165 91.5 -268t277.5 -103t277 103t91 268v932h287v-992q0 -172 -90.5 -310.5t-239.5 -213t-325 -74.5zM451 1669q0 121 58 205t138 84q76 -3 156 -66q71 -53 110 -53q58 0 58 129h139
q0 -146 -50.5 -222.5t-144.5 -76.5q-69 0 -145 55q-74 53 -113 56q-35 0 -53 -30.5t-18 -80.5h-135z" />
    <glyph glyph-name="utilde" unicode="&#x169;" horiz-adv-x="1282" 
d="M537 -25q-192 0 -311.5 118t-119.5 308v713h279v-622q0 -144 63.5 -211.5t165.5 -67.5q125 0 200 79t75 249v573h278v-1114h-278v172h-8q-47 -87 -137 -142t-207 -55zM322 1243q0 121 58 205t138 84q76 -3 156 -66q71 -53 110 -53q58 0 58 129h139q0 -146 -50.5 -222.5
t-144.5 -76.5q-69 0 -145 55q-74 53 -113 56q-35 0 -53 -30.5t-18 -80.5h-135z" />
    <glyph glyph-name="Ohorn" unicode="&#x1a0;" horiz-adv-x="1744" 
d="M872 -25q-167 0 -314.5 62t-254 169t-168 257t-61.5 319q0 142 42 269.5t117.5 224.5t175 168t218.5 108t245 37q222 0 406 -108q31 25 31 80q0 59 -35 118h205q22 -55 22 -129q0 -101 -96 -157q125 -110 195.5 -267.5t70.5 -343.5q0 -143 -42.5 -271t-117.5 -225
t-175 -167.5t-219 -107t-245 -36.5zM872 238q104 0 198.5 40t165 110t112 172.5t41.5 221.5q0 112 -39.5 212.5t-107.5 173.5t-164.5 116t-205.5 43q-104 0 -198 -40t-164.5 -110.5t-112 -173t-41.5 -221.5q0 -150 66.5 -274.5t185 -197t264.5 -72.5z" />
    <glyph glyph-name="ohorn" unicode="&#x1a1;" horiz-adv-x="1273" 
d="M639 -25q-163 0 -295 71t-209.5 205.5t-77.5 309.5q0 254 164.5 420t417.5 166q176 0 317 -86q45 20 45 88q0 61 -34 119h204q23 -58 23 -129q0 -58 -32.5 -102.5t-90.5 -69.5q150 -160 150 -406q0 -254 -164.5 -420t-417.5 -166zM639 233q139 0 221 93t82 235t-82 235
t-221 93t-221 -93t-82 -235t82 -235t221 -93z" />
    <glyph glyph-name="Uhorn" unicode="&#x1af;" horiz-adv-x="1570" 
d="M762 -25q-131 0 -251 44t-209.5 121.5t-142.5 190t-53 242.5v992h287v-932q0 -165 91.5 -268t277.5 -103t277 103t91 268v932h287v-80q27 24 27 76q0 59 -35 118h205q22 -55 22 -129q0 -80 -60 -132.5t-159 -63.5v-781q0 -172 -90.5 -310.5t-239.5 -213t-325 -74.5z" />
    <glyph glyph-name="uhorn" unicode="&#x1b0;" horiz-adv-x="1343" 
d="M537 -25q-192 0 -311.5 118t-119.5 308v713h279v-622q0 -144 63.5 -211.5t165.5 -67.5q125 0 200 79t75 249v573h278v-55q50 20 50 90q0 60 -35 119h204q23 -58 23 -129q0 -85 -66.5 -139t-175.5 -60v-940h-278v172h-8q-47 -87 -137 -142t-207 -55z" />
    <glyph glyph-name="gravecomb" unicode="&#x300;" horiz-adv-x="0" 
d="M279 1229l-279 278h262l238 -278h-221z" />
    <glyph glyph-name="acutecomb" unicode="&#x301;" horiz-adv-x="0" 
d="M0 1229l238 278h262l-279 -278h-221z" />
    <glyph glyph-name="uni0302" unicode="&#x302;" horiz-adv-x="0" 
d="M0 1190l254 270h213l254 -270h-221l-131 131h-17l-131 -131h-221z" />
    <glyph glyph-name="tildecomb" unicode="&#x303;" horiz-adv-x="0" 
d="M0 1210q0 120 58.5 204.5t138.5 84.5q76 -3 155 -65q73 -54 111 -54q57 0 57 129h139q0 -146 -50 -222.5t-144 -76.5q-69 0 -146 56q-73 52 -112 55q-35 0 -53.5 -30.5t-18.5 -80.5h-135z" />
    <glyph glyph-name="uni0306" unicode="&#x306;" horiz-adv-x="0" 
d="M295 1180q-75 0 -118 10t-87 39q-62 46 -82 123q-16 62 -16 131h147q8 -42 25 -82q16 -36 45 -49q15 -9 86 -9q68 0 86 9q29 13 45 49q17 40 25 82h147q0 -69 -16 -131q-20 -77 -82 -123q-44 -29 -87 -39t-118 -10z" />
    <glyph glyph-name="hookabovecomb" unicode="&#x309;" horiz-adv-x="0" 
d="M88 1247q0 33 14 54t56 47q67 37 67 86q0 21 -18.5 36t-46.5 15q-32 0 -60.5 -15t-42.5 -38l-90 90q89 102 228 102q91 0 152 -50.5t61 -127.5q0 -112 -140 -180q-16 -8 -23 -17t-8 -16t-1 -23v-12h-148v49z" />
    <glyph glyph-name="uni031B" unicode="&#x31b;" horiz-adv-x="0" 
d="M0 1112v111h29q96 0 96 98q0 60 -35 119h205q22 -55 22 -129q0 -90 -74.5 -144.5t-191.5 -54.5h-51z" />
    <glyph glyph-name="dotbelowcomb" unicode="&#x323;" horiz-adv-x="0" 
d="M131 -393q-54 0 -92.5 38t-38.5 93q0 52 39 91.5t92 39.5q54 0 92.5 -39.5t38.5 -91.5q0 -56 -38 -93.5t-93 -37.5z" />
    <glyph glyph-name="uni0E3F" unicode="&#xe3f;" horiz-adv-x="1343" 
d="M147 0v1565h453v139h139v-139q104 -2 187.5 -24t149 -67t101 -120.5t35.5 -177.5q0 -118 -64 -222t-161 -137v-6q119 -29 201 -127t82 -252q0 -207 -139 -319.5t-361 -112.5h-31v-147h-139v147h-453zM434 254h166v430h-166v-430zM434 938h166v373h-166v-373zM739 258
q121 12 182.5 69t61.5 148q0 186 -244 207v-424zM739 944q92 11 141.5 56t49.5 139q0 69 -50.5 116t-140.5 54v-365z" />
    <glyph glyph-name="uni1EA0" unicode="&#x1ea0;" 
d="M25 0l532 1565h381l532 -1565h-286l-137 401h-598l-138 -401h-286zM535 655h426l-209 615h-9zM748 -401q-54 0 -93 38t-39 93q0 52 39.5 91.5t92.5 39.5q54 0 92.5 -39.5t38.5 -91.5q0 -56 -37.5 -93.5t-93.5 -37.5z" />
    <glyph glyph-name="uni1EA1" unicode="&#x1ea1;" horiz-adv-x="1191" 
d="M102 946q200 197 492 197q230 0 365 -117t135 -344v-682h-279v164h-8q-145 -189 -379 -189q-158 0 -264.5 93.5t-106.5 250.5t123.5 253t337.5 96h297v28q0 98 -70 149.5t-182 51.5q-165 0 -293 -119zM512 463q-95 0 -133.5 -38t-38.5 -93q0 -54 44 -92.5t136 -38.5
q133 0 214 76.5t81 177.5v8h-303zM557 -401q-54 0 -92.5 38t-38.5 93q0 52 39 91.5t92 39.5q54 0 92.5 -39.5t38.5 -91.5q0 -56 -38 -93.5t-93 -37.5z" />
    <glyph glyph-name="uni1EA2" unicode="&#x1ea2;" 
d="M25 0l532 1565h381l532 -1565h-286l-137 401h-598l-138 -401h-286zM535 655h426l-209 615h-9zM643 1665q0 33 14 53.5t56 46.5q67 37 67 86q0 21 -18.5 36.5t-46.5 15.5q-32 0 -60.5 -15t-42.5 -39l-90 90q89 103 228 103q91 0 152 -50.5t61 -127.5q0 -113 -140 -181
q-16 -8 -23 -17t-8 -15.5t-1 -22.5v-12h-148v49z" />
    <glyph glyph-name="uni1EA3" unicode="&#x1ea3;" horiz-adv-x="1191" 
d="M102 946q200 197 492 197q230 0 365 -117t135 -344v-682h-279v164h-8q-145 -189 -379 -189q-158 0 -264.5 93.5t-106.5 250.5t123.5 253t337.5 96h297v28q0 98 -70 149.5t-182 51.5q-165 0 -293 -119zM512 463q-95 0 -133.5 -38t-38.5 -93q0 -54 44 -92.5t136 -38.5
q133 0 214 76.5t81 177.5v8h-303zM502 1253q0 33 14 54.5t55 46.5q68 37 68 86q0 21 -18.5 36t-47.5 15q-32 0 -60 -15t-42 -38l-90 90q88 102 227 102q91 0 152 -50.5t61 -127.5q0 -112 -139 -180q-23 -11 -28 -22t-5 -33v-13h-147v49z" />
    <glyph glyph-name="uni1EA4" unicode="&#x1ea4;" 
d="M25 0l532 1565h381l532 -1565h-286l-137 401h-598l-138 -401h-286zM535 655h426l-209 615h-9zM958 1819l222 254h221l-254 -254h-189zM403 1645l250 258h189l250 -258h-205l-131 114h-17l-131 -114h-205z" />
    <glyph glyph-name="uni1EA5" unicode="&#x1ea5;" horiz-adv-x="1191" 
d="M102 946q200 197 492 197q230 0 365 -117t135 -344v-682h-279v164h-8q-145 -189 -379 -189q-158 0 -264.5 93.5t-106.5 250.5t123.5 253t337.5 96h297v28q0 98 -70 149.5t-182 51.5q-165 0 -293 -119zM512 463q-95 0 -133.5 -38t-38.5 -93q0 -54 44 -92.5t136 -38.5
q133 0 214 76.5t81 177.5v8h-303zM817 1407l221 254h222l-254 -254h-189zM262 1233l250 258h188l250 -258h-205l-131 115h-16l-131 -115h-205z" />
    <glyph glyph-name="uni1EA6" unicode="&#x1ea6;" 
d="M25 0l532 1565h381l532 -1565h-286l-137 401h-598l-138 -401h-286zM535 655h426l-209 615h-9zM1061 1802l-254 254h221l221 -254h-188zM403 1645l250 258h189l250 -258h-205l-131 114h-17l-131 -114h-205z" />
    <glyph glyph-name="uni1EA7" unicode="&#x1ea7;" horiz-adv-x="1191" 
d="M102 946q200 197 492 197q230 0 365 -117t135 -344v-682h-279v164h-8q-145 -189 -379 -189q-158 0 -264.5 93.5t-106.5 250.5t123.5 253t337.5 96h297v28q0 98 -70 149.5t-182 51.5q-165 0 -293 -119zM512 463q-95 0 -133.5 -38t-38.5 -93q0 -54 44 -92.5t136 -38.5
q133 0 214 76.5t81 177.5v8h-303zM920 1391l-254 254h221l221 -254h-188zM262 1233l250 258h188l250 -258h-205l-131 115h-16l-131 -115h-205z" />
    <glyph glyph-name="uni1EA8" unicode="&#x1ea8;" 
d="M25 0l532 1565h381l532 -1565h-286l-137 401h-598l-138 -401h-286zM535 655h426l-209 615h-9zM977 1855q0 33 14 54t56 47q67 37 67 86q0 21 -18.5 36t-46.5 15q-56 0 -103 -53l-76 76q64 94 187 100q90 0 148.5 -46.5t58.5 -115.5q0 -60 -31.5 -101t-99.5 -79
q-23 -12 -28 -22.5t-5 -32.5v-4h-123v40zM403 1645l250 258h189l250 -258h-205l-131 114h-17l-131 -114h-205z" />
    <glyph glyph-name="uni1EA9" unicode="&#x1ea9;" horiz-adv-x="1191" 
d="M102 946q200 197 492 197q230 0 365 -117t135 -344v-682h-279v164h-8q-145 -189 -379 -189q-158 0 -264.5 93.5t-106.5 250.5t123.5 253t337.5 96h297v28q0 98 -70 149.5t-182 51.5q-165 0 -293 -119zM512 463q-95 0 -133.5 -38t-38.5 -93q0 -54 44 -92.5t136 -38.5
q133 0 214 76.5t81 177.5v8h-303zM836 1444q0 33 13.5 53.5t55.5 46.5q68 37 68 86q0 21 -18.5 36t-47.5 15q-55 0 -102 -53l-76 76q64 94 186 100q90 0 148.5 -46.5t58.5 -115.5q0 -60 -31.5 -101t-99.5 -79q-23 -12 -28 -22.5t-5 -32.5v-4h-122v41zM262 1233l250 258h188
l250 -258h-205l-131 115h-16l-131 -115h-205z" />
    <glyph glyph-name="uni1EAA" unicode="&#x1eaa;" 
d="M25 0l532 1565h381l532 -1565h-286l-137 401h-598l-138 -401h-286zM535 655h426l-209 615h-9zM477 1937q0 118 61.5 199.5t137.5 81.5q65 0 149 -66q76 -61 117 -61q34 0 55 43t21 102h135q0 -141 -60.5 -220t-150.5 -79q-66 0 -137 56q-77 59 -117 59q-35 0 -55.5 -33
t-20.5 -82h-135zM403 1645l250 258h189l250 -258h-205l-131 114h-17l-131 -114h-205z" />
    <glyph glyph-name="uni1EAB" unicode="&#x1eab;" horiz-adv-x="1191" 
d="M102 946q200 197 492 197q230 0 365 -117t135 -344v-682h-279v164h-8q-145 -189 -379 -189q-158 0 -264.5 93.5t-106.5 250.5t123.5 253t337.5 96h297v28q0 98 -70 149.5t-182 51.5q-165 0 -293 -119zM512 463q-95 0 -133.5 -38t-38.5 -93q0 -54 44 -92.5t136 -38.5
q133 0 214 76.5t81 177.5v8h-303zM336 1526q0 118 61 199t138 81q66 0 149 -65q77 -62 117 -62q34 0 55 43t21 103h135q0 -141 -60.5 -220t-150.5 -79q-67 0 -137 55q-77 59 -117 59q-36 0 -56 -32.5t-20 -81.5h-135zM262 1233l250 258h188l250 -258h-205l-131 115h-16
l-131 -115h-205z" />
    <glyph glyph-name="uni1EAC" unicode="&#x1eac;" 
d="M25 0l532 1565h381l532 -1565h-286l-137 401h-598l-138 -401h-286zM535 655h426l-209 615h-9zM387 1649l254 270h213l254 -270h-221l-131 131h-17l-131 -131h-221zM748 -401q-54 0 -93 38t-39 93q0 52 39.5 91.5t92.5 39.5q54 0 92.5 -39.5t38.5 -91.5q0 -56 -37.5 -93.5
t-93.5 -37.5z" />
    <glyph glyph-name="uni1EAD" unicode="&#x1ead;" horiz-adv-x="1191" 
d="M102 946q200 197 492 197q230 0 365 -117t135 -344v-682h-279v164h-8q-145 -189 -379 -189q-158 0 -264.5 93.5t-106.5 250.5t123.5 253t337.5 96h297v28q0 98 -70 149.5t-182 51.5q-165 0 -293 -119zM512 463q-95 0 -133.5 -38t-38.5 -93q0 -54 44 -92.5t136 -38.5
q133 0 214 76.5t81 177.5v8h-303zM246 1237l254 270h213l254 -270h-222l-131 131h-16l-131 -131h-221zM557 -401q-54 0 -92.5 38t-38.5 93q0 52 39 91.5t92 39.5q54 0 92.5 -39.5t38.5 -91.5q0 -56 -38 -93.5t-93 -37.5z" />
    <glyph glyph-name="uni1EAE" unicode="&#x1eae;" 
d="M25 0l532 1565h381l532 -1565h-286l-137 401h-598l-138 -401h-286zM535 655h426l-209 615h-9zM748 1638q-86 0 -129.5 8t-83.5 42q-53 44 -74 131q-14 54 -17 102h140l24 -61q16 -38 45 -50q13 -8 95 -8q78 0 94 8q29 12 45 50l24 61h140q-3 -48 -17 -102
q-21 -88 -73 -131q-40 -34 -83.5 -42t-129.5 -8zM649 1921l213 254h221l-254 -254h-180z" />
    <glyph glyph-name="uni1EAF" unicode="&#x1eaf;" horiz-adv-x="1191" 
d="M102 946q200 197 492 197q230 0 365 -117t135 -344v-682h-279v164h-8q-145 -189 -379 -189q-158 0 -264.5 93.5t-106.5 250.5t123.5 253t337.5 96h297v28q0 98 -70 149.5t-182 51.5q-165 0 -293 -119zM512 463q-95 0 -133.5 -38t-38.5 -93q0 -54 44 -92.5t136 -38.5
q133 0 214 76.5t81 177.5v8h-303zM606 1227q-61 0 -88.5 2t-62 13t-62.5 34q-53 44 -74 131q-13 49 -16 102h139l25 -61q16 -36 45 -49q13 -8 94 -8q78 0 94 8q29 13 45 49l25 61h139q-3 -53 -16 -102q-21 -87 -74 -131q-40 -33 -82.5 -41t-130.5 -8zM508 1509l213 254h221
l-254 -254h-180z" />
    <glyph glyph-name="uni1EB0" unicode="&#x1eb0;" 
d="M25 0l532 1565h381l532 -1565h-286l-137 401h-598l-138 -401h-286zM535 655h426l-209 615h-9zM748 1638q-80 0 -127 10t-86 40q-46 40 -74 131q-17 66 -17 102h140l24 -61q16 -38 45 -50q13 -8 95 -8q78 0 94 8q29 12 45 50l24 61h140q0 -36 -17 -102q-28 -92 -73 -131
q-39 -30 -86 -40t-127 -10zM666 1921l-254 254h221l213 -254h-180z" />
    <glyph glyph-name="uni1EB1" unicode="&#x1eb1;" horiz-adv-x="1191" 
d="M102 946q200 197 492 197q230 0 365 -117t135 -344v-682h-279v164h-8q-145 -189 -379 -189q-158 0 -264.5 93.5t-106.5 250.5t123.5 253t337.5 96h297v28q0 98 -70 149.5t-182 51.5q-165 0 -293 -119zM512 463q-95 0 -133.5 -38t-38.5 -93q0 -54 44 -92.5t136 -38.5
q133 0 214 76.5t81 177.5v8h-303zM606 1227q-81 0 -127.5 9.5t-85.5 39.5q-46 40 -74 131q-16 62 -16 102h139l25 -61q16 -36 45 -49q13 -8 94 -8q78 0 94 8q29 13 45 49l25 61h139q0 -40 -16 -102q-28 -91 -74 -131q-39 -30 -85.5 -39.5t-127.5 -9.5zM524 1509l-254 254
h222l213 -254h-181z" />
    <glyph glyph-name="uni1EB2" unicode="&#x1eb2;" 
d="M25 0l532 1565h381l532 -1565h-286l-137 401h-598l-138 -401h-286zM535 655h426l-209 615h-9zM748 1634q-81 0 -127.5 9.5t-85.5 39.5q-46 40 -74 132q-17 66 -17 102h140l24 -62q16 -36 45 -49q13 -8 95 -8q78 0 94 8q29 13 45 49l24 62h140q0 -36 -17 -102
q-28 -93 -73 -132q-39 -30 -85.5 -39.5t-127.5 -9.5zM680 1946q0 33 14 53.5t56 46.5q67 37 67 86q0 21 -18.5 36t-46.5 15q-56 0 -103 -53l-76 76q64 94 187 100q90 0 148.5 -46.5t58.5 -115.5q0 -60 -31.5 -101t-99.5 -79q-23 -12 -28 -22.5t-5 -32.5v-4h-123v41z" />
    <glyph glyph-name="uni1EB3" unicode="&#x1eb3;" horiz-adv-x="1191" 
d="M102 946q200 197 492 197q230 0 365 -117t135 -344v-682h-279v164h-8q-145 -189 -379 -189q-158 0 -264.5 93.5t-106.5 250.5t123.5 253t337.5 96h297v28q0 98 -70 149.5t-182 51.5q-165 0 -293 -119zM512 463q-95 0 -133.5 -38t-38.5 -93q0 -54 44 -92.5t136 -38.5
q133 0 214 76.5t81 177.5v8h-303zM606 1223q-81 0 -127.5 9.5t-85.5 39.5q-46 40 -74 131q-16 62 -16 102h139l25 -61q16 -36 45 -49q15 -9 94 -9q76 0 94 9q29 13 45 49l25 61h139q0 -40 -16 -102q-28 -91 -74 -131q-39 -30 -85.5 -39.5t-127.5 -9.5zM539 1534
q0 33 13.5 53.5t55.5 46.5q68 37 68 86q0 21 -19 36.5t-47 15.5q-54 0 -102 -54l-76 76q64 94 186 100q90 0 148.5 -46t58.5 -115q0 -60 -31.5 -101.5t-99.5 -79.5q-16 -9 -23 -17.5t-8 -15t-1 -22.5v-4h-123v41z" />
    <glyph glyph-name="uni1EB4" unicode="&#x1eb4;" 
d="M25 0l532 1565h381l532 -1565h-286l-137 401h-598l-138 -401h-286zM535 655h426l-209 615h-9zM586 1985q0 122 56.5 196t133.5 74q66 0 150 -66q76 -61 116 -61q34 0 55 43t21 102h127q0 -127 -58 -207.5t-145 -80.5q-67 0 -137 55q-77 59 -117 59q-35 0 -55 -32.5
t-20 -81.5h-127zM748 1634q-81 0 -127.5 9.5t-85.5 39.5q-46 40 -74 132q-17 66 -17 102h140l24 -62q16 -36 45 -49q13 -8 95 -8q78 0 94 8q29 13 45 49l24 62h140q0 -36 -17 -102q-28 -93 -73 -132q-39 -30 -85.5 -39.5t-127.5 -9.5z" />
    <glyph glyph-name="uni1EB5" unicode="&#x1eb5;" horiz-adv-x="1191" 
d="M102 946q200 197 492 197q230 0 365 -117t135 -344v-682h-279v164h-8q-145 -189 -379 -189q-158 0 -264.5 93.5t-106.5 250.5t123.5 253t337.5 96h297v28q0 98 -70 149.5t-182 51.5q-165 0 -293 -119zM512 463q-95 0 -133.5 -38t-38.5 -93q0 -54 44 -92.5t136 -38.5
q133 0 214 76.5t81 177.5v8h-303zM444 1573q0 122 56.5 196t134.5 74q66 0 149 -65q77 -62 117 -62q34 0 55 43t21 103h127q0 -128 -58 -208.5t-145 -80.5q-67 0 -137 55q-78 60 -117 60q-35 0 -55.5 -33t-20.5 -82h-127zM606 1223q-81 0 -127.5 9.5t-85.5 39.5
q-46 40 -74 131q-16 62 -16 102h139l25 -61q16 -36 45 -49q15 -9 94 -9q76 0 94 9q29 13 45 49l25 61h139q0 -40 -16 -102q-28 -91 -74 -131q-39 -30 -85.5 -39.5t-127.5 -9.5z" />
    <glyph glyph-name="uni1EB6" unicode="&#x1eb6;" 
d="M25 0l532 1565h381l532 -1565h-286l-137 401h-598l-138 -401h-286zM535 655h426l-209 615h-9zM748 1638q-74 0 -117.5 10.5t-87.5 39.5q-62 46 -82 122q-17 66 -17 132h148q8 -46 24 -82q16 -37 46 -50q13 -8 86 -8q70 0 86 8q29 12 45 50q16 36 24 82h148
q0 -66 -17 -132q-20 -76 -82 -122q-44 -29 -87 -39.5t-117 -10.5zM748 -401q-54 0 -93 38t-39 93q0 52 39.5 91.5t92.5 39.5q54 0 92.5 -39.5t38.5 -91.5q0 -56 -37.5 -93.5t-93.5 -37.5z" />
    <glyph glyph-name="uni1EB7" unicode="&#x1eb7;" horiz-adv-x="1191" 
d="M102 946q200 197 492 197q230 0 365 -117t135 -344v-682h-279v164h-8q-145 -189 -379 -189q-158 0 -264.5 93.5t-106.5 250.5t123.5 253t337.5 96h297v28q0 98 -70 149.5t-182 51.5q-165 0 -293 -119zM512 463q-95 0 -133.5 -38t-38.5 -93q0 -54 44 -92.5t136 -38.5
q133 0 214 76.5t81 177.5v8h-303zM606 1227q-75 0 -118 10t-87 39q-62 46 -82 123q-16 62 -16 131h148q8 -46 24 -82t45 -49q13 -8 86 -8q70 0 86 8q29 13 45 49q17 40 25 82h147q0 -69 -16 -131q-20 -77 -82 -123q-44 -29 -87 -39t-118 -10zM557 -401q-54 0 -92.5 38
t-38.5 93q0 52 39 91.5t92 39.5q54 0 92.5 -39.5t38.5 -91.5q0 -56 -38 -93.5t-93 -37.5z" />
    <glyph glyph-name="uni1EB8" unicode="&#x1eb8;" horiz-adv-x="1196" 
d="M147 0v1565h934v-254h-647v-373h598v-254h-598v-430h656v-254h-943zM645 -401q-54 0 -92.5 38t-38.5 93q0 52 39 91.5t92 39.5q54 0 92.5 -39.5t38.5 -91.5q0 -56 -38 -93.5t-93 -37.5z" />
    <glyph glyph-name="uni1EB9" unicode="&#x1eb9;" horiz-adv-x="1224" 
d="M633 -25q-119 0 -224.5 42t-183.5 117t-123 185t-45 240q0 128 44.5 238.5t121 186.5t181 119.5t221.5 43.5q250 0 392 -161.5t142 -426.5l-4 -84h-825q7 -109 93.5 -177.5t209.5 -68.5q183 0 301 99l164 -166q-78 -86 -204 -136.5t-261 -50.5zM883 684q-7 95 -80.5 152
t-181.5 57q-118 0 -196 -55.5t-95 -153.5h553zM633 -401q-54 0 -92.5 38t-38.5 93q0 52 39 91.5t92 39.5q54 0 92.5 -39.5t38.5 -91.5q0 -56 -38 -93.5t-93 -37.5z" />
    <glyph glyph-name="uni1EBA" unicode="&#x1eba;" horiz-adv-x="1196" 
d="M147 0v1565h934v-254h-647v-373h598v-254h-598v-430h656v-254h-943zM516 1681q0 33 14 54t56 47q67 37 67 86q0 21 -18.5 36t-46.5 15q-32 0 -60.5 -15t-42.5 -38l-90 90q88 102 228 102q91 0 152 -50.5t61 -127.5q0 -112 -140 -180q-16 -8 -23 -17t-8 -15.5t-1 -22.5
v-13h-148v49z" />
    <glyph glyph-name="uni1EBB" unicode="&#x1ebb;" horiz-adv-x="1224" 
d="M633 -25q-119 0 -224.5 42t-183.5 117t-123 185t-45 240q0 128 44.5 238.5t121 186.5t181 119.5t221.5 43.5q250 0 392 -161.5t142 -426.5l-4 -84h-825q7 -109 93.5 -177.5t209.5 -68.5q183 0 301 99l164 -166q-78 -86 -204 -136.5t-261 -50.5zM883 684q-7 95 -80.5 152
t-181.5 57q-118 0 -196 -55.5t-95 -153.5h553zM528 1276q0 33 14 53.5t56 46.5q68 37 68 86q0 21 -18.5 36t-47.5 15q-32 0 -60 -15t-42 -38l-90 90q89 103 227 103q91 0 152 -50.5t61 -127.5q0 -113 -139 -181q-23 -11 -28 -22t-5 -33v-12h-148v49z" />
    <glyph glyph-name="uni1EBC" unicode="&#x1ebc;" horiz-adv-x="1196" 
d="M147 0v1565h934v-254h-647v-373h598v-254h-598v-430h656v-254h-943zM301 1686q0 120 58.5 204t138.5 84q76 -3 155 -65q73 -54 111 -54q57 0 57 130h140q0 -146 -50.5 -222.5t-144.5 -76.5q-69 0 -145 55q-73 52 -113 55q-35 0 -53.5 -30.5t-18.5 -79.5h-135z" />
    <glyph glyph-name="uni1EBD" unicode="&#x1ebd;" horiz-adv-x="1224" 
d="M633 -25q-119 0 -224.5 42t-183.5 117t-123 185t-45 240q0 128 44.5 238.5t121 186.5t181 119.5t221.5 43.5q250 0 392 -161.5t142 -426.5l-4 -84h-825q7 -109 93.5 -177.5t209.5 -68.5q183 0 301 99l164 -166q-78 -86 -204 -136.5t-261 -50.5zM883 684q-7 95 -80.5 152
t-181.5 57q-118 0 -196 -55.5t-95 -153.5h553zM313 1280q0 120 58.5 204.5t138.5 84.5q76 -3 156 -66q71 -53 110 -53q58 0 58 129h139q0 -146 -50.5 -222.5t-144.5 -76.5q-69 0 -145 55q-74 53 -113 56q-35 0 -53 -30.5t-18 -80.5h-136z" />
    <glyph glyph-name="uni1EBE" unicode="&#x1ebe;" horiz-adv-x="1196" 
d="M147 0v1565h934v-254h-647v-373h598v-254h-598v-430h656v-254h-943zM831 1835l222 254h221l-254 -254h-189zM276 1661l250 258h189l250 -258h-205l-131 115h-17l-131 -115h-205z" />
    <glyph glyph-name="uni1EBF" unicode="&#x1ebf;" horiz-adv-x="1224" 
d="M633 -25q-119 0 -224.5 42t-183.5 117t-123 185t-45 240q0 128 44.5 238.5t121 186.5t181 119.5t221.5 43.5q250 0 392 -161.5t142 -426.5l-4 -84h-825q7 -109 93.5 -177.5t209.5 -68.5q183 0 301 99l164 -166q-78 -86 -204 -136.5t-261 -50.5zM883 684q-7 95 -80.5 152
t-181.5 57q-118 0 -196 -55.5t-95 -153.5h553zM844 1430l221 253h221l-254 -253h-188zM289 1255l250 258h188l250 -258h-205l-131 115h-16l-131 -115h-205z" />
    <glyph glyph-name="uni1EC0" unicode="&#x1ec0;" horiz-adv-x="1196" 
d="M147 0v1565h934v-254h-647v-373h598v-254h-598v-430h656v-254h-943zM934 1819l-254 254h221l221 -254h-188zM276 1661l250 258h189l250 -258h-205l-131 115h-17l-131 -115h-205z" />
    <glyph glyph-name="uni1EC1" unicode="&#x1ec1;" horiz-adv-x="1224" 
d="M633 -25q-119 0 -224.5 42t-183.5 117t-123 185t-45 240q0 128 44.5 238.5t121 186.5t181 119.5t221.5 43.5q250 0 392 -161.5t142 -426.5l-4 -84h-825q7 -109 93.5 -177.5t209.5 -68.5q183 0 301 99l164 -166q-78 -86 -204 -136.5t-261 -50.5zM883 684q-7 95 -80.5 152
t-181.5 57q-118 0 -196 -55.5t-95 -153.5h553zM946 1413l-254 254h221l222 -254h-189zM289 1255l250 258h188l250 -258h-205l-131 115h-16l-131 -115h-205z" />
    <glyph glyph-name="uni1EC2" unicode="&#x1ec2;" horiz-adv-x="1196" 
d="M147 0v1565h934v-254h-647v-373h598v-254h-598v-430h656v-254h-943zM850 1872q0 33 14 53.5t56 46.5q67 37 67 86q0 21 -18.5 36t-46.5 15q-56 0 -103 -53l-76 76q64 94 187 100q90 0 148.5 -46t58.5 -115q0 -60 -31.5 -101.5t-99.5 -79.5q-23 -12 -28 -22.5t-5 -32.5v-4
h-123v41zM276 1661l250 258h189l250 -258h-205l-131 115h-17l-131 -115h-205z" />
    <glyph glyph-name="uni1EC3" unicode="&#x1ec3;" horiz-adv-x="1224" 
d="M633 -25q-119 0 -224.5 42t-183.5 117t-123 185t-45 240q0 128 44.5 238.5t121 186.5t181 119.5t221.5 43.5q250 0 392 -161.5t142 -426.5l-4 -84h-825q7 -109 93.5 -177.5t209.5 -68.5q183 0 301 99l164 -166q-78 -86 -204 -136.5t-261 -50.5zM883 684q-7 95 -80.5 152
t-181.5 57q-118 0 -196 -55.5t-95 -153.5h553zM862 1466q0 33 14 54t56 47q67 37 67 86q0 21 -18.5 36t-46.5 15q-56 0 -103 -53l-75 75q65 95 186 101q90 0 148.5 -46.5t58.5 -115.5q0 -60 -31.5 -101t-99.5 -79q-23 -12 -28 -22.5t-5 -32.5v-5h-123v41zM289 1255l250 258
h188l250 -258h-205l-131 115h-16l-131 -115h-205z" />
    <glyph glyph-name="uni1EC4" unicode="&#x1ec4;" horiz-adv-x="1196" 
d="M147 0v1565h934v-254h-647v-373h598v-254h-598v-430h656v-254h-943zM350 1954q0 118 61 199t138 81q66 0 149 -65q77 -62 117 -62q34 0 55 43t21 103h135q0 -141 -60.5 -220t-150.5 -79q-67 0 -137 55q-77 59 -117 59q-36 0 -56 -32.5t-20 -81.5h-135zM276 1661l250 258
h189l250 -258h-205l-131 115h-17l-131 -115h-205z" />
    <glyph glyph-name="uni1EC5" unicode="&#x1ec5;" horiz-adv-x="1224" 
d="M633 -25q-119 0 -224.5 42t-183.5 117t-123 185t-45 240q0 128 44.5 238.5t121 186.5t181 119.5t221.5 43.5q250 0 392 -161.5t142 -426.5l-4 -84h-825q7 -109 93.5 -177.5t209.5 -68.5q183 0 301 99l164 -166q-78 -86 -204 -136.5t-261 -50.5zM883 684q-7 95 -80.5 152
t-181.5 57q-118 0 -196 -55.5t-95 -153.5h553zM362 1548q0 118 61.5 199.5t137.5 81.5q66 0 150 -66q76 -61 116 -61q34 0 55 43t21 102h135q0 -141 -60.5 -220t-150.5 -79q-66 0 -137 56q-77 59 -117 59q-35 0 -55 -32.5t-20 -82.5h-136zM289 1255l250 258h188l250 -258
h-205l-131 115h-16l-131 -115h-205z" />
    <glyph glyph-name="uni1EC6" unicode="&#x1ec6;" horiz-adv-x="1196" 
d="M147 0v1565h934v-254h-647v-373h598v-254h-598v-430h656v-254h-943zM260 1665l254 270h213l254 -270h-221l-131 131h-17l-131 -131h-221zM645 -401q-54 0 -92.5 38t-38.5 93q0 52 39 91.5t92 39.5q54 0 92.5 -39.5t38.5 -91.5q0 -56 -38 -93.5t-93 -37.5z" />
    <glyph glyph-name="uni1EC7" unicode="&#x1ec7;" horiz-adv-x="1224" 
d="M633 -25q-119 0 -224.5 42t-183.5 117t-123 185t-45 240q0 128 44.5 238.5t121 186.5t181 119.5t221.5 43.5q250 0 392 -161.5t142 -426.5l-4 -84h-825q7 -109 93.5 -177.5t209.5 -68.5q183 0 301 99l164 -166q-78 -86 -204 -136.5t-261 -50.5zM883 684q-7 95 -80.5 152
t-181.5 57q-118 0 -196 -55.5t-95 -153.5h553zM272 1260l254 270h213l254 -270h-221l-131 131h-16l-131 -131h-222zM633 -401q-54 0 -92.5 38t-38.5 93q0 52 39 91.5t92 39.5q54 0 92.5 -39.5t38.5 -91.5q0 -56 -38 -93.5t-93 -37.5z" />
    <glyph glyph-name="uni1EC8" unicode="&#x1ec8;" horiz-adv-x="581" 
d="M147 0v1565h287v-1565h-287zM186 1665q0 33 14 53.5t56 46.5q68 37 68 86q0 21 -19 36.5t-47 15.5q-32 0 -60 -15t-42 -39l-90 90q89 103 227 103q91 0 152 -50.5t61 -127.5q0 -113 -139 -181q-23 -11 -28 -22t-5 -33v-12h-148v49z" />
    <glyph glyph-name="uni1EC9" unicode="&#x1ec9;" horiz-adv-x="507" 
d="M115 0v1114h278v-1114h-278zM150 1239q0 33 13.5 53.5t55.5 46.5q68 37 68 86q0 21 -19 36.5t-47 15.5q-32 0 -60 -15t-42 -39l-90 90q89 103 227 103q91 0 152 -50.5t61 -127.5q0 -113 -139 -181q-23 -11 -28 -22t-5 -33v-12h-147v49z" />
    <glyph glyph-name="uni1ECA" unicode="&#x1eca;" horiz-adv-x="581" 
d="M147 0v1565h287v-1565h-287zM291 -401q-54 0 -92.5 38t-38.5 93q0 52 39 91.5t92 39.5q54 0 92.5 -39.5t38.5 -91.5q0 -56 -38 -93.5t-93 -37.5z" />
    <glyph glyph-name="uni1ECB" unicode="&#x1ecb;" horiz-adv-x="507" 
d="M115 0v1114h278v-1114h-278zM254 1204q-68 0 -116 48t-48 116t48 116t116 48t116 -48t48 -116t-48 -116t-116 -48zM254 -401q-54 0 -92.5 38t-38.5 93q0 52 39 91.5t92 39.5q54 0 92.5 -39.5t38.5 -91.5q0 -56 -37.5 -93.5t-93.5 -37.5z" />
    <glyph glyph-name="uni1ECC" unicode="&#x1ecc;" horiz-adv-x="1744" 
d="M872 -25q-167 0 -314.5 62t-254 169t-168 257t-61.5 319q0 142 42 269.5t117.5 224.5t175 168t218.5 108t245 37q160 0 305.5 -59.5t254.5 -163.5t174 -256.5t65 -327.5q0 -143 -42.5 -271t-117.5 -225t-175 -167.5t-219 -107t-245 -36.5zM872 238q104 0 198.5 40
t165 110t112 172.5t41.5 221.5q0 112 -39.5 212.5t-107.5 173.5t-164.5 116t-205.5 43q-104 0 -198 -40t-164.5 -110.5t-112 -173t-41.5 -221.5q0 -150 66.5 -274.5t185 -197t264.5 -72.5zM872 -401q-54 0 -92.5 38t-38.5 93q0 52 39 91.5t92 39.5q55 0 93.5 -39.5
t38.5 -91.5q0 -55 -38 -93t-94 -38z" />
    <glyph glyph-name="uni1ECD" unicode="&#x1ecd;" horiz-adv-x="1277" 
d="M639 -25q-163 0 -295 71t-209.5 205.5t-77.5 309.5q0 254 164.5 420t417.5 166q159 0 291 -70t211.5 -205t79.5 -311q0 -254 -164.5 -420t-417.5 -166zM639 233q139 0 221 93t82 235t-82 235t-221 93t-221 -93t-82 -235t82 -235t221 -93zM639 -401q-54 0 -92.5 38
t-38.5 93q0 52 39 91.5t92 39.5q54 0 92.5 -39.5t38.5 -91.5q0 -56 -38 -93.5t-93 -37.5z" />
    <glyph glyph-name="uni1ECE" unicode="&#x1ece;" horiz-adv-x="1744" 
d="M872 -25q-167 0 -314.5 62t-254 169t-168 257t-61.5 319q0 142 42 269.5t117.5 224.5t175 168t218.5 108t245 37q160 0 305.5 -59.5t254.5 -163.5t174 -256.5t65 -327.5q0 -143 -42.5 -271t-117.5 -225t-175 -167.5t-219 -107t-245 -36.5zM872 238q104 0 198.5 40
t165 110t112 172.5t41.5 221.5q0 112 -39.5 212.5t-107.5 173.5t-164.5 116t-205.5 43q-104 0 -198 -40t-164.5 -110.5t-112 -173t-41.5 -221.5q0 -150 66.5 -274.5t185 -197t264.5 -72.5zM768 1681q0 33 14 54t56 47q67 37 67 86q0 21 -18.5 36t-46.5 15q-32 0 -60.5 -15
t-42.5 -38l-90 90q89 102 227 102q91 0 152 -50.5t61 -127.5q0 -112 -139 -180q-23 -11 -28 -22t-5 -33v-13h-147v49z" />
    <glyph glyph-name="uni1ECF" unicode="&#x1ecf;" horiz-adv-x="1277" 
d="M639 -25q-163 0 -295 71t-209.5 205.5t-77.5 309.5q0 254 164.5 420t417.5 166q159 0 291 -70t211.5 -205t79.5 -311q0 -254 -164.5 -420t-417.5 -166zM639 233q139 0 221 93t82 235t-82 235t-221 93t-221 -93t-82 -235t82 -235t221 -93zM535 1255q0 33 14 54.5t55 46.5
q68 37 68 86q0 21 -18.5 36t-47.5 15q-32 0 -60 -15t-42 -38l-90 90q88 102 227 102q91 0 152 -50.5t61 -127.5q0 -112 -139 -180q-23 -11 -28 -22t-5 -33v-13h-147v49z" />
    <glyph glyph-name="uni1ED0" unicode="&#x1ed0;" horiz-adv-x="1744" 
d="M872 -25q-167 0 -314.5 62t-254 169t-168 257t-61.5 319q0 142 42 269.5t117.5 224.5t175 168t218.5 108t245 37q160 0 305.5 -59.5t254.5 -163.5t174 -256.5t65 -327.5q0 -143 -42.5 -271t-117.5 -225t-175 -167.5t-219 -107t-245 -36.5zM872 238q104 0 198.5 40
t165 110t112 172.5t41.5 221.5q0 112 -39.5 212.5t-107.5 173.5t-164.5 116t-205.5 43q-104 0 -198 -40t-164.5 -110.5t-112 -173t-41.5 -221.5q0 -150 66.5 -274.5t185 -197t264.5 -72.5zM1083 1835l222 254h221l-254 -254h-189zM528 1661l250 258h189l250 -258h-205
l-131 115h-17l-131 -115h-205z" />
    <glyph glyph-name="uni1ED1" unicode="&#x1ed1;" horiz-adv-x="1277" 
d="M639 -25q-163 0 -295 71t-209.5 205.5t-77.5 309.5q0 254 164.5 420t417.5 166q159 0 291 -70t211.5 -205t79.5 -311q0 -254 -164.5 -420t-417.5 -166zM639 233q139 0 221 93t82 235t-82 235t-221 93t-221 -93t-82 -235t82 -235t221 -93zM850 1409l221 254h221l-254 -254
h-188zM295 1235l250 258h188l250 -258h-205l-131 115h-16l-131 -115h-205z" />
    <glyph glyph-name="uni1ED2" unicode="&#x1ed2;" horiz-adv-x="1744" 
d="M872 -25q-167 0 -314.5 62t-254 169t-168 257t-61.5 319q0 142 42 269.5t117.5 224.5t175 168t218.5 108t245 37q160 0 305.5 -59.5t254.5 -163.5t174 -256.5t65 -327.5q0 -143 -42.5 -271t-117.5 -225t-175 -167.5t-219 -107t-245 -36.5zM872 238q104 0 198.5 40
t165 110t112 172.5t41.5 221.5q0 112 -39.5 212.5t-107.5 173.5t-164.5 116t-205.5 43q-104 0 -198 -40t-164.5 -110.5t-112 -173t-41.5 -221.5q0 -150 66.5 -274.5t185 -197t264.5 -72.5zM1186 1819l-254 254h221l221 -254h-188zM528 1661l250 258h189l250 -258h-205
l-131 115h-17l-131 -115h-205z" />
    <glyph glyph-name="uni1ED3" unicode="&#x1ed3;" horiz-adv-x="1277" 
d="M639 -25q-163 0 -295 71t-209.5 205.5t-77.5 309.5q0 254 164.5 420t417.5 166q159 0 291 -70t211.5 -205t79.5 -311q0 -254 -164.5 -420t-417.5 -166zM639 233q139 0 221 93t82 235t-82 235t-221 93t-221 -93t-82 -235t82 -235t221 -93zM952 1393l-254 254h222l221 -254
h-189zM295 1235l250 258h188l250 -258h-205l-131 115h-16l-131 -115h-205z" />
    <glyph glyph-name="uni1ED4" unicode="&#x1ed4;" horiz-adv-x="1744" 
d="M872 -25q-167 0 -314.5 62t-254 169t-168 257t-61.5 319q0 142 42 269.5t117.5 224.5t175 168t218.5 108t245 37q160 0 305.5 -59.5t254.5 -163.5t174 -256.5t65 -327.5q0 -143 -42.5 -271t-117.5 -225t-175 -167.5t-219 -107t-245 -36.5zM872 238q104 0 198.5 40
t165 110t112 172.5t41.5 221.5q0 112 -39.5 212.5t-107.5 173.5t-164.5 116t-205.5 43q-104 0 -198 -40t-164.5 -110.5t-112 -173t-41.5 -221.5q0 -150 66.5 -274.5t185 -197t264.5 -72.5zM1102 1872q0 33 13.5 53.5t55.5 46.5q68 37 68 86q0 21 -18.5 36t-46.5 15
q-56 0 -103 -53l-76 76q64 94 187 100q90 0 148.5 -46t58.5 -115q0 -60 -31.5 -101.5t-100.5 -79.5q-16 -9 -23 -17.5t-8 -15t-1 -22.5v-4h-123v41zM528 1661l250 258h189l250 -258h-205l-131 115h-17l-131 -115h-205z" />
    <glyph glyph-name="uni1ED5" unicode="&#x1ed5;" horiz-adv-x="1277" 
d="M639 -25q-163 0 -295 71t-209.5 205.5t-77.5 309.5q0 254 164.5 420t417.5 166q159 0 291 -70t211.5 -205t79.5 -311q0 -254 -164.5 -420t-417.5 -166zM639 233q139 0 221 93t82 235t-82 235t-221 93t-221 -93t-82 -235t82 -235t221 -93zM868 1446q0 33 14 53.5t56 46.5
q68 37 68 86q0 21 -18.5 36t-47.5 15q-55 0 -102 -53l-76 76q64 94 186 100q90 0 148.5 -46t58.5 -115q0 -60 -31.5 -101.5t-99.5 -79.5q-23 -12 -28 -22.5t-5 -32.5v-4h-123v41zM295 1235l250 258h188l250 -258h-205l-131 115h-16l-131 -115h-205z" />
    <glyph glyph-name="uni1ED6" unicode="&#x1ed6;" horiz-adv-x="1744" 
d="M872 -25q-167 0 -314.5 62t-254 169t-168 257t-61.5 319q0 142 42 269.5t117.5 224.5t175 168t218.5 108t245 37q160 0 305.5 -59.5t254.5 -163.5t174 -256.5t65 -327.5q0 -143 -42.5 -271t-117.5 -225t-175 -167.5t-219 -107t-245 -36.5zM872 238q104 0 198.5 40
t165 110t112 172.5t41.5 221.5q0 112 -39.5 212.5t-107.5 173.5t-164.5 116t-205.5 43q-104 0 -198 -40t-164.5 -110.5t-112 -173t-41.5 -221.5q0 -150 66.5 -274.5t185 -197t264.5 -72.5zM602 1954q0 118 61 199t138 81q66 0 149 -65q77 -62 117 -62q34 0 55 43t21 103h135
q0 -141 -60.5 -220t-150.5 -79q-67 0 -137 55q-77 59 -117 59q-36 0 -56 -32.5t-20 -81.5h-135zM528 1661l250 258h189l250 -258h-205l-131 115h-17l-131 -115h-205z" />
    <glyph glyph-name="uni1ED7" unicode="&#x1ed7;" horiz-adv-x="1277" 
d="M639 -25q-163 0 -295 71t-209.5 205.5t-77.5 309.5q0 254 164.5 420t417.5 166q159 0 291 -70t211.5 -205t79.5 -311q0 -254 -164.5 -420t-417.5 -166zM639 233q139 0 221 93t82 235t-82 235t-221 93t-221 -93t-82 -235t82 -235t221 -93zM369 1528q0 118 61 199t137 81
q67 0 150 -65q77 -62 117 -62q34 0 54.5 43t20.5 103h135q0 -141 -60 -220t-150 -79q-68 0 -138 55q-77 59 -116 59q-36 0 -56 -32.5t-20 -81.5h-135zM295 1235l250 258h188l250 -258h-205l-131 115h-16l-131 -115h-205z" />
    <glyph glyph-name="uni1ED8" unicode="&#x1ed8;" horiz-adv-x="1744" 
d="M872 -25q-167 0 -314.5 62t-254 169t-168 257t-61.5 319q0 142 42 269.5t117.5 224.5t175 168t218.5 108t245 37q160 0 305.5 -59.5t254.5 -163.5t174 -256.5t65 -327.5q0 -143 -42.5 -271t-117.5 -225t-175 -167.5t-219 -107t-245 -36.5zM872 238q104 0 198.5 40
t165 110t112 172.5t41.5 221.5q0 112 -39.5 212.5t-107.5 173.5t-164.5 116t-205.5 43q-104 0 -198 -40t-164.5 -110.5t-112 -173t-41.5 -221.5q0 -150 66.5 -274.5t185 -197t264.5 -72.5zM512 1665l254 270h213l254 -270h-221l-131 131h-17l-131 -131h-221zM872 -401
q-54 0 -92.5 38t-38.5 93q0 52 39 91.5t92 39.5q55 0 93.5 -39.5t38.5 -91.5q0 -55 -38 -93t-94 -38z" />
    <glyph glyph-name="uni1ED9" unicode="&#x1ed9;" horiz-adv-x="1277" 
d="M639 -25q-163 0 -295 71t-209.5 205.5t-77.5 309.5q0 254 164.5 420t417.5 166q159 0 291 -70t211.5 -205t79.5 -311q0 -254 -164.5 -420t-417.5 -166zM639 233q139 0 221 93t82 235t-82 235t-221 93t-221 -93t-82 -235t82 -235t221 -93zM279 1239l253 270h213l254 -270
h-221l-131 131h-16l-131 -131h-221zM639 -401q-54 0 -92.5 38t-38.5 93q0 52 39 91.5t92 39.5q54 0 92.5 -39.5t38.5 -91.5q0 -56 -38 -93.5t-93 -37.5z" />
    <glyph glyph-name="uni1EDA" unicode="&#x1eda;" horiz-adv-x="1744" 
d="M872 -25q-167 0 -314.5 62t-254 169t-168 257t-61.5 319q0 142 42 269.5t117.5 224.5t175 168t218.5 108t245 37q222 0 406 -108q31 25 31 80q0 59 -35 118h205q22 -55 22 -129q0 -101 -96 -157q125 -110 195.5 -267.5t70.5 -343.5q0 -143 -42.5 -271t-117.5 -225
t-175 -167.5t-219 -107t-245 -36.5zM872 238q104 0 198.5 40t165 110t112 172.5t41.5 221.5q0 112 -39.5 212.5t-107.5 173.5t-164.5 116t-205.5 43q-104 0 -198 -40t-164.5 -110.5t-112 -173t-41.5 -221.5q0 -150 66.5 -274.5t185 -197t264.5 -72.5zM729 1704l238 278h262
l-279 -278h-221z" />
    <glyph glyph-name="uni1EDB" unicode="&#x1edb;" horiz-adv-x="1273" 
d="M639 -25q-163 0 -295 71t-209.5 205.5t-77.5 309.5q0 254 164.5 420t417.5 166q176 0 317 -86q45 20 45 88q0 61 -34 119h204q23 -58 23 -129q0 -58 -32.5 -102.5t-90.5 -69.5q150 -160 150 -406q0 -254 -164.5 -420t-417.5 -166zM639 233q139 0 221 93t82 235t-82 235
t-221 93t-221 -93t-82 -235t82 -235t221 -93zM496 1278l237 278h262l-278 -278h-221z" />
    <glyph glyph-name="uni1EDC" unicode="&#x1edc;" horiz-adv-x="1744" 
d="M872 -25q-167 0 -314.5 62t-254 169t-168 257t-61.5 319q0 142 42 269.5t117.5 224.5t175 168t218.5 108t245 37q222 0 406 -108q31 25 31 80q0 59 -35 118h205q22 -55 22 -129q0 -101 -96 -157q125 -110 195.5 -267.5t70.5 -343.5q0 -143 -42.5 -271t-117.5 -225
t-175 -167.5t-219 -107t-245 -36.5zM872 238q104 0 198.5 40t165 110t112 172.5t41.5 221.5q0 112 -39.5 212.5t-107.5 173.5t-164.5 116t-205.5 43q-104 0 -198 -40t-164.5 -110.5t-112 -173t-41.5 -221.5q0 -150 66.5 -274.5t185 -197t264.5 -72.5zM795 1704l-279 278h262
l238 -278h-221z" />
    <glyph glyph-name="uni1EDD" unicode="&#x1edd;" horiz-adv-x="1273" 
d="M639 -25q-163 0 -295 71t-209.5 205.5t-77.5 309.5q0 254 164.5 420t417.5 166q176 0 317 -86q45 20 45 88q0 61 -34 119h204q23 -58 23 -129q0 -58 -32.5 -102.5t-90.5 -69.5q150 -160 150 -406q0 -254 -164.5 -420t-417.5 -166zM639 233q139 0 221 93t82 235t-82 235
t-221 93t-221 -93t-82 -235t82 -235t221 -93zM561 1278l-278 278h262l237 -278h-221z" />
    <glyph glyph-name="uni1EDE" unicode="&#x1ede;" horiz-adv-x="1744" 
d="M872 -25q-167 0 -314.5 62t-254 169t-168 257t-61.5 319q0 142 42 269.5t117.5 224.5t175 168t218.5 108t245 37q222 0 406 -108q31 25 31 80q0 59 -35 118h205q22 -55 22 -129q0 -101 -96 -157q125 -110 195.5 -267.5t70.5 -343.5q0 -143 -42.5 -271t-117.5 -225
t-175 -167.5t-219 -107t-245 -36.5zM872 238q104 0 198.5 40t165 110t112 172.5t41.5 221.5q0 112 -39.5 212.5t-107.5 173.5t-164.5 116t-205.5 43q-104 0 -198 -40t-164.5 -110.5t-112 -173t-41.5 -221.5q0 -150 66.5 -274.5t185 -197t264.5 -72.5zM768 1681q0 33 14 54
t56 47q67 37 67 86q0 21 -18.5 36t-46.5 15q-32 0 -60.5 -15t-42.5 -38l-90 90q89 102 227 102q91 0 152 -50.5t61 -127.5q0 -112 -139 -180q-23 -11 -28 -22t-5 -33v-13h-147v49z" />
    <glyph glyph-name="uni1EDF" unicode="&#x1edf;" horiz-adv-x="1273" 
d="M639 -25q-163 0 -295 71t-209.5 205.5t-77.5 309.5q0 254 164.5 420t417.5 166q176 0 317 -86q45 20 45 88q0 61 -34 119h204q23 -58 23 -129q0 -58 -32.5 -102.5t-90.5 -69.5q150 -160 150 -406q0 -254 -164.5 -420t-417.5 -166zM639 233q139 0 221 93t82 235t-82 235
t-221 93t-221 -93t-82 -235t82 -235t221 -93zM535 1255q0 33 14 54.5t55 46.5q68 37 68 86q0 21 -18.5 36t-47.5 15q-32 0 -60 -15t-42 -38l-90 90q88 102 227 102q91 0 152 -50.5t61 -127.5q0 -112 -139 -180q-23 -11 -28 -22t-5 -33v-13h-147v49z" />
    <glyph glyph-name="uni1EE0" unicode="&#x1ee0;" horiz-adv-x="1744" 
d="M872 -25q-167 0 -314.5 62t-254 169t-168 257t-61.5 319q0 142 42 269.5t117.5 224.5t175 168t218.5 108t245 37q222 0 406 -108q31 25 31 80q0 59 -35 118h205q22 -55 22 -129q0 -101 -96 -157q125 -110 195.5 -267.5t70.5 -343.5q0 -143 -42.5 -271t-117.5 -225
t-175 -167.5t-219 -107t-245 -36.5zM872 238q104 0 198.5 40t165 110t112 172.5t41.5 221.5q0 112 -39.5 212.5t-107.5 173.5t-164.5 116t-205.5 43q-104 0 -198 -40t-164.5 -110.5t-112 -173t-41.5 -221.5q0 -150 66.5 -274.5t185 -197t264.5 -72.5zM553 1686
q0 120 58.5 204t138.5 84q76 -3 155 -65q73 -54 111 -54q57 0 57 130h139q0 -146 -50 -222.5t-144 -76.5q-70 0 -146 55q-73 52 -112 55q-35 0 -53.5 -30.5t-18.5 -79.5h-135z" />
    <glyph glyph-name="uni1EE1" unicode="&#x1ee1;" horiz-adv-x="1273" 
d="M639 -25q-163 0 -295 71t-209.5 205.5t-77.5 309.5q0 254 164.5 420t417.5 166q176 0 317 -86q45 20 45 88q0 61 -34 119h204q23 -58 23 -129q0 -58 -32.5 -102.5t-90.5 -69.5q150 -160 150 -406q0 -254 -164.5 -420t-417.5 -166zM639 233q139 0 221 93t82 235t-82 235
t-221 93t-221 -93t-82 -235t82 -235t221 -93zM319 1260q0 120 58.5 204t138.5 84q77 -3 156 -65q71 -53 110 -53q58 0 58 129h139q0 -146 -50.5 -222.5t-144.5 -76.5q-69 0 -145 55q-73 52 -113 55q-35 0 -53 -30t-18 -80h-136z" />
    <glyph glyph-name="uni1EE2" unicode="&#x1ee2;" horiz-adv-x="1744" 
d="M872 -25q-167 0 -314.5 62t-254 169t-168 257t-61.5 319q0 142 42 269.5t117.5 224.5t175 168t218.5 108t245 37q222 0 406 -108q31 25 31 80q0 59 -35 118h205q22 -55 22 -129q0 -101 -96 -157q125 -110 195.5 -267.5t70.5 -343.5q0 -143 -42.5 -271t-117.5 -225
t-175 -167.5t-219 -107t-245 -36.5zM872 238q104 0 198.5 40t165 110t112 172.5t41.5 221.5q0 112 -39.5 212.5t-107.5 173.5t-164.5 116t-205.5 43q-104 0 -198 -40t-164.5 -110.5t-112 -173t-41.5 -221.5q0 -150 66.5 -274.5t185 -197t264.5 -72.5zM872 -401
q-54 0 -92.5 38t-38.5 93q0 52 39 91.5t92 39.5q55 0 93.5 -39.5t38.5 -91.5q0 -55 -38 -93t-94 -38z" />
    <glyph glyph-name="uni1EE3" unicode="&#x1ee3;" horiz-adv-x="1273" 
d="M639 -25q-163 0 -295 71t-209.5 205.5t-77.5 309.5q0 254 164.5 420t417.5 166q176 0 317 -86q45 20 45 88q0 61 -34 119h204q23 -58 23 -129q0 -58 -32.5 -102.5t-90.5 -69.5q150 -160 150 -406q0 -254 -164.5 -420t-417.5 -166zM639 233q139 0 221 93t82 235t-82 235
t-221 93t-221 -93t-82 -235t82 -235t221 -93zM639 -401q-54 0 -92.5 38t-38.5 93q0 52 39 91.5t92 39.5q54 0 92.5 -39.5t38.5 -91.5q0 -56 -38 -93.5t-93 -37.5z" />
    <glyph glyph-name="uni1EE4" unicode="&#x1ee4;" horiz-adv-x="1523" 
d="M762 -25q-131 0 -251 44t-209.5 121.5t-142.5 190t-53 242.5v992h287v-932q0 -165 91.5 -268t277.5 -103t277 103t91 268v932h287v-992q0 -172 -90.5 -310.5t-239.5 -213t-325 -74.5zM770 -401q-54 0 -92.5 38t-38.5 93q0 52 39 91.5t92 39.5q54 0 92.5 -39.5t38.5 -91.5
q0 -56 -37.5 -93.5t-93.5 -37.5z" />
    <glyph glyph-name="uni1EE5" unicode="&#x1ee5;" horiz-adv-x="1282" 
d="M537 -25q-192 0 -311.5 118t-119.5 308v713h279v-622q0 -144 63.5 -211.5t165.5 -67.5q125 0 200 79t75 249v573h278v-1114h-278v172h-8q-47 -87 -137 -142t-207 -55zM627 -401q-54 0 -92.5 38t-38.5 93q0 52 39 91.5t92 39.5q54 0 92.5 -39.5t38.5 -91.5
q0 -56 -38 -93.5t-93 -37.5z" />
    <glyph glyph-name="uni1EE6" unicode="&#x1ee6;" horiz-adv-x="1523" 
d="M762 -25q-131 0 -251 44t-209.5 121.5t-142.5 190t-53 242.5v992h287v-932q0 -165 91.5 -268t277.5 -103t277 103t91 268v932h287v-992q0 -172 -90.5 -310.5t-239.5 -213t-325 -74.5zM666 1665q0 33 13.5 53.5t55.5 46.5q68 37 68 86q0 21 -19 36.5t-47 15.5
q-32 0 -60 -15t-42 -39l-90 90q89 103 227 103q91 0 152 -50.5t61 -127.5q0 -113 -139 -181q-23 -11 -28 -22t-5 -33v-12h-147v49z" />
    <glyph glyph-name="uni1EE7" unicode="&#x1ee7;" horiz-adv-x="1282" 
d="M537 -25q-192 0 -311.5 118t-119.5 308v713h279v-622q0 -144 63.5 -211.5t165.5 -67.5q125 0 200 79t75 249v573h278v-1114h-278v172h-8q-47 -87 -137 -142t-207 -55zM537 1239q0 33 13.5 53.5t55.5 46.5q68 37 68 86q0 21 -19 36.5t-47 15.5q-32 0 -60 -15t-42 -39
l-90 90q89 103 227 103q91 0 152 -50.5t61 -127.5q0 -113 -139 -181q-23 -11 -28 -22t-5 -33v-12h-147v49z" />
    <glyph glyph-name="uni1EE8" unicode="&#x1ee8;" horiz-adv-x="1570" 
d="M762 -25q-131 0 -251 44t-209.5 121.5t-142.5 190t-53 242.5v992h287v-932q0 -165 91.5 -268t277.5 -103t277 103t91 268v932h287v-80q27 24 27 76q0 59 -35 118h205q22 -55 22 -129q0 -80 -60 -132.5t-159 -63.5v-781q0 -172 -90.5 -310.5t-239.5 -213t-325 -74.5z
M627 1688l237 278h262l-278 -278h-221z" />
    <glyph glyph-name="uni1EE9" unicode="&#x1ee9;" horiz-adv-x="1343" 
d="M537 -25q-192 0 -311.5 118t-119.5 308v713h279v-622q0 -144 63.5 -211.5t165.5 -67.5q125 0 200 79t75 249v573h278v-55q50 20 50 90q0 60 -35 119h204q23 -58 23 -129q0 -85 -66.5 -139t-175.5 -60v-940h-278v172h-8q-47 -87 -137 -142t-207 -55zM498 1262l237 278h262
l-278 -278h-221z" />
    <glyph glyph-name="uni1EEA" unicode="&#x1eea;" horiz-adv-x="1570" 
d="M762 -25q-131 0 -251 44t-209.5 121.5t-142.5 190t-53 242.5v992h287v-932q0 -165 91.5 -268t277.5 -103t277 103t91 268v932h287v-80q27 24 27 76q0 59 -35 118h205q22 -55 22 -129q0 -80 -60 -132.5t-159 -63.5v-781q0 -172 -90.5 -310.5t-239.5 -213t-325 -74.5z
M692 1688l-278 278h262l237 -278h-221z" />
    <glyph glyph-name="uni1EEB" unicode="&#x1eeb;" horiz-adv-x="1343" 
d="M537 -25q-192 0 -311.5 118t-119.5 308v713h279v-622q0 -144 63.5 -211.5t165.5 -67.5q125 0 200 79t75 249v573h278v-55q50 20 50 90q0 60 -35 119h204q23 -58 23 -129q0 -85 -66.5 -139t-175.5 -60v-940h-278v172h-8q-47 -87 -137 -142t-207 -55zM563 1262l-278 278
h262l237 -278h-221z" />
    <glyph glyph-name="uni1EEC" unicode="&#x1eec;" horiz-adv-x="1570" 
d="M762 -25q-131 0 -251 44t-209.5 121.5t-142.5 190t-53 242.5v992h287v-932q0 -165 91.5 -268t277.5 -103t277 103t91 268v932h287v-80q27 24 27 76q0 59 -35 118h205q22 -55 22 -129q0 -80 -60 -132.5t-159 -63.5v-781q0 -172 -90.5 -310.5t-239.5 -213t-325 -74.5z
M666 1665q0 33 13.5 53.5t55.5 46.5q68 37 68 86q0 21 -19 36.5t-47 15.5q-32 0 -60 -15t-42 -39l-90 90q89 103 227 103q91 0 152 -50.5t61 -127.5q0 -113 -139 -181q-23 -11 -28 -22t-5 -33v-12h-147v49z" />
    <glyph glyph-name="uni1EED" unicode="&#x1eed;" horiz-adv-x="1343" 
d="M537 -25q-192 0 -311.5 118t-119.5 308v713h279v-622q0 -144 63.5 -211.5t165.5 -67.5q125 0 200 79t75 249v573h278v-55q50 20 50 90q0 60 -35 119h204q23 -58 23 -129q0 -85 -66.5 -139t-175.5 -60v-940h-278v172h-8q-47 -87 -137 -142t-207 -55zM537 1239
q0 33 13.5 53.5t55.5 46.5q68 37 68 86q0 21 -19 36.5t-47 15.5q-32 0 -60 -15t-42 -39l-90 90q89 103 227 103q91 0 152 -50.5t61 -127.5q0 -113 -139 -181q-23 -11 -28 -22t-5 -33v-12h-147v49z" />
    <glyph glyph-name="uni1EEE" unicode="&#x1eee;" horiz-adv-x="1570" 
d="M762 -25q-131 0 -251 44t-209.5 121.5t-142.5 190t-53 242.5v992h287v-932q0 -165 91.5 -268t277.5 -103t277 103t91 268v932h287v-80q27 24 27 76q0 59 -35 118h205q22 -55 22 -129q0 -80 -60 -132.5t-159 -63.5v-781q0 -172 -90.5 -310.5t-239.5 -213t-325 -74.5z
M451 1669q0 121 58 205t138 84q76 -3 156 -66q71 -53 110 -53q58 0 58 129h139q0 -146 -50.5 -222.5t-144.5 -76.5q-69 0 -145 55q-74 53 -113 56q-35 0 -53 -30.5t-18 -80.5h-135z" />
    <glyph glyph-name="uni1EEF" unicode="&#x1eef;" horiz-adv-x="1343" 
d="M537 -25q-192 0 -311.5 118t-119.5 308v713h279v-622q0 -144 63.5 -211.5t165.5 -67.5q125 0 200 79t75 249v573h278v-55q50 20 50 90q0 60 -35 119h204q23 -58 23 -129q0 -85 -66.5 -139t-175.5 -60v-940h-278v172h-8q-47 -87 -137 -142t-207 -55zM322 1243
q0 121 58 205t138 84q76 -3 156 -66q71 -53 110 -53q58 0 58 129h139q0 -146 -50.5 -222.5t-144.5 -76.5q-69 0 -145 55q-74 53 -113 56q-35 0 -53 -30.5t-18 -80.5h-135z" />
    <glyph glyph-name="uni1EF0" unicode="&#x1ef0;" horiz-adv-x="1570" 
d="M762 -25q-131 0 -251 44t-209.5 121.5t-142.5 190t-53 242.5v992h287v-932q0 -165 91.5 -268t277.5 -103t277 103t91 268v932h287v-80q27 24 27 76q0 59 -35 118h205q22 -55 22 -129q0 -80 -60 -132.5t-159 -63.5v-781q0 -172 -90.5 -310.5t-239.5 -213t-325 -74.5z
M770 -401q-54 0 -92.5 38t-38.5 93q0 52 39 91.5t92 39.5q54 0 92.5 -39.5t38.5 -91.5q0 -56 -37.5 -93.5t-93.5 -37.5z" />
    <glyph glyph-name="uni1EF1" unicode="&#x1ef1;" horiz-adv-x="1343" 
d="M537 -25q-192 0 -311.5 118t-119.5 308v713h279v-622q0 -144 63.5 -211.5t165.5 -67.5q125 0 200 79t75 249v573h278v-55q50 20 50 90q0 60 -35 119h204q23 -58 23 -129q0 -85 -66.5 -139t-175.5 -60v-940h-278v172h-8q-47 -87 -137 -142t-207 -55zM627 -401
q-54 0 -92.5 38t-38.5 93q0 52 39 91.5t92 39.5q54 0 92.5 -39.5t38.5 -91.5q0 -56 -38 -93.5t-93 -37.5z" />
    <glyph glyph-name="Ygrave" unicode="&#x1ef2;" horiz-adv-x="1400" 
d="M557 0v623l-541 942h320l360 -647h9l360 647h319l-540 -942v-623h-287zM623 1688l-279 278h262l238 -278h-221z" />
    <glyph glyph-name="ygrave" unicode="&#x1ef3;" horiz-adv-x="1163" 
d="M160 -459v254h139q72 0 97.5 22t62.5 113l24 62v8h-57l-410 1114h275l291 -795h8l284 795h273l-459 -1274q-23 -65 -38 -102.5t-35 -76t-38 -57.5t-44 -35.5t-57.5 -22t-74.5 -5.5h-241zM535 1262l-279 278h262l238 -278h-221z" />
    <glyph glyph-name="uni1EF4" unicode="&#x1ef4;" horiz-adv-x="1400" 
d="M557 0v623l-541 942h320l360 -647h9l360 647h319l-540 -942v-623h-287zM700 -401q-54 0 -92.5 38t-38.5 93q0 52 39 91.5t92 39.5q54 0 92.5 -39.5t38.5 -91.5q0 -56 -37.5 -93.5t-93.5 -37.5z" />
    <glyph glyph-name="uni1EF5" unicode="&#x1ef5;" horiz-adv-x="1163" 
d="M160 -459v254h139q72 0 97.5 22t62.5 113l24 62v8h-57l-410 1114h275l291 -795h8l284 795h273l-459 -1274q-23 -65 -38 -102.5t-35 -76t-38 -57.5t-44 -35.5t-57.5 -22t-74.5 -5.5h-241zM860 -401q-54 0 -92.5 38t-38.5 93q0 52 39 91.5t92 39.5q54 0 92.5 -39.5
t38.5 -91.5q0 -56 -37.5 -93.5t-93.5 -37.5z" />
    <glyph glyph-name="uni1EF6" unicode="&#x1ef6;" horiz-adv-x="1400" 
d="M557 0v623l-541 942h320l360 -647h9l360 647h319l-540 -942v-623h-287zM596 1665q0 33 14 53.5t56 46.5q67 37 67 86q0 21 -18.5 36.5t-46.5 15.5q-32 0 -60.5 -15t-42.5 -39l-90 90q89 103 227 103q91 0 152 -50.5t61 -127.5q0 -113 -139 -181q-23 -11 -28 -22t-5 -33
v-12h-147v49z" />
    <glyph glyph-name="uni1EF7" unicode="&#x1ef7;" horiz-adv-x="1163" 
d="M160 -459v254h139q72 0 97.5 22t62.5 113l24 62v8h-57l-410 1114h275l291 -795h8l284 795h273l-459 -1274q-23 -65 -38 -102.5t-35 -76t-38 -57.5t-44 -35.5t-57.5 -22t-74.5 -5.5h-241zM508 1239q0 33 14 53.5t56 46.5q67 37 67 86q0 21 -18.5 36.5t-46.5 15.5
q-32 0 -60.5 -15t-42.5 -39l-90 90q89 103 227 103q91 0 152 -50.5t61 -127.5q0 -113 -139 -181q-23 -11 -28 -22t-5 -33v-12h-147v49z" />
    <glyph glyph-name="uni1EF8" unicode="&#x1ef8;" horiz-adv-x="1400" 
d="M557 0v623l-541 942h320l360 -647h9l360 647h319l-540 -942v-623h-287zM381 1669q0 120 58.5 204.5t138.5 84.5q75 -3 155 -66q71 -53 111 -53q57 0 57 129h139q0 -146 -50 -222.5t-144 -76.5q-70 0 -146 55q-75 53 -112 56q-35 0 -53.5 -30.5t-18.5 -80.5h-135z" />
    <glyph glyph-name="uni1EF9" unicode="&#x1ef9;" horiz-adv-x="1163" 
d="M160 -459v254h139q72 0 97.5 22t62.5 113l24 62v8h-57l-410 1114h275l291 -795h8l284 795h273l-459 -1274q-23 -65 -38 -102.5t-35 -76t-38 -57.5t-44 -35.5t-57.5 -22t-74.5 -5.5h-241zM293 1243q0 121 58 205t138 84q76 -3 156 -66q71 -53 111 -53q57 0 57 129h139
q0 -146 -50 -222.5t-144 -76.5q-70 0 -146 55q-75 53 -112 56q-35 0 -53.5 -30.5t-18.5 -80.5h-135z" />
    <glyph glyph-name="endash" unicode="&#x2013;" horiz-adv-x="1187" 
d="M123 463v229h942v-229h-942z" />
    <glyph glyph-name="emdash" unicode="&#x2014;" horiz-adv-x="2129" 
d="M123 463v229h1884v-229h-1884z" />
    <glyph glyph-name="quoteleft" unicode="&#x2018;" horiz-adv-x="518" 
d="M408 1565q26 0 18 -33l-80 -436q-6 -27 -27 -27h-206q-33 0 -19 37l129 430q5 18 12 23.5t27 5.5h146z" />
    <glyph glyph-name="quoteright" unicode="&#x2019;" horiz-adv-x="518" 
d="M111 1069q-27 0 -19 33l80 436q6 27 27 27h207q32 0 18 -37l-129 -430q-5 -18 -12 -23.5t-27 -5.5h-145z" />
    <glyph glyph-name="quotesinglbase" unicode="&#x201a;" horiz-adv-x="518" 
d="M111 -250q-27 0 -19 33l80 436q6 27 27 27h207q32 0 18 -37l-129 -430q-5 -18 -12 -23.5t-27 -5.5h-145z" />
    <glyph glyph-name="quotedblleft" unicode="&#x201c;" horiz-adv-x="894" 
d="M408 1565q26 0 18 -33l-80 -436q-6 -27 -27 -27h-206q-33 0 -19 37l129 430q5 18 12 23.5t27 5.5h146zM784 1565q27 0 19 -33l-80 -436q-6 -27 -27 -27h-207q-32 0 -18 37l129 430q5 18 12 23.5t27 5.5h145z" />
    <glyph glyph-name="quotedblright" unicode="&#x201d;" horiz-adv-x="894" 
d="M487 1069q-26 0 -18 33l80 436q6 27 26 27h207q33 0 19 -37l-129 -430q-5 -18 -12 -23.5t-27 -5.5h-146zM111 1069q-27 0 -19 33l80 436q6 27 27 27h207q32 0 18 -37l-129 -430q-5 -18 -12 -23.5t-27 -5.5h-145z" />
    <glyph glyph-name="quotedblbase" unicode="&#x201e;" horiz-adv-x="882" 
d="M475 -250q-26 0 -18 33l80 436q6 27 26 27h207q32 0 18 -37l-129 -430q-5 -18 -11.5 -23.5t-26.5 -5.5h-146zM111 -250q-27 0 -19 33l80 436q6 27 27 27h207q32 0 18 -37l-129 -430q-5 -18 -12 -23.5t-27 -5.5h-145z" />
    <glyph glyph-name="bullet" unicode="&#x2022;" horiz-adv-x="1146" 
d="M573 360q-115 0 -194.5 79.5t-79.5 195.5q0 117 79 195.5t195 78.5q117 0 196 -78.5t79 -195.5q0 -116 -79 -195.5t-196 -79.5z" />
    <glyph glyph-name="ellipsis" unicode="&#x2026;" horiz-adv-x="1490" 
d="M262 -8q-72 0 -122 50t-50 122q0 73 50 122.5t122 49.5q74 0 123 -49t49 -123q0 -72 -49.5 -122t-122.5 -50zM745 -8q-72 0 -122 50t-50 122q0 73 50 122.5t122 49.5q74 0 123.5 -49.5t49.5 -122.5q0 -72 -50 -122t-123 -50zM1229 -8q-72 0 -122 50t-50 122
q0 73 50 122.5t122 49.5q73 0 122.5 -49t49.5 -123q0 -72 -49.5 -122t-122.5 -50z" />
    <glyph glyph-name="perthousand" unicode="&#x2030;" horiz-adv-x="2224" 
d="M193 0l983 1556h204l-983 -1556h-204zM1135 -16q-131 0 -223.5 92.5t-92.5 222.5t92.5 222.5t223.5 92.5t223 -92t92 -223t-92 -223t-223 -92zM1135 143q64 0 109.5 45.5t45.5 110.5t-45.5 110.5t-109.5 45.5q-65 0 -110.5 -45.5t-45.5 -110.5t45.5 -110.5t110.5 -45.5z
M422 926q-131 0 -223.5 92.5t-92.5 222.5t92.5 222.5t223.5 92.5q130 0 222.5 -92t92.5 -223t-92.5 -223t-222.5 -92zM422 1085q64 0 110 45.5t46 110.5t-46 110.5t-110 45.5t-110 -45.5t-46 -110.5t46 -110.5t110 -45.5zM1802 -16q-130 0 -222.5 92t-92.5 223t92.5 223
t222.5 92q131 0 223.5 -92.5t92.5 -222.5t-92.5 -222.5t-223.5 -92.5zM1802 143q64 0 110 45.5t46 110.5t-46 110.5t-110 45.5t-109.5 -45.5t-45.5 -110.5t45.5 -110.5t109.5 -45.5z" />
    <glyph glyph-name="guilsinglleft" unicode="&#x2039;" horiz-adv-x="899" 
d="M549 45l-467 504v8l467 504l137 -127l-350 -377v-8l350 -377z" />
    <glyph glyph-name="guilsinglright" unicode="&#x203a;" horiz-adv-x="899" 
d="M350 45l-137 127l350 377v8l-350 377l137 127l467 -504v-8z" />
    <glyph glyph-name="fraction" unicode="&#x2044;" horiz-adv-x="247" 
d="M-393 0l878 1589h156l-879 -1589h-155z" />
    <glyph glyph-name="uni2070" unicode="&#x2070;" horiz-adv-x="782" 
d="M391 807q-82 0 -145.5 34.5t-102 94.5t-58 136t-19.5 163t19.5 163t58 136t102 94.5t145.5 34.5t145.5 -34.5t102.5 -94.5t58.5 -136t19.5 -163t-19.5 -163t-58.5 -136t-102.5 -94.5t-145.5 -34.5zM391 981q70 0 102.5 74t32.5 180t-32.5 180t-102.5 74t-102.5 -74
t-32.5 -180t32.5 -180t102.5 -74z" />
    <glyph glyph-name="uni2074" unicode="&#x2074;" horiz-adv-x="698" 
d="M379 827v152h-346v139l348 541h190v-508h95v-172h-95v-152h-192zM264 1151h115v176h-4l-111 -172v-4z" />
    <glyph glyph-name="uni2075" unicode="&#x2075;" horiz-adv-x="720" 
d="M360 815q-70 0 -126.5 22t-90 55.5t-55 73.5t-28 76.5t-1.5 65.5l168 -2q0 -45 33.5 -73.5t89.5 -28.5q47 0 82 31.5t35 84.5q1 53 -34 85t-79 32q-80 0 -127 -68l-157 72l47 418h495v-184h-342l-14 -117h4q54 51 133 51q110 0 186.5 -76.5t75.5 -212.5q0 -139 -85 -222
t-210 -83z" />
    <glyph glyph-name="uni2076" unicode="&#x2076;" horiz-adv-x="679" 
d="M332 815q-132 0 -215.5 82.5t-83.5 210.5q0 85 33 160q19 50 67 129l158 262h219l-156 -262h4q15 6 37 6q90 0 163 -84t73 -203q0 -131 -84 -216t-215 -85zM334 993q52 0 82 32.5t30 84.5q0 53 -30 84t-82 31q-51 0 -82 -31.5t-31 -83.5q0 -51 31 -84t82 -33z" />
    <glyph glyph-name="uni2077" unicode="&#x2077;" horiz-adv-x="616" 
d="M98 827l258 639v4h-331l2 189h557v-143l-277 -689h-209z" />
    <glyph glyph-name="uni2078" unicode="&#x2078;" horiz-adv-x="681" 
d="M340 813q-121 0 -206 72t-85 192q0 81 42 135.5t85 61.5v4q-32 0 -67 48t-35 114q0 108 80 170.5t186 62.5q108 0 188 -62.5t80 -170.5q0 -67 -33.5 -114.5t-64.5 -47.5v-4q43 -7 83 -61t40 -136q0 -120 -85.5 -192t-207.5 -72zM340 993q45 0 74.5 28t29.5 73t-29 71.5
t-75 26.5q-45 0 -73.5 -26.5t-28.5 -71.5t28.5 -73t73.5 -28zM340 1352q36 0 57 19t21 52q0 31 -21 50.5t-57 19.5q-35 0 -55.5 -19.5t-20.5 -50.5q0 -32 20.5 -51.5t55.5 -19.5z" />
    <glyph glyph-name="uni2079" unicode="&#x2079;" horiz-adv-x="684" 
d="M176 829l154 265h-4q-9 -9 -45 -9q-103 0 -171.5 82t-68.5 205q0 130 86.5 215.5t218.5 85.5q140 0 222.5 -81t82.5 -201q0 -66 -20 -125t-64 -136l-170 -301h-221zM342 1262q51 0 83 32t32 84q0 54 -30.5 84.5t-84.5 30.5q-55 0 -86 -32t-31 -85q0 -52 31 -83t86 -31z
" />
    <glyph glyph-name="uni207D" unicode="&#x207d;" horiz-adv-x="415" 
d="M285 664q-236 270 -236 579q0 312 236 582l131 -103q-85 -93 -138 -220t-53 -259q0 -128 51 -252t136 -229z" />
    <glyph glyph-name="uni207E" unicode="&#x207e;" horiz-adv-x="415" 
d="M4 762q85 105 135.5 228.5t50.5 252.5q0 132 -52.5 259t-137.5 220l131 103q236 -270 236 -582q0 -309 -236 -579z" />
    <glyph glyph-name="uni2080" unicode="&#x2080;" horiz-adv-x="782" 
d="M391 -315q-82 0 -145.5 34.5t-102 94.5t-58 136t-19.5 163t19.5 163t58 136t102 94.5t145.5 34.5t145.5 -34.5t102.5 -94.5t58.5 -136t19.5 -163t-19.5 -163t-58.5 -136t-102.5 -94.5t-145.5 -34.5zM391 -141q70 0 102.5 74t32.5 180t-32.5 180t-102.5 74t-102.5 -74
t-32.5 -180t32.5 -180t102.5 -74z" />
    <glyph glyph-name="uni2081" unicode="&#x2081;" horiz-adv-x="534" 
d="M227 -303v604h-4l-104 -74l-86 135l235 166h152v-831h-193z" />
    <glyph glyph-name="uni2082" unicode="&#x2082;" horiz-adv-x="702" 
d="M72 -301v162l233 219q69 64 99 106t30 88q0 95 -94 95q-51 0 -76 -31.5t-18 -93.5h-189q-8 133 71.5 216t217.5 83q117 0 198 -70t81 -186q0 -92 -44 -165.5t-153 -168.5l-76 -66v-4h285v-184h-565z" />
    <glyph glyph-name="uni2083" unicode="&#x2083;" horiz-adv-x="651" 
d="M299 -315q-96 0 -174 40.5t-109 98.5l129 129q57 -84 144 -84q54 0 84 23.5t30 62.5q0 92 -108 92h-82v168h84q41 0 62.5 23.5t21.5 60.5q0 68 -76 68q-21 0 -44 -9t-33 -15t-37.5 -28t-28.5 -22l-117 117q16 34 98 82.5t168 48.5q111 0 183.5 -64t72.5 -166
q0 -75 -34.5 -123.5t-71.5 -50.5v-4q42 0 87.5 -47.5t45.5 -132.5q0 -123 -83 -195.5t-212 -72.5z" />
    <glyph glyph-name="uni2084" unicode="&#x2084;" horiz-adv-x="698" 
d="M379 -303v151h-346v140l348 540h190v-508h95v-172h-95v-151h-192zM264 20h115v177h-4l-111 -172v-5z" />
    <glyph glyph-name="uni2085" unicode="&#x2085;" horiz-adv-x="720" 
d="M360 -315q-70 0 -126.5 22t-90 55t-55 73.5t-28 76.5t-1.5 65l168 -2q0 -45 33.5 -73.5t89.5 -28.5q47 0 82 32t35 85q1 53 -34 84.5t-79 31.5q-81 0 -127 -67l-157 72l47 417h495v-184h-342l-14 -117h4q55 52 133 52q110 0 186.5 -76.5t75.5 -212.5q0 -139 -85 -222
t-210 -83z" />
    <glyph glyph-name="uni2086" unicode="&#x2086;" horiz-adv-x="679" 
d="M332 -315q-132 0 -215.5 82t-83.5 210q0 85 33 160q19 50 67 129l158 262h219l-156 -262h4q15 6 37 6q90 0 163 -83.5t73 -202.5q0 -131 -84 -216t-215 -85zM334 -137q52 0 82 32.5t30 84.5q0 53 -30 83.5t-82 30.5q-51 0 -82 -31t-31 -83q0 -51 31 -84t82 -33z" />
    <glyph glyph-name="uni2087" unicode="&#x2087;" horiz-adv-x="616" 
d="M98 -303l258 639v4h-331l2 188h557v-143l-277 -688h-209z" />
    <glyph glyph-name="uni2088" unicode="&#x2088;" horiz-adv-x="681" 
d="M340 -317q-121 0 -206 72t-85 192q0 81 42 135t85 61v4q-32 0 -67 48t-35 114q0 108 80 171t186 63q107 0 187.5 -63t80.5 -171q0 -67 -33.5 -114.5t-64.5 -47.5v-4q43 -7 83 -60.5t40 -135.5q0 -120 -85.5 -192t-207.5 -72zM340 -137q45 0 74.5 27.5t29.5 72.5t-29 71.5
t-75 26.5q-45 0 -73.5 -26.5t-28.5 -71.5t28.5 -72.5t73.5 -27.5zM340 221q36 0 57 19.5t21 52.5q0 31 -21 50t-57 19q-35 0 -55.5 -19t-20.5 -50q0 -33 20.5 -52.5t55.5 -19.5z" />
    <glyph glyph-name="uni2089" unicode="&#x2089;" horiz-adv-x="684" 
d="M176 -301l154 264h-4q-8 -8 -45 -8q-103 0 -171.5 82t-68.5 205q0 130 86.5 215.5t218.5 85.5q140 0 222.5 -81.5t82.5 -201.5q0 -66 -20 -124.5t-64 -135.5l-170 -301h-221zM342 131q51 0 83 32.5t32 84.5q0 54 -30.5 84t-84.5 30q-55 0 -86 -31.5t-31 -84.5
q0 -52 31 -83.5t86 -31.5z" />
    <glyph glyph-name="uni208D" unicode="&#x208d;" horiz-adv-x="415" 
d="M285 -442q-236 270 -236 579q0 312 236 582l131 -103q-85 -93 -138 -220t-53 -259q0 -128 51 -252t136 -229z" />
    <glyph glyph-name="uni208E" unicode="&#x208e;" horiz-adv-x="415" 
d="M4 -344q85 105 135.5 228.5t50.5 252.5q0 132 -52.5 259t-137.5 220l131 103q236 -270 236 -582q0 -309 -236 -579z" />
    <glyph glyph-name="Euro" unicode="&#x20ac;" horiz-adv-x="1589" 
d="M963 -23q-290 0 -473.5 138.5t-245.5 400.5h-105v184h80q-4 33 -4 78q0 43 4 76h-80v184h107q28 154 133.5 276t257.5 186.5t321 64.5q141 0 280 -55t257 -162l-172 -181q-158 152 -377 152q-153 0 -258.5 -71t-152.5 -210h499v-184h-534q-6 -36 -6 -80q0 -42 4 -74h536
v-184h-508q32 -132 153 -212.5t282 -80.5q215 0 380 148l166 -178q-233 -216 -544 -216z" />
    <glyph glyph-name="uni20BD" unicode="&#x20bd;" horiz-adv-x="1302" 
d="M147 0v223h-98v254h98v113h-98v254h98v721h607q114 0 207 -26.5t163 -80.5t108 -141.5t38 -202.5q0 -166 -75 -286t-204 -179t-299 -59h-258v-113h258v-254h-258v-223h-287zM651 844q188 0 262 57.5t74 181.5q0 114 -76.5 171t-259.5 57h-217v-467h217z" />
    <glyph glyph-name="trademark" unicode="&#x2122;" horiz-adv-x="1724" 
d="M700 819v778h209l211 -546h4l211 546h209v-778h-155v463l4 82h-4l-215 -541h-103l-215 541h-4l4 -82v-463h-156zM256 819v643h-223v135h602v-135h-223v-643h-156z" />
    <glyph glyph-name="uni2150" unicode="&#x2150;" horiz-adv-x="1398" 
d="M227 737v604h-4l-104 -73l-86 135l235 166h152v-832h-193zM141 0l879 1589h156l-879 -1589h-156zM881 0l258 639v4h-332l2 188h557v-143l-276 -688h-209z" />
    <glyph glyph-name="uni2151" unicode="&#x2151;" horiz-adv-x="1466" 
d="M227 737v604h-4l-104 -73l-86 135l235 166h152v-832h-193zM141 0l879 1589h156l-879 -1589h-156zM958 2l154 264h-4q-8 -8 -45 -8q-103 0 -171.5 82t-68.5 205q0 130 86.5 215.5t218.5 85.5q140 0 223 -81.5t83 -201.5q0 -66 -20 -124.5t-64 -135.5l-170 -301h-222z
M1124 434q51 0 83 32.5t32 84.5q0 54 -30.5 84.5t-84.5 30.5q-55 0 -85.5 -32t-30.5 -85q0 -52 30.5 -83.5t85.5 -31.5z" />
    <glyph glyph-name="uni2152" unicode="&#x2152;" horiz-adv-x="2074" 
d="M227 737v604h-4l-104 -73l-86 135l235 166h152v-832h-193zM141 0l879 1589h156l-879 -1589h-156zM1010 0v604h-4l-105 -74l-86 136l236 165h151v-831h-192zM1683 -12q-82 0 -145.5 34.5t-102 94.5t-58 136t-19.5 163t19.5 163t58 136t102 94.5t145.5 34.5t145.5 -34.5
t102.5 -94.5t58.5 -136t19.5 -163t-19.5 -163t-58.5 -136t-102.5 -94.5t-145.5 -34.5zM1683 162q48 0 80 39t44 93.5t12 121.5t-12 121.5t-44 93.5t-80 39q-70 0 -102.5 -74t-32.5 -180t32.5 -180t102.5 -74z" />
    <glyph glyph-name="uni2153" unicode="&#x2153;" horiz-adv-x="1433" 
d="M227 737v604h-4l-104 -73l-86 135l235 166h152v-832h-193zM141 0l879 1589h156l-879 -1589h-156zM1081 -12q-96 0 -173.5 40.5t-108.5 98.5l129 129q57 -84 143 -84q54 0 84.5 23.5t30.5 62.5q0 92 -109 92h-82v168h84q41 0 62.5 23.5t21.5 60.5q0 68 -76 68
q-21 0 -44 -9t-33 -15t-37.5 -28t-28.5 -22l-117 117q16 34 98.5 82.5t168.5 48.5q111 0 183.5 -64t72.5 -166q0 -75 -35 -123.5t-72 -50.5v-4q42 0 87.5 -47.5t45.5 -132.5q0 -123 -83 -195.5t-212 -72.5z" />
    <glyph glyph-name="uni2154" unicode="&#x2154;" horiz-adv-x="1601" 
d="M72 739v162l233 219q68 63 98.5 106t30.5 89q0 94 -94 94q-51 0 -76 -31.5t-18 -93.5h-189q-8 133 71.5 216t217.5 83q117 0 198 -70t81 -186q0 -92 -44 -165.5t-153 -168.5l-76 -65v-4h285v-185h-565zM309 0l879 1589h155l-878 -1589h-156zM1249 -12q-96 0 -173.5 40.5
t-108.5 98.5l129 129q57 -84 143 -84q54 0 84.5 23.5t30.5 62.5q0 92 -109 92h-82v168h84q41 0 62.5 23.5t21.5 60.5q0 68 -76 68q-21 0 -44 -9t-33 -15t-37.5 -28t-28.5 -22l-117 117q16 34 98.5 82.5t168.5 48.5q111 0 183.5 -64t72.5 -166q0 -75 -35 -123.5t-72 -50.5v-4
q42 0 87.5 -47.5t45.5 -132.5q0 -123 -83 -195.5t-212 -72.5z" />
    <glyph glyph-name="uni2155" unicode="&#x2155;" horiz-adv-x="1503" 
d="M227 737v604h-4l-104 -73l-86 135l235 166h152v-832h-193zM141 0l879 1589h156l-879 -1589h-156zM1143 -12q-70 0 -126.5 22t-90 55.5t-55 73.5t-28 76.5t-1.5 65.5l168 -2q0 -45 33.5 -74t89.5 -29q47 0 81.5 32t34.5 85q1 53 -33.5 85t-78.5 32q-80 0 -127 -68l-158 72
l47 417h496v-184h-342l-15 -117h4q55 52 134 52q110 0 186.5 -76.5t75.5 -212.5q0 -139 -85 -222t-210 -83z" />
    <glyph glyph-name="uni2156" unicode="&#x2156;" horiz-adv-x="1671" 
d="M72 739v162l233 219q68 63 98.5 106t30.5 89q0 94 -94 94q-51 0 -76 -31.5t-18 -93.5h-189q-8 133 71.5 216t217.5 83q117 0 198 -70t81 -186q0 -92 -44 -165.5t-153 -168.5l-76 -65v-4h285v-185h-565zM309 0l879 1589h155l-878 -1589h-156zM1311 -12q-70 0 -126.5 22
t-90 55.5t-55 73.5t-28 76.5t-1.5 65.5l168 -2q0 -45 33 -74t89 -29q47 0 82 32t35 85q1 53 -33.5 85t-78.5 32q-80 0 -127 -68l-158 72l47 417h496v-184h-342l-15 -117h4q55 52 133 52q110 0 187 -76.5t76 -212.5q0 -139 -85 -222t-210 -83z" />
    <glyph glyph-name="uni2157" unicode="&#x2157;" horiz-adv-x="1619" 
d="M299 725q-96 0 -174 40.5t-109 98.5l129 129q57 -84 144 -84q54 0 84 23.5t30 62.5q0 92 -108 92h-82v168h84q41 0 62.5 23.5t21.5 60.5q0 68 -76 68q-21 0 -44 -9t-33 -15t-37.5 -28t-28.5 -22l-117 117q16 34 98 82.5t168 48.5q111 0 183.5 -63.5t72.5 -165.5
q0 -75 -34.5 -123.5t-71.5 -50.5v-4q42 0 87.5 -48t45.5 -133q0 -123 -83 -195.5t-212 -72.5zM258 0l879 1589h155l-878 -1589h-156zM1260 -12q-70 0 -126.5 22t-90.5 55.5t-55.5 73.5t-28 76.5t-1.5 65.5l168 -2q0 -45 33.5 -74t89.5 -29q47 0 82 32t35 85q1 53 -34 85
t-79 32q-80 0 -127 -68l-157 72l47 417h495v-184h-342l-14 -117h4q55 52 133 52q110 0 186.5 -76.5t75.5 -212.5q0 -139 -84.5 -222t-209.5 -83z" />
    <glyph glyph-name="uni2158" unicode="&#x2158;" horiz-adv-x="1667" 
d="M379 737v152h-346v139l348 541h190v-508h95v-172h-95v-152h-192zM264 1061h115v176h-4l-111 -172v-4zM305 0l879 1589h155l-878 -1589h-156zM1307 -12q-70 0 -126.5 22t-90 55.5t-55 73.5t-28 76.5t-1.5 65.5l168 -2q0 -45 33 -74t89 -29q47 0 82 32t35 85q1 53 -34 85
t-79 32q-79 0 -126 -68l-158 72l47 417h496v-184h-342l-15 -117h4q55 52 133 52q110 0 187 -76.5t76 -212.5q0 -139 -85 -222t-210 -83z" />
    <glyph glyph-name="uni2159" unicode="&#x2159;" horiz-adv-x="1462" 
d="M227 737v604h-4l-104 -73l-86 135l235 166h152v-832h-193zM141 0l879 1589h156l-879 -1589h-156zM1114 -12q-132 0 -215.5 82.5t-83.5 210.5q0 84 33 159q19 50 67 129l158 262h219l-155 -262h4q15 6 37 6q90 0 162.5 -83.5t72.5 -202.5q0 -131 -84 -216t-215 -85z
M1116 166q52 0 82.5 32.5t30.5 84.5q0 53 -30.5 83.5t-82.5 30.5q-51 0 -81.5 -31t-30.5 -83t31 -84.5t81 -32.5z" />
    <glyph glyph-name="uni215A" unicode="&#x215a;" horiz-adv-x="1648" 
d="M360 725q-70 0 -126.5 22t-90 55.5t-55 73.5t-28 76.5t-1.5 65.5l168 -2q0 -45 33.5 -74t89.5 -29q47 0 82 32t35 85q1 53 -34 85t-79 32q-80 0 -127 -68l-157 72l47 418h495v-185h-342l-14 -116h4q54 51 133 51q110 0 186.5 -76.5t75.5 -212.5q0 -139 -85 -222t-210 -83
zM328 0l878 1589h156l-879 -1589h-155zM1300 -12q-132 0 -215.5 82.5t-83.5 210.5q0 84 33 159q17 45 68 129l158 262h219l-156 -262h4q15 6 37 6q90 0 162.5 -83.5t72.5 -202.5q0 -131 -84 -216t-215 -85zM1303 166q52 0 82 32.5t30 84.5q0 53 -30 83.5t-82 30.5
q-51 0 -82 -31t-31 -83q0 -51 31 -84t82 -33z" />
    <glyph glyph-name="oneeighth" unicode="&#x215b;" horiz-adv-x="1464" 
d="M227 737v604h-4l-104 -73l-86 135l235 166h152v-832h-193zM141 0l879 1589h156l-879 -1589h-156zM1122 -14q-121 0 -206 72t-85 192q0 81 42 135t85 61v5q-32 0 -67 47.5t-35 113.5q0 108 80 171t186 63q107 0 188 -63t81 -171q0 -66 -33.5 -113.5t-65.5 -47.5v-5
q43 -7 83 -60.5t40 -135.5q0 -120 -85.5 -192t-207.5 -72zM1122 166q45 0 75 27.5t30 72.5t-29.5 72t-75.5 27q-45 0 -73.5 -27t-28.5 -72t28.5 -72.5t73.5 -27.5zM1122 524q36 0 57 19.5t21 52.5q0 31 -21 50.5t-57 19.5q-35 0 -55 -19.5t-20 -50.5q0 -33 20 -52.5
t55 -19.5z" />
    <glyph glyph-name="threeeighths" unicode="&#x215c;" horiz-adv-x="1581" 
d="M299 725q-96 0 -174 40.5t-109 98.5l129 129q57 -84 144 -84q54 0 84 23.5t30 62.5q0 92 -108 92h-82v168h84q41 0 62.5 23.5t21.5 60.5q0 68 -76 68q-21 0 -44 -9t-33 -15t-37.5 -28t-28.5 -22l-117 117q16 34 98 82.5t168 48.5q111 0 183.5 -63.5t72.5 -165.5
q0 -75 -34.5 -123.5t-71.5 -50.5v-4q42 0 87.5 -48t45.5 -133q0 -123 -83 -195.5t-212 -72.5zM258 0l879 1589h155l-878 -1589h-156zM1239 -14q-121 0 -206 72t-85 192q0 81 42 135t85 61v5q-32 0 -67 47.5t-35 113.5q0 108 80 171t186 63q107 0 187.5 -63t80.5 -171
q0 -67 -33 -114t-65 -47v-5q43 -7 83 -60.5t40 -135.5q0 -120 -85.5 -192t-207.5 -72zM1239 166q45 0 74.5 27.5t29.5 72.5t-29 72t-75 27q-45 0 -73.5 -27t-28.5 -72t28.5 -72.5t73.5 -27.5zM1239 524q36 0 57 19.5t21 52.5q0 31 -21 50.5t-57 19.5q-35 0 -55.5 -19.5
t-20.5 -50.5q0 -33 20.5 -52.5t55.5 -19.5z" />
    <glyph glyph-name="fiveeighths" unicode="&#x215d;" horiz-adv-x="1650" 
d="M360 725q-70 0 -126.5 22t-90 55.5t-55 73.5t-28 76.5t-1.5 65.5l168 -2q0 -45 33.5 -74t89.5 -29q47 0 82 32t35 85q1 53 -34 85t-79 32q-80 0 -127 -68l-157 72l47 418h495v-185h-342l-14 -116h4q54 51 133 51q110 0 186.5 -76.5t75.5 -212.5q0 -139 -85 -222t-210 -83
zM328 0l878 1589h156l-879 -1589h-155zM1309 -14q-121 0 -206 72t-85 192q0 81 42 135t85 61v5q-32 0 -67.5 47.5t-35.5 113.5q0 108 80.5 171t186.5 63q107 0 187.5 -63t80.5 -171q0 -67 -33 -114t-65 -47v-5q43 -7 83 -60.5t40 -135.5q0 -120 -85.5 -192t-207.5 -72z
M1309 166q45 0 74.5 27.5t29.5 72.5t-29 72t-75 27q-45 0 -74 -27t-29 -72t29 -72.5t74 -27.5zM1309 524q36 0 56.5 19.5t20.5 52.5q0 31 -20.5 50.5t-56.5 19.5q-35 0 -55.5 -19.5t-20.5 -50.5q0 -33 20.5 -52.5t55.5 -19.5z" />
    <glyph glyph-name="seveneighths" unicode="&#x215e;" horiz-adv-x="1546" 
d="M98 737l258 639v4h-331l2 189h557v-144l-277 -688h-209zM223 0l879 1589h155l-878 -1589h-156zM1204 -14q-121 0 -206 72t-85 192q0 81 42 135t85 61v5q-32 0 -67 47.5t-35 113.5q0 108 80 171t186 63q107 0 188 -63t81 -171q0 -66 -33.5 -113.5t-65.5 -47.5v-5
q43 -7 83 -60.5t40 -135.5q0 -120 -85.5 -192t-207.5 -72zM1204 166q45 0 75 27.5t30 72.5t-29.5 72t-75.5 27q-45 0 -73.5 -27t-28.5 -72t28.5 -72.5t73.5 -27.5zM1204 524q36 0 57 19.5t21 52.5q0 31 -21 50.5t-57 19.5q-35 0 -55.5 -19.5t-20.5 -50.5q0 -33 20.5 -52.5
t55.5 -19.5z" />
    <glyph glyph-name="uni215F" unicode="&#x215f;" horiz-adv-x="782" 
d="M227 737v604h-4l-104 -73l-86 135l235 166h152v-832h-193zM141 0l879 1589h156l-879 -1589h-156z" />
    <glyph glyph-name="uni2189" unicode="&#x2189;" horiz-adv-x="1681" 
d="M391 725q-82 0 -145.5 34.5t-102 94.5t-58 136t-19.5 163t19.5 163t58 136t102 94.5t145.5 34.5t145.5 -34.5t102.5 -94.5t58.5 -136t19.5 -163t-19.5 -163t-58.5 -136t-102.5 -94.5t-145.5 -34.5zM391 899q70 0 102.5 74t32.5 180t-32.5 180t-102.5 74t-102.5 -74
t-32.5 -180t32.5 -180t102.5 -74zM389 0l879 1589h155l-878 -1589h-156zM1329 -12q-96 0 -173.5 40.5t-108.5 98.5l129 129q57 -84 143 -84q54 0 84.5 23.5t30.5 62.5q0 92 -109 92h-82v168h84q41 0 62.5 23.5t21.5 60.5q0 68 -76 68q-21 0 -44 -9t-33 -15t-37.5 -28
t-28.5 -22l-117 117q16 34 98 82.5t168 48.5q111 0 183.5 -64t72.5 -166q0 -75 -34.5 -123.5t-71.5 -50.5v-4q42 0 87.5 -47.5t45.5 -132.5q0 -123 -83 -195.5t-212 -72.5z" />
    <glyph glyph-name="arrowleft" unicode="&#x2190;" horiz-adv-x="1753" 
d="M106 582l599 598l153 -154l-328 -328h1059v-233h-1059l328 -328l-153 -153z" />
    <glyph glyph-name="arrowup" unicode="&#x2191;" horiz-adv-x="1507" 
d="M1352 885l-154 -154l-328 328v-1059h-233v1059l-328 -328l-153 154l598 598z" />
    <glyph glyph-name="arrowright" unicode="&#x2192;" horiz-adv-x="1753" 
d="M1049 -16l-154 153l328 328h-1059v233h1059l-328 328l154 154l598 -598z" />
    <glyph glyph-name="arrowdown" unicode="&#x2193;" horiz-adv-x="1507" 
d="M156 582l153 153l328 -327v1058h233v-1058l328 327l154 -153l-598 -598z" />
    <glyph glyph-name="arrowboth" unicode="&#x2194;" horiz-adv-x="2621" 
d="M1917 -16l-154 153l328 328h-1561l328 -328l-153 -153l-599 598l599 598l153 -154l-328 -328h1561l-328 328l154 154l598 -598z" />
    <glyph glyph-name="arrowupdn" unicode="&#x2195;" horiz-adv-x="1507" 
d="M156 0l153 154l328 -328v1560l-328 -327l-153 153l598 598l598 -598l-154 -153l-328 327v-1560l328 328l154 -154l-598 -598z" />
    <glyph glyph-name="uni2196" unicode="&#x2196;" horiz-adv-x="1654" 
d="M295 1155h846v-217h-463l749 -748l-165 -165l-750 749v-465h-217v846z" />
    <glyph glyph-name="uni2197" unicode="&#x2197;" horiz-adv-x="1654" 
d="M1360 309h-217v465l-750 -749l-166 165l750 748h-463v217h846v-846z" />
    <glyph glyph-name="uni2198" unicode="&#x2198;" horiz-adv-x="1652" 
d="M512 61v218h465l-750 749l166 166l748 -750v463h217v-846h-846z" />
    <glyph glyph-name="uni2199" unicode="&#x2199;" horiz-adv-x="1652" 
d="M295 61v846h217v-463l748 750l165 -166l-749 -749h465v-218h-846z" />
    <glyph glyph-name="partialdiff" unicode="&#x2202;" horiz-adv-x="1273" 
d="M610 -25q-155 0 -278.5 71.5t-192.5 197.5t-69 284q0 150 65 268.5t189 187.5t286 69q84 0 165.5 -23t121.5 -55h8q-52 364 -342 364q-74 0 -148.5 -31t-119.5 -71l-176 176q85 76 200 126t252 50q312 0 454 -203.5t142 -601.5q0 -171 -29.5 -308t-80.5 -229.5
t-122 -154.5t-152 -89.5t-173 -27.5zM614 246q135 0 213 118.5t78 350.5v30q-101 37 -163 49.5t-128 12.5q-118 0 -196 -80t-78 -199t78 -200.5t196 -81.5z" />
    <glyph glyph-name="product" unicode="&#x220f;" horiz-adv-x="1687" 
d="M1139 -451v1745h-590v-1745h-262v2016h1114v-2016h-262z" />
    <glyph glyph-name="summation" unicode="&#x2211;" horiz-adv-x="1687" 
d="M1102 561l-463 742v8h762v254h-1114v-238l479 -766v-8l-479 -766v-238h1114v254h-762v9l463 741v8z" />
    <glyph glyph-name="minus" unicode="&#x2212;" horiz-adv-x="1236" 
d="M147 430v238h943v-238h-943z" />
    <glyph glyph-name="radical" unicode="&#x221a;" horiz-adv-x="1437" 
d="M522 0l-174 524h-287v271h484l139 -418h8l381 1188h303l-522 -1565h-332z" />
    <glyph glyph-name="infinity" unicode="&#x221e;" horiz-adv-x="2043" 
d="M1018 465q-41 -99 -142.5 -172.5t-248.5 -73.5q-145 0 -256 75t-167.5 195.5t-56.5 264.5t56.5 264.5t167.5 195t256 74.5q76 0 143.5 -23t115 -61.5t80.5 -81t52 -88.5h8q19 46 52 88.5t80.5 81t115 61.5t143.5 23q145 0 255.5 -74.5t167 -195t56.5 -264.5t-56.5 -264.5
t-167 -195.5t-255.5 -75q-147 0 -248.5 73.5t-142.5 172.5h-8zM410 754q0 -106 71 -181t178 -75q104 0 175 75t71 181t-71 181t-175 75q-107 0 -178 -75t-71 -181zM1634 754q0 106 -71.5 181t-178.5 75q-104 0 -174.5 -75t-70.5 -181t70.5 -181t174.5 -75q107 0 178.5 75
t71.5 181z" />
    <glyph glyph-name="integral" unicode="&#x222b;" horiz-adv-x="720" 
d="M25 -328v254h86q58 0 84 27.5t26 95.5v1475q0 229 230 229h245v-254h-86q-58 0 -84 -27.5t-26 -95.5v-1474q0 -230 -230 -230h-245z" />
    <glyph glyph-name="approxequal" unicode="&#x2248;" horiz-adv-x="1454" 
d="M147 788q88 96 189.5 152.5t193.5 56.5q69 0 120 -16.5t112 -54.5q85 -54 162 -54q100 0 182 99l180 -180q-50 -65 -115.5 -106t-120 -54t-110.5 -13q-114 0 -217 56q-67 36 -107.5 51.5t-78.5 15.5q-61 0 -116.5 -33.5t-96.5 -78.5zM180 297q94 102 178 155.5t172 53.5
q45 0 88 -11.5t66 -22t78 -38.5q103 -53 182 -53q80 0 182 80l181 -180q-163 -154 -367 -154q-116 0 -217 55q-69 37 -108.5 52.5t-77.5 15.5q-19 0 -35.5 -3t-32.5 -11.5t-27 -14.5t-26 -20.5t-20.5 -20t-21 -23t-18.5 -20.5z" />
    <glyph glyph-name="notequal" unicode="&#x2260;" horiz-adv-x="1441" 
d="M270 0l138 287h-261v237h373l121 254h-494v238h607l139 295h246l-140 -295h263v-238h-375l-121 -254h496v-237h-609l-137 -287h-246z" />
    <glyph glyph-name="lessequal" unicode="&#x2264;" horiz-adv-x="1482" 
d="M1221 0h-1041v229h1041v-229zM1139 287l-926 483v188l926 500v-254l-647 -336v-8l647 -323v-250z" />
    <glyph glyph-name="greaterequal" unicode="&#x2265;" horiz-adv-x="1482" 
d="M262 0v229h1041v-229h-1041zM344 287v250l647 323v8l-647 336v254l926 -500v-188z" />
    <glyph glyph-name="A.ss01" 
d="M496 1384q35 103 79.5 142t124.5 39h95q80 0 124.5 -39t79.5 -142l471 -1384h-286l-137 401h-598l-138 -401h-286zM535 655h426l-209 615h-9z" />
    <glyph glyph-name="Aacute.ss01" 
d="M496 1384q35 103 79.5 142t124.5 39h95q80 0 124.5 -39t79.5 -142l471 -1384h-286l-137 401h-598l-138 -401h-286zM535 655h426l-209 615h-9zM604 1688l238 278h262l-279 -278h-221z" />
    <glyph glyph-name="Abreve.ss01" 
d="M496 1384q35 103 79.5 142t124.5 39h95q80 0 124.5 -39t79.5 -142l471 -1384h-286l-137 401h-598l-138 -401h-286zM535 655h426l-209 615h-9zM748 1638q-74 0 -117.5 10.5t-87.5 39.5q-62 46 -82 122q-17 66 -17 132h148q8 -46 24 -82q16 -37 46 -50q13 -8 86 -8
q70 0 86 8q29 12 45 50q16 36 24 82h148q0 -66 -17 -132q-20 -76 -82 -122q-44 -29 -87 -39.5t-117 -10.5z" />
    <glyph glyph-name="uni1EAE.ss01" 
d="M496 1384q35 103 79.5 142t124.5 39h95q80 0 124.5 -39t79.5 -142l471 -1384h-286l-137 401h-598l-138 -401h-286zM535 655h426l-209 615h-9zM748 1638q-86 0 -129.5 8t-83.5 42q-53 44 -74 131q-14 54 -17 102h140l24 -61q16 -38 45 -50q13 -8 95 -8q78 0 94 8
q29 12 45 50l24 61h140q-3 -48 -17 -102q-21 -88 -73 -131q-40 -34 -83.5 -42t-129.5 -8zM649 1921l213 254h221l-254 -254h-180z" />
    <glyph glyph-name="uni1EB6.ss01" 
d="M496 1384q35 103 79.5 142t124.5 39h95q80 0 124.5 -39t79.5 -142l471 -1384h-286l-137 401h-598l-138 -401h-286zM535 655h426l-209 615h-9zM748 1638q-74 0 -117.5 10.5t-87.5 39.5q-62 46 -82 122q-17 66 -17 132h148q8 -46 24 -82q16 -37 46 -50q13 -8 86 -8
q70 0 86 8q29 12 45 50q16 36 24 82h148q0 -66 -17 -132q-20 -76 -82 -122q-44 -29 -87 -39.5t-117 -10.5zM748 -401q-54 0 -93 38t-39 93q0 52 39.5 91.5t92.5 39.5q54 0 92.5 -39.5t38.5 -91.5q0 -56 -37.5 -93.5t-93.5 -37.5z" />
    <glyph glyph-name="uni1EB0.ss01" 
d="M496 1384q35 103 79.5 142t124.5 39h95q80 0 124.5 -39t79.5 -142l471 -1384h-286l-137 401h-598l-138 -401h-286zM535 655h426l-209 615h-9zM748 1638q-80 0 -127 10t-86 40q-46 40 -74 131q-17 66 -17 102h140l24 -61q16 -38 45 -50q13 -8 95 -8q78 0 94 8q29 12 45 50
l24 61h140q0 -36 -17 -102q-28 -92 -73 -131q-39 -30 -86 -40t-127 -10zM666 1921l-254 254h221l213 -254h-180z" />
    <glyph glyph-name="uni1EB2.ss01" 
d="M496 1384q35 103 79.5 142t124.5 39h95q80 0 124.5 -39t79.5 -142l471 -1384h-286l-137 401h-598l-138 -401h-286zM535 655h426l-209 615h-9zM748 1634q-81 0 -127.5 9.5t-85.5 39.5q-46 40 -74 132q-17 66 -17 102h140l24 -62q16 -36 45 -49q13 -8 95 -8q78 0 94 8
q29 13 45 49l24 62h140q0 -36 -17 -102q-28 -93 -73 -132q-39 -30 -85.5 -39.5t-127.5 -9.5zM680 1946q0 33 14 53.5t56 46.5q67 37 67 86q0 21 -18.5 36t-46.5 15q-56 0 -103 -53l-76 76q64 94 187 100q90 0 148.5 -46.5t58.5 -115.5q0 -60 -31.5 -101t-99.5 -79
q-23 -12 -28 -22.5t-5 -32.5v-4h-123v41z" />
    <glyph glyph-name="uni1EB4.ss01" 
d="M496 1384q35 103 79.5 142t124.5 39h95q80 0 124.5 -39t79.5 -142l471 -1384h-286l-137 401h-598l-138 -401h-286zM535 655h426l-209 615h-9zM586 1985q0 122 56.5 196t133.5 74q66 0 150 -66q76 -61 116 -61q34 0 55 43t21 102h127q0 -127 -58 -207.5t-145 -80.5
q-67 0 -137 55q-77 59 -117 59q-35 0 -55 -32.5t-20 -81.5h-127zM748 1634q-81 0 -127.5 9.5t-85.5 39.5q-46 40 -74 132q-17 66 -17 102h140l24 -62q16 -36 45 -49q13 -8 95 -8q78 0 94 8q29 13 45 49l24 62h140q0 -36 -17 -102q-28 -93 -73 -132q-39 -30 -85.5 -39.5
t-127.5 -9.5z" />
    <glyph glyph-name="Acircumflex.ss01" 
d="M496 1384q35 103 79.5 142t124.5 39h95q80 0 124.5 -39t79.5 -142l471 -1384h-286l-137 401h-598l-138 -401h-286zM535 655h426l-209 615h-9zM387 1649l254 270h213l254 -270h-221l-131 131h-17l-131 -131h-221z" />
    <glyph glyph-name="uni1EA4.ss01" 
d="M496 1384q35 103 79.5 142t124.5 39h95q80 0 124.5 -39t79.5 -142l471 -1384h-286l-137 401h-598l-138 -401h-286zM535 655h426l-209 615h-9zM958 1819l222 254h221l-254 -254h-189zM403 1645l250 258h189l250 -258h-205l-131 114h-17l-131 -114h-205z" />
    <glyph glyph-name="uni1EAC.ss01" 
d="M496 1384q35 103 79.5 142t124.5 39h95q80 0 124.5 -39t79.5 -142l471 -1384h-286l-137 401h-598l-138 -401h-286zM535 655h426l-209 615h-9zM387 1649l254 270h213l254 -270h-221l-131 131h-17l-131 -131h-221zM748 -401q-54 0 -93 38t-39 93q0 52 39.5 91.5t92.5 39.5
q54 0 92.5 -39.5t38.5 -91.5q0 -56 -37.5 -93.5t-93.5 -37.5z" />
    <glyph glyph-name="uni1EA6.ss01" 
d="M496 1384q35 103 79.5 142t124.5 39h95q80 0 124.5 -39t79.5 -142l471 -1384h-286l-137 401h-598l-138 -401h-286zM535 655h426l-209 615h-9zM1061 1802l-254 254h221l221 -254h-188zM403 1645l250 258h189l250 -258h-205l-131 114h-17l-131 -114h-205z" />
    <glyph glyph-name="uni1EA8.ss01" 
d="M496 1384q35 103 79.5 142t124.5 39h95q80 0 124.5 -39t79.5 -142l471 -1384h-286l-137 401h-598l-138 -401h-286zM535 655h426l-209 615h-9zM977 1855q0 33 14 54t56 47q67 37 67 86q0 21 -18.5 36t-46.5 15q-56 0 -103 -53l-76 76q64 94 187 100q90 0 148.5 -46.5
t58.5 -115.5q0 -60 -31.5 -101t-99.5 -79q-23 -12 -28 -22.5t-5 -32.5v-4h-123v40zM403 1645l250 258h189l250 -258h-205l-131 114h-17l-131 -114h-205z" />
    <glyph glyph-name="uni1EAA.ss01" 
d="M496 1384q35 103 79.5 142t124.5 39h95q80 0 124.5 -39t79.5 -142l471 -1384h-286l-137 401h-598l-138 -401h-286zM535 655h426l-209 615h-9zM477 1937q0 118 61.5 199.5t137.5 81.5q65 0 149 -66q76 -61 117 -61q34 0 55 43t21 102h135q0 -141 -60.5 -220t-150.5 -79
q-66 0 -137 56q-77 59 -117 59q-35 0 -55.5 -33t-20.5 -82h-135zM403 1645l250 258h189l250 -258h-205l-131 114h-17l-131 -114h-205z" />
    <glyph glyph-name="uni1EA0.ss01" 
d="M496 1384q35 103 79.5 142t124.5 39h95q80 0 124.5 -39t79.5 -142l471 -1384h-286l-137 401h-598l-138 -401h-286zM535 655h426l-209 615h-9zM748 -401q-54 0 -93 38t-39 93q0 52 39.5 91.5t92.5 39.5q54 0 92.5 -39.5t38.5 -91.5q0 -56 -37.5 -93.5t-93.5 -37.5z" />
    <glyph glyph-name="Agrave.ss01" 
d="M496 1384q35 103 79.5 142t124.5 39h95q80 0 124.5 -39t79.5 -142l471 -1384h-286l-137 401h-598l-138 -401h-286zM535 655h426l-209 615h-9zM670 1688l-279 278h262l238 -278h-221z" />
    <glyph glyph-name="uni1EA2.ss01" 
d="M496 1384q35 103 79.5 142t124.5 39h95q80 0 124.5 -39t79.5 -142l471 -1384h-286l-137 401h-598l-138 -401h-286zM535 655h426l-209 615h-9zM643 1665q0 33 14 53.5t56 46.5q67 37 67 86q0 21 -18.5 36.5t-46.5 15.5q-32 0 -60.5 -15t-42.5 -39l-90 90q89 103 228 103
q91 0 152 -50.5t61 -127.5q0 -113 -140 -181q-16 -8 -23 -17t-8 -15.5t-1 -22.5v-12h-148v49z" />
    <glyph glyph-name="Atilde.ss01" 
d="M496 1384q35 103 79.5 142t124.5 39h95q80 0 124.5 -39t79.5 -142l471 -1384h-286l-137 401h-598l-138 -401h-286zM535 655h426l-209 615h-9zM428 1669q0 120 58.5 204.5t138.5 84.5q75 -3 155 -66q71 -53 111 -53q57 0 57 129h139q0 -146 -50 -222.5t-144 -76.5
q-69 0 -145 55q-74 53 -113 56q-35 0 -53.5 -30.5t-18.5 -80.5h-135z" />
    <glyph glyph-name="E.ss01" horiz-adv-x="1196" 
d="M147 1335q0 230 230 230h704v-254h-536q-66 0 -88.5 -22t-22.5 -85v-270h598v-254h-598v-426h656v-254h-943v1335z" />
    <glyph glyph-name="Eacute.ss01" horiz-adv-x="1196" 
d="M147 1335q0 230 230 230h704v-254h-536q-66 0 -88.5 -22t-22.5 -85v-270h598v-254h-598v-426h656v-254h-943v1335zM489 1704l238 278h262l-278 -278h-222z" />
    <glyph glyph-name="Ecircumflex.ss01" horiz-adv-x="1196" 
d="M147 1335q0 230 230 230h704v-254h-536q-66 0 -88.5 -22t-22.5 -85v-270h598v-254h-598v-426h656v-254h-943v1335zM272 1665l254 270h213l254 -270h-221l-131 131h-16l-131 -131h-222z" />
    <glyph glyph-name="uni1EBE.ss01" horiz-adv-x="1196" 
d="M147 1335q0 230 230 230h704v-254h-536q-66 0 -88.5 -22t-22.5 -85v-270h598v-254h-598v-426h656v-254h-943v1335zM844 1835l221 254h221l-254 -254h-188zM289 1661l250 258h188l250 -258h-205l-131 115h-16l-131 -115h-205z" />
    <glyph glyph-name="uni1EC6.ss01" horiz-adv-x="1196" 
d="M147 1335q0 230 230 230h704v-254h-536q-66 0 -88.5 -22t-22.5 -85v-270h598v-254h-598v-426h656v-254h-943v1335zM272 1665l254 270h213l254 -270h-221l-131 131h-16l-131 -131h-222zM657 -401q-54 0 -92.5 38t-38.5 93q0 52 39 91.5t92 39.5q54 0 92.5 -39.5
t38.5 -91.5q0 -56 -38 -93.5t-93 -37.5z" />
    <glyph glyph-name="uni1EC0.ss01" horiz-adv-x="1196" 
d="M147 1335q0 230 230 230h704v-254h-536q-66 0 -88.5 -22t-22.5 -85v-270h598v-254h-598v-426h656v-254h-943v1335zM946 1819l-254 254h221l222 -254h-189zM289 1661l250 258h188l250 -258h-205l-131 115h-16l-131 -115h-205z" />
    <glyph glyph-name="uni1EC2.ss01" horiz-adv-x="1196" 
d="M147 1335q0 230 230 230h704v-254h-536q-66 0 -88.5 -22t-22.5 -85v-270h598v-254h-598v-426h656v-254h-943v1335zM862 1872q0 33 14 53.5t56 46.5q67 37 67 86q0 21 -18.5 36t-46.5 15q-56 0 -103 -53l-75 76q64 94 186 100q90 0 148.5 -46t58.5 -115
q0 -60 -31.5 -101.5t-99.5 -79.5q-23 -12 -28 -22.5t-5 -32.5v-4h-123v41zM289 1661l250 258h188l250 -258h-205l-131 115h-16l-131 -115h-205z" />
    <glyph glyph-name="uni1EC4.ss01" horiz-adv-x="1196" 
d="M147 1335q0 230 230 230h704v-254h-536q-66 0 -88.5 -22t-22.5 -85v-270h598v-254h-598v-426h656v-254h-943v1335zM362 1954q0 118 61 199t138 81q67 0 150 -65q77 -62 116 -62q34 0 55 43t21 103h135q0 -141 -60.5 -220t-150.5 -79q-67 0 -137 55q-77 59 -117 59
q-35 0 -55 -32.5t-20 -81.5h-136zM289 1661l250 258h188l250 -258h-205l-131 115h-16l-131 -115h-205z" />
    <glyph glyph-name="uni1EB8.ss01" horiz-adv-x="1196" 
d="M147 1335q0 230 230 230h704v-254h-536q-66 0 -88.5 -22t-22.5 -85v-270h598v-254h-598v-426h656v-254h-943v1335zM657 -401q-54 0 -92.5 38t-38.5 93q0 52 39 91.5t92 39.5q54 0 92.5 -39.5t38.5 -91.5q0 -56 -38 -93.5t-93 -37.5z" />
    <glyph glyph-name="Egrave.ss01" horiz-adv-x="1196" 
d="M147 1335q0 230 230 230h704v-254h-536q-66 0 -88.5 -22t-22.5 -85v-270h598v-254h-598v-426h656v-254h-943v1335zM555 1704l-279 278h263l237 -278h-221z" />
    <glyph glyph-name="uni1EBA.ss01" horiz-adv-x="1196" 
d="M147 1335q0 230 230 230h704v-254h-536q-66 0 -88.5 -22t-22.5 -85v-270h598v-254h-598v-426h656v-254h-943v1335zM528 1681q0 33 14 54t56 47q68 37 68 86q0 21 -18.5 36t-47.5 15q-32 0 -60 -15t-42 -38l-90 90q88 102 227 102q91 0 152 -50.5t61 -127.5
q0 -112 -139 -180q-23 -11 -28 -22t-5 -33v-13h-148v49z" />
    <glyph glyph-name="uni1EBC.ss01" horiz-adv-x="1196" 
d="M147 1335q0 230 230 230h704v-254h-536q-66 0 -88.5 -22t-22.5 -85v-270h598v-254h-598v-426h656v-254h-943v1335zM313 1686q0 120 58.5 204t138.5 84q77 -3 156 -65q73 -54 110 -54q58 0 58 130h139q0 -146 -50.5 -222.5t-144.5 -76.5q-69 0 -145 55q-73 52 -113 55
q-35 0 -53 -30t-18 -80h-136z" />
    <glyph glyph-name="F.ss01" horiz-adv-x="1138" 
d="M147 1335q0 230 230 230h704v-254h-536q-66 0 -88.5 -22t-22.5 -85v-377h598v-254h-598v-573h-287v1335z" />
    <glyph glyph-name="G.ss01" horiz-adv-x="1597" 
d="M872 -25q-182 0 -334 63.5t-252.5 173.5t-156 256.5t-55.5 313.5q0 171 64 322t172 256.5t254.5 167t307.5 61.5q206 3 363 -80q129 -68 201 -151l-185 -184q-77 85 -162.5 119t-216.5 34q-146 0 -264.5 -72t-185 -196t-66.5 -275q0 -160 74.5 -286.5t191.5 -192
t250 -65.5q223 0 324 86v260h-270v254h540v-643q-235 -222 -594 -222z" />
    <glyph glyph-name="I.ss01" horiz-adv-x="847" 
d="M123 0v238h162v1089h-162v238h602v-238h-154v-1089h154v-238h-602z" />
    <glyph glyph-name="Iacute.ss01" horiz-adv-x="847" 
d="M123 0v238h162v1089h-162v238h602v-238h-154v-1089h154v-238h-602zM285 1688l237 278h262l-278 -278h-221z" />
    <glyph glyph-name="uni1ECA.ss01" horiz-adv-x="847" 
d="M123 0v238h162v1089h-162v238h602v-238h-154v-1089h154v-238h-602zM428 -401q-54 0 -92.5 38t-38.5 93q0 52 39 91.5t92 39.5q54 0 92.5 -39.5t38.5 -91.5q0 -56 -37.5 -93.5t-93.5 -37.5z" />
    <glyph glyph-name="Igrave.ss01" horiz-adv-x="847" 
d="M123 0v238h162v1089h-162v238h602v-238h-154v-1089h154v-238h-602zM350 1688l-278 278h262l237 -278h-221z" />
    <glyph glyph-name="uni1EC8.ss01" horiz-adv-x="847" 
d="M123 0v238h162v1089h-162v238h602v-238h-154v-1089h154v-238h-602zM324 1665q0 33 13.5 53.5t55.5 46.5q68 37 68 86q0 21 -19 36.5t-47 15.5q-32 0 -60 -15t-42 -39l-90 90q89 103 227 103q91 0 152 -50.5t61 -127.5q0 -113 -139 -181q-23 -11 -28 -22t-5 -33v-12h-147
v49z" />
    <glyph glyph-name="Itilde.ss01" horiz-adv-x="847" 
d="M123 0v238h162v1089h-162v238h602v-238h-154v-1089h154v-238h-602zM109 1669q0 121 58 205t138 84q76 -3 156 -66q71 -53 110 -53q58 0 58 129h139q0 -146 -50.5 -222.5t-144.5 -76.5q-69 0 -145 55q-74 53 -113 56q-35 0 -53 -30.5t-18 -80.5h-135z" />
    <glyph glyph-name="K.ss01" horiz-adv-x="1460" 
d="M147 0v1565h287v-676h176l473 676h328l-491 -707v-16q3 0 24.5 -8.5t60.5 -31.5t82 -56.5t89 -89.5t83 -124t62.5 -167.5t28.5 -212.5l2 -152h-287l-2 109q-3 95 -22.5 174t-48.5 132.5t-69.5 94t-80.5 64t-86.5 38t-84 19t-75.5 4.5h-162v-635h-287z" />
    <glyph glyph-name="R.ss01" horiz-adv-x="1376" 
d="M147 0v1565h607q114 0 207 -26.5t163 -80.5t108 -141.5t38 -202.5q0 -156 -75.5 -273.5t-203.5 -176.5v-9q141 -95 193.5 -244t52.5 -411h-287q0 178 -43 303q-43 124 -140 205.5t-202 81.5h-131v-590h-287zM684 844q165 0 234 58t69 181q0 113 -71 170.5t-232 57.5h-250
v-467h250z" />
    <glyph glyph-name="L_A" horiz-adv-x="2471" 
d="M147 0v1565h287v-1311h653l447 1311h381l532 -1565h-286l-138 401h-598l-137 -401h-1141zM1511 655h426l-208 615h-9z" />
    <glyph glyph-name="L_Aacute" horiz-adv-x="2471" 
d="M147 0v1565h287v-1311h653l447 1311h381l532 -1565h-286l-138 401h-598l-137 -401h-1141zM1511 655h426l-208 615h-9zM1581 1688l238 278h262l-279 -278h-221z" />
    <glyph glyph-name="L_Abreve" horiz-adv-x="2471" 
d="M147 0v1565h287v-1311h653l447 1311h381l532 -1565h-286l-138 401h-598l-137 -401h-1141zM1511 655h426l-208 615h-9zM1724 1638q-74 0 -117 10.5t-87 39.5q-62 46 -82 122q-17 66 -17 132h148q8 -46 24 -82q16 -38 45 -50q13 -8 86 -8q70 0 86 8q29 12 45 50
q17 40 25 82h148q0 -66 -17 -132q-20 -76 -82 -122q-44 -29 -87.5 -39.5t-117.5 -10.5z" />
    <glyph glyph-name="uni004C1EAE" horiz-adv-x="2471" 
d="M147 0v1565h287v-1311h653l447 1311h381l532 -1565h-286l-138 401h-598l-137 -401h-1141zM1511 655h426l-208 615h-9zM1724 1638q-86 0 -129.5 8t-83.5 42q-52 43 -73 131q-14 54 -17 102h140l24 -61q16 -38 45 -50q13 -8 94 -8q79 0 95 8q29 12 45 50l24 61h140
q-3 -48 -17 -102q-21 -87 -74 -131q-40 -34 -83.5 -42t-129.5 -8zM1626 1921l213 254h221l-254 -254h-180z" />
    <glyph glyph-name="uni004C1EB6" horiz-adv-x="2471" 
d="M147 0v1565h287v-1311h653l447 1311h381l532 -1565h-286l-138 401h-598l-137 -401h-1141zM1511 655h426l-208 615h-9zM1724 1638q-74 0 -117 10.5t-87 39.5q-62 46 -82 122q-17 66 -17 132h148q8 -46 24 -82q16 -38 45 -50q13 -8 86 -8q70 0 86 8q29 12 45 50
q17 40 25 82h148q0 -66 -17 -132q-20 -76 -82 -122q-44 -29 -87.5 -39.5t-117.5 -10.5zM1724 -401q-54 0 -92.5 38t-38.5 93q0 52 39 91.5t92 39.5q54 0 92.5 -39.5t38.5 -91.5q0 -56 -37.5 -93.5t-93.5 -37.5z" />
    <glyph glyph-name="uni004C1EB0" horiz-adv-x="2471" 
d="M147 0v1565h287v-1311h653l447 1311h381l532 -1565h-286l-138 401h-598l-137 -401h-1141zM1511 655h426l-208 615h-9zM1724 1638q-80 0 -127 10t-86 40q-45 39 -73 131q-17 66 -17 102h140l24 -61q16 -38 45 -50q13 -8 94 -8q79 0 95 8q29 12 45 50l24 61h140
q0 -36 -17 -102q-28 -91 -74 -131q-39 -30 -86 -40t-127 -10zM1642 1921l-253 254h221l213 -254h-181z" />
    <glyph glyph-name="uni004C1EB2" horiz-adv-x="2471" 
d="M147 0v1565h287v-1311h653l447 1311h381l532 -1565h-286l-138 401h-598l-137 -401h-1141zM1511 655h426l-208 615h-9zM1724 1634q-81 0 -127.5 9.5t-85.5 39.5q-45 39 -73 132q-17 66 -17 102h140l24 -62q16 -36 45 -49q13 -8 94 -8q79 0 95 8q29 13 45 49l24 62h140
q0 -36 -17 -102q-28 -92 -74 -132q-39 -30 -85.5 -39.5t-127.5 -9.5zM1657 1946q0 33 13.5 53.5t55.5 46.5q68 37 68 86q0 21 -18.5 36t-46.5 15q-56 0 -103 -53l-76 76q64 94 187 100q90 0 148.5 -46.5t58.5 -115.5q0 -59 -31.5 -100.5t-100.5 -79.5q-16 -9 -23 -17.5
t-8 -15t-1 -22.5v-4h-123v41z" />
    <glyph glyph-name="uni004C1EB4" horiz-adv-x="2471" 
d="M147 0v1565h287v-1311h653l447 1311h381l532 -1565h-286l-138 401h-598l-137 -401h-1141zM1511 655h426l-208 615h-9zM1563 1985q0 122 56.5 196t133.5 74q66 0 150 -66q76 -61 116 -61q34 0 55 43t21 102h127q0 -127 -58 -207.5t-145 -80.5q-67 0 -137 55
q-77 59 -117 59q-35 0 -55 -32.5t-20 -81.5h-127zM1724 1634q-81 0 -127.5 9.5t-85.5 39.5q-45 39 -73 132q-17 66 -17 102h140l24 -62q16 -36 45 -49q13 -8 94 -8q79 0 95 8q29 13 45 49l24 62h140q0 -36 -17 -102q-28 -92 -74 -132q-39 -30 -85.5 -39.5t-127.5 -9.5z" />
    <glyph glyph-name="L_Acircumflex" horiz-adv-x="2471" 
d="M147 0v1565h287v-1311h653l447 1311h381l532 -1565h-286l-138 401h-598l-137 -401h-1141zM1511 655h426l-208 615h-9zM1364 1649l254 270h213l254 -270h-221l-131 131h-17l-131 -131h-221z" />
    <glyph glyph-name="uni004C1EA4" horiz-adv-x="2471" 
d="M147 0v1565h287v-1311h653l447 1311h381l532 -1565h-286l-138 401h-598l-137 -401h-1141zM1511 655h426l-208 615h-9zM1935 1819l222 254h221l-254 -254h-189zM1380 1645l250 258h189l249 -258h-204l-131 114h-17l-131 -114h-205z" />
    <glyph glyph-name="uni004C1EAC" horiz-adv-x="2471" 
d="M147 0v1565h287v-1311h653l447 1311h381l532 -1565h-286l-138 401h-598l-137 -401h-1141zM1511 655h426l-208 615h-9zM1364 1649l254 270h213l254 -270h-221l-131 131h-17l-131 -131h-221zM1724 -401q-54 0 -92.5 38t-38.5 93q0 52 39 91.5t92 39.5q54 0 92.5 -39.5
t38.5 -91.5q0 -56 -37.5 -93.5t-93.5 -37.5z" />
    <glyph glyph-name="uni004C1EA6" horiz-adv-x="2471" 
d="M147 0v1565h287v-1311h653l447 1311h381l532 -1565h-286l-138 401h-598l-137 -401h-1141zM1511 655h426l-208 615h-9zM2038 1802l-254 254h221l221 -254h-188zM1380 1645l250 258h189l249 -258h-204l-131 114h-17l-131 -114h-205z" />
    <glyph glyph-name="uni004C1EA8" horiz-adv-x="2471" 
d="M147 0v1565h287v-1311h653l447 1311h381l532 -1565h-286l-138 401h-598l-137 -401h-1141zM1511 655h426l-208 615h-9zM1954 1855q0 33 14 54.5t55 46.5q68 37 68 86q0 21 -18.5 36t-47.5 15q-55 0 -102 -53l-76 76q64 94 187 100q90 0 148.5 -46.5t58.5 -115.5
q0 -59 -31.5 -100.5t-100.5 -79.5q-16 -9 -23 -17.5t-8 -15t-1 -22.5v-4h-123v40zM1380 1645l250 258h189l249 -258h-204l-131 114h-17l-131 -114h-205z" />
    <glyph glyph-name="uni004C1EAA" horiz-adv-x="2471" 
d="M147 0v1565h287v-1311h653l447 1311h381l532 -1565h-286l-138 401h-598l-137 -401h-1141zM1511 655h426l-208 615h-9zM1454 1937q0 118 61.5 199.5t137.5 81.5q65 0 149 -66q76 -61 117 -61q34 0 55 43t21 102h135q0 -141 -60.5 -220t-150.5 -79q-66 0 -137 56
q-77 59 -117 59q-35 0 -55.5 -33t-20.5 -82h-135zM1380 1645l250 258h189l249 -258h-204l-131 114h-17l-131 -114h-205z" />
    <glyph glyph-name="uni004C1EA0" horiz-adv-x="2471" 
d="M147 0v1565h287v-1311h653l447 1311h381l532 -1565h-286l-138 401h-598l-137 -401h-1141zM1511 655h426l-208 615h-9zM1724 -401q-54 0 -92.5 38t-38.5 93q0 52 39 91.5t92 39.5q54 0 92.5 -39.5t38.5 -91.5q0 -56 -37.5 -93.5t-93.5 -37.5z" />
    <glyph glyph-name="L_Agrave" horiz-adv-x="2471" 
d="M147 0v1565h287v-1311h653l447 1311h381l532 -1565h-286l-138 401h-598l-137 -401h-1141zM1511 655h426l-208 615h-9zM1647 1688l-279 278h262l238 -278h-221z" />
    <glyph glyph-name="uni004C1EA2" horiz-adv-x="2471" 
d="M147 0v1565h287v-1311h653l447 1311h381l532 -1565h-286l-138 401h-598l-137 -401h-1141zM1511 655h426l-208 615h-9zM1620 1665q0 33 14 53.5t56 46.5q67 37 67 86q0 21 -18.5 36.5t-46.5 15.5q-32 0 -60.5 -15t-42.5 -39l-90 90q89 103 227 103q91 0 152 -50.5
t61 -127.5q0 -113 -139 -181q-23 -11 -28 -22t-5 -33v-12h-147v49z" />
    <glyph glyph-name="L_Atilde" horiz-adv-x="2471" 
d="M147 0v1565h287v-1311h653l447 1311h381l532 -1565h-286l-138 401h-598l-137 -401h-1141zM1511 655h426l-208 615h-9zM1405 1669q0 120 58.5 204.5t138.5 84.5q75 -3 155 -66q71 -53 111 -53q57 0 57 129h139q0 -146 -50 -222.5t-144 -76.5q-70 0 -146 55q-75 53 -112 56
q-35 0 -53.5 -30.5t-18.5 -80.5h-135z" />
    <glyph glyph-name="T_T" horiz-adv-x="2371" 
d="M475 0v1311h-450v254h2322v-254h-451v-1311h-286v1311h-848v-1311h-287z" />
    <glyph glyph-name="T_left.alt" horiz-adv-x="1210" 
d="M451 0v1303h-369v262h1104v-262h-449v-1303h-286z" />
    <glyph glyph-name="L_A.ss01" horiz-adv-x="2471" 
d="M147 0v1565h287v-1311h653l386 1130q35 103 79.5 142t124.5 39h95q80 0 124.5 -39t79.5 -142l471 -1384h-286l-138 401h-598l-137 -401h-1141zM1511 655h426l-208 615h-9z" />
    <glyph glyph-name="L_Aacute.ss01" horiz-adv-x="2471" 
d="M147 0v1565h287v-1311h653l386 1130q35 103 79.5 142t124.5 39h95q80 0 124.5 -39t79.5 -142l471 -1384h-286l-138 401h-598l-137 -401h-1141zM1511 655h426l-208 615h-9zM1581 1688l238 278h262l-279 -278h-221z" />
    <glyph glyph-name="L_Abreve.ss01" horiz-adv-x="2471" 
d="M147 0v1565h287v-1311h653l386 1130q35 103 79.5 142t124.5 39h95q80 0 124.5 -39t79.5 -142l471 -1384h-286l-138 401h-598l-137 -401h-1141zM1511 655h426l-208 615h-9zM1724 1638q-74 0 -117 10.5t-87 39.5q-62 46 -82 122q-17 66 -17 132h148q8 -46 24 -82
q16 -38 45 -50q13 -8 86 -8q70 0 86 8q29 12 45 50q17 40 25 82h148q0 -66 -17 -132q-20 -76 -82 -122q-44 -29 -87.5 -39.5t-117.5 -10.5z" />
    <glyph glyph-name="uni004C1EAE.ss01" horiz-adv-x="2471" 
d="M147 0v1565h287v-1311h653l386 1130q35 103 79.5 142t124.5 39h95q80 0 124.5 -39t79.5 -142l471 -1384h-286l-138 401h-598l-137 -401h-1141zM1511 655h426l-208 615h-9zM1724 1638q-86 0 -129.5 8t-83.5 42q-52 43 -73 131q-14 54 -17 102h140l24 -61q16 -38 45 -50
q13 -8 94 -8q79 0 95 8q29 12 45 50l24 61h140q-3 -48 -17 -102q-21 -87 -74 -131q-40 -34 -83.5 -42t-129.5 -8zM1626 1921l213 254h221l-254 -254h-180z" />
    <glyph glyph-name="uni004C1EB6.ss01" horiz-adv-x="2471" 
d="M147 0v1565h287v-1311h653l386 1130q35 103 79.5 142t124.5 39h95q80 0 124.5 -39t79.5 -142l471 -1384h-286l-138 401h-598l-137 -401h-1141zM1511 655h426l-208 615h-9zM1724 1638q-74 0 -117 10.5t-87 39.5q-62 46 -82 122q-17 66 -17 132h148q8 -46 24 -82
q16 -38 45 -50q13 -8 86 -8q70 0 86 8q29 12 45 50q17 40 25 82h148q0 -66 -17 -132q-20 -76 -82 -122q-44 -29 -87.5 -39.5t-117.5 -10.5zM1724 -401q-54 0 -92.5 38t-38.5 93q0 52 39 91.5t92 39.5q54 0 92.5 -39.5t38.5 -91.5q0 -56 -37.5 -93.5t-93.5 -37.5z" />
    <glyph glyph-name="uni004C1EB0.ss01" horiz-adv-x="2471" 
d="M147 0v1565h287v-1311h653l386 1130q35 103 79.5 142t124.5 39h95q80 0 124.5 -39t79.5 -142l471 -1384h-286l-138 401h-598l-137 -401h-1141zM1511 655h426l-208 615h-9zM1724 1638q-80 0 -127 10t-86 40q-45 39 -73 131q-17 66 -17 102h140l24 -61q16 -38 45 -50
q13 -8 94 -8q79 0 95 8q29 12 45 50l24 61h140q0 -36 -17 -102q-28 -91 -74 -131q-39 -30 -86 -40t-127 -10zM1642 1921l-253 254h221l213 -254h-181z" />
    <glyph glyph-name="uni004C1EB2.ss01" horiz-adv-x="2471" 
d="M147 0v1565h287v-1311h653l386 1130q35 103 79.5 142t124.5 39h95q80 0 124.5 -39t79.5 -142l471 -1384h-286l-138 401h-598l-137 -401h-1141zM1511 655h426l-208 615h-9zM1724 1634q-81 0 -127.5 9.5t-85.5 39.5q-45 39 -73 132q-17 66 -17 102h140l24 -62
q16 -36 45 -49q13 -8 94 -8q79 0 95 8q29 13 45 49l24 62h140q0 -36 -17 -102q-28 -92 -74 -132q-39 -30 -85.5 -39.5t-127.5 -9.5zM1657 1946q0 33 13.5 53.5t55.5 46.5q68 37 68 86q0 21 -18.5 36t-46.5 15q-56 0 -103 -53l-76 76q64 94 187 100q90 0 148.5 -46.5
t58.5 -115.5q0 -59 -31.5 -100.5t-100.5 -79.5q-16 -9 -23 -17.5t-8 -15t-1 -22.5v-4h-123v41z" />
    <glyph glyph-name="uni004C1EB4.ss01" horiz-adv-x="2471" 
d="M147 0v1565h287v-1311h653l386 1130q35 103 79.5 142t124.5 39h95q80 0 124.5 -39t79.5 -142l471 -1384h-286l-138 401h-598l-137 -401h-1141zM1511 655h426l-208 615h-9zM1563 1985q0 122 56.5 196t133.5 74q66 0 150 -66q76 -61 116 -61q34 0 55 43t21 102h127
q0 -127 -58 -207.5t-145 -80.5q-67 0 -137 55q-77 59 -117 59q-35 0 -55 -32.5t-20 -81.5h-127zM1724 1634q-81 0 -127.5 9.5t-85.5 39.5q-45 39 -73 132q-17 66 -17 102h140l24 -62q16 -36 45 -49q13 -8 94 -8q79 0 95 8q29 13 45 49l24 62h140q0 -36 -17 -102
q-28 -92 -74 -132q-39 -30 -85.5 -39.5t-127.5 -9.5z" />
    <glyph glyph-name="L_Acircumflex.ss01" horiz-adv-x="2471" 
d="M147 0v1565h287v-1311h653l386 1130q35 103 79.5 142t124.5 39h95q80 0 124.5 -39t79.5 -142l471 -1384h-286l-138 401h-598l-137 -401h-1141zM1511 655h426l-208 615h-9zM1364 1649l254 270h213l254 -270h-221l-131 131h-17l-131 -131h-221z" />
    <glyph glyph-name="uni004C1EA4.ss01" horiz-adv-x="2471" 
d="M147 0v1565h287v-1311h653l386 1130q35 103 79.5 142t124.5 39h95q80 0 124.5 -39t79.5 -142l471 -1384h-286l-138 401h-598l-137 -401h-1141zM1511 655h426l-208 615h-9zM1935 1819l222 254h221l-254 -254h-189zM1380 1645l250 258h189l249 -258h-204l-131 114h-17
l-131 -114h-205z" />
    <glyph glyph-name="uni004C1EAC.ss01" horiz-adv-x="2471" 
d="M147 0v1565h287v-1311h653l386 1130q35 103 79.5 142t124.5 39h95q80 0 124.5 -39t79.5 -142l471 -1384h-286l-138 401h-598l-137 -401h-1141zM1511 655h426l-208 615h-9zM1364 1649l254 270h213l254 -270h-221l-131 131h-17l-131 -131h-221zM1724 -401q-54 0 -92.5 38
t-38.5 93q0 52 39 91.5t92 39.5q54 0 92.5 -39.5t38.5 -91.5q0 -56 -37.5 -93.5t-93.5 -37.5z" />
    <glyph glyph-name="uni004C1EA6.ss01" horiz-adv-x="2471" 
d="M147 0v1565h287v-1311h653l386 1130q35 103 79.5 142t124.5 39h95q80 0 124.5 -39t79.5 -142l471 -1384h-286l-138 401h-598l-137 -401h-1141zM1511 655h426l-208 615h-9zM2038 1802l-254 254h221l221 -254h-188zM1380 1645l250 258h189l249 -258h-204l-131 114h-17
l-131 -114h-205z" />
    <glyph glyph-name="uni004C1EA8.ss01" horiz-adv-x="2471" 
d="M147 0v1565h287v-1311h653l386 1130q35 103 79.5 142t124.5 39h95q80 0 124.5 -39t79.5 -142l471 -1384h-286l-138 401h-598l-137 -401h-1141zM1511 655h426l-208 615h-9zM1954 1855q0 33 14 54.5t55 46.5q68 37 68 86q0 21 -18.5 36t-47.5 15q-55 0 -102 -53l-76 76
q64 94 187 100q90 0 148.5 -46.5t58.5 -115.5q0 -59 -31.5 -100.5t-100.5 -79.5q-16 -9 -23 -17.5t-8 -15t-1 -22.5v-4h-123v40zM1380 1645l250 258h189l249 -258h-204l-131 114h-17l-131 -114h-205z" />
    <glyph glyph-name="uni004C1EAA.ss01" horiz-adv-x="2471" 
d="M147 0v1565h287v-1311h653l386 1130q35 103 79.5 142t124.5 39h95q80 0 124.5 -39t79.5 -142l471 -1384h-286l-138 401h-598l-137 -401h-1141zM1511 655h426l-208 615h-9zM1454 1937q0 118 61.5 199.5t137.5 81.5q65 0 149 -66q76 -61 117 -61q34 0 55 43t21 102h135
q0 -141 -60.5 -220t-150.5 -79q-66 0 -137 56q-77 59 -117 59q-35 0 -55.5 -33t-20.5 -82h-135zM1380 1645l250 258h189l249 -258h-204l-131 114h-17l-131 -114h-205z" />
    <glyph glyph-name="uni004C1EA0.ss01" horiz-adv-x="2471" 
d="M147 0v1565h287v-1311h653l386 1130q35 103 79.5 142t124.5 39h95q80 0 124.5 -39t79.5 -142l471 -1384h-286l-138 401h-598l-137 -401h-1141zM1511 655h426l-208 615h-9zM1724 -401q-54 0 -92.5 38t-38.5 93q0 52 39 91.5t92 39.5q54 0 92.5 -39.5t38.5 -91.5
q0 -56 -37.5 -93.5t-93.5 -37.5z" />
    <glyph glyph-name="L_Agrave.ss01" horiz-adv-x="2471" 
d="M147 0v1565h287v-1311h653l386 1130q35 103 79.5 142t124.5 39h95q80 0 124.5 -39t79.5 -142l471 -1384h-286l-138 401h-598l-137 -401h-1141zM1511 655h426l-208 615h-9zM1647 1688l-279 278h262l238 -278h-221z" />
    <glyph glyph-name="uni004C1EA2.ss01" horiz-adv-x="2471" 
d="M147 0v1565h287v-1311h653l386 1130q35 103 79.5 142t124.5 39h95q80 0 124.5 -39t79.5 -142l471 -1384h-286l-138 401h-598l-137 -401h-1141zM1511 655h426l-208 615h-9zM1620 1665q0 33 14 53.5t56 46.5q67 37 67 86q0 21 -18.5 36.5t-46.5 15.5q-32 0 -60.5 -15
t-42.5 -39l-90 90q89 103 227 103q91 0 152 -50.5t61 -127.5q0 -113 -139 -181q-23 -11 -28 -22t-5 -33v-12h-147v49z" />
    <glyph glyph-name="L_Atilde.ss01" horiz-adv-x="2471" 
d="M147 0v1565h287v-1311h653l386 1130q35 103 79.5 142t124.5 39h95q80 0 124.5 -39t79.5 -142l471 -1384h-286l-138 401h-598l-137 -401h-1141zM1511 655h426l-208 615h-9zM1405 1669q0 120 58.5 204.5t138.5 84.5q75 -3 155 -66q71 -53 111 -53q57 0 57 129h139
q0 -146 -50 -222.5t-144 -76.5q-70 0 -146 55q-75 53 -112 56q-35 0 -53.5 -30.5t-18.5 -80.5h-135z" />
    <glyph glyph-name="igrave.alt" horiz-adv-x="507" 
d="M115 0v1114h278v-1114h-278zM254 1262l-279 278h263l237 -278h-221z" />
    <glyph glyph-name="itilde.alt" horiz-adv-x="466" 
d="M115 0v1114h278v-1114h-278zM16 1243q0 120 58.5 204.5t138.5 84.5q76 -3 156 -66q71 -53 110 -53q58 0 58 129h139q0 -146 -50.5 -222.5t-144.5 -76.5q-69 0 -145 55q-74 53 -113 56q-35 0 -53 -30.5t-18 -80.5h-136z" />
    <glyph glyph-name="y.alt" horiz-adv-x="1163" 
d="M338 -410l145 402v8h-57l-410 1114h273l293 -795h8l287 795h270l-549 -1524h-260z" />
    <glyph glyph-name="yacute.alt" horiz-adv-x="1163" 
d="M338 -410l145 402v8h-57l-410 1114h273l293 -795h8l287 795h270l-549 -1524h-260zM469 1262l238 278h262l-279 -278h-221z" />
    <glyph glyph-name="uni1EF5.alt" horiz-adv-x="1163" 
d="M338 -410l145 402v8h-57l-410 1114h273l293 -795h8l287 795h270l-549 -1524h-260zM860 -401q-54 0 -92.5 38t-38.5 93q0 52 39 91.5t92 39.5q54 0 92.5 -39.5t38.5 -91.5q0 -56 -37.5 -93.5t-93.5 -37.5z" />
    <glyph glyph-name="ygrave.alt" horiz-adv-x="1163" 
d="M338 -410l145 402v8h-57l-410 1114h273l293 -795h8l287 795h270l-549 -1524h-260zM535 1262l-279 278h262l238 -278h-221z" />
    <glyph glyph-name="uni1EF7.alt" horiz-adv-x="1163" 
d="M338 -410l145 402v8h-57l-410 1114h273l293 -795h8l287 795h270l-549 -1524h-260zM508 1239q0 33 14 53.5t56 46.5q67 37 67 86q0 21 -18.5 36.5t-46.5 15.5q-32 0 -60.5 -15t-42.5 -39l-90 90q89 103 227 103q91 0 152 -50.5t61 -127.5q0 -113 -139 -181
q-23 -11 -28 -22t-5 -33v-12h-147v49z" />
    <glyph glyph-name="uni1EF9.alt" horiz-adv-x="1163" 
d="M338 -410l145 402v8h-57l-410 1114h273l293 -795h8l287 795h270l-549 -1524h-260zM293 1243q0 121 58 205t138 84q76 -3 156 -66q71 -53 111 -53q57 0 57 129h139q0 -146 -50 -222.5t-144 -76.5q-70 0 -146 55q-75 53 -112 56q-35 0 -53.5 -30.5t-18.5 -80.5h-135z" />
    <glyph glyph-name="a.ss01" horiz-adv-x="1318" 
d="M596 -25q-153 0 -276.5 76t-193 208t-69.5 292q0 260 157 426t394 166q211 0 310 -135h8v106h278v-1114h-278v139h-8q-32 -77 -118 -120.5t-204 -43.5zM639 233q139 0 221 93t82 235t-82 235t-221 93t-221 -93t-82 -235t82 -235t221 -93z" />
    <glyph glyph-name="aacute.ss01" horiz-adv-x="1318" 
d="M596 -25q-153 0 -276.5 76t-193 208t-69.5 292q0 260 157 426t394 166q211 0 310 -135h8v106h278v-1114h-278v139h-8q-32 -77 -118 -120.5t-204 -43.5zM639 233q139 0 221 93t82 235t-82 235t-221 93t-221 -93t-82 -235t82 -235t221 -93zM504 1278l237 278h263l-279 -278
h-221z" />
    <glyph glyph-name="abreve.ss01" horiz-adv-x="1318" 
d="M596 -25q-153 0 -276.5 76t-193 208t-69.5 292q0 260 157 426t394 166q211 0 310 -135h8v106h278v-1114h-278v139h-8q-32 -77 -118 -120.5t-204 -43.5zM639 233q139 0 221 93t82 235t-82 235t-221 93t-221 -93t-82 -235t82 -235t221 -93zM647 1229q-75 0 -118 10t-87 39
q-62 46 -82 123q-16 62 -16 131h148q8 -46 24 -82t45 -49q13 -8 86 -8q70 0 86 8q29 13 45 49q17 40 25 82h147q0 -69 -16 -131q-20 -77 -82 -123q-44 -29 -87 -39t-118 -10z" />
    <glyph glyph-name="uni1EAF.ss01" horiz-adv-x="1318" 
d="M596 -25q-153 0 -276.5 76t-193 208t-69.5 292q0 260 157 426t394 166q211 0 310 -135h8v106h278v-1114h-278v139h-8q-32 -77 -118 -120.5t-204 -43.5zM639 233q139 0 221 93t82 235t-82 235t-221 93t-221 -93t-82 -235t82 -235t221 -93zM647 1229q-61 0 -88.5 2t-62 13
t-62.5 34q-53 44 -74 131q-13 49 -16 102h139l25 -61q16 -36 45 -49q13 -8 94 -8q78 0 94 8q29 13 45 49l25 61h139q-3 -53 -16 -102q-21 -87 -74 -131q-40 -33 -83 -41t-130 -8zM549 1511l213 254h221l-254 -254h-180z" />
    <glyph glyph-name="uni1EB7.ss01" horiz-adv-x="1318" 
d="M596 -25q-153 0 -276.5 76t-193 208t-69.5 292q0 260 157 426t394 166q211 0 310 -135h8v106h278v-1114h-278v139h-8q-32 -77 -118 -120.5t-204 -43.5zM639 233q139 0 221 93t82 235t-82 235t-221 93t-221 -93t-82 -235t82 -235t221 -93zM647 1229q-75 0 -118 10t-87 39
q-62 46 -82 123q-16 62 -16 131h148q8 -46 24 -82t45 -49q13 -8 86 -8q70 0 86 8q29 13 45 49q17 40 25 82h147q0 -69 -16 -131q-20 -77 -82 -123q-44 -29 -87 -39t-118 -10zM606 -401q-54 0 -92.5 38t-38.5 93q0 52 39 91.5t92 39.5q54 0 92.5 -39.5t38.5 -91.5
q0 -56 -37.5 -93.5t-93.5 -37.5z" />
    <glyph glyph-name="uni1EB1.ss01" horiz-adv-x="1318" 
d="M596 -25q-153 0 -276.5 76t-193 208t-69.5 292q0 260 157 426t394 166q211 0 310 -135h8v106h278v-1114h-278v139h-8q-32 -77 -118 -120.5t-204 -43.5zM639 233q139 0 221 93t82 235t-82 235t-221 93t-221 -93t-82 -235t82 -235t221 -93zM647 1229q-81 0 -127.5 9.5
t-85.5 39.5q-46 40 -74 131q-16 62 -16 102h139l25 -61q16 -36 45 -49q13 -8 94 -8q78 0 94 8q29 13 45 49l25 61h139q0 -40 -16 -102q-28 -91 -74 -131q-39 -30 -85.5 -39.5t-127.5 -9.5zM565 1511l-254 254h221l213 -254h-180z" />
    <glyph glyph-name="uni1EB3.ss01" horiz-adv-x="1318" 
d="M596 -25q-153 0 -276.5 76t-193 208t-69.5 292q0 260 157 426t394 166q211 0 310 -135h8v106h278v-1114h-278v139h-8q-32 -77 -118 -120.5t-204 -43.5zM639 233q139 0 221 93t82 235t-82 235t-221 93t-221 -93t-82 -235t82 -235t221 -93zM647 1225q-81 0 -127.5 9.5
t-85.5 39.5q-46 40 -74 131q-16 62 -16 102h139l25 -61q16 -36 45 -49q13 -8 94 -8q78 0 94 8q29 13 45 49l25 61h139q0 -40 -16 -102q-28 -91 -74 -131q-39 -30 -85.5 -39.5t-127.5 -9.5zM580 1536q0 33 13.5 53.5t55.5 46.5q68 37 68 86q0 21 -19 36.5t-47 15.5
q-54 0 -102 -54l-76 76q64 94 186 100q90 0 148.5 -46t58.5 -115q0 -60 -31.5 -101.5t-99.5 -79.5q-23 -12 -28 -22.5t-5 -32.5v-4h-122v41z" />
    <glyph glyph-name="uni1EB5.ss01" horiz-adv-x="1318" 
d="M596 -25q-153 0 -276.5 76t-193 208t-69.5 292q0 260 157 426t394 166q211 0 310 -135h8v106h278v-1114h-278v139h-8q-32 -77 -118 -120.5t-204 -43.5zM639 233q139 0 221 93t82 235t-82 235t-221 93t-221 -93t-82 -235t82 -235t221 -93zM485 1575q0 122 56.5 196
t134.5 74q66 0 149 -65q77 -62 117 -62q34 0 55 43t21 103h127q0 -128 -58 -208.5t-145 -80.5q-67 0 -137 55q-78 60 -117 60q-35 0 -55.5 -33t-20.5 -82h-127zM647 1225q-81 0 -127.5 9.5t-85.5 39.5q-46 40 -74 131q-16 62 -16 102h139l25 -61q16 -36 45 -49q13 -8 94 -8
q78 0 94 8q29 13 45 49l25 61h139q0 -40 -16 -102q-28 -91 -74 -131q-39 -30 -85.5 -39.5t-127.5 -9.5z" />
    <glyph glyph-name="acircumflex.ss01" horiz-adv-x="1318" 
d="M596 -25q-153 0 -276.5 76t-193 208t-69.5 292q0 260 157 426t394 166q211 0 310 -135h8v106h278v-1114h-278v139h-8q-32 -77 -118 -120.5t-204 -43.5zM639 233q139 0 221 93t82 235t-82 235t-221 93t-221 -93t-82 -235t82 -235t221 -93zM287 1239l254 270h213l254 -270
h-222l-131 131h-16l-131 -131h-221z" />
    <glyph glyph-name="uni1EA5.ss01" horiz-adv-x="1318" 
d="M596 -25q-153 0 -276.5 76t-193 208t-69.5 292q0 260 157 426t394 166q211 0 310 -135h8v106h278v-1114h-278v139h-8q-32 -77 -118 -120.5t-204 -43.5zM639 233q139 0 221 93t82 235t-82 235t-221 93t-221 -93t-82 -235t82 -235t221 -93zM858 1409l221 254h221l-253 -254
h-189zM303 1235l250 258h188l250 -258h-205l-131 115h-16l-131 -115h-205z" />
    <glyph glyph-name="uni1EAD.ss01" horiz-adv-x="1318" 
d="M596 -25q-153 0 -276.5 76t-193 208t-69.5 292q0 260 157 426t394 166q211 0 310 -135h8v106h278v-1114h-278v139h-8q-32 -77 -118 -120.5t-204 -43.5zM639 233q139 0 221 93t82 235t-82 235t-221 93t-221 -93t-82 -235t82 -235t221 -93zM287 1239l254 270h213l254 -270
h-222l-131 131h-16l-131 -131h-221zM606 -401q-54 0 -92.5 38t-38.5 93q0 52 39 91.5t92 39.5q54 0 92.5 -39.5t38.5 -91.5q0 -56 -37.5 -93.5t-93.5 -37.5z" />
    <glyph glyph-name="uni1EA7.ss01" horiz-adv-x="1318" 
d="M596 -25q-153 0 -276.5 76t-193 208t-69.5 292q0 260 157 426t394 166q211 0 310 -135h8v106h278v-1114h-278v139h-8q-32 -77 -118 -120.5t-204 -43.5zM639 233q139 0 221 93t82 235t-82 235t-221 93t-221 -93t-82 -235t82 -235t221 -93zM961 1393l-254 254h221l221 -254
h-188zM303 1235l250 258h188l250 -258h-205l-131 115h-16l-131 -115h-205z" />
    <glyph glyph-name="uni1EA9.ss01" horiz-adv-x="1318" 
d="M596 -25q-153 0 -276.5 76t-193 208t-69.5 292q0 260 157 426t394 166q211 0 310 -135h8v106h278v-1114h-278v139h-8q-32 -77 -118 -120.5t-204 -43.5zM639 233q139 0 221 93t82 235t-82 235t-221 93t-221 -93t-82 -235t82 -235t221 -93zM877 1446q0 33 13.5 53.5
t55.5 46.5q68 37 68 86q0 21 -18.5 36t-47.5 15q-55 0 -102 -53l-76 76q64 94 186 100q90 0 148.5 -46t58.5 -115q0 -60 -31.5 -101.5t-99.5 -79.5q-23 -12 -28 -22.5t-5 -32.5v-4h-122v41zM303 1235l250 258h188l250 -258h-205l-131 115h-16l-131 -115h-205z" />
    <glyph glyph-name="uni1EAB.ss01" horiz-adv-x="1318" 
d="M596 -25q-153 0 -276.5 76t-193 208t-69.5 292q0 260 157 426t394 166q211 0 310 -135h8v106h278v-1114h-278v139h-8q-32 -77 -118 -120.5t-204 -43.5zM639 233q139 0 221 93t82 235t-82 235t-221 93t-221 -93t-82 -235t82 -235t221 -93zM377 1528q0 118 61 199t137 81
q67 0 150 -65q77 -62 117 -62q34 0 55 43t21 103h135q0 -141 -60.5 -220t-150.5 -79q-67 0 -137 55q-77 59 -117 59q-36 0 -56 -32.5t-20 -81.5h-135zM303 1235l250 258h188l250 -258h-205l-131 115h-16l-131 -115h-205z" />
    <glyph glyph-name="uni1EA1.ss01" horiz-adv-x="1318" 
d="M596 -25q-153 0 -276.5 76t-193 208t-69.5 292q0 260 157 426t394 166q211 0 310 -135h8v106h278v-1114h-278v139h-8q-32 -77 -118 -120.5t-204 -43.5zM639 233q139 0 221 93t82 235t-82 235t-221 93t-221 -93t-82 -235t82 -235t221 -93zM606 -401q-54 0 -92.5 38
t-38.5 93q0 52 39 91.5t92 39.5q54 0 92.5 -39.5t38.5 -91.5q0 -56 -37.5 -93.5t-93.5 -37.5z" />
    <glyph glyph-name="agrave.ss01" horiz-adv-x="1318" 
d="M596 -25q-153 0 -276.5 76t-193 208t-69.5 292q0 260 157 426t394 166q211 0 310 -135h8v106h278v-1114h-278v139h-8q-32 -77 -118 -120.5t-204 -43.5zM639 233q139 0 221 93t82 235t-82 235t-221 93t-221 -93t-82 -235t82 -235t221 -93zM569 1278l-278 278h262l238 -278
h-222z" />
    <glyph glyph-name="uni1EA3.ss01" horiz-adv-x="1318" 
d="M596 -25q-153 0 -276.5 76t-193 208t-69.5 292q0 260 157 426t394 166q211 0 310 -135h8v106h278v-1114h-278v139h-8q-32 -77 -118 -120.5t-204 -43.5zM639 233q139 0 221 93t82 235t-82 235t-221 93t-221 -93t-82 -235t82 -235t221 -93zM543 1255q0 33 14 54.5t55 46.5
q68 37 68 86q0 21 -18.5 36t-47.5 15q-32 0 -60 -15t-42 -38l-90 90q89 102 227 102q91 0 152 -50.5t61 -127.5q0 -112 -139 -180q-23 -11 -28 -22t-5 -33v-13h-147v49z" />
    <glyph glyph-name="atilde.ss01" horiz-adv-x="1318" 
d="M596 -25q-153 0 -276.5 76t-193 208t-69.5 292q0 260 157 426t394 166q211 0 310 -135h8v106h278v-1114h-278v139h-8q-32 -77 -118 -120.5t-204 -43.5zM639 233q139 0 221 93t82 235t-82 235t-221 93t-221 -93t-82 -235t82 -235t221 -93zM328 1260q0 120 58 204t138 84
q77 -3 156 -65q71 -53 111 -53q57 0 57 129h139q0 -146 -50 -222.5t-144 -76.5q-70 0 -146 55q-73 52 -112 55q-35 0 -53.5 -30.5t-18.5 -79.5h-135z" />
    <glyph glyph-name="g.ss01" horiz-adv-x="1318" 
d="M680 -483l-483 4v254l479 -4q116 0 183 65.5t67 171.5v131h-8q-32 -77 -118 -120.5t-204 -43.5q-153 0 -276.5 76t-193 208t-69.5 292q0 260 157 426t394 166q211 0 310 -135h8v106h278v-1114q0 -103 -31 -189t-93 -153t-164 -104.5t-236 -36.5zM639 233q139 0 221 93
t82 235t-82 235t-221 93t-221 -93t-82 -235t82 -235t221 -93z" />
    <glyph glyph-name="x.ss01" horiz-adv-x="1284" 
d="M1008 -25l-369 390l-367 -392l-190 170l387 400l-387 407l194 197l371 -391l350 391l191 -170l-365 -408l379 -397z" />
    <glyph glyph-name="f_f_t" horiz-adv-x="2088" 
d="M156 0v909h-107v205h107v254q0 229 229 229h246v-254h-86q-59 0 -85 -27.5t-26 -94.5v-107h385v254q0 229 230 229h286v-254h-127q-58 0 -84 -27t-26 -95v-107h368v287h279v-287h287v-205h-287v-532q0 -68 26 -95.5t84 -27.5h177v-254h-336q-230 0 -230 229v680h-368
v-909h-279v909h-385v-909h-278z" />
    <glyph glyph-name="f_t" horiz-adv-x="1425" 
d="M156 0v909h-107v205h107v254q0 229 229 229h287v-254h-127q-59 0 -85 -27.5t-26 -94.5v-107h369v287h278v-287h287v-205h-287v-532q0 -68 26.5 -95.5t84.5 -27.5h176v-254h-336q-229 0 -229 229v680h-369v-909h-278z" />
    <glyph glyph-name="t_r" horiz-adv-x="1552" 
d="M377 0q-230 0 -230 229v680h-98v205h98v287h279v-287h647v-156h8q19 73 87.5 122.5t183.5 49.5h151v-253h-151q-279 0 -279 -295v-582h-278v909h-369v-532q0 -68 26.5 -95.5t84.5 -27.5h94v-254h-254z" />
    <glyph glyph-name="t_t" horiz-adv-x="1417" 
d="M377 0q-230 0 -230 229v680h-98v205h98v287h279v-287h369v287h278v-287h287v-205h-287v-532q0 -68 26.5 -95.5t84.5 -27.5h176v-254h-336q-229 0 -229 229v680h-369v-532q0 -68 26.5 -95.5t84.5 -27.5h94v-254h-254z" />
    <glyph glyph-name="zero.tf" horiz-adv-x="1343" 
d="M672 -25q-115 0 -210.5 42.5t-163 116.5t-114 176.5t-68.5 221t-22 250.5t22 250.5t68.5 221t114 176.5t163 116.5t210.5 42.5q143 0 255 -64.5t181.5 -177t105 -256t35.5 -309.5t-35.5 -309.5t-105 -256t-181.5 -177t-255 -64.5zM672 225q78 0 137 50.5t92.5 134
t49.5 177.5t16 195t-16 195t-49.5 177.5t-92.5 134t-137 50.5t-137 -50.5t-92.5 -134t-49.5 -177.5t-16 -195t16 -195t49.5 -177.5t92.5 -134t137 -50.5z" />
    <glyph glyph-name="one.tf" horiz-adv-x="1343" 
d="M123 0v270h522v981h-8l-369 -170l-96 230l522 254h238v-1295h305v-270h-1114z" />
    <glyph glyph-name="two.tf" horiz-adv-x="1343" 
d="M150 0v254l452 422q142 132 207 226t65 200q0 117 -66 177t-171 60q-103 0 -172.5 -67.5t-69.5 -181.5h-274q0 226 143 362.5t387 136.5q137 0 251.5 -55t184.5 -162.5t70 -247.5q0 -87 -19.5 -159t-68 -148t-113.5 -147.5t-174 -175.5l-225 -215v-9h625v-270h-1032z" />
    <glyph glyph-name="three.tf" horiz-adv-x="1343" 
d="M623 -25q-163 0 -299.5 64t-204.5 158l196 196q28 -29 52 -49t65 -45.5t94.5 -39t116.5 -13.5q96 0 167 63t71 158q0 103 -71.5 168t-195.5 65h-112v238h116q101 0 159.5 64t58.5 153q0 90 -58.5 137t-142.5 47q-51 0 -105.5 -21.5t-86.5 -43t-77 -55.5q-9 -8 -14 -11
l-172 172q73 75 203 142t266 67q204 0 332.5 -113t128.5 -298q0 -131 -62.5 -219.5t-150.5 -127.5v-8q46 -9 91 -35.5t85.5 -69t65 -110t24.5 -147.5q0 -222 -151.5 -354t-388.5 -132z" />
    <glyph glyph-name="four.tf" horiz-adv-x="1343" 
d="M768 0v303h-694v213l678 1049h303v-1016h188v-246h-188v-303h-287zM403 549h365v573h-8l-357 -565v-8z" />
    <glyph glyph-name="five.tf" horiz-adv-x="1343" 
d="M711 -25q-118 0 -215.5 34t-158.5 86.5t-103.5 119t-60 128.5t-17.5 118l290 -2q0 -16 7.5 -39.5t27.5 -53t48.5 -54t75.5 -41.5t104 -17q124 0 194 78t72 205q1 127 -71.5 204.5t-188.5 77.5q-84 0 -157.5 -40t-129.5 -107l-246 133l88 760h897v-271h-682l-41 -333h9
q110 104 317 104q97 0 184 -34.5t154 -99t106.5 -166.5t38.5 -228q-1 -171 -74 -300.5t-195 -195.5t-273 -66z" />
    <glyph glyph-name="six.tf" horiz-adv-x="1343" 
d="M696 -25q-242 0 -395.5 151t-153.5 384q0 154 60 301q38 94 131 252l303 502h324l-312 -525h9q45 13 114 13q196 0 332.5 -151t136.5 -374q0 -158 -69 -284t-194.5 -197.5t-285.5 -71.5zM700 246q118 0 196.5 81.5t78.5 200.5t-78.5 199t-196.5 80t-196 -80t-78 -199
t78 -200.5t196 -81.5z" />
    <glyph glyph-name="seven.tf" horiz-adv-x="1343" 
d="M279 0l288 614h-342v279l471 -4l187 397v8h-777l5 271h1103v-230l-206 -448l168 -2v-271h-295l-283 -614h-319z" />
    <glyph glyph-name="eight.tf" horiz-adv-x="1343" 
d="M649 -29q-144 0 -264.5 56.5t-195 167.5t-74.5 256q0 76 23 143.5t61.5 115t81 80.5t88.5 52v8q-79 36 -142 123t-63 201q0 79 27 147.5t73.5 117.5t108.5 84.5t132 52.5t144 17q93 0 179 -28t155 -79t110.5 -132.5t41.5 -179.5q0 -115 -60 -202t-137 -122v-8
q99 -41 172.5 -142.5t73.5 -248.5q0 -145 -75 -256t-195.5 -167.5t-264.5 -56.5zM649 233q106 0 181 71.5t75 178.5q0 104 -75 175t-181 71t-181 -71t-75 -175q0 -107 75 -178.5t181 -71.5zM649 950q87 0 145 56.5t58 136.5q0 78 -58 133t-145 55t-145 -55t-58 -133
q0 -80 58 -136.5t145 -56.5z" />
    <glyph glyph-name="nine.tf" horiz-adv-x="1343" 
d="M414 0l305 528h-8q-32 -16 -93 -16q-216 0 -364 150.5t-148 373.5q0 239 159.5 396t402.5 157q130 0 237 -41t177.5 -112t108.5 -164.5t38 -200.5q0 -124 -37.5 -231.5t-124.5 -261.5l-326 -578h-327zM657 758q119 0 200 80t81 200q0 123 -78.5 202t-202.5 79
q-123 0 -201.5 -81.5t-78.5 -201.5t78.5 -199t201.5 -79z" />
    <glyph glyph-name="zero.dnom" horiz-adv-x="782" 
d="M391 -12q-82 0 -145.5 34.5t-102 94.5t-58 136t-19.5 163t19.5 163t58 136t102 94.5t145.5 34.5t145.5 -34.5t102.5 -94.5t58.5 -136t19.5 -163t-19.5 -163t-58.5 -136t-102.5 -94.5t-145.5 -34.5zM391 162q70 0 102.5 74t32.5 180t-32.5 180t-102.5 74t-102.5 -74
t-32.5 -180t32.5 -180t102.5 -74z" />
    <glyph glyph-name="one.dnom" horiz-adv-x="534" 
d="M227 0v604h-4l-104 -74l-86 136l235 165h152v-831h-193z" />
    <glyph glyph-name="two.dnom" horiz-adv-x="702" 
d="M72 2v162l233 219q68 63 98.5 106t30.5 89q0 94 -94 94q-51 0 -76 -31.5t-18 -93.5h-189q-8 133 71.5 216t217.5 83q117 0 198 -70t81 -186q0 -92 -44 -165.5t-153 -168.5l-76 -66v-4h285v-184h-565z" />
    <glyph glyph-name="three.dnom" horiz-adv-x="651" 
d="M299 -12q-96 0 -174 40.5t-109 98.5l129 129q57 -84 144 -84q54 0 84 23.5t30 62.5q0 92 -108 92h-82v168h84q41 0 62.5 23.5t21.5 60.5q0 68 -76 68q-21 0 -44 -9t-33 -15t-37.5 -28t-28.5 -22l-117 117q16 34 98 82.5t168 48.5q111 0 183.5 -64t72.5 -166
q0 -75 -34.5 -123.5t-71.5 -50.5v-4q42 0 87.5 -47.5t45.5 -132.5q0 -123 -83 -195.5t-212 -72.5z" />
    <glyph glyph-name="four.dnom" horiz-adv-x="698" 
d="M379 0v152h-346v139l348 540h190v-507h95v-172h-95v-152h-192zM264 324h115v176h-4l-111 -172v-4z" />
    <glyph glyph-name="five.dnom" horiz-adv-x="720" 
d="M360 -12q-70 0 -126.5 22t-90 55.5t-55 73.5t-28 76.5t-1.5 65.5l168 -2q0 -45 33.5 -74t89.5 -29q47 0 82 32t35 85q1 53 -34 85t-79 32q-80 0 -127 -68l-157 72l47 417h495v-184h-342l-14 -117h4q55 52 133 52q110 0 186.5 -76.5t75.5 -212.5q0 -139 -85 -222t-210 -83
z" />
    <glyph glyph-name="six.dnom" horiz-adv-x="679" 
d="M332 -12q-132 0 -215.5 82.5t-83.5 210.5q0 84 33 159q19 50 67 129l158 262h219l-156 -262h4q15 6 37 6q90 0 163 -83.5t73 -202.5q0 -131 -84 -216t-215 -85zM334 166q52 0 82 32.5t30 84.5q0 53 -30 83.5t-82 30.5q-51 0 -82 -31t-31 -83q0 -51 31 -84t82 -33z" />
    <glyph glyph-name="seven.dnom" horiz-adv-x="616" 
d="M98 0l258 639v4h-331l2 188h557v-143l-277 -688h-209z" />
    <glyph glyph-name="eight.dnom" horiz-adv-x="681" 
d="M340 -14q-121 0 -206 72t-85 192q0 81 42 135t85 61v5q-32 0 -67 47.5t-35 113.5q0 108 80 171t186 63q107 0 187.5 -63t80.5 -171q0 -67 -33 -114t-65 -47v-5q43 -7 83 -60.5t40 -135.5q0 -120 -85.5 -192t-207.5 -72zM340 166q45 0 74.5 27.5t29.5 72.5t-29 72t-75 27
q-45 0 -73.5 -27t-28.5 -72t28.5 -72.5t73.5 -27.5zM340 524q36 0 57 19.5t21 52.5q0 31 -21 50.5t-57 19.5q-35 0 -55.5 -19.5t-20.5 -50.5q0 -33 20.5 -52.5t55.5 -19.5z" />
    <glyph glyph-name="nine.dnom" horiz-adv-x="684" 
d="M176 2l154 264h-4q-8 -8 -45 -8q-103 0 -171.5 82t-68.5 205q0 130 86.5 215.5t218.5 85.5q140 0 222.5 -81.5t82.5 -201.5q0 -66 -20 -124.5t-64 -135.5l-170 -301h-221zM342 434q51 0 83 32.5t32 84.5q0 54 -30.5 84.5t-84.5 30.5q-55 0 -86 -32t-31 -85
q0 -52 31 -83.5t86 -31.5z" />
    <glyph glyph-name="zero.numr" horiz-adv-x="782" 
d="M391 725q-82 0 -145.5 34.5t-102 94.5t-58 136t-19.5 163t19.5 163t58 136t102 94.5t145.5 34.5t145.5 -34.5t102.5 -94.5t58.5 -136t19.5 -163t-19.5 -163t-58.5 -136t-102.5 -94.5t-145.5 -34.5zM391 899q70 0 102.5 74t32.5 180t-32.5 180t-102.5 74t-102.5 -74
t-32.5 -180t32.5 -180t102.5 -74z" />
    <glyph glyph-name="one.numr" horiz-adv-x="534" 
d="M227 737v604h-4l-104 -73l-86 135l235 166h152v-832h-193z" />
    <glyph glyph-name="two.numr" horiz-adv-x="702" 
d="M72 739v162l233 219q68 63 98.5 106t30.5 89q0 94 -94 94q-51 0 -76 -31.5t-18 -93.5h-189q-8 133 71.5 216t217.5 83q117 0 198 -70t81 -186q0 -92 -44 -165.5t-153 -168.5l-76 -65v-4h285v-185h-565z" />
    <glyph glyph-name="three.numr" horiz-adv-x="651" 
d="M299 725q-96 0 -174 40.5t-109 98.5l129 129q57 -84 144 -84q54 0 84 23.5t30 62.5q0 92 -108 92h-82v168h84q41 0 62.5 23.5t21.5 60.5q0 68 -76 68q-21 0 -44 -9t-33 -15t-37.5 -28t-28.5 -22l-117 117q16 34 98 82.5t168 48.5q111 0 183.5 -63.5t72.5 -165.5
q0 -75 -34.5 -123.5t-71.5 -50.5v-4q42 0 87.5 -48t45.5 -133q0 -123 -83 -195.5t-212 -72.5z" />
    <glyph glyph-name="four.numr" horiz-adv-x="698" 
d="M379 737v152h-346v139l348 541h190v-508h95v-172h-95v-152h-192zM264 1061h115v176h-4l-111 -172v-4z" />
    <glyph glyph-name="five.numr" horiz-adv-x="720" 
d="M360 725q-70 0 -126.5 22t-90 55.5t-55 73.5t-28 76.5t-1.5 65.5l168 -2q0 -45 33.5 -74t89.5 -29q47 0 82 32t35 85q1 53 -34 85t-79 32q-80 0 -127 -68l-157 72l47 418h495v-185h-342l-14 -116h4q54 51 133 51q110 0 186.5 -76.5t75.5 -212.5q0 -139 -85 -222t-210 -83
z" />
    <glyph glyph-name="six.numr" horiz-adv-x="679" 
d="M332 725q-132 0 -215.5 82.5t-83.5 210.5q0 85 33 160q19 50 67 129l158 262h219l-156 -262h4q15 6 37 6q90 0 163 -84t73 -203q0 -131 -84 -216t-215 -85zM334 903q52 0 82 32.5t30 84.5q0 53 -30 84t-82 31q-51 0 -82 -31.5t-31 -83.5q0 -51 31 -84t82 -33z" />
    <glyph glyph-name="seven.numr" horiz-adv-x="616" 
d="M98 737l258 639v4h-331l2 189h557v-144l-277 -688h-209z" />
    <glyph glyph-name="eight.numr" horiz-adv-x="681" 
d="M340 723q-121 0 -206 72t-85 192q0 81 42 135.5t85 61.5v4q-32 0 -67 48t-35 114q0 108 80 170.5t186 62.5q108 0 188 -62.5t80 -170.5q0 -67 -33.5 -114.5t-64.5 -47.5v-4q43 -7 83 -61t40 -136q0 -120 -85.5 -192t-207.5 -72zM340 903q45 0 74.5 28t29.5 73t-29 71.5
t-75 26.5q-45 0 -73.5 -26.5t-28.5 -71.5t28.5 -73t73.5 -28zM340 1262q36 0 57 19t21 52q0 31 -21 50.5t-57 19.5q-35 0 -55.5 -19.5t-20.5 -50.5q0 -32 20.5 -51.5t55.5 -19.5z" />
    <glyph glyph-name="nine.numr" horiz-adv-x="684" 
d="M176 739l154 265h-4q-9 -9 -45 -9q-103 0 -171.5 82t-68.5 205q0 130 86.5 215.5t218.5 85.5q140 0 222.5 -81.5t82.5 -201.5q0 -66 -20 -124.5t-64 -135.5l-170 -301h-221zM342 1171q51 0 83 32.5t32 84.5q0 54 -30.5 84.5t-84.5 30.5q-55 0 -86 -32t-31 -85
q0 -52 31 -83.5t86 -31.5z" />
    <glyph glyph-name="colon.case" horiz-adv-x="524" 
d="M262 197q-72 0 -122 50t-50 122q0 73 50 122.5t122 49.5q74 0 123 -49.5t49 -122.5q0 -72 -49.5 -122t-122.5 -50zM262 967q-72 0 -122 50t-50 122q0 73 50 122.5t122 49.5q74 0 123 -49.5t49 -122.5q0 -72 -49.5 -122t-122.5 -50z" />
    <glyph glyph-name="hyphen.case" horiz-adv-x="983" 
d="M123 627v229h737v-229h-737z" />
    <glyph glyph-name="endash.case" horiz-adv-x="1187" 
d="M123 627v229h942v-229h-942z" />
    <glyph glyph-name="emdash.case" horiz-adv-x="2129" 
d="M123 627v229h1884v-229h-1884z" />
    <glyph glyph-name="parenleft.case" horiz-adv-x="780" 
d="M516 -147q-369 434 -369 929q0 251 96 487t273 443l174 -135q-137 -160 -221 -369t-84 -426q0 -212 82 -417.5t219 -380.5z" />
    <glyph glyph-name="parenright.case" horiz-adv-x="780" 
d="M94 -16q137 175 219 380.5t82 417.5q0 217 -84 426t-221 369l174 135q177 -207 273 -443t96 -487q0 -495 -369 -929z" />
    <glyph glyph-name="braceleft.case" horiz-adv-x="770" 
d="M623 -156q-155 0 -249.5 91.5t-94.5 244.5v320q0 88 -38.5 142t-109.5 54v156q71 0 109.5 54.5t38.5 142.5v319q0 153 94.5 244.5t249.5 91.5h82v-197h-23q-90 0 -136 -51t-46 -145v-303q0 -179 -148 -230v-8q148 -51 148 -223v-309q0 -94 46.5 -145.5t135.5 -51.5h23
v-197h-82z" />
    <glyph glyph-name="braceright.case" horiz-adv-x="770" 
d="M147 -156h-81v197h22q89 0 135.5 51.5t46.5 145.5v309q0 172 148 223v8q-148 51 -148 230v303q0 94 -46 145t-136 51h-22v197h81q155 0 250 -91.5t95 -244.5v-319q0 -88 38 -142.5t109 -54.5v-156q-71 0 -109 -54t-38 -142v-320q0 -153 -95 -244.5t-250 -91.5z" />
    <glyph glyph-name="bracketleft.case" horiz-adv-x="813" 
d="M270 -156v1860h469v-205h-229v-1450h229v-205h-469z" />
    <glyph glyph-name="bracketright.case" horiz-adv-x="813" 
d="M543 -156h-469v205h229v1450h-229v205h469v-1860z" />
    <glyph glyph-name="at.case" horiz-adv-x="2023" 
d="M1061 -168q-236 -7 -416.5 57t-294 187.5t-170.5 295.5t-57 388q0 190 66.5 358t185 292t293 195.5t379.5 71.5q258 0 452.5 -101t302 -294.5t107.5 -454.5q0 -165 -46 -292t-136 -200t-211 -73q-179 0 -244 164h-8q-91 -155 -338 -164q-146 0 -234 75.5t-88 190.5
t104 202t275 87h244v35q0 81 -58 123.5t-149 42.5q-144 0 -244 -92l-133 129q65 76 171.5 121t232.5 45q183 0 292 -100.5t109 -278.5v-228q0 -165 90 -165q77 0 117.5 103t40.5 271q0 139 -41 257t-119.5 208.5t-204 141.5t-284.5 51q-212 0 -374.5 -93.5t-249.5 -257
t-87 -370.5q0 -172 41.5 -305.5t127.5 -230.5t226.5 -147t329.5 -46l299 6v-197zM958 451q118 0 193.5 59.5t75.5 132.5v6h-238q-180 0 -180 -100q0 -47 39.5 -72.5t109.5 -25.5z" />
    <glyph glyph-name="plus.case" horiz-adv-x="1318" 
d="M537 49v422h-390v238h390v421h245v-421h389v-238h-389v-422h-245z" />
    <glyph glyph-name="minus.case" horiz-adv-x="1236" 
d="M147 471v238h943v-238h-943z" />
    <glyph glyph-name="multiply.case" horiz-adv-x="1251" 
d="M299 244l328 327l325 -327l160 159l-326 328l326 326l-160 160l-325 -326l-328 326l-160 -160l488 -486l159 160l-159 160l-488 -488z" />
    <glyph glyph-name="divide.case" horiz-adv-x="1277" 
d="M147 524v238h983v-238h-983zM639 106q-60 0 -103.5 43.5t-43.5 104.5q0 60 43.5 103.5t103.5 43.5t103.5 -43.5t43.5 -103.5q0 -61 -43.5 -104.5t-103.5 -43.5zM639 885q-60 0 -103.5 43.5t-43.5 103.5t43.5 104t103.5 44t103.5 -44t43.5 -104t-43.5 -103.5t-103.5 -43.5
z" />
    <glyph glyph-name="equal.case" horiz-adv-x="1318" 
d="M147 786v238h1024v-238h-1024zM147 295v237h1024v-237h-1024z" />
    <glyph glyph-name="greater.case" horiz-adv-x="1327" 
d="M262 135v250l647 324v8l-647 336v254l926 -500v-189z" />
    <glyph glyph-name="less.case" horiz-adv-x="1327" 
d="M1065 135l-926 483v189l926 500v-254l-647 -336v-8l647 -324v-250z" />
    <glyph glyph-name="arrowright.case" horiz-adv-x="1753" 
d="M1049 147l-154 154l328 328h-1059v233h1059l-328 328l154 153l598 -598z" />
    <glyph glyph-name="arrowleft.case" horiz-adv-x="1753" 
d="M106 745l599 598l153 -153l-328 -328h1059v-233h-1059l328 -328l-153 -154z" />
    <glyph glyph-name="arrowboth.case" horiz-adv-x="2621" 
d="M1917 147l-154 154l328 328h-1561l328 -328l-153 -154l-599 598l599 598l153 -153l-328 -328h1561l-328 328l154 153l598 -598z" />
    <glyph glyph-name="uni03060301" horiz-adv-x="0" 
d="M295 1180q-61 0 -88.5 2t-62 13t-62.5 34q-53 44 -74 131q-13 49 -16 102h139l25 -61q16 -36 45 -49q15 -9 94 -9q76 0 94 9q29 13 45 49l25 61h139q-3 -53 -16 -102q-21 -87 -74 -131q-40 -33 -83 -41t-130 -8zM197 1462l213 254h221l-254 -254h-180z" />
    <glyph glyph-name="uni03060300" horiz-adv-x="0" 
d="M332 1180q-81 0 -127.5 9.5t-85.5 39.5q-46 40 -74 131q-16 62 -16 102h139l25 -61q16 -36 45 -49q15 -9 94 -9q76 0 94 9q29 13 45 49l25 61h139q0 -36 -17 -102q-28 -92 -73 -131q-39 -30 -85.5 -39.5t-127.5 -9.5zM250 1462l-254 254h221l213 -254h-180z" />
    <glyph glyph-name="uni03060309" horiz-adv-x="0" 
d="M297 1176q-81 0 -127.5 9.5t-85.5 39.5q-46 40 -74 131q-16 62 -16 102h139l25 -61q16 -36 45 -49q15 -9 94 -9q76 0 94 9q29 13 45 49l25 61h139q0 -40 -16 -102q-28 -91 -74 -131q-39 -30 -85.5 -39.5t-127.5 -9.5zM229 1487q0 33 14 53.5t56 46.5q68 37 68 86
q0 21 -18.5 36t-47.5 15q-55 0 -102 -53l-76 76q64 94 186 100q90 0 148.5 -46t58.5 -115q0 -60 -31.5 -101.5t-99.5 -79.5q-23 -12 -28 -22.5t-5 -32.5v-4h-123v41z" />
    <glyph glyph-name="uni03060303" horiz-adv-x="0" 
d="M131 1526q0 122 56.5 196t134.5 74q66 0 149 -65q77 -62 117 -62q34 0 55 43t21 103h127q0 -128 -58 -208.5t-145 -80.5q-67 0 -137 55q-77 59 -117 59q-36 0 -56 -32.5t-20 -81.5h-127zM293 1176q-81 0 -127.5 9.5t-85.5 39.5q-46 40 -74 131q-16 62 -16 102h139l25 -61
q16 -36 45 -49q15 -9 94 -9q76 0 94 9q29 13 45 49l25 61h139q0 -40 -16 -102q-28 -91 -74 -131q-39 -30 -85.5 -39.5t-127.5 -9.5z" />
    <glyph glyph-name="uni03020301" horiz-adv-x="0" 
d="M555 1352l221 254h221l-254 -254h-188zM0 1178l250 258h188l250 -258h-205l-131 114h-16l-131 -114h-205z" />
    <glyph glyph-name="uni03020300" horiz-adv-x="0" 
d="M971 1335l-254 254h221l221 -254h-188zM313 1178l250 258h189l249 -258h-204l-131 114h-17l-131 -114h-205z" />
    <glyph glyph-name="uni03020309" horiz-adv-x="0" 
d="M508 1389q0 33 14 53.5t56 46.5q67 37 67 86q0 21 -18.5 36t-46.5 15q-56 0 -103 -53l-76 76q64 94 187 100q90 0 148.5 -46.5t58.5 -115.5q0 -60 -31.5 -101t-99.5 -79q-23 -12 -28 -22.5t-5 -32.5v-4h-123v41zM-66 1178l250 258h189l250 -258h-205l-131 114h-17
l-131 -114h-205z" />
    <glyph glyph-name="uni03020303" horiz-adv-x="0" 
d="M74 1470q0 118 61 199.5t137 81.5q67 0 150 -65q77 -62 117 -62q34 0 54.5 42.5t20.5 102.5h136q0 -141 -60.5 -220t-150.5 -79q-67 0 -138 56q-77 59 -116 59q-35 0 -55.5 -33t-20.5 -82h-135zM0 1178l250 258h188l250 -258h-205l-131 114h-16l-131 -114h-205z" />
    <glyph glyph-name="equivalent" horiz-adv-x="2662" 
d="M528 754l-114 -115l114 -115h1606l115 115l-115 115h-1606zM762 291l158 -158l-154 -153l-660 659l660 659l154 -153l-158 -158h1139l-158 158l153 153l660 -659l-660 -659l-153 153l158 158h-1139z" />
    <glyph glyph-name="implies" horiz-adv-x="1892" 
d="M164 754v233h966l-157 158l153 153l660 -659l-660 -659l-153 153l157 158h-966v233h1200l115 115l-115 115h-1200z" />
    <glyph glyph-name="equivalent.case" horiz-adv-x="2662" 
d="M528 877l-114 -115l114 -115h1606l115 115l-115 115h-1606zM762 414l158 -158l-154 -154l-660 660l660 659l154 -153l-158 -158h1139l-158 158l153 153l660 -659l-660 -660l-153 154l158 158h-1139z" />
    <glyph glyph-name="implies.case" horiz-adv-x="1892" 
d="M164 877v233h966l-157 158l153 153l660 -659l-660 -660l-153 154l157 158h-966v233h1200l115 115l-115 115h-1200z" />
    </font>
</defs>
</svg>
