<svg width="20" height="20" viewBox="0 0 20 20" fill="none" xmlns="http://www.w3.org/2000/svg">
<path d="M9.99935 1.66797C8.45225 1.66797 6.96852 2.28255 5.87456 3.37651C4.7806 4.47047 4.16602 5.95421 4.16602 7.5013C4.16602 11.8763 9.99935 18.3346 9.99935 18.3346C9.99935 18.3346 15.8327 11.8763 15.8327 7.5013C15.8327 5.95421 15.2181 4.47047 14.1241 3.37651C13.0302 2.28255 11.5464 1.66797 9.99935 1.66797ZM9.99935 9.58464C9.44681 9.58464 8.91691 9.36514 8.52621 8.97444C8.13551 8.58374 7.91602 8.05384 7.91602 7.5013C7.91602 6.94877 8.13551 6.41886 8.52621 6.02816C8.91691 5.63746 9.44681 5.41797 9.99935 5.41797C10.5519 5.41797 11.0818 5.63746 11.4725 6.02816C11.8632 6.41886 12.0827 6.94877 12.0827 7.5013C12.0827 8.05384 11.8632 8.58374 11.4725 8.97444C11.0818 9.36514 10.5519 9.58464 9.99935 9.58464Z" fill="#1A3D4E"/>
</svg>
