<svg width="16" height="16" viewBox="0 0 16 16" fill="none" xmlns="http://www.w3.org/2000/svg">
<path d="M8.00065 1.33594C6.76297 1.33594 5.57599 1.8276 4.70082 2.70277C3.82565 3.57794 3.33398 4.76493 3.33398 6.0026C3.33398 9.5026 8.00065 14.6693 8.00065 14.6693C8.00065 14.6693 12.6673 9.5026 12.6673 6.0026C12.6673 4.76493 12.1757 3.57794 11.3005 2.70277C10.4253 1.8276 9.23833 1.33594 8.00065 1.33594ZM8.00065 7.66927C7.55862 7.66927 7.1347 7.49368 6.82214 7.18112C6.50958 6.86855 6.33398 6.44463 6.33398 6.0026C6.33398 5.56058 6.50958 5.13665 6.82214 4.82409C7.1347 4.51153 7.55862 4.33594 8.00065 4.33594C8.44268 4.33594 8.8666 4.51153 9.17916 4.82409C9.49172 5.13665 9.66732 5.56058 9.66732 6.0026C9.66732 6.44463 9.49172 6.86855 9.17916 7.18112C8.8666 7.49368 8.44268 7.66927 8.00065 7.66927Z" fill="white"/>
</svg>
