<svg width="16" height="16" viewBox="0 0 16 16" fill="none" xmlns="http://www.w3.org/2000/svg">
<path d="M14 11C14 12.1046 13.1046 13 12 13H4C2.89543 13 2 12.1046 2 11V5.56641L7.02344 8.26074C7.31954 8.41959 7.65918 8.5 8 8.5C8.34082 8.5 8.68046 8.41959 8.97656 8.26074L14 5.56641V11ZM12 3C12.9334 3 13.715 3.64012 13.9355 4.50488C13.877 4.51249 13.8188 4.53003 13.7637 4.55957L8.50391 7.37891C8.36181 7.45514 8.18596 7.5 8 7.5C7.81404 7.5 7.63819 7.45514 7.49609 7.37891L2.23633 4.55957C2.18092 4.52987 2.12233 4.51241 2.06348 4.50488C2.28394 3.64 3.06647 3 4 3H12Z" fill="white"/>
</svg>
