<svg width="117" height="101" viewBox="0 0 117 101" fill="none" xmlns="http://www.w3.org/2000/svg">
<path d="M58.4886 39.3151C44.3092 20.1409 23.7199 6.02747 0 0V100.989H8.63789V20.9483C25.331 28.0448 39.3161 40.1453 48.7195 55.4414C42.1497 68.8724 38.3678 83.907 38.1964 99.84C38.1964 100.227 38.2078 100.613 38.2078 101H46.8457C46.8457 100.647 46.8229 100.295 46.8343 99.9424C46.9714 87.6713 49.4736 75.9576 53.884 65.1991C58.3743 75.1615 61.0594 86.136 61.4936 97.7474C61.5393 98.8392 61.5278 99.9196 61.5278 101H78.7922C78.7922 99.7035 78.7922 98.4071 78.7465 97.0992C78.0609 78.7666 72.6337 61.7304 63.7102 47.0825C72.8622 33.8562 85.2706 22.9954 99.7356 15.6942V100.989H117V0C93.2115 6.02747 72.6451 20.1636 58.5 39.3151H58.4886Z" fill="white"/>
</svg>
